<svg width="1920" height="80" viewBox="0 0 1920 80" fill="none" xmlns="http://www.w3.org/2000/svg">
<path opacity="0.2" fill-rule="evenodd" clip-rule="evenodd" d="M883.305 16.015C892.132 14.0481 899.763 11.5222 907.182 9.03937H907.147C921.354 4.28859 936.58 0.268709 959.156 0.171974C959.355 0.171974 959.571 0.113106 959.767 0.0595655C959.849 0.0372292 959.928 0.0158203 960 0V0.247212C981.662 0.139729 996.747 3.58995 1010.15 8.07201C1016.86 10.3292 1023.82 12.5111 1031.1 14.5963C1057.79 22.2276 1102.77 22.2813 1129.85 14.3061C1135.25 12.7141 1140.43 11.05 1145.62 9.38517C1147.93 8.64457 1150.23 7.9038 1152.56 7.16915C1162.62 3.98764 1173.66 1.3113 1188.5 0.537418C1210.23 -0.591159 1228.62 1.3328 1243.96 6.10506C1247.07 7.07246 1250.12 8.06244 1253.17 9.05259C1258.8 10.8787 1264.43 12.7054 1270.47 14.392C1298.78 22.2813 1340.17 22.3781 1368.79 14.607C1374.69 13.0105 1380.08 11.2499 1385.47 9.48937C1388.24 8.58313 1391.02 7.67687 1393.86 6.79296C1403.64 3.75118 1414.47 1.26831 1428.71 0.526669C1450.9 -0.623405 1469.43 1.41878 1484.91 6.33078C1487.26 7.0781 1489.59 7.8354 1491.92 8.59295C1498.63 10.7772 1505.36 12.9635 1512.72 14.9187C1539.87 22.1094 1579.46 22.1954 1606.93 15.1229C1613.16 13.5203 1618.79 11.6923 1624.4 9.86642C1626.73 9.10843 1629.06 8.35081 1631.44 7.60983C1639.98 4.95499 1648.74 2.34314 1660.69 1.21456C1683.94 -0.9781 1704.79 0.322451 1722.37 5.5784C1726.37 6.77317 1730.22 8.01567 1734.07 9.2581C1739.54 11.0223 1745.01 12.7864 1750.89 14.4135C1777.27 21.7332 1814.61 22.4103 1843.31 16.015C1852.13 14.0481 1859.76 11.5222 1867.18 9.03937H1867.15C1881.35 4.28859 1896.58 0.268709 1919.16 0.171974C1919.35 0.171974 1919.57 0.11309 1919.77 0.0595447C1919.85 0.0372159 1919.93 0.0158154 1920 0V80H960H0V0.247212C21.6615 0.139729 36.7473 3.58995 50.1451 8.07201C56.8615 10.3292 63.8242 12.5111 71.1033 14.5963C97.7934 22.2276 142.769 22.2813 169.846 14.3061C175.249 12.7141 180.433 11.05 185.62 9.38517C187.927 8.64456 190.235 7.9038 192.563 7.16915C202.62 3.98764 213.662 1.3113 228.501 0.537418C250.233 -0.591159 268.624 1.3328 283.956 6.10506C287.072 7.07244 290.122 8.06239 293.173 9.05252C298.799 10.8787 304.428 12.7054 310.47 14.392C338.778 22.2813 380.167 22.3781 408.791 14.607C414.688 13.0104 420.079 11.2499 425.47 9.48928C428.245 8.58307 431.02 7.67684 433.864 6.79296C443.64 3.75118 454.47 1.26831 468.712 0.526669C490.901 -0.623405 509.433 1.41878 524.906 6.33078C527.26 7.07814 529.589 7.83548 531.919 8.59307C538.635 10.7773 545.358 12.9635 552.721 14.9187C579.868 22.1094 619.464 22.1954 646.927 15.1229C653.165 13.5203 658.787 11.6923 664.403 9.86641C666.734 9.10842 669.065 8.3508 671.437 7.60983C679.982 4.95499 688.738 2.34314 700.695 1.21456C723.938 -0.9781 744.791 0.322451 762.374 5.5784C766.37 6.77317 770.222 8.01567 774.073 9.2581C779.543 11.0223 785.012 12.7864 790.892 14.4135C817.266 21.7332 854.611 22.4103 883.305 16.015Z" fill="url(#paint0_linear_1766_44316)"/>
<defs>
<linearGradient id="paint0_linear_1766_44316" x1="960" y1="0" x2="960" y2="80" gradientUnits="userSpaceOnUse">
<stop stop-color="#6FC7E2"/>
<stop offset="1" stop-color="white"/>
</linearGradient>
</defs>
</svg>
