<svg width="876" height="371" viewBox="0 0 876 371" fill="none" xmlns="http://www.w3.org/2000/svg">
<g clip-path="url(#clip0_260_53697)">
<path d="M876 0H0V371H876V0Z" fill="white"/>
<g clip-path="url(#clip1_260_53697)">
<path d="M823.002 203.578C823.002 294.705 749.129 368.578 658.002 368.578C566.875 368.578 493.002 294.705 493.002 203.578C493.002 112.451 566.875 38.5781 658.002 38.5781C749.129 38.5781 823.002 112.451 823.002 203.578Z" fill="url(#paint0_linear_260_53697)"/>
<path d="M697.652 34.9068C703.726 36.3022 709.721 38.0212 715.612 40.0563L658.468 205.463L697.652 34.9068Z" fill="url(#paint1_linear_260_53697)"/>
<path d="M769.164 69.9231C772.827 72.9143 776.367 76.0527 779.775 79.3306L658.468 205.463L769.164 69.9231Z" fill="url(#paint2_linear_260_53697)"/>
<path d="M779.678 79.2375C786.608 85.8924 792.979 93.1069 798.725 100.808L658.468 205.463L779.678 79.2375Z" fill="url(#paint3_linear_260_53697)"/>
<path d="M715.264 39.941C734.868 46.6678 753.121 56.8235 769.173 69.9349L658.466 205.468L715.264 39.941Z" fill="url(#paint4_linear_260_53697)"/>
<path d="M753.762 178.541C767.577 231.439 735.94 285.521 683.05 299.338C630.159 313.154 576.085 281.513 562.24 228.615C548.425 175.717 580.093 121.635 632.953 107.818C685.843 94.0017 739.917 125.643 753.732 178.541" fill="white"/>
<path d="M544.576 303.208C542.368 303.208 540.736 301.896 540.736 300.072C540.736 298.52 541.76 297.48 542.848 296.904V296.824C541.968 296.2 541.264 295.32 541.264 294.072C541.264 292.232 542.704 291.032 544.624 291.032C546.672 291.032 547.952 292.312 547.952 294.152C547.952 295.352 547.136 296.376 546.4 296.92V297C547.456 297.592 548.384 298.52 548.384 300.12C548.384 301.864 546.848 303.208 544.576 303.208ZM545.344 296.456C546.048 295.8 546.4 295.048 546.4 294.264C546.4 293.176 545.744 292.36 544.592 292.36C543.632 292.36 542.912 293.016 542.912 294.072C542.912 295.352 544.032 295.944 545.344 296.456ZM544.608 301.88C545.824 301.88 546.64 301.176 546.64 300.072C546.64 298.632 545.344 298.088 543.744 297.432C542.928 297.992 542.368 298.872 542.368 299.896C542.368 301.064 543.344 301.88 544.608 301.88ZM553.701 303.208C551.493 303.208 549.861 301.896 549.861 300.072C549.861 298.52 550.885 297.48 551.973 296.904V296.824C551.093 296.2 550.389 295.32 550.389 294.072C550.389 292.232 551.829 291.032 553.749 291.032C555.797 291.032 557.077 292.312 557.077 294.152C557.077 295.352 556.261 296.376 555.525 296.92V297C556.581 297.592 557.509 298.52 557.509 300.12C557.509 301.864 555.973 303.208 553.701 303.208ZM554.469 296.456C555.173 295.8 555.525 295.048 555.525 294.264C555.525 293.176 554.869 292.36 553.717 292.36C552.757 292.36 552.037 293.016 552.037 294.072C552.037 295.352 553.157 295.944 554.469 296.456ZM553.733 301.88C554.949 301.88 555.765 301.176 555.765 300.072C555.765 298.632 554.469 298.088 552.869 297.432C552.053 297.992 551.493 298.872 551.493 299.896C551.493 301.064 552.469 301.88 553.733 301.88ZM560.634 303.208C559.946 303.208 559.402 302.68 559.402 301.928C559.402 301.16 559.946 300.616 560.634 300.616C561.322 300.616 561.866 301.16 561.866 301.928C561.866 302.68 561.322 303.208 560.634 303.208ZM566.104 303C566.312 298.696 567.064 295.944 569.336 292.776H563.8V291.208H571.384V292.344C568.616 295.784 568.184 298.392 567.992 303H566.104ZM576.429 303.208C574.573 303.208 573.405 302.456 572.573 301.64L573.453 300.44C574.125 301.112 574.973 301.704 576.205 301.704C577.533 301.704 578.541 300.76 578.541 299.192C578.541 297.624 577.645 296.728 576.301 296.728C575.549 296.728 575.101 296.952 574.413 297.4L573.517 296.808L573.869 291.208H579.837V292.776H575.469L575.197 295.8C575.709 295.544 576.173 295.384 576.813 295.384C578.781 295.384 580.397 296.552 580.397 299.128C580.397 301.736 578.493 303.208 576.429 303.208ZM584.594 298.456C582.946 298.456 581.842 297.08 581.842 294.712C581.842 292.344 582.946 291 584.594 291C586.242 291 587.362 292.344 587.362 294.712C587.362 297.08 586.242 298.456 584.594 298.456ZM584.594 297.368C585.426 297.368 586.018 296.52 586.018 294.712C586.018 292.888 585.426 292.088 584.594 292.088C583.778 292.088 583.186 292.888 583.186 294.712C583.186 296.52 583.778 297.368 584.594 297.368ZM584.962 303.208L591.41 291H592.578L586.13 303.208H584.962ZM592.962 303.208C591.314 303.208 590.194 301.848 590.194 299.48C590.194 297.112 591.314 295.768 592.962 295.768C594.594 295.768 595.714 297.112 595.714 299.48C595.714 301.848 594.594 303.208 592.962 303.208ZM592.962 302.136C593.778 302.136 594.37 301.288 594.37 299.48C594.37 297.656 593.778 296.856 592.962 296.856C592.13 296.856 591.554 297.656 591.554 299.48C591.554 301.288 592.13 302.136 592.962 302.136Z" fill="white"/>
<path d="M780.376 68V66.48H782.952V58.288H780.84V57.12C781.944 56.912 782.728 56.64 783.4 56.208H784.792V66.48H787.096V68H780.376ZM790.509 68.208C789.821 68.208 789.277 67.68 789.277 66.928C789.277 66.16 789.821 65.616 790.509 65.616C791.197 65.616 791.741 66.16 791.741 66.928C791.741 67.68 791.197 68.208 790.509 68.208ZM793.595 68V66.928C797.067 63.856 798.859 61.568 798.859 59.632C798.859 58.352 798.187 57.472 796.859 57.472C795.931 57.472 795.163 58.064 794.539 58.784L793.499 57.76C794.507 56.656 795.547 56 797.083 56C799.243 56 800.635 57.408 800.635 59.536C800.635 61.808 798.827 64.16 796.331 66.544C796.939 66.48 797.675 66.432 798.251 66.432H801.195V68H793.595ZM804.416 59.872C804.416 61.376 805.088 62.24 806.32 62.24C807.056 62.24 807.888 61.808 808.56 60.8C808.384 58.48 807.504 57.424 806.224 57.424C805.216 57.424 804.416 58.336 804.416 59.872ZM805.904 68.208C804.544 68.208 803.584 67.664 802.896 66.96L803.904 65.824C804.368 66.352 805.088 66.704 805.824 66.704C807.248 66.704 808.48 65.552 808.592 62.192C807.904 63.04 806.896 63.568 806 63.568C804.032 63.568 802.704 62.336 802.704 59.872C802.704 57.536 804.304 56 806.208 56C808.464 56 810.288 57.808 810.288 61.712C810.288 66.352 808.176 68.208 805.904 68.208ZM814.469 63.456C812.821 63.456 811.717 62.08 811.717 59.712C811.717 57.344 812.821 56 814.469 56C816.117 56 817.237 57.344 817.237 59.712C817.237 62.08 816.117 63.456 814.469 63.456ZM814.469 62.368C815.301 62.368 815.893 61.52 815.893 59.712C815.893 57.888 815.301 57.088 814.469 57.088C813.653 57.088 813.061 57.888 813.061 59.712C813.061 61.52 813.653 62.368 814.469 62.368ZM814.837 68.208L821.285 56H822.453L816.005 68.208H814.837ZM822.837 68.208C821.189 68.208 820.069 66.848 820.069 64.48C820.069 62.112 821.189 60.768 822.837 60.768C824.469 60.768 825.589 62.112 825.589 64.48C825.589 66.848 824.469 68.208 822.837 68.208ZM822.837 67.136C823.653 67.136 824.245 66.288 824.245 64.48C824.245 62.656 823.653 61.856 822.837 61.856C822.005 61.856 821.429 62.656 821.429 64.48C821.429 66.288 822.005 67.136 822.837 67.136Z" fill="#4985C6"/>
<path d="M690.376 23V21.48H692.952V13.288H690.84V12.12C691.944 11.912 692.728 11.64 693.4 11.208H694.792V21.48H697.096V23H690.376ZM700.509 23.208C699.821 23.208 699.277 22.68 699.277 21.928C699.277 21.16 699.821 20.616 700.509 20.616C701.197 20.616 701.741 21.16 701.741 21.928C701.741 22.68 701.197 23.208 700.509 23.208ZM705.979 23C706.187 18.696 706.939 15.944 709.211 12.776H703.675V11.208H711.259V12.344C708.491 15.784 708.059 18.392 707.867 23H705.979ZM715.344 18.456C713.696 18.456 712.592 17.08 712.592 14.712C712.592 12.344 713.696 11 715.344 11C716.992 11 718.112 12.344 718.112 14.712C718.112 17.08 716.992 18.456 715.344 18.456ZM715.344 17.368C716.176 17.368 716.768 16.52 716.768 14.712C716.768 12.888 716.176 12.088 715.344 12.088C714.528 12.088 713.936 12.888 713.936 14.712C713.936 16.52 714.528 17.368 715.344 17.368ZM715.712 23.208L722.16 11H723.328L716.88 23.208H715.712ZM723.712 23.208C722.064 23.208 720.944 21.848 720.944 19.48C720.944 17.112 722.064 15.768 723.712 15.768C725.344 15.768 726.464 17.112 726.464 19.48C726.464 21.848 725.344 23.208 723.712 23.208ZM723.712 22.136C724.528 22.136 725.12 21.288 725.12 19.48C725.12 17.656 724.528 16.856 723.712 16.856C722.88 16.856 722.304 17.656 722.304 19.48C722.304 21.288 722.88 22.136 723.712 22.136Z" fill="#FF881A"/>
<path d="M710.288 86.208C708.432 86.208 707.264 85.456 706.432 84.64L707.312 83.44C707.984 84.112 708.832 84.704 710.064 84.704C711.392 84.704 712.4 83.76 712.4 82.192C712.4 80.624 711.504 79.728 710.16 79.728C709.408 79.728 708.96 79.952 708.272 80.4L707.376 79.808L707.728 74.208H713.696V75.776H709.328L709.056 78.8C709.568 78.544 710.032 78.384 710.672 78.384C712.64 78.384 714.256 79.552 714.256 82.128C714.256 84.736 712.352 86.208 710.288 86.208ZM717.509 86.208C716.821 86.208 716.277 85.68 716.277 84.928C716.277 84.16 716.821 83.616 717.509 83.616C718.197 83.616 718.741 84.16 718.741 84.928C718.741 85.68 718.197 86.208 717.509 86.208ZM724.675 79.984C724.003 79.984 723.187 80.352 722.483 81.36C722.675 83.696 723.523 84.8 724.787 84.8C725.811 84.8 726.627 83.872 726.627 82.336C726.627 80.832 725.939 79.984 724.675 79.984ZM724.803 86.208C722.563 86.208 720.739 84.336 720.739 80.336C720.739 75.808 722.867 74 725.187 74C726.499 74 727.459 74.56 728.131 75.264L727.123 76.384C726.691 75.872 725.971 75.504 725.283 75.504C723.779 75.504 722.531 76.64 722.451 80C723.139 79.152 724.163 78.64 725.011 78.64C726.995 78.64 728.323 79.856 728.323 82.336C728.323 84.672 726.723 86.208 724.803 86.208ZM731.192 81.408H734.44V78.32C734.44 77.68 734.488 76.688 734.52 76.032H734.456C734.168 76.64 733.848 77.248 733.512 77.856L731.192 81.408ZM734.44 86V82.832H729.336V81.6L734.024 74.208H736.168V81.408H737.656V82.832H736.168V86H734.44ZM741.469 81.456C739.821 81.456 738.717 80.08 738.717 77.712C738.717 75.344 739.821 74 741.469 74C743.117 74 744.237 75.344 744.237 77.712C744.237 80.08 743.117 81.456 741.469 81.456ZM741.469 80.368C742.301 80.368 742.893 79.52 742.893 77.712C742.893 75.888 742.301 75.088 741.469 75.088C740.653 75.088 740.061 75.888 740.061 77.712C740.061 79.52 740.653 80.368 741.469 80.368ZM741.837 86.208L748.285 74H749.453L743.005 86.208H741.837ZM749.837 86.208C748.189 86.208 747.069 84.848 747.069 82.48C747.069 80.112 748.189 78.768 749.837 78.768C751.469 78.768 752.589 80.112 752.589 82.48C752.589 84.848 751.469 86.208 749.837 86.208ZM749.837 85.136C750.653 85.136 751.245 84.288 751.245 82.48C751.245 80.656 750.653 79.856 749.837 79.856C749.005 79.856 748.429 80.656 748.429 82.48C748.429 84.288 749.005 85.136 749.837 85.136Z" fill="white"/>
<path d="M802.704 94V92.928C806.176 89.856 807.968 87.568 807.968 85.632C807.968 84.352 807.296 83.472 805.968 83.472C805.04 83.472 804.272 84.064 803.648 84.784L802.608 83.76C803.616 82.656 804.656 82 806.192 82C808.352 82 809.744 83.408 809.744 85.536C809.744 87.808 807.936 90.16 805.44 92.544C806.048 92.48 806.784 92.432 807.36 92.432H810.304V94H802.704ZM813.509 94.208C812.821 94.208 812.277 93.68 812.277 92.928C812.277 92.16 812.821 91.616 813.509 91.616C814.197 91.616 814.741 92.16 814.741 92.928C814.741 93.68 814.197 94.208 813.509 94.208ZM820.675 87.984C820.003 87.984 819.187 88.352 818.483 89.36C818.675 91.696 819.523 92.8 820.787 92.8C821.811 92.8 822.627 91.872 822.627 90.336C822.627 88.832 821.939 87.984 820.675 87.984ZM820.803 94.208C818.563 94.208 816.739 92.336 816.739 88.336C816.739 83.808 818.867 82 821.187 82C822.499 82 823.459 82.56 824.131 83.264L823.123 84.384C822.691 83.872 821.971 83.504 821.283 83.504C819.779 83.504 818.531 84.64 818.451 88C819.139 87.152 820.163 86.64 821.011 86.64C822.995 86.64 824.323 87.856 824.323 90.336C824.323 92.672 822.723 94.208 820.803 94.208ZM825.72 94V92.928C829.192 89.856 830.984 87.568 830.984 85.632C830.984 84.352 830.312 83.472 828.984 83.472C828.056 83.472 827.288 84.064 826.664 84.784L825.624 83.76C826.632 82.656 827.672 82 829.208 82C831.368 82 832.76 83.408 832.76 85.536C832.76 87.808 830.952 90.16 828.456 92.544C829.064 92.48 829.8 92.432 830.376 92.432H833.32V94H825.72ZM837.469 89.456C835.821 89.456 834.717 88.08 834.717 85.712C834.717 83.344 835.821 82 837.469 82C839.117 82 840.237 83.344 840.237 85.712C840.237 88.08 839.117 89.456 837.469 89.456ZM837.469 88.368C838.301 88.368 838.893 87.52 838.893 85.712C838.893 83.888 838.301 83.088 837.469 83.088C836.653 83.088 836.061 83.888 836.061 85.712C836.061 87.52 836.653 88.368 837.469 88.368ZM837.837 94.208L844.285 82H845.453L839.005 94.208H837.837ZM845.837 94.208C844.189 94.208 843.069 92.848 843.069 90.48C843.069 88.112 844.189 86.768 845.837 86.768C847.469 86.768 848.589 88.112 848.589 90.48C848.589 92.848 847.469 94.208 845.837 94.208ZM845.837 93.136C846.653 93.136 847.245 92.288 847.245 90.48C847.245 88.656 846.653 87.856 845.837 87.856C845.005 87.856 844.429 88.656 844.429 90.48C844.429 92.288 845.005 93.136 845.837 93.136Z" fill="#BD5784"/>
</g>
<path d="M73.4766 72.2472H80.8846V73.3672H73.4766V72.2472ZM73.2206 79.2232H80.9966V80.3752H73.2206V79.2232ZM82.0686 71.9912H86.2126V73.3032H82.0686V71.9912ZM76.6126 71.3512H77.8926V82.3432H76.6126V71.3512ZM81.4766 71.9912H82.9166V79.8312C82.9166 80.4712 83.0286 80.5992 83.7006 80.5992C84.0046 80.5992 85.4926 80.5992 85.8766 80.5992C86.4686 80.5992 86.5806 80.2472 86.6446 78.5512C86.9806 78.7752 87.5566 79.0312 87.9726 79.1112C87.7966 81.3032 87.3966 81.9592 85.9886 81.9592C85.6206 81.9592 83.8446 81.9592 83.5086 81.9592C81.9566 81.9592 81.4766 81.5272 81.4766 79.8312V71.9912ZM85.4446 71.9912H86.9006V76.6952C86.9006 77.3672 86.7726 77.7832 86.2606 78.0232C85.7646 78.2632 85.0446 78.2952 84.0046 78.2952C83.9246 77.8632 83.6846 77.2712 83.4926 76.8872C84.2606 76.9032 84.9486 76.9032 85.1726 76.9032C85.3966 76.8872 85.4446 76.8392 85.4446 76.6472V71.9912ZM75.2046 76.7112V77.5752H79.2206V76.7112H75.2046ZM75.2046 74.9832V75.8152H79.2206V74.9832H75.2046ZM74.0046 74.0392H80.4846V78.5352H74.0046V74.0392ZM75.2686 68.5512H80.3566V69.7512H75.2686V68.5512ZM81.9086 68.5672H87.8286V69.7512H81.9086V68.5672ZM75.5086 67.3672L76.8526 67.7512C76.2286 69.2872 75.1886 70.8392 74.1806 71.8472C73.9566 71.5752 73.4446 71.0632 73.1406 70.8232C74.1006 69.9592 74.9966 68.6792 75.5086 67.3672ZM82.1166 67.3672L83.5086 67.7032C82.9966 69.2712 82.0846 70.7912 81.1246 71.7512C80.8686 71.5112 80.3086 71.0792 79.9726 70.8712C80.9006 70.0232 81.6846 68.7112 82.1166 67.3672ZM76.4046 70.2472L77.3166 69.4632C77.8926 69.9112 78.6446 70.5832 79.0126 71.0152L78.0526 71.8952C77.7006 71.4312 76.9806 70.7432 76.4046 70.2472ZM83.3806 70.3112L84.3566 69.5112C84.9166 69.9272 85.6366 70.5352 86.0046 70.9512L84.9806 71.8472C84.6446 71.4152 83.9406 70.7592 83.3806 70.3112ZM90.2286 68.7912H94.1326V79.0792H90.2286V77.7992H93.0926V70.0392H90.2286V68.7912ZM89.5726 68.7912H90.6126V80.5352H89.5726V68.7912ZM95.3486 77.7992H98.1806V81.0312H95.3486V80.0712H97.0606V78.7752H95.3486V77.7992ZM94.7566 77.7992H95.8606V81.7992H94.7566V77.7992ZM90.3086 73.2392H93.7966V74.4872H90.3086V73.2392ZM91.3806 69.5112H92.2926V78.4392H91.3806V69.5112ZM94.6766 68.4872H103.605V69.4632H94.6766V68.4872ZM95.3166 70.1832H103.013V71.1432H95.3166V70.1832ZM94.4526 71.7672H102.885V72.7112H94.4526V71.7672ZM95.7166 73.3032H101.925V74.1352H95.7166V73.3032ZM94.8686 74.8712H102.805V75.7032H94.8686V74.8712ZM94.3726 76.2952H103.925V77.2392H94.3726V76.2952ZM98.5486 78.1672H103.813V79.1912H98.5486V78.1672ZM98.3086 67.4952H99.7166V70.6952H98.3086V67.4952ZM98.2126 73.5912H99.5086V75.0792H98.2126V73.5912ZM102.517 71.7672H102.709L102.933 71.7192L103.829 71.9752C103.605 72.7912 103.301 73.7192 103.029 74.3112L101.957 73.9592C102.165 73.4152 102.389 72.6152 102.517 71.9432V71.7672ZM101.253 77.2232H102.517V81.1432C102.517 81.7192 102.421 82.0072 102.037 82.1832C101.637 82.3592 101.093 82.3592 100.293 82.3592C100.229 82.0552 100.053 81.6072 99.9086 81.3032C100.437 81.3192 100.901 81.3192 101.061 81.3032C101.205 81.3032 101.253 81.2712 101.253 81.1112V77.2232ZM98.7406 79.7352L99.6526 79.2232C100.085 79.6552 100.565 80.2632 100.757 80.6792L99.8126 81.2712C99.6366 80.8392 99.1726 80.1832 98.7406 79.7352ZM105.157 73.9432H119.877V75.5912H105.157V73.9432Z" fill="black"/>
<path d="M242.5 98H72.5V99H242.5V98Z" fill="#E7E7E7"/>
<mask id="mask0_260_53697" style="mask-type:luminance" maskUnits="userSpaceOnUse" x="73" y="118" width="10" height="10">
<path d="M83 118H73V128H83V118Z" fill="white"/>
</mask>
<g mask="url(#mask0_260_53697)">
<path d="M82.9063 123.094L77.9062 118.094L72.9062 123.094L77.9062 128.094L82.9063 123.094Z" fill="url(#paint5_linear_260_53697)"/>
</g>
<path d="M97.8754 125.663L98.8194 126.111C97.2034 127.535 94.2754 128.735 91.7794 129.263C91.6354 128.991 91.3314 128.591 91.1074 128.367C93.5714 127.919 96.4194 126.895 97.8754 125.663ZM99.2514 125.567C100.259 128.015 102.547 129.567 105.827 130.111C105.603 130.351 105.299 130.783 105.155 131.087C101.715 130.399 99.4274 128.655 98.2594 125.807L99.2514 125.567ZM103.955 126.431L104.835 127.055C103.811 127.775 102.467 128.463 101.411 128.927L100.659 128.319C101.699 127.839 103.123 127.039 103.955 126.431ZM91.3794 125.311H105.619V126.287H91.3794V125.311ZM100.627 117.391H101.715V122.639H100.627V117.391ZM103.667 116.719H104.755V123.359C104.755 123.983 104.627 124.255 104.179 124.431C103.731 124.591 102.995 124.607 101.859 124.607C101.811 124.303 101.635 123.903 101.475 123.599C102.355 123.631 103.139 123.631 103.363 123.615C103.603 123.615 103.667 123.551 103.667 123.343V116.719ZM94.9474 116.559H95.9874V124.687H94.9474V116.559ZM97.9714 121.263H98.9634V123.215C98.9634 123.663 98.8994 123.887 98.5634 124.031C98.2274 124.175 97.7474 124.175 97.0434 124.175C96.9954 123.919 96.8354 123.631 96.7234 123.407C97.2354 123.423 97.6514 123.423 97.7794 123.407C97.9234 123.391 97.9714 123.359 97.9714 123.231V121.263ZM92.1474 121.263H98.4194V122.079H93.1074V124.271H92.1474V121.263ZM91.3154 119.535H99.3954V120.415H91.3154V119.535ZM92.9794 117.711H98.8354V118.559H92.6274L92.9794 117.711ZM92.8354 116.623L93.7794 116.847C93.4434 117.807 92.9154 118.847 92.4034 119.519C92.2114 119.375 91.7794 119.167 91.5394 119.055C92.0994 118.399 92.5474 117.487 92.8354 116.623ZM94.3074 131.295L94.2594 130.447L94.7554 130.047L99.3794 129.055C99.3474 129.343 99.3314 129.743 99.3474 129.967C95.0914 130.975 94.6114 131.103 94.3074 131.295ZM94.3234 131.295C94.2434 131.039 94.0354 130.591 93.8754 130.399C94.1314 130.239 94.5474 129.919 94.5474 129.183V127.663L95.6834 127.647V130.015C95.6834 130.015 94.3234 130.831 94.3234 131.295ZM97.6834 124.303L98.7874 123.983C99.1074 124.479 99.4434 125.167 99.5874 125.583L98.4034 125.967C98.2914 125.535 97.9714 124.815 97.6834 124.303ZM116.675 124.063H117.859V130.527H116.675V124.063ZM112.675 129.807H121.779V130.879H112.675V129.807ZM113.555 126.623H121.107V127.647H113.555V126.623ZM114.835 118.415V121.423H119.763V118.415H114.835ZM113.715 117.375H120.931V122.479H113.715V117.375ZM120.419 123.055L121.219 123.951C119.219 124.511 116.083 124.815 113.507 124.943C113.475 124.671 113.347 124.271 113.219 123.999C115.715 123.855 118.755 123.535 120.419 123.055ZM109.891 117.887H111.059V131.247H109.891V117.887ZM107.267 121.071H113.075V122.207H107.267V121.071ZM109.955 121.503L110.707 121.823C110.067 124.079 108.787 126.879 107.555 128.367C107.443 128.031 107.155 127.535 106.947 127.263C108.099 125.983 109.379 123.487 109.955 121.503ZM112.307 116.799L113.155 117.727C111.667 118.319 109.411 118.767 107.539 119.023C107.475 118.767 107.315 118.367 107.171 118.095C108.995 117.791 111.123 117.343 112.307 116.799ZM111.011 123.135C111.411 123.487 112.915 125.007 113.235 125.407L112.531 126.351C112.147 125.695 110.947 124.175 110.451 123.615L111.011 123.135ZM130.867 116.559H131.955V123.327C131.955 126.527 131.587 129.343 128.691 131.295C128.499 131.055 128.099 130.687 127.827 130.495C130.531 128.719 130.867 126.207 130.867 123.327V116.559ZM133.619 116.559H134.771V131.263H133.619V116.559ZM128.243 119.295H131.347V120.399H128.243V119.295ZM134.227 119.295H137.571V120.399H134.227V119.295ZM134.291 122.655H137.411V123.727H134.291V122.655ZM134.211 126.143H137.843V127.247H134.211V126.143ZM128.355 122.655H131.395V123.727H128.355V122.655ZM127.443 126.831C128.371 126.575 129.651 126.159 130.963 125.743L131.139 126.671C130.035 127.103 128.899 127.519 127.907 127.871L127.443 126.831ZM122.931 124.863C124.179 124.511 126.051 123.935 127.875 123.343L128.035 124.447C126.371 125.023 124.611 125.599 123.251 126.031L122.931 124.863ZM123.155 119.791H128.019V120.911H123.155V119.791ZM125.171 116.575H126.291V129.887C126.291 130.559 126.131 130.879 125.731 131.071C125.363 131.263 124.739 131.295 123.731 131.295C123.683 131.007 123.539 130.511 123.379 130.175C124.083 130.191 124.691 130.191 124.883 130.175C125.075 130.175 125.171 130.127 125.171 129.887V116.575ZM141.795 116.847L142.835 116.543C143.171 117.215 143.539 118.111 143.715 118.671L142.611 119.039C142.467 118.447 142.099 117.519 141.795 116.847ZM139.187 119.151H146.307V120.287H139.187V119.151ZM141.779 122.415H144.851V123.519H141.779V122.415ZM144.435 122.415H145.587C145.587 122.415 145.587 122.799 145.571 122.959C145.459 128.239 145.363 130.031 144.947 130.575C144.691 130.927 144.419 131.055 143.987 131.103C143.603 131.151 142.931 131.151 142.243 131.103C142.227 130.783 142.115 130.303 141.939 129.983C142.595 130.047 143.203 130.063 143.443 130.063C143.683 130.063 143.811 130.015 143.939 129.839C144.211 129.455 144.339 127.727 144.435 122.655V122.415ZM147.923 119.551H153.875V120.671H147.923V119.551ZM148.275 116.559L149.507 116.751C148.915 119.807 147.939 122.719 146.531 124.591C146.339 124.351 145.875 123.903 145.603 123.695C146.915 121.999 147.795 119.327 148.275 116.559ZM151.587 120.159L152.771 120.287C151.923 125.807 150.163 129.231 146.099 131.327C145.971 131.055 145.619 130.527 145.395 130.271C149.235 128.479 150.883 125.231 151.587 120.159ZM148.403 120.575C149.155 125.039 150.787 128.719 154.035 130.223C153.747 130.463 153.379 130.927 153.187 131.247C149.811 129.487 148.195 125.663 147.347 120.767L148.403 120.575ZM141.091 119.711H142.227V123.615C142.227 126.271 141.907 129.007 139.779 131.263C139.571 131.023 139.187 130.703 138.883 130.495C140.851 128.415 141.091 125.871 141.091 123.615V119.711Z" fill="#4F4F4F"/>
<path d="M97.4125 157.264V159.424H103.604V157.264H97.4125ZM96.3405 156.304H104.724V160.4H96.3405V156.304ZM100.34 159.888H101.38V163.456C101.38 163.856 101.492 163.936 102.1 163.936C102.356 163.936 103.796 163.936 104.164 163.936C104.66 163.936 104.756 163.744 104.804 162.416C105.028 162.592 105.46 162.752 105.748 162.816C105.636 164.48 105.316 164.896 104.26 164.896C103.988 164.896 102.26 164.896 101.988 164.896C100.676 164.896 100.34 164.592 100.34 163.472V159.888ZM98.3245 152.48L99.4445 152.816C98.6125 154.672 97.3325 156.512 96.0845 157.696C95.8605 157.504 95.3805 157.184 95.0925 157.024C96.3885 155.92 97.6045 154.208 98.3245 152.48ZM99.9885 156.576H101.092C100.756 160.208 99.9725 163.52 95.6845 165.136C95.5565 164.88 95.2525 164.496 95.0285 164.304C99.0765 162.848 99.7005 159.808 99.9885 156.576ZM101.476 153.84H101.716L101.892 153.792L102.628 154.24C102.196 155.232 101.46 156.368 100.852 157.088C100.628 156.928 100.276 156.704 100.004 156.592C100.548 155.904 101.188 154.8 101.476 154.048V153.84ZM101.892 161.136L102.724 160.624C103.364 161.136 104.084 161.888 104.404 162.416L103.524 162.992C103.204 162.448 102.516 161.68 101.892 161.136ZM98.1805 153.84H101.924V154.752H97.5885L98.1805 153.84ZM91.8285 153.088L92.7405 152.576C93.4285 153.36 94.2605 154.4 94.6605 155.056L93.7005 155.68C93.3165 155.008 92.4845 153.888 91.8285 153.088ZM91.2365 156.256H94.6925V157.264H91.2365V156.256ZM94.0845 163.6C95.0765 165.696 97.1565 165.984 100.356 165.984C102.052 165.984 104.388 165.92 106.036 165.776C105.86 166.032 105.716 166.576 105.652 166.896C104.132 166.992 102.116 167.024 100.356 167.024C96.5965 167.024 94.5005 166.608 93.2845 163.968L94.0845 163.6ZM94.0845 160.256H94.4365L94.6445 160.224L95.1885 160.448C94.6765 163.808 93.4445 166.08 91.7805 167.312C91.6205 167.072 91.2205 166.656 90.9805 166.48C92.5645 165.392 93.6845 163.344 94.0845 160.464V160.256ZM91.4765 161.456V160.544L92.0525 160.256H94.5805V161.232H92.4205C92.0045 161.232 91.5885 161.328 91.4765 161.456ZM91.4765 161.456C91.3965 161.184 91.1565 160.624 91.0285 160.368C91.2685 160.304 91.5245 160.208 91.7965 159.888C92.2765 159.408 93.7965 157.232 94.3245 156.384V156.336L94.6765 156.176L95.4765 156.544C94.7245 157.632 93.2845 159.68 92.3725 160.704C92.3725 160.704 91.4765 161.152 91.4765 161.456ZM107.396 154.496H114.932V155.52H107.396V154.496ZM107.14 157.424H114.948V158.464H107.14V157.424ZM109.012 152.704H110.116V158.064H109.012V152.704ZM112.18 152.704H113.284V158.064H112.18V152.704ZM112.9 159.44H114.036V166.064C114.036 166.64 113.908 166.944 113.508 167.104C113.124 167.28 112.484 167.296 111.508 167.296C111.46 167.008 111.3 166.56 111.156 166.288C111.844 166.304 112.468 166.304 112.66 166.288C112.852 166.288 112.9 166.24 112.9 166.048V159.44ZM116.164 155.552H121.86V156.672H116.164V155.552ZM116.564 152.56L117.7 152.736C117.22 155.76 116.404 158.672 115.14 160.592C114.98 160.352 114.564 159.856 114.308 159.648C115.46 157.936 116.164 155.264 116.564 152.56ZM119.764 156.16L120.884 156.272C120.196 161.6 118.74 165.12 115.22 167.312C115.108 167.056 114.772 166.576 114.548 166.336C117.876 164.432 119.204 161.072 119.764 156.16ZM116.82 156.496C117.524 160.912 119.044 164.72 122.004 166.304C121.732 166.528 121.348 166.976 121.188 167.28C118.116 165.44 116.644 161.488 115.876 156.656L116.82 156.496ZM108.948 159.44H113.252V160.352H108.948V159.44ZM108.292 159.44H109.38V162.512C109.38 164.016 109.204 166.048 108.148 167.424C107.972 167.216 107.508 166.88 107.268 166.752C108.196 165.504 108.292 163.824 108.292 162.496V159.44ZM109.252 164.4C110.292 164.096 111.796 163.568 113.316 163.04L113.46 163.824C112.148 164.384 110.82 164.944 109.7 165.392L109.252 164.4ZM109.588 161.584L110.132 160.896C111.012 161.312 112.02 161.856 112.548 162.24L112.004 163.024C111.46 162.64 110.42 161.984 109.588 161.584ZM130.868 152.56H131.956V159.328C131.956 162.528 131.588 165.344 128.692 167.296C128.5 167.056 128.1 166.688 127.828 166.496C130.532 164.72 130.868 162.208 130.868 159.328V152.56ZM133.62 152.56H134.772V167.264H133.62V152.56ZM128.244 155.296H131.348V156.4H128.244V155.296ZM134.228 155.296H137.572V156.4H134.228V155.296ZM134.292 158.656H137.412V159.728H134.292V158.656ZM134.212 162.144H137.844V163.248H134.212V162.144ZM128.356 158.656H131.396V159.728H128.356V158.656ZM127.444 162.832C128.372 162.576 129.652 162.16 130.964 161.744L131.14 162.672C130.036 163.104 128.9 163.52 127.908 163.872L127.444 162.832ZM122.932 160.864C124.18 160.512 126.052 159.936 127.876 159.344L128.036 160.448C126.372 161.024 124.612 161.6 123.252 162.032L122.932 160.864ZM123.156 155.792H128.02V156.912H123.156V155.792ZM125.172 152.576H126.292V165.888C126.292 166.56 126.132 166.88 125.732 167.072C125.364 167.264 124.74 167.296 123.732 167.296C123.684 167.008 123.54 166.512 123.38 166.176C124.084 166.192 124.692 166.192 124.884 166.176C125.076 166.176 125.172 166.128 125.172 165.888V152.576ZM141.796 152.848L142.836 152.544C143.172 153.216 143.54 154.112 143.716 154.672L142.612 155.04C142.468 154.448 142.1 153.52 141.796 152.848ZM139.188 155.152H146.308V156.288H139.188V155.152ZM141.78 158.416H144.852V159.52H141.78V158.416ZM144.436 158.416H145.588C145.588 158.416 145.588 158.8 145.572 158.96C145.46 164.24 145.364 166.032 144.948 166.576C144.692 166.928 144.42 167.056 143.988 167.104C143.604 167.152 142.932 167.152 142.244 167.104C142.228 166.784 142.116 166.304 141.94 165.984C142.596 166.048 143.204 166.064 143.444 166.064C143.684 166.064 143.812 166.016 143.94 165.84C144.212 165.456 144.34 163.728 144.436 158.656V158.416ZM147.924 155.552H153.876V156.672H147.924V155.552ZM148.276 152.56L149.508 152.752C148.916 155.808 147.94 158.72 146.532 160.592C146.34 160.352 145.876 159.904 145.604 159.696C146.916 158 147.796 155.328 148.276 152.56ZM151.588 156.16L152.772 156.288C151.924 161.808 150.164 165.232 146.1 167.328C145.972 167.056 145.62 166.528 145.396 166.272C149.236 164.48 150.884 161.232 151.588 156.16ZM148.404 156.576C149.156 161.04 150.788 164.72 154.036 166.224C153.748 166.464 153.38 166.928 153.188 167.248C149.812 165.488 148.196 161.664 147.348 156.768L148.404 156.576ZM141.092 155.712H142.228V159.616C142.228 162.272 141.908 165.008 139.78 167.264C139.572 167.024 139.188 166.704 138.884 166.496C140.852 164.416 141.092 161.872 141.092 159.616V155.712Z" fill="#4F4F4F"/>
<path d="M94.1322 192.961H103.012V193.953H94.1322V192.961ZM97.9242 191.121H99.0762V196.353H97.9242V191.121ZM96.2442 196.737V199.057H100.852V196.737H96.2442ZM95.1722 195.793H101.972V200.001H95.1722V195.793ZM91.9082 189.329H105.124V203.329H103.876V190.449H93.1082V203.329H91.9082V189.329ZM92.5962 201.441H104.388V202.561H92.5962V201.441ZM109.876 193.505H119.204V194.657H109.876V193.505ZM114.484 197.281H119.876V198.417H114.484V197.281ZM113.844 194.049H115.092V202.145L113.844 201.985V194.049ZM110.084 195.953L111.3 196.081C110.852 199.313 109.86 201.745 108.052 203.329C107.86 203.121 107.364 202.721 107.076 202.529C108.868 201.153 109.732 198.865 110.084 195.953ZM110.836 198.001C111.972 201.265 114.468 201.825 117.716 201.841C118.308 201.841 121.076 201.841 121.86 201.809C121.668 202.113 121.46 202.673 121.396 203.025H117.652C113.844 203.025 111.236 202.289 109.86 198.385L110.836 198.001ZM107.812 190.369H121.188V193.873H119.956V191.521H108.996V193.873H107.812V190.369ZM113.3 188.801L114.484 188.465C114.868 189.073 115.284 189.889 115.444 190.433L114.196 190.817C114.052 190.289 113.684 189.441 113.3 188.801ZM133.844 189.361L134.644 188.673C135.476 189.233 136.484 190.065 136.98 190.625L136.132 191.377C135.652 190.801 134.676 189.937 133.844 189.361ZM123.38 191.553H137.636V192.721H123.38V191.553ZM123.924 195.121H130.996V196.289H123.924V195.121ZM126.804 195.745H128.004V201.457H126.804V195.745ZM123.444 201.617C125.348 201.249 128.484 200.609 131.444 199.969L131.54 201.041C128.804 201.681 125.876 202.353 123.812 202.817L123.444 201.617ZM131.524 188.641H132.804C132.756 196.065 134.196 202.065 136.164 202.065C136.612 202.065 136.804 201.185 136.9 199.041C137.172 199.313 137.636 199.585 137.972 199.697C137.764 202.497 137.3 203.313 136.068 203.313C132.884 203.313 131.588 196.385 131.524 188.641ZM145.716 188.577L146.708 188.689C146.324 190.641 145.556 192.961 144.068 194.737C143.908 194.529 143.604 194.193 143.38 194.049C144.708 192.465 145.412 190.273 145.716 188.577ZM146.004 190.145H148.228V191.089H145.7L146.004 190.145ZM147.956 190.145H148.132L148.308 190.097L148.9 190.289C148.356 194.769 146.756 197.857 144.596 199.409C144.452 199.169 144.164 198.801 143.94 198.609C145.924 197.297 147.492 194.289 147.956 190.337V190.145ZM144.916 192.561L145.38 191.873C146.26 192.465 147.284 193.329 147.748 193.953L147.284 194.737C146.82 194.081 145.812 193.169 144.916 192.561ZM148.58 192.113H153.748V193.153H148.58V192.113ZM150.356 188.561H151.396C151.268 192.993 150.948 197.105 148.068 199.281C147.908 199.041 147.556 198.673 147.3 198.481C150.004 196.513 150.26 192.641 150.356 188.561ZM151.508 189.521L152.292 189.137C152.788 189.825 153.396 190.769 153.668 191.345L152.868 191.809C152.612 191.217 152.02 190.241 151.508 189.521ZM144.612 199.617L145.54 199.969C145.284 200.977 144.9 202.321 144.388 203.169L143.412 202.753C143.94 201.937 144.372 200.609 144.612 199.617ZM146.644 199.985L147.556 199.873C147.796 200.897 147.972 202.209 147.988 202.977L146.996 203.153C146.996 202.353 146.852 201.009 146.644 199.985ZM148.98 199.937L149.908 199.713C150.34 200.689 150.772 202.001 150.916 202.785L149.956 203.089C149.796 202.289 149.396 200.961 148.98 199.937ZM151.348 199.809L152.292 199.473C152.916 200.497 153.636 201.889 153.956 202.737L152.948 203.137C152.66 202.305 151.972 200.865 151.348 199.809ZM143.668 195.457C144.372 195.329 145.236 195.089 146.228 194.849L146.34 195.537C145.476 195.857 144.74 196.129 143.972 196.385L143.668 195.457ZM141.092 188.689H142.148V194.305C142.148 197.521 141.908 200.721 139.764 203.249C139.588 202.993 139.22 202.625 138.98 202.449C140.9 200.129 141.092 197.185 141.092 194.305V188.689ZM143.124 191.057L144.052 191.345C143.62 192.433 143.14 193.777 142.74 194.625L142.068 194.369C142.436 193.489 142.9 192.033 143.124 191.057ZM141.892 197.761C142.244 198.177 143.492 200.145 143.78 200.593L142.98 201.409C142.612 200.657 141.572 198.881 141.156 198.273L141.892 197.761ZM139.076 191.521L139.876 191.393C140.148 192.897 140.404 194.817 140.468 195.889L139.604 196.097C139.556 194.977 139.332 193.009 139.076 191.521ZM150.324 193.329L151.284 193.025C152.324 194.865 153.444 197.297 153.876 198.769L152.836 199.153C152.436 197.665 151.364 195.201 150.324 193.329ZM165.284 194.369H169.252V195.249H165.284V194.369ZM164.82 196.481H169.684V197.361H164.82V196.481ZM164.436 188.577H165.604V192.465H164.436V188.577ZM166.676 193.297H167.7V196.945H166.676V193.297ZM161.508 189.953H168.82V190.881H161.508V189.953ZM160.676 194.369H164.42V195.249H160.676V194.369ZM160.66 192.017H169.684V192.961H160.66V192.017ZM160.292 198.177H169.844V199.185H160.292V198.177ZM162.068 193.297H163.092V196.753L162.068 196.961V193.297ZM160.244 196.753C161.348 196.625 162.916 196.449 164.532 196.241L164.548 197.089C163.092 197.313 161.604 197.505 160.436 197.665L160.244 196.753ZM165.62 198.689H166.74V201.745C166.74 202.113 166.804 202.161 167.204 202.161C167.38 202.161 168.276 202.161 168.516 202.161C168.884 202.161 168.948 201.953 168.996 200.529C169.22 200.689 169.668 200.849 169.972 200.929C169.876 202.705 169.572 203.137 168.644 203.137C168.404 203.137 167.268 203.137 167.06 203.137C165.892 203.137 165.62 202.833 165.62 201.761V198.689ZM162.852 198.721H163.972C163.748 201.169 163.028 202.545 160.196 203.297C160.1 203.025 159.796 202.577 159.556 202.369C162.1 201.777 162.692 200.721 162.852 198.721ZM157.284 188.737H158.356V194.225C158.356 197.457 158.116 200.737 155.988 203.313C155.812 203.073 155.444 202.705 155.188 202.529C157.076 200.145 157.284 197.137 157.284 194.241V188.737ZM159.588 190.849L160.628 191.185C160.196 192.369 159.716 193.857 159.3 194.769L158.548 194.481C158.932 193.521 159.364 191.921 159.588 190.849ZM158.036 197.585C158.484 198.033 160.02 200.001 160.372 200.449L159.588 201.297C159.124 200.513 157.828 198.785 157.316 198.145L158.036 197.585ZM155.108 191.617L155.94 191.313C156.388 192.721 156.868 194.497 157.044 195.489L156.18 195.921C155.972 194.849 155.524 193.009 155.108 191.617Z" fill="#4F4F4F"/>
<mask id="mask1_260_53697" style="mask-type:luminance" maskUnits="userSpaceOnUse" x="73" y="190" width="10" height="10">
<path d="M83 190H73V200H83V190Z" fill="white"/>
</mask>
<g mask="url(#mask1_260_53697)">
<path d="M82.9063 195.094L77.9062 190.094L72.9063 195.094L77.9063 200.094L82.9063 195.094Z" fill="url(#paint6_linear_260_53697)"/>
</g>
<mask id="mask2_260_53697" style="mask-type:luminance" maskUnits="userSpaceOnUse" x="72" y="226" width="11" height="10">
<path d="M82.5 226H72.5V236H82.5V226Z" fill="white"/>
</mask>
<g mask="url(#mask2_260_53697)">
<path d="M82.4063 231.094L77.4062 226.094L72.4062 231.094L77.4062 236.094L82.4063 231.094Z" fill="url(#paint7_linear_260_53697)"/>
</g>
<path d="M100.771 224.575L101.971 224.783C101.043 226.335 99.6033 227.871 97.4433 229.055C97.2833 228.799 96.9313 228.415 96.6753 228.239C98.6753 227.231 100.067 225.807 100.771 224.575ZM100.387 225.967H104.275V226.959H99.6833L100.387 225.967ZM103.859 225.967H104.083L104.291 225.903L105.059 226.271C103.795 229.631 100.803 231.535 97.5873 232.463C97.4753 232.175 97.1713 231.727 96.9633 231.487C99.9233 230.767 102.803 228.959 103.859 226.159V225.967ZM98.7233 228.095L99.4913 227.487C100.371 227.999 101.411 228.799 101.923 229.391L101.123 230.063C100.643 229.487 99.5873 228.639 98.7233 228.095ZM101.619 230.591L102.835 230.799C101.811 232.543 100.147 234.255 97.6513 235.535C97.4913 235.263 97.1393 234.879 96.8833 234.703C99.2353 233.599 100.835 231.999 101.619 230.591ZM101.171 232.111H104.995V233.135H100.451L101.171 232.111ZM104.643 232.111H104.883L105.107 232.063L105.875 232.399C104.515 236.447 101.107 238.415 97.2353 239.295C97.1073 238.991 96.8353 238.527 96.6273 238.271C100.243 237.583 103.507 235.727 104.643 232.303V232.111ZM99.0753 234.511L99.8913 233.839C100.915 234.399 102.115 235.295 102.691 235.951L101.843 236.703C101.283 236.031 100.099 235.119 99.0753 234.511ZM93.8913 225.887H95.0593V239.247H93.8913V225.887ZM91.2673 229.071H97.0753V230.207H91.2673V229.071ZM93.9553 229.503L94.7073 229.823C94.0673 232.079 92.7873 234.879 91.5553 236.367C91.4433 236.031 91.1553 235.535 90.9473 235.263C92.0993 233.983 93.3793 231.487 93.9553 229.503ZM96.2593 224.799L97.1073 225.727C95.6353 226.319 93.3953 226.767 91.5393 227.023C91.4753 226.751 91.3153 226.367 91.1713 226.095C92.9793 225.791 95.0913 225.343 96.2593 224.799ZM95.0113 231.135C95.4113 231.487 96.9153 233.007 97.2353 233.407L96.5313 234.351C96.1473 233.695 94.9473 232.175 94.4513 231.615L95.0113 231.135ZM107.603 235.023H114.899V235.935H107.603V235.023ZM107.171 227.311H115.155V228.239H107.171V227.311ZM110.643 225.855H111.747V237.631H110.643V225.855ZM107.155 237.663C109.107 237.487 112.099 237.199 114.963 236.895L114.979 237.839C112.259 238.159 109.363 238.495 107.331 238.703L107.155 237.663ZM108.643 232.031V233.215H113.827V232.031H108.643ZM108.643 230.079V231.231H113.827V230.079H108.643ZM107.635 229.247H114.851V234.047H107.635V229.247ZM114.275 224.719L114.883 225.647C112.995 226.063 110.019 226.335 107.619 226.415C107.571 226.159 107.459 225.759 107.331 225.519C109.715 225.391 112.627 225.103 114.275 224.719ZM115.043 228.303H120.819V229.423H115.043V228.303ZM120.355 228.303H121.507C121.507 228.303 121.491 228.751 121.491 228.911C121.315 235.663 121.155 237.903 120.627 238.591C120.339 239.007 120.019 239.151 119.539 239.199C119.091 239.247 118.323 239.247 117.587 239.199C117.555 238.863 117.427 238.367 117.235 238.047C118.019 238.111 118.723 238.127 119.043 238.127C119.299 238.127 119.459 238.079 119.603 237.871C120.003 237.375 120.179 235.071 120.355 228.591V228.303ZM116.979 224.767H118.131C118.115 231.135 118.099 236.511 114.275 239.375C114.083 239.087 113.667 238.703 113.379 238.511C117.043 235.887 116.963 230.815 116.979 224.767ZM133.843 225.359L134.643 224.671C135.475 225.231 136.483 226.063 136.979 226.623L136.131 227.375C135.651 226.799 134.675 225.935 133.843 225.359ZM123.379 227.551H137.635V228.719H123.379V227.551ZM123.923 231.119H130.995V232.287H123.923V231.119ZM126.803 231.743H128.003V237.455H126.803V231.743ZM123.443 237.615C125.347 237.247 128.483 236.607 131.443 235.967L131.539 237.039C128.803 237.679 125.875 238.351 123.811 238.815L123.443 237.615ZM131.523 224.639H132.803C132.755 232.063 134.195 238.063 136.163 238.063C136.611 238.063 136.803 237.183 136.899 235.039C137.171 235.311 137.635 235.583 137.971 235.695C137.763 238.495 137.299 239.311 136.067 239.311C132.883 239.311 131.587 232.383 131.523 224.639ZM145.715 224.575L146.707 224.687C146.323 226.639 145.555 228.959 144.067 230.735C143.907 230.527 143.603 230.191 143.379 230.047C144.707 228.463 145.411 226.271 145.715 224.575ZM146.003 226.143H148.227V227.087H145.699L146.003 226.143ZM147.955 226.143H148.131L148.307 226.095L148.899 226.287C148.355 230.767 146.755 233.855 144.595 235.407C144.451 235.167 144.163 234.799 143.939 234.607C145.923 233.295 147.491 230.287 147.955 226.335V226.143ZM144.915 228.559L145.379 227.871C146.259 228.463 147.283 229.327 147.747 229.951L147.283 230.735C146.819 230.079 145.811 229.167 144.915 228.559ZM148.579 228.111H153.747V229.151H148.579V228.111ZM150.355 224.559H151.395C151.267 228.991 150.947 233.103 148.067 235.279C147.907 235.039 147.555 234.671 147.299 234.479C150.003 232.511 150.259 228.639 150.355 224.559ZM151.507 225.519L152.291 225.135C152.787 225.823 153.395 226.767 153.667 227.343L152.867 227.807C152.611 227.215 152.019 226.239 151.507 225.519ZM144.611 235.615L145.539 235.967C145.283 236.975 144.899 238.319 144.387 239.167L143.411 238.751C143.939 237.935 144.371 236.607 144.611 235.615ZM146.643 235.983L147.555 235.871C147.795 236.895 147.971 238.207 147.987 238.975L146.995 239.151C146.995 238.351 146.851 237.007 146.643 235.983ZM148.979 235.935L149.907 235.711C150.339 236.687 150.771 237.999 150.915 238.783L149.955 239.087C149.795 238.287 149.395 236.959 148.979 235.935ZM151.347 235.807L152.291 235.471C152.915 236.495 153.635 237.887 153.955 238.735L152.947 239.135C152.659 238.303 151.971 236.863 151.347 235.807ZM143.667 231.455C144.371 231.327 145.235 231.087 146.227 230.847L146.339 231.535C145.475 231.855 144.739 232.127 143.971 232.383L143.667 231.455ZM141.091 224.687H142.147V230.303C142.147 233.519 141.907 236.719 139.763 239.247C139.587 238.991 139.219 238.623 138.979 238.447C140.899 236.127 141.091 233.183 141.091 230.303V224.687ZM143.123 227.055L144.051 227.343C143.619 228.431 143.139 229.775 142.739 230.623L142.067 230.367C142.435 229.487 142.899 228.031 143.123 227.055ZM141.891 233.759C142.243 234.175 143.491 236.143 143.779 236.591L142.979 237.407C142.611 236.655 141.571 234.879 141.155 234.271L141.891 233.759ZM139.075 227.519L139.875 227.391C140.147 228.895 140.403 230.815 140.467 231.887L139.603 232.095C139.555 230.975 139.331 229.007 139.075 227.519ZM150.323 229.327L151.283 229.023C152.323 230.863 153.443 233.295 153.875 234.767L152.835 235.151C152.435 233.663 151.363 231.199 150.323 229.327ZM165.283 230.367H169.251V231.247H165.283V230.367ZM164.819 232.479H169.683V233.359H164.819V232.479ZM164.435 224.575H165.603V228.463H164.435V224.575ZM166.675 229.295H167.699V232.943H166.675V229.295ZM161.507 225.951H168.819V226.879H161.507V225.951ZM160.675 230.367H164.419V231.247H160.675V230.367ZM160.659 228.015H169.683V228.959H160.659V228.015ZM160.291 234.175H169.843V235.183H160.291V234.175ZM162.067 229.295H163.091V232.751L162.067 232.959V229.295ZM160.243 232.751C161.347 232.623 162.915 232.447 164.531 232.239L164.547 233.087C163.091 233.311 161.603 233.503 160.435 233.663L160.243 232.751ZM165.619 234.687H166.739V237.743C166.739 238.111 166.803 238.159 167.203 238.159C167.379 238.159 168.275 238.159 168.515 238.159C168.883 238.159 168.947 237.951 168.995 236.527C169.219 236.687 169.667 236.847 169.971 236.927C169.875 238.703 169.571 239.135 168.643 239.135C168.403 239.135 167.267 239.135 167.059 239.135C165.891 239.135 165.619 238.831 165.619 237.759V234.687ZM162.851 234.719H163.971C163.747 237.167 163.027 238.543 160.195 239.295C160.099 239.023 159.795 238.575 159.555 238.367C162.099 237.775 162.691 236.719 162.851 234.719ZM157.283 224.735H158.355V230.223C158.355 233.455 158.115 236.735 155.987 239.311C155.811 239.071 155.443 238.703 155.187 238.527C157.075 236.143 157.283 233.135 157.283 230.239V224.735ZM159.587 226.847L160.627 227.183C160.195 228.367 159.715 229.855 159.299 230.767L158.547 230.479C158.931 229.519 159.363 227.919 159.587 226.847ZM158.035 233.583C158.483 234.031 160.019 235.999 160.371 236.447L159.587 237.295C159.123 236.511 157.827 234.783 157.315 234.143L158.035 233.583ZM155.107 227.615L155.939 227.311C156.387 228.719 156.867 230.495 157.043 231.487L156.179 231.919C155.971 230.847 155.523 229.007 155.107 227.615Z" fill="#4F4F4F"/>
<path d="M263.477 72.2472H270.885V73.3672H263.477V72.2472ZM263.221 79.2232H270.997V80.3752H263.221V79.2232ZM272.069 71.9912H276.213V73.3032H272.069V71.9912ZM266.613 71.3512H267.893V82.3432H266.613V71.3512ZM271.477 71.9912H272.917V79.8312C272.917 80.4712 273.029 80.5992 273.701 80.5992C274.005 80.5992 275.493 80.5992 275.877 80.5992C276.469 80.5992 276.581 80.2472 276.645 78.5512C276.981 78.7752 277.557 79.0312 277.973 79.1112C277.797 81.3032 277.397 81.9592 275.989 81.9592C275.621 81.9592 273.845 81.9592 273.509 81.9592C271.957 81.9592 271.477 81.5272 271.477 79.8312V71.9912ZM275.445 71.9912H276.901V76.6952C276.901 77.3672 276.773 77.7832 276.261 78.0232C275.765 78.2632 275.045 78.2952 274.005 78.2952C273.925 77.8632 273.685 77.2712 273.493 76.8872C274.261 76.9032 274.949 76.9032 275.173 76.9032C275.397 76.8872 275.445 76.8392 275.445 76.6472V71.9912ZM265.205 76.7112V77.5752H269.221V76.7112H265.205ZM265.205 74.9832V75.8152H269.221V74.9832H265.205ZM264.005 74.0392H270.485V78.5352H264.005V74.0392ZM265.269 68.5512H270.357V69.7512H265.269V68.5512ZM271.909 68.5672H277.829V69.7512H271.909V68.5672ZM265.509 67.3672L266.853 67.7512C266.229 69.2872 265.189 70.8392 264.181 71.8472C263.957 71.5752 263.445 71.0632 263.141 70.8232C264.101 69.9592 264.997 68.6792 265.509 67.3672ZM272.117 67.3672L273.509 67.7032C272.997 69.2712 272.085 70.7912 271.125 71.7512C270.869 71.5112 270.309 71.0792 269.973 70.8712C270.901 70.0232 271.685 68.7112 272.117 67.3672ZM266.405 70.2472L267.317 69.4632C267.893 69.9112 268.645 70.5832 269.013 71.0152L268.053 71.8952C267.701 71.4312 266.981 70.7432 266.405 70.2472ZM273.381 70.3112L274.357 69.5112C274.917 69.9272 275.637 70.5352 276.005 70.9512L274.981 71.8472C274.645 71.4152 273.941 70.7592 273.381 70.3112ZM280.229 68.7912H284.133V79.0792H280.229V77.7992H283.093V70.0392H280.229V68.7912ZM279.573 68.7912H280.613V80.5352H279.573V68.7912ZM285.349 77.7992H288.181V81.0312H285.349V80.0712H287.061V78.7752H285.349V77.7992ZM284.757 77.7992H285.861V81.7992H284.757V77.7992ZM280.309 73.2392H283.797V74.4872H280.309V73.2392ZM281.381 69.5112H282.293V78.4392H281.381V69.5112ZM284.677 68.4872H293.605V69.4632H284.677V68.4872ZM285.317 70.1832H293.013V71.1432H285.317V70.1832ZM284.453 71.7672H292.885V72.7112H284.453V71.7672ZM285.717 73.3032H291.925V74.1352H285.717V73.3032ZM284.869 74.8712H292.805V75.7032H284.869V74.8712ZM284.373 76.2952H293.925V77.2392H284.373V76.2952ZM288.549 78.1672H293.813V79.1912H288.549V78.1672ZM288.309 67.4952H289.717V70.6952H288.309V67.4952ZM288.213 73.5912H289.509V75.0792H288.213V73.5912ZM292.517 71.7672H292.709L292.933 71.7192L293.829 71.9752C293.605 72.7912 293.301 73.7192 293.029 74.3112L291.957 73.9592C292.165 73.4152 292.389 72.6152 292.517 71.9432V71.7672ZM291.253 77.2232H292.517V81.1432C292.517 81.7192 292.421 82.0072 292.037 82.1832C291.637 82.3592 291.093 82.3592 290.293 82.3592C290.229 82.0552 290.053 81.6072 289.909 81.3032C290.437 81.3192 290.901 81.3192 291.061 81.3032C291.205 81.3032 291.253 81.2712 291.253 81.1112V77.2232ZM288.741 79.7352L289.653 79.2232C290.085 79.6552 290.565 80.2632 290.757 80.6792L289.813 81.2712C289.637 80.8392 289.173 80.1832 288.741 79.7352ZM296.725 69.7512H308.277V71.3992H296.725V69.7512ZM295.381 79.1592H309.621V80.8712H295.381V79.1592Z" fill="black"/>
<path d="M432.5 98H262.5V99H432.5V98Z" fill="#E7E7E7"/>
<mask id="mask3_260_53697" style="mask-type:luminance" maskUnits="userSpaceOnUse" x="262" y="118" width="11" height="10">
<path d="M272.5 118H262.5V128H272.5V118Z" fill="white"/>
</mask>
<g mask="url(#mask3_260_53697)">
<path d="M272.406 123.094L267.406 118.094L262.406 123.094L267.406 128.094L272.406 123.094Z" fill="url(#paint8_linear_260_53697)"/>
</g>
<path d="M283.683 126.162H293.267V126.978H283.683V126.162ZM283.715 124.194H293.955V128.962H283.715V128.082H292.771V125.058H283.715V124.194ZM287.811 124.626H288.963V129.442C288.963 130.002 289.155 130.098 290.179 130.098C290.659 130.098 293.123 130.098 293.747 130.098C294.611 130.098 294.755 129.826 294.835 128.21C295.107 128.402 295.555 128.562 295.891 128.626C295.715 130.562 295.347 131.074 293.827 131.074C293.411 131.074 290.515 131.074 290.115 131.074C288.323 131.074 287.811 130.754 287.811 129.442V124.626ZM283.091 124.194H284.243V129.794H283.091V124.194ZM282.403 117.202H294.547V118.066H282.403V117.202ZM287.843 117.426H289.027V123.586H287.843V117.426ZM281.699 119.09H295.299V122.53H294.099V119.938H282.851V122.53H281.699V119.09ZM283.139 122.722C284.163 122.61 285.539 122.402 286.963 122.178L286.995 122.946C285.763 123.202 284.547 123.442 283.507 123.65L283.139 122.722ZM283.555 120.898L283.907 120.258C284.931 120.434 286.291 120.786 287.011 121.106L286.659 121.826C285.939 121.522 284.595 121.106 283.555 120.898ZM292.947 120.178L293.475 120.866C292.563 121.25 291.251 121.586 290.323 121.778L289.891 121.154C290.819 120.946 292.163 120.466 292.947 120.178ZM289.699 122.834L289.987 122.098C291.219 122.226 292.835 122.578 293.731 122.882L293.459 123.698C292.579 123.394 290.947 123.01 289.699 122.834ZM297.811 120.066H310.227V121.282H297.811V120.066ZM309.763 120.066H311.011C311.011 120.066 310.995 120.514 310.979 120.706C310.611 127.33 310.275 129.714 309.571 130.514C309.187 130.978 308.803 131.106 308.195 131.154C307.635 131.218 306.611 131.186 305.619 131.122C305.603 130.77 305.443 130.242 305.219 129.89C306.307 129.986 307.331 130.002 307.731 130.002C308.083 130.002 308.275 129.954 308.483 129.762C309.091 129.17 309.443 126.674 309.763 120.322V120.066ZM303.043 116.594H304.307V119.378C304.307 123.026 303.859 127.97 298.259 131.346C298.083 131.058 297.635 130.61 297.347 130.402C302.659 127.234 303.043 122.69 303.043 119.378V116.594Z" fill="#4F4F4F"/>
<mask id="mask4_260_53697" style="mask-type:luminance" maskUnits="userSpaceOnUse" x="73" y="154" width="10" height="10">
<path d="M83 154H73V164H83V154Z" fill="white"/>
</mask>
<g mask="url(#mask4_260_53697)">
<path d="M82.9063 159.094L77.9062 154.094L72.9062 159.094L77.9062 164.094L82.9063 159.094Z" fill="url(#paint9_linear_260_53697)"/>
</g>
<mask id="mask5_260_53697" style="mask-type:luminance" maskUnits="userSpaceOnUse" x="263" y="154" width="10" height="10">
<path d="M273 154H263V164H273V154Z" fill="white"/>
</mask>
<g mask="url(#mask5_260_53697)">
<path d="M272.906 159.094L267.906 154.094L262.906 159.094L267.906 164.094L272.906 159.094Z" fill="url(#paint10_linear_260_53697)"/>
</g>
<path d="M283.813 156.222H291.573V157.198H283.813V156.222ZM283.829 162.894H292.965V163.934H283.829V162.894ZM281.893 158.318H286.133V159.31H281.893V158.318ZM287.877 158.398H289.045V161.342C289.045 161.902 288.949 162.158 288.517 162.302C288.101 162.462 287.445 162.478 286.469 162.478C286.405 162.174 286.261 161.806 286.101 161.518C286.837 161.55 287.445 161.55 287.653 161.534C287.829 161.518 287.877 161.47 287.877 161.31V158.398ZM283.317 164.366L284.325 164.894C283.813 165.694 283.125 166.734 282.373 167.406L281.317 166.814C282.117 166.174 282.853 165.166 283.317 164.366ZM285.749 164.814L286.853 164.654C287.141 165.406 287.381 166.398 287.413 167.038L286.229 167.23C286.213 166.59 286.005 165.582 285.749 164.814ZM289.205 164.798L290.229 164.462C290.741 165.182 291.237 166.158 291.413 166.814L290.309 167.198C290.149 166.542 289.685 165.534 289.205 164.798ZM292.341 164.814L293.317 164.302C294.181 165.006 295.205 166.03 295.669 166.734L294.629 167.294C294.197 166.574 293.205 165.534 292.341 164.814ZM285.909 158.318H286.133L286.341 158.286L287.061 158.59C286.149 160.894 284.037 162.43 281.877 163.182C281.733 162.91 281.445 162.478 281.221 162.254C283.173 161.662 285.189 160.286 285.909 158.494V158.318ZM291.285 156.222H291.573L291.829 156.158L292.565 156.782C291.493 157.662 289.909 158.542 288.517 159.086C288.373 158.878 288.069 158.558 287.877 158.398C289.125 157.934 290.565 157.102 291.285 156.446V156.222ZM289.349 158.462C290.549 160.142 293.013 161.422 295.621 161.934C295.365 162.174 295.029 162.638 294.869 162.942C292.245 162.286 289.765 160.782 288.453 158.782L289.349 158.462ZM293.253 158.03L294.197 158.686C293.333 159.406 292.261 160.142 291.397 160.638L290.629 160.046C291.461 159.534 292.597 158.654 293.253 158.03ZM281.365 153.694H288.005V154.734H281.365V153.694ZM284.757 152.574H285.877V155.79H284.757V152.574ZM291.237 152.574H292.357V155.79H291.237V152.574ZM288.917 153.694H295.557V154.718H288.917V153.694ZM303.509 154.446H311.845V155.502H303.509V154.446ZM303.301 156.798H310.453V157.806H303.301V156.798ZM301.829 159.15H309.461V160.222H301.829V159.15ZM303.877 152.574L305.013 152.862C304.325 154.83 303.205 156.718 302.021 157.934C301.813 157.726 301.333 157.358 301.045 157.198C302.245 156.078 303.269 154.35 303.877 152.574ZM308.805 159.15H309.957C309.973 163.134 310.069 166.19 310.885 166.19C311.109 166.19 311.189 165.262 311.221 163.998C311.429 164.254 311.749 164.542 311.989 164.702C311.893 166.59 311.685 167.31 310.789 167.31C308.949 167.31 308.869 164.014 308.805 159.15ZM298.053 153.758L298.741 152.894C299.637 153.342 300.853 154.062 301.461 154.558L300.741 155.534C300.165 155.006 298.981 154.254 298.053 153.758ZM297.093 158.142L297.733 157.262C298.661 157.646 299.925 158.286 300.549 158.734L299.893 159.742C299.269 159.278 298.037 158.606 297.093 158.142ZM297.589 166.158C298.357 164.974 299.445 162.974 300.261 161.23L301.173 162.014C300.437 163.614 299.477 165.518 298.629 166.958L297.589 166.158Z" fill="#4F4F4F"/>
</g>
<defs>
<linearGradient id="paint0_linear_260_53697" x1="658.002" y1="38.5781" x2="658.002" y2="368.578" gradientUnits="userSpaceOnUse">
<stop stop-color="#C2C559"/>
<stop offset="1" stop-color="#A7AC39"/>
</linearGradient>
<linearGradient id="paint1_linear_260_53697" x1="704.823" y1="41.5205" x2="671.848" y2="185.243" gradientUnits="userSpaceOnUse">
<stop stop-color="#FF9E45"/>
<stop offset="0.525118" stop-color="#FF7A00"/>
</linearGradient>
<linearGradient id="paint2_linear_260_53697" x1="817.538" y1="71.2614" x2="809.432" y2="148.84" gradientUnits="userSpaceOnUse">
<stop stop-color="#859FD1"/>
<stop offset="1" stop-color="#4985C6"/>
</linearGradient>
<linearGradient id="paint3_linear_260_53697" x1="783.814" y1="83.2186" x2="773.587" y2="178.17" gradientUnits="userSpaceOnUse">
<stop stop-color="#D386A4"/>
<stop offset="0.950546" stop-color="#BD5784"/>
</linearGradient>
<linearGradient id="paint4_linear_260_53697" x1="780.932" y1="53.0375" x2="769.13" y2="162.606" gradientUnits="userSpaceOnUse">
<stop stop-color="#6FC7E2"/>
<stop offset="0.875982" stop-color="#00AED4"/>
</linearGradient>
<linearGradient id="paint5_linear_260_53697" x1="78.0003" y1="118" x2="78.0004" y2="128" gradientUnits="userSpaceOnUse">
<stop stop-color="#6FC7E2"/>
<stop offset="1" stop-color="#00AED4"/>
</linearGradient>
<linearGradient id="paint6_linear_260_53697" x1="78.0003" y1="190" x2="78.0003" y2="200" gradientUnits="userSpaceOnUse">
<stop stop-color="#D386A4"/>
<stop offset="1" stop-color="#BD5784"/>
</linearGradient>
<linearGradient id="paint7_linear_260_53697" x1="77.5003" y1="226" x2="77.5004" y2="236" gradientUnits="userSpaceOnUse">
<stop stop-color="#888888"/>
<stop offset="1" stop-color="#4F4F4F"/>
</linearGradient>
<linearGradient id="paint8_linear_260_53697" x1="267" y1="118" x2="267" y2="128" gradientUnits="userSpaceOnUse">
<stop stop-color="#C2C559"/>
<stop offset="1" stop-color="#A7AC39"/>
</linearGradient>
<linearGradient id="paint9_linear_260_53697" x1="78.0003" y1="154.5" x2="78.0003" y2="164" gradientUnits="userSpaceOnUse">
<stop stop-color="#859FD1"/>
<stop offset="1" stop-color="#4985C6"/>
</linearGradient>
<linearGradient id="paint10_linear_260_53697" x1="268" y1="154" x2="268" y2="164" gradientUnits="userSpaceOnUse">
<stop stop-color="#FF9E45"/>
<stop offset="1" stop-color="#FF7A00"/>
</linearGradient>
<clipPath id="clip0_260_53697">
<rect width="876" height="371" fill="white"/>
</clipPath>
<clipPath id="clip1_260_53697">
<rect width="388" height="373" fill="white" transform="translate(464)"/>
</clipPath>
</defs>
</svg>
