<svg width="876" height="371" viewBox="0 0 876 371" fill="none" xmlns="http://www.w3.org/2000/svg">
<g clip-path="url(#clip0_425_60322)">
<path d="M876 0H0V371H876V0Z" fill="white"/>
<path d="M336 98H73V99H336V98Z" fill="#E7E7E7"/>
<mask id="mask0_425_60322" style="mask-type:luminance" maskUnits="userSpaceOnUse" x="73" y="168" width="10" height="10">
<path d="M83 168H73V178H83V168Z" fill="white"/>
</mask>
<g mask="url(#mask0_425_60322)">
<path d="M82.9063 173.094L77.9062 168.094L72.9063 173.094L77.9063 178.094L82.9063 173.094Z" fill="url(#paint0_linear_425_60322)"/>
</g>
<path d="M90.888 170.632H102.68V171.656H92.04V180.248H90.888V170.632ZM102.056 170.632H103.16V178.952C103.16 179.261 103.112 179.496 103.016 179.656C102.931 179.816 102.771 179.939 102.536 180.024C102.301 180.109 101.971 180.157 101.544 180.168C101.117 180.179 100.563 180.184 99.88 180.184C99.848 180.045 99.8 179.891 99.736 179.72C99.672 179.549 99.5973 179.395 99.512 179.256C99.8427 179.267 100.157 179.272 100.456 179.272C100.765 179.272 101.027 179.267 101.24 179.256C101.464 179.256 101.613 179.256 101.688 179.256C101.827 179.256 101.923 179.229 101.976 179.176C102.029 179.133 102.056 179.053 102.056 178.936V170.632ZM94.632 174.568H99.912V178.216H94.632V177.336H98.904V175.464H94.632V174.568ZM94.024 174.568H95.048V178.984H94.024V174.568ZM89.976 167.288H104.04V168.328H89.976V167.288ZM93.4 168.712L94.408 168.36C94.6 168.648 94.792 168.963 94.984 169.304C95.1867 169.635 95.336 169.917 95.432 170.152L94.392 170.584C94.2747 170.339 94.1253 170.04 93.944 169.688C93.7627 169.325 93.5813 169 93.4 168.712ZM99.544 168.44L100.76 168.728C100.504 169.155 100.227 169.592 99.928 170.04C99.64 170.488 99.3733 170.861 99.128 171.16L98.184 170.888C98.344 170.664 98.5093 170.408 98.68 170.12C98.8507 169.832 99.0107 169.539 99.16 169.24C99.3093 168.941 99.4373 168.675 99.544 168.44ZM96.072 165.768L97.192 165.48C97.3413 165.811 97.4853 166.168 97.624 166.552C97.7733 166.936 97.8907 167.267 97.976 167.544L96.792 167.88C96.728 167.603 96.6267 167.267 96.488 166.872C96.3493 166.467 96.2107 166.099 96.072 165.768ZM94.888 171.144H95.944C95.8907 171.805 95.7573 172.371 95.544 172.84C95.3413 173.299 95.0107 173.677 94.552 173.976C94.104 174.275 93.4693 174.515 92.648 174.696C92.616 174.568 92.5413 174.424 92.424 174.264C92.3067 174.093 92.1947 173.96 92.088 173.864C92.792 173.725 93.336 173.549 93.72 173.336C94.1147 173.112 94.3973 172.824 94.568 172.472C94.7387 172.109 94.8453 171.667 94.888 171.144ZM97.72 171.176H98.792V172.68C98.792 172.861 98.808 172.989 98.84 173.064C98.8827 173.128 98.9733 173.16 99.112 173.16C99.176 173.16 99.272 173.16 99.4 173.16C99.528 173.16 99.672 173.16 99.832 173.16C99.992 173.16 100.136 173.16 100.264 173.16C100.403 173.16 100.499 173.16 100.552 173.16C100.669 173.16 100.819 173.16 101 173.16C101.181 173.149 101.325 173.128 101.432 173.096C101.453 173.235 101.469 173.384 101.48 173.544C101.491 173.693 101.507 173.832 101.528 173.96C101.432 173.992 101.293 174.013 101.112 174.024C100.931 174.035 100.755 174.04 100.584 174.04C100.509 174.04 100.392 174.04 100.232 174.04C100.072 174.04 99.9013 174.04 99.72 174.04C99.5387 174.04 99.3733 174.04 99.224 174.04C99.0747 174.04 98.9627 174.04 98.888 174.04C98.568 174.04 98.3227 173.992 98.152 173.896C97.9813 173.8 97.864 173.651 97.8 173.448C97.7467 173.245 97.72 172.984 97.72 172.664V171.176ZM106.024 175.432H120.04V176.456H106.024V175.432ZM106.072 168.408H119.976V169.4H106.072V168.408ZM106.728 171.176H119.4V172.152H106.728V171.176ZM107.528 173.32H118.616V174.248H107.528V173.32ZM112.376 171.624H113.576V180.28H112.376V171.624ZM110.92 165.544H112.056V168.904H110.92V165.544ZM113.96 165.544H115.096V168.84H113.96V165.544ZM117.672 165.752L118.904 166.088C118.669 166.515 118.419 166.952 118.152 167.4C117.885 167.837 117.64 168.216 117.416 168.536L116.424 168.2C116.573 167.976 116.723 167.72 116.872 167.432C117.032 167.144 117.181 166.851 117.32 166.552C117.459 166.253 117.576 165.987 117.672 165.752ZM115.592 169.352L116.84 169.688C116.637 169.987 116.429 170.28 116.216 170.568C116.003 170.856 115.805 171.112 115.624 171.336L114.616 171.016C114.787 170.781 114.963 170.504 115.144 170.184C115.336 169.864 115.485 169.587 115.592 169.352ZM107.384 166.072L108.408 165.72C108.685 166.072 108.952 166.472 109.208 166.92C109.475 167.368 109.661 167.757 109.768 168.088L108.696 168.504C108.589 168.173 108.408 167.779 108.152 167.32C107.907 166.861 107.651 166.445 107.384 166.072ZM109.384 169.624L110.504 169.352C110.685 169.597 110.861 169.88 111.032 170.2C111.203 170.509 111.325 170.781 111.4 171.016L110.248 171.32C110.184 171.085 110.067 170.808 109.896 170.488C109.736 170.168 109.565 169.88 109.384 169.624ZM110.696 177.256L111.608 177.688C111.224 177.987 110.749 178.269 110.184 178.536C109.629 178.803 109.043 179.043 108.424 179.256C107.805 179.469 107.219 179.635 106.664 179.752C106.589 179.613 106.477 179.453 106.328 179.272C106.189 179.101 106.056 178.963 105.928 178.856C106.483 178.76 107.059 178.632 107.656 178.472C108.264 178.312 108.835 178.131 109.368 177.928C109.912 177.715 110.355 177.491 110.696 177.256ZM114.6 177.832L115.336 177.176C115.837 177.347 116.381 177.539 116.968 177.752C117.555 177.965 118.115 178.179 118.648 178.392C119.192 178.605 119.645 178.797 120.008 178.968L119.256 179.72C118.904 179.549 118.461 179.352 117.928 179.128C117.405 178.904 116.851 178.68 116.264 178.456C115.677 178.221 115.123 178.013 114.6 177.832ZM126.856 175.864H134.744V176.888H126.856V175.864ZM126.856 178.584H134.776V179.624H126.856V178.584ZM126.248 173.224H135.64V180.184H134.392V174.264H127.448V180.264H126.248V173.224ZM128.136 169.608V171.128H133.672V169.608H128.136ZM128.136 167.176V168.68H133.672V167.176H128.136ZM126.952 166.216H134.904V172.104H126.952V166.216ZM125.144 165.624L126.312 165.976C125.992 166.872 125.603 167.763 125.144 168.648C124.696 169.533 124.211 170.371 123.688 171.16C123.165 171.949 122.627 172.648 122.072 173.256C122.029 173.16 121.965 173.032 121.88 172.872C121.795 172.712 121.704 172.552 121.608 172.392C121.523 172.221 121.448 172.093 121.384 172.008C121.885 171.485 122.365 170.883 122.824 170.2C123.293 169.517 123.725 168.787 124.12 168.008C124.525 167.219 124.867 166.424 125.144 165.624ZM123.512 169.736L124.648 168.584L124.68 168.6V180.248H123.512V169.736ZM146.936 167.384H148.104V171.4H146.936V167.384ZM145.016 172.984H146.088V179.176C146.088 179.443 146.051 179.645 145.976 179.784C145.901 179.933 145.768 180.045 145.576 180.12C145.384 180.195 145.128 180.237 144.808 180.248C144.488 180.269 144.093 180.28 143.624 180.28C143.603 180.152 143.56 180.003 143.496 179.832C143.432 179.661 143.363 179.507 143.288 179.368C143.629 179.379 143.939 179.384 144.216 179.384C144.493 179.395 144.68 179.395 144.776 179.384C144.936 179.373 145.016 179.293 145.016 179.144V172.984ZM149.672 165.528L150.744 165.864C150.552 166.163 150.36 166.451 150.168 166.728C149.976 166.995 149.789 167.229 149.608 167.432L148.776 167.144C148.936 166.909 149.101 166.643 149.272 166.344C149.443 166.035 149.576 165.763 149.672 165.528ZM144.504 165.896L145.368 165.544C145.571 165.779 145.768 166.04 145.96 166.328C146.163 166.616 146.307 166.877 146.392 167.112L145.48 167.48C145.395 167.256 145.261 166.995 145.08 166.696C144.899 166.397 144.707 166.131 144.504 165.896ZM149.64 172.84L150.36 172.312C150.68 172.515 151.011 172.76 151.352 173.048C151.693 173.325 151.949 173.581 152.12 173.816L151.384 174.424C151.213 174.179 150.963 173.912 150.632 173.624C150.301 173.325 149.971 173.064 149.64 172.84ZM142.696 177.048C143.357 176.973 144.136 176.877 145.032 176.76C145.939 176.643 146.867 176.52 147.816 176.392L147.848 177.288C146.963 177.416 146.083 177.549 145.208 177.688C144.344 177.816 143.56 177.928 142.856 178.024L142.696 177.048ZM146.984 172.2L147.704 172.952C147.309 173.08 146.856 173.197 146.344 173.304C145.843 173.4 145.325 173.485 144.792 173.56C144.269 173.635 143.763 173.693 143.272 173.736C143.251 173.64 143.213 173.517 143.16 173.368C143.107 173.219 143.053 173.091 143 172.984C143.459 172.92 143.939 172.851 144.44 172.776C144.941 172.701 145.411 172.616 145.848 172.52C146.296 172.413 146.675 172.307 146.984 172.2ZM143.352 167.144H151.896V168.008H143.352V167.144ZM143.864 169.064H151.464V169.896H143.864V169.064ZM142.776 171H152.232V171.928H142.776V171ZM142.76 174.616H152.248V175.56H142.76V174.616ZM148.008 172.296H149.032C149.064 173.875 149.181 175.192 149.384 176.248C149.587 177.304 149.848 178.099 150.168 178.632C150.488 179.165 150.829 179.432 151.192 179.432C151.331 179.432 151.437 179.325 151.512 179.112C151.597 178.899 151.656 178.536 151.688 178.024C151.795 178.131 151.917 178.221 152.056 178.296C152.205 178.371 152.344 178.435 152.472 178.488C152.376 179.213 152.221 179.709 152.008 179.976C151.805 180.253 151.507 180.397 151.112 180.408C150.621 180.408 150.189 180.221 149.816 179.848C149.453 179.485 149.139 178.952 148.872 178.248C148.616 177.544 148.419 176.696 148.28 175.704C148.141 174.701 148.051 173.565 148.008 172.296ZM150.68 175.896L151.56 176.312C151.24 176.856 150.845 177.368 150.376 177.848C149.917 178.328 149.411 178.76 148.856 179.144C148.312 179.528 147.752 179.853 147.176 180.12C147.112 180.024 147.016 179.907 146.888 179.768C146.771 179.64 146.659 179.533 146.552 179.448C147.107 179.213 147.645 178.92 148.168 178.568C148.701 178.205 149.187 177.8 149.624 177.352C150.061 176.904 150.413 176.419 150.68 175.896ZM138.216 170.408H142.296V171.352H138.216V170.408ZM138.216 172.536H142.296V173.496H138.216V172.536ZM137.64 168.28H142.664V169.272H137.64V168.28ZM138.68 174.696H142.28V179.352H138.68V178.376H141.336V175.672H138.68V174.696ZM138.168 174.696H139.08V180.104H138.168V174.696ZM139.144 165.96L140.04 165.656C140.221 165.987 140.397 166.349 140.568 166.744C140.739 167.139 140.851 167.475 140.904 167.752L139.96 168.136C139.907 167.848 139.8 167.501 139.64 167.096C139.491 166.68 139.325 166.301 139.144 165.96ZM157.314 175.08V173.96H161.426V175.08H157.314ZM169.895 179.208C169.287 179.208 168.748 179.133 168.279 178.984C167.82 178.835 167.415 178.643 167.063 178.408C166.722 178.173 166.412 177.923 166.135 177.656L166.871 176.696C167.095 176.92 167.34 177.133 167.607 177.336C167.884 177.528 168.199 177.688 168.551 177.816C168.903 177.933 169.303 177.992 169.751 177.992C170.21 177.992 170.626 177.88 170.999 177.656C171.383 177.432 171.687 177.112 171.911 176.696C172.135 176.28 172.247 175.789 172.247 175.224C172.247 174.392 172.023 173.741 171.575 173.272C171.138 172.792 170.551 172.552 169.815 172.552C169.431 172.552 169.095 172.611 168.807 172.728C168.519 172.845 168.204 173.016 167.863 173.24L167.079 172.744L167.463 167.272H173.159V168.52H168.743L168.439 171.912C168.695 171.763 168.962 171.651 169.239 171.576C169.527 171.491 169.847 171.448 170.199 171.448C170.85 171.448 171.442 171.581 171.975 171.848C172.508 172.104 172.935 172.509 173.255 173.064C173.575 173.619 173.735 174.328 173.735 175.192C173.735 176.045 173.548 176.771 173.175 177.368C172.812 177.965 172.338 178.424 171.751 178.744C171.164 179.053 170.546 179.208 169.895 179.208ZM175.778 182.04L175.426 181.176C175.927 180.952 176.322 180.648 176.61 180.264C176.898 179.88 177.037 179.443 177.026 178.952L176.866 177.64L177.586 178.712C177.479 178.829 177.362 178.915 177.234 178.968C177.117 179.011 176.989 179.032 176.85 179.032C176.562 179.032 176.311 178.941 176.098 178.76C175.885 178.579 175.778 178.328 175.778 178.008C175.778 177.688 175.885 177.437 176.098 177.256C176.322 177.075 176.583 176.984 176.882 176.984C177.266 176.984 177.565 177.139 177.778 177.448C178.002 177.747 178.114 178.163 178.114 178.696C178.114 179.464 177.901 180.136 177.474 180.712C177.058 181.288 176.493 181.731 175.778 182.04ZM180.439 179V177.784H183.063V169.032H180.967V168.104C181.49 168.008 181.943 167.891 182.327 167.752C182.722 167.613 183.079 167.453 183.399 167.272H184.519V177.784H186.871V179H180.439ZM188.61 179V178.136C189.837 177.059 190.845 176.077 191.634 175.192C192.434 174.307 193.026 173.485 193.41 172.728C193.794 171.96 193.986 171.24 193.986 170.568C193.986 170.12 193.906 169.72 193.746 169.368C193.597 169.016 193.362 168.744 193.042 168.552C192.722 168.349 192.317 168.248 191.826 168.248C191.346 168.248 190.898 168.376 190.482 168.632C190.077 168.888 189.714 169.213 189.394 169.608L188.546 168.776C189.016 168.253 189.522 167.837 190.066 167.528C190.61 167.219 191.256 167.064 192.002 167.064C192.706 167.064 193.309 167.208 193.81 167.496C194.322 167.773 194.717 168.173 194.994 168.696C195.282 169.208 195.426 169.811 195.426 170.504C195.426 171.283 195.229 172.072 194.834 172.872C194.45 173.672 193.912 174.488 193.218 175.32C192.536 176.141 191.736 176.984 190.818 177.848C191.128 177.827 191.448 177.805 191.778 177.784C192.12 177.752 192.44 177.736 192.738 177.736H195.986V179H188.61ZM200.973 179.208C200.365 179.208 199.827 179.133 199.357 178.984C198.899 178.835 198.493 178.643 198.141 178.408C197.8 178.173 197.491 177.923 197.213 177.656L197.949 176.696C198.173 176.92 198.419 177.133 198.685 177.336C198.963 177.528 199.277 177.688 199.629 177.816C199.981 177.933 200.381 177.992 200.829 177.992C201.288 177.992 201.704 177.88 202.077 177.656C202.461 177.432 202.765 177.112 202.989 176.696C203.213 176.28 203.325 175.789 203.325 175.224C203.325 174.392 203.101 173.741 202.653 173.272C202.216 172.792 201.629 172.552 200.893 172.552C200.509 172.552 200.173 172.611 199.885 172.728C199.597 172.845 199.283 173.016 198.941 173.24L198.157 172.744L198.541 167.272H204.237V168.52H199.821L199.517 171.912C199.773 171.763 200.04 171.651 200.317 171.576C200.605 171.491 200.925 171.448 201.277 171.448C201.928 171.448 202.52 171.581 203.053 171.848C203.587 172.104 204.013 172.509 204.333 173.064C204.653 173.619 204.813 174.328 204.813 175.192C204.813 176.045 204.627 176.771 204.253 177.368C203.891 177.965 203.416 178.424 202.829 178.744C202.243 179.053 201.624 179.208 200.973 179.208ZM206.856 182.04L206.504 181.176C207.006 180.952 207.4 180.648 207.688 180.264C207.976 179.88 208.115 179.443 208.104 178.952L207.944 177.64L208.664 178.712C208.558 178.829 208.44 178.915 208.312 178.968C208.195 179.011 208.067 179.032 207.928 179.032C207.64 179.032 207.39 178.941 207.176 178.76C206.963 178.579 206.856 178.328 206.856 178.008C206.856 177.688 206.963 177.437 207.176 177.256C207.4 177.075 207.662 176.984 207.96 176.984C208.344 176.984 208.643 177.139 208.856 177.448C209.08 177.747 209.192 178.163 209.192 178.696C209.192 179.464 208.979 180.136 208.552 180.712C208.136 181.288 207.571 181.731 206.856 182.04ZM210.813 179V178.136C212.04 177.059 213.048 176.077 213.837 175.192C214.637 174.307 215.229 173.485 215.613 172.728C215.997 171.96 216.189 171.24 216.189 170.568C216.189 170.12 216.109 169.72 215.949 169.368C215.8 169.016 215.565 168.744 215.245 168.552C214.925 168.349 214.52 168.248 214.029 168.248C213.549 168.248 213.101 168.376 212.685 168.632C212.28 168.888 211.917 169.213 211.597 169.608L210.749 168.776C211.219 168.253 211.725 167.837 212.269 167.528C212.813 167.219 213.459 167.064 214.205 167.064C214.909 167.064 215.512 167.208 216.013 167.496C216.525 167.773 216.92 168.173 217.197 168.696C217.485 169.208 217.629 169.811 217.629 170.504C217.629 171.283 217.432 172.072 217.037 172.872C216.653 173.672 216.115 174.488 215.421 175.32C214.739 176.141 213.939 176.984 213.021 177.848C213.331 177.827 213.651 177.805 213.981 177.784C214.323 177.752 214.643 177.736 214.941 177.736H218.189V179H210.813ZM222.744 179.208C222.104 179.208 221.55 179.096 221.08 178.872C220.622 178.637 220.232 178.349 219.912 178.008L220.712 177.096C220.968 177.373 221.267 177.592 221.608 177.752C221.96 177.912 222.323 177.992 222.696 177.992C223.091 177.992 223.464 177.901 223.816 177.72C224.168 177.539 224.478 177.24 224.744 176.824C225.022 176.397 225.235 175.843 225.384 175.16C225.544 174.477 225.624 173.635 225.624 172.632C225.624 171.672 225.523 170.861 225.32 170.2C225.128 169.539 224.84 169.043 224.456 168.712C224.072 168.371 223.608 168.2 223.064 168.2C222.691 168.2 222.355 168.312 222.056 168.536C221.758 168.76 221.518 169.069 221.336 169.464C221.155 169.859 221.064 170.328 221.064 170.872C221.064 171.395 221.139 171.853 221.288 172.248C221.448 172.632 221.683 172.931 221.992 173.144C222.312 173.357 222.702 173.464 223.16 173.464C223.555 173.464 223.966 173.341 224.392 173.096C224.83 172.84 225.246 172.424 225.64 171.848L225.704 173.016C225.47 173.315 225.198 173.581 224.888 173.816C224.59 174.051 224.27 174.232 223.928 174.36C223.598 174.488 223.262 174.552 222.92 174.552C222.27 174.552 221.699 174.413 221.208 174.136C220.728 173.859 220.355 173.448 220.088 172.904C219.822 172.349 219.688 171.672 219.688 170.872C219.688 170.104 219.843 169.437 220.152 168.872C220.462 168.296 220.867 167.853 221.368 167.544C221.88 167.224 222.44 167.064 223.048 167.064C223.614 167.064 224.136 167.181 224.616 167.416C225.096 167.64 225.512 167.987 225.864 168.456C226.216 168.915 226.494 169.491 226.696 170.184C226.899 170.877 227 171.693 227 172.632C227 173.816 226.883 174.829 226.648 175.672C226.414 176.504 226.094 177.181 225.688 177.704C225.283 178.227 224.824 178.611 224.312 178.856C223.811 179.091 223.288 179.208 222.744 179.208ZM232.675 179.208C232.121 179.208 231.603 179.091 231.123 178.856C230.643 178.611 230.227 178.248 229.875 177.768C229.523 177.277 229.246 176.669 229.043 175.944C228.851 175.219 228.755 174.371 228.755 173.4C228.755 172.259 228.873 171.283 229.107 170.472C229.342 169.661 229.662 169.005 230.067 168.504C230.473 168.003 230.937 167.64 231.459 167.416C231.982 167.181 232.526 167.064 233.091 167.064C233.699 167.064 234.227 167.176 234.675 167.4C235.123 167.624 235.513 167.912 235.843 168.264L235.011 169.16C234.787 168.883 234.51 168.664 234.179 168.504C233.849 168.344 233.507 168.264 233.155 168.264C232.601 168.264 232.094 168.429 231.635 168.76C231.177 169.08 230.809 169.613 230.531 170.36C230.265 171.107 230.131 172.12 230.131 173.4C230.131 174.403 230.227 175.251 230.419 175.944C230.622 176.637 230.91 177.165 231.283 177.528C231.667 177.88 232.131 178.056 232.675 178.056C233.059 178.056 233.395 177.944 233.683 177.72C233.982 177.496 234.217 177.187 234.387 176.792C234.569 176.387 234.659 175.923 234.659 175.4C234.659 174.867 234.579 174.408 234.419 174.024C234.27 173.629 234.041 173.331 233.731 173.128C233.422 172.915 233.027 172.808 232.547 172.808C232.174 172.808 231.769 172.931 231.331 173.176C230.894 173.411 230.478 173.821 230.083 174.408L230.035 173.256C230.281 172.936 230.553 172.664 230.851 172.44C231.15 172.205 231.465 172.029 231.795 171.912C232.137 171.784 232.467 171.72 232.787 171.72C233.449 171.72 234.019 171.859 234.499 172.136C234.99 172.403 235.369 172.808 235.635 173.352C235.913 173.896 236.051 174.579 236.051 175.4C236.051 176.157 235.897 176.824 235.587 177.4C235.278 177.965 234.867 178.408 234.355 178.728C233.854 179.048 233.294 179.208 232.675 179.208Z" fill="#4F4F4F"/>
<path d="M89.9808 203.312H94.9728V204.416H89.9808V203.312ZM92.3328 208.016L93.5008 206.624V215.264H92.3328V208.016ZM93.4528 206.928C93.5701 207.013 93.7408 207.173 93.9648 207.408C94.1995 207.632 94.4501 207.877 94.7168 208.144C94.9835 208.4 95.2288 208.64 95.4528 208.864C95.6768 209.088 95.8368 209.253 95.9328 209.36L95.1808 210.352C95.0528 210.181 94.8821 209.968 94.6688 209.712C94.4555 209.445 94.2261 209.173 93.9808 208.896C93.7355 208.619 93.5008 208.363 93.2768 208.128C93.0635 207.883 92.8875 207.685 92.7488 207.536L93.4528 206.928ZM94.6048 203.312H94.8608L95.0688 203.264L95.7248 203.728C95.3515 204.656 94.8608 205.552 94.2528 206.416C93.6448 207.28 92.9781 208.069 92.2528 208.784C91.5381 209.488 90.8181 210.08 90.0928 210.56C90.0715 210.443 90.0288 210.309 89.9648 210.16C89.9008 210.011 89.8315 209.867 89.7568 209.728C89.6928 209.579 89.6288 209.467 89.5648 209.392C90.2368 208.987 90.9035 208.475 91.5648 207.856C92.2261 207.237 92.8235 206.56 93.3568 205.824C93.8901 205.077 94.3061 204.32 94.6048 203.552V203.312ZM91.6768 201.072L92.5888 200.544C92.8981 200.853 93.1968 201.205 93.4848 201.6C93.7835 201.984 94.0075 202.32 94.1568 202.608L93.1808 203.216C93.0421 202.917 92.8288 202.565 92.5408 202.16C92.2635 201.755 91.9755 201.392 91.6768 201.072ZM95.2608 213.472H104.493V214.656H95.2608V213.472ZM96.0128 205.584H104.141V206.736H96.0128V205.584ZM99.5168 200.512H100.733V214.048H99.5168V200.512ZM112.061 204.272V206.128H115.725V204.272H112.061ZM110.925 203.408H116.925V206.992H110.925V203.408ZM110.189 208.96V211.328H112.333V208.96H110.189ZM109.181 208.064H113.373V212.192H109.181V208.064ZM115.501 208.96V211.328H117.725V208.96H115.501ZM114.461 208.064H118.797V212.192H114.461V208.064ZM106.077 201.296H119.581V202.384H106.077V201.296ZM106.733 201.376H107.901V211.472C107.901 211.931 107.975 212.304 108.125 212.592C108.285 212.869 108.535 213.077 108.877 213.216C109.218 213.344 109.682 213.408 110.269 213.408C110.439 213.408 110.706 213.408 111.069 213.408C111.442 213.408 111.869 213.408 112.349 213.408C112.829 213.408 113.325 213.408 113.837 213.408C114.359 213.408 114.861 213.408 115.341 213.408C115.831 213.408 116.269 213.408 116.653 213.408C117.037 213.408 117.319 213.408 117.501 213.408C117.799 213.408 118.114 213.403 118.445 213.392C118.786 213.371 119.111 213.349 119.421 213.328C119.741 213.307 119.997 213.275 120.189 213.232C120.199 213.339 120.215 213.467 120.237 213.616C120.258 213.765 120.279 213.909 120.301 214.048C120.333 214.187 120.359 214.304 120.381 214.4C120.231 214.432 120.007 214.459 119.709 214.48C119.41 214.501 119.069 214.512 118.685 214.512C118.301 214.523 117.901 214.528 117.485 214.528C117.293 214.528 116.999 214.528 116.605 214.528C116.21 214.528 115.762 214.528 115.261 214.528C114.759 214.528 114.247 214.528 113.725 214.528C113.202 214.528 112.701 214.528 112.221 214.528C111.751 214.528 111.351 214.528 111.021 214.528C110.701 214.528 110.487 214.528 110.381 214.528C109.559 214.528 108.877 214.427 108.333 214.224C107.799 214.032 107.399 213.707 107.133 213.248C106.866 212.789 106.733 212.171 106.733 211.392V201.376ZM121.677 209.024C122.327 208.864 123.101 208.661 123.997 208.416C124.893 208.16 125.805 207.899 126.733 207.632L126.893 208.736C126.05 208.992 125.202 209.248 124.349 209.504C123.495 209.749 122.722 209.979 122.029 210.192L121.677 209.024ZM121.869 203.792H127.229V204.928H121.869V203.792ZM124.061 200.56H125.229V213.76C125.229 214.091 125.186 214.347 125.101 214.528C125.015 214.709 124.866 214.848 124.653 214.944C124.439 215.029 124.157 215.083 123.805 215.104C123.453 215.136 123.005 215.152 122.461 215.152C122.439 215.003 122.391 214.821 122.317 214.608C122.253 214.395 122.178 214.208 122.093 214.048C122.466 214.059 122.807 214.064 123.117 214.064C123.437 214.064 123.645 214.064 123.741 214.064C123.858 214.053 123.938 214.027 123.981 213.984C124.034 213.941 124.061 213.867 124.061 213.76V200.56ZM129.005 201.136H133.197V202.256H129.005V201.136ZM127.149 207.632H134.525V208.752H127.149V207.632ZM134.109 207.632H134.349L134.573 207.584L135.357 207.92C134.994 208.976 134.514 209.909 133.917 210.72C133.319 211.531 132.631 212.235 131.853 212.832C131.074 213.429 130.226 213.931 129.309 214.336C128.402 214.741 127.458 215.067 126.477 215.312C126.455 215.195 126.407 215.067 126.333 214.928C126.269 214.8 126.194 214.667 126.109 214.528C126.034 214.4 125.954 214.293 125.869 214.208C126.786 214.016 127.671 213.744 128.525 213.392C129.389 213.04 130.183 212.603 130.909 212.08C131.645 211.547 132.285 210.928 132.829 210.224C133.383 209.509 133.81 208.709 134.109 207.824V207.632ZM128.637 208.448C129.074 209.419 129.666 210.293 130.413 211.072C131.159 211.84 132.045 212.491 133.069 213.024C134.093 213.547 135.229 213.936 136.477 214.192C136.391 214.277 136.295 214.384 136.189 214.512C136.093 214.651 136.002 214.789 135.917 214.928C135.831 215.067 135.762 215.189 135.709 215.296C133.778 214.837 132.13 214.059 130.765 212.96C129.399 211.861 128.343 210.485 127.597 208.832L128.637 208.448ZM128.701 201.136H129.837V202.928C129.837 203.419 129.773 203.925 129.645 204.448C129.517 204.96 129.277 205.461 128.925 205.952C128.583 206.432 128.082 206.859 127.421 207.232C127.367 207.147 127.293 207.051 127.197 206.944C127.101 206.827 126.999 206.715 126.893 206.608C126.786 206.491 126.695 206.405 126.621 206.352C127.229 206.021 127.677 205.664 127.965 205.28C128.263 204.885 128.461 204.485 128.557 204.08C128.653 203.675 128.701 203.28 128.701 202.896V201.136ZM132.637 201.136H133.789V204.848C133.789 205.072 133.805 205.232 133.837 205.328C133.879 205.413 133.965 205.456 134.093 205.456C134.167 205.456 134.29 205.456 134.461 205.456C134.631 205.456 134.802 205.456 134.973 205.456C135.143 205.456 135.261 205.456 135.325 205.456C135.453 205.456 135.591 205.451 135.741 205.44C135.89 205.419 136.018 205.397 136.125 205.376C136.146 205.525 136.162 205.701 136.173 205.904C136.183 206.107 136.205 206.277 136.237 206.416C136.13 206.448 135.997 206.469 135.837 206.48C135.677 206.491 135.517 206.496 135.357 206.496C135.271 206.496 135.133 206.496 134.941 206.496C134.749 206.496 134.562 206.496 134.381 206.496C134.21 206.496 134.087 206.496 134.013 206.496C133.639 206.496 133.351 206.443 133.149 206.336C132.946 206.229 132.807 206.053 132.733 205.808C132.669 205.563 132.637 205.232 132.637 204.816V201.136ZM141.197 208.912V210.016H149.261V208.912H141.197ZM141.197 210.784V211.904H149.261V210.784H141.197ZM141.197 207.056V208.128H149.261V207.056H141.197ZM140.029 206.24H150.461V212.704H140.029V206.24ZM146.653 213.456L147.469 212.8C148.045 212.971 148.626 213.163 149.213 213.376C149.799 213.579 150.349 213.781 150.861 213.984C151.383 214.176 151.837 214.363 152.221 214.544L151.149 215.232C150.807 215.051 150.397 214.859 149.917 214.656C149.437 214.464 148.914 214.261 148.349 214.048C147.794 213.835 147.229 213.637 146.653 213.456ZM142.701 212.816L143.805 213.312C143.367 213.568 142.866 213.819 142.301 214.064C141.746 214.309 141.17 214.533 140.573 214.736C139.975 214.939 139.41 215.115 138.877 215.264C138.813 215.179 138.727 215.077 138.621 214.96C138.514 214.853 138.402 214.741 138.285 214.624C138.178 214.517 138.077 214.427 137.981 214.352C138.535 214.235 139.101 214.101 139.677 213.952C140.263 213.792 140.818 213.616 141.341 213.424C141.863 213.221 142.317 213.019 142.701 212.816ZM144.541 201.648H151.133V202.576H144.541V201.648ZM144.797 200.512L145.869 200.752C145.655 201.413 145.367 202.048 145.005 202.656C144.642 203.264 144.258 203.776 143.853 204.192C143.789 204.128 143.698 204.059 143.581 203.984C143.474 203.909 143.362 203.835 143.245 203.76C143.127 203.675 143.026 203.611 142.941 203.568C143.357 203.184 143.725 202.725 144.045 202.192C144.365 201.659 144.615 201.099 144.797 200.512ZM146.701 202.224H147.821V202.784C147.821 203.083 147.767 203.392 147.661 203.712C147.554 204.032 147.33 204.347 146.989 204.656C146.658 204.955 146.157 205.232 145.485 205.488C144.813 205.744 143.917 205.957 142.797 206.128C142.733 205.989 142.637 205.829 142.509 205.648C142.381 205.467 142.258 205.323 142.141 205.216C143.186 205.077 144.013 204.912 144.621 204.72C145.229 204.517 145.682 204.304 145.981 204.08C146.279 203.856 146.471 203.632 146.557 203.408C146.653 203.173 146.701 202.949 146.701 202.736V202.224ZM147.661 203.184C147.927 203.525 148.301 203.829 148.781 204.096C149.261 204.363 149.821 204.581 150.461 204.752C151.101 204.912 151.783 205.024 152.509 205.088C152.391 205.195 152.263 205.344 152.125 205.536C151.997 205.728 151.901 205.899 151.837 206.048C151.069 205.941 150.354 205.771 149.693 205.536C149.042 205.291 148.471 204.987 147.981 204.624C147.49 204.261 147.095 203.845 146.797 203.376L147.661 203.184ZM138.253 201.504H142.109V202.448H138.253V201.504ZM137.901 204.016H142.525V204.976H137.901V204.016ZM150.749 201.648H150.941L151.133 201.584L151.933 201.856C151.73 202.261 151.511 202.677 151.277 203.104C151.042 203.531 150.807 203.893 150.573 204.192L149.645 203.856C149.826 203.579 150.018 203.253 150.221 202.88C150.434 202.507 150.61 202.149 150.749 201.808V201.648ZM157.447 210.08V208.96H161.559V210.08H157.447ZM166.54 214V213.136C167.767 212.059 168.775 211.077 169.564 210.192C170.364 209.307 170.956 208.485 171.34 207.728C171.724 206.96 171.916 206.24 171.916 205.568C171.916 205.12 171.836 204.72 171.676 204.368C171.527 204.016 171.292 203.744 170.972 203.552C170.652 203.349 170.247 203.248 169.756 203.248C169.276 203.248 168.828 203.376 168.412 203.632C168.007 203.888 167.644 204.213 167.324 204.608L166.476 203.776C166.945 203.253 167.452 202.837 167.996 202.528C168.54 202.219 169.185 202.064 169.932 202.064C170.636 202.064 171.239 202.208 171.74 202.496C172.252 202.773 172.647 203.173 172.924 203.696C173.212 204.208 173.356 204.811 173.356 205.504C173.356 206.283 173.159 207.072 172.764 207.872C172.38 208.672 171.841 209.488 171.148 210.32C170.465 211.141 169.665 211.984 168.748 212.848C169.057 212.827 169.377 212.805 169.708 212.784C170.049 212.752 170.369 212.736 170.668 212.736H173.916V214H166.54ZM175.911 217.04L175.559 216.176C176.06 215.952 176.455 215.648 176.743 215.264C177.031 214.88 177.17 214.443 177.159 213.952L176.999 212.64L177.719 213.712C177.612 213.829 177.495 213.915 177.367 213.968C177.25 214.011 177.122 214.032 176.983 214.032C176.695 214.032 176.444 213.941 176.231 213.76C176.018 213.579 175.911 213.328 175.911 213.008C175.911 212.688 176.018 212.437 176.231 212.256C176.455 212.075 176.716 211.984 177.015 211.984C177.399 211.984 177.698 212.139 177.911 212.448C178.135 212.747 178.247 213.163 178.247 213.696C178.247 214.464 178.034 215.136 177.607 215.712C177.191 216.288 176.626 216.731 175.911 217.04ZM184.604 214V206C184.604 205.712 184.615 205.36 184.636 204.944C184.657 204.528 184.673 204.171 184.684 203.872H184.62C184.471 204.149 184.316 204.437 184.156 204.736C184.007 205.024 183.847 205.312 183.676 205.6L181.004 209.6H187.548V210.768H179.484V209.808L184.364 202.272H185.98V214H184.604ZM192.519 214.208C191.794 214.208 191.148 214.075 190.583 213.808C190.018 213.541 189.575 213.173 189.255 212.704C188.935 212.235 188.775 211.696 188.775 211.088C188.775 210.565 188.876 210.096 189.079 209.68C189.292 209.253 189.564 208.891 189.895 208.592C190.226 208.283 190.567 208.032 190.919 207.84V207.776C190.492 207.477 190.119 207.109 189.799 206.672C189.49 206.224 189.335 205.691 189.335 205.072C189.335 204.475 189.474 203.957 189.751 203.52C190.039 203.072 190.423 202.725 190.903 202.48C191.394 202.224 191.943 202.096 192.551 202.096C193.223 202.096 193.799 202.229 194.279 202.496C194.759 202.763 195.127 203.125 195.383 203.584C195.639 204.043 195.767 204.576 195.767 205.184C195.767 205.589 195.682 205.973 195.511 206.336C195.351 206.699 195.154 207.024 194.919 207.312C194.684 207.589 194.45 207.824 194.215 208.016V208.096C194.556 208.288 194.876 208.523 195.175 208.8C195.474 209.067 195.714 209.397 195.895 209.792C196.087 210.176 196.183 210.64 196.183 211.184C196.183 211.739 196.028 212.251 195.719 212.72C195.42 213.179 194.994 213.541 194.439 213.808C193.895 214.075 193.255 214.208 192.519 214.208ZM193.319 207.632C193.714 207.28 194.012 206.907 194.215 206.512C194.418 206.107 194.519 205.691 194.519 205.264C194.519 204.869 194.439 204.517 194.279 204.208C194.13 203.899 193.906 203.653 193.607 203.472C193.308 203.28 192.951 203.184 192.535 203.184C191.991 203.184 191.543 203.355 191.191 203.696C190.839 204.037 190.663 204.496 190.663 205.072C190.663 205.531 190.786 205.92 191.031 206.24C191.287 206.549 191.618 206.816 192.023 207.04C192.428 207.253 192.86 207.451 193.319 207.632ZM192.535 213.12C192.994 213.12 193.388 213.035 193.719 212.864C194.06 212.693 194.322 212.459 194.503 212.16C194.695 211.861 194.791 211.52 194.791 211.136C194.791 210.741 194.706 210.405 194.535 210.128C194.364 209.84 194.135 209.589 193.847 209.376C193.57 209.163 193.244 208.971 192.871 208.8C192.498 208.629 192.103 208.464 191.687 208.304C191.218 208.603 190.828 208.981 190.519 209.44C190.22 209.888 190.071 210.395 190.071 210.96C190.071 211.365 190.178 211.733 190.391 212.064C190.604 212.395 190.898 212.656 191.271 212.848C191.655 213.029 192.076 213.12 192.535 213.12ZM200.674 214.208C200.034 214.208 199.479 214.096 199.01 213.872C198.551 213.637 198.162 213.349 197.842 213.008L198.642 212.096C198.898 212.373 199.197 212.592 199.538 212.752C199.89 212.912 200.253 212.992 200.626 212.992C201.021 212.992 201.394 212.901 201.746 212.72C202.098 212.539 202.407 212.24 202.674 211.824C202.951 211.397 203.165 210.843 203.314 210.16C203.474 209.477 203.554 208.635 203.554 207.632C203.554 206.672 203.453 205.861 203.25 205.2C203.058 204.539 202.77 204.043 202.386 203.712C202.002 203.371 201.538 203.2 200.994 203.2C200.621 203.2 200.285 203.312 199.986 203.536C199.687 203.76 199.447 204.069 199.266 204.464C199.085 204.859 198.994 205.328 198.994 205.872C198.994 206.395 199.069 206.853 199.218 207.248C199.378 207.632 199.613 207.931 199.922 208.144C200.242 208.357 200.631 208.464 201.09 208.464C201.485 208.464 201.895 208.341 202.322 208.096C202.759 207.84 203.175 207.424 203.57 206.848L203.634 208.016C203.399 208.315 203.127 208.581 202.818 208.816C202.519 209.051 202.199 209.232 201.858 209.36C201.527 209.488 201.191 209.552 200.85 209.552C200.199 209.552 199.629 209.413 199.138 209.136C198.658 208.859 198.285 208.448 198.018 207.904C197.751 207.349 197.618 206.672 197.618 205.872C197.618 205.104 197.773 204.437 198.082 203.872C198.391 203.296 198.797 202.853 199.298 202.544C199.81 202.224 200.37 202.064 200.978 202.064C201.543 202.064 202.066 202.181 202.546 202.416C203.026 202.64 203.442 202.987 203.794 203.456C204.146 203.915 204.423 204.491 204.626 205.184C204.829 205.877 204.93 206.693 204.93 207.632C204.93 208.816 204.813 209.829 204.578 210.672C204.343 211.504 204.023 212.181 203.618 212.704C203.213 213.227 202.754 213.611 202.242 213.856C201.741 214.091 201.218 214.208 200.674 214.208ZM206.989 217.04L206.637 216.176C207.138 215.952 207.533 215.648 207.821 215.264C208.109 214.88 208.248 214.443 208.237 213.952L208.077 212.64L208.797 213.712C208.69 213.829 208.573 213.915 208.445 213.968C208.328 214.011 208.2 214.032 208.061 214.032C207.773 214.032 207.522 213.941 207.309 213.76C207.096 213.579 206.989 213.328 206.989 213.008C206.989 212.688 207.096 212.437 207.309 212.256C207.533 212.075 207.794 211.984 208.093 211.984C208.477 211.984 208.776 212.139 208.989 212.448C209.213 212.747 209.325 213.163 209.325 213.696C209.325 214.464 209.112 215.136 208.685 215.712C208.269 216.288 207.704 216.731 206.989 217.04ZM214.69 214.208C213.954 214.208 213.309 213.984 212.754 213.536C212.21 213.088 211.789 212.411 211.49 211.504C211.192 210.597 211.042 209.461 211.042 208.096C211.042 206.731 211.192 205.605 211.49 204.72C211.789 203.824 212.21 203.157 212.754 202.72C213.309 202.283 213.954 202.064 214.69 202.064C215.437 202.064 216.082 202.288 216.626 202.736C217.17 203.173 217.592 203.835 217.89 204.72C218.189 205.605 218.338 206.731 218.338 208.096C218.338 209.461 218.189 210.597 217.89 211.504C217.592 212.411 217.17 213.088 216.626 213.536C216.082 213.984 215.437 214.208 214.69 214.208ZM214.69 213.024C215.138 213.024 215.528 212.853 215.858 212.512C216.2 212.171 216.461 211.637 216.642 210.912C216.834 210.176 216.93 209.237 216.93 208.096C216.93 206.955 216.834 206.027 216.642 205.312C216.461 204.587 216.2 204.059 215.858 203.728C215.528 203.387 215.138 203.216 214.69 203.216C214.253 203.216 213.864 203.387 213.522 203.728C213.181 204.059 212.914 204.587 212.722 205.312C212.541 206.027 212.45 206.955 212.45 208.096C212.45 209.237 212.541 210.176 212.722 210.912C212.914 211.637 213.181 212.171 213.522 212.512C213.864 212.853 214.253 213.024 214.69 213.024ZM219.821 214V213.136C221.048 212.059 222.056 211.077 222.845 210.192C223.645 209.307 224.237 208.485 224.621 207.728C225.005 206.96 225.197 206.24 225.197 205.568C225.197 205.12 225.117 204.72 224.957 204.368C224.808 204.016 224.573 203.744 224.253 203.552C223.933 203.349 223.528 203.248 223.037 203.248C222.557 203.248 222.109 203.376 221.693 203.632C221.288 203.888 220.925 204.213 220.605 204.608L219.757 203.776C220.227 203.253 220.733 202.837 221.277 202.528C221.821 202.219 222.467 202.064 223.213 202.064C223.917 202.064 224.52 202.208 225.021 202.496C225.533 202.773 225.928 203.173 226.205 203.696C226.493 204.208 226.637 204.811 226.637 205.504C226.637 206.283 226.44 207.072 226.045 207.872C225.661 208.672 225.123 209.488 224.429 210.32C223.747 211.141 222.947 211.984 222.029 212.848C222.339 212.827 222.659 212.805 222.989 212.784C223.331 212.752 223.651 212.736 223.949 212.736H227.197V214H219.821ZM228.696 214V213.136C229.923 212.059 230.931 211.077 231.72 210.192C232.52 209.307 233.112 208.485 233.496 207.728C233.88 206.96 234.072 206.24 234.072 205.568C234.072 205.12 233.992 204.72 233.832 204.368C233.683 204.016 233.448 203.744 233.128 203.552C232.808 203.349 232.403 203.248 231.912 203.248C231.432 203.248 230.984 203.376 230.568 203.632C230.163 203.888 229.8 204.213 229.48 204.608L228.632 203.776C229.102 203.253 229.608 202.837 230.152 202.528C230.696 202.219 231.342 202.064 232.088 202.064C232.792 202.064 233.395 202.208 233.896 202.496C234.408 202.773 234.803 203.173 235.08 203.696C235.368 204.208 235.512 204.811 235.512 205.504C235.512 206.283 235.315 207.072 234.92 207.872C234.536 208.672 233.998 209.488 233.304 210.32C232.622 211.141 231.822 211.984 230.904 212.848C231.214 212.827 231.534 212.805 231.864 212.784C232.206 212.752 232.526 212.736 232.824 212.736H236.072V214H228.696Z" fill="#4F4F4F"/>
<path d="M89.912 239.464H104.184V240.504H89.912V239.464ZM92.856 237.976L93.944 237.512C94.2 237.832 94.4667 238.195 94.744 238.6C95.032 238.995 95.2453 239.331 95.384 239.608L94.232 240.136C94.104 239.848 93.9067 239.501 93.64 239.096C93.3733 238.68 93.112 238.307 92.856 237.976ZM94.68 244.6L95.528 244.264C95.7307 244.531 95.928 244.824 96.12 245.144C96.3227 245.453 96.5093 245.763 96.68 246.072C96.8507 246.371 96.9787 246.637 97.064 246.872L96.152 247.288C96.0667 247.043 95.944 246.765 95.784 246.456C95.624 246.147 95.448 245.832 95.256 245.512C95.064 245.181 94.872 244.877 94.68 244.6ZM101.32 244.52L102.232 244.168C102.456 244.445 102.68 244.755 102.904 245.096C103.139 245.427 103.352 245.757 103.544 246.088C103.747 246.419 103.901 246.712 104.008 246.968L103.064 247.384C102.957 247.128 102.808 246.835 102.616 246.504C102.424 246.173 102.216 245.832 101.992 245.48C101.768 245.128 101.544 244.808 101.32 244.52ZM99.72 237.528L101.064 237.912C100.797 238.296 100.515 238.68 100.216 239.064C99.9173 239.448 99.6453 239.779 99.4 240.056L98.424 239.672C98.5733 239.469 98.728 239.245 98.888 239C99.048 238.744 99.2027 238.488 99.352 238.232C99.5013 237.965 99.624 237.731 99.72 237.528ZM93.544 247.992H94.712V250.472C94.712 250.664 94.776 250.792 94.904 250.856C95.0427 250.92 95.3413 250.952 95.8 250.952C95.9067 250.952 96.0987 250.952 96.376 250.952C96.6533 250.952 96.9573 250.952 97.288 250.952C97.6293 250.952 97.944 250.952 98.232 250.952C98.5307 250.952 98.7493 250.952 98.888 250.952C99.144 250.952 99.336 250.909 99.464 250.824C99.6027 250.739 99.6987 250.557 99.752 250.28C99.8053 250.003 99.8427 249.576 99.864 249C99.96 249.064 100.072 249.128 100.2 249.192C100.328 249.245 100.456 249.293 100.584 249.336C100.723 249.379 100.845 249.416 100.952 249.448C100.909 250.141 100.824 250.675 100.696 251.048C100.568 251.421 100.371 251.677 100.104 251.816C99.848 251.965 99.4747 252.04 98.984 252.04C98.9093 252.04 98.76 252.04 98.536 252.04C98.312 252.04 98.056 252.04 97.768 252.04C97.4907 252.04 97.208 252.04 96.92 252.04C96.632 252.04 96.376 252.04 96.152 252.04C95.9387 252.04 95.7947 252.04 95.72 252.04C95.1547 252.04 94.712 251.992 94.392 251.896C94.072 251.811 93.848 251.656 93.72 251.432C93.6027 251.208 93.544 250.888 93.544 250.472V247.992ZM95.96 247.976L96.856 247.496C97.144 247.763 97.4427 248.072 97.752 248.424C98.0613 248.765 98.3013 249.064 98.472 249.32L97.544 249.848C97.3733 249.592 97.1333 249.288 96.824 248.936C96.5253 248.573 96.2373 248.253 95.96 247.976ZM101.096 247.944L102.04 247.4C102.285 247.731 102.541 248.088 102.808 248.472C103.075 248.856 103.325 249.229 103.56 249.592C103.805 249.955 104.003 250.264 104.152 250.52L103.144 251.176C103.005 250.909 102.819 250.589 102.584 250.216C102.349 249.832 102.104 249.443 101.848 249.048C101.592 248.653 101.341 248.285 101.096 247.944ZM91.352 247.752L92.376 248.2C92.2693 248.531 92.136 248.893 91.976 249.288C91.8267 249.672 91.6613 250.056 91.48 250.44C91.2987 250.813 91.112 251.149 90.92 251.448L89.832 250.888C90.0453 250.621 90.2427 250.307 90.424 249.944C90.616 249.581 90.792 249.208 90.952 248.824C91.112 248.44 91.2453 248.083 91.352 247.752ZM90.552 244.12C90.5307 244.045 90.4987 243.949 90.456 243.832C90.424 243.704 90.3867 243.581 90.344 243.464C90.3013 243.336 90.2587 243.229 90.216 243.144C90.4613 243.101 90.728 242.931 91.016 242.632C91.1333 242.525 91.3093 242.349 91.544 242.104C91.7787 241.848 92.0347 241.549 92.312 241.208C92.5893 240.867 92.84 240.52 93.064 240.168L94.024 240.616C93.5973 241.192 93.144 241.736 92.664 242.248C92.184 242.76 91.7093 243.197 91.24 243.56V243.592C91.24 243.592 91.2027 243.608 91.128 243.64C91.064 243.672 90.984 243.715 90.888 243.768C90.8027 243.821 90.7227 243.88 90.648 243.944C90.584 243.997 90.552 244.056 90.552 244.12ZM90.536 244.104L90.52 243.336L91.08 243.016L94.744 242.76C94.7227 242.888 94.7013 243.032 94.68 243.192C94.6693 243.352 94.664 243.485 94.664 243.592C93.8213 243.667 93.144 243.731 92.632 243.784C92.12 243.827 91.7253 243.869 91.448 243.912C91.1707 243.944 90.968 243.976 90.84 244.008C90.712 244.04 90.6107 244.072 90.536 244.104ZM90.568 247.128C90.5467 247.053 90.5147 246.952 90.472 246.824C90.4293 246.685 90.3867 246.552 90.344 246.424C90.3013 246.285 90.2587 246.173 90.216 246.088C90.3973 246.056 90.6 245.971 90.824 245.832C91.048 245.693 91.304 245.512 91.592 245.288C91.7413 245.181 91.96 245 92.248 244.744C92.5467 244.488 92.8827 244.184 93.256 243.832C93.6293 243.48 94.0133 243.096 94.408 242.68C94.8133 242.264 95.192 241.837 95.544 241.4L96.424 242.024C95.6453 242.899 94.8187 243.731 93.944 244.52C93.08 245.299 92.216 245.981 91.352 246.568V246.6C91.352 246.6 91.3093 246.616 91.224 246.648C91.1493 246.669 91.0587 246.712 90.952 246.776C90.856 246.829 90.7653 246.888 90.68 246.952C90.6053 247.005 90.568 247.064 90.568 247.128ZM90.568 247.128L90.552 246.328L91.16 245.992L96.024 245.656C96.024 245.795 96.0293 245.949 96.04 246.12C96.0613 246.291 96.0827 246.435 96.104 246.552C94.9413 246.637 94.0133 246.712 93.32 246.776C92.6267 246.829 92.0933 246.877 91.72 246.92C91.3573 246.952 91.096 246.984 90.936 247.016C90.776 247.048 90.6533 247.085 90.568 247.128ZM97.064 244.168C97.0427 244.093 97.0107 243.992 96.968 243.864C96.9253 243.736 96.8827 243.608 96.84 243.48C96.7973 243.341 96.7547 243.229 96.712 243.144C96.9467 243.112 97.2027 242.941 97.48 242.632C97.5867 242.525 97.752 242.349 97.976 242.104C98.2 241.848 98.44 241.549 98.696 241.208C98.952 240.867 99.1813 240.515 99.384 240.152L100.392 240.6C99.9973 241.176 99.5707 241.725 99.112 242.248C98.6533 242.771 98.1947 243.219 97.736 243.592V243.608C97.736 243.608 97.704 243.629 97.64 243.672C97.576 243.704 97.496 243.747 97.4 243.8C97.3147 243.853 97.2347 243.912 97.16 243.976C97.096 244.04 97.064 244.104 97.064 244.168ZM97.064 244.168L97.048 243.384L97.592 243.064L101.016 242.824C100.995 242.963 100.973 243.117 100.952 243.288C100.931 243.448 100.925 243.581 100.936 243.688C100.147 243.752 99.512 243.811 99.032 243.864C98.552 243.907 98.1787 243.944 97.912 243.976C97.656 244.008 97.464 244.04 97.336 244.072C97.2187 244.104 97.128 244.136 97.064 244.168ZM97.416 247.08C97.4053 247.005 97.3787 246.904 97.336 246.776C97.2933 246.637 97.2507 246.504 97.208 246.376C97.1653 246.237 97.1227 246.12 97.08 246.024C97.2507 246.003 97.4373 245.923 97.64 245.784C97.8533 245.635 98.0827 245.453 98.328 245.24C98.4773 245.123 98.6853 244.941 98.952 244.696C99.2293 244.44 99.5387 244.136 99.88 243.784C100.221 243.432 100.573 243.053 100.936 242.648C101.299 242.232 101.635 241.811 101.944 241.384L102.984 241.864C102.237 242.771 101.453 243.624 100.632 244.424C99.8107 245.224 99 245.917 98.2 246.504V246.52C98.2 246.52 98.1573 246.536 98.072 246.568C97.9973 246.6 97.9067 246.648 97.8 246.712C97.704 246.765 97.6133 246.824 97.528 246.888C97.4533 246.952 97.416 247.016 97.416 247.08ZM97.416 247.08V246.312L97.992 245.96L102.904 245.592C102.904 245.72 102.909 245.869 102.92 246.04C102.931 246.211 102.947 246.349 102.968 246.456C101.805 246.552 100.872 246.632 100.168 246.696C99.4747 246.76 98.9413 246.813 98.568 246.856C98.2053 246.899 97.944 246.936 97.784 246.968C97.624 247 97.5013 247.037 97.416 247.08ZM108.632 250.76H117.432V251.736H108.632V250.76ZM108.056 247.912H118.04V252.232H116.824V248.872H109.24V252.28H108.056V247.912ZM106.744 239.336H119.288V240.264H106.744V239.336ZM106.328 243.352H119.784V244.28H106.328V243.352ZM107.72 241.336H118.296V242.248H107.72V241.336ZM105.848 245.992H120.2V246.968H105.848V245.992ZM112.344 239.752H113.576V243.928H112.344V239.752ZM108.968 237.896L110.024 237.528C110.237 237.741 110.435 237.987 110.616 238.264C110.808 238.541 110.947 238.787 111.032 239L109.912 239.432C109.837 239.208 109.704 238.957 109.512 238.68C109.331 238.392 109.149 238.131 108.968 237.896ZM108.248 244.584L109.336 244.28C109.528 244.504 109.715 244.755 109.896 245.032C110.077 245.309 110.211 245.56 110.296 245.784L109.128 246.136C109.064 245.912 108.947 245.656 108.776 245.368C108.616 245.069 108.44 244.808 108.248 244.584ZM115.816 237.528L117.048 237.816C116.845 238.179 116.632 238.531 116.408 238.872C116.195 239.213 115.992 239.512 115.8 239.768L114.744 239.496C114.925 239.219 115.117 238.893 115.32 238.52C115.533 238.147 115.699 237.816 115.816 237.528ZM116.568 244.296L117.768 244.552C117.587 244.904 117.395 245.245 117.192 245.576C116.989 245.907 116.797 246.195 116.616 246.44L115.544 246.216C115.704 245.949 115.885 245.635 116.088 245.272C116.291 244.899 116.451 244.573 116.568 244.296ZM129.4 239.08V241.224H134.136V239.08H129.4ZM128.264 238.088H135.304V242.232H128.264V238.088ZM134.584 243.416H135.8V250.872C135.8 251.203 135.757 251.459 135.672 251.64C135.587 251.821 135.427 251.965 135.192 252.072C134.957 252.157 134.648 252.211 134.264 252.232C133.88 252.253 133.4 252.264 132.824 252.264C132.803 252.093 132.755 251.901 132.68 251.688C132.605 251.475 132.531 251.293 132.456 251.144C132.872 251.155 133.251 251.16 133.592 251.16C133.944 251.16 134.179 251.155 134.296 251.144C134.488 251.144 134.584 251.053 134.584 250.872V243.416ZM121.576 246.024C122.056 245.907 122.6 245.768 123.208 245.608C123.816 245.437 124.461 245.256 125.144 245.064C125.827 244.872 126.499 244.68 127.16 244.488L127.32 245.592C126.381 245.869 125.437 246.152 124.488 246.44C123.539 246.717 122.685 246.968 121.928 247.192L121.576 246.024ZM121.768 240.792H127.272V241.928H121.768V240.792ZM124.024 237.56H125.192V250.856C125.192 251.187 125.149 251.443 125.064 251.624C124.979 251.805 124.829 251.944 124.616 252.04C124.403 252.136 124.12 252.195 123.768 252.216C123.416 252.248 122.968 252.259 122.424 252.248C122.403 252.109 122.355 251.933 122.28 251.72C122.216 251.507 122.141 251.32 122.056 251.16C122.429 251.171 122.771 251.176 123.08 251.176C123.4 251.176 123.608 251.176 123.704 251.176C123.821 251.165 123.901 251.139 123.944 251.096C123.997 251.053 124.024 250.973 124.024 250.856V237.56ZM128.456 243.416H135.224V244.472H128.456V243.416ZM127.928 243.416H129.112V246.456C129.112 246.904 129.091 247.389 129.048 247.912C129.016 248.424 128.941 248.947 128.824 249.48C128.707 250.003 128.541 250.509 128.328 251C128.115 251.501 127.832 251.96 127.48 252.376C127.416 252.301 127.325 252.216 127.208 252.12C127.091 252.035 126.968 251.944 126.84 251.848C126.712 251.763 126.6 251.699 126.504 251.656C126.931 251.144 127.245 250.589 127.448 249.992C127.651 249.384 127.779 248.771 127.832 248.152C127.896 247.533 127.928 246.963 127.928 246.44V243.416ZM129.064 249.048C129.565 248.952 130.131 248.84 130.76 248.712C131.4 248.573 132.077 248.429 132.792 248.28C133.507 248.131 134.221 247.981 134.936 247.832L135.048 248.808C134.077 249.053 133.107 249.299 132.136 249.544C131.165 249.789 130.291 250.003 129.512 250.184L129.064 249.048ZM129.528 246.248L129.992 245.416C130.44 245.501 130.915 245.608 131.416 245.736C131.928 245.864 132.408 246.008 132.856 246.168C133.304 246.317 133.683 246.467 133.992 246.616L133.528 247.56C133.229 247.411 132.851 247.256 132.392 247.096C131.944 246.925 131.469 246.771 130.968 246.632C130.467 246.483 129.987 246.355 129.528 246.248ZM144.456 241.192H151.24V242.328H144.456V241.192ZM150.712 241.192H151.864C151.864 241.192 151.864 241.235 151.864 241.32C151.864 241.395 151.864 241.48 151.864 241.576C151.864 241.661 151.864 241.731 151.864 241.784C151.821 243.48 151.779 244.915 151.736 246.088C151.693 247.251 151.64 248.205 151.576 248.952C151.523 249.688 151.448 250.259 151.352 250.664C151.256 251.069 151.144 251.357 151.016 251.528C150.867 251.741 150.701 251.891 150.52 251.976C150.339 252.061 150.12 252.12 149.864 252.152C149.619 252.173 149.293 252.179 148.888 252.168C148.493 252.168 148.083 252.157 147.656 252.136C147.645 251.965 147.608 251.768 147.544 251.544C147.48 251.331 147.395 251.144 147.288 250.984C147.747 251.016 148.168 251.037 148.552 251.048C148.936 251.059 149.208 251.064 149.368 251.064C149.507 251.064 149.624 251.048 149.72 251.016C149.816 250.984 149.901 250.92 149.976 250.824C150.083 250.696 150.173 250.44 150.248 250.056C150.323 249.672 150.387 249.123 150.44 248.408C150.504 247.683 150.557 246.749 150.6 245.608C150.643 244.467 150.68 243.08 150.712 241.448V241.192ZM147.128 237.56H148.296C148.296 238.787 148.28 239.992 148.248 241.176C148.216 242.349 148.131 243.48 147.992 244.568C147.853 245.656 147.624 246.68 147.304 247.64C146.995 248.589 146.557 249.459 145.992 250.248C145.427 251.037 144.701 251.725 143.816 252.312C143.72 252.163 143.587 252.003 143.416 251.832C143.245 251.661 143.085 251.523 142.936 251.416C143.789 250.883 144.483 250.253 145.016 249.528C145.549 248.792 145.96 247.976 146.248 247.08C146.547 246.173 146.755 245.208 146.872 244.184C146.989 243.16 147.059 242.093 147.08 240.984C147.112 239.864 147.128 238.723 147.128 237.56ZM138.696 238.344H143.928V248.76H142.792V239.432H139.784V249.768H138.696V238.344ZM137.544 249.48C138.141 249.363 138.835 249.224 139.624 249.064C140.413 248.904 141.251 248.728 142.136 248.536C143.032 248.344 143.923 248.152 144.808 247.96L144.904 249.048C144.061 249.24 143.213 249.437 142.36 249.64C141.507 249.843 140.685 250.035 139.896 250.216C139.117 250.397 138.408 250.563 137.768 250.712L137.544 249.48ZM139.272 241.784H143.32V242.856H139.272V241.784ZM139.272 245.208H143.32V246.28H139.272V245.208ZM157.314 247.08V245.96H161.426V247.08H157.314ZM169.463 251.208C168.823 251.208 168.268 251.096 167.799 250.872C167.34 250.637 166.951 250.349 166.631 250.008L167.431 249.096C167.687 249.373 167.986 249.592 168.327 249.752C168.679 249.912 169.042 249.992 169.415 249.992C169.81 249.992 170.183 249.901 170.535 249.72C170.887 249.539 171.196 249.24 171.463 248.824C171.74 248.397 171.954 247.843 172.103 247.16C172.263 246.477 172.343 245.635 172.343 244.632C172.343 243.672 172.242 242.861 172.039 242.2C171.847 241.539 171.559 241.043 171.175 240.712C170.791 240.371 170.327 240.2 169.783 240.2C169.41 240.2 169.074 240.312 168.775 240.536C168.476 240.76 168.236 241.069 168.055 241.464C167.874 241.859 167.783 242.328 167.783 242.872C167.783 243.395 167.858 243.853 168.007 244.248C168.167 244.632 168.402 244.931 168.711 245.144C169.031 245.357 169.42 245.464 169.879 245.464C170.274 245.464 170.684 245.341 171.111 245.096C171.548 244.84 171.964 244.424 172.359 243.848L172.423 245.016C172.188 245.315 171.916 245.581 171.607 245.816C171.308 246.051 170.988 246.232 170.647 246.36C170.316 246.488 169.98 246.552 169.639 246.552C168.988 246.552 168.418 246.413 167.927 246.136C167.447 245.859 167.074 245.448 166.807 244.904C166.54 244.349 166.407 243.672 166.407 242.872C166.407 242.104 166.562 241.437 166.871 240.872C167.18 240.296 167.586 239.853 168.087 239.544C168.599 239.224 169.159 239.064 169.767 239.064C170.332 239.064 170.855 239.181 171.335 239.416C171.815 239.64 172.231 239.987 172.583 240.456C172.935 240.915 173.212 241.491 173.415 242.184C173.618 242.877 173.719 243.693 173.719 244.632C173.719 245.816 173.602 246.829 173.367 247.672C173.132 248.504 172.812 249.181 172.407 249.704C172.002 250.227 171.543 250.611 171.031 250.856C170.53 251.091 170.007 251.208 169.463 251.208ZM179.394 251.208C178.839 251.208 178.322 251.091 177.842 250.856C177.362 250.611 176.946 250.248 176.594 249.768C176.242 249.277 175.965 248.669 175.762 247.944C175.57 247.219 175.474 246.371 175.474 245.4C175.474 244.259 175.591 243.283 175.826 242.472C176.061 241.661 176.381 241.005 176.786 240.504C177.191 240.003 177.655 239.64 178.178 239.416C178.701 239.181 179.245 239.064 179.81 239.064C180.418 239.064 180.946 239.176 181.394 239.4C181.842 239.624 182.231 239.912 182.562 240.264L181.73 241.16C181.506 240.883 181.229 240.664 180.898 240.504C180.567 240.344 180.226 240.264 179.874 240.264C179.319 240.264 178.813 240.429 178.354 240.76C177.895 241.08 177.527 241.613 177.25 242.36C176.983 243.107 176.85 244.12 176.85 245.4C176.85 246.403 176.946 247.251 177.138 247.944C177.341 248.637 177.629 249.165 178.002 249.528C178.386 249.88 178.85 250.056 179.394 250.056C179.778 250.056 180.114 249.944 180.402 249.72C180.701 249.496 180.935 249.187 181.106 248.792C181.287 248.387 181.378 247.923 181.378 247.4C181.378 246.867 181.298 246.408 181.138 246.024C180.989 245.629 180.759 245.331 180.45 245.128C180.141 244.915 179.746 244.808 179.266 244.808C178.893 244.808 178.487 244.931 178.05 245.176C177.613 245.411 177.197 245.821 176.802 246.408L176.754 245.256C176.999 244.936 177.271 244.664 177.57 244.44C177.869 244.205 178.183 244.029 178.514 243.912C178.855 243.784 179.186 243.72 179.506 243.72C180.167 243.72 180.738 243.859 181.218 244.136C181.709 244.403 182.087 244.808 182.354 245.352C182.631 245.896 182.77 246.579 182.77 247.4C182.77 248.157 182.615 248.824 182.306 249.4C181.997 249.965 181.586 250.408 181.074 250.728C180.573 251.048 180.013 251.208 179.394 251.208ZM187.661 251.208C187.053 251.208 186.514 251.133 186.045 250.984C185.586 250.835 185.181 250.637 184.829 250.392C184.477 250.147 184.173 249.88 183.917 249.592L184.669 248.648C185.01 249 185.41 249.315 185.869 249.592C186.338 249.859 186.904 249.992 187.565 249.992C188.034 249.992 188.445 249.907 188.797 249.736C189.16 249.555 189.442 249.304 189.645 248.984C189.848 248.653 189.949 248.264 189.949 247.816C189.949 247.347 189.832 246.936 189.597 246.584C189.373 246.232 188.994 245.96 188.461 245.768C187.928 245.565 187.208 245.464 186.301 245.464V244.344C187.112 244.344 187.752 244.248 188.221 244.056C188.69 243.853 189.026 243.581 189.229 243.24C189.442 242.899 189.549 242.52 189.549 242.104C189.549 241.539 189.373 241.091 189.021 240.76C188.669 240.419 188.184 240.248 187.565 240.248C187.096 240.248 186.653 240.355 186.237 240.568C185.832 240.781 185.464 241.053 185.133 241.384L184.349 240.456C184.797 240.051 185.282 239.72 185.805 239.464C186.338 239.197 186.941 239.064 187.613 239.064C188.274 239.064 188.861 239.181 189.373 239.416C189.896 239.64 190.301 239.971 190.589 240.408C190.888 240.845 191.037 241.373 191.037 241.992C191.037 242.707 190.845 243.299 190.461 243.768C190.077 244.237 189.576 244.584 188.957 244.808V244.888C189.416 244.995 189.832 245.181 190.205 245.448C190.578 245.715 190.877 246.051 191.101 246.456C191.325 246.861 191.437 247.331 191.437 247.864C191.437 248.557 191.266 249.155 190.925 249.656C190.584 250.157 190.13 250.541 189.565 250.808C189 251.075 188.365 251.208 187.661 251.208ZM193.528 254.04L193.176 253.176C193.677 252.952 194.072 252.648 194.36 252.264C194.648 251.88 194.787 251.443 194.776 250.952L194.616 249.64L195.336 250.712C195.229 250.829 195.112 250.915 194.984 250.968C194.867 251.011 194.739 251.032 194.6 251.032C194.312 251.032 194.061 250.941 193.848 250.76C193.635 250.579 193.528 250.328 193.528 250.008C193.528 249.688 193.635 249.437 193.848 249.256C194.072 249.075 194.333 248.984 194.632 248.984C195.016 248.984 195.315 249.139 195.528 249.448C195.752 249.747 195.864 250.163 195.864 250.696C195.864 251.464 195.651 252.136 195.224 252.712C194.808 253.288 194.243 253.731 193.528 254.04ZM200.973 251.208C200.365 251.208 199.827 251.133 199.357 250.984C198.899 250.835 198.493 250.643 198.141 250.408C197.8 250.173 197.491 249.923 197.213 249.656L197.949 248.696C198.173 248.92 198.419 249.133 198.685 249.336C198.963 249.528 199.277 249.688 199.629 249.816C199.981 249.933 200.381 249.992 200.829 249.992C201.288 249.992 201.704 249.88 202.077 249.656C202.461 249.432 202.765 249.112 202.989 248.696C203.213 248.28 203.325 247.789 203.325 247.224C203.325 246.392 203.101 245.741 202.653 245.272C202.216 244.792 201.629 244.552 200.893 244.552C200.509 244.552 200.173 244.611 199.885 244.728C199.597 244.845 199.283 245.016 198.941 245.24L198.157 244.744L198.541 239.272H204.237V240.52H199.821L199.517 243.912C199.773 243.763 200.04 243.651 200.317 243.576C200.605 243.491 200.925 243.448 201.277 243.448C201.928 243.448 202.52 243.581 203.053 243.848C203.587 244.104 204.013 244.509 204.333 245.064C204.653 245.619 204.813 246.328 204.813 247.192C204.813 248.045 204.627 248.771 204.253 249.368C203.891 249.965 203.416 250.424 202.829 250.744C202.243 251.053 201.624 251.208 200.973 251.208ZM211.096 251V243C211.096 242.712 211.107 242.36 211.128 241.944C211.15 241.528 211.166 241.171 211.176 240.872H211.112C210.963 241.149 210.808 241.437 210.648 241.736C210.499 242.024 210.339 242.312 210.168 242.6L207.496 246.6H214.04V247.768H205.976V246.808L210.856 239.272H212.472V251H211.096ZM219.011 251.208C218.286 251.208 217.641 251.075 217.075 250.808C216.51 250.541 216.067 250.173 215.747 249.704C215.427 249.235 215.267 248.696 215.267 248.088C215.267 247.565 215.369 247.096 215.571 246.68C215.785 246.253 216.057 245.891 216.387 245.592C216.718 245.283 217.059 245.032 217.411 244.84V244.776C216.985 244.477 216.611 244.109 216.291 243.672C215.982 243.224 215.827 242.691 215.827 242.072C215.827 241.475 215.966 240.957 216.243 240.52C216.531 240.072 216.915 239.725 217.395 239.48C217.886 239.224 218.435 239.096 219.043 239.096C219.715 239.096 220.291 239.229 220.771 239.496C221.251 239.763 221.619 240.125 221.875 240.584C222.131 241.043 222.259 241.576 222.259 242.184C222.259 242.589 222.174 242.973 222.003 243.336C221.843 243.699 221.646 244.024 221.411 244.312C221.177 244.589 220.942 244.824 220.707 245.016V245.096C221.049 245.288 221.369 245.523 221.667 245.8C221.966 246.067 222.206 246.397 222.387 246.792C222.579 247.176 222.675 247.64 222.675 248.184C222.675 248.739 222.521 249.251 222.211 249.72C221.913 250.179 221.486 250.541 220.931 250.808C220.387 251.075 219.747 251.208 219.011 251.208ZM219.811 244.632C220.206 244.28 220.505 243.907 220.707 243.512C220.91 243.107 221.011 242.691 221.011 242.264C221.011 241.869 220.931 241.517 220.771 241.208C220.622 240.899 220.398 240.653 220.099 240.472C219.801 240.28 219.443 240.184 219.027 240.184C218.483 240.184 218.035 240.355 217.683 240.696C217.331 241.037 217.155 241.496 217.155 242.072C217.155 242.531 217.278 242.92 217.523 243.24C217.779 243.549 218.11 243.816 218.515 244.04C218.921 244.253 219.353 244.451 219.811 244.632ZM219.027 250.12C219.486 250.12 219.881 250.035 220.211 249.864C220.553 249.693 220.814 249.459 220.995 249.16C221.187 248.861 221.283 248.52 221.283 248.136C221.283 247.741 221.198 247.405 221.027 247.128C220.857 246.84 220.627 246.589 220.339 246.376C220.062 246.163 219.737 245.971 219.363 245.8C218.99 245.629 218.595 245.464 218.179 245.304C217.71 245.603 217.321 245.981 217.011 246.44C216.713 246.888 216.563 247.395 216.563 247.96C216.563 248.365 216.67 248.733 216.883 249.064C217.097 249.395 217.39 249.656 217.763 249.848C218.147 250.029 218.569 250.12 219.027 250.12Z" fill="#4F4F4F"/>
<mask id="mask1_425_60322" style="mask-type:luminance" maskUnits="userSpaceOnUse" x="73" y="205" width="10" height="10">
<path d="M83 205H73V215H83V205Z" fill="white"/>
</mask>
<g mask="url(#mask1_425_60322)">
<path d="M82.9063 210.094L77.9062 205.094L72.9062 210.094L77.9062 215.094L82.9063 210.094Z" fill="url(#paint1_linear_425_60322)"/>
</g>
<mask id="mask2_425_60322" style="mask-type:luminance" maskUnits="userSpaceOnUse" x="73" y="241" width="10" height="10">
<path d="M83 241H73V251H83V241Z" fill="white"/>
</mask>
<g mask="url(#mask2_425_60322)">
<path d="M82.9063 246.094L77.9062 241.094L72.9063 246.094L77.9063 251.094L82.9063 246.094Z" fill="url(#paint2_linear_425_60322)"/>
</g>
<path d="M731.365 238.24C713.289 289.533 657.051 316.45 605.763 298.373C554.474 280.296 527.537 224.052 545.635 172.76C563.711 121.467 619.949 94.5497 671.237 112.627C722.526 130.704 749.463 186.948 731.365 238.24Z" fill="white"/>
<g clip-path="url(#clip1_425_60322)">
<rect width="370" height="370" transform="translate(415)" fill="white"/>
<path d="M766 183C766 274.127 692.127 348 601 348C509.873 348 436 274.127 436 183C436 91.873 509.873 18 601 18C692.127 18 766 91.873 766 183Z" fill="url(#paint3_linear_425_60322)"/>
<path d="M600 -8.08661e-06C643.05 -9.96839e-06 684.753 15.0138 717.923 42.455L600 185L600 -8.08661e-06Z" fill="url(#paint4_linear_425_60322)"/>
<path d="M716.424 41.228C738.35 58.9831 755.924 81.5178 767.803 107.108C779.682 132.699 785.55 160.667 784.959 188.874C784.369 217.081 777.334 244.779 764.394 269.85C751.454 294.921 732.952 316.7 710.302 333.521L600 185L716.424 41.228Z" fill="url(#paint5_linear_425_60322)"/>
<path d="M696.76 157.963C710.575 210.861 678.938 264.943 626.048 278.76C573.157 292.576 519.083 260.935 505.238 208.037C491.423 155.139 523.091 101.057 575.951 87.2401C628.841 73.4235 682.915 105.065 696.73 157.963" fill="white"/>
<path d="M466.816 237.208C466.261 237.208 465.744 237.091 465.264 236.856C464.784 236.611 464.368 236.248 464.016 235.768C463.664 235.277 463.387 234.669 463.184 233.944C462.992 233.219 462.896 232.371 462.896 231.4C462.896 230.259 463.013 229.283 463.248 228.472C463.483 227.661 463.803 227.005 464.208 226.504C464.613 226.003 465.077 225.64 465.6 225.416C466.123 225.181 466.667 225.064 467.232 225.064C467.84 225.064 468.368 225.176 468.816 225.4C469.264 225.624 469.653 225.912 469.984 226.264L469.152 227.16C468.928 226.883 468.651 226.664 468.32 226.504C467.989 226.344 467.648 226.264 467.296 226.264C466.741 226.264 466.235 226.429 465.776 226.76C465.317 227.08 464.949 227.613 464.672 228.36C464.405 229.107 464.272 230.12 464.272 231.4C464.272 232.403 464.368 233.251 464.56 233.944C464.763 234.637 465.051 235.165 465.424 235.528C465.808 235.88 466.272 236.056 466.816 236.056C467.2 236.056 467.536 235.944 467.824 235.72C468.123 235.496 468.357 235.187 468.528 234.792C468.709 234.387 468.8 233.923 468.8 233.4C468.8 232.867 468.72 232.408 468.56 232.024C468.411 231.629 468.181 231.331 467.872 231.128C467.563 230.915 467.168 230.808 466.688 230.808C466.315 230.808 465.909 230.931 465.472 231.176C465.035 231.411 464.619 231.821 464.224 232.408L464.176 231.256C464.421 230.936 464.693 230.664 464.992 230.44C465.291 230.205 465.605 230.029 465.936 229.912C466.277 229.784 466.608 229.72 466.928 229.72C467.589 229.72 468.16 229.859 468.64 230.136C469.131 230.403 469.509 230.808 469.776 231.352C470.053 231.896 470.192 232.579 470.192 233.4C470.192 234.157 470.037 234.824 469.728 235.4C469.419 235.965 469.008 236.408 468.496 236.728C467.995 237.048 467.435 237.208 466.816 237.208ZM475.323 237.208C474.587 237.208 473.942 236.984 473.387 236.536C472.843 236.088 472.422 235.411 472.123 234.504C471.824 233.597 471.675 232.461 471.675 231.096C471.675 229.731 471.824 228.605 472.123 227.72C472.422 226.824 472.843 226.157 473.387 225.72C473.942 225.283 474.587 225.064 475.323 225.064C476.07 225.064 476.715 225.288 477.259 225.736C477.803 226.173 478.224 226.835 478.523 227.72C478.822 228.605 478.971 229.731 478.971 231.096C478.971 232.461 478.822 233.597 478.523 234.504C478.224 235.411 477.803 236.088 477.259 236.536C476.715 236.984 476.07 237.208 475.323 237.208ZM475.323 236.024C475.771 236.024 476.16 235.853 476.491 235.512C476.832 235.171 477.094 234.637 477.275 233.912C477.467 233.176 477.563 232.237 477.563 231.096C477.563 229.955 477.467 229.027 477.275 228.312C477.094 227.587 476.832 227.059 476.491 226.728C476.16 226.387 475.771 226.216 475.323 226.216C474.886 226.216 474.496 226.387 474.155 226.728C473.814 227.059 473.547 227.587 473.355 228.312C473.174 229.027 473.083 229.955 473.083 231.096C473.083 232.237 473.174 233.176 473.355 233.912C473.547 234.637 473.814 235.171 474.155 235.512C474.496 235.853 474.886 236.024 475.323 236.024ZM483.03 232.456C482.497 232.456 482.027 232.312 481.622 232.024C481.227 231.725 480.918 231.299 480.694 230.744C480.481 230.189 480.374 229.517 480.374 228.728C480.374 227.939 480.481 227.272 480.694 226.728C480.918 226.184 481.227 225.773 481.622 225.496C482.027 225.208 482.497 225.064 483.03 225.064C483.574 225.064 484.043 225.208 484.438 225.496C484.843 225.773 485.153 226.184 485.366 226.728C485.59 227.272 485.702 227.939 485.702 228.728C485.702 229.517 485.59 230.189 485.366 230.744C485.153 231.299 484.843 231.725 484.438 232.024C484.043 232.312 483.574 232.456 483.03 232.456ZM483.03 231.56C483.499 231.56 483.873 231.325 484.15 230.856C484.438 230.376 484.582 229.667 484.582 228.728C484.582 227.789 484.438 227.096 484.15 226.648C483.873 226.189 483.499 225.96 483.03 225.96C482.571 225.96 482.198 226.189 481.91 226.648C481.622 227.096 481.478 227.789 481.478 228.728C481.478 229.667 481.622 230.376 481.91 230.856C482.198 231.325 482.571 231.56 483.03 231.56ZM483.366 237.208L489.846 225.064H490.838L484.358 237.208H483.366ZM491.206 237.208C490.673 237.208 490.203 237.064 489.798 236.776C489.403 236.488 489.094 236.067 488.87 235.512C488.657 234.957 488.55 234.285 488.55 233.496C488.55 232.707 488.657 232.04 488.87 231.496C489.094 230.952 489.403 230.536 489.798 230.248C490.203 229.96 490.673 229.816 491.206 229.816C491.739 229.816 492.203 229.96 492.598 230.248C493.003 230.536 493.313 230.952 493.526 231.496C493.75 232.04 493.862 232.707 493.862 233.496C493.862 234.285 493.75 234.957 493.526 235.512C493.313 236.067 493.003 236.488 492.598 236.776C492.203 237.064 491.739 237.208 491.206 237.208ZM491.206 236.312C491.665 236.312 492.038 236.077 492.326 235.608C492.625 235.139 492.774 234.435 492.774 233.496C492.774 232.557 492.625 231.859 492.326 231.4C492.038 230.941 491.665 230.712 491.206 230.712C490.747 230.712 490.369 230.941 490.07 231.4C489.782 231.859 489.638 232.557 489.638 233.496C489.638 234.435 489.782 235.139 490.07 235.608C490.369 236.077 490.747 236.312 491.206 236.312Z" fill="white"/>
<path d="M726.704 185V184.136C727.931 183.059 728.939 182.077 729.728 181.192C730.528 180.307 731.12 179.485 731.504 178.728C731.888 177.96 732.08 177.24 732.08 176.568C732.08 176.12 732 175.72 731.84 175.368C731.691 175.016 731.456 174.744 731.136 174.552C730.816 174.349 730.411 174.248 729.92 174.248C729.44 174.248 728.992 174.376 728.576 174.632C728.171 174.888 727.808 175.213 727.488 175.608L726.64 174.776C727.109 174.253 727.616 173.837 728.16 173.528C728.704 173.219 729.349 173.064 730.096 173.064C730.8 173.064 731.403 173.208 731.904 173.496C732.416 173.773 732.811 174.173 733.088 174.696C733.376 175.208 733.52 175.811 733.52 176.504C733.52 177.283 733.323 178.072 732.928 178.872C732.544 179.672 732.005 180.488 731.312 181.32C730.629 182.141 729.829 182.984 728.912 183.848C729.221 183.827 729.541 183.805 729.872 183.784C730.213 183.752 730.533 183.736 730.832 183.736H734.08V185H726.704ZM738.635 185.208C737.995 185.208 737.44 185.096 736.971 184.872C736.512 184.637 736.123 184.349 735.803 184.008L736.603 183.096C736.859 183.373 737.158 183.592 737.499 183.752C737.851 183.912 738.214 183.992 738.587 183.992C738.982 183.992 739.355 183.901 739.707 183.72C740.059 183.539 740.368 183.24 740.635 182.824C740.912 182.397 741.126 181.843 741.275 181.16C741.435 180.477 741.515 179.635 741.515 178.632C741.515 177.672 741.414 176.861 741.211 176.2C741.019 175.539 740.731 175.043 740.347 174.712C739.963 174.371 739.499 174.2 738.955 174.2C738.582 174.2 738.246 174.312 737.947 174.536C737.648 174.76 737.408 175.069 737.227 175.464C737.046 175.859 736.955 176.328 736.955 176.872C736.955 177.395 737.03 177.853 737.179 178.248C737.339 178.632 737.574 178.931 737.883 179.144C738.203 179.357 738.592 179.464 739.051 179.464C739.446 179.464 739.856 179.341 740.283 179.096C740.72 178.84 741.136 178.424 741.531 177.848L741.595 179.016C741.36 179.315 741.088 179.581 740.779 179.816C740.48 180.051 740.16 180.232 739.819 180.36C739.488 180.488 739.152 180.552 738.811 180.552C738.16 180.552 737.59 180.413 737.099 180.136C736.619 179.859 736.246 179.448 735.979 178.904C735.712 178.349 735.579 177.672 735.579 176.872C735.579 176.104 735.734 175.437 736.043 174.872C736.352 174.296 736.758 173.853 737.259 173.544C737.771 173.224 738.331 173.064 738.939 173.064C739.504 173.064 740.027 173.181 740.507 173.416C740.987 173.64 741.403 173.987 741.755 174.456C742.107 174.915 742.384 175.491 742.587 176.184C742.79 176.877 742.891 177.693 742.891 178.632C742.891 179.816 742.774 180.829 742.539 181.672C742.304 182.504 741.984 183.181 741.579 183.704C741.174 184.227 740.715 184.611 740.203 184.856C739.702 185.091 739.179 185.208 738.635 185.208ZM747.03 180.456C746.497 180.456 746.027 180.312 745.622 180.024C745.227 179.725 744.918 179.299 744.694 178.744C744.481 178.189 744.374 177.517 744.374 176.728C744.374 175.939 744.481 175.272 744.694 174.728C744.918 174.184 745.227 173.773 745.622 173.496C746.027 173.208 746.497 173.064 747.03 173.064C747.574 173.064 748.043 173.208 748.438 173.496C748.843 173.773 749.153 174.184 749.366 174.728C749.59 175.272 749.702 175.939 749.702 176.728C749.702 177.517 749.59 178.189 749.366 178.744C749.153 179.299 748.843 179.725 748.438 180.024C748.043 180.312 747.574 180.456 747.03 180.456ZM747.03 179.56C747.499 179.56 747.873 179.325 748.15 178.856C748.438 178.376 748.582 177.667 748.582 176.728C748.582 175.789 748.438 175.096 748.15 174.648C747.873 174.189 747.499 173.96 747.03 173.96C746.571 173.96 746.198 174.189 745.91 174.648C745.622 175.096 745.478 175.789 745.478 176.728C745.478 177.667 745.622 178.376 745.91 178.856C746.198 179.325 746.571 179.56 747.03 179.56ZM747.366 185.208L753.846 173.064H754.838L748.358 185.208H747.366ZM755.206 185.208C754.673 185.208 754.203 185.064 753.798 184.776C753.403 184.488 753.094 184.067 752.87 183.512C752.657 182.957 752.55 182.285 752.55 181.496C752.55 180.707 752.657 180.04 752.87 179.496C753.094 178.952 753.403 178.536 753.798 178.248C754.203 177.96 754.673 177.816 755.206 177.816C755.739 177.816 756.203 177.96 756.598 178.248C757.003 178.536 757.313 178.952 757.526 179.496C757.75 180.04 757.862 180.707 757.862 181.496C757.862 182.285 757.75 182.957 757.526 183.512C757.313 184.067 757.003 184.488 756.598 184.776C756.203 185.064 755.739 185.208 755.206 185.208ZM755.206 184.312C755.665 184.312 756.038 184.077 756.326 183.608C756.625 183.139 756.774 182.435 756.774 181.496C756.774 180.557 756.625 179.859 756.326 179.4C756.038 178.941 755.665 178.712 755.206 178.712C754.747 178.712 754.369 178.941 754.07 179.4C753.782 179.859 753.638 180.557 753.638 181.496C753.638 182.435 753.782 183.139 754.07 183.608C754.369 184.077 754.747 184.312 755.206 184.312Z" fill="white"/>
<path d="M629.408 53V51.784H632.032V43.032H629.936V42.104C630.459 42.008 630.912 41.8907 631.296 41.752C631.691 41.6133 632.048 41.4533 632.368 41.272H633.488V51.784H635.84V53H629.408ZM638.283 53V51.784H640.907V43.032H638.811V42.104C639.334 42.008 639.787 41.8907 640.171 41.752C640.566 41.6133 640.923 41.4533 641.243 41.272H642.363V51.784H644.715V53H638.283ZM649.03 48.456C648.497 48.456 648.027 48.312 647.622 48.024C647.227 47.7253 646.918 47.2987 646.694 46.744C646.481 46.1893 646.374 45.5173 646.374 44.728C646.374 43.9387 646.481 43.272 646.694 42.728C646.918 42.184 647.227 41.7733 647.622 41.496C648.027 41.208 648.497 41.064 649.03 41.064C649.574 41.064 650.043 41.208 650.438 41.496C650.843 41.7733 651.153 42.184 651.366 42.728C651.59 43.272 651.702 43.9387 651.702 44.728C651.702 45.5173 651.59 46.1893 651.366 46.744C651.153 47.2987 650.843 47.7253 650.438 48.024C650.043 48.312 649.574 48.456 649.03 48.456ZM649.03 47.56C649.499 47.56 649.873 47.3253 650.15 46.856C650.438 46.376 650.582 45.6667 650.582 44.728C650.582 43.7893 650.438 43.096 650.15 42.648C649.873 42.1893 649.499 41.96 649.03 41.96C648.571 41.96 648.198 42.1893 647.91 42.648C647.622 43.096 647.478 43.7893 647.478 44.728C647.478 45.6667 647.622 46.376 647.91 46.856C648.198 47.3253 648.571 47.56 649.03 47.56ZM649.366 53.208L655.846 41.064H656.838L650.358 53.208H649.366ZM657.206 53.208C656.673 53.208 656.203 53.064 655.798 52.776C655.403 52.488 655.094 52.0667 654.87 51.512C654.657 50.9573 654.55 50.2853 654.55 49.496C654.55 48.7067 654.657 48.04 654.87 47.496C655.094 46.952 655.403 46.536 655.798 46.248C656.203 45.96 656.673 45.816 657.206 45.816C657.739 45.816 658.203 45.96 658.598 46.248C659.003 46.536 659.313 46.952 659.526 47.496C659.75 48.04 659.862 48.7067 659.862 49.496C659.862 50.2853 659.75 50.9573 659.526 51.512C659.313 52.0667 659.003 52.488 658.598 52.776C658.203 53.064 657.739 53.208 657.206 53.208ZM657.206 52.312C657.665 52.312 658.038 52.0773 658.326 51.608C658.625 51.1387 658.774 50.4347 658.774 49.496C658.774 48.5573 658.625 47.8587 658.326 47.4C658.038 46.9413 657.665 46.712 657.206 46.712C656.747 46.712 656.369 46.9413 656.07 47.4C655.782 47.8587 655.638 48.5573 655.638 49.496C655.638 50.4347 655.782 51.1387 656.07 51.608C656.369 52.0773 656.747 52.312 657.206 52.312Z" fill="white"/>
</g>
<path d="M80.776 77.636L79.732 79.022C79.39 78.518 78.706 77.708 78.094 77.006V84.404H76.474V77.42C75.736 78.14 74.944 78.77 74.188 79.256C74.062 78.806 73.702 77.924 73.486 77.6C75.376 76.502 77.284 74.54 78.436 72.452H73.99V70.94H77.392C77.068 70.274 76.384 69.266 75.772 68.582L77.068 67.844C77.734 68.546 78.454 69.5 78.76 70.148L77.464 70.94H79.318L79.606 70.868L80.506 71.498C79.984 72.83 79.228 74.108 78.364 75.278C79.084 75.926 80.416 77.258 80.776 77.636ZM86.212 82.136H90.244V83.774H79.966V82.136H84.502V74.99H80.776V73.388H84.502V67.916H86.212V73.388H89.848V74.99H86.212V82.136ZM103.492 79.562H96.598V80.552H103.492V79.562ZM96.598 82.712H103.492V81.704H96.598V82.712ZM94.942 84.404V78.41H105.202V84.332H103.492V83.846H96.598V84.404H94.942ZM94.294 73.01H106.012C105.04 72.668 104.05 72.254 103.132 71.732V72.254H96.904V71.822C96.076 72.29 95.194 72.668 94.294 73.01ZM104.608 76.592V74.108H100.612V76.592H102.628L101.512 76.25C101.836 75.674 102.214 74.756 102.412 74.144L103.816 74.54C103.42 75.314 103.024 76.07 102.7 76.592H104.608ZM96.22 74.576L97.39 74.216C97.786 74.828 98.182 75.656 98.308 76.196L97.12 76.592H99.244V74.108H95.338V76.592H97.066C96.94 76.034 96.598 75.206 96.22 74.576ZM98.128 71.102H102.07C101.332 70.652 100.666 70.13 100.09 69.59C99.514 70.13 98.83 70.652 98.128 71.102ZM99.766 67.808L101.242 68.33C101.152 68.438 101.08 68.564 100.972 68.672C102.646 70.22 105.688 71.588 108.496 72.182C108.154 72.47 107.686 73.064 107.434 73.46C107.002 73.334 106.534 73.19 106.084 73.028V77.69H93.916V73.154C93.466 73.316 93.034 73.46 92.584 73.586C92.44 73.28 91.972 72.596 91.684 72.308C94.942 71.48 98.128 69.914 99.766 67.808ZM124.102 71.21L122.77 71.912C122.554 71.66 122.302 71.39 121.978 71.084C113.95 71.426 113.05 71.408 112.384 71.624C112.312 71.336 112.078 70.598 111.916 70.238C112.24 70.184 112.636 70.022 113.05 69.788C113.536 69.572 115.048 68.726 116.128 67.772L117.604 68.528C116.83 69.086 116.002 69.608 115.174 70.076L120.628 69.914C120.142 69.518 119.638 69.14 119.152 68.816L120.394 68.204C121.654 69.05 123.292 70.31 124.102 71.21ZM122.374 79.472L123.742 80.138C121.474 82.532 117.37 83.81 112.816 84.44C112.69 84.044 112.366 83.45 112.042 83.09C116.38 82.604 120.394 81.524 122.374 79.472ZM120.34 77.69L121.618 78.32C119.728 79.904 116.614 81.056 113.752 81.704C113.572 81.362 113.212 80.84 112.888 80.516C115.624 79.994 118.72 78.986 120.34 77.69ZM118.414 75.998L119.62 76.61C118.126 77.744 115.822 78.734 113.878 79.292C113.662 78.986 113.302 78.554 112.96 78.266C114.796 77.816 117.172 76.934 118.414 75.998ZM125.956 75.044L124.696 75.602C124.606 75.35 124.462 75.098 124.3 74.792C122.464 74.936 121.438 75.008 120.808 75.08C122.464 76.142 124.498 77.024 126.514 77.51C126.154 77.834 125.704 78.428 125.452 78.824C122.644 78.014 119.782 76.412 117.874 74.45C116.074 76.556 113.5 78.014 110.656 78.95C110.476 78.626 110.026 77.96 109.72 77.636C111.754 77.078 113.626 76.232 115.102 75.08L115.048 74.954C111.934 75.134 111.394 75.206 111.07 75.332C110.98 75.026 110.728 74.342 110.548 73.982C110.764 73.928 111.016 73.766 111.214 73.532C111.448 73.316 112.168 72.452 112.618 71.57L114.112 72.2C113.716 72.758 113.266 73.334 112.78 73.82L114.49 73.748C114.328 73.478 114.184 73.244 114.022 73.01L115.21 72.632C115.516 73.1 115.876 73.658 116.128 74.18C116.668 73.604 117.154 72.992 117.514 72.326L119.044 72.776C118.954 72.956 118.846 73.136 118.738 73.316C118.954 73.55 119.188 73.802 119.458 74.036L119.404 73.91C119.602 73.856 119.818 73.712 119.98 73.478C120.16 73.28 120.754 72.47 121.042 71.642L122.536 72.254C122.248 72.758 121.87 73.28 121.492 73.748L123.508 73.64C123.31 73.352 123.076 73.082 122.86 72.83L124.048 72.326C124.804 73.136 125.614 74.252 125.956 75.044ZM136.756 77.222V73.874H133.966V68.042H135.406V69.518H138.286V70.904H135.406V72.56H137.602V72.578H138.16V77.204C138.16 77.834 138.034 78.122 137.62 78.302C137.17 78.5 136.54 78.5 135.658 78.5C135.604 78.158 135.424 77.726 135.262 77.42C135.838 77.438 136.36 77.438 136.522 77.42C136.702 77.42 136.756 77.366 136.756 77.222ZM134.398 74.522L135.694 74.72C135.514 75.944 135.172 77.15 134.668 77.96C134.416 77.78 133.876 77.42 133.57 77.276C134.074 76.538 134.29 75.548 134.398 74.522ZM133.03 80.354L134.416 81.416C132.922 82.478 130.744 83.648 128.998 84.386C128.8 84.044 128.35 83.468 128.044 83.126C129.736 82.478 131.914 81.29 133.03 80.354ZM143.686 83.072L142.588 84.332C141.418 83.504 139.438 82.334 137.584 81.452L138.52 80.264C140.392 81.146 142.444 82.262 143.686 83.072ZM144.136 78.716V80.264H127.9V78.716H129.61L129.286 69.338C130.42 68.978 131.752 68.438 132.634 68.006L133.408 69.356C132.616 69.68 131.698 69.95 130.834 70.202L130.888 72.128H133.12V73.514H130.942L131.014 75.404H133.192V76.808H131.05L131.122 78.716H140.914C140.95 78.158 140.986 77.528 141.022 76.862H138.898V75.476H141.094C141.112 74.846 141.13 74.198 141.148 73.55H139.024V72.164H141.184C141.202 71.516 141.22 70.85 141.22 70.22H138.844V68.762H142.75C142.732 71.93 142.642 76.052 142.48 78.716H144.136ZM161.11 68.06V75.872C161.11 76.718 160.948 77.132 160.354 77.384C159.778 77.618 158.896 77.654 157.618 77.654C157.546 77.222 157.33 76.556 157.114 76.142C158.032 76.178 158.914 76.178 159.166 76.16C159.454 76.16 159.526 76.088 159.526 75.854V68.06H161.11ZM157.762 68.942V74.936H156.232V68.942H157.762ZM149.932 72.272H151.84V70.076H149.932V72.272ZM154.918 82.262H162.046V83.81H145.954V82.262H153.19V80.354H147.79V78.824H153.19V77.42H151.84V73.766H149.824C149.572 75.278 148.87 76.826 147.07 77.87C146.854 77.564 146.278 76.934 145.972 76.7C147.43 75.872 148.006 74.828 148.24 73.766H146.206V72.272H148.384V70.076H146.818V68.6H154.882V70.076H153.406V72.272H155.278V73.766H153.406V77.096H154.918V78.824H160.21V80.354H154.918V82.262ZM177.976 73.298H175.078C173.44 73.298 173.026 72.74 173.026 71.246V68.024H174.574V69.248H178.876V70.526H174.574V71.264C174.574 71.786 174.664 71.966 175.15 71.966H177.904C178.336 71.966 179.038 71.93 179.38 71.84C179.416 72.272 179.47 72.83 179.524 73.19C179.236 73.28 178.552 73.298 177.976 73.298ZM177.958 79.382H175.258C173.458 79.382 173.026 78.986 173.026 77.528V73.838H174.574V75.134H178.894V76.43H174.574V77.51C174.574 77.978 174.7 78.032 175.42 78.032H177.796C178.318 78.032 178.444 77.888 178.516 76.952C178.84 77.168 179.452 77.402 179.884 77.492C179.704 79.004 179.272 79.382 177.958 79.382ZM166.51 74.846L167.14 74.072C168.004 74.378 169.156 74.828 169.804 75.152L169.156 76.052C168.562 75.728 167.392 75.206 166.51 74.846ZM166.438 73.712V75.314C166.438 75.8 166.42 76.34 166.348 76.88C167.284 76.664 168.544 76.304 169.894 75.944V73.712H166.438ZM171.334 72.506V78.158C171.334 78.824 171.208 79.112 170.74 79.328C170.29 79.526 169.588 79.526 168.598 79.526C168.526 79.166 168.31 78.716 168.166 78.392C168.814 78.41 169.444 78.41 169.624 78.392C169.822 78.392 169.894 78.338 169.894 78.158V76.934C168.778 77.33 167.698 77.762 166.726 78.104L166.312 77.132C166.15 78.068 165.862 79.022 165.232 79.76C164.98 79.49 164.368 79.004 164.044 78.86C164.944 77.816 165.034 76.43 165.034 75.278V72.506H171.334ZM173.854 81.218L172.648 82.046C172.252 81.488 171.496 80.534 170.884 79.85L172.036 79.112C172.648 79.778 173.44 80.678 173.854 81.218ZM172.468 71.624L171.262 72.29C171.118 72.056 170.938 71.75 170.722 71.408C165.556 71.876 164.89 71.966 164.476 72.128C164.386 71.84 164.17 71.156 163.99 70.76C164.278 70.724 164.584 70.526 164.944 70.256C165.304 69.986 166.456 68.942 167.23 67.844L168.742 68.33C168.076 69.14 167.266 69.914 166.492 70.544L169.894 70.292C169.606 69.95 169.318 69.59 169.03 69.284L170.182 68.672C170.992 69.572 172 70.832 172.468 71.624ZM165.43 83.918L163.972 83.18C164.584 82.352 165.106 81.02 165.376 79.976L166.816 80.516C166.474 81.632 166.024 83.018 165.43 83.918ZM170.722 82.784H174.07C174.898 82.784 175.042 82.55 175.132 80.948C175.492 81.2 176.14 81.416 176.554 81.506C176.374 83.63 175.906 84.134 174.214 84.134H170.596C168.454 84.134 167.896 83.738 167.896 82.28V80.228H169.516V82.262C169.516 82.712 169.696 82.784 170.722 82.784ZM176.932 80.336L178.372 79.922C178.876 80.93 179.524 82.316 179.776 83.126L178.246 83.648C177.994 82.802 177.418 81.398 176.932 80.336Z" fill="black"/>
<path d="M82.2957 116.704V115.626H79.9157V116.704H82.2957ZM83.5277 114.786V117.53H78.7397V114.786H83.5277ZM76.5137 116.704V115.626H74.1757V116.704H76.5137ZM77.7597 114.786V117.53H73.0137V114.786H77.7597ZM74.7077 122.15H77.5077V121.142H74.7077V122.15ZM74.7077 119.196V120.176H77.5077V119.196H74.7077ZM81.8197 120.176V119.196H78.8377V120.176H81.8197ZM81.8197 122.15V121.142H78.8377V122.15H81.8197ZM84.4097 124.096V125.23H78.8377V127.092H77.5077V125.23H72.0757V124.096H77.5077V123.186H73.4337V118.16H83.1497V123.186H78.8377V124.096H84.4097ZM95.0217 116.27L93.7337 116.634C93.6357 116.046 93.3557 115.122 93.0897 114.422L94.3217 114.114C94.5877 114.8 94.8817 115.668 95.0217 116.27ZM98.0037 116.704V117.964H90.3737V116.704H98.0037ZM93.4257 124.376L92.1377 124.754C92.0257 123.298 91.6477 120.806 91.2557 118.902L92.4177 118.636C92.8517 120.526 93.2857 122.962 93.4257 124.376ZM89.0997 114.31L90.3317 114.688C89.9677 115.668 89.4917 116.648 88.9737 117.586V127.078H87.6577V119.63C87.2937 120.148 86.9017 120.61 86.5097 121.016C86.3837 120.708 86.0057 120.008 85.7817 119.7C87.1117 118.398 88.3577 116.354 89.0997 114.31ZM95.8757 125.286H98.5217V126.532H89.8137V125.286H94.6717C95.1757 123.438 95.6937 120.61 95.9317 118.552L97.2897 118.776C96.9117 120.89 96.3797 123.494 95.8757 125.286ZM104.452 120.68C103.85 120.68 103.374 120.204 103.374 119.56C103.374 118.902 103.85 118.412 104.452 118.412C105.054 118.412 105.53 118.902 105.53 119.56C105.53 120.204 105.054 120.68 104.452 120.68ZM104.452 126.182C103.85 126.182 103.374 125.72 103.374 125.062C103.374 124.39 103.85 123.914 104.452 123.914C105.054 123.914 105.53 124.39 105.53 125.062C105.53 125.72 105.054 126.182 104.452 126.182ZM116.723 115.682V116.76H110.563V115.682H113.125C112.971 115.29 112.789 114.842 112.621 114.492L113.909 114.156C114.147 114.632 114.427 115.22 114.609 115.682H116.723ZM111.543 122.878L112.565 123.186C112.215 124.166 111.655 125.286 111.151 126C110.941 125.832 110.521 125.524 110.255 125.384C110.773 124.726 111.249 123.774 111.543 122.878ZM116.751 122.276H114.371V127.022H113.111V122.276H110.423V121.17H113.111V119.896H110.339V118.804H111.865C111.809 118.328 111.613 117.6 111.375 117.054L112.439 116.788C112.663 117.334 112.887 118.048 112.957 118.51L111.921 118.804H114.133C114.385 118.216 114.679 117.362 114.819 116.774L116.023 117.026C115.785 117.642 115.547 118.286 115.309 118.804H116.947V119.896H114.371V121.17H116.751V122.276ZM114.861 123.242L115.729 122.766C116.191 123.424 116.667 124.306 116.891 124.866L115.981 125.412C115.757 124.824 115.281 123.914 114.861 123.242ZM123.093 118.902V120.106H121.665V127.036H120.391V120.106H118.753V120.442C118.753 122.458 118.571 125.258 117.325 127.036C117.129 126.798 116.597 126.406 116.331 126.266C117.437 124.642 117.535 122.276 117.535 120.442V115.598C119.089 115.332 120.811 114.898 121.819 114.464L122.841 115.416C121.693 115.864 120.181 116.2 118.753 116.452V118.902H123.093ZM132.193 122.472H129.841C129.435 122.738 129.001 122.962 128.595 123.158L133.005 123.088C132.697 122.892 132.375 122.71 132.081 122.556L132.193 122.472ZM131.297 125.272V125.888H136.771V126.798H124.619V125.888H129.981V125.272H125.977V124.46H129.981V123.9C127.419 123.97 127.013 124.012 126.733 124.096C126.677 123.9 126.551 123.452 126.439 123.214C126.663 123.186 126.915 123.13 127.195 123.032C127.391 122.962 127.867 122.752 128.371 122.472H126.201V121.716H135.063V122.472H133.733C134.433 122.878 135.091 123.368 135.525 123.718L134.741 124.362C134.559 124.194 134.335 124.012 134.055 123.802L131.297 123.872V124.46H135.525V125.272H131.297ZM124.801 122.374V120.358H136.575V122.374H135.343V121.212H125.977V122.374H124.801ZM133.929 119.154V118.482H127.433V119.154H133.929ZM126.229 117.796H135.203V119.854H126.229V117.796ZM131.297 115.024H136.799V115.878H131.297V116.48H135.721V117.278H125.655V116.48H129.981V115.878H124.591V115.024H129.981V114.24H131.297V115.024ZM149.735 122.108V125.132C149.735 125.734 149.581 126.07 149.105 126.238C148.615 126.42 147.873 126.406 146.753 126.406C146.683 126.098 146.487 125.636 146.333 125.342C147.131 125.37 147.943 125.37 148.153 125.356C148.377 125.342 148.447 125.3 148.447 125.118V123.2H145.283V127.092H143.995V123.2H141.083V126.434H139.823V122.108H143.995V121.282H145.283V122.108H149.735ZM140.481 117.768L141.181 117.922C141.055 118.748 140.831 119.644 140.565 120.232C140.439 120.134 140.131 119.98 139.949 119.91C140.229 119.308 140.383 118.538 140.481 117.768ZM142.567 117.936L143.169 117.768C143.435 118.468 143.673 119.406 143.729 119.994L143.099 120.19C143.043 119.588 142.833 118.65 142.567 117.936ZM143.925 114.506L144.989 114.898C144.583 115.486 144.163 116.116 143.827 116.508L143.043 116.172C143.351 115.71 143.729 114.996 143.925 114.506ZM148.993 116.648H146.935C147.201 117.292 147.551 117.88 147.999 118.412C148.419 117.908 148.769 117.334 148.993 116.648ZM150.967 116.648H150.197C149.889 117.67 149.413 118.51 148.783 119.21C149.441 119.798 150.239 120.26 151.149 120.526C150.897 120.75 150.589 121.156 150.435 121.45C149.511 121.1 148.699 120.582 148.013 119.938C147.341 120.484 146.543 120.918 145.633 121.254C145.521 121.016 145.199 120.498 144.989 120.274C145.871 119.994 146.627 119.616 147.257 119.112C146.865 118.608 146.529 118.048 146.249 117.432C146.011 117.698 145.787 117.936 145.535 118.16C145.409 117.992 145.115 117.67 144.863 117.46V121.058H143.883V117.32H142.329V121.268H141.475V117.32H139.907V121.408H138.955V116.508H139.837C139.669 116.088 139.319 115.43 138.969 114.94L139.879 114.548C140.257 115.01 140.649 115.64 140.803 116.074L139.865 116.508H141.321V114.268H142.469V116.508H144.863V117.236C145.703 116.508 146.347 115.43 146.683 114.254L147.775 114.492C147.649 114.884 147.509 115.276 147.355 115.64H150.967V116.648ZM158.143 128.786C156.841 126.658 156.071 124.404 156.071 121.618C156.071 118.86 156.841 116.578 158.143 114.464L159.151 114.898C157.947 116.914 157.387 119.28 157.387 121.618C157.387 123.97 157.947 126.336 159.151 128.338L158.143 128.786ZM171.758 115.29V116.55H161.902V115.29H171.758ZM169.756 125.636H171.338C171.856 125.636 171.94 125.272 171.996 123.2C172.304 123.438 172.864 123.662 173.214 123.76C173.074 126.182 172.738 126.868 171.436 126.868H169.574C168.188 126.868 167.824 126.434 167.824 125.062V120.386H165.43C165.178 123.34 164.548 125.762 161.258 127.078C161.118 126.742 160.74 126.28 160.446 126.028C163.372 124.936 163.848 122.85 164.044 120.386H160.67V119.126H172.976V120.386H169.168V125.048C169.168 125.552 169.252 125.636 169.756 125.636ZM175.454 128.786L174.446 128.338C175.65 126.336 176.21 123.97 176.21 121.618C176.21 119.28 175.65 116.914 174.446 114.898L175.454 114.464C176.77 116.578 177.54 118.86 177.54 121.618C177.54 124.404 176.77 126.658 175.454 128.786Z" fill="#4F4F4F"/>
</g>
<defs>
<linearGradient id="paint0_linear_425_60322" x1="78.0003" y1="168" x2="78.0004" y2="178" gradientUnits="userSpaceOnUse">
<stop stop-color="#FF9E45"/>
<stop offset="1" stop-color="#FF7A00"/>
</linearGradient>
<linearGradient id="paint1_linear_425_60322" x1="78.0003" y1="205" x2="78.0004" y2="215" gradientUnits="userSpaceOnUse">
<stop stop-color="#6FC7E2"/>
<stop offset="1" stop-color="#00AED4"/>
</linearGradient>
<linearGradient id="paint2_linear_425_60322" x1="77.5004" y1="241" x2="77.5004" y2="251" gradientUnits="userSpaceOnUse">
<stop stop-color="#C2C559"/>
<stop offset="1" stop-color="#A7AC39"/>
</linearGradient>
<linearGradient id="paint3_linear_425_60322" x1="601" y1="18" x2="601" y2="348" gradientUnits="userSpaceOnUse">
<stop stop-color="#FF9E45"/>
<stop offset="1" stop-color="#FF7A00"/>
</linearGradient>
<linearGradient id="paint4_linear_425_60322" x1="600" y1="-8.08661e-06" x2="600" y2="370" gradientUnits="userSpaceOnUse">
<stop stop-color="#C2C559"/>
<stop offset="1" stop-color="#A7AC39"/>
</linearGradient>
<linearGradient id="paint5_linear_425_60322" x1="600" y1="2.2431e-05" x2="600" y2="370" gradientUnits="userSpaceOnUse">
<stop stop-color="#6FC7E2"/>
<stop offset="1" stop-color="#00AED4"/>
</linearGradient>
<clipPath id="clip0_425_60322">
<rect width="876" height="371" fill="white"/>
</clipPath>
<clipPath id="clip1_425_60322">
<rect width="370" height="370" fill="white" transform="translate(415)"/>
</clipPath>
</defs>
</svg>
