<svg width="1200" height="423" viewBox="0 0 1200 423" fill="none" xmlns="http://www.w3.org/2000/svg">
<path d="M1200 0H0V375H1200V0Z" fill="white"/>
<path d="M0 339H240V375H0V339Z" fill="white"/>
<path d="M0 340H240V338H0V340Z" fill="#D1D1D1"/>
<path d="M102.954 364V363.136C104.181 362.059 105.189 361.077 105.978 360.192C106.778 359.307 107.37 358.485 107.754 357.728C108.138 356.96 108.33 356.24 108.33 355.568C108.33 355.12 108.25 354.72 108.09 354.368C107.941 354.016 107.706 353.744 107.386 353.552C107.066 353.349 106.661 353.248 106.17 353.248C105.69 353.248 105.242 353.376 104.826 353.632C104.421 353.888 104.058 354.213 103.738 354.608L102.89 353.776C103.359 353.253 103.866 352.837 104.41 352.528C104.954 352.219 105.599 352.064 106.346 352.064C107.05 352.064 107.653 352.208 108.154 352.496C108.666 352.773 109.061 353.173 109.338 353.696C109.626 354.208 109.77 354.811 109.77 355.504C109.77 356.283 109.573 357.072 109.178 357.872C108.794 358.672 108.255 359.488 107.562 360.32C106.879 361.141 106.079 361.984 105.162 362.848C105.471 362.827 105.791 362.805 106.122 362.784C106.463 362.752 106.783 362.736 107.082 362.736H110.33V364H102.954ZM115.573 364.208C114.837 364.208 114.192 363.984 113.637 363.536C113.093 363.088 112.672 362.411 112.373 361.504C112.074 360.597 111.925 359.461 111.925 358.096C111.925 356.731 112.074 355.605 112.373 354.72C112.672 353.824 113.093 353.157 113.637 352.72C114.192 352.283 114.837 352.064 115.573 352.064C116.32 352.064 116.965 352.288 117.509 352.736C118.053 353.173 118.474 353.835 118.773 354.72C119.072 355.605 119.221 356.731 119.221 358.096C119.221 359.461 119.072 360.597 118.773 361.504C118.474 362.411 118.053 363.088 117.509 363.536C116.965 363.984 116.32 364.208 115.573 364.208ZM115.573 363.024C116.021 363.024 116.41 362.853 116.741 362.512C117.082 362.171 117.344 361.637 117.525 360.912C117.717 360.176 117.813 359.237 117.813 358.096C117.813 356.955 117.717 356.027 117.525 355.312C117.344 354.587 117.082 354.059 116.741 353.728C116.41 353.387 116.021 353.216 115.573 353.216C115.136 353.216 114.746 353.387 114.405 353.728C114.064 354.059 113.797 354.587 113.605 355.312C113.424 356.027 113.333 356.955 113.333 358.096C113.333 359.237 113.424 360.176 113.605 360.912C113.797 361.637 114.064 362.171 114.405 362.512C114.746 362.853 115.136 363.024 115.573 363.024ZM121.408 364V362.784H124.032V354.032H121.936V353.104C122.459 353.008 122.912 352.891 123.296 352.752C123.691 352.613 124.048 352.453 124.368 352.272H125.488V362.784H127.84V364H121.408ZM132.635 364.208C131.995 364.208 131.44 364.096 130.971 363.872C130.512 363.637 130.123 363.349 129.803 363.008L130.603 362.096C130.859 362.373 131.158 362.592 131.499 362.752C131.851 362.912 132.214 362.992 132.587 362.992C132.982 362.992 133.355 362.901 133.707 362.72C134.059 362.539 134.368 362.24 134.635 361.824C134.912 361.397 135.126 360.843 135.275 360.16C135.435 359.477 135.515 358.635 135.515 357.632C135.515 356.672 135.414 355.861 135.211 355.2C135.019 354.539 134.731 354.043 134.347 353.712C133.963 353.371 133.499 353.2 132.955 353.2C132.582 353.2 132.246 353.312 131.947 353.536C131.648 353.76 131.408 354.069 131.227 354.464C131.046 354.859 130.955 355.328 130.955 355.872C130.955 356.395 131.03 356.853 131.179 357.248C131.339 357.632 131.574 357.931 131.883 358.144C132.203 358.357 132.592 358.464 133.051 358.464C133.446 358.464 133.856 358.341 134.283 358.096C134.72 357.84 135.136 357.424 135.531 356.848L135.595 358.016C135.36 358.315 135.088 358.581 134.779 358.816C134.48 359.051 134.16 359.232 133.819 359.36C133.488 359.488 133.152 359.552 132.811 359.552C132.16 359.552 131.59 359.413 131.099 359.136C130.619 358.859 130.246 358.448 129.979 357.904C129.712 357.349 129.579 356.672 129.579 355.872C129.579 355.104 129.734 354.437 130.043 353.872C130.352 353.296 130.758 352.853 131.259 352.544C131.771 352.224 132.331 352.064 132.939 352.064C133.504 352.064 134.027 352.181 134.507 352.416C134.987 352.64 135.403 352.987 135.755 353.456C136.107 353.915 136.384 354.491 136.587 355.184C136.79 355.877 136.891 356.693 136.891 357.632C136.891 358.816 136.774 359.829 136.539 360.672C136.304 361.504 135.984 362.181 135.579 362.704C135.174 363.227 134.715 363.611 134.203 363.856C133.702 364.091 133.179 364.208 132.635 364.208Z" fill="#6D6D6D"/>
<path d="M240 339H480V375H240V339Z" fill="white"/>
<path d="M240 340H480V338H240V340Z" fill="#D1D1D1"/>
<path d="M342.954 364V363.136C344.181 362.059 345.189 361.077 345.978 360.192C346.778 359.307 347.37 358.485 347.754 357.728C348.138 356.96 348.33 356.24 348.33 355.568C348.33 355.12 348.25 354.72 348.09 354.368C347.941 354.016 347.706 353.744 347.386 353.552C347.066 353.349 346.661 353.248 346.17 353.248C345.69 353.248 345.242 353.376 344.826 353.632C344.421 353.888 344.058 354.213 343.738 354.608L342.89 353.776C343.359 353.253 343.866 352.837 344.41 352.528C344.954 352.219 345.599 352.064 346.346 352.064C347.05 352.064 347.653 352.208 348.154 352.496C348.666 352.773 349.061 353.173 349.338 353.696C349.626 354.208 349.77 354.811 349.77 355.504C349.77 356.283 349.573 357.072 349.178 357.872C348.794 358.672 348.255 359.488 347.562 360.32C346.879 361.141 346.079 361.984 345.162 362.848C345.471 362.827 345.791 362.805 346.122 362.784C346.463 362.752 346.783 362.736 347.082 362.736H350.33V364H342.954ZM355.573 364.208C354.837 364.208 354.192 363.984 353.637 363.536C353.093 363.088 352.672 362.411 352.373 361.504C352.074 360.597 351.925 359.461 351.925 358.096C351.925 356.731 352.074 355.605 352.373 354.72C352.672 353.824 353.093 353.157 353.637 352.72C354.192 352.283 354.837 352.064 355.573 352.064C356.32 352.064 356.965 352.288 357.509 352.736C358.053 353.173 358.474 353.835 358.773 354.72C359.072 355.605 359.221 356.731 359.221 358.096C359.221 359.461 359.072 360.597 358.773 361.504C358.474 362.411 358.053 363.088 357.509 363.536C356.965 363.984 356.32 364.208 355.573 364.208ZM355.573 363.024C356.021 363.024 356.41 362.853 356.741 362.512C357.082 362.171 357.344 361.637 357.525 360.912C357.717 360.176 357.813 359.237 357.813 358.096C357.813 356.955 357.717 356.027 357.525 355.312C357.344 354.587 357.082 354.059 356.741 353.728C356.41 353.387 356.021 353.216 355.573 353.216C355.136 353.216 354.746 353.387 354.405 353.728C354.064 354.059 353.797 354.587 353.605 355.312C353.424 356.027 353.333 356.955 353.333 358.096C353.333 359.237 353.424 360.176 353.605 360.912C353.797 361.637 354.064 362.171 354.405 362.512C354.746 362.853 355.136 363.024 355.573 363.024ZM360.704 364V363.136C361.931 362.059 362.939 361.077 363.728 360.192C364.528 359.307 365.12 358.485 365.504 357.728C365.888 356.96 366.08 356.24 366.08 355.568C366.08 355.12 366 354.72 365.84 354.368C365.691 354.016 365.456 353.744 365.136 353.552C364.816 353.349 364.411 353.248 363.92 353.248C363.44 353.248 362.992 353.376 362.576 353.632C362.171 353.888 361.808 354.213 361.488 354.608L360.64 353.776C361.109 353.253 361.616 352.837 362.16 352.528C362.704 352.219 363.349 352.064 364.096 352.064C364.8 352.064 365.403 352.208 365.904 352.496C366.416 352.773 366.811 353.173 367.088 353.696C367.376 354.208 367.52 354.811 367.52 355.504C367.52 356.283 367.323 357.072 366.928 357.872C366.544 358.672 366.005 359.488 365.312 360.32C364.629 361.141 363.829 361.984 362.912 362.848C363.221 362.827 363.541 362.805 363.872 362.784C364.213 362.752 364.533 362.736 364.832 362.736H368.08V364H360.704ZM373.323 364.208C372.587 364.208 371.942 363.984 371.387 363.536C370.843 363.088 370.422 362.411 370.123 361.504C369.824 360.597 369.675 359.461 369.675 358.096C369.675 356.731 369.824 355.605 370.123 354.72C370.422 353.824 370.843 353.157 371.387 352.72C371.942 352.283 372.587 352.064 373.323 352.064C374.07 352.064 374.715 352.288 375.259 352.736C375.803 353.173 376.224 353.835 376.523 354.72C376.822 355.605 376.971 356.731 376.971 358.096C376.971 359.461 376.822 360.597 376.523 361.504C376.224 362.411 375.803 363.088 375.259 363.536C374.715 363.984 374.07 364.208 373.323 364.208ZM373.323 363.024C373.771 363.024 374.16 362.853 374.491 362.512C374.832 362.171 375.094 361.637 375.275 360.912C375.467 360.176 375.563 359.237 375.563 358.096C375.563 356.955 375.467 356.027 375.275 355.312C375.094 354.587 374.832 354.059 374.491 353.728C374.16 353.387 373.771 353.216 373.323 353.216C372.886 353.216 372.496 353.387 372.155 353.728C371.814 354.059 371.547 354.587 371.355 355.312C371.174 356.027 371.083 356.955 371.083 358.096C371.083 359.237 371.174 360.176 371.355 360.912C371.547 361.637 371.814 362.171 372.155 362.512C372.496 362.853 372.886 363.024 373.323 363.024Z" fill="#6D6D6D"/>
<path d="M480 339H720V375H480V339Z" fill="white"/>
<path d="M480 340H720V338H480V340Z" fill="#D1D1D1"/>
<path d="M582.954 364V363.136C584.181 362.059 585.189 361.077 585.978 360.192C586.778 359.307 587.37 358.485 587.754 357.728C588.138 356.96 588.33 356.24 588.33 355.568C588.33 355.12 588.25 354.72 588.09 354.368C587.941 354.016 587.706 353.744 587.386 353.552C587.066 353.349 586.661 353.248 586.17 353.248C585.69 353.248 585.242 353.376 584.826 353.632C584.421 353.888 584.058 354.213 583.738 354.608L582.89 353.776C583.359 353.253 583.866 352.837 584.41 352.528C584.954 352.219 585.599 352.064 586.346 352.064C587.05 352.064 587.653 352.208 588.154 352.496C588.666 352.773 589.061 353.173 589.338 353.696C589.626 354.208 589.77 354.811 589.77 355.504C589.77 356.283 589.573 357.072 589.178 357.872C588.794 358.672 588.255 359.488 587.562 360.32C586.879 361.141 586.079 361.984 585.162 362.848C585.471 362.827 585.791 362.805 586.122 362.784C586.463 362.752 586.783 362.736 587.082 362.736H590.33V364H582.954ZM595.573 364.208C594.837 364.208 594.192 363.984 593.637 363.536C593.093 363.088 592.672 362.411 592.373 361.504C592.074 360.597 591.925 359.461 591.925 358.096C591.925 356.731 592.074 355.605 592.373 354.72C592.672 353.824 593.093 353.157 593.637 352.72C594.192 352.283 594.837 352.064 595.573 352.064C596.32 352.064 596.965 352.288 597.509 352.736C598.053 353.173 598.474 353.835 598.773 354.72C599.072 355.605 599.221 356.731 599.221 358.096C599.221 359.461 599.072 360.597 598.773 361.504C598.474 362.411 598.053 363.088 597.509 363.536C596.965 363.984 596.32 364.208 595.573 364.208ZM595.573 363.024C596.021 363.024 596.41 362.853 596.741 362.512C597.082 362.171 597.344 361.637 597.525 360.912C597.717 360.176 597.813 359.237 597.813 358.096C597.813 356.955 597.717 356.027 597.525 355.312C597.344 354.587 597.082 354.059 596.741 353.728C596.41 353.387 596.021 353.216 595.573 353.216C595.136 353.216 594.746 353.387 594.405 353.728C594.064 354.059 593.797 354.587 593.605 355.312C593.424 356.027 593.333 356.955 593.333 358.096C593.333 359.237 593.424 360.176 593.605 360.912C593.797 361.637 594.064 362.171 594.405 362.512C594.746 362.853 595.136 363.024 595.573 363.024ZM600.704 364V363.136C601.931 362.059 602.939 361.077 603.728 360.192C604.528 359.307 605.12 358.485 605.504 357.728C605.888 356.96 606.08 356.24 606.08 355.568C606.08 355.12 606 354.72 605.84 354.368C605.691 354.016 605.456 353.744 605.136 353.552C604.816 353.349 604.411 353.248 603.92 353.248C603.44 353.248 602.992 353.376 602.576 353.632C602.171 353.888 601.808 354.213 601.488 354.608L600.64 353.776C601.109 353.253 601.616 352.837 602.16 352.528C602.704 352.219 603.349 352.064 604.096 352.064C604.8 352.064 605.403 352.208 605.904 352.496C606.416 352.773 606.811 353.173 607.088 353.696C607.376 354.208 607.52 354.811 607.52 355.504C607.52 356.283 607.323 357.072 606.928 357.872C606.544 358.672 606.005 359.488 605.312 360.32C604.629 361.141 603.829 361.984 602.912 362.848C603.221 362.827 603.541 362.805 603.872 362.784C604.213 362.752 604.533 362.736 604.832 362.736H608.08V364H600.704ZM610.283 364V362.784H612.907V354.032H610.811V353.104C611.334 353.008 611.787 352.891 612.171 352.752C612.566 352.613 612.923 352.453 613.243 352.272H614.363V362.784H616.715V364H610.283Z" fill="#6D6D6D"/>
<path d="M720 339H960V375H720V339Z" fill="white"/>
<path d="M720 340H960V338H720V340Z" fill="#D1D1D1"/>
<path d="M822.954 364V363.136C824.181 362.059 825.189 361.077 825.978 360.192C826.778 359.307 827.37 358.485 827.754 357.728C828.138 356.96 828.33 356.24 828.33 355.568C828.33 355.12 828.25 354.72 828.09 354.368C827.941 354.016 827.706 353.744 827.386 353.552C827.066 353.349 826.661 353.248 826.17 353.248C825.69 353.248 825.242 353.376 824.826 353.632C824.421 353.888 824.058 354.213 823.738 354.608L822.89 353.776C823.359 353.253 823.866 352.837 824.41 352.528C824.954 352.219 825.599 352.064 826.346 352.064C827.05 352.064 827.653 352.208 828.154 352.496C828.666 352.773 829.061 353.173 829.338 353.696C829.626 354.208 829.77 354.811 829.77 355.504C829.77 356.283 829.573 357.072 829.178 357.872C828.794 358.672 828.255 359.488 827.562 360.32C826.879 361.141 826.079 361.984 825.162 362.848C825.471 362.827 825.791 362.805 826.122 362.784C826.463 362.752 826.783 362.736 827.082 362.736H830.33V364H822.954ZM835.573 364.208C834.837 364.208 834.192 363.984 833.637 363.536C833.093 363.088 832.672 362.411 832.373 361.504C832.074 360.597 831.925 359.461 831.925 358.096C831.925 356.731 832.074 355.605 832.373 354.72C832.672 353.824 833.093 353.157 833.637 352.72C834.192 352.283 834.837 352.064 835.573 352.064C836.32 352.064 836.965 352.288 837.509 352.736C838.053 353.173 838.474 353.835 838.773 354.72C839.072 355.605 839.221 356.731 839.221 358.096C839.221 359.461 839.072 360.597 838.773 361.504C838.474 362.411 838.053 363.088 837.509 363.536C836.965 363.984 836.32 364.208 835.573 364.208ZM835.573 363.024C836.021 363.024 836.41 362.853 836.741 362.512C837.082 362.171 837.344 361.637 837.525 360.912C837.717 360.176 837.813 359.237 837.813 358.096C837.813 356.955 837.717 356.027 837.525 355.312C837.344 354.587 837.082 354.059 836.741 353.728C836.41 353.387 836.021 353.216 835.573 353.216C835.136 353.216 834.746 353.387 834.405 353.728C834.064 354.059 833.797 354.587 833.605 355.312C833.424 356.027 833.333 356.955 833.333 358.096C833.333 359.237 833.424 360.176 833.605 360.912C833.797 361.637 834.064 362.171 834.405 362.512C834.746 362.853 835.136 363.024 835.573 363.024ZM840.704 364V363.136C841.931 362.059 842.939 361.077 843.728 360.192C844.528 359.307 845.12 358.485 845.504 357.728C845.888 356.96 846.08 356.24 846.08 355.568C846.08 355.12 846 354.72 845.84 354.368C845.691 354.016 845.456 353.744 845.136 353.552C844.816 353.349 844.411 353.248 843.92 353.248C843.44 353.248 842.992 353.376 842.576 353.632C842.171 353.888 841.808 354.213 841.488 354.608L840.64 353.776C841.109 353.253 841.616 352.837 842.16 352.528C842.704 352.219 843.349 352.064 844.096 352.064C844.8 352.064 845.403 352.208 845.904 352.496C846.416 352.773 846.811 353.173 847.088 353.696C847.376 354.208 847.52 354.811 847.52 355.504C847.52 356.283 847.323 357.072 846.928 357.872C846.544 358.672 846.005 359.488 845.312 360.32C844.629 361.141 843.829 361.984 842.912 362.848C843.221 362.827 843.541 362.805 843.872 362.784C844.213 362.752 844.533 362.736 844.832 362.736H848.08V364H840.704ZM849.579 364V363.136C850.806 362.059 851.814 361.077 852.603 360.192C853.403 359.307 853.995 358.485 854.379 357.728C854.763 356.96 854.955 356.24 854.955 355.568C854.955 355.12 854.875 354.72 854.715 354.368C854.566 354.016 854.331 353.744 854.011 353.552C853.691 353.349 853.286 353.248 852.795 353.248C852.315 353.248 851.867 353.376 851.451 353.632C851.046 353.888 850.683 354.213 850.363 354.608L849.515 353.776C849.984 353.253 850.491 352.837 851.035 352.528C851.579 352.219 852.224 352.064 852.971 352.064C853.675 352.064 854.278 352.208 854.779 352.496C855.291 352.773 855.686 353.173 855.963 353.696C856.251 354.208 856.395 354.811 856.395 355.504C856.395 356.283 856.198 357.072 855.803 357.872C855.419 358.672 854.88 359.488 854.187 360.32C853.504 361.141 852.704 361.984 851.787 362.848C852.096 362.827 852.416 362.805 852.747 362.784C853.088 362.752 853.408 362.736 853.707 362.736H856.955V364H849.579Z" fill="#6D6D6D"/>
<path d="M960 339H1200V375H960V339Z" fill="white"/>
<path d="M960 340H1200V338H960V340Z" fill="#D1D1D1"/>
<path d="M1062.95 364V363.136C1064.18 362.059 1065.19 361.077 1065.98 360.192C1066.78 359.307 1067.37 358.485 1067.75 357.728C1068.14 356.96 1068.33 356.24 1068.33 355.568C1068.33 355.12 1068.25 354.72 1068.09 354.368C1067.94 354.016 1067.71 353.744 1067.39 353.552C1067.07 353.349 1066.66 353.248 1066.17 353.248C1065.69 353.248 1065.24 353.376 1064.83 353.632C1064.42 353.888 1064.06 354.213 1063.74 354.608L1062.89 353.776C1063.36 353.253 1063.87 352.837 1064.41 352.528C1064.95 352.219 1065.6 352.064 1066.35 352.064C1067.05 352.064 1067.65 352.208 1068.15 352.496C1068.67 352.773 1069.06 353.173 1069.34 353.696C1069.63 354.208 1069.77 354.811 1069.77 355.504C1069.77 356.283 1069.57 357.072 1069.18 357.872C1068.79 358.672 1068.26 359.488 1067.56 360.32C1066.88 361.141 1066.08 361.984 1065.16 362.848C1065.47 362.827 1065.79 362.805 1066.12 362.784C1066.46 362.752 1066.78 362.736 1067.08 362.736H1070.33V364H1062.95ZM1075.57 364.208C1074.84 364.208 1074.19 363.984 1073.64 363.536C1073.09 363.088 1072.67 362.411 1072.37 361.504C1072.07 360.597 1071.93 359.461 1071.93 358.096C1071.93 356.731 1072.07 355.605 1072.37 354.72C1072.67 353.824 1073.09 353.157 1073.64 352.72C1074.19 352.283 1074.84 352.064 1075.57 352.064C1076.32 352.064 1076.97 352.288 1077.51 352.736C1078.05 353.173 1078.47 353.835 1078.77 354.72C1079.07 355.605 1079.22 356.731 1079.22 358.096C1079.22 359.461 1079.07 360.597 1078.77 361.504C1078.47 362.411 1078.05 363.088 1077.51 363.536C1076.97 363.984 1076.32 364.208 1075.57 364.208ZM1075.57 363.024C1076.02 363.024 1076.41 362.853 1076.74 362.512C1077.08 362.171 1077.34 361.637 1077.53 360.912C1077.72 360.176 1077.81 359.237 1077.81 358.096C1077.81 356.955 1077.72 356.027 1077.53 355.312C1077.34 354.587 1077.08 354.059 1076.74 353.728C1076.41 353.387 1076.02 353.216 1075.57 353.216C1075.14 353.216 1074.75 353.387 1074.41 353.728C1074.06 354.059 1073.8 354.587 1073.61 355.312C1073.42 356.027 1073.33 356.955 1073.33 358.096C1073.33 359.237 1073.42 360.176 1073.61 360.912C1073.8 361.637 1074.06 362.171 1074.41 362.512C1074.75 362.853 1075.14 363.024 1075.57 363.024ZM1080.7 364V363.136C1081.93 362.059 1082.94 361.077 1083.73 360.192C1084.53 359.307 1085.12 358.485 1085.5 357.728C1085.89 356.96 1086.08 356.24 1086.08 355.568C1086.08 355.12 1086 354.72 1085.84 354.368C1085.69 354.016 1085.46 353.744 1085.14 353.552C1084.82 353.349 1084.41 353.248 1083.92 353.248C1083.44 353.248 1082.99 353.376 1082.58 353.632C1082.17 353.888 1081.81 354.213 1081.49 354.608L1080.64 353.776C1081.11 353.253 1081.62 352.837 1082.16 352.528C1082.7 352.219 1083.35 352.064 1084.1 352.064C1084.8 352.064 1085.4 352.208 1085.9 352.496C1086.42 352.773 1086.81 353.173 1087.09 353.696C1087.38 354.208 1087.52 354.811 1087.52 355.504C1087.52 356.283 1087.32 357.072 1086.93 357.872C1086.54 358.672 1086.01 359.488 1085.31 360.32C1084.63 361.141 1083.83 361.984 1082.91 362.848C1083.22 362.827 1083.54 362.805 1083.87 362.784C1084.21 362.752 1084.53 362.736 1084.83 362.736H1088.08V364H1080.7ZM1093.08 364.208C1092.48 364.208 1091.94 364.133 1091.47 363.984C1091.01 363.835 1090.6 363.637 1090.25 363.392C1089.9 363.147 1089.6 362.88 1089.34 362.592L1090.09 361.648C1090.43 362 1090.83 362.315 1091.29 362.592C1091.76 362.859 1092.33 362.992 1092.99 362.992C1093.46 362.992 1093.87 362.907 1094.22 362.736C1094.58 362.555 1094.86 362.304 1095.07 361.984C1095.27 361.653 1095.37 361.264 1095.37 360.816C1095.37 360.347 1095.25 359.936 1095.02 359.584C1094.8 359.232 1094.42 358.96 1093.88 358.768C1093.35 358.565 1092.63 358.464 1091.72 358.464V357.344C1092.53 357.344 1093.17 357.248 1093.64 357.056C1094.11 356.853 1094.45 356.581 1094.65 356.24C1094.86 355.899 1094.97 355.52 1094.97 355.104C1094.97 354.539 1094.8 354.091 1094.44 353.76C1094.09 353.419 1093.61 353.248 1092.99 353.248C1092.52 353.248 1092.08 353.355 1091.66 353.568C1091.25 353.781 1090.89 354.053 1090.56 354.384L1089.77 353.456C1090.22 353.051 1090.7 352.72 1091.23 352.464C1091.76 352.197 1092.36 352.064 1093.04 352.064C1093.7 352.064 1094.28 352.181 1094.8 352.416C1095.32 352.64 1095.72 352.971 1096.01 353.408C1096.31 353.845 1096.46 354.373 1096.46 354.992C1096.46 355.707 1096.27 356.299 1095.88 356.768C1095.5 357.237 1095 357.584 1094.38 357.808V357.888C1094.84 357.995 1095.25 358.181 1095.63 358.448C1096 358.715 1096.3 359.051 1096.52 359.456C1096.75 359.861 1096.86 360.331 1096.86 360.864C1096.86 361.557 1096.69 362.155 1096.35 362.656C1096.01 363.157 1095.55 363.541 1094.99 363.808C1094.42 364.075 1093.79 364.208 1093.08 364.208Z" fill="#6D6D6D"/>
<path opacity="0.1" d="M360 203L120 213V339H1080V153L840 135L600 150L360 203Z" fill="url(#paint0_linear_1766_38583)"/>
<path fill-rule="evenodd" clip-rule="evenodd" d="M840.006 133.998L1080.07 152.003L1079.93 153.997L839.994 136.002L600.14 150.993L360.13 203.995L120.042 213.999L119.958 212.001L359.87 202.004L599.86 149.007L840.006 133.998Z" fill="#1DA637"/>
<path opacity="0.1" d="M360 233.318L120 223.301V340H1080V47L840 127.137L600 215.287L360 233.318Z" fill="url(#paint1_linear_1766_38583)"/>
<path fill-rule="evenodd" clip-rule="evenodd" d="M840.344 127.939L840.316 127.949L600.214 215.987L360.017 234.002L119.958 223.999L120.042 222.001L359.984 231.998L599.786 214.013L839.67 126.056L1079.68 46.0513L1080.32 47.9486L840.344 127.939Z" fill="#00AED4"/>
<path d="M120 227C122.209 227 124 225.209 124 223C124 220.791 122.209 219 120 219C117.791 219 116 220.791 116 223C116 225.209 117.791 227 120 227Z" fill="url(#paint2_linear_1766_38583)"/>
<path d="M110.704 256V247.36C110.704 247 110.716 246.574 110.74 246.082C110.764 245.578 110.782 245.146 110.794 244.786H110.722C110.554 245.122 110.38 245.464 110.2 245.812C110.032 246.16 109.852 246.502 109.66 246.838L107.068 250.816H114.322V252.436H104.962V251.05L110.236 242.734H112.648V256H110.704ZM119.691 256.252C119.007 256.252 118.395 256.168 117.855 256C117.315 255.832 116.841 255.61 116.433 255.334C116.025 255.058 115.665 254.77 115.353 254.47L116.343 253.12C116.595 253.372 116.871 253.606 117.171 253.822C117.471 254.026 117.807 254.194 118.179 254.326C118.563 254.458 118.989 254.524 119.457 254.524C119.949 254.524 120.393 254.416 120.789 254.2C121.185 253.972 121.497 253.648 121.725 253.228C121.953 252.796 122.067 252.286 122.067 251.698C122.067 250.834 121.833 250.162 121.365 249.682C120.909 249.202 120.303 248.962 119.547 248.962C119.127 248.962 118.767 249.022 118.467 249.142C118.167 249.262 117.825 249.448 117.441 249.7L116.415 249.034L116.811 242.734H123.525V244.498H118.611L118.305 247.882C118.593 247.738 118.881 247.63 119.169 247.558C119.457 247.474 119.775 247.432 120.123 247.432C120.867 247.432 121.545 247.582 122.157 247.882C122.769 248.182 123.255 248.644 123.615 249.268C123.975 249.88 124.155 250.672 124.155 251.644C124.155 252.616 123.945 253.45 123.525 254.146C123.105 254.83 122.553 255.352 121.869 255.712C121.197 256.072 120.471 256.252 119.691 256.252ZM129.525 256.252C128.757 256.252 128.091 256.114 127.527 255.838C126.975 255.55 126.507 255.214 126.123 254.83L127.257 253.534C127.521 253.834 127.845 254.074 128.229 254.254C128.613 254.434 129.009 254.524 129.417 254.524C129.837 254.524 130.233 254.428 130.605 254.236C130.989 254.044 131.319 253.732 131.595 253.3C131.883 252.868 132.105 252.292 132.261 251.572C132.429 250.852 132.513 249.97 132.513 248.926C132.513 247.822 132.405 246.916 132.189 246.208C131.973 245.488 131.667 244.96 131.271 244.624C130.887 244.276 130.425 244.102 129.885 244.102C129.501 244.102 129.153 244.216 128.841 244.444C128.529 244.66 128.283 244.972 128.103 245.38C127.923 245.788 127.833 246.28 127.833 246.856C127.833 247.42 127.911 247.9 128.067 248.296C128.235 248.692 128.481 248.998 128.805 249.214C129.129 249.418 129.519 249.52 129.975 249.52C130.395 249.52 130.827 249.388 131.271 249.124C131.715 248.86 132.135 248.428 132.531 247.828L132.621 249.358C132.369 249.694 132.075 249.988 131.739 250.24C131.403 250.492 131.055 250.69 130.695 250.834C130.335 250.966 129.975 251.032 129.615 251.032C128.883 251.032 128.235 250.876 127.671 250.564C127.119 250.252 126.681 249.79 126.357 249.178C126.045 248.554 125.889 247.78 125.889 246.856C125.889 245.98 126.069 245.218 126.429 244.57C126.801 243.91 127.287 243.4 127.887 243.04C128.487 242.68 129.141 242.5 129.849 242.5C130.485 242.5 131.079 242.632 131.631 242.896C132.195 243.148 132.681 243.538 133.089 244.066C133.509 244.594 133.839 245.26 134.079 246.064C134.319 246.868 134.439 247.822 134.439 248.926C134.439 250.222 134.307 251.338 134.043 252.274C133.779 253.198 133.413 253.954 132.945 254.542C132.477 255.118 131.949 255.55 131.361 255.838C130.773 256.114 130.161 256.252 129.525 256.252Z" fill="#00AED4"/>
<path d="M110.704 196V187.36C110.704 187 110.716 186.574 110.74 186.082C110.764 185.578 110.782 185.146 110.794 184.786H110.722C110.554 185.122 110.38 185.464 110.2 185.812C110.032 186.16 109.852 186.502 109.66 186.838L107.068 190.816H114.322V192.436H104.962V191.05L110.236 182.734H112.648V196H110.704ZM119.259 196.252C118.491 196.252 117.825 196.114 117.261 195.838C116.709 195.55 116.241 195.214 115.857 194.83L116.991 193.534C117.255 193.834 117.579 194.074 117.963 194.254C118.347 194.434 118.743 194.524 119.151 194.524C119.571 194.524 119.967 194.428 120.339 194.236C120.723 194.044 121.053 193.732 121.329 193.3C121.617 192.868 121.839 192.292 121.995 191.572C122.163 190.852 122.247 189.97 122.247 188.926C122.247 187.822 122.139 186.916 121.923 186.208C121.707 185.488 121.401 184.96 121.005 184.624C120.621 184.276 120.159 184.102 119.619 184.102C119.235 184.102 118.887 184.216 118.575 184.444C118.263 184.66 118.017 184.972 117.837 185.38C117.657 185.788 117.567 186.28 117.567 186.856C117.567 187.42 117.645 187.9 117.801 188.296C117.969 188.692 118.215 188.998 118.539 189.214C118.863 189.418 119.253 189.52 119.709 189.52C120.129 189.52 120.561 189.388 121.005 189.124C121.449 188.86 121.869 188.428 122.265 187.828L122.355 189.358C122.103 189.694 121.809 189.988 121.473 190.24C121.137 190.492 120.789 190.69 120.429 190.834C120.069 190.966 119.709 191.032 119.349 191.032C118.617 191.032 117.969 190.876 117.405 190.564C116.853 190.252 116.415 189.79 116.091 189.178C115.779 188.554 115.623 187.78 115.623 186.856C115.623 185.98 115.803 185.218 116.163 184.57C116.535 183.91 117.021 183.4 117.621 183.04C118.221 182.68 118.875 182.5 119.583 182.5C120.219 182.5 120.813 182.632 121.365 182.896C121.929 183.148 122.415 183.538 122.823 184.066C123.243 184.594 123.573 185.26 123.813 186.064C124.053 186.868 124.173 187.822 124.173 188.926C124.173 190.222 124.041 191.338 123.777 192.274C123.513 193.198 123.147 193.954 122.679 194.542C122.211 195.118 121.683 195.55 121.095 195.838C120.507 196.114 119.895 196.252 119.259 196.252ZM129.957 196.252C129.261 196.252 128.643 196.168 128.103 196C127.575 195.832 127.107 195.61 126.699 195.334C126.291 195.046 125.937 194.74 125.637 194.416L126.645 193.084C127.041 193.468 127.491 193.804 127.995 194.092C128.499 194.38 129.093 194.524 129.777 194.524C130.281 194.524 130.719 194.44 131.091 194.272C131.463 194.092 131.751 193.84 131.955 193.516C132.171 193.192 132.279 192.796 132.279 192.328C132.279 191.848 132.159 191.428 131.919 191.068C131.691 190.696 131.289 190.414 130.713 190.222C130.149 190.018 129.369 189.916 128.373 189.916V188.368C129.249 188.368 129.933 188.272 130.425 188.08C130.929 187.876 131.289 187.6 131.505 187.252C131.733 186.904 131.847 186.508 131.847 186.064C131.847 185.488 131.667 185.032 131.307 184.696C130.947 184.348 130.449 184.174 129.813 184.174C129.309 184.174 128.835 184.288 128.391 184.516C127.959 184.732 127.551 185.026 127.167 185.398L126.087 184.102C126.615 183.622 127.191 183.238 127.815 182.95C128.439 182.65 129.129 182.5 129.885 182.5C130.677 182.5 131.379 182.638 131.991 182.914C132.603 183.178 133.083 183.562 133.431 184.066C133.779 184.57 133.953 185.188 133.953 185.92C133.953 186.676 133.743 187.318 133.323 187.846C132.915 188.374 132.363 188.77 131.667 189.034V189.106C132.171 189.238 132.627 189.454 133.035 189.754C133.455 190.042 133.785 190.414 134.025 190.87C134.265 191.326 134.385 191.848 134.385 192.436C134.385 193.228 134.181 193.912 133.773 194.488C133.377 195.052 132.843 195.49 132.171 195.802C131.499 196.102 130.761 196.252 129.957 196.252Z" fill="#1DA637"/>
<path d="M124.907 213.093L119.907 208.093L114.907 213.093L119.907 218.093L124.907 213.093Z" fill="url(#paint3_linear_1766_38583)"/>
<path d="M349.426 186.252C348.742 186.252 348.13 186.168 347.59 186C347.05 185.832 346.576 185.61 346.168 185.334C345.76 185.058 345.4 184.77 345.088 184.47L346.078 183.12C346.33 183.372 346.606 183.606 346.906 183.822C347.206 184.026 347.542 184.194 347.914 184.326C348.298 184.458 348.724 184.524 349.192 184.524C349.684 184.524 350.128 184.416 350.524 184.2C350.92 183.972 351.232 183.648 351.46 183.228C351.688 182.796 351.802 182.286 351.802 181.698C351.802 180.834 351.568 180.162 351.1 179.682C350.644 179.202 350.038 178.962 349.282 178.962C348.862 178.962 348.502 179.022 348.202 179.142C347.902 179.262 347.56 179.448 347.176 179.7L346.15 179.034L346.546 172.734H353.26V174.498H348.346L348.04 177.882C348.328 177.738 348.616 177.63 348.904 177.558C349.192 177.474 349.51 177.432 349.858 177.432C350.602 177.432 351.28 177.582 351.892 177.882C352.504 178.182 352.99 178.644 353.35 179.268C353.71 179.88 353.89 180.672 353.89 181.644C353.89 182.616 353.68 183.45 353.26 184.146C352.84 184.83 352.288 185.352 351.604 185.712C350.932 186.072 350.206 186.252 349.426 186.252ZM356.397 186V184.29H359.313V175.074H356.937V173.76C357.561 173.652 358.101 173.514 358.557 173.346C359.025 173.178 359.451 172.974 359.835 172.734H361.401V184.29H363.975V186H356.397ZM371.235 186V177.36C371.235 177 371.247 176.574 371.271 176.082C371.295 175.578 371.313 175.146 371.325 174.786H371.253C371.085 175.122 370.911 175.464 370.731 175.812C370.563 176.16 370.383 176.502 370.191 176.838L367.599 180.816H374.853V182.436H365.493V181.05L370.767 172.734H373.179V186H371.235Z" fill="#1DA637"/>
<path d="M364.907 203.093L359.907 198.093L354.907 203.093L359.907 208.093L364.907 203.093Z" fill="url(#paint4_linear_1766_38583)"/>
<path d="M588.076 133C588.136 131.788 588.238 130.678 588.382 129.67C588.526 128.65 588.736 127.69 589.012 126.79C589.288 125.878 589.648 124.996 590.092 124.144C590.536 123.28 591.076 122.398 591.712 121.498H585.502V119.734H594.016V121.012C593.248 121.972 592.624 122.902 592.144 123.802C591.664 124.69 591.292 125.596 591.028 126.52C590.764 127.444 590.572 128.434 590.452 129.49C590.332 130.534 590.248 131.704 590.2 133H588.076ZM599.691 133.252C599.007 133.252 598.395 133.168 597.855 133C597.315 132.832 596.841 132.61 596.433 132.334C596.025 132.058 595.665 131.77 595.353 131.47L596.343 130.12C596.595 130.372 596.871 130.606 597.171 130.822C597.471 131.026 597.807 131.194 598.179 131.326C598.563 131.458 598.989 131.524 599.457 131.524C599.949 131.524 600.393 131.416 600.789 131.2C601.185 130.972 601.497 130.648 601.725 130.228C601.953 129.796 602.067 129.286 602.067 128.698C602.067 127.834 601.833 127.162 601.365 126.682C600.909 126.202 600.303 125.962 599.547 125.962C599.127 125.962 598.767 126.022 598.467 126.142C598.167 126.262 597.825 126.448 597.441 126.7L596.415 126.034L596.811 119.734H603.525V121.498H598.611L598.305 124.882C598.593 124.738 598.881 124.63 599.169 124.558C599.457 124.474 599.775 124.432 600.123 124.432C600.867 124.432 601.545 124.582 602.157 124.882C602.769 125.182 603.255 125.644 603.615 126.268C603.975 126.88 604.155 127.672 604.155 128.644C604.155 129.616 603.945 130.45 603.525 131.146C603.105 131.83 602.553 132.352 601.869 132.712C601.197 133.072 600.471 133.252 599.691 133.252ZM610.281 133.252C609.417 133.252 608.661 132.994 608.013 132.478C607.365 131.962 606.861 131.194 606.501 130.174C606.153 129.142 605.979 127.858 605.979 126.322C605.979 124.786 606.153 123.514 606.501 122.506C606.861 121.498 607.365 120.748 608.013 120.256C608.661 119.752 609.417 119.5 610.281 119.5C611.145 119.5 611.895 119.752 612.531 120.256C613.167 120.76 613.659 121.516 614.007 122.524C614.367 123.52 614.547 124.786 614.547 126.322C614.547 127.858 614.367 129.142 614.007 130.174C613.659 131.194 613.167 131.962 612.531 132.478C611.895 132.994 611.145 133.252 610.281 133.252ZM610.281 131.596C610.725 131.596 611.121 131.422 611.469 131.074C611.817 130.726 612.087 130.168 612.279 129.4C612.471 128.62 612.567 127.594 612.567 126.322C612.567 125.05 612.471 124.036 612.279 123.28C612.087 122.524 611.817 121.978 611.469 121.642C611.121 121.306 610.725 121.138 610.281 121.138C609.837 121.138 609.441 121.306 609.093 121.642C608.745 121.978 608.469 122.524 608.265 123.28C608.073 124.036 607.977 125.05 607.977 126.322C607.977 127.594 608.073 128.62 608.265 129.4C608.469 130.168 608.745 130.726 609.093 131.074C609.441 131.422 609.837 131.596 610.281 131.596Z" fill="#1DA637"/>
<path d="M604.907 150.093L599.907 145.093L594.907 150.093L599.907 155.093L604.907 150.093Z" fill="url(#paint5_linear_1766_38583)"/>
<path d="M844.907 135.093L839.907 130.093L834.907 135.093L839.907 140.093L844.907 135.093Z" fill="url(#paint6_linear_1766_38583)"/>
<path d="M828.076 168C828.136 166.788 828.238 165.678 828.382 164.67C828.526 163.65 828.736 162.69 829.012 161.79C829.288 160.878 829.648 159.996 830.092 159.144C830.536 158.28 831.076 157.398 831.712 156.498H825.502V154.734H834.016V156.012C833.248 156.972 832.624 157.902 832.144 158.802C831.664 159.69 831.292 160.596 831.028 161.52C830.764 162.444 830.572 163.434 830.452 164.49C830.332 165.534 830.248 166.704 830.2 168H828.076ZM840.015 168.252C839.187 168.252 838.449 168.102 837.801 167.802C837.153 167.49 836.637 167.07 836.253 166.542C835.881 166.002 835.695 165.39 835.695 164.706C835.695 164.118 835.809 163.596 836.037 163.14C836.265 162.684 836.559 162.294 836.919 161.97C837.279 161.634 837.657 161.358 838.053 161.142V161.052C837.573 160.704 837.159 160.278 836.811 159.774C836.463 159.258 836.289 158.652 836.289 157.956C836.289 157.272 836.451 156.672 836.775 156.156C837.111 155.64 837.561 155.244 838.125 154.968C838.701 154.68 839.355 154.536 840.087 154.536C840.855 154.536 841.515 154.686 842.067 154.986C842.619 155.286 843.045 155.7 843.345 156.228C843.657 156.744 843.813 157.35 843.813 158.046C843.813 158.49 843.723 158.91 843.543 159.306C843.363 159.702 843.141 160.062 842.877 160.386C842.625 160.698 842.355 160.956 842.067 161.16V161.25C842.475 161.466 842.847 161.736 843.183 162.06C843.519 162.372 843.789 162.75 843.993 163.194C844.197 163.638 844.299 164.16 844.299 164.76C844.299 165.408 844.119 165.996 843.759 166.524C843.411 167.052 842.913 167.472 842.265 167.784C841.629 168.096 840.879 168.252 840.015 168.252ZM840.897 160.638C841.281 160.266 841.569 159.876 841.761 159.468C841.965 159.048 842.067 158.61 842.067 158.154C842.067 157.758 841.989 157.398 841.833 157.074C841.677 156.75 841.443 156.498 841.131 156.318C840.831 156.126 840.465 156.03 840.033 156.03C839.493 156.03 839.043 156.204 838.683 156.552C838.323 156.888 838.143 157.356 838.143 157.956C838.143 158.436 838.269 158.838 838.521 159.162C838.773 159.486 839.109 159.762 839.529 159.99C839.949 160.218 840.405 160.434 840.897 160.638ZM840.069 166.74C840.513 166.74 840.903 166.656 841.239 166.488C841.587 166.32 841.857 166.086 842.049 165.786C842.241 165.474 842.337 165.108 842.337 164.688C842.337 164.292 842.253 163.95 842.085 163.662C841.917 163.362 841.683 163.104 841.383 162.888C841.095 162.672 840.753 162.474 840.357 162.294C839.961 162.102 839.535 161.916 839.079 161.736C838.623 162.06 838.251 162.462 837.963 162.942C837.675 163.41 837.531 163.926 837.531 164.49C837.531 164.934 837.639 165.324 837.855 165.66C838.083 165.996 838.389 166.26 838.773 166.452C839.157 166.644 839.589 166.74 840.069 166.74ZM851.235 168V159.36C851.235 159 851.247 158.574 851.271 158.082C851.295 157.578 851.313 157.146 851.325 156.786H851.253C851.085 157.122 850.911 157.464 850.731 157.812C850.563 158.16 850.383 158.502 850.191 158.838L847.599 162.816H854.853V164.436H845.493V163.05L850.767 154.734H853.179V168H851.235Z" fill="#1DA637"/>
<path d="M1084.91 153.093L1079.91 148.093L1074.91 153.093L1079.91 158.093L1084.91 153.093Z" fill="url(#paint7_linear_1766_38583)"/>
<path d="M1068.08 186C1068.14 184.788 1068.24 183.678 1068.38 182.67C1068.53 181.65 1068.74 180.69 1069.01 179.79C1069.29 178.878 1069.65 177.996 1070.09 177.144C1070.54 176.28 1071.08 175.398 1071.71 174.498H1065.5V172.734H1074.02V174.012C1073.25 174.972 1072.62 175.902 1072.14 176.802C1071.66 177.69 1071.29 178.596 1071.03 179.52C1070.76 180.444 1070.57 181.434 1070.45 182.49C1070.33 183.534 1070.25 184.704 1070.2 186H1068.08ZM1079.69 186.252C1079.01 186.252 1078.4 186.168 1077.86 186C1077.32 185.832 1076.84 185.61 1076.43 185.334C1076.03 185.058 1075.67 184.77 1075.35 184.47L1076.34 183.12C1076.6 183.372 1076.87 183.606 1077.17 183.822C1077.47 184.026 1077.81 184.194 1078.18 184.326C1078.56 184.458 1078.99 184.524 1079.46 184.524C1079.95 184.524 1080.39 184.416 1080.79 184.2C1081.19 183.972 1081.5 183.648 1081.73 183.228C1081.95 182.796 1082.07 182.286 1082.07 181.698C1082.07 180.834 1081.83 180.162 1081.37 179.682C1080.91 179.202 1080.3 178.962 1079.55 178.962C1079.13 178.962 1078.77 179.022 1078.47 179.142C1078.17 179.262 1077.83 179.448 1077.44 179.7L1076.42 179.034L1076.81 172.734H1083.53V174.498H1078.61L1078.31 177.882C1078.59 177.738 1078.88 177.63 1079.17 177.558C1079.46 177.474 1079.78 177.432 1080.12 177.432C1080.87 177.432 1081.55 177.582 1082.16 177.882C1082.77 178.182 1083.26 178.644 1083.62 179.268C1083.98 179.88 1084.16 180.672 1084.16 181.644C1084.16 182.616 1083.95 183.45 1083.53 184.146C1083.11 184.83 1082.55 185.352 1081.87 185.712C1081.2 186.072 1080.47 186.252 1079.69 186.252ZM1090.28 186.252C1089.45 186.252 1088.71 186.102 1088.07 185.802C1087.42 185.49 1086.9 185.07 1086.52 184.542C1086.15 184.002 1085.96 183.39 1085.96 182.706C1085.96 182.118 1086.07 181.596 1086.3 181.14C1086.53 180.684 1086.82 180.294 1087.18 179.97C1087.54 179.634 1087.92 179.358 1088.32 179.142V179.052C1087.84 178.704 1087.42 178.278 1087.08 177.774C1086.73 177.258 1086.55 176.652 1086.55 175.956C1086.55 175.272 1086.72 174.672 1087.04 174.156C1087.38 173.64 1087.83 173.244 1088.39 172.968C1088.97 172.68 1089.62 172.536 1090.35 172.536C1091.12 172.536 1091.78 172.686 1092.33 172.986C1092.88 173.286 1093.31 173.7 1093.61 174.228C1093.92 174.744 1094.08 175.35 1094.08 176.046C1094.08 176.49 1093.99 176.91 1093.81 177.306C1093.63 177.702 1093.41 178.062 1093.14 178.386C1092.89 178.698 1092.62 178.956 1092.33 179.16V179.25C1092.74 179.466 1093.11 179.736 1093.45 180.06C1093.78 180.372 1094.05 180.75 1094.26 181.194C1094.46 181.638 1094.56 182.16 1094.56 182.76C1094.56 183.408 1094.38 183.996 1094.02 184.524C1093.68 185.052 1093.18 185.472 1092.53 185.784C1091.89 186.096 1091.14 186.252 1090.28 186.252ZM1091.16 178.638C1091.55 178.266 1091.83 177.876 1092.03 177.468C1092.23 177.048 1092.33 176.61 1092.33 176.154C1092.33 175.758 1092.25 175.398 1092.1 175.074C1091.94 174.75 1091.71 174.498 1091.4 174.318C1091.1 174.126 1090.73 174.03 1090.3 174.03C1089.76 174.03 1089.31 174.204 1088.95 174.552C1088.59 174.888 1088.41 175.356 1088.41 175.956C1088.41 176.436 1088.53 176.838 1088.79 177.162C1089.04 177.486 1089.37 177.762 1089.79 177.99C1090.21 178.218 1090.67 178.434 1091.16 178.638ZM1090.33 184.74C1090.78 184.74 1091.17 184.656 1091.5 184.488C1091.85 184.32 1092.12 184.086 1092.31 183.786C1092.51 183.474 1092.6 183.108 1092.6 182.688C1092.6 182.292 1092.52 181.95 1092.35 181.662C1092.18 181.362 1091.95 181.104 1091.65 180.888C1091.36 180.672 1091.02 180.474 1090.62 180.294C1090.23 180.102 1089.8 179.916 1089.34 179.736C1088.89 180.06 1088.52 180.462 1088.23 180.942C1087.94 181.41 1087.8 181.926 1087.8 182.49C1087.8 182.934 1087.9 183.324 1088.12 183.66C1088.35 183.996 1088.65 184.26 1089.04 184.452C1089.42 184.644 1089.85 184.74 1090.33 184.74Z" fill="#1DA637"/>
<path d="M360 237C362.209 237 364 235.209 364 233C364 230.791 362.209 229 360 229C357.791 229 356 230.791 356 233C356 235.209 357.791 237 360 237Z" fill="url(#paint8_linear_1766_38583)"/>
<path d="M350.704 266V257.36C350.704 257 350.716 256.574 350.74 256.082C350.764 255.578 350.782 255.146 350.794 254.786H350.722C350.554 255.122 350.38 255.464 350.2 255.812C350.032 256.16 349.852 256.502 349.66 256.838L347.068 260.816H354.322V262.436H344.962V261.05L350.236 252.734H352.648V266H350.704ZM359.691 266.252C358.995 266.252 358.377 266.168 357.837 266C357.309 265.832 356.841 265.61 356.433 265.334C356.025 265.046 355.671 264.74 355.371 264.416L356.379 263.084C356.775 263.468 357.225 263.804 357.729 264.092C358.233 264.38 358.827 264.524 359.511 264.524C360.015 264.524 360.453 264.44 360.825 264.272C361.197 264.092 361.485 263.84 361.689 263.516C361.905 263.192 362.013 262.796 362.013 262.328C362.013 261.848 361.893 261.428 361.653 261.068C361.425 260.696 361.023 260.414 360.447 260.222C359.883 260.018 359.103 259.916 358.107 259.916V258.368C358.983 258.368 359.667 258.272 360.159 258.08C360.663 257.876 361.023 257.6 361.239 257.252C361.467 256.904 361.581 256.508 361.581 256.064C361.581 255.488 361.401 255.032 361.041 254.696C360.681 254.348 360.183 254.174 359.547 254.174C359.043 254.174 358.569 254.288 358.125 254.516C357.693 254.732 357.285 255.026 356.901 255.398L355.821 254.102C356.349 253.622 356.925 253.238 357.549 252.95C358.173 252.65 358.863 252.5 359.619 252.5C360.411 252.5 361.113 252.638 361.725 252.914C362.337 253.178 362.817 253.562 363.165 254.066C363.513 254.57 363.687 255.188 363.687 255.92C363.687 256.676 363.477 257.318 363.057 257.846C362.649 258.374 362.097 258.77 361.401 259.034V259.106C361.905 259.238 362.361 259.454 362.769 259.754C363.189 260.042 363.519 260.414 363.759 260.87C363.999 261.326 364.119 261.848 364.119 262.436C364.119 263.228 363.915 263.912 363.507 264.488C363.111 265.052 362.577 265.49 361.905 265.802C361.233 266.102 360.495 266.252 359.691 266.252ZM370.281 266.252C369.453 266.252 368.715 266.102 368.067 265.802C367.419 265.49 366.903 265.07 366.519 264.542C366.147 264.002 365.961 263.39 365.961 262.706C365.961 262.118 366.075 261.596 366.303 261.14C366.531 260.684 366.825 260.294 367.185 259.97C367.545 259.634 367.923 259.358 368.319 259.142V259.052C367.839 258.704 367.425 258.278 367.077 257.774C366.729 257.258 366.555 256.652 366.555 255.956C366.555 255.272 366.717 254.672 367.041 254.156C367.377 253.64 367.827 253.244 368.391 252.968C368.967 252.68 369.621 252.536 370.353 252.536C371.121 252.536 371.781 252.686 372.333 252.986C372.885 253.286 373.311 253.7 373.611 254.228C373.923 254.744 374.079 255.35 374.079 256.046C374.079 256.49 373.989 256.91 373.809 257.306C373.629 257.702 373.407 258.062 373.143 258.386C372.891 258.698 372.621 258.956 372.333 259.16V259.25C372.741 259.466 373.113 259.736 373.449 260.06C373.785 260.372 374.055 260.75 374.259 261.194C374.463 261.638 374.565 262.16 374.565 262.76C374.565 263.408 374.385 263.996 374.025 264.524C373.677 265.052 373.179 265.472 372.531 265.784C371.895 266.096 371.145 266.252 370.281 266.252ZM371.163 258.638C371.547 258.266 371.835 257.876 372.027 257.468C372.231 257.048 372.333 256.61 372.333 256.154C372.333 255.758 372.255 255.398 372.099 255.074C371.943 254.75 371.709 254.498 371.397 254.318C371.097 254.126 370.731 254.03 370.299 254.03C369.759 254.03 369.309 254.204 368.949 254.552C368.589 254.888 368.409 255.356 368.409 255.956C368.409 256.436 368.535 256.838 368.787 257.162C369.039 257.486 369.375 257.762 369.795 257.99C370.215 258.218 370.671 258.434 371.163 258.638ZM370.335 264.74C370.779 264.74 371.169 264.656 371.505 264.488C371.853 264.32 372.123 264.086 372.315 263.786C372.507 263.474 372.603 263.108 372.603 262.688C372.603 262.292 372.519 261.95 372.351 261.662C372.183 261.362 371.949 261.104 371.649 260.888C371.361 260.672 371.019 260.474 370.623 260.294C370.227 260.102 369.801 259.916 369.345 259.736C368.889 260.06 368.517 260.462 368.229 260.942C367.941 261.41 367.797 261.926 367.797 262.49C367.797 262.934 367.905 263.324 368.121 263.66C368.349 263.996 368.655 264.26 369.039 264.452C369.423 264.644 369.855 264.74 370.335 264.74Z" fill="#00AED4"/>
<path d="M600 219C602.209 219 604 217.209 604 215C604 212.791 602.209 211 600 211C597.791 211 596 212.791 596 215C596 217.209 597.791 219 600 219Z" fill="url(#paint9_linear_1766_38583)"/>
<path d="M590.704 248V239.36C590.704 239 590.716 238.574 590.74 238.082C590.764 237.578 590.782 237.146 590.794 236.786H590.722C590.554 237.122 590.38 237.464 590.2 237.812C590.032 238.16 589.852 238.502 589.66 238.838L587.068 242.816H594.322V244.436H584.962V243.05L590.236 234.734H592.648V248H590.704ZM600.411 248.252C599.775 248.252 599.181 248.12 598.629 247.856C598.077 247.58 597.591 247.172 597.171 246.632C596.751 246.08 596.421 245.39 596.181 244.562C595.941 243.734 595.821 242.756 595.821 241.628C595.821 240.356 595.959 239.27 596.235 238.37C596.511 237.458 596.883 236.72 597.351 236.156C597.819 235.592 598.353 235.178 598.953 234.914C599.553 234.638 600.177 234.5 600.825 234.5C601.569 234.5 602.211 234.638 602.751 234.914C603.303 235.19 603.765 235.526 604.137 235.922L603.003 237.182C602.763 236.894 602.457 236.66 602.085 236.48C601.713 236.288 601.329 236.192 600.933 236.192C600.357 236.192 599.823 236.366 599.331 236.714C598.851 237.05 598.467 237.614 598.179 238.406C597.891 239.198 597.747 240.272 597.747 241.628C597.747 242.768 597.855 243.71 598.071 244.454C598.287 245.186 598.593 245.738 598.989 246.11C599.385 246.47 599.847 246.65 600.375 246.65C600.771 246.65 601.119 246.536 601.419 246.308C601.731 246.08 601.977 245.762 602.157 245.354C602.337 244.934 602.427 244.442 602.427 243.878C602.427 243.314 602.343 242.834 602.175 242.438C602.007 242.042 601.761 241.742 601.437 241.538C601.125 241.334 600.735 241.232 600.267 241.232C599.871 241.232 599.445 241.358 598.989 241.61C598.545 241.862 598.119 242.294 597.711 242.906L597.639 241.394C597.891 241.034 598.185 240.734 598.521 240.494C598.857 240.242 599.205 240.05 599.565 239.918C599.937 239.786 600.291 239.72 600.627 239.72C601.371 239.72 602.019 239.876 602.571 240.188C603.135 240.488 603.573 240.944 603.885 241.556C604.209 242.168 604.371 242.942 604.371 243.878C604.371 244.754 604.185 245.522 603.813 246.182C603.453 246.83 602.973 247.34 602.373 247.712C601.785 248.072 601.131 248.252 600.411 248.252ZM609.957 248.252C609.273 248.252 608.661 248.168 608.121 248C607.581 247.832 607.107 247.61 606.699 247.334C606.291 247.058 605.931 246.77 605.619 246.47L606.609 245.12C606.861 245.372 607.137 245.606 607.437 245.822C607.737 246.026 608.073 246.194 608.445 246.326C608.829 246.458 609.255 246.524 609.723 246.524C610.215 246.524 610.659 246.416 611.055 246.2C611.451 245.972 611.763 245.648 611.991 245.228C612.219 244.796 612.333 244.286 612.333 243.698C612.333 242.834 612.099 242.162 611.631 241.682C611.175 241.202 610.569 240.962 609.813 240.962C609.393 240.962 609.033 241.022 608.733 241.142C608.433 241.262 608.091 241.448 607.707 241.7L606.681 241.034L607.077 234.734H613.791V236.498H608.877L608.571 239.882C608.859 239.738 609.147 239.63 609.435 239.558C609.723 239.474 610.041 239.432 610.389 239.432C611.133 239.432 611.811 239.582 612.423 239.882C613.035 240.182 613.521 240.644 613.881 241.268C614.241 241.88 614.421 242.672 614.421 243.644C614.421 244.616 614.211 245.45 613.791 246.146C613.371 246.83 612.819 247.352 612.135 247.712C611.463 248.072 610.737 248.252 609.957 248.252Z" fill="#00AED4"/>
<path d="M829.75 110.252C828.922 110.252 828.184 110.102 827.536 109.802C826.888 109.49 826.372 109.07 825.988 108.542C825.616 108.002 825.43 107.39 825.43 106.706C825.43 106.118 825.544 105.596 825.772 105.14C826 104.684 826.294 104.294 826.654 103.97C827.014 103.634 827.392 103.358 827.788 103.142V103.052C827.308 102.704 826.894 102.278 826.546 101.774C826.198 101.258 826.024 100.652 826.024 99.956C826.024 99.272 826.186 98.672 826.51 98.156C826.846 97.64 827.296 97.244 827.86 96.968C828.436 96.68 829.09 96.536 829.822 96.536C830.59 96.536 831.25 96.686 831.802 96.986C832.354 97.286 832.78 97.7 833.08 98.228C833.392 98.744 833.548 99.35 833.548 100.046C833.548 100.49 833.458 100.91 833.278 101.306C833.098 101.702 832.876 102.062 832.612 102.386C832.36 102.698 832.09 102.956 831.802 103.16V103.25C832.21 103.466 832.582 103.736 832.918 104.06C833.254 104.372 833.524 104.75 833.728 105.194C833.932 105.638 834.034 106.16 834.034 106.76C834.034 107.408 833.854 107.996 833.494 108.524C833.146 109.052 832.648 109.472 832 109.784C831.364 110.096 830.614 110.252 829.75 110.252ZM830.632 102.638C831.016 102.266 831.304 101.876 831.496 101.468C831.7 101.048 831.802 100.61 831.802 100.154C831.802 99.758 831.724 99.398 831.568 99.074C831.412 98.75 831.178 98.498 830.866 98.318C830.566 98.126 830.2 98.03 829.768 98.03C829.228 98.03 828.778 98.204 828.418 98.552C828.058 98.888 827.878 99.356 827.878 99.956C827.878 100.436 828.004 100.838 828.256 101.162C828.508 101.486 828.844 101.762 829.264 101.99C829.684 102.218 830.14 102.434 830.632 102.638ZM829.804 108.74C830.248 108.74 830.638 108.656 830.974 108.488C831.322 108.32 831.592 108.086 831.784 107.786C831.976 107.474 832.072 107.108 832.072 106.688C832.072 106.292 831.988 105.95 831.82 105.662C831.652 105.362 831.418 105.104 831.118 104.888C830.83 104.672 830.488 104.474 830.092 104.294C829.696 104.102 829.27 103.916 828.814 103.736C828.358 104.06 827.986 104.462 827.698 104.942C827.41 105.41 827.266 105.926 827.266 106.49C827.266 106.934 827.374 107.324 827.59 107.66C827.818 107.996 828.124 108.26 828.508 108.452C828.892 108.644 829.324 108.74 829.804 108.74ZM836.397 110V108.29H839.313V99.074H836.937V97.76C837.561 97.652 838.101 97.514 838.557 97.346C839.025 97.178 839.451 96.974 839.835 96.734H841.401V108.29H843.975V110H836.397ZM845.925 110V108.794C847.233 107.63 848.325 106.568 849.201 105.608C850.077 104.636 850.731 103.736 851.163 102.908C851.607 102.08 851.829 101.306 851.829 100.586C851.829 100.106 851.745 99.686 851.577 99.326C851.421 98.954 851.175 98.672 850.839 98.48C850.515 98.276 850.101 98.174 849.597 98.174C849.081 98.174 848.607 98.318 848.175 98.606C847.743 98.882 847.347 99.224 846.987 99.632L845.817 98.48C846.381 97.856 846.975 97.37 847.599 97.022C848.235 96.674 848.991 96.5 849.867 96.5C850.671 96.5 851.373 96.668 851.973 97.004C852.573 97.328 853.035 97.79 853.359 98.39C853.695 98.978 853.863 99.674 853.863 100.478C853.863 101.33 853.653 102.194 853.233 103.07C852.813 103.934 852.237 104.81 851.505 105.698C850.773 106.574 849.939 107.462 849.003 108.362C849.351 108.326 849.717 108.296 850.101 108.272C850.497 108.236 850.851 108.218 851.163 108.218H854.493V110H845.925Z" fill="#00AED4"/>
<path d="M840 131C842.209 131 844 129.209 844 127C844 124.791 842.209 123 840 123C837.791 123 836 124.791 836 127C836 129.209 837.791 131 840 131Z" fill="url(#paint10_linear_1766_38583)"/>
<path d="M1068.99 30.252C1068.23 30.252 1067.56 30.114 1067 29.838C1066.44 29.55 1065.98 29.214 1065.59 28.83L1066.73 27.534C1066.99 27.834 1067.31 28.074 1067.7 28.254C1068.08 28.434 1068.48 28.524 1068.89 28.524C1069.31 28.524 1069.7 28.428 1070.07 28.236C1070.46 28.044 1070.79 27.732 1071.06 27.3C1071.35 26.868 1071.57 26.292 1071.73 25.572C1071.9 24.852 1071.98 23.97 1071.98 22.926C1071.98 21.822 1071.87 20.916 1071.66 20.208C1071.44 19.488 1071.14 18.96 1070.74 18.624C1070.36 18.276 1069.89 18.102 1069.35 18.102C1068.97 18.102 1068.62 18.216 1068.31 18.444C1068 18.66 1067.75 18.972 1067.57 19.38C1067.39 19.788 1067.3 20.28 1067.3 20.856C1067.3 21.42 1067.38 21.9 1067.54 22.296C1067.7 22.692 1067.95 22.998 1068.27 23.214C1068.6 23.418 1068.99 23.52 1069.44 23.52C1069.86 23.52 1070.3 23.388 1070.74 23.124C1071.18 22.86 1071.6 22.428 1072 21.828L1072.09 23.358C1071.84 23.694 1071.54 23.988 1071.21 24.24C1070.87 24.492 1070.52 24.69 1070.16 24.834C1069.8 24.966 1069.44 25.032 1069.08 25.032C1068.35 25.032 1067.7 24.876 1067.14 24.564C1066.59 24.252 1066.15 23.79 1065.83 23.178C1065.51 22.554 1065.36 21.78 1065.36 20.856C1065.36 19.98 1065.54 19.218 1065.9 18.57C1066.27 17.91 1066.76 17.4 1067.36 17.04C1067.96 16.68 1068.61 16.5 1069.32 16.5C1069.95 16.5 1070.55 16.632 1071.1 16.896C1071.66 17.148 1072.15 17.538 1072.56 18.066C1072.98 18.594 1073.31 19.26 1073.55 20.064C1073.79 20.868 1073.91 21.822 1073.91 22.926C1073.91 24.222 1073.78 25.338 1073.51 26.274C1073.25 27.198 1072.88 27.954 1072.41 28.542C1071.95 29.118 1071.42 29.55 1070.83 29.838C1070.24 30.114 1069.63 30.252 1068.99 30.252ZM1079.69 30.252C1079.01 30.252 1078.4 30.168 1077.86 30C1077.32 29.832 1076.84 29.61 1076.43 29.334C1076.03 29.058 1075.67 28.77 1075.35 28.47L1076.34 27.12C1076.6 27.372 1076.87 27.606 1077.17 27.822C1077.47 28.026 1077.81 28.194 1078.18 28.326C1078.56 28.458 1078.99 28.524 1079.46 28.524C1079.95 28.524 1080.39 28.416 1080.79 28.2C1081.19 27.972 1081.5 27.648 1081.73 27.228C1081.95 26.796 1082.07 26.286 1082.07 25.698C1082.07 24.834 1081.83 24.162 1081.37 23.682C1080.91 23.202 1080.3 22.962 1079.55 22.962C1079.13 22.962 1078.77 23.022 1078.47 23.142C1078.17 23.262 1077.83 23.448 1077.44 23.7L1076.42 23.034L1076.81 16.734H1083.53V18.498H1078.61L1078.31 21.882C1078.59 21.738 1078.88 21.63 1079.17 21.558C1079.46 21.474 1079.78 21.432 1080.12 21.432C1080.87 21.432 1081.55 21.582 1082.16 21.882C1082.77 22.182 1083.26 22.644 1083.62 23.268C1083.98 23.88 1084.16 24.672 1084.16 25.644C1084.16 26.616 1083.95 27.45 1083.53 28.146C1083.11 28.83 1082.55 29.352 1081.87 29.712C1081.2 30.072 1080.47 30.252 1079.69 30.252ZM1089.96 30.252C1089.26 30.252 1088.64 30.168 1088.1 30C1087.57 29.832 1087.11 29.61 1086.7 29.334C1086.29 29.046 1085.94 28.74 1085.64 28.416L1086.64 27.084C1087.04 27.468 1087.49 27.804 1087.99 28.092C1088.5 28.38 1089.09 28.524 1089.78 28.524C1090.28 28.524 1090.72 28.44 1091.09 28.272C1091.46 28.092 1091.75 27.84 1091.95 27.516C1092.17 27.192 1092.28 26.796 1092.28 26.328C1092.28 25.848 1092.16 25.428 1091.92 25.068C1091.69 24.696 1091.29 24.414 1090.71 24.222C1090.15 24.018 1089.37 23.916 1088.37 23.916V22.368C1089.25 22.368 1089.93 22.272 1090.42 22.08C1090.93 21.876 1091.29 21.6 1091.5 21.252C1091.73 20.904 1091.85 20.508 1091.85 20.064C1091.85 19.488 1091.67 19.032 1091.31 18.696C1090.95 18.348 1090.45 18.174 1089.81 18.174C1089.31 18.174 1088.83 18.288 1088.39 18.516C1087.96 18.732 1087.55 19.026 1087.17 19.398L1086.09 18.102C1086.61 17.622 1087.19 17.238 1087.81 16.95C1088.44 16.65 1089.13 16.5 1089.88 16.5C1090.68 16.5 1091.38 16.638 1091.99 16.914C1092.6 17.178 1093.08 17.562 1093.43 18.066C1093.78 18.57 1093.95 19.188 1093.95 19.92C1093.95 20.676 1093.74 21.318 1093.32 21.846C1092.91 22.374 1092.36 22.77 1091.67 23.034V23.106C1092.17 23.238 1092.63 23.454 1093.03 23.754C1093.45 24.042 1093.78 24.414 1094.02 24.87C1094.26 25.326 1094.38 25.848 1094.38 26.436C1094.38 27.228 1094.18 27.912 1093.77 28.488C1093.38 29.052 1092.84 29.49 1092.17 29.802C1091.5 30.102 1090.76 30.252 1089.96 30.252Z" fill="#00AED4"/>
<path d="M1080 51C1082.21 51 1084 49.2091 1084 47C1084 44.7909 1082.21 43 1080 43C1077.79 43 1076 44.7909 1076 47C1076 49.2091 1077.79 51 1080 51Z" fill="url(#paint11_linear_1766_38583)"/>
<path d="M434.907 409.093L429.907 404.093L424.907 409.093L429.907 414.093L434.907 409.093Z" fill="url(#paint12_linear_1766_38583)"/>
<path d="M450.312 403.44H458.04V404.576H450.312V403.44ZM449.864 409.184H458.36V410.336H449.864V409.184ZM455.4 403.888H456.552V417.28H455.4V403.888ZM451.656 403.936H452.792V409.552C452.792 410.213 452.765 410.896 452.712 411.6C452.659 412.293 452.552 412.981 452.392 413.664C452.243 414.336 452.013 414.987 451.704 415.616C451.405 416.245 451.005 416.821 450.504 417.344C450.44 417.28 450.349 417.2 450.232 417.104C450.125 417.019 450.013 416.933 449.896 416.848C449.789 416.773 449.683 416.709 449.576 416.656C450.045 416.176 450.413 415.648 450.68 415.072C450.957 414.485 451.165 413.877 451.304 413.248C451.453 412.619 451.549 411.989 451.592 411.36C451.635 410.731 451.656 410.123 451.656 409.536V403.936ZM443.816 403.44H449.448V404.544H443.816V403.44ZM445.416 408.336H449.176V415.264H445.416V414.192H448.104V409.424H445.416V408.336ZM445.912 403.952L447.016 404.192C446.835 405.195 446.605 406.176 446.328 407.136C446.051 408.096 445.725 408.997 445.352 409.84C444.989 410.672 444.557 411.408 444.056 412.048C444.035 411.941 443.992 411.808 443.928 411.648C443.864 411.488 443.795 411.323 443.72 411.152C443.645 410.981 443.576 410.848 443.512 410.752C444.131 409.931 444.632 408.928 445.016 407.744C445.4 406.549 445.699 405.285 445.912 403.952ZM444.904 408.336H445.928V416.544H444.904V408.336ZM467.608 407.36H470.92V408.32H467.608V407.36ZM466.424 412H471.96V412.88H466.424V412ZM461.208 403.232H465.704V404.224H461.208V403.232ZM465.368 403.232H465.576L465.768 403.184L466.52 403.568C466.136 404.453 465.603 405.248 464.92 405.952C464.237 406.645 463.48 407.243 462.648 407.744C461.816 408.235 460.968 408.635 460.104 408.944C460.029 408.805 459.928 408.651 459.8 408.48C459.672 408.299 459.555 408.155 459.448 408.048C460.045 407.867 460.643 407.627 461.24 407.328C461.837 407.029 462.403 406.683 462.936 406.288C463.469 405.893 463.944 405.456 464.36 404.976C464.787 404.496 465.123 403.984 465.368 403.44V403.232ZM467.88 402.592C468.264 403.413 468.781 404.171 469.432 404.864C470.083 405.557 470.835 406.155 471.688 406.656C472.541 407.157 473.459 407.541 474.44 407.808C474.323 407.925 474.189 408.075 474.04 408.256C473.901 408.437 473.795 408.603 473.72 408.752C472.696 408.432 471.747 407.995 470.872 407.44C470.008 406.875 469.24 406.208 468.568 405.44C467.896 404.672 467.347 403.824 466.92 402.896L467.88 402.592ZM471.16 402.672L472.04 403.296C471.656 403.659 471.229 404.021 470.76 404.384C470.301 404.747 469.88 405.056 469.496 405.312L468.776 404.768C469.032 404.587 469.304 404.373 469.592 404.128C469.891 403.883 470.179 403.632 470.456 403.376C470.733 403.12 470.968 402.885 471.16 402.672ZM473.08 404.272L473.96 404.896C473.576 405.259 473.144 405.621 472.664 405.984C472.195 406.336 471.757 406.635 471.352 406.88L470.616 406.336C470.883 406.155 471.165 405.947 471.464 405.712C471.763 405.467 472.056 405.221 472.344 404.976C472.632 404.72 472.877 404.485 473.08 404.272ZM461.88 407.408H465.64V411.008H464.552V408.368H461.88V407.408ZM461.368 410.064H462.376C462.301 410.651 462.216 411.275 462.12 411.936C462.024 412.587 461.928 413.141 461.832 413.6H460.808C460.883 413.269 460.952 412.907 461.016 412.512C461.08 412.107 461.144 411.691 461.208 411.264C461.272 410.837 461.325 410.437 461.368 410.064ZM464.568 412.672H465.672C465.672 412.672 465.667 412.731 465.656 412.848C465.656 412.965 465.645 413.061 465.624 413.136C465.571 413.883 465.507 414.496 465.432 414.976C465.357 415.456 465.272 415.829 465.176 416.096C465.08 416.373 464.968 416.576 464.84 416.704C464.701 416.843 464.552 416.939 464.392 416.992C464.232 417.056 464.029 417.093 463.784 417.104C463.571 417.125 463.267 417.131 462.872 417.12C462.488 417.12 462.077 417.109 461.64 417.088C461.629 416.917 461.592 416.736 461.528 416.544C461.464 416.352 461.384 416.187 461.288 416.048C461.725 416.08 462.141 416.101 462.536 416.112C462.931 416.123 463.203 416.128 463.352 416.128C463.501 416.128 463.619 416.117 463.704 416.096C463.8 416.085 463.88 416.053 463.944 416C464.083 415.872 464.2 415.573 464.296 415.104C464.392 414.624 464.483 413.867 464.568 412.832V412.672ZM467.176 407.36H468.2V408.64C468.2 408.981 468.152 409.339 468.056 409.712C467.96 410.075 467.784 410.427 467.528 410.768C467.283 411.109 466.925 411.419 466.456 411.696C466.403 411.632 466.328 411.552 466.232 411.456C466.136 411.349 466.035 411.253 465.928 411.168C465.832 411.072 465.747 410.997 465.672 410.944C466.109 410.709 466.429 410.464 466.632 410.208C466.845 409.941 466.989 409.675 467.064 409.408C467.139 409.131 467.176 408.864 467.176 408.608V407.36ZM471.688 412H471.912L472.104 411.968L472.776 412.224C472.413 413.163 471.896 413.968 471.224 414.64C470.563 415.301 469.8 415.845 468.936 416.272C468.083 416.709 467.171 417.051 466.2 417.296C466.157 417.168 466.083 417.013 465.976 416.832C465.869 416.661 465.768 416.517 465.672 416.4C466.547 416.219 467.384 415.941 468.184 415.568C468.995 415.195 469.704 414.725 470.312 414.16C470.92 413.595 471.379 412.928 471.688 412.16V412ZM461.832 410.064H464.968V411.008H461.656L461.832 410.064ZM461.352 412.672H464.872V413.6H461.176L461.352 412.672ZM460.792 405.136L461.48 404.496C461.853 404.709 462.237 404.965 462.632 405.264C463.037 405.563 463.347 405.829 463.56 406.064L462.84 406.8C462.627 406.544 462.323 406.261 461.928 405.952C461.544 405.643 461.165 405.371 460.792 405.136ZM470.392 407.376H471.416V409.888C471.416 410.08 471.432 410.208 471.464 410.272C471.496 410.336 471.565 410.368 471.672 410.368C471.747 410.368 471.864 410.368 472.024 410.368C472.195 410.368 472.36 410.368 472.52 410.368C472.691 410.368 472.808 410.368 472.872 410.368C472.979 410.368 473.107 410.368 473.256 410.368C473.416 410.357 473.544 410.341 473.64 410.32C473.651 410.448 473.661 410.592 473.672 410.752C473.683 410.912 473.699 411.051 473.72 411.168C473.624 411.189 473.501 411.205 473.352 411.216C473.203 411.227 473.048 411.232 472.888 411.232C472.835 411.232 472.744 411.232 472.616 411.232C472.488 411.232 472.355 411.232 472.216 411.232C472.077 411.232 471.944 411.232 471.816 411.232C471.699 411.232 471.613 411.232 471.56 411.232C471.24 411.232 470.995 411.189 470.824 411.104C470.653 411.008 470.536 410.864 470.472 410.672C470.419 410.469 470.392 410.203 470.392 409.872V407.376ZM466.424 413.68L467 413.008C467.48 413.275 467.992 413.563 468.536 413.872C469.08 414.181 469.619 414.496 470.152 414.816C470.685 415.125 471.187 415.429 471.656 415.728C472.136 416.027 472.541 416.293 472.872 416.528L472.248 417.312C471.928 417.077 471.539 416.805 471.08 416.496C470.621 416.197 470.12 415.883 469.576 415.552C469.043 415.221 468.504 414.896 467.96 414.576C467.427 414.256 466.915 413.957 466.424 413.68ZM485.368 404.336H486.504V413.168H485.368V404.336ZM488.392 402.64H489.56V415.696C489.56 416.069 489.507 416.352 489.4 416.544C489.304 416.747 489.139 416.901 488.904 417.008C488.669 417.115 488.344 417.179 487.928 417.2C487.512 417.221 486.973 417.232 486.312 417.232C486.28 417.083 486.227 416.891 486.152 416.656C486.077 416.421 485.997 416.219 485.912 416.048C486.403 416.059 486.84 416.064 487.224 416.064C487.619 416.064 487.88 416.064 488.008 416.064C488.147 416.053 488.243 416.021 488.296 415.968C488.36 415.915 488.392 415.819 488.392 415.68V402.64ZM477.656 409.424H483.032V410.24H477.656V409.424ZM478.392 415.552H483.352V416.512H478.392V415.552ZM476.968 407.52H478.104V409.68C478.104 410.171 478.083 410.715 478.04 411.312C477.997 411.909 477.923 412.517 477.816 413.136C477.709 413.755 477.555 414.363 477.352 414.96C477.149 415.557 476.888 416.107 476.568 416.608C476.493 416.544 476.392 416.48 476.264 416.416C476.147 416.352 476.019 416.288 475.88 416.224C475.752 416.171 475.64 416.128 475.544 416.096C475.864 415.605 476.12 415.083 476.312 414.528C476.504 413.973 476.643 413.408 476.728 412.832C476.824 412.256 476.888 411.701 476.92 411.168C476.952 410.624 476.968 410.128 476.968 409.68V407.52ZM477.64 407.52H483.544V412.224H477.576V411.328H482.424V408.416H477.64V407.52ZM477.944 412.976H483.928V417.136H482.856V413.856H478.968V417.168H477.944V412.976ZM480.088 402.672L481.192 403.088C480.819 403.707 480.365 404.299 479.832 404.864C479.299 405.419 478.723 405.931 478.104 406.4C477.496 406.859 476.872 407.264 476.232 407.616C476.2 407.52 476.141 407.403 476.056 407.264C475.981 407.125 475.896 406.987 475.8 406.848C475.715 406.699 475.635 406.581 475.56 406.496C476.157 406.208 476.739 405.872 477.304 405.488C477.88 405.104 478.408 404.672 478.888 404.192C479.368 403.712 479.768 403.205 480.088 402.672ZM479.736 404L480.344 403.136C480.685 403.339 481.048 403.557 481.432 403.792C481.816 404.027 482.195 404.261 482.568 404.496C482.952 404.731 483.309 404.965 483.64 405.2C483.971 405.424 484.253 405.627 484.488 405.808L483.832 406.8C483.533 406.544 483.144 406.251 482.664 405.92C482.195 405.589 481.704 405.253 481.192 404.912C480.68 404.571 480.195 404.267 479.736 404ZM478.728 405.92H482.104V406.704H478.728V405.92ZM500.552 407.968H506.344V409.088H500.552V407.968ZM491.976 404.24H499.048V405.248H491.976V404.24ZM491.8 410.576H499.112V411.632H491.8V410.576ZM491.736 407.888H499.304V408.912H491.736V407.888ZM503.4 408.432H504.568V417.2H503.4V408.432ZM493.016 405.584L493.992 405.36C494.152 405.701 494.291 406.08 494.408 406.496C494.536 406.901 494.621 407.248 494.664 407.536L493.64 407.824C493.597 407.525 493.517 407.168 493.4 406.752C493.293 406.325 493.165 405.936 493.016 405.584ZM497.032 405.328L498.152 405.568C497.981 406.048 497.8 406.539 497.608 407.04C497.416 407.531 497.235 407.952 497.064 408.304L496.088 408.08C496.195 407.824 496.307 407.536 496.424 407.216C496.541 406.896 496.653 406.571 496.76 406.24C496.877 405.899 496.968 405.595 497.032 405.328ZM505.096 402.848L506.072 403.728C505.56 403.92 504.989 404.096 504.36 404.256C503.731 404.416 503.08 404.56 502.408 404.688C501.747 404.816 501.096 404.923 500.456 405.008C500.435 404.88 500.387 404.731 500.312 404.56C500.237 404.379 500.163 404.224 500.088 404.096C500.685 404 501.293 403.888 501.912 403.76C502.541 403.621 503.133 403.477 503.688 403.328C504.243 403.168 504.712 403.008 505.096 402.848ZM494.424 402.768L495.624 402.464C495.805 402.784 495.992 403.141 496.184 403.536C496.376 403.931 496.515 404.267 496.6 404.544L495.368 404.912C495.293 404.624 495.16 404.277 494.968 403.872C494.787 403.467 494.605 403.099 494.424 402.768ZM500.088 404.096H501.208V409.648C501.208 410.224 501.187 410.843 501.144 411.504C501.112 412.165 501.037 412.837 500.92 413.52C500.803 414.192 500.632 414.843 500.408 415.472C500.184 416.101 499.891 416.677 499.528 417.2C499.464 417.125 499.373 417.04 499.256 416.944C499.139 416.848 499.021 416.757 498.904 416.672C498.787 416.587 498.685 416.523 498.6 416.48C499.059 415.829 499.389 415.109 499.592 414.32C499.805 413.531 499.939 412.731 499.992 411.92C500.056 411.109 500.088 410.352 500.088 409.648V404.096ZM496.92 412.8L497.752 412.368C498.008 412.763 498.264 413.2 498.52 413.68C498.776 414.16 498.968 414.565 499.096 414.896L498.232 415.408C498.104 415.056 497.912 414.635 497.656 414.144C497.411 413.643 497.165 413.195 496.92 412.8ZM493.24 412.464L494.2 412.736C494.008 413.312 493.763 413.893 493.464 414.48C493.165 415.056 492.861 415.552 492.552 415.968C492.456 415.883 492.323 415.781 492.152 415.664C491.981 415.536 491.832 415.445 491.704 415.392C492.024 415.008 492.312 414.555 492.568 414.032C492.835 413.509 493.059 412.987 493.24 412.464ZM495.016 408.432H496.184V417.216H495.016V408.432ZM513.624 403.36H522.136V404.448H513.624V403.36ZM513.976 411.648H521.64V412.736H513.976V411.648ZM513.08 415.792H522.28V416.912H513.08V415.792ZM517.176 412.16H518.376V416.48H517.176V412.16ZM515.144 404.976L516.2 405.248C515.987 405.653 515.736 406.096 515.448 406.576C515.16 407.045 514.883 407.483 514.616 407.888C514.968 408.357 515.304 408.848 515.624 409.36C515.955 409.872 516.205 410.309 516.376 410.672L515.384 411.104C515.213 410.688 514.952 410.192 514.6 409.616C514.248 409.04 513.864 408.475 513.448 407.92C513.661 407.589 513.875 407.248 514.088 406.896C514.301 406.533 514.499 406.187 514.68 405.856C514.872 405.515 515.027 405.221 515.144 404.976ZM517.928 404.976L518.984 405.264C518.76 405.659 518.499 406.096 518.2 406.576C517.901 407.045 517.624 407.483 517.368 407.888C517.603 408.187 517.837 408.507 518.072 408.848C518.307 409.179 518.52 409.499 518.712 409.808C518.915 410.117 519.069 410.389 519.176 410.624L518.2 411.072C518.019 410.656 517.747 410.16 517.384 409.584C517.021 409.008 516.616 408.448 516.168 407.904C516.403 407.573 516.627 407.232 516.84 406.88C517.064 406.528 517.272 406.187 517.464 405.856C517.656 405.525 517.811 405.232 517.928 404.976ZM520.696 404.976L521.752 405.248C521.517 405.653 521.251 406.096 520.952 406.576C520.653 407.045 520.371 407.483 520.104 407.888C520.36 408.187 520.605 408.507 520.84 408.848C521.085 409.179 521.315 409.499 521.528 409.808C521.741 410.117 521.907 410.395 522.024 410.64L521.048 411.104C520.856 410.688 520.563 410.192 520.168 409.616C519.773 409.029 519.347 408.464 518.888 407.92C519.123 407.589 519.352 407.248 519.576 406.896C519.8 406.533 520.008 406.187 520.2 405.856C520.403 405.515 520.568 405.221 520.696 404.976ZM511.464 408.864L512.376 408.608C512.525 408.96 512.669 409.344 512.808 409.76C512.957 410.165 513.085 410.56 513.192 410.944C513.309 411.317 513.395 411.643 513.448 411.92L512.456 412.256C512.413 411.968 512.339 411.632 512.232 411.248C512.125 410.853 512.003 410.448 511.864 410.032C511.736 409.616 511.603 409.227 511.464 408.864ZM510.008 412.992L510.936 412.832C511.032 413.376 511.123 413.963 511.208 414.592C511.293 415.221 511.347 415.765 511.368 416.224L510.408 416.4C510.387 415.941 510.339 415.397 510.264 414.768C510.189 414.128 510.104 413.536 510.008 412.992ZM508.344 412.848L509.368 413.024C509.283 413.739 509.165 414.459 509.016 415.184C508.877 415.899 508.723 416.507 508.552 417.008C508.477 416.965 508.376 416.923 508.248 416.88C508.131 416.837 508.008 416.789 507.88 416.736C507.752 416.693 507.645 416.661 507.56 416.64C507.752 416.149 507.912 415.563 508.04 414.88C508.168 414.197 508.269 413.52 508.344 412.848ZM507.944 408.544C507.923 408.469 507.891 408.368 507.848 408.24C507.805 408.101 507.757 407.963 507.704 407.824C507.661 407.685 507.619 407.568 507.576 407.472C507.715 407.44 507.853 407.349 507.992 407.2C508.141 407.04 508.296 406.837 508.456 406.592C508.584 406.432 508.771 406.144 509.016 405.728C509.272 405.301 509.539 404.811 509.816 404.256C510.104 403.691 510.36 403.115 510.584 402.528L511.656 402.992C511.24 403.877 510.771 404.763 510.248 405.648C509.736 406.523 509.213 407.28 508.68 407.92V407.936C508.68 407.936 508.643 407.957 508.568 408C508.493 408.043 508.403 408.096 508.296 408.16C508.2 408.224 508.115 408.288 508.04 408.352C507.976 408.416 507.944 408.48 507.944 408.544ZM507.944 408.544L507.912 407.664L508.488 407.328L511.336 407.072C511.304 407.221 511.277 407.392 511.256 407.584C511.245 407.776 511.24 407.931 511.24 408.048C510.589 408.123 510.061 408.187 509.656 408.24C509.261 408.283 508.947 408.325 508.712 408.368C508.488 408.4 508.317 408.432 508.2 408.464C508.093 408.485 508.008 408.512 507.944 408.544ZM508.056 412.16C508.035 412.075 508.003 411.968 507.96 411.84C507.917 411.701 507.869 411.563 507.816 411.424C507.763 411.275 507.715 411.152 507.672 411.056C507.843 411.013 508.019 410.901 508.2 410.72C508.392 410.528 508.611 410.283 508.856 409.984C508.973 409.835 509.155 409.595 509.4 409.264C509.645 408.933 509.923 408.539 510.232 408.08C510.541 407.621 510.851 407.125 511.16 406.592C511.48 406.059 511.768 405.525 512.024 404.992L513.048 405.584C512.653 406.309 512.221 407.029 511.752 407.744C511.293 408.459 510.813 409.141 510.312 409.792C509.811 410.432 509.309 411.013 508.808 411.536V411.568C508.808 411.568 508.771 411.589 508.696 411.632C508.621 411.664 508.531 411.712 508.424 411.776C508.328 411.829 508.243 411.893 508.168 411.968C508.093 412.032 508.056 412.096 508.056 412.16ZM508.056 412.16L508.008 411.264L508.584 410.896L512.52 410.384C512.499 410.533 512.483 410.704 512.472 410.896C512.461 411.077 512.461 411.227 512.472 411.344C511.576 411.483 510.851 411.595 510.296 411.68C509.752 411.765 509.331 411.84 509.032 411.904C508.733 411.957 508.515 412.005 508.376 412.048C508.237 412.08 508.131 412.117 508.056 412.16ZM511.544 412.672L512.408 412.4C512.568 412.827 512.728 413.296 512.888 413.808C513.059 414.309 513.181 414.747 513.256 415.12L512.344 415.424C512.28 415.051 512.168 414.608 512.008 414.096C511.859 413.584 511.704 413.109 511.544 412.672ZM525.816 405.152H535.864V404.256H524.728V403.44H536.968V405.952H525.816V405.152ZM525.448 405.152H526.504C526.451 405.589 526.387 406.043 526.312 406.512C526.248 406.971 526.179 407.371 526.104 407.712H525.032C525.117 407.349 525.192 406.939 525.256 406.48C525.331 406.011 525.395 405.568 525.448 405.152ZM525.592 406.912H537.192V407.712H525.352L525.592 406.912ZM536.84 406.912H537.96C537.96 406.912 537.955 406.96 537.944 407.056C537.944 407.141 537.944 407.221 537.944 407.296C537.891 407.733 537.832 408.075 537.768 408.32C537.715 408.565 537.629 408.747 537.512 408.864C537.416 408.949 537.304 409.019 537.176 409.072C537.048 409.115 536.899 409.141 536.728 409.152C536.589 409.152 536.392 409.152 536.136 409.152C535.891 409.152 535.624 409.141 535.336 409.12C535.325 409.003 535.299 408.869 535.256 408.72C535.213 408.571 535.165 408.443 535.112 408.336C535.357 408.357 535.581 408.373 535.784 408.384C535.987 408.395 536.131 408.395 536.216 408.384C536.312 408.384 536.387 408.379 536.44 408.368C536.493 408.357 536.541 408.331 536.584 408.288C536.637 408.235 536.685 408.112 536.728 407.92C536.771 407.728 536.808 407.435 536.84 407.04V406.912ZM528.648 402.56H529.752V405.44C529.752 405.973 529.688 406.475 529.56 406.944C529.443 407.413 529.203 407.851 528.84 408.256C528.488 408.651 527.96 409.008 527.256 409.328C526.563 409.648 525.635 409.92 524.472 410.144C524.44 410.048 524.392 409.941 524.328 409.824C524.264 409.707 524.195 409.595 524.12 409.488C524.045 409.371 523.971 409.275 523.896 409.2C524.963 409.008 525.811 408.779 526.44 408.512C527.069 408.245 527.544 407.952 527.864 407.632C528.184 407.312 528.392 406.965 528.488 406.592C528.595 406.219 528.648 405.829 528.648 405.424V402.56ZM532.232 402.56H533.384V408.816H532.232V402.56ZM527.08 411.36V412.352H535.112V411.36H527.08ZM527.08 413.104V414.112H535.112V413.104H527.08ZM527.08 409.632V410.624H535.112V409.632H527.08ZM525.912 408.864H536.328V414.896H525.912V408.864ZM532.44 415.472L533.16 414.784C533.768 414.944 534.376 415.125 534.984 415.328C535.592 415.52 536.163 415.712 536.696 415.904C537.24 416.096 537.709 416.277 538.104 416.448L537.192 417.216C536.829 417.035 536.392 416.843 535.88 416.64C535.379 416.448 534.835 416.251 534.248 416.048C533.661 415.845 533.059 415.653 532.44 415.472ZM528.616 414.912L529.688 415.408C529.261 415.643 528.76 415.877 528.184 416.112C527.608 416.347 527.021 416.56 526.424 416.752C525.837 416.955 525.272 417.125 524.728 417.264C524.675 417.189 524.595 417.093 524.488 416.976C524.381 416.869 524.269 416.757 524.152 416.64C524.045 416.533 523.949 416.448 523.864 416.384C524.419 416.277 524.984 416.149 525.56 416C526.147 415.84 526.707 415.669 527.24 415.488C527.773 415.307 528.232 415.115 528.616 414.912ZM539.176 418.864L543.976 403.296H545.032L540.248 418.864H539.176ZM546.098 408.88H560.45V410.048H546.098V408.88ZM552.594 404.72H553.858V417.28H552.594V404.72ZM557.954 402.768L558.882 403.776C558.135 404 557.298 404.208 556.37 404.4C555.442 404.581 554.466 404.752 553.442 404.912C552.418 405.061 551.383 405.2 550.338 405.328C549.292 405.445 548.279 405.547 547.298 405.632C547.287 405.525 547.26 405.408 547.218 405.28C547.186 405.152 547.143 405.024 547.09 404.896C547.047 404.768 547.004 404.661 546.962 404.576C547.932 404.48 548.93 404.373 549.954 404.256C550.978 404.128 551.98 403.989 552.962 403.84C553.943 403.68 554.86 403.515 555.714 403.344C556.578 403.163 557.324 402.971 557.954 402.768ZM568.658 406.256H569.81V414.816H568.658V406.256ZM565.202 408.64V409.808H573.362V408.64H565.202ZM565.202 406.656V407.808H573.362V406.656H565.202ZM564.034 405.808H574.546V410.672H564.034V405.808ZM574.482 411.648H575.634V416.048C575.634 416.336 575.602 416.56 575.538 416.72C575.474 416.88 575.34 417.003 575.138 417.088C574.924 417.173 574.647 417.221 574.306 417.232C573.964 417.253 573.532 417.264 573.01 417.264C572.988 417.115 572.94 416.949 572.866 416.768C572.802 416.587 572.738 416.421 572.674 416.272C573.047 416.283 573.372 416.288 573.65 416.288C573.938 416.288 574.13 416.288 574.226 416.288C574.322 416.277 574.386 416.256 574.418 416.224C574.46 416.192 574.482 416.133 574.482 416.048V411.648ZM565.17 414.544C565.788 414.523 566.498 414.496 567.298 414.464C568.098 414.432 568.951 414.395 569.858 414.352C570.775 414.299 571.698 414.251 572.626 414.208L572.61 415.184C571.714 415.237 570.823 415.291 569.938 415.344C569.052 415.397 568.21 415.445 567.41 415.488C566.62 415.52 565.906 415.557 565.266 415.6L565.17 414.544ZM571.106 413.216L572.002 412.928C572.247 413.216 572.482 413.536 572.706 413.888C572.93 414.229 573.127 414.565 573.298 414.896C573.479 415.227 573.602 415.531 573.666 415.808L572.722 416.144C572.647 415.867 572.524 415.557 572.354 415.216C572.194 414.875 572.002 414.533 571.778 414.192C571.564 413.84 571.34 413.515 571.106 413.216ZM565.826 402.56H566.994V405.568H565.826V402.56ZM571.442 402.56H572.61V405.568H571.442V402.56ZM562.226 403.536H568.946V404.56H562.226V403.536ZM569.554 403.536H576.29V404.56H569.554V403.536ZM562.37 411.648H575.01V412.656H562.37V411.648ZM563.01 411.072H564.162V417.264H563.01V411.072ZM586.594 409.008H587.81V415.184C587.81 415.472 587.858 415.659 587.954 415.744C588.05 415.819 588.252 415.856 588.562 415.856C588.636 415.856 588.764 415.856 588.946 415.856C589.138 415.856 589.346 415.856 589.57 415.856C589.794 415.856 590.002 415.856 590.194 415.856C590.396 415.856 590.546 415.856 590.642 415.856C590.866 415.856 591.031 415.787 591.138 415.648C591.244 415.499 591.319 415.221 591.362 414.816C591.415 414.4 591.447 413.781 591.458 412.96C591.564 413.035 591.682 413.109 591.81 413.184C591.938 413.248 592.071 413.307 592.21 413.36C592.359 413.413 592.487 413.456 592.594 413.488C592.551 414.405 592.471 415.12 592.354 415.632C592.247 416.133 592.066 416.485 591.81 416.688C591.564 416.891 591.207 416.992 590.738 416.992C590.663 416.992 590.514 416.992 590.29 416.992C590.066 416.992 589.826 416.992 589.57 416.992C589.314 416.992 589.074 416.992 588.85 416.992C588.636 416.992 588.492 416.992 588.418 416.992C587.948 416.992 587.575 416.939 587.298 416.832C587.031 416.725 586.844 416.539 586.738 416.272C586.642 416.016 586.594 415.659 586.594 415.2V409.008ZM578.21 408.288H592.338V409.472H578.21V408.288ZM579.618 403.808H590.978V404.96H579.618V403.808ZM582.306 409.2H583.586C583.511 410.096 583.399 410.944 583.25 411.744C583.1 412.544 582.855 413.291 582.514 413.984C582.183 414.667 581.714 415.285 581.106 415.84C580.508 416.395 579.735 416.859 578.786 417.232C578.722 417.093 578.615 416.928 578.466 416.736C578.316 416.555 578.172 416.411 578.034 416.304C578.908 415.973 579.612 415.563 580.146 415.072C580.69 414.581 581.106 414.032 581.394 413.424C581.692 412.805 581.906 412.144 582.034 411.44C582.162 410.725 582.252 409.979 582.306 409.2Z" fill="#4F4F4F"/>
<path d="M659 413C661.209 413 663 411.209 663 409C663 406.791 661.209 405 659 405C656.791 405 655 406.791 655 409C655 411.209 656.791 413 659 413Z" fill="url(#paint13_linear_1766_38583)"/>
<path d="M672.736 412.704H687.28V413.696H672.736V412.704ZM673.2 403.792H686.624V404.752H673.2V403.792ZM682.272 411.68H683.44V416C683.44 416.309 683.397 416.549 683.312 416.72C683.227 416.891 683.056 417.019 682.8 417.104C682.544 417.189 682.203 417.237 681.776 417.248C681.36 417.269 680.832 417.28 680.192 417.28C680.171 417.12 680.123 416.944 680.048 416.752C679.973 416.56 679.893 416.384 679.808 416.224C680.139 416.235 680.448 416.24 680.736 416.24C681.024 416.251 681.275 416.256 681.488 416.256C681.701 416.256 681.851 416.256 681.936 416.256C682.075 416.245 682.165 416.219 682.208 416.176C682.251 416.133 682.272 416.064 682.272 415.968V411.68ZM679.376 402.576H680.56V411.168H679.376V402.576ZM675.296 414.368L676.128 413.664C676.448 413.845 676.773 414.059 677.104 414.304C677.445 414.539 677.765 414.779 678.064 415.024C678.373 415.259 678.619 415.477 678.8 415.68L677.936 416.48C677.755 416.267 677.515 416.037 677.216 415.792C676.928 415.536 676.613 415.285 676.272 415.04C675.941 414.795 675.616 414.571 675.296 414.368ZM675.584 408.24V409.232H684.464V408.24H675.584ZM675.584 406.48V407.456H684.464V406.48H675.584ZM674.448 405.664H685.648V410.048H674.448V405.664ZM682.368 410.384L683.072 409.776C683.499 409.915 683.936 410.091 684.384 410.304C684.832 410.507 685.259 410.725 685.664 410.96C686.069 411.184 686.4 411.397 686.656 411.6L685.952 412.272C685.685 412.059 685.355 411.835 684.96 411.6C684.565 411.365 684.139 411.141 683.68 410.928C683.232 410.704 682.795 410.523 682.368 410.384ZM673.376 410.976C674.112 410.976 674.939 410.971 675.856 410.96C676.773 410.949 677.755 410.939 678.8 410.928C679.845 410.917 680.917 410.907 682.016 410.896C683.125 410.885 684.229 410.869 685.328 410.848L685.28 411.648C683.851 411.691 682.416 411.728 680.976 411.76C679.547 411.792 678.181 411.824 676.88 411.856C675.589 411.877 674.437 411.893 673.424 411.904L673.376 410.976ZM688.8 407.376H696.416V408.496H688.8V407.376ZM697.488 404.464H698.656V413.296H697.488V404.464ZM692.144 403.904H693.328V417.248H692.144V403.904ZM701.408 402.864H702.608V415.68C702.608 416.096 702.549 416.405 702.432 416.608C702.325 416.811 702.144 416.965 701.888 417.072C701.621 417.168 701.253 417.227 700.784 417.248C700.325 417.28 699.728 417.296 698.992 417.296C698.971 417.179 698.933 417.045 698.88 416.896C698.827 416.757 698.773 416.613 698.72 416.464C698.667 416.315 698.608 416.187 698.544 416.08C699.109 416.091 699.621 416.096 700.08 416.096C700.539 416.096 700.843 416.096 700.992 416.096C701.141 416.085 701.248 416.053 701.312 416C701.376 415.936 701.408 415.829 701.408 415.68V402.864ZM695.328 402.656L696.224 403.568C695.616 403.813 694.907 404.037 694.096 404.24C693.285 404.443 692.443 404.619 691.568 404.768C690.704 404.917 689.867 405.045 689.056 405.152C689.024 405.013 688.971 404.853 688.896 404.672C688.832 404.491 688.757 404.336 688.672 404.208C689.269 404.123 689.877 404.027 690.496 403.92C691.125 403.803 691.733 403.68 692.32 403.552C692.917 403.413 693.472 403.269 693.984 403.12C694.507 402.971 694.955 402.816 695.328 402.656ZM692.112 407.888L692.96 408.256C692.757 408.864 692.512 409.488 692.224 410.128C691.936 410.768 691.621 411.392 691.28 412C690.939 412.608 690.581 413.179 690.208 413.712C689.835 414.235 689.461 414.683 689.088 415.056C689.045 414.939 688.981 414.816 688.896 414.688C688.821 414.549 688.741 414.411 688.656 414.272C688.581 414.133 688.507 414.016 688.432 413.92C688.795 413.589 689.152 413.195 689.504 412.736C689.867 412.267 690.213 411.76 690.544 411.216C690.875 410.672 691.173 410.117 691.44 409.552C691.717 408.976 691.941 408.421 692.112 407.888ZM693.168 409.552C693.328 409.659 693.552 409.835 693.84 410.08C694.139 410.325 694.459 410.592 694.8 410.88C695.141 411.168 695.451 411.435 695.728 411.68C696.016 411.925 696.224 412.107 696.352 412.224L695.664 413.232C695.504 413.051 695.285 412.821 695.008 412.544C694.731 412.256 694.437 411.963 694.128 411.664C693.819 411.365 693.52 411.083 693.232 410.816C692.944 410.549 692.704 410.341 692.512 410.192L693.168 409.552ZM715.12 414.032L715.984 413.328C716.379 413.627 716.789 413.957 717.216 414.32C717.653 414.672 718.064 415.024 718.448 415.376C718.843 415.717 719.163 416.027 719.408 416.304L718.496 417.12C718.261 416.832 717.952 416.507 717.568 416.144C717.195 415.792 716.789 415.429 716.352 415.056C715.925 414.672 715.515 414.331 715.12 414.032ZM716.56 407.216L717.696 407.6C717.237 408.421 716.667 409.216 715.984 409.984C715.312 410.741 714.555 411.44 713.712 412.08C712.88 412.72 711.995 413.264 711.056 413.712C711.003 413.627 710.939 413.525 710.864 413.408C710.789 413.291 710.709 413.179 710.624 413.072C710.539 412.965 710.453 412.875 710.368 412.8C711.264 412.384 712.112 411.883 712.912 411.296C713.723 410.699 714.437 410.053 715.056 409.36C715.685 408.656 716.187 407.941 716.56 407.216ZM717.728 410.08L718.976 410.528C718.4 411.52 717.68 412.448 716.816 413.312C715.952 414.165 714.965 414.933 713.856 415.616C712.757 416.288 711.563 416.848 710.272 417.296C710.229 417.2 710.165 417.088 710.08 416.96C709.995 416.843 709.904 416.72 709.808 416.592C709.723 416.475 709.643 416.379 709.568 416.304C710.816 415.899 711.968 415.387 713.024 414.768C714.091 414.139 715.024 413.424 715.824 412.624C716.635 411.824 717.269 410.976 717.728 410.08ZM710.416 404.752H719.312V405.856H710.416V404.752ZM711.024 410.176C711.003 410.069 710.971 409.947 710.928 409.808C710.896 409.669 710.853 409.531 710.8 409.392C710.757 409.243 710.715 409.12 710.672 409.024C710.832 408.992 711.013 408.944 711.216 408.88C711.419 408.816 711.584 408.715 711.712 408.576C711.808 408.469 711.947 408.283 712.128 408.016C712.32 407.739 712.523 407.429 712.736 407.088C712.949 406.747 713.152 406.416 713.344 406.096C713.536 405.776 713.68 405.525 713.776 405.344H715.088C714.928 405.611 714.736 405.925 714.512 406.288C714.288 406.651 714.053 407.029 713.808 407.424C713.563 407.808 713.323 408.176 713.088 408.528C712.864 408.88 712.667 409.179 712.496 409.424C712.496 409.424 712.443 409.44 712.336 409.472C712.24 409.493 712.117 409.531 711.968 409.584C711.829 409.637 711.685 409.701 711.536 409.776C711.397 409.84 711.275 409.904 711.168 409.968C711.072 410.032 711.024 410.101 711.024 410.176ZM711.024 410.176L711.008 409.28L711.664 408.928L716.16 408.688C716.096 408.837 716.027 409.013 715.952 409.216C715.877 409.419 715.824 409.579 715.792 409.696C714.821 409.76 714.037 409.819 713.44 409.872C712.853 409.915 712.4 409.952 712.08 409.984C711.76 410.016 711.525 410.048 711.376 410.08C711.227 410.112 711.109 410.144 711.024 410.176ZM713.808 402.848L714.928 402.496C715.131 402.827 715.323 403.2 715.504 403.616C715.696 404.021 715.819 404.373 715.872 404.672L714.688 405.088C714.624 404.789 714.512 404.432 714.352 404.016C714.192 403.589 714.011 403.2 713.808 402.848ZM704.928 405.648H710.032V406.768H704.928V405.648ZM707.072 402.56H708.224V417.264H707.072V402.56ZM707.088 406.368L707.824 406.624C707.696 407.275 707.536 407.947 707.344 408.64C707.163 409.333 706.955 410.016 706.72 410.688C706.496 411.349 706.251 411.968 705.984 412.544C705.717 413.12 705.445 413.611 705.168 414.016C705.125 413.899 705.067 413.771 704.992 413.632C704.917 413.483 704.837 413.339 704.752 413.2C704.677 413.061 704.603 412.944 704.528 412.848C704.795 412.496 705.056 412.069 705.312 411.568C705.568 411.056 705.808 410.507 706.032 409.92C706.267 409.333 706.475 408.736 706.656 408.128C706.837 407.52 706.981 406.933 707.088 406.368ZM708.144 407.312C708.24 407.419 708.379 407.611 708.56 407.888C708.741 408.155 708.933 408.453 709.136 408.784C709.349 409.104 709.547 409.403 709.728 409.68C709.909 409.947 710.037 410.144 710.112 410.272L709.376 411.12C709.291 410.917 709.168 410.661 709.008 410.352C708.859 410.043 708.693 409.717 708.512 409.376C708.331 409.035 708.155 408.725 707.984 408.448C707.824 408.16 707.691 407.931 707.584 407.76L708.144 407.312ZM726.624 408.624H734.608V409.68H726.624V408.624ZM726.64 411.808H734.592V412.864H726.64V411.808ZM726.64 415.056H735.264V416.144H726.64V415.056ZM727.12 402.704L728.24 402.976C727.931 403.861 727.568 404.731 727.152 405.584C726.736 406.437 726.283 407.232 725.792 407.968C725.312 408.704 724.8 409.355 724.256 409.92C724.203 409.845 724.117 409.755 724 409.648C723.893 409.531 723.781 409.424 723.664 409.328C723.557 409.221 723.461 409.136 723.376 409.072C723.909 408.56 724.405 407.968 724.864 407.296C725.333 406.613 725.76 405.883 726.144 405.104C726.528 404.315 726.853 403.515 727.12 402.704ZM726.96 405.424H734.944V406.464H726.96V417.28H725.84V406.368L726.72 405.424H726.96ZM730.336 406.016H731.504V415.648H730.336V406.016ZM729.712 403.12L730.72 402.672C730.976 403.024 731.221 403.408 731.456 403.824C731.691 404.24 731.872 404.603 732 404.912L730.912 405.456C730.795 405.136 730.619 404.757 730.384 404.32C730.16 403.883 729.936 403.483 729.712 403.12ZM720.768 403.76L721.808 403.264C722.085 403.627 722.368 404.027 722.656 404.464C722.944 404.891 723.211 405.312 723.456 405.728C723.712 406.133 723.909 406.491 724.048 406.8L722.928 407.392C722.789 407.072 722.597 406.704 722.352 406.288C722.117 405.861 721.861 405.429 721.584 404.992C721.307 404.544 721.035 404.133 720.768 403.76ZM720.768 415.968C721.013 415.52 721.28 414.997 721.568 414.4C721.856 413.803 722.144 413.173 722.432 412.512C722.72 411.851 722.981 411.205 723.216 410.576L724.288 411.152C724.064 411.749 723.819 412.368 723.552 413.008C723.296 413.637 723.035 414.256 722.768 414.864C722.501 415.461 722.24 416.016 721.984 416.528L720.768 415.968ZM746.288 405.728H751.376V406.8H746.288V405.728ZM746.832 402.56L747.872 402.752C747.691 403.723 747.467 404.677 747.2 405.616C746.944 406.555 746.656 407.44 746.336 408.272C746.016 409.093 745.664 409.829 745.28 410.48C745.227 410.416 745.147 410.336 745.04 410.24C744.944 410.144 744.837 410.048 744.72 409.952C744.613 409.856 744.517 409.781 744.432 409.728C744.816 409.141 745.157 408.464 745.456 407.696C745.755 406.928 746.016 406.107 746.24 405.232C746.475 404.347 746.672 403.456 746.832 402.56ZM749.104 406.384L750.176 406.48C749.973 408.304 749.648 409.904 749.2 411.28C748.763 412.645 748.139 413.824 747.328 414.816C746.528 415.797 745.488 416.624 744.208 417.296C744.176 417.221 744.117 417.125 744.032 417.008C743.957 416.891 743.877 416.773 743.792 416.656C743.717 416.549 743.643 416.459 743.568 416.384C744.795 415.808 745.781 415.061 746.528 414.144C747.285 413.227 747.861 412.128 748.256 410.848C748.661 409.568 748.944 408.08 749.104 406.384ZM746.768 406.832C746.971 408.251 747.264 409.584 747.648 410.832C748.032 412.08 748.539 413.173 749.168 414.112C749.797 415.051 750.576 415.771 751.504 416.272C751.419 416.347 751.323 416.437 751.216 416.544C751.12 416.651 751.024 416.763 750.928 416.88C750.843 416.997 750.773 417.109 750.72 417.216C749.76 416.619 748.96 415.819 748.32 414.816C747.691 413.803 747.184 412.629 746.8 411.296C746.416 409.963 746.112 408.523 745.888 406.976L746.768 406.832ZM740.448 402.56H741.408V410.96H740.448V402.56ZM738.752 404.432V407.152H743.248V404.432H738.752ZM737.792 403.6H744.224V408H737.792V403.6ZM738.464 409.456V410.528H743.488V409.456H738.464ZM737.424 408.688H744.56V411.312H737.424V408.688ZM736.704 405.264H738.192V405.312H743.552V405.264H745.136V406.176H743.552V406.128H738.192V406.176H736.704V405.264ZM737.808 414.624C738.064 414.293 738.325 413.915 738.592 413.488C738.869 413.061 739.131 412.624 739.376 412.176C739.621 411.717 739.829 411.285 740 410.88L741.008 411.104C740.816 411.531 740.592 411.973 740.336 412.432C740.091 412.88 739.835 413.312 739.568 413.728C739.312 414.144 739.072 414.507 738.848 414.816L737.808 414.624ZM737.808 414.624L738.592 413.968C739.211 414.128 739.861 414.336 740.544 414.592C741.227 414.837 741.872 415.093 742.48 415.36C743.099 415.627 743.621 415.883 744.048 416.128L743.264 416.848C742.859 416.603 742.347 416.336 741.728 416.048C741.12 415.771 740.469 415.509 739.776 415.264C739.093 415.008 738.437 414.795 737.808 414.624ZM742.416 411.68H743.392V412.24C743.392 412.581 743.355 412.933 743.28 413.296C743.205 413.659 743.051 414.027 742.816 414.4C742.592 414.763 742.251 415.12 741.792 415.472C741.333 415.813 740.725 416.133 739.968 416.432C739.211 416.741 738.261 417.019 737.12 417.264C737.067 417.147 736.987 417.008 736.88 416.848C736.784 416.688 736.688 416.56 736.592 416.464C737.669 416.251 738.56 416.011 739.264 415.744C739.979 415.477 740.544 415.195 740.96 414.896C741.387 414.587 741.701 414.277 741.904 413.968C742.117 413.648 742.256 413.344 742.32 413.056C742.384 412.757 742.416 412.48 742.416 412.224V411.68ZM736.704 412.336H745.008V413.216H736.704V412.336ZM752.176 418.864L756.976 403.296H758.032L753.248 418.864H752.176ZM767.93 402.752H769.13V417.28H767.93V402.752ZM765.178 403.36L766.33 403.6C766.18 404.336 765.999 405.067 765.786 405.792C765.583 406.507 765.348 407.173 765.082 407.792C764.826 408.411 764.543 408.965 764.234 409.456C764.159 409.392 764.058 409.323 763.93 409.248C763.812 409.173 763.684 409.099 763.546 409.024C763.418 408.949 763.306 408.891 763.21 408.848C763.519 408.411 763.796 407.899 764.042 407.312C764.298 406.715 764.522 406.08 764.714 405.408C764.906 404.736 765.06 404.053 765.178 403.36ZM765.322 405.84H772.81V407.008H765.034L765.322 405.84ZM763.338 410.544H773.514V411.728H763.338V410.544ZM762.554 402.624L763.69 402.96C763.348 403.867 762.954 404.763 762.506 405.648C762.068 406.523 761.588 407.349 761.066 408.128C760.554 408.896 760.02 409.584 759.466 410.192C759.423 410.096 759.359 409.973 759.274 409.824C759.199 409.675 759.114 409.525 759.018 409.376C758.932 409.216 758.852 409.093 758.778 409.008C759.279 408.485 759.759 407.883 760.218 407.2C760.687 406.517 761.119 405.787 761.514 405.008C761.919 404.219 762.266 403.424 762.554 402.624ZM760.938 406.736L762.074 405.6L762.09 405.616V417.248H760.938V406.736Z" fill="#4F4F4F"/>
<defs>
<linearGradient id="paint0_linear_1766_38583" x1="600" y1="135" x2="600" y2="364" gradientUnits="userSpaceOnUse">
<stop stop-color="#1DA637"/>
<stop offset="1" stop-color="white"/>
</linearGradient>
<linearGradient id="paint1_linear_1766_38583" x1="600" y1="47" x2="600" y2="364.542" gradientUnits="userSpaceOnUse">
<stop stop-color="#0087B0"/>
<stop offset="1" stop-color="white"/>
</linearGradient>
<linearGradient id="paint2_linear_1766_38583" x1="120" y1="219" x2="120" y2="227" gradientUnits="userSpaceOnUse">
<stop stop-color="#6FC7E2"/>
<stop offset="1" stop-color="#00AED4"/>
</linearGradient>
<linearGradient id="paint3_linear_1766_38583" x1="120.1" y1="208.093" x2="120.1" y2="218.478" gradientUnits="userSpaceOnUse">
<stop stop-color="#A6CC94"/>
<stop offset="1" stop-color="#1DA637"/>
</linearGradient>
<linearGradient id="paint4_linear_1766_38583" x1="360.1" y1="198.093" x2="360.1" y2="208.478" gradientUnits="userSpaceOnUse">
<stop stop-color="#A6CC94"/>
<stop offset="1" stop-color="#1DA637"/>
</linearGradient>
<linearGradient id="paint5_linear_1766_38583" x1="600.1" y1="145.093" x2="600.1" y2="155.478" gradientUnits="userSpaceOnUse">
<stop stop-color="#A6CC94"/>
<stop offset="1" stop-color="#1DA637"/>
</linearGradient>
<linearGradient id="paint6_linear_1766_38583" x1="840.1" y1="130.093" x2="840.1" y2="140.478" gradientUnits="userSpaceOnUse">
<stop stop-color="#A6CC94"/>
<stop offset="1" stop-color="#1DA637"/>
</linearGradient>
<linearGradient id="paint7_linear_1766_38583" x1="1080.1" y1="148.089" x2="1080.1" y2="158.479" gradientUnits="userSpaceOnUse">
<stop stop-color="#A6CC94"/>
<stop offset="1" stop-color="#1DA637"/>
</linearGradient>
<linearGradient id="paint8_linear_1766_38583" x1="360" y1="229" x2="360" y2="237" gradientUnits="userSpaceOnUse">
<stop stop-color="#6FC7E2"/>
<stop offset="1" stop-color="#00AED4"/>
</linearGradient>
<linearGradient id="paint9_linear_1766_38583" x1="600" y1="211" x2="600" y2="219" gradientUnits="userSpaceOnUse">
<stop stop-color="#6FC7E2"/>
<stop offset="1" stop-color="#00AED4"/>
</linearGradient>
<linearGradient id="paint10_linear_1766_38583" x1="840" y1="123" x2="840" y2="131" gradientUnits="userSpaceOnUse">
<stop stop-color="#6FC7E2"/>
<stop offset="1" stop-color="#00AED4"/>
</linearGradient>
<linearGradient id="paint11_linear_1766_38583" x1="1080" y1="43" x2="1080" y2="51" gradientUnits="userSpaceOnUse">
<stop stop-color="#6FC7E2"/>
<stop offset="1" stop-color="#00AED4"/>
</linearGradient>
<linearGradient id="paint12_linear_1766_38583" x1="430.1" y1="404.093" x2="430.1" y2="414.478" gradientUnits="userSpaceOnUse">
<stop stop-color="#A6CC94"/>
<stop offset="1" stop-color="#1DA637"/>
</linearGradient>
<linearGradient id="paint13_linear_1766_38583" x1="659" y1="405" x2="659" y2="413" gradientUnits="userSpaceOnUse">
<stop stop-color="#6FC7E2"/>
<stop offset="1" stop-color="#00AED4"/>
</linearGradient>
</defs>
</svg>
