<svg width="876" height="350" viewBox="0 0 876 350" fill="none" xmlns="http://www.w3.org/2000/svg">
<g clip-path="url(#clip0_281_20495)">
<path d="M876 0H0V350H876V0Z" fill="white"/>
<path d="M415 102.453H152V103.397H415V102.453Z" fill="#E7E7E7"/>
<mask id="mask0_281_20495" style="mask-type:luminance" maskUnits="userSpaceOnUse" x="152" y="179" width="10" height="10">
<path d="M162 179H152V189H162V179Z" fill="white"/>
</mask>
<g mask="url(#mask0_281_20495)">
<path d="M161.906 184.098L156.906 179.098L151.906 184.098L156.906 189.098L161.906 184.098Z" fill="url(#paint0_linear_281_20495)"/>
</g>
<path d="M179.583 186.448H175.775V188.304H179.583V186.448ZM180.575 189.184H175.775V189.92H174.735V185.552H180.575V189.184ZM183.807 181.664V189.904C183.807 190.528 183.647 190.8 183.183 190.976C182.703 191.12 181.903 191.136 180.543 191.136C180.479 190.848 180.335 190.48 180.175 190.224C181.167 190.256 182.095 190.24 182.351 190.224C182.607 190.208 182.703 190.144 182.703 189.888V182.656H179.471V183.696C179.471 184.048 179.519 184.176 179.775 184.176H181.215C181.455 184.176 181.871 184.16 182.095 184.112C182.111 184.384 182.143 184.704 182.175 184.96C181.983 185.04 181.599 185.04 181.247 185.04H179.567C178.591 185.04 178.399 184.624 178.399 183.68V182.656H176.591C176.351 184.32 175.599 185.2 173.391 185.696C173.295 185.44 173.039 185.056 172.815 184.864C174.687 184.528 175.311 183.888 175.535 182.656H172.783V191.2H171.647V181.664H179.039C179.455 181.024 179.951 180.128 180.207 179.488L181.407 179.76C181.023 180.4 180.591 181.104 180.175 181.664H183.807ZM174.127 179.744L175.135 179.408C175.487 179.968 175.935 180.72 176.143 181.184L175.119 181.6C174.895 181.136 174.463 180.336 174.127 179.744ZM178.575 178.336H184.687V179.36H170.735V178.336H177.343C177.183 177.856 176.975 177.28 176.783 176.832L177.887 176.544C178.111 177.104 178.399 177.808 178.575 178.336ZM191.423 188.24L192.319 188.656C191.167 189.52 189.071 190.336 187.407 190.72C187.247 190.432 186.927 190.048 186.687 189.824C188.335 189.552 190.367 188.928 191.423 188.24ZM195.295 188.8L195.999 188.16C197.503 188.656 199.535 189.424 200.639 189.936L199.903 190.688C198.847 190.176 196.815 189.36 195.295 188.8ZM196.239 180.448H191.247C191.615 180.944 191.951 181.6 192.095 182.032L191.439 182.208H195.855L195.295 182.032C195.615 181.584 196.015 180.912 196.239 180.448ZM194.255 186.432H200.671V187.44H194.255V191.232H193.087V187.44H186.767V186.432H193.087V185.232H188.271V184.32H193.087V183.168H187.455V182.208H190.911C190.751 181.76 190.431 181.136 190.095 180.672L190.943 180.448H186.815V179.456H189.391C189.151 178.816 188.607 177.856 188.111 177.136L189.119 176.784C189.679 177.504 190.255 178.496 190.479 179.136L189.679 179.456H191.631V176.624H192.751V179.456H194.655V176.624H195.791V179.456H197.727L197.087 179.248C197.535 178.592 198.047 177.536 198.319 176.816L199.535 177.152C199.087 177.968 198.559 178.848 198.143 179.456H200.607V180.448H196.447L197.487 180.736C197.119 181.264 196.735 181.808 196.383 182.208H200.047V183.168H194.255V184.32H199.263V185.232H194.255V186.432ZM214.335 179.712V178.224H208.831V179.712H214.335ZM214.335 182.144V180.624H208.831V182.144H214.335ZM215.535 177.264V183.104H207.663V177.264H215.535ZM205.887 176.672L207.023 177.008C206.591 178.224 206.031 179.424 205.407 180.576V191.2H204.239V182.464C203.791 183.12 203.311 183.712 202.831 184.256C202.703 183.952 202.351 183.312 202.127 183.024C203.631 181.472 205.039 179.088 205.887 176.672ZM208.143 189.552H215.055V187.856H208.143V189.552ZM215.055 185.248H208.143V186.848H215.055V185.248ZM206.975 184.224H216.271V191.136H215.055V190.592H208.143V191.216H206.975V184.224ZM232.863 182.016V182.928H223.487V182.016H227.615V180.912H224.591V180.096H227.615V179.056H224.063V178.176H226.031C225.807 177.776 225.503 177.312 225.215 176.944L226.063 176.608C226.463 177.056 226.911 177.712 227.071 178.144L226.991 178.176H229.455C229.759 177.728 230.143 177.04 230.335 176.592L231.391 176.912C231.103 177.36 230.783 177.808 230.527 178.176H232.527V179.056H228.767V180.096H232.111V180.912H228.767V182.016H232.863ZM230.303 183.84L230.991 183.312C231.647 183.728 232.399 184.352 232.751 184.816L232.031 185.408C231.679 184.944 230.943 184.272 230.303 183.84ZM221.631 178.784L220.703 179.168C220.591 178.608 220.239 177.696 219.903 177.008L220.783 176.704C221.135 177.36 221.503 178.24 221.631 178.784ZM222.079 186.656H219.823V189.344H222.079V186.656ZM222.991 185.696V190.304H219.823V191.056H218.927V185.696H222.991ZM218.959 184.496V183.536H223.023V184.496H218.959ZM218.959 182.368V181.424H223.023V182.368H218.959ZM218.399 180.304V179.328H223.391V180.304H218.399ZM231.327 186.896L232.207 187.296C231.807 188 231.247 188.64 230.623 189.232C230.991 190 231.407 190.384 231.855 190.384C232.111 190.384 232.271 190.032 232.351 189.008C232.559 189.216 232.863 189.344 233.103 189.44C232.927 190.88 232.559 191.344 231.775 191.36C230.959 191.36 230.335 190.848 229.839 189.888C229.215 190.352 228.527 190.752 227.839 191.056C227.727 190.88 227.439 190.592 227.231 190.416C228.015 190.064 228.799 189.616 229.487 189.056C229.247 188.368 229.071 187.52 228.927 186.528H226.783V187.616L228.479 187.376L228.511 188.256L226.783 188.512V190.128C226.783 190.672 226.655 190.928 226.255 191.088C225.871 191.232 225.263 191.232 224.335 191.232C224.287 190.976 224.127 190.608 223.999 190.336C224.671 190.352 225.295 190.352 225.471 190.352C225.663 190.336 225.711 190.288 225.711 190.112V188.672L223.567 188.992L223.407 188.032C224.063 187.968 224.847 187.856 225.711 187.744V186.528H223.471V185.616H225.711V184.528C225.119 184.608 224.543 184.688 223.983 184.736C223.935 184.528 223.823 184.208 223.711 183.984C225.103 183.824 226.767 183.552 227.679 183.216L228.367 183.952C227.903 184.112 227.359 184.24 226.783 184.336V185.616H228.815C228.751 184.912 228.703 184.144 228.671 183.312H229.695C229.711 184.16 229.759 184.928 229.823 185.616H232.895V186.528H229.935C230.031 187.216 230.159 187.808 230.303 188.32C230.719 187.872 231.071 187.392 231.327 186.896ZM238.009 186.08V184.96H242.105V186.08H238.009ZM247.806 190V188.784H250.414V180.032H248.334V179.104C249.374 178.912 250.126 178.64 250.766 178.256H251.886V188.784H254.238V190H247.806ZM256.681 190V188.784H259.289V180.032H257.209V179.104C258.249 178.912 259.001 178.64 259.641 178.256H260.761V188.784H263.113V190H256.681ZM265.348 193.04L264.996 192.176C266.004 191.728 266.596 190.944 266.596 190C266.532 190.016 266.484 190.016 266.42 190.016C265.86 190.016 265.348 189.664 265.348 188.992C265.348 188.368 265.86 187.968 266.452 187.968C267.22 187.968 267.684 188.624 267.684 189.696C267.684 191.232 266.788 192.432 265.348 193.04ZM270.01 190V188.784H272.618V180.032H270.538V179.104C271.578 178.912 272.33 178.64 272.97 178.256H274.09V188.784H276.442V190H270.01ZM281.653 190.208C279.829 190.208 278.709 189.44 277.925 188.656L278.645 187.696C279.317 188.368 280.165 188.992 281.525 188.992C282.901 188.992 284.021 187.936 284.021 186.224C284.021 184.544 283.061 183.552 281.589 183.552C280.805 183.552 280.309 183.792 279.637 184.24L278.853 183.76L279.221 178.256H284.933V179.52H280.501L280.213 182.912C280.741 182.624 281.253 182.448 281.957 182.448C283.909 182.448 285.493 183.6 285.493 186.176C285.493 188.752 283.637 190.208 281.653 190.208ZM290.576 190.208C288.736 190.208 287.584 189.44 286.816 188.608L287.552 187.648C288.24 188.368 289.136 188.992 290.464 188.992C291.856 188.992 292.848 188.16 292.848 186.8C292.848 185.408 291.904 184.464 289.2 184.464V183.344C291.616 183.344 292.448 182.368 292.448 181.104C292.448 179.984 291.68 179.248 290.464 179.248C289.52 179.248 288.688 179.712 288.032 180.384L287.248 179.456C288.128 178.64 289.168 178.048 290.528 178.048C292.496 178.048 293.936 179.136 293.936 180.992C293.936 182.416 293.088 183.36 291.856 183.824V183.888C293.232 184.208 294.336 185.264 294.336 186.864C294.336 188.96 292.656 190.208 290.576 190.208ZM296.427 193.04L296.075 192.176C297.083 191.728 297.675 190.944 297.675 190C297.611 190.016 297.563 190.016 297.499 190.016C296.939 190.016 296.427 189.664 296.427 188.992C296.427 188.368 296.939 187.968 297.531 187.968C298.299 187.968 298.763 188.624 298.763 189.696C298.763 191.232 297.867 192.432 296.427 193.04ZM301.088 190V188.784H303.696V180.032H301.616V179.104C302.656 178.912 303.408 178.64 304.048 178.256H305.168V188.784H307.52V190H301.088ZM313.243 183.808C312.507 183.808 311.563 184.24 310.843 185.312C311.019 187.744 311.899 189.072 313.371 189.072C314.491 189.072 315.371 188 315.371 186.4C315.371 184.816 314.667 183.808 313.243 183.808ZM313.371 190.208C311.115 190.208 309.451 188.272 309.451 184.4C309.451 179.808 311.515 178.048 313.787 178.048C315.003 178.048 315.883 178.56 316.523 179.248L315.723 180.16C315.259 179.6 314.555 179.264 313.835 179.264C312.235 179.264 310.875 180.496 310.811 184.144C311.531 183.264 312.555 182.72 313.483 182.72C315.467 182.72 316.731 183.952 316.731 186.4C316.731 188.672 315.195 190.208 313.371 190.208ZM318.838 190V188.784H321.446V180.032H319.366V179.104C320.406 178.912 321.158 178.64 321.798 178.256H322.918V188.784H325.27V190H318.838ZM339.985 177.872V179.008H328.721V177.872H339.985ZM337.585 189.808H339.649C340.289 189.808 340.385 189.392 340.465 186.944C340.737 187.168 341.249 187.376 341.569 187.472C341.441 190.192 341.121 190.944 339.729 190.944H337.441C336.017 190.944 335.633 190.528 335.633 189.168V183.472H332.641C332.337 186.896 331.569 189.696 327.889 191.184C327.745 190.896 327.409 190.464 327.137 190.256C330.545 188.96 331.137 186.464 331.377 183.472H327.329V182.32H341.329V183.472H336.833V189.152C336.833 189.696 336.961 189.808 337.585 189.808Z" fill="#4F4F4F"/>
<path d="M169.692 214.312H174.684V215.416H169.692V214.312ZM172.044 219.016L173.212 217.624V226.264H172.044V219.016ZM173.164 217.928C173.281 218.013 173.452 218.173 173.676 218.408C173.91 218.632 174.161 218.877 174.428 219.144C174.694 219.4 174.94 219.64 175.164 219.864C175.388 220.088 175.548 220.253 175.644 220.36L174.892 221.352C174.764 221.181 174.593 220.968 174.38 220.712C174.166 220.445 173.937 220.173 173.692 219.896C173.446 219.619 173.212 219.363 172.988 219.128C172.774 218.883 172.598 218.685 172.46 218.536L173.164 217.928ZM174.316 214.312H174.572L174.78 214.264L175.436 214.728C175.062 215.656 174.572 216.552 173.964 217.416C173.356 218.28 172.689 219.069 171.964 219.784C171.249 220.488 170.529 221.08 169.804 221.56C169.782 221.443 169.74 221.309 169.676 221.16C169.612 221.011 169.542 220.867 169.468 220.728C169.404 220.579 169.34 220.467 169.276 220.392C169.948 219.987 170.614 219.475 171.276 218.856C171.937 218.237 172.534 217.56 173.068 216.824C173.601 216.077 174.017 215.32 174.316 214.552V214.312ZM171.388 212.072L172.3 211.544C172.609 211.853 172.908 212.205 173.196 212.6C173.494 212.984 173.718 213.32 173.868 213.608L172.892 214.216C172.753 213.917 172.54 213.565 172.252 213.16C171.974 212.755 171.686 212.392 171.388 212.072ZM174.972 224.472H184.204V225.656H174.972V224.472ZM175.724 216.584H183.852V217.736H175.724V216.584ZM179.228 211.512H180.444V225.048H179.228V211.512ZM191.772 215.272V217.128H195.436V215.272H191.772ZM190.636 214.408H196.636V217.992H190.636V214.408ZM189.9 219.96V222.328H192.044V219.96H189.9ZM188.892 219.064H193.084V223.192H188.892V219.064ZM195.212 219.96V222.328H197.436V219.96H195.212ZM194.172 219.064H198.508V223.192H194.172V219.064ZM185.788 212.296H199.292V213.384H185.788V212.296ZM186.444 212.376H187.612V222.472C187.612 222.931 187.686 223.304 187.836 223.592C187.996 223.869 188.246 224.077 188.588 224.216C188.929 224.344 189.393 224.408 189.98 224.408C190.15 224.408 190.417 224.408 190.78 224.408C191.153 224.408 191.58 224.408 192.06 224.408C192.54 224.408 193.036 224.408 193.548 224.408C194.07 224.408 194.572 224.408 195.052 224.408C195.542 224.408 195.98 224.408 196.364 224.408C196.748 224.408 197.03 224.408 197.212 224.408C197.51 224.408 197.825 224.403 198.156 224.392C198.497 224.371 198.822 224.349 199.132 224.328C199.452 224.307 199.708 224.275 199.9 224.232C199.91 224.339 199.926 224.467 199.948 224.616C199.969 224.765 199.99 224.909 200.012 225.048C200.044 225.187 200.07 225.304 200.092 225.4C199.942 225.432 199.718 225.459 199.42 225.48C199.121 225.501 198.78 225.512 198.396 225.512C198.012 225.523 197.612 225.528 197.196 225.528C197.004 225.528 196.71 225.528 196.316 225.528C195.921 225.528 195.473 225.528 194.972 225.528C194.47 225.528 193.958 225.528 193.436 225.528C192.913 225.528 192.412 225.528 191.932 225.528C191.462 225.528 191.062 225.528 190.732 225.528C190.412 225.528 190.198 225.528 190.092 225.528C189.27 225.528 188.588 225.427 188.044 225.224C187.51 225.032 187.11 224.707 186.844 224.248C186.577 223.789 186.444 223.171 186.444 222.392V212.376ZM201.388 220.024C202.038 219.864 202.812 219.661 203.708 219.416C204.604 219.16 205.516 218.899 206.444 218.632L206.604 219.736C205.761 219.992 204.913 220.248 204.06 220.504C203.206 220.749 202.433 220.979 201.74 221.192L201.388 220.024ZM201.58 214.792H206.94V215.928H201.58V214.792ZM203.772 211.56H204.94V224.76C204.94 225.091 204.897 225.347 204.812 225.528C204.726 225.709 204.577 225.848 204.364 225.944C204.15 226.029 203.868 226.083 203.516 226.104C203.164 226.136 202.716 226.152 202.172 226.152C202.15 226.003 202.102 225.821 202.028 225.608C201.964 225.395 201.889 225.208 201.804 225.048C202.177 225.059 202.518 225.064 202.828 225.064C203.148 225.064 203.356 225.064 203.452 225.064C203.569 225.053 203.649 225.027 203.692 224.984C203.745 224.941 203.772 224.867 203.772 224.76V211.56ZM208.716 212.136H212.908V213.256H208.716V212.136ZM206.86 218.632H214.236V219.752H206.86V218.632ZM213.82 218.632H214.06L214.284 218.584L215.068 218.92C214.705 219.976 214.225 220.909 213.628 221.72C213.03 222.531 212.342 223.235 211.564 223.832C210.785 224.429 209.937 224.931 209.02 225.336C208.113 225.741 207.169 226.067 206.188 226.312C206.166 226.195 206.118 226.067 206.044 225.928C205.98 225.8 205.905 225.667 205.82 225.528C205.745 225.4 205.665 225.293 205.58 225.208C206.497 225.016 207.382 224.744 208.236 224.392C209.1 224.04 209.894 223.603 210.62 223.08C211.356 222.547 211.996 221.928 212.54 221.224C213.094 220.509 213.521 219.709 213.82 218.824V218.632ZM208.348 219.448C208.785 220.419 209.377 221.293 210.124 222.072C210.87 222.84 211.756 223.491 212.78 224.024C213.804 224.547 214.94 224.936 216.188 225.192C216.102 225.277 216.006 225.384 215.9 225.512C215.804 225.651 215.713 225.789 215.628 225.928C215.542 226.067 215.473 226.189 215.42 226.296C213.489 225.837 211.841 225.059 210.476 223.96C209.11 222.861 208.054 221.485 207.308 219.832L208.348 219.448ZM208.412 212.136H209.548V213.928C209.548 214.419 209.484 214.925 209.356 215.448C209.228 215.96 208.988 216.461 208.636 216.952C208.294 217.432 207.793 217.859 207.132 218.232C207.078 218.147 207.004 218.051 206.908 217.944C206.812 217.827 206.71 217.715 206.604 217.608C206.497 217.491 206.406 217.405 206.332 217.352C206.94 217.021 207.388 216.664 207.676 216.28C207.974 215.885 208.172 215.485 208.268 215.08C208.364 214.675 208.412 214.28 208.412 213.896V212.136ZM212.348 212.136H213.5V215.848C213.5 216.072 213.516 216.232 213.548 216.328C213.59 216.413 213.676 216.456 213.804 216.456C213.878 216.456 214.001 216.456 214.172 216.456C214.342 216.456 214.513 216.456 214.684 216.456C214.854 216.456 214.972 216.456 215.036 216.456C215.164 216.456 215.302 216.451 215.452 216.44C215.601 216.419 215.729 216.397 215.836 216.376C215.857 216.525 215.873 216.701 215.884 216.904C215.894 217.107 215.916 217.277 215.948 217.416C215.841 217.448 215.708 217.469 215.548 217.48C215.388 217.491 215.228 217.496 215.068 217.496C214.982 217.496 214.844 217.496 214.652 217.496C214.46 217.496 214.273 217.496 214.092 217.496C213.921 217.496 213.798 217.496 213.724 217.496C213.35 217.496 213.062 217.443 212.86 217.336C212.657 217.229 212.518 217.053 212.444 216.808C212.38 216.563 212.348 216.232 212.348 215.816V212.136ZM220.908 219.912V221.016H228.972V219.912H220.908ZM220.908 221.784V222.904H228.972V221.784H220.908ZM220.908 218.056V219.128H228.972V218.056H220.908ZM219.74 217.24H230.172V223.704H219.74V217.24ZM226.364 224.456L227.18 223.8C227.756 223.971 228.337 224.163 228.924 224.376C229.51 224.579 230.06 224.781 230.572 224.984C231.094 225.176 231.548 225.363 231.932 225.544L230.86 226.232C230.518 226.051 230.108 225.859 229.628 225.656C229.148 225.464 228.625 225.261 228.06 225.048C227.505 224.835 226.94 224.637 226.364 224.456ZM222.412 223.816L223.516 224.312C223.078 224.568 222.577 224.819 222.012 225.064C221.457 225.309 220.881 225.533 220.284 225.736C219.686 225.939 219.121 226.115 218.588 226.264C218.524 226.179 218.438 226.077 218.332 225.96C218.225 225.853 218.113 225.741 217.996 225.624C217.889 225.517 217.788 225.427 217.692 225.352C218.246 225.235 218.812 225.101 219.388 224.952C219.974 224.792 220.529 224.616 221.052 224.424C221.574 224.221 222.028 224.019 222.412 223.816ZM224.252 212.648H230.844V213.576H224.252V212.648ZM224.508 211.512L225.58 211.752C225.366 212.413 225.078 213.048 224.716 213.656C224.353 214.264 223.969 214.776 223.564 215.192C223.5 215.128 223.409 215.059 223.292 214.984C223.185 214.909 223.073 214.835 222.956 214.76C222.838 214.675 222.737 214.611 222.652 214.568C223.068 214.184 223.436 213.725 223.756 213.192C224.076 212.659 224.326 212.099 224.508 211.512ZM226.412 213.224H227.532V213.784C227.532 214.083 227.478 214.392 227.372 214.712C227.265 215.032 227.041 215.347 226.7 215.656C226.369 215.955 225.868 216.232 225.196 216.488C224.524 216.744 223.628 216.957 222.508 217.128C222.444 216.989 222.348 216.829 222.22 216.648C222.092 216.467 221.969 216.323 221.852 216.216C222.897 216.077 223.724 215.912 224.332 215.72C224.94 215.517 225.393 215.304 225.692 215.08C225.99 214.856 226.182 214.632 226.268 214.408C226.364 214.173 226.412 213.949 226.412 213.736V213.224ZM227.372 214.184C227.638 214.525 228.012 214.829 228.492 215.096C228.972 215.363 229.532 215.581 230.172 215.752C230.812 215.912 231.494 216.024 232.22 216.088C232.102 216.195 231.974 216.344 231.836 216.536C231.708 216.728 231.612 216.899 231.548 217.048C230.78 216.941 230.065 216.771 229.404 216.536C228.753 216.291 228.182 215.987 227.692 215.624C227.201 215.261 226.806 214.845 226.508 214.376L227.372 214.184ZM217.964 212.504H221.82V213.448H217.964V212.504ZM217.612 215.016H222.236V215.976H217.612V215.016ZM230.46 212.648H230.652L230.844 212.584L231.644 212.856C231.441 213.261 231.222 213.677 230.988 214.104C230.753 214.531 230.518 214.893 230.284 215.192L229.356 214.856C229.537 214.579 229.729 214.253 229.932 213.88C230.145 213.507 230.321 213.149 230.46 212.808V212.648ZM237.158 221.08V219.96H241.27V221.08H237.158ZM253.605 225.208C252.88 225.208 252.234 225.075 251.669 224.808C251.104 224.541 250.661 224.173 250.341 223.704C250.021 223.235 249.861 222.696 249.861 222.088C249.861 221.565 249.962 221.096 250.165 220.68C250.378 220.253 250.65 219.891 250.981 219.592C251.312 219.283 251.653 219.032 252.005 218.84V218.776C251.578 218.477 251.205 218.109 250.885 217.672C250.576 217.224 250.421 216.691 250.421 216.072C250.421 215.475 250.56 214.957 250.837 214.52C251.125 214.072 251.509 213.725 251.989 213.48C252.48 213.224 253.029 213.096 253.637 213.096C254.309 213.096 254.885 213.229 255.365 213.496C255.845 213.763 256.213 214.125 256.469 214.584C256.725 215.043 256.853 215.576 256.853 216.184C256.853 216.589 256.768 216.973 256.597 217.336C256.437 217.699 256.24 218.024 256.005 218.312C255.77 218.589 255.536 218.824 255.301 219.016V219.096C255.642 219.288 255.962 219.523 256.261 219.8C256.56 220.067 256.8 220.397 256.981 220.792C257.173 221.176 257.269 221.64 257.269 222.184C257.269 222.739 257.114 223.251 256.805 223.72C256.506 224.179 256.08 224.541 255.525 224.808C254.981 225.075 254.341 225.208 253.605 225.208ZM254.405 218.632C254.8 218.28 255.098 217.907 255.301 217.512C255.504 217.107 255.605 216.691 255.605 216.264C255.605 215.869 255.525 215.517 255.365 215.208C255.216 214.899 254.992 214.653 254.693 214.472C254.394 214.28 254.037 214.184 253.621 214.184C253.077 214.184 252.629 214.355 252.277 214.696C251.925 215.037 251.749 215.496 251.749 216.072C251.749 216.531 251.872 216.92 252.117 217.24C252.373 217.549 252.704 217.816 253.109 218.04C253.514 218.253 253.946 218.451 254.405 218.632ZM253.621 224.12C254.08 224.12 254.474 224.035 254.805 223.864C255.146 223.693 255.408 223.459 255.589 223.16C255.781 222.861 255.877 222.52 255.877 222.136C255.877 221.741 255.792 221.405 255.621 221.128C255.45 220.84 255.221 220.589 254.933 220.376C254.656 220.163 254.33 219.971 253.957 219.8C253.584 219.629 253.189 219.464 252.773 219.304C252.304 219.603 251.914 219.981 251.605 220.44C251.306 220.888 251.157 221.395 251.157 221.96C251.157 222.365 251.264 222.733 251.477 223.064C251.69 223.395 251.984 223.656 252.357 223.848C252.741 224.029 253.162 224.12 253.621 224.12ZM259.2 228.04L258.848 227.176C259.349 226.952 259.744 226.648 260.032 226.264C260.32 225.88 260.459 225.443 260.448 224.952L260.288 223.64L261.008 224.712C260.901 224.829 260.784 224.915 260.656 224.968C260.539 225.011 260.411 225.032 260.272 225.032C259.984 225.032 259.733 224.941 259.52 224.76C259.307 224.579 259.2 224.328 259.2 224.008C259.2 223.688 259.307 223.437 259.52 223.256C259.744 223.075 260.005 222.984 260.304 222.984C260.688 222.984 260.987 223.139 261.2 223.448C261.424 223.747 261.536 224.163 261.536 224.696C261.536 225.464 261.323 226.136 260.896 226.712C260.48 227.288 259.915 227.731 259.2 228.04ZM263.861 225V223.784H266.485V215.032H264.389V214.104C264.912 214.008 265.365 213.891 265.749 213.752C266.144 213.613 266.501 213.453 266.821 213.272H267.941V223.784H270.293V225H263.861ZM276.768 225V217C276.768 216.712 276.779 216.36 276.8 215.944C276.821 215.528 276.837 215.171 276.848 214.872H276.784C276.635 215.149 276.48 215.437 276.32 215.736C276.171 216.024 276.011 216.312 275.84 216.6L273.168 220.6H279.712V221.768H271.648V220.808L276.528 213.272H278.144V225H276.768ZM283.963 225.208C283.323 225.208 282.768 225.096 282.299 224.872C281.84 224.637 281.451 224.349 281.131 224.008L281.931 223.096C282.187 223.373 282.486 223.592 282.827 223.752C283.179 223.912 283.542 223.992 283.915 223.992C284.31 223.992 284.683 223.901 285.035 223.72C285.387 223.539 285.696 223.24 285.963 222.824C286.24 222.397 286.454 221.843 286.603 221.16C286.763 220.477 286.843 219.635 286.843 218.632C286.843 217.672 286.742 216.861 286.539 216.2C286.347 215.539 286.059 215.043 285.675 214.712C285.291 214.371 284.827 214.2 284.283 214.2C283.91 214.2 283.574 214.312 283.275 214.536C282.976 214.76 282.736 215.069 282.555 215.464C282.374 215.859 282.283 216.328 282.283 216.872C282.283 217.395 282.358 217.853 282.507 218.248C282.667 218.632 282.902 218.931 283.211 219.144C283.531 219.357 283.92 219.464 284.379 219.464C284.774 219.464 285.184 219.341 285.611 219.096C286.048 218.84 286.464 218.424 286.859 217.848L286.923 219.016C286.688 219.315 286.416 219.581 286.107 219.816C285.808 220.051 285.488 220.232 285.147 220.36C284.816 220.488 284.48 220.552 284.139 220.552C283.488 220.552 282.918 220.413 282.427 220.136C281.947 219.859 281.574 219.448 281.307 218.904C281.04 218.349 280.907 217.672 280.907 216.872C280.907 216.104 281.062 215.437 281.371 214.872C281.68 214.296 282.086 213.853 282.587 213.544C283.099 213.224 283.659 213.064 284.267 213.064C284.832 213.064 285.355 213.181 285.835 213.416C286.315 213.64 286.731 213.987 287.083 214.456C287.435 214.915 287.712 215.491 287.915 216.184C288.118 216.877 288.219 217.693 288.219 218.632C288.219 219.816 288.102 220.829 287.867 221.672C287.632 222.504 287.312 223.181 286.907 223.704C286.502 224.227 286.043 224.611 285.531 224.856C285.03 225.091 284.507 225.208 283.963 225.208ZM290.278 228.04L289.926 227.176C290.427 226.952 290.822 226.648 291.11 226.264C291.398 225.88 291.537 225.443 291.526 224.952L291.366 223.64L292.086 224.712C291.979 224.829 291.862 224.915 291.734 224.968C291.617 225.011 291.489 225.032 291.35 225.032C291.062 225.032 290.811 224.941 290.598 224.76C290.385 224.579 290.278 224.328 290.278 224.008C290.278 223.688 290.385 223.437 290.598 223.256C290.822 223.075 291.083 222.984 291.382 222.984C291.766 222.984 292.065 223.139 292.278 223.448C292.502 223.747 292.614 224.163 292.614 224.696C292.614 225.464 292.401 226.136 291.974 226.712C291.558 227.288 290.993 227.731 290.278 228.04ZM298.971 225V217C298.971 216.712 298.982 216.36 299.003 215.944C299.025 215.528 299.041 215.171 299.051 214.872H298.987C298.838 215.149 298.683 215.437 298.523 215.736C298.374 216.024 298.214 216.312 298.043 216.6L295.371 220.6H301.915V221.768H293.851V220.808L298.731 213.272H300.347V225H298.971ZM305.574 225C305.628 223.891 305.718 222.872 305.846 221.944C305.985 221.005 306.182 220.125 306.438 219.304C306.694 218.472 307.02 217.667 307.414 216.888C307.82 216.109 308.31 215.32 308.886 214.52H303.19V213.272H310.534V214.152C309.852 215.037 309.292 215.885 308.854 216.696C308.428 217.507 308.092 218.333 307.846 219.176C307.612 220.019 307.436 220.915 307.318 221.864C307.212 222.803 307.137 223.848 307.094 225H305.574ZM315.473 225.208C314.865 225.208 314.327 225.133 313.857 224.984C313.399 224.835 312.993 224.643 312.641 224.408C312.3 224.173 311.991 223.923 311.713 223.656L312.449 222.696C312.673 222.92 312.919 223.133 313.185 223.336C313.463 223.528 313.777 223.688 314.129 223.816C314.481 223.933 314.881 223.992 315.329 223.992C315.788 223.992 316.204 223.88 316.577 223.656C316.961 223.432 317.265 223.112 317.489 222.696C317.713 222.28 317.825 221.789 317.825 221.224C317.825 220.392 317.601 219.741 317.153 219.272C316.716 218.792 316.129 218.552 315.393 218.552C315.009 218.552 314.673 218.611 314.385 218.728C314.097 218.845 313.783 219.016 313.441 219.24L312.657 218.744L313.041 213.272H318.737V214.52H314.321L314.017 217.912C314.273 217.763 314.54 217.651 314.817 217.576C315.105 217.491 315.425 217.448 315.777 217.448C316.428 217.448 317.02 217.581 317.553 217.848C318.087 218.104 318.513 218.509 318.833 219.064C319.153 219.619 319.313 220.328 319.313 221.192C319.313 222.045 319.127 222.771 318.753 223.368C318.391 223.965 317.916 224.424 317.329 224.744C316.743 225.053 316.124 225.208 315.473 225.208ZM329.484 218.008H330.7V224.184C330.7 224.472 330.748 224.659 330.844 224.744C330.94 224.819 331.143 224.856 331.452 224.856C331.527 224.856 331.655 224.856 331.836 224.856C332.028 224.856 332.236 224.856 332.46 224.856C332.684 224.856 332.892 224.856 333.084 224.856C333.287 224.856 333.436 224.856 333.532 224.856C333.756 224.856 333.922 224.787 334.028 224.648C334.135 224.499 334.21 224.221 334.252 223.816C334.306 223.4 334.338 222.781 334.348 221.96C334.455 222.035 334.572 222.109 334.7 222.184C334.828 222.248 334.962 222.307 335.1 222.36C335.25 222.413 335.378 222.456 335.484 222.488C335.442 223.405 335.362 224.12 335.244 224.632C335.138 225.133 334.956 225.485 334.7 225.688C334.455 225.891 334.098 225.992 333.628 225.992C333.554 225.992 333.404 225.992 333.18 225.992C332.956 225.992 332.716 225.992 332.46 225.992C332.204 225.992 331.964 225.992 331.74 225.992C331.527 225.992 331.383 225.992 331.308 225.992C330.839 225.992 330.466 225.939 330.188 225.832C329.922 225.725 329.735 225.539 329.628 225.272C329.532 225.016 329.484 224.659 329.484 224.2V218.008ZM321.1 217.288H335.228V218.472H321.1V217.288ZM322.508 212.808H333.868V213.96H322.508V212.808ZM325.196 218.2H326.476C326.402 219.096 326.29 219.944 326.14 220.744C325.991 221.544 325.746 222.291 325.404 222.984C325.074 223.667 324.604 224.285 323.996 224.84C323.399 225.395 322.626 225.859 321.676 226.232C321.612 226.093 321.506 225.928 321.356 225.736C321.207 225.555 321.063 225.411 320.924 225.304C321.799 224.973 322.503 224.563 323.036 224.072C323.58 223.581 323.996 223.032 324.284 222.424C324.583 221.805 324.796 221.144 324.924 220.44C325.052 219.725 325.143 218.979 325.196 218.2Z" fill="#4F4F4F"/>
<path d="M170.601 262.4L169.545 261.84C170.153 261.024 170.729 259.728 171.049 258.72L172.041 259.168C171.705 260.16 171.193 261.536 170.601 262.4ZM175.449 261.92H178.505C179.273 261.92 179.401 261.68 179.481 259.968C179.753 260.16 180.233 260.336 180.553 260.416C180.409 262.48 180.025 262.976 178.585 262.976H175.369C173.657 262.976 173.209 262.656 173.209 261.44V258.96H174.377V261.424C174.377 261.84 174.537 261.92 175.449 261.92ZM175.609 258.944L176.489 258.496C177.049 259.024 177.737 259.792 178.089 260.288L177.161 260.832C176.857 260.32 176.169 259.504 175.609 258.944ZM180.713 258.912L181.641 258.4C182.345 259.376 183.289 260.704 183.721 261.488L182.729 262.128C182.313 261.328 181.417 259.936 180.713 258.912ZM179.497 250.528H183.753V251.536H179.753L180.009 251.648C179.385 252.512 178.681 253.36 177.993 254.032L180.361 253.856C180.777 253.408 181.177 252.912 181.561 252.432L182.553 252.896C181.321 254.384 179.945 255.792 178.585 256.88L181.721 256.656C181.465 256.24 181.177 255.856 180.937 255.52L181.801 255.184C182.489 256 183.273 257.2 183.593 257.936L182.649 258.352C182.537 258.112 182.393 257.792 182.201 257.472C177.897 257.84 177.369 257.904 177.033 258.048C176.985 257.824 176.825 257.312 176.713 257.024C177.049 256.96 177.449 256.672 177.945 256.224C178.233 256 178.825 255.472 179.497 254.784C177.305 254.976 176.937 255.072 176.697 255.168C176.633 254.944 176.473 254.416 176.345 254.16C176.585 254.128 176.857 253.936 177.113 253.632C177.385 253.392 178.217 252.496 178.809 251.536H173.417L173.673 251.664C173.049 252.512 172.345 253.328 171.641 253.984L173.977 253.808C174.393 253.376 174.793 252.896 175.177 252.432L176.073 253.056C174.777 254.496 173.369 255.84 171.945 256.912L175.017 256.704C174.793 256.32 174.553 255.936 174.329 255.616L175.177 255.28C175.753 256.08 176.409 257.184 176.697 257.872L175.801 258.272C175.721 258.064 175.609 257.824 175.465 257.552C171.145 257.904 170.601 257.968 170.265 258.112C170.201 257.888 170.041 257.36 169.913 257.088C170.281 257.04 170.713 256.736 171.257 256.304C171.593 256.064 172.281 255.472 173.065 254.72C170.921 254.928 170.489 255.024 170.249 255.104V255.12V255.104H170.233V255.088C170.153 254.848 170.009 254.4 169.913 254.176C170.169 254.128 170.441 253.936 170.713 253.648C171.001 253.408 171.881 252.512 172.521 251.536H169.609V250.528H173.545C173.257 250.048 172.857 249.472 172.537 249.04L173.593 248.576C174.089 249.168 174.649 249.984 174.953 250.528H178.185C178.585 249.952 179.081 249.152 179.321 248.576L180.665 248.992C180.281 249.504 179.881 250.064 179.497 250.528ZM196.425 259.84H188.905V261.712H196.425V259.84ZM187.737 263.216V258.88H197.625V263.168H196.425V262.672H188.905V263.216H187.737ZM199.353 254.368V255.296H186.009V254.368H191.993V253.264H187.385V252.368H191.993V251.296H186.441V250.384H189.545C189.353 249.952 188.985 249.376 188.633 248.96L189.673 248.592C190.089 249.024 190.505 249.632 190.681 250.032L189.817 250.384H194.473C194.809 249.856 195.209 249.136 195.433 248.592L196.665 248.88C196.345 249.392 196.025 249.952 195.705 250.384H198.857V251.296H193.193V252.368H197.881V253.264H193.193V254.368H199.353ZM196.521 256.992H199.753V257.952H185.529V256.992H188.761C188.585 256.56 188.265 255.984 187.929 255.6L188.985 255.296C189.385 255.744 189.769 256.352 189.945 256.784L189.273 256.992H195.273C195.593 256.48 195.977 255.776 196.169 255.312L197.337 255.568C197.081 256.064 196.793 256.56 196.521 256.992ZM213.737 252.272V250.144H209.033V252.272H213.737ZM214.889 249.152V253.264H207.897V249.152H214.889ZM206.809 255.504L206.985 256.576C206.265 256.8 205.561 257.024 204.857 257.232V261.808C204.857 262.496 204.681 262.8 204.265 262.992C203.865 263.184 203.193 263.216 202.105 263.2C202.057 262.912 201.881 262.432 201.737 262.128C202.489 262.144 203.193 262.144 203.385 262.128C203.609 262.128 203.689 262.048 203.689 261.824V257.568L201.609 258.176L201.257 257.024C201.929 256.864 202.777 256.64 203.689 256.4V252.944H201.449V251.824H203.689V248.64H204.857V251.824H206.937V252.944H204.857V256.064C205.497 255.872 206.169 255.696 206.809 255.504ZM215.369 254.432V261.84C215.369 262.496 215.225 262.816 214.777 263.008C214.329 263.2 213.577 263.216 212.425 263.216C212.377 262.88 212.233 262.416 212.073 262.096C212.889 262.128 213.657 262.112 213.881 262.112C214.105 262.112 214.169 262.032 214.169 261.84V259.888C212.393 260.336 210.569 260.816 209.129 261.152L208.697 260.016C210.089 259.76 212.137 259.328 214.169 258.88V255.472H208.745V257.456C208.745 259.232 208.489 261.68 207.129 263.328C206.937 263.12 206.425 262.752 206.169 262.624C207.433 261.088 207.577 259.008 207.577 257.44V254.432H215.369ZM209.161 257.264L209.609 256.432C210.953 256.656 212.665 257.168 213.593 257.616L213.129 258.544C212.233 258.08 210.537 257.536 209.161 257.264ZM219.465 257.264V260.016C220.393 259.824 221.401 259.6 222.457 259.376V257.264H219.465ZM222.457 250.48H219.465V252.816H222.457V250.48ZM222.457 256.192V253.888H219.465V256.192H222.457ZM224.457 258.944L224.537 260.016C222.041 260.608 219.353 261.232 217.449 261.664L217.241 260.464L218.377 260.24V249.392H223.577V259.136L224.457 258.944ZM227.849 252.224H231.465C231.465 252.224 231.449 252.672 231.449 252.816C231.289 259.52 231.129 261.792 230.601 262.496C230.297 262.912 229.961 263.04 229.449 263.104C228.969 263.152 228.105 263.12 227.257 263.088C227.225 262.736 227.113 262.256 226.905 261.952C227.817 262.016 228.649 262.016 228.985 262.016C229.257 262.032 229.433 261.984 229.577 261.776C229.977 261.296 230.153 259.184 230.297 253.36H227.801C227.561 257.52 226.681 261.12 223.449 263.264C223.273 262.976 222.889 262.56 222.585 262.384C225.625 260.48 226.425 257.184 226.649 253.36H224.105V252.224H226.697C226.745 251.056 226.745 249.856 226.745 248.624H227.897C227.897 249.856 227.897 251.056 227.849 252.224ZM236.947 258.08V256.96H241.043V258.08H236.947ZM246.744 262V260.784H249.352V252.032H247.272V251.104C248.312 250.912 249.064 250.64 249.704 250.256H250.824V260.784H253.176V262H246.744ZM255.411 265.04L255.059 264.176C256.067 263.728 256.659 262.944 256.659 262C256.595 262.016 256.547 262.016 256.483 262.016C255.923 262.016 255.411 261.664 255.411 260.992C255.411 260.368 255.923 259.968 256.515 259.968C257.283 259.968 257.747 260.624 257.747 261.696C257.747 263.232 256.851 264.432 255.411 265.04ZM259.368 262V261.136C263.048 257.92 264.744 255.584 264.744 253.568C264.744 252.224 264.04 251.248 262.584 251.248C261.624 251.248 260.792 251.84 260.152 252.608L259.304 251.776C260.264 250.736 261.272 250.048 262.76 250.048C264.856 250.048 266.168 251.424 266.168 253.52C266.168 255.856 264.328 258.24 261.576 260.848C262.184 260.8 262.904 260.736 263.496 260.736H266.744V262H259.368ZM269.379 257.6H272.979V254C272.979 253.424 273.027 252.48 273.059 251.872H272.995C272.707 252.448 272.387 253.024 272.051 253.6L269.379 257.6ZM272.979 262V258.768H267.859V257.808L272.739 250.256H274.355V257.6H275.907V258.768H274.355V262H272.979ZM280.638 262.208C278.798 262.208 277.646 261.44 276.878 260.608L277.614 259.648C278.302 260.368 279.198 260.992 280.526 260.992C281.918 260.992 282.91 260.16 282.91 258.8C282.91 257.408 281.966 256.464 279.262 256.464V255.344C281.678 255.344 282.51 254.368 282.51 253.104C282.51 251.984 281.742 251.248 280.526 251.248C279.582 251.248 278.75 251.712 278.094 252.384L277.31 251.456C278.19 250.64 279.23 250.048 280.59 250.048C282.558 250.048 283.998 251.136 283.998 252.992C283.998 254.416 283.15 255.36 281.918 255.824V255.888C283.294 256.208 284.398 257.264 284.398 258.864C284.398 260.96 282.718 262.208 280.638 262.208ZM286.489 265.04L286.137 264.176C287.145 263.728 287.737 262.944 287.737 262C287.673 262.016 287.625 262.016 287.561 262.016C287.001 262.016 286.489 261.664 286.489 260.992C286.489 260.368 287.001 259.968 287.593 259.968C288.361 259.968 288.825 260.624 288.825 261.696C288.825 263.232 287.929 264.432 286.489 265.04ZM294.19 262.208C291.95 262.208 290.526 260.176 290.526 256.096C290.526 252.016 291.95 250.048 294.19 250.048C296.414 250.048 297.838 252.032 297.838 256.096C297.838 260.176 296.414 262.208 294.19 262.208ZM294.19 261.04C295.518 261.04 296.414 259.552 296.414 256.096C296.414 252.672 295.518 251.216 294.19 251.216C292.846 251.216 291.95 252.672 291.95 256.096C291.95 259.552 292.846 261.04 294.19 261.04ZM300.697 253.856C300.697 255.44 301.401 256.464 302.793 256.464C303.593 256.464 304.489 256 305.241 254.896C305.081 252.48 304.185 251.2 302.681 251.2C301.561 251.2 300.697 252.256 300.697 253.856ZM302.361 262.208C301.097 262.208 300.201 261.696 299.545 261.008L300.361 260.096C300.841 260.656 301.561 260.992 302.313 260.992C303.833 260.992 305.145 259.744 305.257 256.112C304.537 256.992 303.529 257.552 302.553 257.552C300.601 257.552 299.321 256.288 299.321 253.856C299.321 251.584 300.857 250.048 302.681 250.048C304.937 250.048 306.617 251.904 306.617 255.632C306.617 260.384 304.569 262.208 302.361 262.208ZM310.66 262C310.852 257.552 311.668 254.72 313.956 251.52H308.276V250.256H315.62V251.152C312.868 254.672 312.356 257.408 312.18 262H310.66ZM330.047 249.872V251.008H318.783V249.872H330.047ZM327.647 261.808H329.711C330.351 261.808 330.447 261.392 330.527 258.944C330.799 259.168 331.311 259.376 331.631 259.472C331.503 262.192 331.183 262.944 329.791 262.944H327.503C326.079 262.944 325.695 262.528 325.695 261.168V255.472H322.703C322.399 258.896 321.631 261.696 317.951 263.184C317.807 262.896 317.471 262.464 317.199 262.256C320.607 260.96 321.199 258.464 321.439 255.472H317.391V254.32H331.391V255.472H326.895V261.152C326.895 261.696 327.023 261.808 327.647 261.808Z" fill="#4F4F4F"/>
<mask id="mask1_281_20495" style="mask-type:luminance" maskUnits="userSpaceOnUse" x="152" y="215" width="11" height="10">
<path d="M162.5 215H152.5V225H162.5V215Z" fill="white"/>
</mask>
<g mask="url(#mask1_281_20495)">
<path d="M162.406 220.094L157.406 215.094L152.406 220.094L157.406 225.094L162.406 220.094Z" fill="url(#paint1_linear_281_20495)"/>
</g>
<mask id="mask2_281_20495" style="mask-type:luminance" maskUnits="userSpaceOnUse" x="152" y="251" width="11" height="10">
<path d="M162.5 251H152.5V261H162.5V251Z" fill="white"/>
</mask>
<g mask="url(#mask2_281_20495)">
<path d="M162.406 256.098L157.406 251.098L152.406 256.098L157.406 261.098L162.406 256.098Z" fill="url(#paint2_linear_281_20495)"/>
</g>
<path d="M731.365 224.757C713.289 273.146 657.051 298.54 605.763 281.486C554.474 264.432 527.537 211.372 545.635 162.983C563.711 114.593 619.949 89.1998 671.237 106.254C722.526 123.308 749.463 176.368 731.365 224.757Z" fill="white"/>
<g clip-path="url(#clip1_281_20495)">
<rect width="350" height="350" transform="translate(455)" fill="white"/>
<path d="M785 178C785 269.127 711.127 343 620 343C528.873 343 455 269.127 455 178C455 86.873 528.873 13 620 13C711.127 13 785 86.873 785 178Z" fill="url(#paint3_linear_281_20495)"/>
<path d="M620 3.00002C642.056 3.00002 663.914 7.16958 684.422 15.2891L620 178L620 3.00002Z" fill="url(#paint4_linear_281_20495)"/>
<path d="M684.138 15.1769C718.523 28.7215 747.737 52.8039 767.594 83.9726C787.45 115.141 796.93 151.796 794.674 188.683C792.418 225.571 778.541 260.797 755.034 289.314C731.527 317.83 699.596 338.173 663.817 347.426L620 178L684.138 15.1769Z" fill="url(#paint5_linear_281_20495)"/>
<path d="M715.76 152.963C729.575 205.861 697.938 259.943 645.048 273.76C592.157 287.576 538.083 255.935 524.238 203.037C510.423 150.139 542.091 96.0568 594.951 82.2401C647.841 68.4235 701.915 100.065 715.73 152.963" fill="white"/>
<path d="M496.754 248.208C494.93 248.208 493.81 247.44 493.026 246.656L493.746 245.696C494.418 246.368 495.266 246.992 496.626 246.992C498.002 246.992 499.122 245.936 499.122 244.224C499.122 242.544 498.162 241.552 496.69 241.552C495.906 241.552 495.41 241.792 494.738 242.24L493.954 241.76L494.322 236.256H500.034V237.52H495.602L495.314 240.912C495.842 240.624 496.354 240.448 497.058 240.448C499.01 240.448 500.594 241.6 500.594 244.176C500.594 246.752 498.738 248.208 496.754 248.208ZM503.293 243.6H506.893V240C506.893 239.424 506.941 238.48 506.973 237.872H506.909C506.621 238.448 506.301 239.024 505.965 239.6L503.293 243.6ZM506.893 248V244.768H501.773V243.808L506.653 236.256H508.269V243.6H509.821V244.768H508.269V248H506.893ZM513.608 243.456C512.008 243.456 510.952 242.096 510.952 239.728C510.952 237.376 512.008 236.048 513.608 236.048C515.224 236.048 516.28 237.376 516.28 239.728C516.28 242.096 515.224 243.456 513.608 243.456ZM513.608 242.544C514.536 242.544 515.176 241.6 515.176 239.728C515.176 237.856 514.536 236.944 513.608 236.944C512.696 236.944 512.056 237.856 512.056 239.728C512.056 241.6 512.696 242.544 513.608 242.544ZM513.96 248.208L520.424 236.048H521.416L514.936 248.208H513.96ZM521.784 248.208C520.184 248.208 519.112 246.864 519.112 244.496C519.112 242.144 520.184 240.816 521.784 240.816C523.384 240.816 524.44 242.144 524.44 244.496C524.44 246.864 523.384 248.208 521.784 248.208ZM521.784 247.312C522.696 247.312 523.336 246.368 523.336 244.496C523.336 242.624 522.696 241.712 521.784 241.712C520.856 241.712 520.232 242.624 520.232 244.496C520.232 246.368 520.856 247.312 521.784 247.312Z" fill="white"/>
<path d="M741.84 180.6H745.44V177C745.44 176.424 745.488 175.48 745.52 174.872H745.456C745.168 175.448 744.848 176.024 744.512 176.6L741.84 180.6ZM745.44 185V181.768H740.32V180.808L745.2 173.256H746.816V180.6H748.368V181.768H746.816V185H745.44ZM753.323 185.208C751.083 185.208 749.659 183.176 749.659 179.096C749.659 175.016 751.083 173.048 753.323 173.048C755.547 173.048 756.971 175.032 756.971 179.096C756.971 183.176 755.547 185.208 753.323 185.208ZM753.323 184.04C754.651 184.04 755.547 182.552 755.547 179.096C755.547 175.672 754.651 174.216 753.323 174.216C751.979 174.216 751.083 175.672 751.083 179.096C751.083 182.552 751.979 184.04 753.323 184.04ZM761.03 180.456C759.43 180.456 758.374 179.096 758.374 176.728C758.374 174.376 759.43 173.048 761.03 173.048C762.646 173.048 763.702 174.376 763.702 176.728C763.702 179.096 762.646 180.456 761.03 180.456ZM761.03 179.544C761.958 179.544 762.598 178.6 762.598 176.728C762.598 174.856 761.958 173.944 761.03 173.944C760.118 173.944 759.478 174.856 759.478 176.728C759.478 178.6 760.118 179.544 761.03 179.544ZM761.382 185.208L767.846 173.048H768.838L762.358 185.208H761.382ZM769.206 185.208C767.606 185.208 766.534 183.864 766.534 181.496C766.534 179.144 767.606 177.816 769.206 177.816C770.806 177.816 771.862 179.144 771.862 181.496C771.862 183.864 770.806 185.208 769.206 185.208ZM769.206 184.312C770.118 184.312 770.758 183.368 770.758 181.496C770.758 179.624 770.118 178.712 769.206 178.712C768.278 178.712 767.654 179.624 767.654 181.496C767.654 183.368 768.278 184.312 769.206 184.312Z" fill="white"/>
<path d="M636.688 44.808C635.952 44.808 635.008 45.24 634.288 46.312C634.464 48.744 635.344 50.072 636.816 50.072C637.936 50.072 638.816 49 638.816 47.4C638.816 45.816 638.112 44.808 636.688 44.808ZM636.816 51.208C634.56 51.208 632.896 49.272 632.896 45.4C632.896 40.808 634.96 39.048 637.232 39.048C638.448 39.048 639.328 39.56 639.968 40.248L639.168 41.16C638.704 40.6 638 40.264 637.28 40.264C635.68 40.264 634.32 41.496 634.256 45.144C634.976 44.264 636 43.72 636.928 43.72C638.912 43.72 640.176 44.952 640.176 47.4C640.176 49.672 638.64 51.208 636.816 51.208ZM644.155 46.456C642.555 46.456 641.499 45.096 641.499 42.728C641.499 40.376 642.555 39.048 644.155 39.048C645.771 39.048 646.827 40.376 646.827 42.728C646.827 45.096 645.771 46.456 644.155 46.456ZM644.155 45.544C645.083 45.544 645.723 44.6 645.723 42.728C645.723 40.856 645.083 39.944 644.155 39.944C643.243 39.944 642.603 40.856 642.603 42.728C642.603 44.6 643.243 45.544 644.155 45.544ZM644.507 51.208L650.971 39.048H651.963L645.483 51.208H644.507ZM652.331 51.208C650.731 51.208 649.659 49.864 649.659 47.496C649.659 45.144 650.731 43.816 652.331 43.816C653.931 43.816 654.987 45.144 654.987 47.496C654.987 49.864 653.931 51.208 652.331 51.208ZM652.331 50.312C653.243 50.312 653.883 49.368 653.883 47.496C653.883 45.624 653.243 44.712 652.331 44.712C651.403 44.712 650.779 45.624 650.779 47.496C650.779 49.368 651.403 50.312 652.331 50.312Z" fill="white"/>
</g>
<path d="M159.776 77.636L158.732 79.022C158.39 78.518 157.706 77.708 157.094 77.006V84.404H155.474V77.42C154.736 78.14 153.944 78.77 153.188 79.256C153.062 78.806 152.702 77.924 152.486 77.6C154.376 76.502 156.284 74.54 157.436 72.452H152.99V70.94H156.392C156.068 70.274 155.384 69.266 154.772 68.582L156.068 67.844C156.734 68.546 157.454 69.5 157.76 70.148L156.464 70.94H158.318L158.606 70.868L159.506 71.498C158.984 72.83 158.228 74.108 157.364 75.278C158.084 75.926 159.416 77.258 159.776 77.636ZM165.212 82.136H169.244V83.774H158.966V82.136H163.502V74.99H159.776V73.388H163.502V67.916H165.212V73.388H168.848V74.99H165.212V82.136ZM182.492 79.562H175.598V80.552H182.492V79.562ZM175.598 82.712H182.492V81.704H175.598V82.712ZM173.942 84.404V78.41H184.202V84.332H182.492V83.846H175.598V84.404H173.942ZM173.294 73.01H185.012C184.04 72.668 183.05 72.254 182.132 71.732V72.254H175.904V71.822C175.076 72.29 174.194 72.668 173.294 73.01ZM183.608 76.592V74.108H179.612V76.592H181.628L180.512 76.25C180.836 75.674 181.214 74.756 181.412 74.144L182.816 74.54C182.42 75.314 182.024 76.07 181.7 76.592H183.608ZM175.22 74.576L176.39 74.216C176.786 74.828 177.182 75.656 177.308 76.196L176.12 76.592H178.244V74.108H174.338V76.592H176.066C175.94 76.034 175.598 75.206 175.22 74.576ZM177.128 71.102H181.07C180.332 70.652 179.666 70.13 179.09 69.59C178.514 70.13 177.83 70.652 177.128 71.102ZM178.766 67.808L180.242 68.33C180.152 68.438 180.08 68.564 179.972 68.672C181.646 70.22 184.688 71.588 187.496 72.182C187.154 72.47 186.686 73.064 186.434 73.46C186.002 73.334 185.534 73.19 185.084 73.028V77.69H172.916V73.154C172.466 73.316 172.034 73.46 171.584 73.586C171.44 73.28 170.972 72.596 170.684 72.308C173.942 71.48 177.128 69.914 178.766 67.808ZM203.102 71.21L201.77 71.912C201.554 71.66 201.302 71.39 200.978 71.084C192.95 71.426 192.05 71.408 191.384 71.624C191.312 71.336 191.078 70.598 190.916 70.238C191.24 70.184 191.636 70.022 192.05 69.788C192.536 69.572 194.048 68.726 195.128 67.772L196.604 68.528C195.83 69.086 195.002 69.608 194.174 70.076L199.628 69.914C199.142 69.518 198.638 69.14 198.152 68.816L199.394 68.204C200.654 69.05 202.292 70.31 203.102 71.21ZM201.374 79.472L202.742 80.138C200.474 82.532 196.37 83.81 191.816 84.44C191.69 84.044 191.366 83.45 191.042 83.09C195.38 82.604 199.394 81.524 201.374 79.472ZM199.34 77.69L200.618 78.32C198.728 79.904 195.614 81.056 192.752 81.704C192.572 81.362 192.212 80.84 191.888 80.516C194.624 79.994 197.72 78.986 199.34 77.69ZM197.414 75.998L198.62 76.61C197.126 77.744 194.822 78.734 192.878 79.292C192.662 78.986 192.302 78.554 191.96 78.266C193.796 77.816 196.172 76.934 197.414 75.998ZM204.956 75.044L203.696 75.602C203.606 75.35 203.462 75.098 203.3 74.792C201.464 74.936 200.438 75.008 199.808 75.08C201.464 76.142 203.498 77.024 205.514 77.51C205.154 77.834 204.704 78.428 204.452 78.824C201.644 78.014 198.782 76.412 196.874 74.45C195.074 76.556 192.5 78.014 189.656 78.95C189.476 78.626 189.026 77.96 188.72 77.636C190.754 77.078 192.626 76.232 194.102 75.08L194.048 74.954C190.934 75.134 190.394 75.206 190.07 75.332C189.98 75.026 189.728 74.342 189.548 73.982C189.764 73.928 190.016 73.766 190.214 73.532C190.448 73.316 191.168 72.452 191.618 71.57L193.112 72.2C192.716 72.758 192.266 73.334 191.78 73.82L193.49 73.748C193.328 73.478 193.184 73.244 193.022 73.01L194.21 72.632C194.516 73.1 194.876 73.658 195.128 74.18C195.668 73.604 196.154 72.992 196.514 72.326L198.044 72.776C197.954 72.956 197.846 73.136 197.738 73.316C197.954 73.55 198.188 73.802 198.458 74.036L198.404 73.91C198.602 73.856 198.818 73.712 198.98 73.478C199.16 73.28 199.754 72.47 200.042 71.642L201.536 72.254C201.248 72.758 200.87 73.28 200.492 73.748L202.508 73.64C202.31 73.352 202.076 73.082 201.86 72.83L203.048 72.326C203.804 73.136 204.614 74.252 204.956 75.044ZM215.756 77.222V73.874H212.966V68.042H214.406V69.518H217.286V70.904H214.406V72.56H216.602V72.578H217.16V77.204C217.16 77.834 217.034 78.122 216.62 78.302C216.17 78.5 215.54 78.5 214.658 78.5C214.604 78.158 214.424 77.726 214.262 77.42C214.838 77.438 215.36 77.438 215.522 77.42C215.702 77.42 215.756 77.366 215.756 77.222ZM213.398 74.522L214.694 74.72C214.514 75.944 214.172 77.15 213.668 77.96C213.416 77.78 212.876 77.42 212.57 77.276C213.074 76.538 213.29 75.548 213.398 74.522ZM212.03 80.354L213.416 81.416C211.922 82.478 209.744 83.648 207.998 84.386C207.8 84.044 207.35 83.468 207.044 83.126C208.736 82.478 210.914 81.29 212.03 80.354ZM222.686 83.072L221.588 84.332C220.418 83.504 218.438 82.334 216.584 81.452L217.52 80.264C219.392 81.146 221.444 82.262 222.686 83.072ZM223.136 78.716V80.264H206.9V78.716H208.61L208.286 69.338C209.42 68.978 210.752 68.438 211.634 68.006L212.408 69.356C211.616 69.68 210.698 69.95 209.834 70.202L209.888 72.128H212.12V73.514H209.942L210.014 75.404H212.192V76.808H210.05L210.122 78.716H219.914C219.95 78.158 219.986 77.528 220.022 76.862H217.898V75.476H220.094C220.112 74.846 220.13 74.198 220.148 73.55H218.024V72.164H220.184C220.202 71.516 220.22 70.85 220.22 70.22H217.844V68.762H221.75C221.732 71.93 221.642 76.052 221.48 78.716H223.136ZM240.11 68.06V75.872C240.11 76.718 239.948 77.132 239.354 77.384C238.778 77.618 237.896 77.654 236.618 77.654C236.546 77.222 236.33 76.556 236.114 76.142C237.032 76.178 237.914 76.178 238.166 76.16C238.454 76.16 238.526 76.088 238.526 75.854V68.06H240.11ZM236.762 68.942V74.936H235.232V68.942H236.762ZM228.932 72.272H230.84V70.076H228.932V72.272ZM233.918 82.262H241.046V83.81H224.954V82.262H232.19V80.354H226.79V78.824H232.19V77.42H230.84V73.766H228.824C228.572 75.278 227.87 76.826 226.07 77.87C225.854 77.564 225.278 76.934 224.972 76.7C226.43 75.872 227.006 74.828 227.24 73.766H225.206V72.272H227.384V70.076H225.818V68.6H233.882V70.076H232.406V72.272H234.278V73.766H232.406V77.096H233.918V78.824H239.21V80.354H233.918V82.262ZM256.976 73.298H254.078C252.44 73.298 252.026 72.74 252.026 71.246V68.024H253.574V69.248H257.876V70.526H253.574V71.264C253.574 71.786 253.664 71.966 254.15 71.966H256.904C257.336 71.966 258.038 71.93 258.38 71.84C258.416 72.272 258.47 72.83 258.524 73.19C258.236 73.28 257.552 73.298 256.976 73.298ZM256.958 79.382H254.258C252.458 79.382 252.026 78.986 252.026 77.528V73.838H253.574V75.134H257.894V76.43H253.574V77.51C253.574 77.978 253.7 78.032 254.42 78.032H256.796C257.318 78.032 257.444 77.888 257.516 76.952C257.84 77.168 258.452 77.402 258.884 77.492C258.704 79.004 258.272 79.382 256.958 79.382ZM245.51 74.846L246.14 74.072C247.004 74.378 248.156 74.828 248.804 75.152L248.156 76.052C247.562 75.728 246.392 75.206 245.51 74.846ZM245.438 73.712V75.314C245.438 75.8 245.42 76.34 245.348 76.88C246.284 76.664 247.544 76.304 248.894 75.944V73.712H245.438ZM250.334 72.506V78.158C250.334 78.824 250.208 79.112 249.74 79.328C249.29 79.526 248.588 79.526 247.598 79.526C247.526 79.166 247.31 78.716 247.166 78.392C247.814 78.41 248.444 78.41 248.624 78.392C248.822 78.392 248.894 78.338 248.894 78.158V76.934C247.778 77.33 246.698 77.762 245.726 78.104L245.312 77.132C245.15 78.068 244.862 79.022 244.232 79.76C243.98 79.49 243.368 79.004 243.044 78.86C243.944 77.816 244.034 76.43 244.034 75.278V72.506H250.334ZM252.854 81.218L251.648 82.046C251.252 81.488 250.496 80.534 249.884 79.85L251.036 79.112C251.648 79.778 252.44 80.678 252.854 81.218ZM251.468 71.624L250.262 72.29C250.118 72.056 249.938 71.75 249.722 71.408C244.556 71.876 243.89 71.966 243.476 72.128C243.386 71.84 243.17 71.156 242.99 70.76C243.278 70.724 243.584 70.526 243.944 70.256C244.304 69.986 245.456 68.942 246.23 67.844L247.742 68.33C247.076 69.14 246.266 69.914 245.492 70.544L248.894 70.292C248.606 69.95 248.318 69.59 248.03 69.284L249.182 68.672C249.992 69.572 251 70.832 251.468 71.624ZM244.43 83.918L242.972 83.18C243.584 82.352 244.106 81.02 244.376 79.976L245.816 80.516C245.474 81.632 245.024 83.018 244.43 83.918ZM249.722 82.784H253.07C253.898 82.784 254.042 82.55 254.132 80.948C254.492 81.2 255.14 81.416 255.554 81.506C255.374 83.63 254.906 84.134 253.214 84.134H249.596C247.454 84.134 246.896 83.738 246.896 82.28V80.228H248.516V82.262C248.516 82.712 248.696 82.784 249.722 82.784ZM255.932 80.336L257.372 79.922C257.876 80.93 258.524 82.316 258.776 83.126L257.246 83.648C256.994 82.802 256.418 81.398 255.932 80.336Z" fill="black"/>
<path d="M163.296 126.704V125.626H160.916V126.704H163.296ZM164.528 124.786V127.53H159.74V124.786H164.528ZM157.514 126.704V125.626H155.176V126.704H157.514ZM158.76 124.786V127.53H154.014V124.786H158.76ZM155.708 132.15H158.508V131.142H155.708V132.15ZM155.708 129.196V130.176H158.508V129.196H155.708ZM162.82 130.176V129.196H159.838V130.176H162.82ZM162.82 132.15V131.142H159.838V132.15H162.82ZM165.41 134.096V135.23H159.838V137.092H158.508V135.23H153.076V134.096H158.508V133.186H154.434V128.16H164.15V133.186H159.838V134.096H165.41ZM176.022 126.27L174.734 126.634C174.636 126.046 174.356 125.122 174.09 124.422L175.322 124.114C175.588 124.8 175.882 125.668 176.022 126.27ZM179.004 126.704V127.964H171.374V126.704H179.004ZM174.426 134.376L173.138 134.754C173.026 133.298 172.648 130.806 172.256 128.902L173.418 128.636C173.852 130.526 174.286 132.962 174.426 134.376ZM170.1 124.31L171.332 124.688C170.968 125.668 170.492 126.648 169.974 127.586V137.078H168.658V129.63C168.294 130.148 167.902 130.61 167.51 131.016C167.384 130.708 167.006 130.008 166.782 129.7C168.112 128.398 169.358 126.354 170.1 124.31ZM176.876 135.286H179.522V136.532H170.814V135.286H175.672C176.176 133.438 176.694 130.61 176.932 128.552L178.29 128.776C177.912 130.89 177.38 133.494 176.876 135.286ZM185.452 130.68C184.85 130.68 184.374 130.204 184.374 129.56C184.374 128.902 184.85 128.412 185.452 128.412C186.054 128.412 186.53 128.902 186.53 129.56C186.53 130.204 186.054 130.68 185.452 130.68ZM185.452 136.182C184.85 136.182 184.374 135.72 184.374 135.062C184.374 134.39 184.85 133.914 185.452 133.914C186.054 133.914 186.53 134.39 186.53 135.062C186.53 135.72 186.054 136.182 185.452 136.182ZM197.723 125.682V126.76H191.563V125.682H194.125C193.971 125.29 193.789 124.842 193.621 124.492L194.909 124.156C195.147 124.632 195.427 125.22 195.609 125.682H197.723ZM192.543 132.878L193.565 133.186C193.215 134.166 192.655 135.286 192.151 136C191.941 135.832 191.521 135.524 191.255 135.384C191.773 134.726 192.249 133.774 192.543 132.878ZM197.751 132.276H195.371V137.022H194.111V132.276H191.423V131.17H194.111V129.896H191.339V128.804H192.865C192.809 128.328 192.613 127.6 192.375 127.054L193.439 126.788C193.663 127.334 193.887 128.048 193.957 128.51L192.921 128.804H195.133C195.385 128.216 195.679 127.362 195.819 126.774L197.023 127.026C196.785 127.642 196.547 128.286 196.309 128.804H197.947V129.896H195.371V131.17H197.751V132.276ZM195.861 133.242L196.729 132.766C197.191 133.424 197.667 134.306 197.891 134.866L196.981 135.412C196.757 134.824 196.281 133.914 195.861 133.242ZM204.093 128.902V130.106H202.665V137.036H201.391V130.106H199.753V130.442C199.753 132.458 199.571 135.258 198.325 137.036C198.129 136.798 197.597 136.406 197.331 136.266C198.437 134.642 198.535 132.276 198.535 130.442V125.598C200.089 125.332 201.811 124.898 202.819 124.464L203.841 125.416C202.693 125.864 201.181 126.2 199.753 126.452V128.902H204.093ZM213.193 132.472H210.841C210.435 132.738 210.001 132.962 209.595 133.158L214.005 133.088C213.697 132.892 213.375 132.71 213.081 132.556L213.193 132.472ZM212.297 135.272V135.888H217.771V136.798H205.619V135.888H210.981V135.272H206.977V134.46H210.981V133.9C208.419 133.97 208.013 134.012 207.733 134.096C207.677 133.9 207.551 133.452 207.439 133.214C207.663 133.186 207.915 133.13 208.195 133.032C208.391 132.962 208.867 132.752 209.371 132.472H207.201V131.716H216.063V132.472H214.733C215.433 132.878 216.091 133.368 216.525 133.718L215.741 134.362C215.559 134.194 215.335 134.012 215.055 133.802L212.297 133.872V134.46H216.525V135.272H212.297ZM205.801 132.374V130.358H217.575V132.374H216.343V131.212H206.977V132.374H205.801ZM214.929 129.154V128.482H208.433V129.154H214.929ZM207.229 127.796H216.203V129.854H207.229V127.796ZM212.297 125.024H217.799V125.878H212.297V126.48H216.721V127.278H206.655V126.48H210.981V125.878H205.591V125.024H210.981V124.24H212.297V125.024ZM230.735 132.108V135.132C230.735 135.734 230.581 136.07 230.105 136.238C229.615 136.42 228.873 136.406 227.753 136.406C227.683 136.098 227.487 135.636 227.333 135.342C228.131 135.37 228.943 135.37 229.153 135.356C229.377 135.342 229.447 135.3 229.447 135.118V133.2H226.283V137.092H224.995V133.2H222.083V136.434H220.823V132.108H224.995V131.282H226.283V132.108H230.735ZM221.481 127.768L222.181 127.922C222.055 128.748 221.831 129.644 221.565 130.232C221.439 130.134 221.131 129.98 220.949 129.91C221.229 129.308 221.383 128.538 221.481 127.768ZM223.567 127.936L224.169 127.768C224.435 128.468 224.673 129.406 224.729 129.994L224.099 130.19C224.043 129.588 223.833 128.65 223.567 127.936ZM224.925 124.506L225.989 124.898C225.583 125.486 225.163 126.116 224.827 126.508L224.043 126.172C224.351 125.71 224.729 124.996 224.925 124.506ZM229.993 126.648H227.935C228.201 127.292 228.551 127.88 228.999 128.412C229.419 127.908 229.769 127.334 229.993 126.648ZM231.967 126.648H231.197C230.889 127.67 230.413 128.51 229.783 129.21C230.441 129.798 231.239 130.26 232.149 130.526C231.897 130.75 231.589 131.156 231.435 131.45C230.511 131.1 229.699 130.582 229.013 129.938C228.341 130.484 227.543 130.918 226.633 131.254C226.521 131.016 226.199 130.498 225.989 130.274C226.871 129.994 227.627 129.616 228.257 129.112C227.865 128.608 227.529 128.048 227.249 127.432C227.011 127.698 226.787 127.936 226.535 128.16C226.409 127.992 226.115 127.67 225.863 127.46V131.058H224.883V127.32H223.329V131.268H222.475V127.32H220.907V131.408H219.955V126.508H220.837C220.669 126.088 220.319 125.43 219.969 124.94L220.879 124.548C221.257 125.01 221.649 125.64 221.803 126.074L220.865 126.508H222.321V124.268H223.469V126.508H225.863V127.236C226.703 126.508 227.347 125.43 227.683 124.254L228.775 124.492C228.649 124.884 228.509 125.276 228.355 125.64H231.967V126.648ZM239.143 138.786C237.841 136.658 237.071 134.404 237.071 131.618C237.071 128.86 237.841 126.578 239.143 124.464L240.151 124.898C238.947 126.914 238.387 129.28 238.387 131.618C238.387 133.97 238.947 136.336 240.151 138.338L239.143 138.786ZM252.758 125.29V126.55H242.902V125.29H252.758ZM250.756 135.636H252.338C252.856 135.636 252.94 135.272 252.996 133.2C253.304 133.438 253.864 133.662 254.214 133.76C254.074 136.182 253.738 136.868 252.436 136.868H250.574C249.188 136.868 248.824 136.434 248.824 135.062V130.386H246.43C246.178 133.34 245.548 135.762 242.258 137.078C242.118 136.742 241.74 136.28 241.446 136.028C244.372 134.936 244.848 132.85 245.044 130.386H241.67V129.126H253.976V130.386H250.168V135.048C250.168 135.552 250.252 135.636 250.756 135.636ZM256.454 138.786L255.446 138.338C256.65 136.336 257.21 133.97 257.21 131.618C257.21 129.28 256.65 126.914 255.446 124.898L256.454 124.464C257.77 126.578 258.54 128.86 258.54 131.618C258.54 134.404 257.77 136.658 256.454 138.786Z" fill="#4F4F4F"/>
</g>
<defs>
<linearGradient id="paint0_linear_281_20495" x1="157" y1="179.004" x2="157" y2="189.004" gradientUnits="userSpaceOnUse">
<stop stop-color="#FF9E45"/>
<stop offset="1" stop-color="#FF7A00"/>
</linearGradient>
<linearGradient id="paint1_linear_281_20495" x1="157.5" y1="215" x2="157.5" y2="225" gradientUnits="userSpaceOnUse">
<stop stop-color="#6FC7E2"/>
<stop offset="1" stop-color="#00AED4"/>
</linearGradient>
<linearGradient id="paint2_linear_281_20495" x1="157" y1="251.004" x2="157" y2="261.004" gradientUnits="userSpaceOnUse">
<stop stop-color="#C2C559"/>
<stop offset="1" stop-color="#A7AC39"/>
</linearGradient>
<linearGradient id="paint3_linear_281_20495" x1="620" y1="13" x2="620" y2="343" gradientUnits="userSpaceOnUse">
<stop stop-color="#FF9E45"/>
<stop offset="1" stop-color="#FF7A00"/>
</linearGradient>
<linearGradient id="paint4_linear_281_20495" x1="620" y1="3.00002" x2="620" y2="353" gradientUnits="userSpaceOnUse">
<stop stop-color="#C2C559"/>
<stop offset="1" stop-color="#A7AC39"/>
</linearGradient>
<linearGradient id="paint5_linear_281_20495" x1="620" y1="3.00002" x2="620" y2="353" gradientUnits="userSpaceOnUse">
<stop stop-color="#6FC7E2"/>
<stop offset="1" stop-color="#00AED4"/>
</linearGradient>
<clipPath id="clip0_281_20495">
<rect width="876" height="350" fill="white"/>
</clipPath>
<clipPath id="clip1_281_20495">
<rect width="350" height="350" fill="white" transform="translate(455)"/>
</clipPath>
</defs>
</svg>
