<svg width="568" height="449" viewBox="0 0 568 449" fill="none" xmlns="http://www.w3.org/2000/svg">
<path d="M207.982 22.038H204.238V24.99H202.654V22.038H199.036V20.688H202.654V19.14H199.414V17.826H201.07C200.926 17.232 200.566 16.422 200.224 15.828L201.538 15.486C201.934 16.116 202.312 16.98 202.474 17.538L201.52 17.826H204.472C204.778 17.106 205.156 16.116 205.336 15.432L206.848 15.774C206.542 16.476 206.236 17.196 205.93 17.826H207.64V19.14H204.238V20.688H207.982V22.038ZM211.366 12.138H204.202C204.13 12.714 204.04 13.272 203.95 13.776H210.556V23.586C210.556 24.486 210.322 24.9 209.692 25.134C209.062 25.386 208.018 25.386 206.596 25.386C206.488 24.972 206.236 24.342 206.002 23.946C207.028 24 208.126 23.982 208.432 23.964C208.756 23.964 208.846 23.874 208.846 23.586V15.324H198.154V25.386H196.48V13.776H202.33C202.384 13.29 202.474 12.714 202.528 12.138H195.634V10.572H202.69C202.744 9.978 202.78 9.402 202.798 8.898L204.634 9.078C204.58 9.564 204.508 10.068 204.436 10.572H211.366V12.138ZM216.352 18.762H220.258V23.118H222.598V18.762H226.576V15.45H222.598V11.472H220.276V15.468H216.352V18.762ZM224.218 23.118H229.546V24.648H213.472V23.118H218.656V20.22H214.714V14.028H218.656V11.472H213.886V9.96H229.186V11.472H224.218V14.01H228.268V20.202H224.218V23.118ZM243.334 12.57L242.164 13.632C241.624 12.876 240.4 11.778 239.374 11.022L240.472 10.068C241.498 10.77 242.74 11.814 243.334 12.57ZM242.848 17.268L241.714 18.366C241.12 17.592 239.806 16.44 238.708 15.684L239.77 14.712C240.85 15.432 242.218 16.512 242.848 17.268ZM238.204 18.6L237.196 19.914C236.944 19.374 236.332 18.366 235.792 17.538V25.404H234.172V18.114C233.506 19.752 232.696 21.282 231.868 22.308C231.706 21.858 231.31 21.174 231.058 20.76C232.12 19.536 233.272 17.394 233.938 15.486H231.292V13.92H234.172V11.508C233.398 11.652 232.624 11.76 231.904 11.868C231.85 11.508 231.616 10.914 231.436 10.572C233.452 10.248 235.756 9.726 237.16 9.114L238.114 10.482C237.43 10.752 236.638 10.968 235.792 11.166V13.92H238.312V15.486H235.792V15.738C236.332 16.296 237.862 18.132 238.204 18.6ZM247.852 20.418L245.638 20.796V25.404H243.982V21.084L238.312 22.038L238.06 20.436L243.982 19.446V8.898H245.638V19.176L247.6 18.852L247.852 20.418ZM255.106 16.656L255.304 18.168C254.62 18.366 253.936 18.564 253.252 18.762V23.496C253.252 24.36 253.072 24.81 252.55 25.062C252.028 25.314 251.218 25.368 249.994 25.35C249.922 24.954 249.706 24.252 249.49 23.838C250.282 23.856 251.038 23.856 251.254 23.838C251.524 23.838 251.614 23.748 251.614 23.496V19.23C250.912 19.428 250.264 19.608 249.634 19.77L249.202 18.168C249.886 18.006 250.714 17.808 251.614 17.592V13.974H249.4V12.426H251.614V8.898H253.252V12.408H255.142V13.974H253.252V17.142L255.106 16.656ZM262.882 17.124H257.842C258.418 18.528 259.21 19.77 260.254 20.832C261.37 19.806 262.27 18.564 262.882 17.124ZM263.926 15.54L265.006 15.972C264.286 18.456 263.08 20.418 261.496 21.93C262.738 22.866 264.214 23.568 265.924 24.018C265.546 24.342 265.078 25.008 264.844 25.44C263.026 24.918 261.496 24.108 260.182 23.01C258.742 24.09 257.068 24.882 255.268 25.404C255.088 24.972 254.674 24.252 254.368 23.892C256.042 23.478 257.608 22.794 258.994 21.858C257.806 20.544 256.888 18.996 256.204 17.196L256.438 17.124H255.718V15.594H259.426V13.128H255.394V11.598H259.426V8.898H261.082V11.598H265.24V13.128H261.082V15.594H263.638L263.926 15.54ZM282.61 9.06V16.332C282.61 17.124 282.448 17.502 281.89 17.7C281.35 17.934 280.504 17.952 279.244 17.952C279.172 17.556 278.938 16.98 278.74 16.602C279.64 16.638 280.504 16.638 280.756 16.62C281.026 16.62 281.098 16.548 281.098 16.314V9.06H282.61ZM279.19 9.798V15.684H277.678V9.798H279.19ZM268.822 12.174H271.378V11.256H269.416C269.218 11.598 269.002 11.904 268.822 12.174ZM281.512 19.932L282.718 20.796C281.8 21.426 280.684 22.056 279.676 22.506C280.81 23.154 282.178 23.622 283.762 23.874C283.42 24.18 283.042 24.792 282.826 25.206C279.226 24.504 276.868 22.812 275.518 20.04C274.708 20.652 273.718 21.228 272.62 21.714V23.586L276.382 22.794C276.328 23.172 276.292 23.748 276.31 24.036C271.792 25.098 271.216 25.26 270.856 25.494V25.368C270.748 25.008 270.496 24.504 270.316 24.27C270.622 24.072 271.09 23.676 271.09 22.812V22.308C270.118 22.668 269.11 22.938 268.138 23.118C267.94 22.776 267.544 22.2 267.238 21.912C269.398 21.57 271.738 20.85 273.394 19.932H267.544V18.6H274.96C274.816 18.24 274.636 17.88 274.456 17.556L274.798 17.466C274.51 17.484 274.204 17.484 273.826 17.484C273.754 17.142 273.556 16.746 273.394 16.458C273.916 16.476 274.348 16.476 274.492 16.476C274.654 16.458 274.69 16.422 274.69 16.278V15.216H272.818V18.024H271.378V15.216H269.614V17.574H268.3V14.136H271.378V13.344H267.472V12.174H268.66C268.372 11.976 267.886 11.724 267.616 11.616C268.228 10.896 268.732 9.906 269.038 8.934L270.316 9.258C270.208 9.546 270.1 9.834 269.992 10.122H271.378V8.898H272.818V10.122H275.878V11.256H272.818V12.174H276.436V13.344H272.818V14.136H276.058V16.26C276.058 16.764 275.986 17.016 275.716 17.214L276.022 17.124C276.292 17.574 276.58 18.114 276.778 18.6H283.474V19.932H277.03C277.444 20.598 277.948 21.21 278.56 21.714C279.586 21.21 280.756 20.472 281.512 19.932ZM299.116 14.208V11.184H294.004V14.208H299.116ZM300.736 9.762V15.63H292.438V9.762H300.736ZM291.7 18.798L290.764 20.166C290.53 19.608 289.99 18.618 289.504 17.754V25.44H287.92V17.97C287.326 19.698 286.588 21.372 285.796 22.452C285.67 21.984 285.274 21.246 285.022 20.814C285.958 19.59 286.948 17.448 287.524 15.54H285.292V13.992H287.92V11.436C287.254 11.562 286.588 11.67 285.958 11.76C285.886 11.4 285.706 10.824 285.508 10.464C287.308 10.122 289.342 9.618 290.584 9.024L291.52 10.392C290.926 10.644 290.224 10.842 289.504 11.04V13.992H291.682V15.54H289.504V15.918C289.99 16.494 291.394 18.348 291.7 18.798ZM297.478 23.532H301.654V25.026H291.358V23.532H295.822V21.462H292.312V20.022H295.822V18.168C294.814 18.276 293.788 18.348 292.852 18.384C292.834 18.024 292.618 17.448 292.456 17.088C294.976 16.926 297.946 16.602 299.656 16.098L300.718 17.358C299.8 17.61 298.666 17.808 297.478 17.97V20.022H300.934V21.462H297.478V23.532ZM309.106 16.656L309.304 18.168C308.62 18.366 307.936 18.564 307.252 18.762V23.496C307.252 24.36 307.072 24.81 306.55 25.062C306.028 25.314 305.218 25.368 303.994 25.35C303.922 24.954 303.706 24.252 303.49 23.838C304.282 23.856 305.038 23.856 305.254 23.838C305.524 23.838 305.614 23.748 305.614 23.496V19.23C304.912 19.428 304.264 19.608 303.634 19.77L303.202 18.168C303.886 18.006 304.714 17.808 305.614 17.592V13.974H303.4V12.426H305.614V8.898H307.252V12.408H309.142V13.974H307.252V17.142L309.106 16.656ZM316.882 17.124H311.842C312.418 18.528 313.21 19.77 314.254 20.832C315.37 19.806 316.27 18.564 316.882 17.124ZM317.926 15.54L319.006 15.972C318.286 18.456 317.08 20.418 315.496 21.93C316.738 22.866 318.214 23.568 319.924 24.018C319.546 24.342 319.078 25.008 318.844 25.44C317.026 24.918 315.496 24.108 314.182 23.01C312.742 24.09 311.068 24.882 309.268 25.404C309.088 24.972 308.674 24.252 308.368 23.892C310.042 23.478 311.608 22.794 312.994 21.858C311.806 20.544 310.888 18.996 310.204 17.196L310.438 17.124H309.718V15.594H313.426V13.128H309.394V11.598H313.426V8.898H315.082V11.598H319.24V13.128H315.082V15.594H317.638L317.926 15.54ZM337.492 10.302V11.778H333.244V10.302H337.492ZM333.082 12.12L331.984 12.768C331.696 12.138 331.066 11.13 330.472 10.41L331.516 9.852C332.128 10.536 332.776 11.49 333.082 12.12ZM324.262 8.916L325.792 9.456C324.874 10.968 323.452 12.642 322.12 13.704C321.904 13.362 321.508 12.768 321.22 12.462C322.39 11.562 323.632 10.104 324.262 8.916ZM326.53 15.792H327.754C327.736 19.212 327.538 21.516 326.152 22.902C326.008 22.614 325.612 22.128 325.306 21.912C326.386 20.742 326.512 18.852 326.53 15.792ZM332.236 21.174H332.794C332.956 21.174 333.208 21.138 333.37 21.084C333.406 21.408 333.46 21.984 333.496 22.272C333.298 22.344 333.046 22.362 332.776 22.362H332.272C331.066 22.362 330.85 21.894 330.85 20.544V15.792H332.074V20.58C332.074 21.03 332.092 21.174 332.236 21.174ZM337.762 14.514L337.744 16.026H336.232V23.352C336.232 24.216 336.088 24.684 335.548 24.936C334.99 25.224 334.162 25.242 332.938 25.242C332.884 24.792 332.668 24.09 332.452 23.622C333.28 23.64 334.09 23.64 334.324 23.64C334.576 23.622 334.648 23.568 334.648 23.352V16.026H332.812V14.73H330.004V25.368H328.528V14.73H326.008V13.326C325.63 14.1 325.198 14.892 324.712 15.648V25.44H323.164V17.772C322.732 18.276 322.282 18.726 321.832 19.14C321.688 18.78 321.184 17.97 320.896 17.628C322.354 16.386 323.776 14.496 324.622 12.57L326.134 13.056L326.08 13.182H328.528V9.024H330.004V13.182H332.848V14.514H337.762ZM349.426 10.572V15.126H343.576V10.554H344.782V13.866H345.862V8.916H347.158V13.866H348.184V10.572H349.426ZM341.812 8.898L343.18 9.474C342.37 10.932 341.146 12.588 339.994 13.668C339.814 13.344 339.436 12.696 339.202 12.39C340.192 11.49 341.272 10.032 341.812 8.898ZM342.118 12.534L343.432 13.056C343.144 13.758 342.784 14.496 342.406 15.216V25.404H340.93V17.592C340.57 18.096 340.228 18.564 339.868 18.96C339.706 18.618 339.292 17.826 339.022 17.466C340.192 16.242 341.38 14.37 342.118 12.534ZM343.342 17.484L343.36 16.17H349.372V17.484H343.342ZM344.17 18.15H345.61C345.556 21.462 345.286 23.82 343.684 25.224C343.504 24.864 343.054 24.27 342.712 24C343.972 22.866 344.134 20.976 344.17 18.15ZM348.634 21.246L349.912 20.526C350.002 20.904 350.164 21.444 350.29 21.732C347.95 23.208 347.554 23.586 347.32 23.892C347.23 23.496 346.924 22.794 346.69 22.452C346.96 22.308 347.248 21.948 347.248 21.246V18.132H348.634V21.246ZM353.584 13.668H351.856C351.82 13.812 351.766 13.956 351.712 14.082C351.928 15.828 352.234 17.466 352.666 18.906C353.134 17.376 353.404 15.63 353.584 13.668ZM355.762 13.668H355.006C354.718 16.494 354.232 18.888 353.404 20.904C354.052 22.254 354.88 23.316 355.96 24.054C355.636 24.324 355.186 24.918 354.97 25.296C354.016 24.576 353.26 23.622 352.648 22.452C351.982 23.64 351.154 24.648 350.092 25.476C349.894 25.17 349.354 24.612 349.048 24.342C350.308 23.442 351.244 22.272 351.946 20.796C351.442 19.428 351.082 17.862 350.812 16.152C350.65 16.494 350.434 16.818 350.218 17.124C350.056 16.8 349.57 16.134 349.264 15.81C350.434 14.154 351.1 11.616 351.478 8.916L352.918 9.15C352.738 10.212 352.54 11.256 352.288 12.246H355.762V13.668ZM365.014 11.976V13.668H363.502V10.59H367.876C367.678 10.158 367.462 9.726 367.21 9.348L368.542 8.79C368.956 9.312 369.334 10.032 369.532 10.59H373.492V13.416H371.944V11.976H365.014ZM357.832 20.472L359.074 20.706C358.912 22.254 358.606 23.928 358.264 25.044C357.994 24.882 357.382 24.684 357.076 24.594C357.472 23.514 357.706 21.93 357.832 20.472ZM359.704 20.652L360.82 20.382C361.054 21.588 361.252 23.118 361.324 24.144L360.118 24.468C360.082 23.424 359.902 21.858 359.704 20.652ZM361.612 20.274L362.656 19.914C363.07 21.012 363.484 22.398 363.664 23.316L362.566 23.748C362.404 22.794 361.972 21.354 361.612 20.274ZM365.482 13.056L366.922 13.38C366.688 14.352 366.346 15.378 365.932 16.386V25.404H364.564V19.176C364.312 19.554 364.06 19.932 363.79 20.256C363.592 19.95 363.196 19.392 362.926 19.14L363.016 19.014L362.242 19.338C362.224 19.212 362.188 19.05 362.152 18.888C358.606 19.464 358.048 19.626 357.724 19.806C357.652 19.5 357.418 18.78 357.256 18.402C357.634 18.312 358.012 17.862 358.534 17.196C358.786 16.89 359.29 16.206 359.848 15.324C358.228 15.522 357.85 15.612 357.598 15.738C357.526 15.432 357.31 14.73 357.148 14.352C357.454 14.262 357.742 13.902 358.066 13.38C358.444 12.84 359.596 10.842 360.244 8.916L361.576 9.492C360.892 11.094 359.974 12.786 359.056 14.118L360.658 13.992C361.126 13.182 361.576 12.318 361.954 11.49L363.16 12.282C362.116 14.316 360.784 16.386 359.416 18.06L361.81 17.718C361.648 17.142 361.432 16.548 361.198 16.026L362.278 15.63C362.71 16.548 363.142 17.718 363.322 18.546C364.366 16.98 365.122 14.802 365.482 13.056ZM371.764 19.968V18.096H368.578V19.968H371.764ZM368.578 23.28H371.764V21.282H368.578V23.28ZM373.528 15.18H370.954C370.792 15.738 370.648 16.26 370.504 16.764H373.222V25.296H371.764V24.612H368.578V25.386H367.174V16.764H369.01C369.118 16.26 369.208 15.702 369.298 15.18H366.814V13.83H373.528V15.18Z" fill="black"/>
<path d="M192.078 42.958H180.306C179.424 44.38 178.434 45.676 177.462 46.648C177.174 46.432 176.616 46.054 176.274 45.856C177.93 44.416 179.478 42.112 180.414 39.844L181.728 40.222C181.494 40.726 181.26 41.248 180.99 41.752H192.078V42.958ZM185.652 52.858H188.604C188.676 52.12 188.748 51.166 188.82 49.942H180.198C180.054 50.986 179.892 51.994 179.748 52.858H185.31C184.554 52.156 183.24 51.274 182.088 50.68L182.844 49.942C184.068 50.518 185.544 51.454 186.264 52.192L185.652 52.858ZM188.982 45.964H180.738C180.612 46.882 180.486 47.836 180.342 48.79H185.742C185.04 48.142 183.708 47.278 182.538 46.774L183.294 46.018C184.464 46.522 185.85 47.35 186.57 47.998L185.796 48.79H188.874C188.91 47.944 188.946 47.026 188.982 45.964ZM192.69 49.978H190.134C190.062 51.148 190.008 52.102 189.918 52.858H192.078V54.046H189.774C189.63 54.946 189.45 55.432 189.252 55.72C188.91 56.152 188.532 56.314 187.992 56.368C187.47 56.404 186.57 56.386 185.688 56.332C185.67 56.026 185.526 55.576 185.346 55.27C186.264 55.342 187.092 55.36 187.434 55.342C187.758 55.342 187.92 55.306 188.1 55.09C188.226 54.946 188.352 54.604 188.46 54.046H178.902V54.028H178.182C178.38 52.948 178.632 51.49 178.866 49.978H176.328V48.754H179.046C179.226 47.368 179.424 45.982 179.55 44.776H190.314C190.314 44.776 190.296 45.262 190.296 45.424C190.26 46.684 190.206 47.782 190.17 48.754H192.69V49.978ZM200.052 47.8L200.232 49.024C199.512 49.24 198.774 49.456 198.072 49.672V54.766C198.072 55.522 197.874 55.882 197.406 56.098C196.956 56.314 196.2 56.35 194.958 56.332C194.922 55.99 194.724 55.468 194.544 55.108C195.408 55.126 196.182 55.126 196.398 55.108C196.65 55.108 196.758 55.018 196.758 54.766V50.068L194.598 50.698L194.22 49.384C194.94 49.222 195.804 49.006 196.758 48.736V44.812H194.454V43.552H196.758V39.952H198.072V43.552H200.052V44.812H198.072V48.376C198.72 48.196 199.404 47.998 200.052 47.8ZM208.08 47.926H202.536C203.148 49.492 204.048 50.914 205.182 52.066C206.424 50.95 207.432 49.564 208.08 47.926ZM208.926 46.63L209.808 47.008C209.052 49.474 207.774 51.436 206.154 52.93C207.45 53.992 208.998 54.766 210.798 55.252C210.51 55.522 210.132 56.044 209.934 56.404C208.062 55.828 206.46 54.964 205.128 53.794C203.598 54.964 201.852 55.792 200.016 56.368C199.872 56.008 199.548 55.45 199.296 55.162C201.042 54.694 202.716 53.938 204.174 52.876C202.914 51.526 201.924 49.87 201.222 47.944L201.276 47.926H200.682V46.684H204.534V44.002H200.322V42.76H204.534V39.934H205.848V42.76H210.15V44.002H205.848V46.684H208.71L208.926 46.63ZM228.456 41.392V42.598H224.19V41.392H228.456ZM223.938 43.3L223.056 43.84C222.768 43.174 222.066 42.166 221.454 41.428L222.3 40.942C222.93 41.662 223.65 42.652 223.938 43.3ZM215.352 39.97L216.576 40.384C215.73 41.878 214.29 43.534 212.94 44.578C212.796 44.308 212.436 43.84 212.22 43.588C213.426 42.67 214.722 41.176 215.352 39.97ZM215.82 43.552L217.026 43.948C216.594 44.866 216.072 45.784 215.478 46.648V56.404H214.236V48.286C213.732 48.88 213.21 49.42 212.688 49.888C212.544 49.618 212.13 48.988 211.896 48.718C213.408 47.458 214.902 45.532 215.82 43.552ZM217.656 46.72H218.664C218.628 50.194 218.412 52.534 217.044 53.92C216.9 53.686 216.558 53.308 216.324 53.128C217.476 51.904 217.62 49.888 217.656 46.72ZM223.794 45.532H220.824V56.332H219.636V45.532H216.972V44.29H219.636V40.096H220.824V44.29H223.794V45.532ZM223.038 52.336H223.704C223.884 52.336 224.118 52.336 224.28 52.282C224.298 52.552 224.352 53.002 224.37 53.254C224.208 53.308 223.974 53.326 223.704 53.326H223.056C222.03 53.326 221.832 52.93 221.832 51.742V46.72H222.858V51.76C222.858 52.228 222.876 52.336 223.038 52.336ZM228.69 45.568V46.774H227.088V54.604C227.088 55.36 226.944 55.72 226.458 55.954C225.936 56.17 225.126 56.188 223.866 56.188C223.812 55.81 223.65 55.27 223.47 54.892C224.406 54.91 225.234 54.91 225.486 54.91C225.738 54.892 225.81 54.838 225.81 54.604V46.774H223.758V45.568H228.69ZM238.464 42.436H233.28C232.668 43.444 231.966 44.38 231.21 45.082C231.048 44.794 230.598 44.2 230.328 43.948C231.444 42.958 232.488 41.428 233.082 39.862L234.36 40.222C234.216 40.582 234.072 40.924 233.91 41.284H238.464V42.436ZM233.946 43.228L234.864 42.526C235.404 43.03 236.034 43.732 236.322 44.2L235.35 45.01C235.062 44.524 234.45 43.768 233.946 43.228ZM236.934 46.162H232.812V47.638H236.934V46.162ZM232.812 50.05H236.934V48.664H232.812V50.05ZM235.17 51.976L236.232 51.472C237.204 52.696 238.338 54.298 238.896 55.306L237.78 55.9C237.564 55.504 237.258 54.982 236.898 54.442C232.434 55.54 231.876 55.684 231.516 55.918C231.408 55.612 231.102 55.09 230.886 54.82C231.156 54.676 231.57 54.262 231.57 53.506V45.1H238.194V51.112H232.812V54.19L236.232 53.434C235.872 52.912 235.512 52.408 235.17 51.976ZM245.88 45.1V52.696C245.88 53.434 245.736 53.812 245.196 54.028C244.638 54.244 243.738 54.262 242.334 54.262C242.28 53.884 242.1 53.362 241.92 53.002C242.982 53.038 243.954 53.038 244.224 53.02C244.512 53.02 244.602 52.93 244.602 52.678V46.324H240.804V56.368H239.544V45.1H245.88ZM244.08 44.146L243.126 44.938C242.82 44.452 242.172 43.696 241.614 43.174L242.532 42.454C243.09 42.958 243.774 43.678 244.08 44.146ZM241.092 41.284H246.636V42.436H240.624C240.156 43.516 239.544 44.506 238.896 45.244C238.662 44.992 238.14 44.524 237.834 44.29C238.86 43.228 239.652 41.59 240.102 39.88L241.434 40.204C241.326 40.564 241.218 40.924 241.092 41.284ZM253.728 45.334L253.134 45.1C253.386 44.326 253.746 43.066 253.908 42.238L254.7 42.526C254.394 43.462 254.034 44.596 253.728 45.334ZM250.254 42.472L250.938 42.292C251.244 43.156 251.478 44.29 251.532 45.01L250.83 45.208C250.794 44.47 250.56 43.336 250.254 42.472ZM250.002 41.59V45.91H251.946V41.59H250.002ZM254.934 45.91V41.59H252.864V45.91H254.934ZM256.374 50.59V51.67H248.49V50.59H251.802V49.186H248.814V48.106H251.802V46.882H248.94V40.618H256.014V46.882H253.008V48.106H256.14V49.186H253.008V50.59H256.374ZM249.138 56.17L248.166 55.738C248.724 54.91 249.12 53.524 249.318 52.426L250.254 52.768C250.038 53.884 249.678 55.306 249.138 56.17ZM250.92 52.768L251.802 52.678C252.018 53.668 252.126 54.946 252.108 55.792L251.154 55.9C251.208 55.054 251.1 53.776 250.92 52.768ZM252.756 52.768L253.602 52.606C253.98 53.506 254.322 54.712 254.43 55.486L253.53 55.684C253.44 54.892 253.134 53.686 252.756 52.768ZM254.592 52.732L255.438 52.426C255.96 53.29 256.464 54.46 256.644 55.216L255.726 55.576C255.564 54.802 255.078 53.614 254.592 52.732ZM262.764 54.298V49.672H258.228V54.298H262.764ZM264.744 45.118H260.91V48.43H264.042V56.296H262.764V55.522H258.228V56.368H257.004V48.43H259.596V39.97H260.91V43.858H264.744V45.118ZM275.22 54.514H282.51V55.81H266.562V54.514H273.852V49.942H268.506V48.646H273.852V44.722H269.622C269.046 45.856 268.416 46.846 267.75 47.656C267.48 47.44 266.886 47.044 266.526 46.864C268.002 45.28 269.154 42.796 269.856 40.24L271.206 40.528C270.918 41.518 270.594 42.49 270.198 43.408H273.852V39.952H275.22V43.408H281.664V44.722H275.22V48.646H280.998V49.942H275.22V54.514ZM288.72 46.108H297.396C296.352 45.712 295.038 45.28 293.58 44.83C291.96 45.352 290.25 45.766 288.72 46.108ZM296.658 42.688H289.134C290.538 43.03 292.122 43.444 293.652 43.894C294.804 43.516 295.848 43.12 296.658 42.688ZM300.438 47.224H287.064V49.906C287.064 51.94 286.758 54.694 285.138 56.548C284.94 56.296 284.418 55.846 284.13 55.684C285.588 54.01 285.768 51.688 285.768 49.888V46.108H288.036C287.856 45.874 287.568 45.604 287.388 45.442C288.81 45.172 290.448 44.812 291.996 44.38C290.628 43.984 289.224 43.624 287.946 43.336L288.738 42.688H285.858V41.59H292.5C292.194 41.14 291.852 40.654 291.528 40.258L292.482 39.772C292.95 40.312 293.508 41.032 293.85 41.59H299.898V42.688H297.144L297.864 43.12C297.072 43.552 296.136 43.966 295.11 44.326C296.424 44.722 297.648 45.118 298.548 45.442L297.828 46.108H300.438V47.224ZM294.588 54.658H300.726V55.792H287.388V54.658H293.274V52.858H289.08V51.778H293.274V50.176H289.512C289.008 51.04 288.414 51.814 287.802 52.39C287.676 52.156 287.334 51.526 287.1 51.292C288.09 50.356 288.954 48.97 289.476 47.53L290.628 47.854C290.466 48.268 290.304 48.664 290.124 49.078H293.274V47.548H294.588V49.078H299.43V50.176H294.588V51.778H299.034V52.858H294.588V54.658ZM310.284 43.858H317.772C317.772 43.858 317.754 44.362 317.736 44.56C317.34 51.94 316.962 54.622 316.17 55.522C315.756 56.026 315.324 56.17 314.64 56.242C314.01 56.296 312.858 56.26 311.76 56.188C311.742 55.792 311.58 55.216 311.31 54.82C312.534 54.928 313.686 54.946 314.136 54.946C314.514 54.946 314.748 54.892 314.964 54.676C315.612 54.064 316.008 51.526 316.35 45.19H310.212C309.96 48.916 308.772 53.272 303.552 56.458C303.336 56.134 302.85 55.612 302.526 55.396C307.404 52.498 308.556 48.556 308.826 45.19H303.066V43.858H308.898C308.898 43.588 308.898 43.336 308.898 43.084V39.97H310.284V43.084C310.284 43.336 310.284 43.588 310.284 43.858ZM334.062 42.976V41.554H328.104V42.976H334.062ZM334.062 45.352V43.912H328.104V45.352H334.062ZM335.34 40.546V46.378H326.88V40.546H335.34ZM325.566 47.782L325.728 49.006C325.08 49.24 324.414 49.438 323.748 49.672V54.712C323.748 55.45 323.586 55.792 323.136 56.008C322.722 56.224 322.038 56.278 320.904 56.26C320.85 55.936 320.688 55.396 320.508 55.018C321.282 55.036 322.002 55.036 322.2 55.036C322.416 55.036 322.506 54.964 322.506 54.694V50.068C321.768 50.32 321.066 50.536 320.418 50.734L320.094 49.438C320.76 49.276 321.588 49.024 322.506 48.736V44.794H320.292V43.552H322.506V39.97H323.748V43.552H325.728V44.794H323.748V48.34L325.566 47.782ZM331.722 51.994V54.82C332.244 54.892 332.82 54.928 333.414 54.928C333.846 54.928 336.276 54.928 336.888 54.91C336.708 55.198 336.546 55.756 336.492 56.098H333.36C330.768 56.098 328.878 55.612 327.708 53.092C327.222 54.442 326.502 55.54 325.566 56.386C325.35 56.17 324.846 55.756 324.558 55.576C326.16 54.316 326.952 52.3 327.24 49.636L328.464 49.78C328.374 50.446 328.266 51.094 328.122 51.688C328.626 53.218 329.436 54.046 330.462 54.478V48.79H326.07V47.656H336.348V48.79H331.722V50.896H335.448V51.994H331.722ZM354.546 47.152V48.448H350.676V56.386H349.326V48.448H343.836C343.692 51.418 342.918 54.334 339.264 56.422C339.066 56.116 338.598 55.63 338.31 55.414C341.64 53.542 342.378 51.022 342.522 48.448H338.49V47.152H342.54V43.156C341.388 43.48 340.236 43.786 339.12 44.038C339.048 43.714 338.832 43.228 338.634 42.958C341.478 42.292 344.646 41.302 346.428 40.222L347.436 41.32C346.428 41.842 345.186 42.31 343.854 42.742V47.152H349.326V40.294H350.676V47.152H354.546ZM360.252 55.234C358.182 55.234 356.886 54.37 356.022 53.434L356.85 52.354C357.624 53.164 358.632 53.866 360.126 53.866C361.692 53.866 362.808 52.93 362.808 51.4C362.808 49.834 361.746 48.772 358.704 48.772V47.512C361.422 47.512 362.358 46.414 362.358 44.992C362.358 43.732 361.494 42.904 360.126 42.904C359.064 42.904 358.128 43.426 357.39 44.182L356.508 43.138C357.498 42.22 358.668 41.554 360.198 41.554C362.412 41.554 364.032 42.778 364.032 44.866C364.032 46.468 363.078 47.53 361.692 48.052V48.124C363.24 48.484 364.482 49.672 364.482 51.472C364.482 53.83 362.592 55.234 360.252 55.234ZM370.488 55.234C367.968 55.234 366.366 52.948 366.366 48.358C366.366 43.768 367.968 41.554 370.488 41.554C372.99 41.554 374.592 43.786 374.592 48.358C374.592 52.948 372.99 55.234 370.488 55.234ZM370.488 53.92C371.982 53.92 372.99 52.246 372.99 48.358C372.99 44.506 371.982 42.868 370.488 42.868C368.976 42.868 367.968 44.506 367.968 48.358C367.968 52.246 368.976 53.92 370.488 53.92ZM379.159 49.888C377.359 49.888 376.171 48.358 376.171 45.694C376.171 43.048 377.359 41.554 379.159 41.554C380.977 41.554 382.165 43.048 382.165 45.694C382.165 48.358 380.977 49.888 379.159 49.888ZM379.159 48.862C380.203 48.862 380.923 47.8 380.923 45.694C380.923 43.588 380.203 42.562 379.159 42.562C378.133 42.562 377.413 43.588 377.413 45.694C377.413 47.8 378.133 48.862 379.159 48.862ZM379.555 55.234L386.827 41.554H387.943L380.653 55.234H379.555ZM388.357 55.234C386.557 55.234 385.351 53.722 385.351 51.058C385.351 48.412 386.557 46.918 388.357 46.918C390.157 46.918 391.345 48.412 391.345 51.058C391.345 53.722 390.157 55.234 388.357 55.234ZM388.357 54.226C389.383 54.226 390.103 53.164 390.103 51.058C390.103 48.952 389.383 47.926 388.357 47.926C387.313 47.926 386.611 48.952 386.611 51.058C386.611 53.164 387.313 54.226 388.357 54.226Z" fill="#00AED4"/>
<mask id="path-3-inside-1_367_48962" fill="white">
<path d="M0 387H186.667V423H0V387Z"/>
</mask>
<path d="M0 387V388H186.667V387V386H0V387Z" fill="#D1D1D1" mask="url(#path-3-inside-1_367_48962)"/>
<path d="M69.0447 411V409.784H71.6687V401.368H69.5727V400.44C70.0954 400.344 70.5487 400.227 70.9327 400.088C71.3274 399.949 71.6847 399.784 72.0047 399.592H73.1247V409.784H75.4767V411H69.0447ZM78.1277 411V399.272H81.5997C82.3997 399.272 83.0984 399.368 83.6957 399.56C84.3037 399.752 84.7784 400.056 85.1197 400.472C85.4611 400.888 85.6317 401.443 85.6317 402.136C85.6317 402.52 85.5624 402.888 85.4237 403.24C85.2957 403.581 85.1037 403.88 84.8477 404.136C84.5917 404.381 84.2824 404.563 83.9197 404.68V404.76C84.6131 404.888 85.1837 405.187 85.6317 405.656C86.0797 406.125 86.3037 406.76 86.3037 407.56C86.3037 408.328 86.1117 408.968 85.7277 409.48C85.3544 409.981 84.8317 410.36 84.1597 410.616C83.4984 410.872 82.7304 411 81.8557 411H78.1277ZM79.5997 404.248H81.3437C82.3571 404.248 83.0824 404.077 83.5197 403.736C83.9571 403.395 84.1757 402.925 84.1757 402.328C84.1757 401.635 83.9411 401.149 83.4717 400.872C83.0131 400.584 82.3251 400.44 81.4077 400.44H79.5997V404.248ZM79.5997 409.816H81.6477C82.6504 409.816 83.4344 409.629 83.9997 409.256C84.5651 408.883 84.8477 408.301 84.8477 407.512C84.8477 406.776 84.5704 406.243 84.0157 405.912C83.4611 405.571 82.6717 405.4 81.6477 405.4H79.5997V409.816ZM88.0833 399.64H101.987V400.744H88.0833V399.64ZM89.2673 406.168H100.803V407.224H89.2673V406.168ZM91.6833 403.256H98.4033V404.328H91.6833V403.256ZM97.1233 400.104C97.486 400.712 97.9553 401.304 98.5313 401.88C99.1073 402.445 99.742 402.952 100.435 403.4C101.129 403.848 101.827 404.211 102.531 404.488C102.446 404.552 102.35 404.643 102.243 404.76C102.147 404.877 102.051 405 101.955 405.128C101.859 405.245 101.779 405.357 101.715 405.464C100.99 405.144 100.275 404.728 99.5713 404.216C98.878 403.704 98.2327 403.133 97.6353 402.504C97.0487 401.864 96.5473 401.192 96.1313 400.488L97.1233 400.104ZM91.1873 408.12L92.3393 408.472C91.934 409.112 91.438 409.741 90.8513 410.36C90.2753 410.968 89.7047 411.48 89.1393 411.896C89.0753 411.821 88.9847 411.736 88.8673 411.64C88.75 411.544 88.6273 411.448 88.4993 411.352C88.382 411.256 88.2753 411.181 88.1793 411.128C88.7553 410.755 89.31 410.307 89.8433 409.784C90.3873 409.251 90.8353 408.696 91.1873 408.12ZM97.5553 408.696L98.4993 408.136C98.8833 408.435 99.278 408.771 99.6833 409.144C100.089 409.517 100.467 409.885 100.819 410.248C101.182 410.6 101.475 410.92 101.699 411.208L100.675 411.848C100.462 411.56 100.179 411.235 99.8273 410.872C99.486 410.499 99.1127 410.125 98.7073 409.752C98.3127 409.368 97.9287 409.016 97.5553 408.696ZM93.9073 397.544L95.2033 397.72C94.9047 398.691 94.462 399.656 93.8753 400.616C93.2887 401.576 92.5473 402.477 91.6513 403.32C90.7553 404.163 89.678 404.893 88.4193 405.512C88.366 405.416 88.286 405.309 88.1793 405.192C88.0833 405.075 87.982 404.963 87.8753 404.856C87.7793 404.739 87.6833 404.653 87.5873 404.6C88.8033 404.045 89.838 403.379 90.6913 402.6C91.5447 401.821 92.2327 401 92.7553 400.136C93.2887 399.261 93.6727 398.397 93.9073 397.544ZM94.4353 406.808H95.6673V412.296H94.4353V406.808ZM103.955 403.72H118.083V404.92H103.955V403.72ZM110.371 397.576H111.635V412.28H110.371V397.576ZM116.035 398.344L117.331 398.872C117.075 399.32 116.798 399.789 116.499 400.28C116.201 400.771 115.897 401.24 115.587 401.688C115.278 402.136 114.99 402.525 114.723 402.856L113.699 402.376C113.966 402.024 114.243 401.613 114.531 401.144C114.819 400.675 115.097 400.195 115.363 399.704C115.63 399.213 115.854 398.76 116.035 398.344ZM104.883 398.952L105.971 398.488C106.291 398.861 106.601 399.272 106.899 399.72C107.198 400.168 107.465 400.611 107.699 401.048C107.945 401.485 108.131 401.875 108.259 402.216L107.075 402.744C106.969 402.403 106.798 402.013 106.563 401.576C106.339 401.139 106.078 400.691 105.779 400.232C105.491 399.773 105.193 399.347 104.883 398.952ZM108.499 405.8L109.539 406.184C109.166 406.973 108.707 407.752 108.163 408.52C107.619 409.277 107.038 409.976 106.419 410.616C105.811 411.256 105.203 411.795 104.595 412.232C104.521 412.136 104.43 412.024 104.323 411.896C104.217 411.779 104.11 411.661 104.003 411.544C103.897 411.437 103.795 411.347 103.699 411.272C104.297 410.899 104.899 410.419 105.507 409.832C106.115 409.245 106.681 408.605 107.203 407.912C107.726 407.208 108.158 406.504 108.499 405.8ZM112.451 406.344L113.379 405.752C113.859 406.179 114.339 406.643 114.819 407.144C115.31 407.645 115.779 408.157 116.227 408.68C116.686 409.203 117.097 409.709 117.459 410.2C117.833 410.68 118.131 411.128 118.355 411.544L117.331 412.232C117.107 411.816 116.819 411.363 116.467 410.872C116.115 410.381 115.721 409.869 115.283 409.336C114.846 408.803 114.382 408.28 113.891 407.768C113.411 407.256 112.931 406.781 112.451 406.344Z" fill="#6D6D6D"/>
<mask id="path-6-inside-2_367_48962" fill="white">
<path d="M186.668 387H373.335V423H186.668V387Z"/>
</mask>
<path d="M186.668 387V388H373.335V387V386H186.668V387Z" fill="#D1D1D1" mask="url(#path-6-inside-2_367_48962)"/>
<path d="M255.869 411V409.784H258.493V401.368H256.397V400.44C256.92 400.344 257.373 400.227 257.757 400.088C258.152 399.949 258.509 399.784 258.829 399.592H259.949V409.784H262.301V411H255.869ZM269.368 411.208C268.643 411.208 267.965 411.075 267.336 410.808C266.717 410.531 266.179 410.131 265.72 409.608C265.261 409.085 264.904 408.451 264.648 407.704C264.392 406.947 264.264 406.093 264.264 405.144C264.264 404.195 264.392 403.347 264.648 402.6C264.915 401.843 265.283 401.203 265.752 400.68C266.221 400.157 266.771 399.757 267.4 399.48C268.029 399.203 268.717 399.064 269.464 399.064C270.179 399.064 270.808 399.213 271.352 399.512C271.896 399.8 272.339 400.131 272.68 400.504L271.88 401.464C271.571 401.133 271.219 400.867 270.824 400.664C270.429 400.461 269.981 400.36 269.48 400.36C268.744 400.36 268.099 400.552 267.544 400.936C266.989 401.32 266.557 401.869 266.248 402.584C265.939 403.288 265.784 404.125 265.784 405.096C265.784 406.088 265.933 406.947 266.232 407.672C266.531 408.387 266.952 408.941 267.496 409.336C268.04 409.72 268.685 409.912 269.432 409.912C269.987 409.912 270.483 409.795 270.92 409.56C271.368 409.325 271.779 409 272.152 408.584L272.968 409.528C272.509 410.061 271.987 410.477 271.4 410.776C270.813 411.064 270.136 411.208 269.368 411.208ZM274.595 399.64H288.499V400.744H274.595V399.64ZM275.779 406.168H287.315V407.224H275.779V406.168ZM278.195 403.256H284.915V404.328H278.195V403.256ZM283.635 400.104C283.998 400.712 284.467 401.304 285.043 401.88C285.619 402.445 286.254 402.952 286.947 403.4C287.64 403.848 288.339 404.211 289.043 404.488C288.958 404.552 288.862 404.643 288.755 404.76C288.659 404.877 288.563 405 288.467 405.128C288.371 405.245 288.291 405.357 288.227 405.464C287.502 405.144 286.787 404.728 286.083 404.216C285.39 403.704 284.744 403.133 284.147 402.504C283.56 401.864 283.059 401.192 282.643 400.488L283.635 400.104ZM277.699 408.12L278.851 408.472C278.446 409.112 277.95 409.741 277.363 410.36C276.787 410.968 276.216 411.48 275.651 411.896C275.587 411.821 275.496 411.736 275.379 411.64C275.262 411.544 275.139 411.448 275.011 411.352C274.894 411.256 274.787 411.181 274.691 411.128C275.267 410.755 275.822 410.307 276.355 409.784C276.899 409.251 277.347 408.696 277.699 408.12ZM284.067 408.696L285.011 408.136C285.395 408.435 285.79 408.771 286.195 409.144C286.6 409.517 286.979 409.885 287.331 410.248C287.694 410.6 287.987 410.92 288.211 411.208L287.187 411.848C286.974 411.56 286.691 411.235 286.339 410.872C285.998 410.499 285.624 410.125 285.219 409.752C284.824 409.368 284.44 409.016 284.067 408.696ZM280.419 397.544L281.715 397.72C281.416 398.691 280.974 399.656 280.387 400.616C279.8 401.576 279.059 402.477 278.163 403.32C277.267 404.163 276.19 404.893 274.931 405.512C274.878 405.416 274.798 405.309 274.691 405.192C274.595 405.075 274.494 404.963 274.387 404.856C274.291 404.739 274.195 404.653 274.099 404.6C275.315 404.045 276.35 403.379 277.203 402.6C278.056 401.821 278.744 401 279.267 400.136C279.8 399.261 280.184 398.397 280.419 397.544ZM280.947 406.808H282.179V412.296H280.947V406.808ZM290.467 403.72H304.595V404.92H290.467V403.72ZM296.883 397.576H298.147V412.28H296.883V397.576ZM302.547 398.344L303.843 398.872C303.587 399.32 303.31 399.789 303.011 400.28C302.712 400.771 302.408 401.24 302.099 401.688C301.79 402.136 301.502 402.525 301.235 402.856L300.211 402.376C300.478 402.024 300.755 401.613 301.043 401.144C301.331 400.675 301.608 400.195 301.875 399.704C302.142 399.213 302.366 398.76 302.547 398.344ZM291.395 398.952L292.483 398.488C292.803 398.861 293.112 399.272 293.411 399.72C293.71 400.168 293.976 400.611 294.211 401.048C294.456 401.485 294.643 401.875 294.771 402.216L293.587 402.744C293.48 402.403 293.31 402.013 293.075 401.576C292.851 401.139 292.59 400.691 292.291 400.232C292.003 399.773 291.704 399.347 291.395 398.952ZM295.011 405.8L296.051 406.184C295.678 406.973 295.219 407.752 294.675 408.52C294.131 409.277 293.55 409.976 292.931 410.616C292.323 411.256 291.715 411.795 291.107 412.232C291.032 412.136 290.942 412.024 290.835 411.896C290.728 411.779 290.622 411.661 290.515 411.544C290.408 411.437 290.307 411.347 290.211 411.272C290.808 410.899 291.411 410.419 292.019 409.832C292.627 409.245 293.192 408.605 293.715 407.912C294.238 407.208 294.67 406.504 295.011 405.8ZM298.963 406.344L299.891 405.752C300.371 406.179 300.851 406.643 301.331 407.144C301.822 407.645 302.291 408.157 302.739 408.68C303.198 409.203 303.608 409.709 303.971 410.2C304.344 410.68 304.643 411.128 304.867 411.544L303.843 412.232C303.619 411.816 303.331 411.363 302.979 410.872C302.627 410.381 302.232 409.869 301.795 409.336C301.358 408.803 300.894 408.28 300.403 407.768C299.923 407.256 299.443 406.781 298.963 406.344Z" fill="#6D6D6D"/>
<mask id="path-9-inside-3_367_48962" fill="white">
<path d="M373.332 387H559.999V423H373.332V387Z"/>
</mask>
<path d="M373.332 387V388H559.999V387V386H373.332V387Z" fill="#D1D1D1" mask="url(#path-9-inside-3_367_48962)"/>
<path d="M442.127 411V409.784H444.751V401.368H442.655V400.44C443.177 400.344 443.631 400.227 444.015 400.088C444.409 399.949 444.767 399.784 445.087 399.592H446.207V409.784H448.559V411H442.127ZM451.21 411V399.272H454.138C455.343 399.272 456.356 399.501 457.178 399.96C457.999 400.408 458.618 401.064 459.034 401.928C459.45 402.792 459.658 403.848 459.658 405.096C459.658 406.333 459.45 407.395 459.034 408.28C458.618 409.165 458.004 409.843 457.194 410.312C456.383 410.771 455.386 411 454.202 411H451.21ZM452.682 409.784H454.01C454.927 409.784 455.69 409.603 456.298 409.24C456.916 408.867 457.375 408.328 457.674 407.624C457.983 406.92 458.138 406.077 458.138 405.096C458.138 404.093 457.983 403.251 457.674 402.568C457.375 401.885 456.916 401.368 456.298 401.016C455.69 400.653 454.927 400.472 454.01 400.472H452.682V409.784ZM461.665 399.64H475.569V400.744H461.665V399.64ZM462.849 406.168H474.385V407.224H462.849V406.168ZM465.265 403.256H471.985V404.328H465.265V403.256ZM470.705 400.104C471.068 400.712 471.537 401.304 472.113 401.88C472.689 402.445 473.324 402.952 474.017 403.4C474.711 403.848 475.409 404.211 476.113 404.488C476.028 404.552 475.932 404.643 475.825 404.76C475.729 404.877 475.633 405 475.537 405.128C475.441 405.245 475.361 405.357 475.297 405.464C474.572 405.144 473.857 404.728 473.153 404.216C472.46 403.704 471.815 403.133 471.217 402.504C470.631 401.864 470.129 401.192 469.713 400.488L470.705 400.104ZM464.769 408.12L465.921 408.472C465.516 409.112 465.02 409.741 464.433 410.36C463.857 410.968 463.287 411.48 462.721 411.896C462.657 411.821 462.567 411.736 462.449 411.64C462.332 411.544 462.209 411.448 462.081 411.352C461.964 411.256 461.857 411.181 461.761 411.128C462.337 410.755 462.892 410.307 463.425 409.784C463.969 409.251 464.417 408.696 464.769 408.12ZM471.137 408.696L472.081 408.136C472.465 408.435 472.86 408.771 473.265 409.144C473.671 409.517 474.049 409.885 474.401 410.248C474.764 410.6 475.057 410.92 475.281 411.208L474.257 411.848C474.044 411.56 473.761 411.235 473.409 410.872C473.068 410.499 472.695 410.125 472.289 409.752C471.895 409.368 471.511 409.016 471.137 408.696ZM467.489 397.544L468.785 397.72C468.487 398.691 468.044 399.656 467.457 400.616C466.871 401.576 466.129 402.477 465.233 403.32C464.337 404.163 463.26 404.893 462.001 405.512C461.948 405.416 461.868 405.309 461.761 405.192C461.665 405.075 461.564 404.963 461.457 404.856C461.361 404.739 461.265 404.653 461.169 404.6C462.385 404.045 463.42 403.379 464.273 402.6C465.127 401.821 465.815 401 466.337 400.136C466.871 399.261 467.255 398.397 467.489 397.544ZM468.017 406.808H469.249V412.296H468.017V406.808ZM477.537 403.72H491.665V404.92H477.537V403.72ZM483.953 397.576H485.217V412.28H483.953V397.576ZM489.617 398.344L490.913 398.872C490.657 399.32 490.38 399.789 490.081 400.28C489.783 400.771 489.479 401.24 489.169 401.688C488.86 402.136 488.572 402.525 488.305 402.856L487.281 402.376C487.548 402.024 487.825 401.613 488.113 401.144C488.401 400.675 488.679 400.195 488.945 399.704C489.212 399.213 489.436 398.76 489.617 398.344ZM478.465 398.952L479.553 398.488C479.873 398.861 480.183 399.272 480.481 399.72C480.78 400.168 481.047 400.611 481.281 401.048C481.527 401.485 481.713 401.875 481.841 402.216L480.657 402.744C480.551 402.403 480.38 402.013 480.145 401.576C479.921 401.139 479.66 400.691 479.361 400.232C479.073 399.773 478.775 399.347 478.465 398.952ZM482.081 405.8L483.121 406.184C482.748 406.973 482.289 407.752 481.745 408.52C481.201 409.277 480.62 409.976 480.001 410.616C479.393 411.256 478.785 411.795 478.177 412.232C478.103 412.136 478.012 412.024 477.905 411.896C477.799 411.779 477.692 411.661 477.585 411.544C477.479 411.437 477.377 411.347 477.281 411.272C477.879 410.899 478.481 410.419 479.089 409.832C479.697 409.245 480.263 408.605 480.785 407.912C481.308 407.208 481.74 406.504 482.081 405.8ZM486.033 406.344L486.961 405.752C487.441 406.179 487.921 406.643 488.401 407.144C488.892 407.645 489.361 408.157 489.809 408.68C490.268 409.203 490.679 409.709 491.041 410.2C491.415 410.68 491.713 411.128 491.937 411.544L490.913 412.232C490.689 411.816 490.401 411.363 490.049 410.872C489.697 410.381 489.303 409.869 488.865 409.336C488.428 408.803 487.964 408.28 487.473 407.768C486.993 407.256 486.513 406.781 486.033 406.344Z" fill="#6D6D6D"/>
<rect x="121" y="250" width="131" height="2" fill="#E7E7E7"/>
<rect x="200" y="213" width="239" height="2" fill="#E7E7E7"/>
<rect x="386" y="176" width="53" height="2" fill="#E7E7E7"/>
<path d="M65 256C65 253.239 67.2386 251 70 251H116C118.761 251 121 253.239 121 256V387H65V256Z" fill="url(#paint0_linear_367_48962)"/>
<rect x="252" y="251" width="56" height="136" fill="url(#paint1_linear_367_48962)"/>
<path d="M252 219C252 216.239 254.239 214 257 214H303C305.761 214 308 216.239 308 219V251H252V219Z" fill="url(#paint2_linear_367_48962)"/>
<path d="M439 182C439 179.239 441.239 177 444 177H490C492.761 177 495 179.239 495 182V214H439V182Z" fill="url(#paint3_linear_367_48962)"/>
<rect x="439" y="214" width="56" height="173" fill="url(#paint4_linear_367_48962)"/>
<path d="M155.754 145.027H158.957C159.777 145.027 160.448 144.884 160.969 144.598C161.503 144.298 161.9 143.882 162.16 143.348C162.421 142.801 162.551 142.156 162.551 141.414C162.551 140.841 162.427 140.314 162.18 139.832C161.945 139.35 161.581 138.966 161.086 138.68C160.591 138.38 159.96 138.23 159.191 138.23C158.671 138.23 158.163 138.341 157.668 138.562C157.173 138.771 156.763 139.07 156.438 139.461C156.125 139.852 155.969 140.327 155.969 140.887H149.367C149.367 139.272 149.81 137.892 150.695 136.746C151.594 135.587 152.772 134.702 154.23 134.09C155.702 133.465 157.284 133.152 158.977 133.152C160.995 133.152 162.766 133.465 164.289 134.09C165.812 134.702 166.997 135.613 167.844 136.824C168.703 138.022 169.133 139.507 169.133 141.277C169.133 142.254 168.905 143.172 168.449 144.031C167.993 144.891 167.355 145.646 166.535 146.297C165.715 146.948 164.751 147.462 163.645 147.84C162.551 148.204 161.353 148.387 160.051 148.387H155.754V145.027ZM155.754 149.93V146.648H160.051C161.47 146.648 162.766 146.811 163.938 147.137C165.109 147.449 166.118 147.918 166.965 148.543C167.811 149.168 168.462 149.943 168.918 150.867C169.374 151.779 169.602 152.827 169.602 154.012C169.602 155.34 169.335 156.525 168.801 157.566C168.267 158.608 167.518 159.487 166.555 160.203C165.591 160.919 164.465 161.466 163.176 161.844C161.887 162.208 160.487 162.391 158.977 162.391C157.792 162.391 156.607 162.234 155.422 161.922C154.237 161.596 153.156 161.102 152.18 160.438C151.203 159.76 150.415 158.901 149.816 157.859C149.23 156.805 148.938 155.548 148.938 154.09H155.539C155.539 154.689 155.702 155.236 156.027 155.73C156.366 156.212 156.815 156.596 157.375 156.883C157.935 157.169 158.54 157.312 159.191 157.312C159.999 157.312 160.682 157.163 161.242 156.863C161.815 156.551 162.251 156.134 162.551 155.613C162.85 155.092 163 154.513 163 153.875C163 152.911 162.837 152.143 162.512 151.57C162.199 150.997 161.737 150.581 161.125 150.32C160.526 150.06 159.803 149.93 158.957 149.93H155.754ZM192.707 145.184V150.379C192.707 152.423 192.466 154.201 191.984 155.711C191.516 157.221 190.839 158.471 189.953 159.461C189.081 160.451 188.039 161.186 186.828 161.668C185.617 162.15 184.283 162.391 182.824 162.391C181.652 162.391 180.559 162.241 179.543 161.941C178.527 161.629 177.609 161.16 176.789 160.535C175.982 159.897 175.285 159.103 174.699 158.152C174.113 157.202 173.664 156.082 173.352 154.793C173.039 153.491 172.883 152.02 172.883 150.379V145.184C172.883 143.126 173.117 141.349 173.586 139.852C174.068 138.341 174.751 137.091 175.637 136.102C176.522 135.112 177.57 134.376 178.781 133.895C179.992 133.413 181.327 133.172 182.785 133.172C183.957 133.172 185.044 133.328 186.047 133.641C187.062 133.94 187.98 134.409 188.801 135.047C189.621 135.672 190.318 136.46 190.891 137.41C191.477 138.361 191.926 139.487 192.238 140.789C192.551 142.078 192.707 143.543 192.707 145.184ZM186.125 151.18V144.344C186.125 143.432 186.073 142.638 185.969 141.961C185.878 141.284 185.734 140.711 185.539 140.242C185.357 139.773 185.129 139.396 184.855 139.109C184.582 138.81 184.27 138.595 183.918 138.465C183.579 138.322 183.202 138.25 182.785 138.25C182.264 138.25 181.796 138.361 181.379 138.582C180.975 138.79 180.63 139.129 180.344 139.598C180.057 140.066 179.836 140.691 179.68 141.473C179.536 142.254 179.465 143.211 179.465 144.344V151.18C179.465 152.104 179.51 152.911 179.602 153.602C179.706 154.279 179.849 154.858 180.031 155.34C180.227 155.809 180.461 156.193 180.734 156.492C181.008 156.779 181.32 156.987 181.672 157.117C182.023 157.247 182.408 157.312 182.824 157.312C183.332 157.312 183.788 157.208 184.191 157C184.595 156.792 184.94 156.453 185.227 155.984C185.526 155.503 185.747 154.871 185.891 154.09C186.047 153.296 186.125 152.326 186.125 151.18ZM196.184 140.535V139.031C196.184 137.951 196.418 136.967 196.887 136.082C197.355 135.197 198.059 134.487 198.996 133.953C199.934 133.419 201.099 133.152 202.492 133.152C203.924 133.152 205.109 133.419 206.047 133.953C206.984 134.487 207.681 135.197 208.137 136.082C208.605 136.967 208.84 137.951 208.84 139.031V140.535C208.84 141.59 208.605 142.56 208.137 143.445C207.681 144.331 206.984 145.04 206.047 145.574C205.122 146.108 203.951 146.375 202.531 146.375C201.125 146.375 199.953 146.108 199.016 145.574C198.078 145.04 197.368 144.331 196.887 143.445C196.418 142.56 196.184 141.59 196.184 140.535ZM200.402 139.031V140.535C200.402 140.926 200.48 141.297 200.637 141.648C200.793 142 201.027 142.286 201.34 142.508C201.665 142.716 202.062 142.82 202.531 142.82C203.013 142.82 203.404 142.716 203.703 142.508C204.003 142.286 204.224 142 204.367 141.648C204.523 141.297 204.602 140.926 204.602 140.535V139.031C204.602 138.615 204.523 138.23 204.367 137.879C204.224 137.527 203.996 137.247 203.684 137.039C203.371 136.818 202.974 136.707 202.492 136.707C202.036 136.707 201.652 136.818 201.34 137.039C201.027 137.247 200.793 137.527 200.637 137.879C200.48 138.23 200.402 138.615 200.402 139.031ZM209.68 156.531V155.027C209.68 153.96 209.914 152.983 210.383 152.098C210.865 151.212 211.574 150.503 212.512 149.969C213.462 149.435 214.634 149.168 216.027 149.168C217.46 149.168 218.638 149.435 219.562 149.969C220.5 150.503 221.197 151.212 221.652 152.098C222.121 152.983 222.355 153.96 222.355 155.027V156.531C222.355 157.599 222.121 158.576 221.652 159.461C221.197 160.346 220.507 161.056 219.582 161.59C218.658 162.124 217.486 162.391 216.066 162.391C214.66 162.391 213.482 162.124 212.531 161.59C211.581 161.056 210.865 160.346 210.383 159.461C209.914 158.576 209.68 157.599 209.68 156.531ZM213.918 155.027V156.531C213.918 156.935 214.016 157.312 214.211 157.664C214.406 158.016 214.667 158.302 214.992 158.523C215.318 158.732 215.676 158.836 216.066 158.836C216.665 158.836 217.108 158.732 217.395 158.523C217.694 158.302 217.889 158.016 217.98 157.664C218.085 157.312 218.137 156.935 218.137 156.531V155.027C218.137 154.624 218.059 154.246 217.902 153.895C217.746 153.543 217.512 153.263 217.199 153.055C216.887 152.833 216.496 152.723 216.027 152.723C215.559 152.723 215.168 152.833 214.855 153.055C214.543 153.263 214.309 153.543 214.152 153.895C213.996 154.246 213.918 154.624 213.918 155.027ZM217.668 137.645L203.781 159.871L200.715 158.328L214.602 136.102L217.668 137.645Z" fill="#00AED4"/>
<path d="M174.5 249.539C173.948 249.539 173.5 249.091 173.5 248.539V212.542H155.817C154.94 212.542 154.488 211.494 155.089 210.856L185.772 178.313C186.166 177.895 186.832 177.895 187.227 178.313L217.909 210.856C218.511 211.494 218.058 212.542 217.182 212.542H199.5V248.539C199.5 249.091 199.052 249.539 198.5 249.539H174.5Z" fill="#6FC7E2"/>
<path d="M341.754 108.027H344.957C345.777 108.027 346.448 107.884 346.969 107.598C347.503 107.298 347.9 106.882 348.16 106.348C348.421 105.801 348.551 105.156 348.551 104.414C348.551 103.841 348.427 103.314 348.18 102.832C347.945 102.35 347.581 101.966 347.086 101.68C346.591 101.38 345.96 101.23 345.191 101.23C344.671 101.23 344.163 101.341 343.668 101.562C343.173 101.771 342.763 102.07 342.438 102.461C342.125 102.852 341.969 103.327 341.969 103.887H335.367C335.367 102.272 335.81 100.892 336.695 99.7461C337.594 98.5872 338.772 97.7018 340.23 97.0898C341.702 96.4648 343.284 96.1523 344.977 96.1523C346.995 96.1523 348.766 96.4648 350.289 97.0898C351.812 97.7018 352.997 98.6133 353.844 99.8242C354.703 101.022 355.133 102.507 355.133 104.277C355.133 105.254 354.905 106.172 354.449 107.031C353.993 107.891 353.355 108.646 352.535 109.297C351.715 109.948 350.751 110.462 349.645 110.84C348.551 111.204 347.353 111.387 346.051 111.387H341.754V108.027ZM341.754 112.93V109.648H346.051C347.47 109.648 348.766 109.811 349.938 110.137C351.109 110.449 352.118 110.918 352.965 111.543C353.811 112.168 354.462 112.943 354.918 113.867C355.374 114.779 355.602 115.827 355.602 117.012C355.602 118.34 355.335 119.525 354.801 120.566C354.267 121.608 353.518 122.487 352.555 123.203C351.591 123.919 350.465 124.466 349.176 124.844C347.887 125.208 346.487 125.391 344.977 125.391C343.792 125.391 342.607 125.234 341.422 124.922C340.237 124.596 339.156 124.102 338.18 123.438C337.203 122.76 336.415 121.901 335.816 120.859C335.23 119.805 334.938 118.548 334.938 117.09H341.539C341.539 117.689 341.702 118.236 342.027 118.73C342.366 119.212 342.815 119.596 343.375 119.883C343.935 120.169 344.54 120.312 345.191 120.312C345.999 120.312 346.682 120.163 347.242 119.863C347.815 119.551 348.251 119.134 348.551 118.613C348.85 118.092 349 117.513 349 116.875C349 115.911 348.837 115.143 348.512 114.57C348.199 113.997 347.737 113.581 347.125 113.32C346.526 113.06 345.803 112.93 344.957 112.93H341.754ZM378.707 108.184V113.379C378.707 115.423 378.466 117.201 377.984 118.711C377.516 120.221 376.839 121.471 375.953 122.461C375.081 123.451 374.039 124.186 372.828 124.668C371.617 125.15 370.283 125.391 368.824 125.391C367.652 125.391 366.559 125.241 365.543 124.941C364.527 124.629 363.609 124.16 362.789 123.535C361.982 122.897 361.285 122.103 360.699 121.152C360.113 120.202 359.664 119.082 359.352 117.793C359.039 116.491 358.883 115.02 358.883 113.379V108.184C358.883 106.126 359.117 104.349 359.586 102.852C360.068 101.341 360.751 100.091 361.637 99.1016C362.522 98.112 363.57 97.3763 364.781 96.8945C365.992 96.4128 367.327 96.1719 368.785 96.1719C369.957 96.1719 371.044 96.3281 372.047 96.6406C373.062 96.9401 373.98 97.4089 374.801 98.0469C375.621 98.6719 376.318 99.4596 376.891 100.41C377.477 101.361 377.926 102.487 378.238 103.789C378.551 105.078 378.707 106.543 378.707 108.184ZM372.125 114.18V107.344C372.125 106.432 372.073 105.638 371.969 104.961C371.878 104.284 371.734 103.711 371.539 103.242C371.357 102.773 371.129 102.396 370.855 102.109C370.582 101.81 370.27 101.595 369.918 101.465C369.579 101.322 369.202 101.25 368.785 101.25C368.264 101.25 367.796 101.361 367.379 101.582C366.975 101.79 366.63 102.129 366.344 102.598C366.057 103.066 365.836 103.691 365.68 104.473C365.536 105.254 365.465 106.211 365.465 107.344V114.18C365.465 115.104 365.51 115.911 365.602 116.602C365.706 117.279 365.849 117.858 366.031 118.34C366.227 118.809 366.461 119.193 366.734 119.492C367.008 119.779 367.32 119.987 367.672 120.117C368.023 120.247 368.408 120.312 368.824 120.312C369.332 120.312 369.788 120.208 370.191 120C370.595 119.792 370.94 119.453 371.227 118.984C371.526 118.503 371.747 117.871 371.891 117.09C372.047 116.296 372.125 115.326 372.125 114.18ZM382.184 103.535V102.031C382.184 100.951 382.418 99.9674 382.887 99.082C383.355 98.1966 384.059 97.487 384.996 96.9531C385.934 96.4193 387.099 96.1523 388.492 96.1523C389.924 96.1523 391.109 96.4193 392.047 96.9531C392.984 97.487 393.681 98.1966 394.137 99.082C394.605 99.9674 394.84 100.951 394.84 102.031V103.535C394.84 104.59 394.605 105.56 394.137 106.445C393.681 107.331 392.984 108.04 392.047 108.574C391.122 109.108 389.951 109.375 388.531 109.375C387.125 109.375 385.953 109.108 385.016 108.574C384.078 108.04 383.368 107.331 382.887 106.445C382.418 105.56 382.184 104.59 382.184 103.535ZM386.402 102.031V103.535C386.402 103.926 386.48 104.297 386.637 104.648C386.793 105 387.027 105.286 387.34 105.508C387.665 105.716 388.062 105.82 388.531 105.82C389.013 105.82 389.404 105.716 389.703 105.508C390.003 105.286 390.224 105 390.367 104.648C390.523 104.297 390.602 103.926 390.602 103.535V102.031C390.602 101.615 390.523 101.23 390.367 100.879C390.224 100.527 389.996 100.247 389.684 100.039C389.371 99.8177 388.974 99.707 388.492 99.707C388.036 99.707 387.652 99.8177 387.34 100.039C387.027 100.247 386.793 100.527 386.637 100.879C386.48 101.23 386.402 101.615 386.402 102.031ZM395.68 119.531V118.027C395.68 116.96 395.914 115.983 396.383 115.098C396.865 114.212 397.574 113.503 398.512 112.969C399.462 112.435 400.634 112.168 402.027 112.168C403.46 112.168 404.638 112.435 405.562 112.969C406.5 113.503 407.197 114.212 407.652 115.098C408.121 115.983 408.355 116.96 408.355 118.027V119.531C408.355 120.599 408.121 121.576 407.652 122.461C407.197 123.346 406.507 124.056 405.582 124.59C404.658 125.124 403.486 125.391 402.066 125.391C400.66 125.391 399.482 125.124 398.531 124.59C397.581 124.056 396.865 123.346 396.383 122.461C395.914 121.576 395.68 120.599 395.68 119.531ZM399.918 118.027V119.531C399.918 119.935 400.016 120.312 400.211 120.664C400.406 121.016 400.667 121.302 400.992 121.523C401.318 121.732 401.676 121.836 402.066 121.836C402.665 121.836 403.108 121.732 403.395 121.523C403.694 121.302 403.889 121.016 403.98 120.664C404.085 120.312 404.137 119.935 404.137 119.531V118.027C404.137 117.624 404.059 117.246 403.902 116.895C403.746 116.543 403.512 116.263 403.199 116.055C402.887 115.833 402.496 115.723 402.027 115.723C401.559 115.723 401.168 115.833 400.855 116.055C400.543 116.263 400.309 116.543 400.152 116.895C399.996 117.246 399.918 117.624 399.918 118.027ZM403.668 100.645L389.781 122.871L386.715 121.328L400.602 99.1016L403.668 100.645Z" fill="#00AED4"/>
<path d="M360.504 212.539C359.952 212.539 359.504 212.091 359.504 211.539V175.541H341.82C340.944 175.541 340.491 174.493 341.093 173.855L371.776 141.312C372.17 140.894 372.836 140.894 373.231 141.312L403.913 173.855C404.514 174.493 404.062 175.541 403.186 175.541H385.504V211.539C385.504 212.091 385.056 212.539 384.504 212.539H360.504Z" fill="#6FC7E2"/>
<path d="M481.25 433.844V432.528H478.548V433.844H481.25ZM482.216 431.828V434.544H477.596V431.828H482.216ZM475.496 433.844V432.528H472.822V433.844H475.496ZM476.476 431.828V434.544H471.884V431.828H476.476ZM473.27 439.276H476.434V438.072H473.27V439.276ZM473.27 436.084V437.274H476.434V436.084H473.27ZM480.83 437.274V436.084H477.498V437.274H480.83ZM480.83 439.276V438.072H477.498V439.276H480.83ZM483.182 441.18V442.09H477.498V444.064H476.434V442.09H470.862V441.18H476.434V440.116H472.262V435.244H481.894V440.116H477.498V441.18H483.182ZM487.886 438.03H494.76V444.078H493.682V439.066H487.802C487.592 440.886 487.046 442.65 485.73 444.12C485.562 443.882 485.184 443.518 484.946 443.336C486.71 441.32 486.906 438.688 486.906 436.154V431.45H487.942V434.754H493.206V431.31H494.256V435.776H487.942V436.154C487.942 436.784 487.928 437.414 487.886 438.03ZM507.78 433.956V432.682H502.222V433.956H507.78ZM507.78 436.098V434.796H502.222V436.098H507.78ZM508.802 431.8V436.98H501.214V431.8H508.802ZM503.384 438.842H500.318V440.256H503.384V438.842ZM500.318 442.664H503.384V441.082H500.318V442.664ZM499.338 444.092V437.918H504.406V443.98H503.384V443.574H500.318V444.092H499.338ZM506.632 442.664H509.726V441.082H506.632V442.664ZM509.726 438.842H506.632V440.256H509.726V438.842ZM505.624 437.918H510.762V443.98H509.726V443.574H506.632V444.092H505.624V437.918ZM520.856 435.048V434.25H517.118V435.048H520.856ZM521.766 433.662V435.636H516.25V433.662H521.766ZM516.544 439.178V439.85H521.402V439.178H516.544ZM516.544 437.96V438.604H521.402V437.96H516.544ZM516.544 436.742V437.386H521.402V436.742H516.544ZM522.326 440.452H520.268C521.248 440.802 522.368 441.278 523.012 441.712L522.172 442.104C521.598 441.712 520.59 441.208 519.61 440.858L520.212 440.452H517.566L518.322 440.69C517.622 441.222 516.516 441.768 515.592 442.09C515.452 441.936 515.144 441.642 514.962 441.502C515.886 441.222 516.88 440.858 517.496 440.452H515.648V436.154H522.326V440.452ZM514.192 442.524H523.796V432.878H514.192V442.524ZM513.198 431.926H524.818V444.106H523.796V443.462H514.192V444.106H513.198V431.926ZM538.006 436.322V434.992H534.296V436.322H538.006ZM538.006 438.45V437.092H534.296V438.45H538.006ZM538.006 440.592V439.234H534.296V440.592H538.006ZM533.372 434.166H535.388C535.472 433.746 535.57 433.27 535.626 432.85H532.994V431.954H539.266V432.85H536.69C536.578 433.298 536.452 433.76 536.326 434.166H538.944V441.418H533.372V434.166ZM527.982 434.964V436.336H529.452V434.964H527.982ZM527.982 432.808V434.166H529.452V432.808H527.982ZM531.748 434.166V432.808H530.264V434.166H531.748ZM531.748 436.336V434.964H530.264V436.336H531.748ZM532.91 441.642L532.294 442.454C531.93 442.034 531.034 441.208 530.334 440.606V444.064H529.382V440.396C528.71 441.558 527.856 442.664 526.988 443.322C526.89 443.042 526.652 442.622 526.484 442.384C527.45 441.712 528.472 440.494 529.13 439.29H526.75V438.352H529.382V437.162H527.142V431.982H532.63V437.162H530.334V438.352H532.854V439.29H530.334V439.654C531.006 440.13 532.546 441.306 532.91 441.642ZM534.702 441.698L535.584 442.216C534.884 442.93 533.722 443.7 532.714 444.12C532.56 443.91 532.238 443.616 532.014 443.434C533.022 443.042 534.142 442.3 534.702 441.698ZM536.648 442.272L537.418 441.754C538.16 442.258 539.14 443.014 539.616 443.532L538.818 444.092C538.342 443.588 537.404 442.804 536.648 442.272ZM550.312 433.41L549.332 433.704C549.206 433.116 548.926 432.192 548.66 431.506L549.612 431.268C549.892 431.954 550.172 432.822 550.312 433.41ZM552.986 433.816V434.796H546.21V433.816H552.986ZM548.996 441.572L548.016 441.88C547.876 440.424 547.456 437.834 547.008 435.888L547.876 435.664C548.366 437.638 548.828 440.158 548.996 441.572ZM545.216 432.206L546.098 432.514C545.734 433.48 545.3 434.712 544.922 435.44L544.25 435.188C544.6 434.404 545.006 433.088 545.216 432.206ZM542.36 435.146L541.562 435.356C541.436 434.558 541.114 433.326 540.82 432.388L541.576 432.206C541.884 433.144 542.22 434.348 542.36 435.146ZM541.968 437.75L542.654 437.974C542.346 439.486 541.702 441.418 540.96 442.384C540.848 442.09 540.624 441.628 540.47 441.362C541.072 440.55 541.716 439.01 541.968 437.75ZM545.888 436.938H543.858V444.078H542.892V436.938H540.666V435.958H542.892V431.296H543.858V435.958H545.888V436.938ZM544.054 438.156L544.614 437.764C544.866 438.128 545.832 439.864 546.014 440.27L545.314 441.054C545.076 440.368 544.334 438.688 544.054 438.156ZM550.718 442.496H553.378V443.518H545.65V442.496H549.794C550.298 440.62 550.844 437.652 551.096 435.566L552.146 435.734C551.796 437.89 551.236 440.634 550.718 442.496ZM561.05 443.084L561.022 443.112C562.31 442.412 563.262 441.502 563.92 440.298C563.472 439.206 563.15 437.96 562.884 436.602C562.646 437.19 562.394 437.708 562.114 438.156C561.988 438.016 561.694 437.764 561.484 437.582V438.884H558.32C558.18 439.178 558.026 439.472 557.872 439.78H559.636V439.682V439.22H560.49V439.696V439.78H561.89V440.536H560.406C560.294 441.11 560 441.712 559.356 442.272C560 442.552 560.602 442.846 561.05 443.084ZM559.524 440.536H557.438C557.256 440.83 557.088 441.11 556.92 441.376C557.424 441.53 557.956 441.712 558.474 441.922C559.09 441.474 559.384 440.984 559.524 440.536ZM556.192 437.288V438.212H557.928V437.288H556.192ZM560.56 437.288H558.754V438.212H560.56V437.288ZM565.404 434.978H563.486L563.416 435.146C563.64 436.644 563.962 438.03 564.438 439.248C564.914 438.044 565.222 436.644 565.404 434.978ZM556.444 435.286H557.928V434.39H556.444V435.286ZM557.928 432.92H556.444V433.69H557.928V432.92ZM560.35 432.92H558.754V433.69H560.35V432.92ZM558.754 435.286H560.35V434.39H558.754V435.286ZM567.392 434.978H566.328C566.076 437.134 565.628 438.898 564.914 440.34C565.544 441.6 566.398 442.608 567.504 443.21C567.294 443.392 566.986 443.742 566.832 444.008C565.81 443.378 565.012 442.426 564.382 441.264C563.612 442.44 562.576 443.364 561.19 444.092C561.106 443.91 560.882 443.602 560.714 443.392L560.378 443.7C559.916 443.434 559.286 443.112 558.586 442.832C557.788 443.294 556.64 443.714 555.016 444.064C554.946 443.854 554.736 443.546 554.568 443.364C555.898 443.098 556.892 442.776 557.62 442.426C556.962 442.174 556.276 441.936 555.632 441.768C555.898 441.432 556.192 440.984 556.486 440.536H554.68V439.78H556.92C557.088 439.472 557.228 439.178 557.368 438.884H555.296V436.63H557.928V436.014H555.632V434.432H554.666V433.648H555.632V432.192H557.928V431.282H558.754V432.192H561.204V433.648H562.002V434.432H561.204V436.014H558.754V436.63H561.484V437.372C562.408 435.846 563.066 433.564 563.458 431.282L564.368 431.464C564.2 432.318 563.99 433.2 563.766 434.04H567.392V434.978Z" fill="#B0B0B0"/>
<defs>
<linearGradient id="paint0_linear_367_48962" x1="93" y1="251" x2="93" y2="387" gradientUnits="userSpaceOnUse">
<stop stop-color="#0756AA"/>
<stop offset="1" stop-color="#17418F"/>
</linearGradient>
<linearGradient id="paint1_linear_367_48962" x1="280" y1="251" x2="280" y2="387" gradientUnits="userSpaceOnUse">
<stop stop-color="#0756AA"/>
<stop offset="1" stop-color="#17418F"/>
</linearGradient>
<linearGradient id="paint2_linear_367_48962" x1="280" y1="214" x2="280" y2="251" gradientUnits="userSpaceOnUse">
<stop stop-color="#859FD1"/>
<stop offset="1" stop-color="#4985C6"/>
</linearGradient>
<linearGradient id="paint3_linear_367_48962" x1="467" y1="177" x2="467" y2="214" gradientUnits="userSpaceOnUse">
<stop stop-color="#859FD1"/>
<stop offset="1" stop-color="#4985C6"/>
</linearGradient>
<linearGradient id="paint4_linear_367_48962" x1="467" y1="214" x2="467" y2="387" gradientUnits="userSpaceOnUse">
<stop stop-color="#0756AA"/>
<stop offset="1" stop-color="#17418F"/>
</linearGradient>
</defs>
</svg>
