<svg width="440" height="373" viewBox="0 0 440 373" fill="none" xmlns="http://www.w3.org/2000/svg">
<g clip-path="url(#clip0_416_54450)">
<mask id="mask0_416_54450" style="mask-type:luminance" maskUnits="userSpaceOnUse" x="71" y="359" width="10" height="10">
<path d="M81 359H71V369H81V359Z" fill="white"/>
</mask>
<g mask="url(#mask0_416_54450)">
<path d="M80.9063 364.094L75.9062 359.094L70.9062 364.094L75.9062 369.094L80.9063 364.094Z" fill="url(#paint0_linear_416_54450)"/>
</g>
<path d="M92.553 360.007H96.489V361.143H92.553V360.007ZM98.777 357.559H100.025V372.263H98.777V357.559ZM91.097 363.479L91.913 362.759C92.3077 363.079 92.7183 363.436 93.145 363.831C93.5823 364.215 93.9877 364.604 94.361 364.999C94.745 365.383 95.0543 365.73 95.289 366.039L94.441 366.871C94.217 366.562 93.9183 366.21 93.545 365.815C93.1717 365.41 92.7717 365.004 92.345 364.599C91.9183 364.194 91.5023 363.82 91.097 363.479ZM92.697 357.543L93.897 357.767C93.673 358.78 93.401 359.756 93.081 360.695C92.761 361.634 92.3983 362.503 91.993 363.303C91.5877 364.103 91.1397 364.812 90.649 365.431C90.5743 365.356 90.473 365.271 90.345 365.175C90.2277 365.079 90.0997 364.983 89.961 364.887C89.833 364.791 89.721 364.716 89.625 364.663C90.1157 364.108 90.5583 363.458 90.953 362.711C91.3477 361.964 91.689 361.154 91.977 360.279C92.2757 359.394 92.5157 358.482 92.697 357.543ZM96.105 360.007H96.329L96.569 359.959L97.401 360.215C97.1343 362.327 96.6863 364.167 96.057 365.735C95.4277 367.292 94.6543 368.604 93.737 369.671C92.8303 370.738 91.8063 371.591 90.665 372.231C90.601 372.124 90.5103 372.007 90.393 371.879C90.2757 371.751 90.1477 371.628 90.009 371.511C89.881 371.394 89.7637 371.303 89.657 371.239C90.7877 370.652 91.7903 369.874 92.665 368.903C93.5503 367.932 94.2863 366.738 94.873 365.319C95.4597 363.9 95.8703 362.231 96.105 360.311V360.007ZM99.545 363.127L100.457 362.407C100.916 362.759 101.396 363.154 101.897 363.591C102.409 364.028 102.889 364.46 103.337 364.887C103.796 365.314 104.169 365.692 104.457 366.023L103.465 366.871C103.198 366.53 102.841 366.14 102.393 365.703C101.956 365.255 101.486 364.807 100.985 364.359C100.494 363.911 100.014 363.5 99.545 363.127ZM111.529 358.951H119.961V359.863H111.529V358.951ZM111.161 362.775H120.313V363.687H111.161V362.775ZM111.097 368.711H120.377V369.623H111.097V368.711ZM111.945 360.823H119.705V361.703H111.945V360.823ZM113.465 357.575H114.537V363.143H113.465V357.575ZM116.921 357.575H118.009V363.143H116.921V357.575ZM115.177 363.159H116.233V368.999H115.177V363.159ZM118.313 364.615H119.417V371.031C119.417 371.33 119.374 371.559 119.289 371.719C119.214 371.879 119.07 372.007 118.857 372.103C118.644 372.188 118.345 372.236 117.961 372.247C117.588 372.258 117.113 372.263 116.537 372.263C116.505 372.124 116.457 371.959 116.393 371.767C116.329 371.586 116.26 371.426 116.185 371.287C116.612 371.298 116.996 371.303 117.337 371.303C117.689 371.303 117.913 371.303 118.009 371.303C118.116 371.292 118.19 371.266 118.233 371.223C118.286 371.191 118.313 371.127 118.313 371.031V364.615ZM112.121 364.615H118.777V365.527H113.209V372.295H112.121V364.615ZM112.697 366.679H118.761V367.511H112.697V366.679ZM107.113 368.583L108.201 368.823C108.02 369.484 107.769 370.124 107.449 370.743C107.129 371.351 106.788 371.868 106.425 372.295C106.361 372.231 106.27 372.156 106.153 372.071C106.036 371.996 105.918 371.916 105.801 371.831C105.694 371.756 105.593 371.698 105.497 371.655C105.86 371.271 106.18 370.807 106.457 370.263C106.745 369.719 106.964 369.159 107.113 368.583ZM109.129 368.967L110.041 368.567C110.297 368.951 110.553 369.378 110.809 369.847C111.065 370.306 111.252 370.706 111.369 371.047L110.425 371.511C110.34 371.287 110.228 371.026 110.089 370.727C109.95 370.428 109.796 370.13 109.625 369.831C109.465 369.522 109.3 369.234 109.129 368.967ZM107.385 362.151V364.215H109.785V362.151H107.385ZM107.385 365.159V367.255H109.785V365.159H107.385ZM107.385 359.159V361.207H109.785V359.159H107.385ZM106.329 358.167H110.857V368.247H106.329V358.167ZM124.185 367.159H133.785V367.959H124.185V367.159ZM124.217 365.175H134.473V369.943H124.217V369.063H133.289V366.055H124.217V365.175ZM128.313 365.607H129.481V370.439C129.481 370.706 129.556 370.882 129.705 370.967C129.854 371.052 130.18 371.095 130.681 371.095C130.777 371.095 130.937 371.095 131.161 371.095C131.396 371.095 131.662 371.095 131.961 371.095C132.26 371.095 132.558 371.095 132.857 371.095C133.166 371.095 133.444 371.095 133.689 371.095C133.945 371.095 134.137 371.095 134.265 371.095C134.553 371.095 134.766 371.052 134.905 370.967C135.054 370.871 135.161 370.69 135.225 370.423C135.289 370.146 135.332 369.74 135.353 369.207C135.481 369.292 135.646 369.372 135.849 369.447C136.052 369.522 136.233 369.575 136.393 369.607C136.34 370.258 136.249 370.759 136.121 371.111C135.993 371.463 135.79 371.708 135.513 371.847C135.236 371.996 134.846 372.071 134.345 372.071C134.26 372.071 134.089 372.071 133.833 372.071C133.588 372.071 133.3 372.071 132.969 372.071C132.638 372.071 132.308 372.071 131.977 372.071C131.657 372.071 131.369 372.071 131.113 372.071C130.868 372.071 130.702 372.071 130.617 372.071C130.03 372.071 129.566 372.023 129.225 371.927C128.884 371.842 128.644 371.676 128.505 371.431C128.377 371.196 128.313 370.866 128.313 370.439V365.607ZM123.609 365.175H124.761V370.775H123.609V365.175ZM122.921 358.199H135.065V359.063H122.921V358.199ZM128.361 358.423H129.529V364.583H128.361V358.423ZM122.217 360.071H135.817V363.527H134.617V360.935H123.369V363.527H122.217V360.071ZM123.657 363.719C124.158 363.655 124.74 363.575 125.401 363.479C126.062 363.383 126.75 363.282 127.465 363.175L127.513 363.927C126.894 364.066 126.286 364.194 125.689 364.311C125.092 364.428 124.532 364.54 124.009 364.647L123.657 363.719ZM124.057 361.895L124.409 361.239C124.761 361.303 125.129 361.383 125.513 361.479C125.897 361.564 126.265 361.66 126.617 361.767C126.98 361.874 127.278 361.98 127.513 362.087L127.161 362.823C126.926 362.716 126.633 362.604 126.281 362.487C125.929 362.37 125.556 362.258 125.161 362.151C124.777 362.044 124.409 361.959 124.057 361.895ZM133.449 361.159L133.993 361.863C133.684 361.991 133.342 362.114 132.969 362.231C132.606 362.338 132.238 362.439 131.865 362.535C131.492 362.62 131.15 362.695 130.841 362.759L130.409 362.151C130.718 362.076 131.06 361.98 131.433 361.863C131.806 361.746 132.169 361.623 132.521 361.495C132.884 361.367 133.193 361.255 133.449 361.159ZM130.201 363.815L130.489 363.079C130.905 363.122 131.342 363.186 131.801 363.271C132.27 363.356 132.718 363.452 133.145 363.559C133.582 363.666 133.945 363.767 134.233 363.863L133.977 364.695C133.678 364.588 133.31 364.482 132.873 364.375C132.446 364.258 131.998 364.151 131.529 364.055C131.07 363.948 130.628 363.868 130.201 363.815ZM138.329 361.047H150.745V362.279H138.329V361.047ZM150.281 361.047H151.513C151.513 361.047 151.513 361.09 151.513 361.175C151.513 361.26 151.508 361.351 151.497 361.447C151.497 361.543 151.492 361.623 151.481 361.687C151.396 363.34 151.305 364.748 151.209 365.911C151.124 367.074 151.022 368.034 150.905 368.791C150.798 369.538 150.676 370.13 150.537 370.567C150.409 370.994 150.254 371.303 150.073 371.495C149.881 371.73 149.678 371.89 149.465 371.975C149.262 372.06 149.006 372.119 148.697 372.151C148.43 372.172 148.057 372.178 147.577 372.167C147.108 372.156 146.628 372.14 146.137 372.119C146.126 371.938 146.084 371.73 146.009 371.495C145.945 371.26 145.849 371.058 145.721 370.887C146.276 370.93 146.782 370.962 147.241 370.983C147.71 370.994 148.046 370.999 148.249 370.999C148.42 370.999 148.558 370.983 148.665 370.951C148.782 370.919 148.889 370.85 148.985 370.743C149.134 370.604 149.268 370.332 149.385 369.927C149.513 369.511 149.625 368.935 149.721 368.199C149.828 367.452 149.924 366.514 150.009 365.383C150.105 364.252 150.196 362.892 150.281 361.303V361.047ZM143.561 357.591H144.809V360.359C144.809 361.095 144.777 361.874 144.713 362.695C144.649 363.506 144.51 364.338 144.297 365.191C144.084 366.034 143.758 366.876 143.321 367.719C142.884 368.562 142.297 369.378 141.561 370.167C140.825 370.946 139.897 371.671 138.777 372.343C138.713 372.236 138.628 372.124 138.521 372.007C138.414 371.89 138.302 371.772 138.185 371.655C138.068 371.548 137.956 371.463 137.849 371.399C138.916 370.759 139.796 370.076 140.489 369.351C141.193 368.626 141.748 367.879 142.153 367.111C142.569 366.332 142.873 365.554 143.065 364.775C143.268 363.996 143.401 363.234 143.465 362.487C143.529 361.74 143.561 361.031 143.561 360.359V357.591Z" fill="#4F4F4F"/>
<mask id="mask1_416_54450" style="mask-type:luminance" maskUnits="userSpaceOnUse" x="203" y="359" width="10" height="10">
<path d="M213 359H203V369H213V359Z" fill="white"/>
</mask>
<g mask="url(#mask1_416_54450)">
<path d="M212.906 364.094L207.906 359.094L202.906 364.094L207.906 369.094L212.906 364.094Z" fill="url(#paint1_linear_416_54450)"/>
</g>
<path d="M229.672 364.31C230.195 365.985 231.021 367.419 232.152 368.614C233.283 369.809 234.717 370.657 236.456 371.158C236.371 371.243 236.275 371.345 236.168 371.462C236.061 371.59 235.96 371.723 235.864 371.862C235.779 372.001 235.704 372.123 235.64 372.23C234.445 371.835 233.389 371.281 232.472 370.566C231.565 369.851 230.787 368.993 230.136 367.99C229.496 366.987 228.973 365.857 228.568 364.598L229.672 364.31ZM222.632 358.79H235.304V360.006H222.632V358.79ZM222.056 363.718H235.992V364.934H222.056V363.718ZM228.264 359.206H229.528V361.91C229.528 362.571 229.485 363.27 229.4 364.006C229.315 364.731 229.144 365.467 228.888 366.214C228.632 366.961 228.243 367.697 227.72 368.422C227.208 369.137 226.52 369.819 225.656 370.47C224.803 371.121 223.736 371.713 222.456 372.246C222.403 372.15 222.328 372.038 222.232 371.91C222.147 371.782 222.051 371.654 221.944 371.526C221.848 371.409 221.757 371.313 221.672 371.238C222.877 370.747 223.88 370.203 224.68 369.606C225.491 369.009 226.131 368.385 226.6 367.734C227.08 367.083 227.437 366.422 227.672 365.75C227.917 365.078 228.077 364.417 228.152 363.766C228.227 363.105 228.264 362.486 228.264 361.91V359.206ZM245.016 360.95H252.2V362.102H245.016V360.95ZM240.056 360.966L240.648 360.31C240.979 360.534 241.32 360.79 241.672 361.078C242.035 361.355 242.371 361.633 242.68 361.91C243 362.187 243.261 362.443 243.464 362.678L242.84 363.43C242.648 363.206 242.397 362.95 242.088 362.662C241.779 362.363 241.448 362.065 241.096 361.766C240.744 361.467 240.397 361.201 240.056 360.966ZM249.24 358.422L250.12 357.91C250.44 358.23 250.765 358.587 251.096 358.982C251.427 359.377 251.683 359.729 251.864 360.038L250.936 360.614C250.776 360.305 250.531 359.947 250.2 359.542C249.88 359.126 249.56 358.753 249.24 358.422ZM241.016 357.414L242.152 357.75C241.885 358.454 241.555 359.163 241.16 359.878C240.776 360.582 240.333 361.259 239.832 361.91C239.341 362.55 238.808 363.115 238.232 363.606C238.189 363.521 238.136 363.419 238.072 363.302C238.019 363.174 237.955 363.051 237.88 362.934C237.816 362.806 237.752 362.699 237.688 362.614C238.189 362.187 238.653 361.681 239.08 361.094C239.517 360.507 239.901 359.899 240.232 359.27C240.563 358.63 240.824 358.011 241.016 357.414ZM244.088 358.982H244.328L244.552 358.95L245.272 359.238C244.952 360.806 244.472 362.171 243.832 363.334C243.203 364.497 242.451 365.478 241.576 366.278C240.712 367.067 239.768 367.702 238.744 368.182C238.691 368.086 238.616 367.979 238.52 367.862C238.424 367.745 238.323 367.633 238.216 367.526C238.109 367.409 238.008 367.318 237.912 367.254C238.925 366.817 239.843 366.241 240.664 365.526C241.496 364.811 242.205 363.931 242.792 362.886C243.389 361.841 243.821 360.625 244.088 359.238V358.982ZM241.192 358.982H244.52V359.974H240.584L241.192 358.982ZM247.672 357.75H248.808V359.51C248.808 360.161 248.76 360.865 248.664 361.622C248.579 362.369 248.387 363.137 248.088 363.926C247.789 364.715 247.347 365.489 246.76 366.246C246.173 367.003 245.389 367.713 244.408 368.374C244.301 368.257 244.157 368.123 243.976 367.974C243.805 367.825 243.645 367.702 243.496 367.606C244.445 366.966 245.197 366.294 245.752 365.59C246.307 364.875 246.723 364.161 247 363.446C247.277 362.721 247.459 362.022 247.544 361.35C247.629 360.678 247.672 360.065 247.672 359.51V357.75ZM242.52 369.19L243.624 369.078C243.731 369.547 243.821 370.059 243.896 370.614C243.971 371.158 244.013 371.611 244.024 371.974L242.84 372.15C242.84 371.894 242.824 371.595 242.792 371.254C242.771 370.923 242.733 370.577 242.68 370.214C242.637 369.851 242.584 369.51 242.52 369.19ZM245.816 369.158L246.92 368.95C247.069 369.259 247.213 369.595 247.352 369.958C247.491 370.31 247.613 370.651 247.72 370.982C247.827 371.313 247.907 371.606 247.96 371.862L246.776 372.118C246.701 371.734 246.573 371.265 246.392 370.71C246.221 370.155 246.029 369.638 245.816 369.158ZM249.128 369.078L250.184 368.63C250.451 368.95 250.723 369.302 251 369.686C251.277 370.059 251.533 370.433 251.768 370.806C252.013 371.179 252.205 371.505 252.344 371.782L251.224 372.31C251.096 372.022 250.915 371.691 250.68 371.318C250.456 370.945 250.205 370.561 249.928 370.166C249.661 369.771 249.395 369.409 249.128 369.078ZM239.752 368.742L240.856 369.046C240.579 369.59 240.253 370.161 239.88 370.758C239.507 371.355 239.139 371.862 238.776 372.278L237.656 371.83C237.901 371.574 238.152 371.275 238.408 370.934C238.664 370.593 238.904 370.235 239.128 369.862C239.363 369.478 239.571 369.105 239.752 368.742ZM237.96 364.23C238.397 364.134 238.904 364.017 239.48 363.878C240.056 363.729 240.659 363.574 241.288 363.414L241.416 364.198C240.851 364.369 240.301 364.539 239.768 364.71C239.245 364.881 238.744 365.035 238.264 365.174L237.96 364.23ZM247.816 362.134L248.808 361.686C249.149 362.155 249.496 362.657 249.848 363.19C250.2 363.713 250.536 364.241 250.856 364.774C251.187 365.307 251.48 365.819 251.736 366.31C251.992 366.801 252.2 367.243 252.36 367.638L251.288 368.166C251.128 367.771 250.92 367.329 250.664 366.838C250.419 366.337 250.136 365.814 249.816 365.27C249.507 364.726 249.181 364.187 248.84 363.654C248.499 363.11 248.157 362.603 247.816 362.134ZM256.888 359.046H267.752V359.99H256.888V359.046ZM256.952 360.998H266.536V361.942H256.952V360.998ZM255.304 362.982H264.84V363.942H255.304V362.982ZM254.264 367.094H263.928V368.054H254.264V367.094ZM257.24 357.542L258.424 357.878C258.125 358.571 257.768 359.243 257.352 359.894C256.947 360.545 256.504 361.147 256.024 361.702C255.544 362.246 255.048 362.726 254.536 363.142C254.483 363.067 254.397 362.971 254.28 362.854C254.173 362.737 254.067 362.619 253.96 362.502C253.853 362.385 253.752 362.289 253.656 362.214C254.403 361.659 255.091 360.971 255.72 360.15C256.36 359.329 256.867 358.459 257.24 357.542ZM264.504 362.982H265.704C265.693 364.23 265.699 365.355 265.72 366.358C265.752 367.35 265.816 368.198 265.912 368.902C266.008 369.606 266.147 370.15 266.328 370.534C266.52 370.907 266.776 371.094 267.096 371.094C267.267 371.094 267.379 370.875 267.432 370.438C267.485 370.001 267.523 369.435 267.544 368.742C267.651 368.881 267.784 369.019 267.944 369.158C268.104 369.286 268.248 369.387 268.376 369.462C268.344 370.155 268.28 370.705 268.184 371.11C268.099 371.526 267.965 371.819 267.784 371.99C267.613 372.171 267.357 372.262 267.016 372.262C266.429 372.262 265.965 372.049 265.624 371.622C265.293 371.206 265.048 370.598 264.888 369.798C264.728 368.987 264.621 368.011 264.568 366.87C264.525 365.718 264.504 364.422 264.504 362.982ZM255.352 364.838L256.264 364.454C256.541 364.763 256.797 365.105 257.032 365.478C257.277 365.851 257.453 366.182 257.56 366.47L256.584 366.886C256.499 366.609 256.339 366.278 256.104 365.894C255.869 365.499 255.619 365.147 255.352 364.838ZM258.584 364.294H259.72V372.262H258.584V364.294ZM262.056 364.47L263.128 364.87C262.84 365.243 262.541 365.627 262.232 366.022C261.923 366.406 261.635 366.737 261.368 367.014L260.584 366.662C260.755 366.459 260.931 366.23 261.112 365.974C261.293 365.718 261.469 365.457 261.64 365.19C261.811 364.923 261.949 364.683 262.056 364.47ZM257.224 368.55L258.136 368.918C257.88 369.334 257.571 369.755 257.208 370.182C256.845 370.598 256.451 370.982 256.024 371.334C255.608 371.686 255.197 371.974 254.792 372.198C254.707 372.07 254.589 371.921 254.44 371.75C254.291 371.579 254.152 371.441 254.024 371.334C254.419 371.153 254.813 370.913 255.208 370.614C255.613 370.315 255.992 369.99 256.344 369.638C256.707 369.286 257 368.923 257.224 368.55ZM260.376 369.222L261.08 368.566C261.443 368.822 261.816 369.105 262.2 369.414C262.584 369.723 262.941 370.033 263.272 370.342C263.613 370.641 263.891 370.913 264.104 371.158L263.352 371.91C263.139 371.654 262.867 371.371 262.536 371.062C262.205 370.753 261.848 370.438 261.464 370.118C261.091 369.787 260.728 369.489 260.376 369.222Z" fill="#4F4F4F"/>
<mask id="mask2_416_54450" style="mask-type:luminance" maskUnits="userSpaceOnUse" x="319" y="359" width="10" height="10">
<path d="M329 359H319V369H329V359Z" fill="white"/>
</mask>
<g mask="url(#mask2_416_54450)">
<path d="M328.906 364.094L323.906 359.094L318.906 364.094L323.906 369.094L328.906 364.094Z" fill="url(#paint2_linear_416_54450)"/>
</g>
<path d="M340.311 361.207H348.071V362.183H340.311V361.207ZM340.343 367.879H349.479V368.935H340.343V367.879ZM338.407 363.319H342.647V364.311H338.407V363.319ZM344.391 363.399H345.559V366.327C345.559 366.604 345.522 366.818 345.447 366.967C345.372 367.116 345.228 367.228 345.015 367.303C344.812 367.378 344.546 367.426 344.215 367.447C343.884 367.458 343.474 367.463 342.983 367.463C342.951 367.314 342.898 367.154 342.823 366.983C342.759 366.812 342.684 366.658 342.599 366.519C342.972 366.53 343.298 366.535 343.575 366.535C343.863 366.535 344.055 366.535 344.151 366.535C344.247 366.524 344.311 366.503 344.343 366.471C344.375 366.439 344.391 366.38 344.391 366.295V363.399ZM339.815 369.367L340.839 369.879C340.583 370.274 340.284 370.706 339.943 371.175C339.612 371.655 339.255 372.066 338.871 372.407L337.831 371.799C338.226 371.49 338.599 371.106 338.951 370.647C339.303 370.188 339.591 369.762 339.815 369.367ZM342.247 369.799L343.367 369.639C343.506 370.012 343.628 370.423 343.735 370.871C343.842 371.319 343.906 371.703 343.927 372.023L342.743 372.215C342.732 371.895 342.679 371.511 342.583 371.063C342.498 370.615 342.386 370.194 342.247 369.799ZM345.703 369.783L346.727 369.463C346.983 369.826 347.223 370.226 347.447 370.663C347.671 371.1 347.826 371.484 347.911 371.815L346.823 372.183C346.738 371.863 346.588 371.474 346.375 371.015C346.172 370.567 345.948 370.156 345.703 369.783ZM348.839 369.799L349.815 369.303C350.114 369.538 350.412 369.799 350.711 370.087C351.01 370.364 351.287 370.647 351.543 370.935C351.81 371.223 352.023 371.49 352.183 371.735L351.143 372.279C350.994 372.044 350.791 371.778 350.535 371.479C350.29 371.191 350.018 370.903 349.719 370.615C349.431 370.316 349.138 370.044 348.839 369.799ZM342.423 363.319H342.631L342.839 363.271L343.575 363.575C343.266 364.354 342.839 365.042 342.295 365.639C341.762 366.236 341.154 366.743 340.471 367.159C339.799 367.575 339.1 367.911 338.375 368.167C338.311 368.039 338.215 367.879 338.087 367.687C337.959 367.495 337.836 367.346 337.719 367.239C338.38 367.047 339.02 366.77 339.639 366.407C340.268 366.044 340.828 365.618 341.319 365.127C341.81 364.626 342.178 364.076 342.423 363.479V363.319ZM347.799 361.207H348.087L348.327 361.143L349.079 361.767C348.716 362.066 348.306 362.359 347.847 362.647C347.399 362.935 346.93 363.202 346.439 363.447C345.959 363.692 345.484 363.9 345.015 364.071C344.94 363.975 344.839 363.858 344.711 363.719C344.583 363.58 344.476 363.474 344.391 363.399C344.807 363.239 345.228 363.047 345.655 362.823C346.092 362.599 346.498 362.37 346.871 362.135C347.244 361.89 347.554 361.66 347.799 361.447V361.207ZM345.863 363.447C346.258 364.012 346.78 364.524 347.431 364.983C348.082 365.442 348.812 365.836 349.623 366.167C350.434 366.498 351.271 366.754 352.135 366.935C352.05 367.01 351.954 367.106 351.847 367.223C351.751 367.34 351.66 367.463 351.575 367.591C351.49 367.719 351.42 367.836 351.367 367.943C350.492 367.719 349.644 367.41 348.823 367.015C348.012 366.62 347.271 366.151 346.599 365.607C345.938 365.052 345.388 364.444 344.951 363.783L345.863 363.447ZM349.751 363.031L350.711 363.671C350.284 364.034 349.815 364.391 349.303 364.743C348.802 365.084 348.338 365.378 347.911 365.623L347.143 365.031C347.42 364.86 347.719 364.658 348.039 364.423C348.359 364.188 348.668 363.948 348.967 363.703C349.276 363.458 349.538 363.234 349.751 363.031ZM337.879 358.679H344.503V359.719H337.879V358.679ZM341.255 357.559H342.391V360.775H341.255V357.559ZM347.751 357.559H348.871V360.775H347.751V357.559ZM345.415 358.679H352.055V359.719H345.415V358.679ZM356.887 359.047H367.751V359.991H356.887V359.047ZM356.951 360.999H366.535V361.943H356.951V360.999ZM355.303 362.983H364.839V363.943H355.303V362.983ZM354.263 367.095H363.927V368.055H354.263V367.095ZM357.239 357.543L358.423 357.879C358.124 358.572 357.767 359.244 357.351 359.895C356.946 360.546 356.503 361.148 356.023 361.703C355.543 362.247 355.047 362.727 354.535 363.143C354.482 363.068 354.396 362.972 354.279 362.855C354.172 362.738 354.066 362.62 353.959 362.503C353.852 362.386 353.751 362.29 353.655 362.215C354.402 361.66 355.09 360.972 355.719 360.151C356.359 359.33 356.866 358.46 357.239 357.543ZM364.503 362.983H365.703C365.692 364.231 365.698 365.356 365.719 366.359C365.751 367.351 365.815 368.199 365.911 368.903C366.007 369.607 366.146 370.151 366.327 370.535C366.519 370.908 366.775 371.095 367.095 371.095C367.266 371.095 367.378 370.876 367.431 370.439C367.484 370.002 367.522 369.436 367.543 368.743C367.65 368.882 367.783 369.02 367.943 369.159C368.103 369.287 368.247 369.388 368.375 369.463C368.343 370.156 368.279 370.706 368.183 371.111C368.098 371.527 367.964 371.82 367.783 371.991C367.612 372.172 367.356 372.263 367.015 372.263C366.428 372.263 365.964 372.05 365.623 371.623C365.292 371.207 365.047 370.599 364.887 369.799C364.727 368.988 364.62 368.012 364.567 366.871C364.524 365.719 364.503 364.423 364.503 362.983ZM355.351 364.839L356.263 364.455C356.54 364.764 356.796 365.106 357.031 365.479C357.276 365.852 357.452 366.183 357.559 366.471L356.583 366.887C356.498 366.61 356.338 366.279 356.103 365.895C355.868 365.5 355.618 365.148 355.351 364.839ZM358.583 364.295H359.719V372.263H358.583V364.295ZM362.055 364.471L363.127 364.871C362.839 365.244 362.54 365.628 362.231 366.023C361.922 366.407 361.634 366.738 361.367 367.015L360.583 366.663C360.754 366.46 360.93 366.231 361.111 365.975C361.292 365.719 361.468 365.458 361.639 365.191C361.81 364.924 361.948 364.684 362.055 364.471ZM357.223 368.551L358.135 368.919C357.879 369.335 357.57 369.756 357.207 370.183C356.844 370.599 356.45 370.983 356.023 371.335C355.607 371.687 355.196 371.975 354.791 372.199C354.706 372.071 354.588 371.922 354.439 371.751C354.29 371.58 354.151 371.442 354.023 371.335C354.418 371.154 354.812 370.914 355.207 370.615C355.612 370.316 355.991 369.991 356.343 369.639C356.706 369.287 356.999 368.924 357.223 368.551ZM360.375 369.223L361.079 368.567C361.442 368.823 361.815 369.106 362.199 369.415C362.583 369.724 362.94 370.034 363.271 370.343C363.612 370.642 363.89 370.914 364.103 371.159L363.351 371.911C363.138 371.655 362.866 371.372 362.535 371.063C362.204 370.754 361.847 370.439 361.463 370.119C361.09 369.788 360.727 369.49 360.375 369.223Z" fill="#4F4F4F"/>
<path d="M384 172.578C384 263.705 310.127 337.578 219 337.578C127.873 337.578 54 263.705 54 172.578C54 81.4511 127.873 7.57812 219 7.57812C310.127 7.57812 384 81.4511 384 172.578Z" fill="url(#paint3_linear_416_54450)"/>
<path d="M240.16 0.696174C264.267 3.56696 287.512 11.4222 308.42 23.7625L219.466 174.468L240.16 0.696174Z" fill="url(#paint4_linear_416_54450)"/>
<path d="M308.265 23.667C320.598 30.9291 331.993 39.6767 342.196 49.7137L219.469 174.466L308.265 23.667Z" fill="url(#paint5_linear_416_54450)"/>
<path d="M314.76 147.541C328.575 200.439 296.938 254.521 244.048 268.338C191.157 282.154 137.083 250.513 123.238 197.615C109.423 144.717 141.091 90.635 193.951 76.8183C246.841 63.0017 300.915 94.6433 314.73 147.541" fill="white"/>
<path d="M114.576 277.224C113.84 277.224 113.184 277.091 112.608 276.824C112.032 276.547 111.573 276.173 111.232 275.704C110.901 275.224 110.736 274.68 110.736 274.072C110.736 273.549 110.837 273.085 111.04 272.68C111.243 272.275 111.504 271.928 111.824 271.64C112.144 271.341 112.48 271.096 112.832 270.904V270.824C112.405 270.515 112.037 270.136 111.728 269.688C111.419 269.229 111.264 268.691 111.264 268.072C111.264 267.464 111.408 266.931 111.696 266.472C111.995 266.013 112.395 265.661 112.896 265.416C113.408 265.16 113.989 265.032 114.64 265.032C115.323 265.032 115.909 265.165 116.4 265.432C116.891 265.699 117.269 266.067 117.536 266.536C117.813 266.995 117.952 267.533 117.952 268.152C117.952 268.547 117.872 268.92 117.712 269.272C117.552 269.624 117.355 269.944 117.12 270.232C116.896 270.509 116.656 270.739 116.4 270.92V271C116.763 271.192 117.093 271.432 117.392 271.72C117.691 271.997 117.931 272.333 118.112 272.728C118.293 273.123 118.384 273.587 118.384 274.12C118.384 274.696 118.224 275.219 117.904 275.688C117.595 276.157 117.152 276.531 116.576 276.808C116.011 277.085 115.344 277.224 114.576 277.224ZM115.36 270.456C115.701 270.125 115.957 269.779 116.128 269.416C116.309 269.043 116.4 268.653 116.4 268.248C116.4 267.896 116.331 267.576 116.192 267.288C116.053 267 115.845 266.776 115.568 266.616C115.301 266.445 114.976 266.36 114.592 266.36C114.112 266.36 113.712 266.515 113.392 266.824C113.072 267.123 112.912 267.539 112.912 268.072C112.912 268.499 113.024 268.856 113.248 269.144C113.472 269.432 113.771 269.677 114.144 269.88C114.517 270.083 114.923 270.275 115.36 270.456ZM114.624 275.88C115.019 275.88 115.365 275.805 115.664 275.656C115.973 275.507 116.213 275.299 116.384 275.032C116.555 274.755 116.64 274.429 116.64 274.056C116.64 273.704 116.565 273.4 116.416 273.144C116.267 272.877 116.059 272.648 115.792 272.456C115.536 272.264 115.232 272.088 114.88 271.928C114.528 271.757 114.149 271.592 113.744 271.432C113.339 271.72 113.008 272.077 112.752 272.504C112.496 272.92 112.368 273.379 112.368 273.88C112.368 274.275 112.464 274.621 112.656 274.92C112.859 275.219 113.131 275.453 113.472 275.624C113.813 275.795 114.197 275.88 114.624 275.88ZM123.029 277.224C122.346 277.224 121.754 277.101 121.253 276.856C120.762 276.6 120.346 276.301 120.005 275.96L121.013 274.808C121.248 275.075 121.536 275.288 121.877 275.448C122.218 275.608 122.57 275.688 122.933 275.688C123.306 275.688 123.658 275.603 123.989 275.432C124.33 275.261 124.624 274.984 124.869 274.6C125.125 274.216 125.322 273.704 125.461 273.064C125.61 272.424 125.685 271.64 125.685 270.712C125.685 269.731 125.589 268.925 125.397 268.296C125.205 267.656 124.933 267.187 124.581 266.888C124.24 266.579 123.829 266.424 123.349 266.424C123.008 266.424 122.698 266.525 122.421 266.728C122.144 266.92 121.925 267.197 121.765 267.56C121.605 267.923 121.525 268.36 121.525 268.872C121.525 269.373 121.594 269.8 121.733 270.152C121.882 270.504 122.101 270.776 122.389 270.968C122.677 271.149 123.024 271.24 123.429 271.24C123.802 271.24 124.186 271.123 124.581 270.888C124.976 270.653 125.349 270.269 125.701 269.736L125.781 271.096C125.557 271.395 125.296 271.656 124.997 271.88C124.698 272.104 124.389 272.28 124.069 272.408C123.749 272.525 123.429 272.584 123.109 272.584C122.458 272.584 121.882 272.445 121.381 272.168C120.89 271.891 120.501 271.48 120.213 270.936C119.936 270.381 119.797 269.693 119.797 268.872C119.797 268.093 119.957 267.416 120.277 266.84C120.608 266.253 121.04 265.8 121.573 265.48C122.106 265.16 122.688 265 123.317 265C123.882 265 124.41 265.117 124.901 265.352C125.402 265.576 125.834 265.923 126.197 266.392C126.57 266.861 126.864 267.453 127.077 268.168C127.29 268.883 127.397 269.731 127.397 270.712C127.397 271.864 127.28 272.856 127.045 273.688C126.81 274.509 126.485 275.181 126.069 275.704C125.653 276.216 125.184 276.6 124.661 276.856C124.138 277.101 123.594 277.224 123.029 277.224ZM130.634 277.224C130.293 277.224 129.999 277.101 129.754 276.856C129.519 276.6 129.402 276.285 129.402 275.912C129.402 275.528 129.519 275.219 129.754 274.984C129.999 274.739 130.293 274.616 130.634 274.616C130.986 274.616 131.279 274.739 131.514 274.984C131.759 275.219 131.882 275.528 131.882 275.912C131.882 276.285 131.759 276.6 131.514 276.856C131.279 277.101 130.986 277.224 130.634 277.224ZM136.104 277C136.157 275.923 136.248 274.936 136.376 274.04C136.504 273.133 136.69 272.28 136.936 271.48C137.181 270.669 137.501 269.885 137.896 269.128C138.29 268.36 138.77 267.576 139.336 266.776H133.816V265.208H141.384V266.344C140.701 267.197 140.146 268.024 139.72 268.824C139.293 269.613 138.962 270.419 138.728 271.24C138.493 272.061 138.322 272.941 138.216 273.88C138.109 274.808 138.034 275.848 137.992 277H136.104ZM145.469 272.44C144.925 272.44 144.445 272.296 144.029 272.008C143.613 271.709 143.287 271.283 143.053 270.728C142.829 270.163 142.717 269.485 142.717 268.696C142.717 267.907 142.829 267.24 143.053 266.696C143.287 266.141 143.613 265.72 144.029 265.432C144.445 265.144 144.925 265 145.469 265C146.023 265 146.509 265.144 146.925 265.432C147.341 265.72 147.661 266.141 147.885 266.696C148.119 267.24 148.237 267.907 148.237 268.696C148.237 269.485 148.119 270.163 147.885 270.728C147.661 271.283 147.341 271.709 146.925 272.008C146.509 272.296 146.023 272.44 145.469 272.44ZM145.469 271.368C145.885 271.368 146.221 271.149 146.477 270.712C146.743 270.275 146.877 269.603 146.877 268.696C146.877 267.789 146.743 267.128 146.477 266.712C146.221 266.296 145.885 266.088 145.469 266.088C145.063 266.088 144.727 266.296 144.461 266.712C144.194 267.128 144.061 267.789 144.061 268.696C144.061 269.603 144.194 270.275 144.461 270.712C144.727 271.149 145.063 271.368 145.469 271.368ZM145.837 277.224L152.285 265H153.453L147.005 277.224H145.837ZM153.837 277.224C153.293 277.224 152.813 277.075 152.397 276.776C151.981 276.477 151.655 276.051 151.421 275.496C151.197 274.941 151.085 274.269 151.085 273.48C151.085 272.68 151.197 272.008 151.421 271.464C151.655 270.92 151.981 270.504 152.397 270.216C152.813 269.917 153.293 269.768 153.837 269.768C154.381 269.768 154.861 269.917 155.277 270.216C155.693 270.504 156.013 270.92 156.237 271.464C156.471 272.008 156.589 272.68 156.589 273.48C156.589 274.269 156.471 274.941 156.237 275.496C156.013 276.051 155.693 276.477 155.277 276.776C154.861 277.075 154.381 277.224 153.837 277.224ZM153.837 276.12C154.242 276.12 154.578 275.907 154.845 275.48C155.122 275.053 155.261 274.387 155.261 273.48C155.261 272.563 155.122 271.896 154.845 271.48C154.578 271.064 154.242 270.856 153.837 270.856C153.431 270.856 153.095 271.064 152.829 271.48C152.562 271.896 152.429 272.563 152.429 273.48C152.429 274.387 152.562 275.053 152.829 275.48C153.095 275.907 153.431 276.12 153.837 276.12Z" fill="white"/>
<path d="M331.288 25.208C329.432 25.208 328.232 24.472 327.448 23.592L328.344 22.408C329.032 23.112 329.912 23.704 331.128 23.704C332.456 23.704 333.368 22.968 333.368 21.736C333.368 20.44 332.536 19.592 329.88 19.592V18.232C332.2 18.232 332.968 17.352 332.968 16.168C332.968 15.128 332.28 14.488 331.16 14.472C330.248 14.488 329.48 14.92 328.808 15.576L327.848 14.424C328.776 13.592 329.864 13 331.224 13C333.336 13 334.824 14.104 334.824 16.04C334.824 17.4 334.04 18.344 332.792 18.808V18.888C334.152 19.224 335.224 20.248 335.224 21.832C335.224 23.96 333.448 25.208 331.288 25.208ZM338.509 25.208C337.821 25.208 337.277 24.68 337.277 23.928C337.277 23.16 337.821 22.616 338.509 22.616C339.197 22.616 339.741 23.16 339.741 23.928C339.741 24.68 339.197 25.208 338.509 25.208ZM343.291 16.872C343.291 18.376 343.963 19.24 345.195 19.24C345.931 19.24 346.763 18.808 347.435 17.8C347.259 15.48 346.379 14.424 345.099 14.424C344.091 14.424 343.291 15.336 343.291 16.872ZM344.779 25.208C343.419 25.208 342.459 24.664 341.771 23.96L342.779 22.824C343.243 23.352 343.963 23.704 344.699 23.704C346.123 23.704 347.355 22.552 347.467 19.192C346.779 20.04 345.771 20.568 344.875 20.568C342.907 20.568 341.579 19.336 341.579 16.872C341.579 14.536 343.179 13 345.083 13C347.339 13 349.163 14.808 349.163 18.712C349.163 23.352 347.051 25.208 344.779 25.208ZM353.344 20.456C351.696 20.456 350.592 19.08 350.592 16.712C350.592 14.344 351.696 13 353.344 13C354.992 13 356.112 14.344 356.112 16.712C356.112 19.08 354.992 20.456 353.344 20.456ZM353.344 19.368C354.176 19.368 354.768 18.52 354.768 16.712C354.768 14.888 354.176 14.088 353.344 14.088C352.528 14.088 351.936 14.888 351.936 16.712C351.936 18.52 352.528 19.368 353.344 19.368ZM353.712 25.208L360.16 13H361.328L354.88 25.208H353.712ZM361.712 25.208C360.064 25.208 358.944 23.848 358.944 21.48C358.944 19.112 360.064 17.768 361.712 17.768C363.344 17.768 364.464 19.112 364.464 21.48C364.464 23.848 363.344 25.208 361.712 25.208ZM361.712 24.136C362.528 24.136 363.12 23.288 363.12 21.48C363.12 19.656 362.528 18.856 361.712 18.856C360.88 18.856 360.304 19.656 360.304 21.48C360.304 23.288 360.88 24.136 361.712 24.136Z" fill="#4985C6"/>
<path d="M250.928 45.224C250.363 45.224 249.835 45.1067 249.344 44.872C248.853 44.6267 248.421 44.264 248.048 43.784C247.675 43.2933 247.381 42.68 247.168 41.944C246.955 41.208 246.848 40.3387 246.848 39.336C246.848 38.2053 246.971 37.24 247.216 36.44C247.461 35.6293 247.792 34.9733 248.208 34.472C248.624 33.9707 249.099 33.6027 249.632 33.368C250.165 33.1227 250.72 33 251.296 33C251.957 33 252.528 33.1227 253.008 33.368C253.499 33.6133 253.909 33.912 254.24 34.264L253.232 35.384C253.019 35.128 252.747 34.92 252.416 34.76C252.085 34.5893 251.744 34.504 251.392 34.504C250.88 34.504 250.405 34.6587 249.968 34.968C249.541 35.2667 249.2 35.768 248.944 36.472C248.688 37.176 248.56 38.1307 248.56 39.336C248.56 40.3493 248.656 41.1867 248.848 41.848C249.04 42.4987 249.312 42.9893 249.664 43.32C250.016 43.64 250.427 43.8 250.896 43.8C251.248 43.8 251.557 43.6987 251.824 43.496C252.101 43.2933 252.32 43.0107 252.48 42.648C252.64 42.2747 252.72 41.8373 252.72 41.336C252.72 40.8347 252.645 40.408 252.496 40.056C252.347 39.704 252.128 39.4373 251.84 39.256C251.563 39.0747 251.216 38.984 250.8 38.984C250.448 38.984 250.069 39.096 249.664 39.32C249.269 39.544 248.891 39.928 248.528 40.472L248.464 39.128C248.688 38.808 248.949 38.5413 249.248 38.328C249.547 38.104 249.856 37.9333 250.176 37.816C250.507 37.6987 250.821 37.64 251.12 37.64C251.781 37.64 252.357 37.7787 252.848 38.056C253.349 38.3227 253.739 38.728 254.016 39.272C254.304 39.816 254.448 40.504 254.448 41.336C254.448 42.1147 254.283 42.7973 253.952 43.384C253.632 43.96 253.205 44.4133 252.672 44.744C252.149 45.064 251.568 45.224 250.928 45.224ZM257.509 45.224C257.168 45.224 256.874 45.1013 256.629 44.856C256.394 44.6 256.277 44.2853 256.277 43.912C256.277 43.528 256.394 43.2187 256.629 42.984C256.874 42.7387 257.168 42.616 257.509 42.616C257.861 42.616 258.154 42.7387 258.389 42.984C258.634 43.2187 258.757 43.528 258.757 43.912C258.757 44.2853 258.634 44.6 258.389 44.856C258.154 45.1013 257.861 45.224 257.509 45.224ZM265.315 45V37.32C265.315 37 265.325 36.6213 265.347 36.184C265.368 35.736 265.384 35.352 265.395 35.032H265.331C265.181 35.3307 265.027 35.6347 264.867 35.944C264.717 36.2533 264.557 36.5573 264.387 36.856L262.083 40.392H268.531V41.832H260.211V40.6L264.899 33.208H267.043V45H265.315ZM272.344 40.44C271.8 40.44 271.32 40.296 270.904 40.008C270.488 39.7093 270.162 39.2827 269.928 38.728C269.704 38.1627 269.592 37.4853 269.592 36.696C269.592 35.9067 269.704 35.24 269.928 34.696C270.162 34.1413 270.488 33.72 270.904 33.432C271.32 33.144 271.8 33 272.344 33C272.898 33 273.384 33.144 273.8 33.432C274.216 33.72 274.536 34.1413 274.76 34.696C274.994 35.24 275.112 35.9067 275.112 36.696C275.112 37.4853 274.994 38.1627 274.76 38.728C274.536 39.2827 274.216 39.7093 273.8 40.008C273.384 40.296 272.898 40.44 272.344 40.44ZM272.344 39.368C272.76 39.368 273.096 39.1493 273.352 38.712C273.618 38.2747 273.752 37.6027 273.752 36.696C273.752 35.7893 273.618 35.128 273.352 34.712C273.096 34.296 272.76 34.088 272.344 34.088C271.938 34.088 271.602 34.296 271.336 34.712C271.069 35.128 270.936 35.7893 270.936 36.696C270.936 37.6027 271.069 38.2747 271.336 38.712C271.602 39.1493 271.938 39.368 272.344 39.368ZM272.712 45.224L279.16 33H280.328L273.88 45.224H272.712ZM280.712 45.224C280.168 45.224 279.688 45.0747 279.272 44.776C278.856 44.4773 278.53 44.0507 278.296 43.496C278.072 42.9413 277.96 42.2693 277.96 41.48C277.96 40.68 278.072 40.008 278.296 39.464C278.53 38.92 278.856 38.504 279.272 38.216C279.688 37.9173 280.168 37.768 280.712 37.768C281.256 37.768 281.736 37.9173 282.152 38.216C282.568 38.504 282.888 38.92 283.112 39.464C283.346 40.008 283.464 40.68 283.464 41.48C283.464 42.2693 283.346 42.9413 283.112 43.496C282.888 44.0507 282.568 44.4773 282.152 44.776C281.736 45.0747 281.256 45.224 280.712 45.224ZM280.712 44.12C281.117 44.12 281.453 43.9067 281.72 43.48C281.997 43.0533 282.136 42.3867 282.136 41.48C282.136 40.5627 281.997 39.896 281.72 39.48C281.453 39.064 281.117 38.856 280.712 38.856C280.306 38.856 279.97 39.064 279.704 39.48C279.437 39.896 279.304 40.5627 279.304 41.48C279.304 42.3867 279.437 43.0533 279.704 43.48C279.97 43.9067 280.306 44.12 280.712 44.12Z" fill="white"/>
</g>
<defs>
<linearGradient id="paint0_linear_416_54450" x1="75.5" y1="359" x2="75.5001" y2="369" gradientUnits="userSpaceOnUse">
<stop stop-color="#C2C559"/>
<stop offset="1" stop-color="#A7AC39"/>
</linearGradient>
<linearGradient id="paint1_linear_416_54450" x1="208" y1="359" x2="208" y2="369" gradientUnits="userSpaceOnUse">
<stop stop-color="#FF9E45"/>
<stop offset="1" stop-color="#FF7A00"/>
</linearGradient>
<linearGradient id="paint2_linear_416_54450" x1="324" y1="359" x2="324" y2="369" gradientUnits="userSpaceOnUse">
<stop stop-color="#6FC7E2"/>
<stop offset="1" stop-color="#00AED4"/>
</linearGradient>
<linearGradient id="paint3_linear_416_54450" x1="219" y1="7.57812" x2="219" y2="337.578" gradientUnits="userSpaceOnUse">
<stop stop-color="#C2C559"/>
<stop offset="1" stop-color="#A7AC39"/>
</linearGradient>
<linearGradient id="paint4_linear_416_54450" x1="240" y1="1.00294" x2="240" y2="98.5029" gradientUnits="userSpaceOnUse">
<stop stop-color="#FF9E45"/>
<stop offset="1" stop-color="#FF7A00"/>
</linearGradient>
<linearGradient id="paint5_linear_416_54450" x1="324.907" y1="9.7973" x2="324.907" y2="120" gradientUnits="userSpaceOnUse">
<stop stop-color="#6FC7E2"/>
<stop offset="1" stop-color="#00AED4"/>
</linearGradient>
<clipPath id="clip0_416_54450">
<rect width="440" height="373" fill="white"/>
</clipPath>
</defs>
</svg>
