<svg width="568" height="436" viewBox="0 0 568 436" fill="none" xmlns="http://www.w3.org/2000/svg">
<path d="M365.2 3.186V4.878H363.688V1.8H368.062C367.864 1.368 367.648 0.936 367.396 0.558001L368.728 0C369.142 0.522 369.52 1.242 369.718 1.8H373.678V4.626H372.13V3.186H365.2ZM358.018 11.682L359.26 11.916C359.098 13.464 358.792 15.138 358.45 16.254C358.18 16.092 357.568 15.894 357.262 15.804C357.658 14.724 357.892 13.14 358.018 11.682ZM359.89 11.862L361.006 11.592C361.24 12.798 361.438 14.328 361.51 15.354L360.304 15.678C360.268 14.634 360.088 13.068 359.89 11.862ZM361.798 11.484L362.842 11.124C363.256 12.222 363.67 13.608 363.85 14.526L362.752 14.958C362.59 14.004 362.158 12.564 361.798 11.484ZM365.668 4.266L367.108 4.59C366.874 5.562 366.532 6.588 366.118 7.596V16.614H364.75V10.386C364.498 10.764 364.246 11.142 363.976 11.466C363.778 11.16 363.382 10.602 363.112 10.35L363.202 10.224L362.428 10.548C362.41 10.422 362.374 10.26 362.338 10.098C358.792 10.674 358.234 10.836 357.91 11.016C357.838 10.71 357.604 9.99 357.442 9.612C357.82 9.522 358.198 9.072 358.72 8.406C358.972 8.1 359.476 7.416 360.034 6.534C358.414 6.732 358.036 6.822 357.784 6.948C357.712 6.642 357.496 5.94 357.334 5.562C357.64 5.472 357.928 5.112 358.252 4.59C358.63 4.05 359.782 2.052 360.43 0.125999L361.762 0.702C361.078 2.304 360.16 3.996 359.242 5.328L360.844 5.202C361.312 4.392 361.762 3.528 362.14 2.7L363.346 3.492C362.302 5.526 360.97 7.596 359.602 9.27L361.996 8.928C361.834 8.352 361.618 7.758 361.384 7.236L362.464 6.84C362.896 7.758 363.328 8.928 363.508 9.756C364.552 8.19 365.308 6.012 365.668 4.266ZM371.95 11.178V9.306H368.764V11.178H371.95ZM368.764 14.49H371.95V12.492H368.764V14.49ZM373.714 6.39H371.14C370.978 6.948 370.834 7.47 370.69 7.974H373.408V16.506H371.95V15.822H368.764V16.596H367.36V7.974H369.196C369.304 7.47 369.394 6.912 369.484 6.39H367V5.04H373.714V6.39Z" fill="black"/>
<path d="M349.615 1.78337V6.33738H343.765V1.76538H344.971V5.07738H346.051V0.127375H347.347V5.07738H348.373V1.78337H349.615ZM342.001 0.109375L343.369 0.685375C342.559 2.14338 341.335 3.79938 340.183 4.87938C340.003 4.55538 339.625 3.90738 339.391 3.60138C340.381 2.70138 341.461 1.24338 342.001 0.109375ZM342.307 3.74538L343.621 4.26738C343.333 4.96938 342.973 5.70738 342.595 6.42738V16.6154H341.119V8.80338C340.759 9.30738 340.417 9.77538 340.057 10.1714C339.895 9.82937 339.481 9.03738 339.211 8.67738C340.381 7.45338 341.569 5.58138 342.307 3.74538ZM343.531 8.69538L343.549 7.38138H349.561V8.69538H343.531ZM344.359 9.36138H345.799C345.745 12.6734 345.475 15.0314 343.873 16.4354C343.693 16.0754 343.243 15.4814 342.901 15.2114C344.161 14.0774 344.323 12.1874 344.359 9.36138ZM348.823 12.4574L350.101 11.7374C350.191 12.1154 350.353 12.6554 350.479 12.9434C348.139 14.4194 347.743 14.7974 347.509 15.1034C347.419 14.7074 347.113 14.0054 346.879 13.6634C347.149 13.5194 347.437 13.1594 347.437 12.4574V9.34338H348.823V12.4574ZM353.773 4.87938H352.045C352.009 5.02338 351.955 5.16738 351.901 5.29338C352.117 7.03938 352.423 8.67738 352.855 10.1174C353.323 8.58738 353.593 6.84138 353.773 4.87938ZM355.951 4.87938H355.195C354.907 7.70538 354.421 10.0994 353.593 12.1154C354.241 13.4654 355.069 14.5274 356.149 15.2654C355.825 15.5354 355.375 16.1294 355.159 16.5074C354.205 15.7874 353.449 14.8334 352.837 13.6634C352.171 14.8514 351.343 15.8594 350.281 16.6874C350.083 16.3814 349.543 15.8234 349.237 15.5534C350.497 14.6534 351.433 13.4834 352.135 12.0074C351.631 10.6394 351.271 9.07338 351.001 7.36338C350.839 7.70538 350.623 8.02938 350.407 8.33537C350.245 8.01138 349.759 7.34538 349.453 7.02138C350.623 5.36538 351.289 2.82738 351.667 0.127375L353.107 0.361376C352.927 1.42338 352.729 2.46738 352.477 3.45738H355.951V4.87938Z" fill="black"/>
<path d="M337.678 1.511V2.987H333.43V1.511H337.678ZM333.268 3.329L332.17 3.977C331.882 3.347 331.252 2.339 330.658 1.619L331.702 1.061C332.314 1.745 332.962 2.699 333.268 3.329ZM324.448 0.125L325.978 0.665001C325.06 2.177 323.638 3.851 322.306 4.913C322.09 4.571 321.694 3.977 321.406 3.671C322.576 2.771 323.818 1.313 324.448 0.125ZM326.716 7.001H327.94C327.922 10.421 327.724 12.725 326.338 14.111C326.194 13.823 325.798 13.337 325.492 13.121C326.572 11.951 326.698 10.061 326.716 7.001ZM332.422 12.383H332.98C333.142 12.383 333.394 12.347 333.556 12.293C333.592 12.617 333.646 13.193 333.682 13.481C333.484 13.553 333.232 13.571 332.962 13.571H332.458C331.252 13.571 331.036 13.103 331.036 11.753V7.001H332.26V11.789C332.26 12.239 332.278 12.383 332.422 12.383ZM337.948 5.723L337.93 7.235H336.418V14.561C336.418 15.425 336.274 15.893 335.734 16.145C335.176 16.433 334.348 16.451 333.124 16.451C333.07 16.001 332.854 15.299 332.638 14.831C333.466 14.849 334.276 14.849 334.51 14.849C334.762 14.831 334.834 14.777 334.834 14.561V7.235H332.998V5.939H330.19V16.577H328.714V5.939H326.194V4.535C325.816 5.309 325.384 6.101 324.898 6.857V16.649H323.35V8.981C322.918 9.485 322.468 9.935 322.018 10.349C321.874 9.989 321.37 9.179 321.082 8.837C322.54 7.595 323.962 5.705 324.808 3.779L326.32 4.265L326.266 4.391H328.714V0.233002H330.19V4.391H333.034V5.723H337.948Z" fill="black"/>
<path d="M309.295 7.86738L309.493 9.37938C308.809 9.57738 308.125 9.77538 307.441 9.97338V14.7074C307.441 15.5714 307.261 16.0214 306.739 16.2734C306.217 16.5254 305.407 16.5794 304.183 16.5614C304.111 16.1654 303.895 15.4634 303.679 15.0494C304.471 15.0674 305.227 15.0674 305.443 15.0494C305.713 15.0494 305.803 14.9594 305.803 14.7074V10.4414C305.101 10.6394 304.453 10.8194 303.823 10.9814L303.391 9.37938C304.075 9.21738 304.903 9.01938 305.803 8.80338V5.18538H303.589V3.63738H305.803V0.109375H307.441V3.61938H309.331V5.18538H307.441V8.35338L309.295 7.86738ZM317.071 8.33537H312.031C312.607 9.73937 313.399 10.9814 314.443 12.0434C315.559 11.0174 316.459 9.77538 317.071 8.33537ZM318.115 6.75138L319.195 7.18338C318.475 9.66738 317.269 11.6294 315.685 13.1414C316.927 14.0774 318.403 14.7794 320.113 15.2294C319.735 15.5534 319.267 16.2194 319.033 16.6514C317.215 16.1294 315.685 15.3194 314.371 14.2214C312.931 15.3014 311.257 16.0934 309.457 16.6154C309.277 16.1834 308.863 15.4634 308.557 15.1034C310.231 14.6894 311.797 14.0054 313.183 13.0694C311.995 11.7554 311.077 10.2074 310.393 8.40738L310.627 8.33537H309.907V6.80538H313.615V4.33938H309.583V2.80938H313.615V0.109375H315.271V2.80938H319.429V4.33938H315.271V6.80538H317.827L318.115 6.75138Z" fill="black"/>
<path d="M299.305 5.41837V2.39437H294.193V5.41837H299.305ZM300.925 0.972375V6.84037H292.627V0.972375H300.925ZM291.889 10.0084L290.953 11.3764C290.719 10.8184 290.179 9.82837 289.693 8.96437V16.6504H288.109V9.18037C287.515 10.9084 286.777 12.5824 285.985 13.6624C285.859 13.1944 285.463 12.4564 285.211 12.0244C286.147 10.8004 287.137 8.65837 287.713 6.75037H285.481V5.20237H288.109V2.64637C287.443 2.77237 286.777 2.88037 286.147 2.97038C286.075 2.61037 285.895 2.03437 285.697 1.67437C287.497 1.33237 289.531 0.828375 290.773 0.234375L291.709 1.60237C291.115 1.85437 290.413 2.05237 289.693 2.25037V5.20237H291.871V6.75037H289.693V7.12837C290.179 7.70437 291.583 9.55838 291.889 10.0084ZM297.667 14.7424H301.843V16.2364H291.547V14.7424H296.011V12.6724H292.501V11.2324H296.011V9.37837C295.003 9.48637 293.977 9.55838 293.041 9.59438C293.023 9.23438 292.807 8.65837 292.645 8.29837C295.165 8.13637 298.135 7.81237 299.845 7.30837L300.907 8.56837C299.989 8.82037 298.855 9.01837 297.667 9.18037V11.2324H301.123V12.6724H297.667V14.7424Z" fill="black"/>
<path d="M282.798 0.271376V7.54338C282.798 8.33538 282.636 8.71337 282.078 8.91138C281.538 9.14538 280.692 9.16338 279.432 9.16338C279.36 8.76738 279.126 8.19138 278.928 7.81338C279.828 7.84938 280.692 7.84938 280.944 7.83138C281.214 7.83138 281.286 7.75938 281.286 7.52538V0.271376H282.798ZM279.378 1.00938V6.89538H277.866V1.00938H279.378ZM269.01 3.38538H271.566V2.46738H269.604C269.406 2.80938 269.19 3.11538 269.01 3.38538ZM281.7 11.1434L282.906 12.0074C281.988 12.6374 280.872 13.2674 279.864 13.7174C280.998 14.3654 282.366 14.8334 283.95 15.0854C283.608 15.3914 283.23 16.0034 283.014 16.4174C279.414 15.7154 277.056 14.0234 275.706 11.2514C274.896 11.8634 273.906 12.4394 272.808 12.9254V14.7974L276.57 14.0054C276.516 14.3834 276.48 14.9594 276.498 15.2474C271.98 16.3094 271.404 16.4714 271.044 16.7054V16.5794C270.936 16.2194 270.684 15.7154 270.504 15.4814C270.81 15.2834 271.278 14.8874 271.278 14.0234V13.5194C270.306 13.8794 269.298 14.1494 268.326 14.3294C268.128 13.9874 267.732 13.4114 267.426 13.1234C269.586 12.7814 271.926 12.0614 273.582 11.1434H267.732V9.81138H275.148C275.004 9.45138 274.824 9.09138 274.644 8.76738L274.986 8.67738C274.698 8.69538 274.392 8.69538 274.014 8.69538C273.942 8.35338 273.744 7.95738 273.582 7.66938C274.104 7.68738 274.536 7.68738 274.68 7.68738C274.842 7.66938 274.878 7.63338 274.878 7.48938V6.42738H273.006V9.23538H271.566V6.42738H269.802V8.78538H268.488V5.34738H271.566V4.55538H267.66V3.38538H268.848C268.56 3.18738 268.074 2.93538 267.804 2.82738C268.416 2.10738 268.92 1.11738 269.226 0.145376L270.504 0.469375C270.396 0.757375 270.288 1.04538 270.18 1.33338H271.566V0.109375H273.006V1.33338H276.066V2.46738H273.006V3.38538H276.624V4.55538H273.006V5.34738H276.246V7.47138C276.246 7.97538 276.174 8.22738 275.904 8.42538L276.21 8.33537C276.48 8.78537 276.768 9.32538 276.966 9.81138H283.662V11.1434H277.218C277.632 11.8094 278.136 12.4214 278.748 12.9254C279.774 12.4214 280.944 11.6834 281.7 11.1434Z" fill="black"/>
<path d="M255.295 7.86738L255.493 9.37938C254.809 9.57738 254.125 9.77538 253.441 9.97338V14.7074C253.441 15.5714 253.261 16.0214 252.739 16.2734C252.217 16.5254 251.407 16.5794 250.183 16.5614C250.111 16.1654 249.895 15.4634 249.679 15.0494C250.471 15.0674 251.227 15.0674 251.443 15.0494C251.713 15.0494 251.803 14.9594 251.803 14.7074V10.4414C251.101 10.6394 250.453 10.8194 249.823 10.9814L249.391 9.37938C250.075 9.21738 250.903 9.01938 251.803 8.80338V5.18538H249.589V3.63738H251.803V0.109375H253.441V3.61938H255.331V5.18538H253.441V8.35338L255.295 7.86738ZM263.071 8.33537H258.031C258.607 9.73937 259.399 10.9814 260.443 12.0434C261.559 11.0174 262.459 9.77538 263.071 8.33537ZM264.115 6.75138L265.195 7.18338C264.475 9.66738 263.269 11.6294 261.685 13.1414C262.927 14.0774 264.403 14.7794 266.113 15.2294C265.735 15.5534 265.267 16.2194 265.033 16.6514C263.215 16.1294 261.685 15.3194 260.371 14.2214C258.931 15.3014 257.257 16.0934 255.457 16.6154C255.277 16.1834 254.863 15.4634 254.557 15.1034C256.231 14.6894 257.797 14.0054 259.183 13.0694C257.995 11.7554 257.077 10.2074 256.393 8.40738L256.627 8.33537H255.907V6.80538H259.615V4.33938H255.583V2.80938H259.615V0.109375H261.271V2.80938H265.429V4.33938H261.271V6.80538H263.827L264.115 6.75138Z" fill="black"/>
<path d="M243.522 3.78137L242.352 4.84338C241.812 4.08738 240.588 2.98938 239.562 2.23338L240.66 1.27938C241.686 1.98138 242.928 3.02538 243.522 3.78137ZM243.036 8.47938L241.902 9.57738C241.308 8.80338 239.994 7.65138 238.896 6.89538L239.958 5.92338C241.038 6.64338 242.406 7.72338 243.036 8.47938ZM238.392 9.81138L237.384 11.1254C237.132 10.5854 236.52 9.57738 235.98 8.74938V16.6154H234.36V9.32538C233.694 10.9634 232.884 12.4934 232.056 13.5194C231.894 13.0694 231.498 12.3854 231.246 11.9714C232.308 10.7474 233.46 8.60538 234.126 6.69738H231.48V5.13138H234.36V2.71938C233.586 2.86337 232.812 2.97138 232.092 3.07938C232.038 2.71938 231.804 2.12537 231.624 1.78337C233.64 1.45937 235.944 0.937375 237.348 0.325376L238.302 1.69338C237.618 1.96338 236.826 2.17938 235.98 2.37737V5.13138H238.5V6.69738H235.98V6.94938C236.52 7.50738 238.05 9.34338 238.392 9.81138ZM248.04 11.6294L245.826 12.0074V16.6154H244.17V12.2954L238.5 13.2494L238.248 11.6474L244.17 10.6574V0.109375H245.826V10.3874L247.788 10.0634L248.04 11.6294Z" fill="black"/>
<path d="M216.54 9.97388H220.446V14.3299H222.786V9.97388H226.764V6.66188H222.786V2.68388H220.464V6.67988H216.54V9.97388ZM224.406 14.3299H229.734V15.8599H213.66V14.3299H218.844V11.4319H214.902V5.23988H218.844V2.68388H214.074V1.17188H229.374V2.68388H224.406V5.22188H228.456V11.4139H224.406V14.3299Z" fill="black"/>
<path d="M208.168 13.2494H204.424V16.2014H202.84V13.2494H199.222V11.8994H202.84V10.3514H199.6V9.03738H201.256C201.112 8.44338 200.752 7.63338 200.41 7.03938L201.724 6.69738C202.12 7.32738 202.498 8.19138 202.66 8.74938L201.706 9.03738H204.658C204.964 8.31738 205.342 7.32738 205.522 6.64338L207.034 6.98538C206.728 7.68738 206.422 8.40738 206.116 9.03738H207.826V10.3514H204.424V11.8994H208.168V13.2494ZM211.552 3.34938H204.388C204.316 3.92538 204.226 4.48338 204.136 4.98738H210.742V14.7974C210.742 15.6974 210.508 16.1114 209.878 16.3454C209.248 16.5974 208.204 16.5974 206.782 16.5974C206.674 16.1834 206.422 15.5534 206.188 15.1574C207.214 15.2114 208.312 15.1934 208.618 15.1754C208.942 15.1754 209.032 15.0854 209.032 14.7974V6.53538H198.34V16.5974H196.666V4.98738H202.516C202.57 4.50138 202.66 3.92538 202.714 3.34938H195.82V1.78337H202.876C202.93 1.18937 202.966 0.613375 202.984 0.109375L204.82 0.289375C204.766 0.775375 204.694 1.27937 204.622 1.78337H211.552V3.34938Z" fill="black"/>
<path d="M379.347 41.0996C377.547 41.0996 376.359 39.5696 376.359 36.9056C376.359 34.2596 377.547 32.7656 379.347 32.7656C381.165 32.7656 382.353 34.2596 382.353 36.9056C382.353 39.5696 381.165 41.0996 379.347 41.0996ZM379.347 40.0736C380.391 40.0736 381.111 39.0116 381.111 36.9056C381.111 34.7996 380.391 33.7736 379.347 33.7736C378.321 33.7736 377.601 34.7996 377.601 36.9056C377.601 39.0116 378.321 40.0736 379.347 40.0736ZM379.743 46.4456L387.015 32.7656H388.131L380.841 46.4456H379.743ZM388.545 46.4456C386.745 46.4456 385.539 44.9336 385.539 42.2696C385.539 39.6236 386.745 38.1296 388.545 38.1296C390.345 38.1296 391.533 39.6236 391.533 42.2696C391.533 44.9336 390.345 46.4456 388.545 46.4456ZM388.545 45.4376C389.571 45.4376 390.291 44.3756 390.291 42.2696C390.291 40.1636 389.571 39.1376 388.545 39.1376C387.501 39.1376 386.799 40.1636 386.799 42.2696C386.799 44.3756 387.501 45.4376 388.545 45.4376Z" fill="#00AED4"/>
<path d="M370.677 46.4456C368.157 46.4456 366.555 44.1596 366.555 39.5696C366.555 34.9796 368.157 32.7656 370.677 32.7656C373.179 32.7656 374.781 34.9976 374.781 39.5696C374.781 44.1596 373.179 46.4456 370.677 46.4456ZM370.677 45.1316C372.171 45.1316 373.179 43.4576 373.179 39.5696C373.179 35.7176 372.171 34.0796 370.677 34.0796C369.165 34.0796 368.157 35.7176 368.157 39.5696C368.157 43.4576 369.165 45.1316 370.677 45.1316Z" fill="#00AED4"/>
<path d="M360.441 46.4456C358.371 46.4456 357.075 45.5816 356.211 44.6456L357.039 43.5656C357.813 44.3756 358.821 45.0776 360.315 45.0776C361.881 45.0776 362.997 44.1416 362.997 42.6116C362.997 41.0456 361.935 39.9836 358.893 39.9836V38.7236C361.611 38.7236 362.547 37.6256 362.547 36.2036C362.547 34.9436 361.683 34.1156 360.315 34.1156C359.253 34.1156 358.317 34.6376 357.579 35.3936L356.697 34.3496C357.687 33.4316 358.857 32.7656 360.387 32.7656C362.601 32.7656 364.221 33.9896 364.221 36.0776C364.221 37.6796 363.267 38.7416 361.881 39.2636V39.3356C363.429 39.6956 364.671 40.8836 364.671 42.6836C364.671 45.0416 362.781 46.4456 360.441 46.4456Z" fill="#00AED4"/>
<path d="M354.736 38.3636V39.6596H350.866V47.5976H349.516V39.6596H344.026C343.882 42.6296 343.108 45.5456 339.454 47.6336C339.256 47.3276 338.788 46.8416 338.5 46.6256C341.83 44.7536 342.568 42.2336 342.712 39.6596H338.68V38.3636H342.73V34.3676C341.578 34.6916 340.426 34.9976 339.31 35.2496C339.238 34.9256 339.022 34.4396 338.824 34.1696C341.668 33.5036 344.836 32.5136 346.618 31.4336L347.626 32.5316C346.618 33.0536 345.376 33.5216 344.044 33.9536V38.3636H349.516V31.5056H350.866V38.3636H354.736Z" fill="#00AED4"/>
<path d="M334.253 34.1857V32.7637H328.295V34.1857H334.253ZM334.253 36.5617V35.1217H328.295V36.5617H334.253ZM335.531 31.7557V37.5877H327.071V31.7557H335.531ZM325.757 38.9917L325.919 40.2157C325.271 40.4497 324.605 40.6477 323.939 40.8817V45.9217C323.939 46.6597 323.777 47.0017 323.327 47.2177C322.913 47.4337 322.229 47.4877 321.095 47.4697C321.041 47.1457 320.879 46.6057 320.699 46.2277C321.473 46.2457 322.193 46.2457 322.391 46.2457C322.607 46.2457 322.697 46.1737 322.697 45.9037V41.2777C321.959 41.5297 321.257 41.7457 320.609 41.9437L320.285 40.6477C320.951 40.4857 321.779 40.2337 322.697 39.9457V36.0037H320.483V34.7617H322.697V31.1797H323.939V34.7617H325.919V36.0037H323.939V39.5497L325.757 38.9917ZM331.913 43.2037V46.0297C332.435 46.1017 333.011 46.1377 333.605 46.1377C334.037 46.1377 336.467 46.1377 337.079 46.1197C336.899 46.4077 336.737 46.9657 336.683 47.3077H333.551C330.959 47.3077 329.069 46.8217 327.899 44.3017C327.413 45.6517 326.693 46.7497 325.757 47.5957C325.541 47.3797 325.037 46.9657 324.749 46.7857C326.351 45.5257 327.143 43.5097 327.431 40.8457L328.655 40.9897C328.565 41.6557 328.457 42.3037 328.313 42.8977C328.817 44.4277 329.627 45.2557 330.653 45.6877V39.9997H326.261V38.8657H336.539V39.9997H331.913V42.1057H335.639V43.2037H331.913Z" fill="#00AED4"/>
<path d="M310.473 35.0677H317.961C317.961 35.0677 317.943 35.5717 317.925 35.7697C317.529 43.1497 317.151 45.8317 316.359 46.7317C315.945 47.2357 315.513 47.3797 314.829 47.4517C314.199 47.5057 313.047 47.4697 311.949 47.3977C311.931 47.0017 311.769 46.4257 311.499 46.0297C312.723 46.1377 313.875 46.1557 314.325 46.1557C314.703 46.1557 314.937 46.1017 315.153 45.8857C315.801 45.2737 316.197 42.7357 316.539 36.3997H310.401C310.149 40.1257 308.961 44.4817 303.741 47.6677C303.525 47.3437 303.039 46.8217 302.715 46.6057C307.593 43.7077 308.745 39.7657 309.015 36.3997H303.255V35.0677H309.087C309.087 34.7977 309.087 34.5457 309.087 34.2937V31.1797H310.473V34.2937C310.473 34.5457 310.473 34.7977 310.473 35.0677Z" fill="#00AED4"/>
<path d="M288.91 37.3204H297.586C296.542 36.9244 295.228 36.4924 293.77 36.0424C292.15 36.5644 290.44 36.9784 288.91 37.3204ZM296.848 33.9004H289.324C290.728 34.2424 292.312 34.6564 293.842 35.1064C294.994 34.7284 296.038 34.3324 296.848 33.9004ZM300.628 38.4364H287.254V41.1184C287.254 43.1524 286.948 45.9064 285.328 47.7604C285.13 47.5084 284.608 47.0584 284.32 46.8964C285.778 45.2224 285.958 42.9004 285.958 41.1004V37.3204H288.226C288.046 37.0864 287.758 36.8164 287.578 36.6544C289 36.3844 290.638 36.0244 292.186 35.5924C290.818 35.1964 289.414 34.8364 288.136 34.5484L288.928 33.9004H286.048V32.8024H292.69C292.384 32.3524 292.042 31.8664 291.718 31.4704L292.672 30.9844C293.14 31.5244 293.698 32.2444 294.04 32.8024H300.088V33.9004H297.334L298.054 34.3324C297.262 34.7644 296.326 35.1784 295.3 35.5384C296.614 35.9344 297.838 36.3304 298.738 36.6544L298.018 37.3204H300.628V38.4364ZM294.778 45.8704H300.916V47.0044H287.578V45.8704H293.464V44.0704H289.27V42.9904H293.464V41.3884H289.702C289.198 42.2524 288.604 43.0264 287.992 43.6024C287.866 43.3684 287.524 42.7384 287.29 42.5044C288.28 41.5684 289.144 40.1824 289.666 38.7424L290.818 39.0664C290.656 39.4804 290.494 39.8764 290.314 40.2904H293.464V38.7604H294.778V40.2904H299.62V41.3884H294.778V42.9904H299.224V44.0704H294.778V45.8704Z" fill="#00AED4"/>
<path d="M275.409 45.7261H282.699V47.0221H266.751V45.7261H274.041V41.1541H268.695V39.8581H274.041V35.9341H269.811C269.235 37.0681 268.605 38.0581 267.939 38.8681C267.669 38.6521 267.075 38.2561 266.715 38.0761C268.191 36.4921 269.343 34.0081 270.045 31.4521L271.395 31.7401C271.107 32.7301 270.783 33.7021 270.387 34.6201H274.041V31.1641H275.409V34.6201H281.853V35.9341H275.409V39.8581H281.187V41.1541H275.409V45.7261Z" fill="#00AED4"/>
<path d="M253.917 36.5437L253.323 36.3097C253.575 35.5357 253.935 34.2757 254.097 33.4477L254.889 33.7357C254.583 34.6717 254.223 35.8057 253.917 36.5437ZM250.443 33.6817L251.127 33.5017C251.433 34.3657 251.667 35.4997 251.721 36.2197L251.019 36.4177C250.983 35.6797 250.749 34.5457 250.443 33.6817ZM250.191 32.7997V37.1197H252.135V32.7997H250.191ZM255.123 37.1197V32.7997H253.053V37.1197H255.123ZM256.563 41.7997V42.8797H248.679V41.7997H251.991V40.3957H249.003V39.3157H251.991V38.0917H249.129V31.8277H256.203V38.0917H253.197V39.3157H256.329V40.3957H253.197V41.7997H256.563ZM249.327 47.3797L248.355 46.9477C248.913 46.1197 249.309 44.7337 249.507 43.6357L250.443 43.9777C250.227 45.0937 249.867 46.5157 249.327 47.3797ZM251.109 43.9777L251.991 43.8877C252.207 44.8777 252.315 46.1557 252.297 47.0017L251.343 47.1097C251.397 46.2637 251.289 44.9857 251.109 43.9777ZM252.945 43.9777L253.791 43.8157C254.169 44.7157 254.511 45.9217 254.619 46.6957L253.719 46.8937C253.629 46.1017 253.323 44.8957 252.945 43.9777ZM254.781 43.9417L255.627 43.6357C256.149 44.4997 256.653 45.6697 256.833 46.4257L255.915 46.7857C255.753 46.0117 255.267 44.8237 254.781 43.9417ZM262.953 45.5077V40.8817H258.417V45.5077H262.953ZM264.933 36.3277H261.099V39.6397H264.231V47.5057H262.953V46.7317H258.417V47.5777H257.193V39.6397H259.785V31.1797H261.099V35.0677H264.933V36.3277Z" fill="#00AED4"/>
<path d="M238.652 33.6482H233.468C232.856 34.6562 232.154 35.5922 231.398 36.2942C231.236 36.0062 230.786 35.4122 230.516 35.1602C231.632 34.1702 232.676 32.6402 233.27 31.0742L234.548 31.4342C234.404 31.7942 234.26 32.1362 234.098 32.4962H238.652V33.6482ZM234.134 34.4402L235.052 33.7382C235.592 34.2422 236.222 34.9442 236.51 35.4122L235.538 36.2222C235.25 35.7362 234.638 34.9802 234.134 34.4402ZM237.122 37.3742H233V38.8502H237.122V37.3742ZM233 41.2622H237.122V39.8762H233V41.2622ZM235.358 43.1882L236.42 42.6842C237.392 43.9082 238.526 45.5102 239.084 46.5182L237.968 47.1122C237.752 46.7162 237.446 46.1942 237.086 45.6542C232.622 46.7522 232.064 46.8962 231.704 47.1302C231.596 46.8242 231.29 46.3022 231.074 46.0322C231.344 45.8882 231.758 45.4742 231.758 44.7182V36.3122H238.382V42.3242H233V45.4022L236.42 44.6462C236.06 44.1242 235.7 43.6202 235.358 43.1882ZM246.068 36.3122V43.9082C246.068 44.6462 245.924 45.0242 245.384 45.2402C244.826 45.4562 243.926 45.4742 242.522 45.4742C242.468 45.0962 242.288 44.5742 242.108 44.2142C243.17 44.2502 244.142 44.2502 244.412 44.2322C244.7 44.2322 244.79 44.1422 244.79 43.8902V37.5362H240.992V47.5802H239.732V36.3122H246.068ZM244.268 35.3582L243.314 36.1502C243.008 35.6642 242.36 34.9082 241.802 34.3862L242.72 33.6662C243.278 34.1702 243.962 34.8902 244.268 35.3582ZM241.28 32.4962H246.824V33.6482H240.812C240.344 34.7282 239.732 35.7182 239.084 36.4562C238.85 36.2042 238.328 35.7362 238.022 35.5022C239.048 34.4402 239.84 32.8022 240.29 31.0922L241.622 31.4162C241.514 31.7762 241.406 32.1362 241.28 32.4962Z" fill="#00AED4"/>
<path d="M228.646 32.6017V33.8077H224.38V32.6017H228.646ZM224.128 34.5097L223.246 35.0497C222.958 34.3837 222.256 33.3757 221.644 32.6377L222.49 32.1517C223.12 32.8717 223.84 33.8617 224.128 34.5097ZM215.542 31.1797L216.766 31.5937C215.92 33.0877 214.48 34.7437 213.13 35.7877C212.986 35.5177 212.626 35.0497 212.41 34.7977C213.616 33.8797 214.912 32.3857 215.542 31.1797ZM216.01 34.7617L217.216 35.1577C216.784 36.0757 216.262 36.9937 215.668 37.8577V47.6137H214.426V39.4957C213.922 40.0897 213.4 40.6297 212.878 41.0977C212.734 40.8277 212.32 40.1977 212.086 39.9277C213.598 38.6677 215.092 36.7417 216.01 34.7617ZM217.846 37.9297H218.854C218.818 41.4037 218.602 43.7437 217.234 45.1297C217.09 44.8957 216.748 44.5177 216.514 44.3377C217.666 43.1137 217.81 41.0977 217.846 37.9297ZM223.984 36.7417H221.014V47.5417H219.826V36.7417H217.162V35.4997H219.826V31.3057H221.014V35.4997H223.984V36.7417ZM223.228 43.5457H223.894C224.074 43.5457 224.308 43.5457 224.47 43.4917C224.488 43.7617 224.542 44.2117 224.56 44.4637C224.398 44.5177 224.164 44.5357 223.894 44.5357H223.246C222.22 44.5357 222.022 44.1397 222.022 42.9517V37.9297H223.048V42.9697C223.048 43.4377 223.066 43.5457 223.228 43.5457ZM228.88 36.7777V37.9837H227.278V45.8137C227.278 46.5697 227.134 46.9297 226.648 47.1637C226.126 47.3797 225.316 47.3977 224.056 47.3977C224.002 47.0197 223.84 46.4797 223.66 46.1017C224.596 46.1197 225.424 46.1197 225.676 46.1197C225.928 46.1017 226 46.0477 226 45.8137V37.9837H223.948V36.7777H228.88Z" fill="#00AED4"/>
<path d="M200.242 39.0105L200.422 40.2345C199.702 40.4505 198.964 40.6665 198.262 40.8825V45.9765C198.262 46.7325 198.064 47.0925 197.596 47.3085C197.146 47.5245 196.39 47.5605 195.148 47.5425C195.112 47.2005 194.914 46.6785 194.734 46.3185C195.598 46.3365 196.372 46.3365 196.588 46.3185C196.84 46.3185 196.948 46.2285 196.948 45.9765V41.2785L194.788 41.9085L194.41 40.5945C195.13 40.4325 195.994 40.2165 196.948 39.9465V36.0225H194.644V34.7625H196.948V31.1625H198.262V34.7625H200.242V36.0225H198.262V39.5865C198.91 39.4065 199.594 39.2085 200.242 39.0105ZM208.27 39.1365H202.726C203.338 40.7025 204.238 42.1245 205.372 43.2765C206.614 42.1605 207.622 40.7745 208.27 39.1365ZM209.116 37.8405L209.998 38.2185C209.242 40.6845 207.964 42.6465 206.344 44.1405C207.64 45.2025 209.188 45.9765 210.988 46.4625C210.7 46.7325 210.322 47.2545 210.124 47.6145C208.252 47.0385 206.65 46.1745 205.318 45.0045C203.788 46.1745 202.042 47.0025 200.206 47.5785C200.062 47.2185 199.738 46.6605 199.486 46.3725C201.232 45.9045 202.906 45.1485 204.364 44.0865C203.104 42.7365 202.114 41.0805 201.412 39.1545L201.466 39.1365H200.872V37.8945H204.724V35.2125H200.512V33.9705H204.724V31.1445H206.038V33.9705H210.34V35.2125H206.038V37.8945H208.9L209.116 37.8405Z" fill="#00AED4"/>
<path d="M192.267 34.1687H180.495C179.613 35.5907 178.623 36.8867 177.651 37.8587C177.363 37.6427 176.805 37.2647 176.463 37.0667C178.119 35.6267 179.667 33.3227 180.603 31.0547L181.917 31.4327C181.683 31.9367 181.449 32.4587 181.179 32.9627H192.267V34.1687ZM185.841 44.0687H188.793C188.865 43.3307 188.937 42.3767 189.009 41.1527H180.387C180.243 42.1967 180.081 43.2047 179.937 44.0687H185.499C184.743 43.3667 183.429 42.4847 182.277 41.8907L183.033 41.1527C184.257 41.7287 185.733 42.6647 186.453 43.4027L185.841 44.0687ZM189.171 37.1747H180.927C180.801 38.0927 180.675 39.0467 180.531 40.0007H185.931C185.229 39.3527 183.897 38.4887 182.727 37.9847L183.483 37.2287C184.653 37.7327 186.039 38.5607 186.759 39.2087L185.985 40.0007H189.063C189.099 39.1547 189.135 38.2367 189.171 37.1747ZM192.879 41.1887H190.323C190.251 42.3587 190.197 43.3127 190.107 44.0687H192.267V45.2567H189.963C189.819 46.1567 189.639 46.6427 189.441 46.9307C189.099 47.3627 188.721 47.5247 188.181 47.5787C187.659 47.6147 186.759 47.5967 185.877 47.5427C185.859 47.2367 185.715 46.7867 185.535 46.4807C186.453 46.5527 187.281 46.5707 187.623 46.5527C187.947 46.5527 188.109 46.5167 188.289 46.3007C188.415 46.1567 188.541 45.8147 188.649 45.2567H179.091V45.2387H178.371C178.569 44.1587 178.821 42.7007 179.055 41.1887H176.517V39.9647H179.235C179.415 38.5787 179.613 37.1927 179.739 35.9867H190.503C190.503 35.9867 190.485 36.4727 190.485 36.6347C190.449 37.8947 190.395 38.9927 190.359 39.9647H192.879V41.1887Z" fill="#00AED4"/>
<mask id="path-24-inside-1_275_44465" fill="white">
<path d="M-0.00390625 373.762H186.663V409.762H-0.00390625V373.762Z"/>
</mask>
<path d="M-0.00390625 373.762V374.762H186.663V373.762V372.762H-0.00390625V373.762Z" fill="#D1D1D1" mask="url(#path-24-inside-1_275_44465)"/>
<path d="M69.0428 397.762V396.546H71.6668V388.13H69.5708V387.202C70.0934 387.106 70.5468 386.988 70.9308 386.85C71.3254 386.711 71.6828 386.546 72.0028 386.354H73.1228V396.546H75.4748V397.762H69.0428ZM78.1258 397.762V386.034H81.5978C82.3978 386.034 83.0964 386.13 83.6938 386.322C84.3018 386.514 84.7764 386.818 85.1178 387.234C85.4591 387.65 85.6298 388.204 85.6298 388.898C85.6298 389.282 85.5604 389.65 85.4218 390.002C85.2938 390.343 85.1018 390.642 84.8458 390.898C84.5898 391.143 84.2804 391.324 83.9178 391.442V391.522C84.6111 391.65 85.1818 391.948 85.6298 392.418C86.0778 392.887 86.3018 393.522 86.3018 394.322C86.3018 395.09 86.1098 395.73 85.7258 396.242C85.3524 396.743 84.8298 397.122 84.1578 397.378C83.4964 397.634 82.7284 397.762 81.8538 397.762H78.1258ZM79.5978 391.01H81.3418C82.3551 391.01 83.0804 390.839 83.5178 390.498C83.9551 390.156 84.1738 389.687 84.1738 389.09C84.1738 388.396 83.9391 387.911 83.4698 387.634C83.0111 387.346 82.3231 387.202 81.4058 387.202H79.5978V391.01ZM79.5978 396.578H81.6458C82.6484 396.578 83.4324 396.391 83.9978 396.018C84.5631 395.644 84.8458 395.063 84.8458 394.274C84.8458 393.538 84.5684 393.004 84.0138 392.674C83.4591 392.332 82.6698 392.162 81.6458 392.162H79.5978V396.578ZM88.0814 386.402H101.985V387.506H88.0814V386.402ZM89.2654 392.93H100.801V393.986H89.2654V392.93ZM91.6814 390.018H98.4014V391.09H91.6814V390.018ZM97.1214 386.866C97.4841 387.474 97.9534 388.066 98.5294 388.642C99.1054 389.207 99.7401 389.714 100.433 390.162C101.127 390.61 101.825 390.972 102.529 391.25C102.444 391.314 102.348 391.404 102.241 391.522C102.145 391.639 102.049 391.762 101.953 391.89C101.857 392.007 101.777 392.119 101.713 392.226C100.988 391.906 100.273 391.49 99.5694 390.978C98.8761 390.466 98.2307 389.895 97.6334 389.266C97.0467 388.626 96.5454 387.954 96.1294 387.25L97.1214 386.866ZM91.1854 394.882L92.3374 395.234C91.9321 395.874 91.4361 396.503 90.8494 397.122C90.2734 397.73 89.7027 398.242 89.1374 398.658C89.0734 398.583 88.9827 398.498 88.8654 398.402C88.7481 398.306 88.6254 398.21 88.4974 398.114C88.3801 398.018 88.2734 397.943 88.1774 397.89C88.7534 397.516 89.3081 397.068 89.8414 396.546C90.3854 396.012 90.8334 395.458 91.1854 394.882ZM97.5534 395.458L98.4974 394.898C98.8814 395.196 99.2761 395.532 99.6814 395.906C100.087 396.279 100.465 396.647 100.817 397.01C101.18 397.362 101.473 397.682 101.697 397.97L100.673 398.61C100.46 398.322 100.177 397.996 99.8254 397.634C99.4841 397.26 99.1107 396.887 98.7054 396.514C98.3107 396.13 97.9267 395.778 97.5534 395.458ZM93.9054 384.306L95.2014 384.482C94.9027 385.452 94.4601 386.418 93.8734 387.378C93.2867 388.338 92.5454 389.239 91.6494 390.082C90.7534 390.924 89.6761 391.655 88.4174 392.274C88.3641 392.178 88.2841 392.071 88.1774 391.954C88.0814 391.836 87.9801 391.724 87.8734 391.618C87.7774 391.5 87.6814 391.415 87.5854 391.362C88.8014 390.807 89.8361 390.14 90.6894 389.362C91.5427 388.583 92.2307 387.762 92.7534 386.898C93.2867 386.023 93.6707 385.159 93.9054 384.306ZM94.4334 393.57H95.6654V399.058H94.4334V393.57ZM103.953 390.482H118.081V391.682H103.953V390.482ZM110.369 384.338H111.633V399.042H110.369V384.338ZM116.033 385.106L117.329 385.634C117.073 386.082 116.796 386.551 116.497 387.042C116.199 387.532 115.895 388.002 115.585 388.45C115.276 388.898 114.988 389.287 114.721 389.618L113.697 389.138C113.964 388.786 114.241 388.375 114.529 387.906C114.817 387.436 115.095 386.956 115.361 386.466C115.628 385.975 115.852 385.522 116.033 385.106ZM104.881 385.714L105.969 385.25C106.289 385.623 106.599 386.034 106.897 386.482C107.196 386.93 107.463 387.372 107.697 387.81C107.943 388.247 108.129 388.636 108.257 388.978L107.073 389.506C106.967 389.164 106.796 388.775 106.561 388.338C106.337 387.9 106.076 387.452 105.777 386.994C105.489 386.535 105.191 386.108 104.881 385.714ZM108.497 392.562L109.537 392.946C109.164 393.735 108.705 394.514 108.161 395.282C107.617 396.039 107.036 396.738 106.417 397.378C105.809 398.018 105.201 398.556 104.593 398.994C104.519 398.898 104.428 398.786 104.321 398.658C104.215 398.54 104.108 398.423 104.001 398.306C103.895 398.199 103.793 398.108 103.697 398.034C104.295 397.66 104.897 397.18 105.505 396.594C106.113 396.007 106.679 395.367 107.201 394.674C107.724 393.97 108.156 393.266 108.497 392.562ZM112.449 393.106L113.377 392.514C113.857 392.94 114.337 393.404 114.817 393.906C115.308 394.407 115.777 394.919 116.225 395.442C116.684 395.964 117.095 396.471 117.457 396.962C117.831 397.442 118.129 397.89 118.353 398.306L117.329 398.994C117.105 398.578 116.817 398.124 116.465 397.634C116.113 397.143 115.719 396.631 115.281 396.098C114.844 395.564 114.38 395.042 113.889 394.53C113.409 394.018 112.929 393.543 112.449 393.106Z" fill="#6D6D6D"/>
<mask id="path-27-inside-2_275_44465" fill="white">
<path d="M186.662 373.762H373.329V409.762H186.662V373.762Z"/>
</mask>
<path d="M186.662 373.762V374.762H373.329V373.762V372.762H186.662V373.762Z" fill="#D1D1D1" mask="url(#path-27-inside-2_275_44465)"/>
<path d="M255.865 397.762V396.546H258.489V388.13H256.393V387.202C256.916 387.106 257.369 386.988 257.753 386.85C258.148 386.711 258.505 386.546 258.825 386.354H259.945V396.546H262.297V397.762H255.865ZM269.364 397.97C268.639 397.97 267.961 397.836 267.332 397.57C266.713 397.292 266.175 396.892 265.716 396.37C265.257 395.847 264.9 395.212 264.644 394.466C264.388 393.708 264.26 392.855 264.26 391.906C264.26 390.956 264.388 390.108 264.644 389.362C264.911 388.604 265.279 387.964 265.748 387.442C266.217 386.919 266.767 386.519 267.396 386.242C268.025 385.964 268.713 385.826 269.46 385.826C270.175 385.826 270.804 385.975 271.348 386.274C271.892 386.562 272.335 386.892 272.676 387.266L271.876 388.226C271.567 387.895 271.215 387.628 270.82 387.426C270.425 387.223 269.977 387.122 269.476 387.122C268.74 387.122 268.095 387.314 267.54 387.698C266.985 388.082 266.553 388.631 266.244 389.346C265.935 390.05 265.78 390.887 265.78 391.858C265.78 392.85 265.929 393.708 266.228 394.434C266.527 395.148 266.948 395.703 267.492 396.098C268.036 396.482 268.681 396.674 269.428 396.674C269.983 396.674 270.479 396.556 270.916 396.322C271.364 396.087 271.775 395.762 272.148 395.346L272.964 396.29C272.505 396.823 271.983 397.239 271.396 397.538C270.809 397.826 270.132 397.97 269.364 397.97ZM274.591 386.402H288.495V387.506H274.591V386.402ZM275.775 392.93H287.311V393.986H275.775V392.93ZM278.191 390.018H284.911V391.09H278.191V390.018ZM283.631 386.866C283.994 387.474 284.463 388.066 285.039 388.642C285.615 389.207 286.25 389.714 286.943 390.162C287.636 390.61 288.335 390.972 289.039 391.25C288.954 391.314 288.858 391.404 288.751 391.522C288.655 391.639 288.559 391.762 288.463 391.89C288.367 392.007 288.287 392.119 288.223 392.226C287.498 391.906 286.783 391.49 286.079 390.978C285.386 390.466 284.74 389.895 284.143 389.266C283.556 388.626 283.055 387.954 282.639 387.25L283.631 386.866ZM277.695 394.882L278.847 395.234C278.442 395.874 277.946 396.503 277.359 397.122C276.783 397.73 276.212 398.242 275.647 398.658C275.583 398.583 275.492 398.498 275.375 398.402C275.258 398.306 275.135 398.21 275.007 398.114C274.89 398.018 274.783 397.943 274.687 397.89C275.263 397.516 275.818 397.068 276.351 396.546C276.895 396.012 277.343 395.458 277.695 394.882ZM284.063 395.458L285.007 394.898C285.391 395.196 285.786 395.532 286.191 395.906C286.596 396.279 286.975 396.647 287.327 397.01C287.69 397.362 287.983 397.682 288.207 397.97L287.183 398.61C286.97 398.322 286.687 397.996 286.335 397.634C285.994 397.26 285.62 396.887 285.215 396.514C284.82 396.13 284.436 395.778 284.063 395.458ZM280.415 384.306L281.711 384.482C281.412 385.452 280.97 386.418 280.383 387.378C279.796 388.338 279.055 389.239 278.159 390.082C277.263 390.924 276.186 391.655 274.927 392.274C274.874 392.178 274.794 392.071 274.687 391.954C274.591 391.836 274.49 391.724 274.383 391.618C274.287 391.5 274.191 391.415 274.095 391.362C275.311 390.807 276.346 390.14 277.199 389.362C278.052 388.583 278.74 387.762 279.263 386.898C279.796 386.023 280.18 385.159 280.415 384.306ZM280.943 393.57H282.175V399.058H280.943V393.57ZM290.463 390.482H304.591V391.682H290.463V390.482ZM296.879 384.338H298.143V399.042H296.879V384.338ZM302.543 385.106L303.839 385.634C303.583 386.082 303.306 386.551 303.007 387.042C302.708 387.532 302.404 388.002 302.095 388.45C301.786 388.898 301.498 389.287 301.231 389.618L300.207 389.138C300.474 388.786 300.751 388.375 301.039 387.906C301.327 387.436 301.604 386.956 301.871 386.466C302.138 385.975 302.362 385.522 302.543 385.106ZM291.391 385.714L292.479 385.25C292.799 385.623 293.108 386.034 293.407 386.482C293.706 386.93 293.972 387.372 294.207 387.81C294.452 388.247 294.639 388.636 294.767 388.978L293.583 389.506C293.476 389.164 293.306 388.775 293.071 388.338C292.847 387.9 292.586 387.452 292.287 386.994C291.999 386.535 291.7 386.108 291.391 385.714ZM295.007 392.562L296.047 392.946C295.674 393.735 295.215 394.514 294.671 395.282C294.127 396.039 293.546 396.738 292.927 397.378C292.319 398.018 291.711 398.556 291.103 398.994C291.028 398.898 290.938 398.786 290.831 398.658C290.724 398.54 290.618 398.423 290.511 398.306C290.404 398.199 290.303 398.108 290.207 398.034C290.804 397.66 291.407 397.18 292.015 396.594C292.623 396.007 293.188 395.367 293.711 394.674C294.234 393.97 294.666 393.266 295.007 392.562ZM298.959 393.106L299.887 392.514C300.367 392.94 300.847 393.404 301.327 393.906C301.818 394.407 302.287 394.919 302.735 395.442C303.194 395.964 303.604 396.471 303.967 396.962C304.34 397.442 304.639 397.89 304.863 398.306L303.839 398.994C303.615 398.578 303.327 398.124 302.975 397.634C302.623 397.143 302.228 396.631 301.791 396.098C301.354 395.564 300.89 395.042 300.399 394.53C299.919 394.018 299.439 393.543 298.959 393.106Z" fill="#6D6D6D"/>
<mask id="path-30-inside-3_275_44465" fill="white">
<path d="M373.328 373.762H559.995V409.762H373.328V373.762Z"/>
</mask>
<path d="M373.328 373.762V374.762H559.995V373.762V372.762H373.328V373.762Z" fill="#D1D1D1" mask="url(#path-30-inside-3_275_44465)"/>
<path d="M442.123 397.762V396.546H444.747V388.13H442.651V387.202C443.174 387.106 443.627 386.988 444.011 386.85C444.406 386.711 444.763 386.546 445.083 386.354H446.203V396.546H448.555V397.762H442.123ZM451.206 397.762V386.034H454.134C455.339 386.034 456.353 386.263 457.174 386.722C457.995 387.17 458.614 387.826 459.03 388.69C459.446 389.554 459.654 390.61 459.654 391.858C459.654 393.095 459.446 394.156 459.03 395.042C458.614 395.927 458.001 396.604 457.19 397.074C456.379 397.532 455.382 397.762 454.198 397.762H451.206ZM452.678 396.546H454.006C454.923 396.546 455.686 396.364 456.294 396.002C456.913 395.628 457.371 395.09 457.67 394.386C457.979 393.682 458.134 392.839 458.134 391.858C458.134 390.855 457.979 390.012 457.67 389.33C457.371 388.647 456.913 388.13 456.294 387.778C455.686 387.415 454.923 387.234 454.006 387.234H452.678V396.546ZM461.661 386.402H475.565V387.506H461.661V386.402ZM462.845 392.93H474.381V393.986H462.845V392.93ZM465.261 390.018H471.981V391.09H465.261V390.018ZM470.701 386.866C471.064 387.474 471.533 388.066 472.109 388.642C472.685 389.207 473.32 389.714 474.013 390.162C474.707 390.61 475.405 390.972 476.109 391.25C476.024 391.314 475.928 391.404 475.821 391.522C475.725 391.639 475.629 391.762 475.533 391.89C475.437 392.007 475.357 392.119 475.293 392.226C474.568 391.906 473.853 391.49 473.149 390.978C472.456 390.466 471.811 389.895 471.213 389.266C470.627 388.626 470.125 387.954 469.709 387.25L470.701 386.866ZM464.765 394.882L465.917 395.234C465.512 395.874 465.016 396.503 464.429 397.122C463.853 397.73 463.283 398.242 462.717 398.658C462.653 398.583 462.563 398.498 462.445 398.402C462.328 398.306 462.205 398.21 462.077 398.114C461.96 398.018 461.853 397.943 461.757 397.89C462.333 397.516 462.888 397.068 463.421 396.546C463.965 396.012 464.413 395.458 464.765 394.882ZM471.133 395.458L472.077 394.898C472.461 395.196 472.856 395.532 473.261 395.906C473.667 396.279 474.045 396.647 474.397 397.01C474.76 397.362 475.053 397.682 475.277 397.97L474.253 398.61C474.04 398.322 473.757 397.996 473.405 397.634C473.064 397.26 472.691 396.887 472.285 396.514C471.891 396.13 471.507 395.778 471.133 395.458ZM467.485 384.306L468.781 384.482C468.483 385.452 468.04 386.418 467.453 387.378C466.867 388.338 466.125 389.239 465.229 390.082C464.333 390.924 463.256 391.655 461.997 392.274C461.944 392.178 461.864 392.071 461.757 391.954C461.661 391.836 461.56 391.724 461.453 391.618C461.357 391.5 461.261 391.415 461.165 391.362C462.381 390.807 463.416 390.14 464.269 389.362C465.123 388.583 465.811 387.762 466.333 386.898C466.867 386.023 467.251 385.159 467.485 384.306ZM468.013 393.57H469.245V399.058H468.013V393.57ZM477.533 390.482H491.661V391.682H477.533V390.482ZM483.949 384.338H485.213V399.042H483.949V384.338ZM489.613 385.106L490.909 385.634C490.653 386.082 490.376 386.551 490.077 387.042C489.779 387.532 489.475 388.002 489.165 388.45C488.856 388.898 488.568 389.287 488.301 389.618L487.277 389.138C487.544 388.786 487.821 388.375 488.109 387.906C488.397 387.436 488.675 386.956 488.941 386.466C489.208 385.975 489.432 385.522 489.613 385.106ZM478.461 385.714L479.549 385.25C479.869 385.623 480.179 386.034 480.477 386.482C480.776 386.93 481.043 387.372 481.277 387.81C481.523 388.247 481.709 388.636 481.837 388.978L480.653 389.506C480.547 389.164 480.376 388.775 480.141 388.338C479.917 387.9 479.656 387.452 479.357 386.994C479.069 386.535 478.771 386.108 478.461 385.714ZM482.077 392.562L483.117 392.946C482.744 393.735 482.285 394.514 481.741 395.282C481.197 396.039 480.616 396.738 479.997 397.378C479.389 398.018 478.781 398.556 478.173 398.994C478.099 398.898 478.008 398.786 477.901 398.658C477.795 398.54 477.688 398.423 477.581 398.306C477.475 398.199 477.373 398.108 477.277 398.034C477.875 397.66 478.477 397.18 479.085 396.594C479.693 396.007 480.259 395.367 480.781 394.674C481.304 393.97 481.736 393.266 482.077 392.562ZM486.029 393.106L486.957 392.514C487.437 392.94 487.917 393.404 488.397 393.906C488.888 394.407 489.357 394.919 489.805 395.442C490.264 395.964 490.675 396.471 491.037 396.962C491.411 397.442 491.709 397.89 491.933 398.306L490.909 398.994C490.685 398.578 490.397 398.124 490.045 397.634C489.693 397.143 489.299 396.631 488.861 396.098C488.424 395.564 487.96 395.042 487.469 394.53C486.989 394.018 486.509 393.543 486.029 393.106Z" fill="#6D6D6D"/>
<rect x="120.996" y="236.762" width="131" height="2" fill="#E7E7E7"/>
<rect x="199.996" y="199.762" width="239" height="2" fill="#E7E7E7"/>
<rect x="385.996" y="162.762" width="53" height="2" fill="#E7E7E7"/>
<path d="M64.9961 242.762C64.9961 240 67.2347 237.762 69.9961 237.762H115.996C118.758 237.762 120.996 240 120.996 242.762V373.762H64.9961V242.762Z" fill="url(#paint0_linear_275_44465)"/>
<rect x="251.996" y="237.762" width="56" height="136" fill="url(#paint1_linear_275_44465)"/>
<path d="M251.996 205.762C251.996 203 254.235 200.762 256.996 200.762H302.996C305.758 200.762 307.996 203 307.996 205.762V237.762H251.996V205.762Z" fill="url(#paint2_linear_275_44465)"/>
<path d="M438.996 168.762C438.996 166 441.235 163.762 443.996 163.762H489.996C492.758 163.762 494.996 166 494.996 168.762V200.762H438.996V168.762Z" fill="url(#paint3_linear_275_44465)"/>
<rect x="438.996" y="200.762" width="56" height="173" fill="url(#paint4_linear_275_44465)"/>
<path d="M155.75 131.789H158.953C159.773 131.789 160.444 131.646 160.965 131.359C161.499 131.06 161.896 130.643 162.156 130.109C162.417 129.562 162.547 128.918 162.547 128.176C162.547 127.603 162.423 127.076 162.176 126.594C161.941 126.112 161.577 125.728 161.082 125.441C160.587 125.142 159.956 124.992 159.188 124.992C158.667 124.992 158.159 125.103 157.664 125.324C157.169 125.533 156.759 125.832 156.434 126.223C156.121 126.613 155.965 127.089 155.965 127.648H149.363C149.363 126.034 149.806 124.654 150.691 123.508C151.59 122.349 152.768 121.464 154.227 120.852C155.698 120.227 157.28 119.914 158.973 119.914C160.991 119.914 162.762 120.227 164.285 120.852C165.809 121.464 166.993 122.375 167.84 123.586C168.699 124.784 169.129 126.268 169.129 128.039C169.129 129.016 168.901 129.934 168.445 130.793C167.99 131.652 167.352 132.408 166.531 133.059C165.711 133.71 164.747 134.224 163.641 134.602C162.547 134.966 161.349 135.148 160.047 135.148H155.75V131.789ZM155.75 136.691V133.41H160.047C161.466 133.41 162.762 133.573 163.934 133.898C165.105 134.211 166.115 134.68 166.961 135.305C167.807 135.93 168.458 136.704 168.914 137.629C169.37 138.54 169.598 139.589 169.598 140.773C169.598 142.102 169.331 143.286 168.797 144.328C168.263 145.37 167.514 146.249 166.551 146.965C165.587 147.681 164.461 148.228 163.172 148.605C161.883 148.97 160.483 149.152 158.973 149.152C157.788 149.152 156.603 148.996 155.418 148.684C154.233 148.358 153.152 147.863 152.176 147.199C151.199 146.522 150.411 145.663 149.812 144.621C149.227 143.566 148.934 142.31 148.934 140.852H155.535C155.535 141.451 155.698 141.997 156.023 142.492C156.362 142.974 156.811 143.358 157.371 143.645C157.931 143.931 158.536 144.074 159.188 144.074C159.995 144.074 160.678 143.924 161.238 143.625C161.811 143.312 162.247 142.896 162.547 142.375C162.846 141.854 162.996 141.275 162.996 140.637C162.996 139.673 162.833 138.905 162.508 138.332C162.195 137.759 161.733 137.342 161.121 137.082C160.522 136.822 159.799 136.691 158.953 136.691H155.75ZM192.703 131.945V137.141C192.703 139.185 192.462 140.962 191.98 142.473C191.512 143.983 190.835 145.233 189.949 146.223C189.077 147.212 188.035 147.948 186.824 148.43C185.613 148.911 184.279 149.152 182.82 149.152C181.648 149.152 180.555 149.003 179.539 148.703C178.523 148.391 177.605 147.922 176.785 147.297C175.978 146.659 175.281 145.865 174.695 144.914C174.109 143.964 173.66 142.844 173.348 141.555C173.035 140.253 172.879 138.781 172.879 137.141V131.945C172.879 129.888 173.113 128.111 173.582 126.613C174.064 125.103 174.747 123.853 175.633 122.863C176.518 121.874 177.566 121.138 178.777 120.656C179.988 120.174 181.323 119.934 182.781 119.934C183.953 119.934 185.04 120.09 186.043 120.402C187.059 120.702 187.977 121.171 188.797 121.809C189.617 122.434 190.314 123.221 190.887 124.172C191.473 125.122 191.922 126.249 192.234 127.551C192.547 128.84 192.703 130.305 192.703 131.945ZM186.121 137.941V131.105C186.121 130.194 186.069 129.4 185.965 128.723C185.874 128.046 185.73 127.473 185.535 127.004C185.353 126.535 185.125 126.158 184.852 125.871C184.578 125.572 184.266 125.357 183.914 125.227C183.576 125.083 183.198 125.012 182.781 125.012C182.26 125.012 181.792 125.122 181.375 125.344C180.971 125.552 180.626 125.891 180.34 126.359C180.053 126.828 179.832 127.453 179.676 128.234C179.533 129.016 179.461 129.973 179.461 131.105V137.941C179.461 138.866 179.507 139.673 179.598 140.363C179.702 141.04 179.845 141.62 180.027 142.102C180.223 142.57 180.457 142.954 180.73 143.254C181.004 143.54 181.316 143.749 181.668 143.879C182.02 144.009 182.404 144.074 182.82 144.074C183.328 144.074 183.784 143.97 184.188 143.762C184.591 143.553 184.936 143.215 185.223 142.746C185.522 142.264 185.743 141.633 185.887 140.852C186.043 140.057 186.121 139.087 186.121 137.941ZM196.18 127.297V125.793C196.18 124.712 196.414 123.729 196.883 122.844C197.352 121.958 198.055 121.249 198.992 120.715C199.93 120.181 201.095 119.914 202.488 119.914C203.921 119.914 205.105 120.181 206.043 120.715C206.98 121.249 207.677 121.958 208.133 122.844C208.602 123.729 208.836 124.712 208.836 125.793V127.297C208.836 128.352 208.602 129.322 208.133 130.207C207.677 131.092 206.98 131.802 206.043 132.336C205.118 132.87 203.947 133.137 202.527 133.137C201.121 133.137 199.949 132.87 199.012 132.336C198.074 131.802 197.365 131.092 196.883 130.207C196.414 129.322 196.18 128.352 196.18 127.297ZM200.398 125.793V127.297C200.398 127.688 200.477 128.059 200.633 128.41C200.789 128.762 201.023 129.048 201.336 129.27C201.661 129.478 202.059 129.582 202.527 129.582C203.009 129.582 203.4 129.478 203.699 129.27C203.999 129.048 204.22 128.762 204.363 128.41C204.52 128.059 204.598 127.688 204.598 127.297V125.793C204.598 125.376 204.52 124.992 204.363 124.641C204.22 124.289 203.992 124.009 203.68 123.801C203.367 123.579 202.97 123.469 202.488 123.469C202.033 123.469 201.648 123.579 201.336 123.801C201.023 124.009 200.789 124.289 200.633 124.641C200.477 124.992 200.398 125.376 200.398 125.793ZM209.676 143.293V141.789C209.676 140.721 209.91 139.745 210.379 138.859C210.861 137.974 211.57 137.264 212.508 136.73C213.458 136.197 214.63 135.93 216.023 135.93C217.456 135.93 218.634 136.197 219.559 136.73C220.496 137.264 221.193 137.974 221.648 138.859C222.117 139.745 222.352 140.721 222.352 141.789V143.293C222.352 144.361 222.117 145.337 221.648 146.223C221.193 147.108 220.503 147.818 219.578 148.352C218.654 148.885 217.482 149.152 216.062 149.152C214.656 149.152 213.478 148.885 212.527 148.352C211.577 147.818 210.861 147.108 210.379 146.223C209.91 145.337 209.676 144.361 209.676 143.293ZM213.914 141.789V143.293C213.914 143.697 214.012 144.074 214.207 144.426C214.402 144.777 214.663 145.064 214.988 145.285C215.314 145.493 215.672 145.598 216.062 145.598C216.661 145.598 217.104 145.493 217.391 145.285C217.69 145.064 217.885 144.777 217.977 144.426C218.081 144.074 218.133 143.697 218.133 143.293V141.789C218.133 141.385 218.055 141.008 217.898 140.656C217.742 140.305 217.508 140.025 217.195 139.816C216.883 139.595 216.492 139.484 216.023 139.484C215.555 139.484 215.164 139.595 214.852 139.816C214.539 140.025 214.305 140.305 214.148 140.656C213.992 141.008 213.914 141.385 213.914 141.789ZM217.664 124.406L203.777 146.633L200.711 145.09L214.598 122.863L217.664 124.406Z" fill="#00AED4"/>
<path d="M174.496 236.301C173.944 236.301 173.496 235.853 173.496 235.301V199.304H155.813C154.936 199.304 154.484 198.256 155.085 197.618L185.768 165.075C186.162 164.657 186.828 164.657 187.223 165.075L217.905 197.618C218.507 198.256 218.055 199.304 217.178 199.304H199.496V235.301C199.496 235.853 199.049 236.301 198.496 236.301H174.496Z" fill="#6FC7E2"/>
<path d="M341.75 94.7891H344.953C345.773 94.7891 346.444 94.6458 346.965 94.3594C347.499 94.0599 347.896 93.6432 348.156 93.1094C348.417 92.5625 348.547 91.918 348.547 91.1758C348.547 90.6029 348.423 90.0755 348.176 89.5938C347.941 89.112 347.577 88.7279 347.082 88.4414C346.587 88.1419 345.956 87.9922 345.188 87.9922C344.667 87.9922 344.159 88.1029 343.664 88.3242C343.169 88.5326 342.759 88.832 342.434 89.2227C342.121 89.6133 341.965 90.0885 341.965 90.6484H335.363C335.363 89.0339 335.806 87.6536 336.691 86.5078C337.59 85.349 338.768 84.4635 340.227 83.8516C341.698 83.2266 343.28 82.9141 344.973 82.9141C346.991 82.9141 348.762 83.2266 350.285 83.8516C351.809 84.4635 352.993 85.375 353.84 86.5859C354.699 87.7839 355.129 89.2682 355.129 91.0391C355.129 92.0156 354.901 92.9336 354.445 93.793C353.99 94.6523 353.352 95.4076 352.531 96.0586C351.711 96.7096 350.747 97.224 349.641 97.6016C348.547 97.9661 347.349 98.1484 346.047 98.1484H341.75V94.7891ZM341.75 99.6914V96.4102H346.047C347.466 96.4102 348.762 96.5729 349.934 96.8984C351.105 97.2109 352.115 97.6797 352.961 98.3047C353.807 98.9297 354.458 99.7044 354.914 100.629C355.37 101.54 355.598 102.589 355.598 103.773C355.598 105.102 355.331 106.286 354.797 107.328C354.263 108.37 353.514 109.249 352.551 109.965C351.587 110.681 350.461 111.228 349.172 111.605C347.883 111.97 346.483 112.152 344.973 112.152C343.788 112.152 342.603 111.996 341.418 111.684C340.233 111.358 339.152 110.863 338.176 110.199C337.199 109.522 336.411 108.663 335.812 107.621C335.227 106.566 334.934 105.31 334.934 103.852H341.535C341.535 104.451 341.698 104.997 342.023 105.492C342.362 105.974 342.811 106.358 343.371 106.645C343.931 106.931 344.536 107.074 345.188 107.074C345.995 107.074 346.678 106.924 347.238 106.625C347.811 106.312 348.247 105.896 348.547 105.375C348.846 104.854 348.996 104.275 348.996 103.637C348.996 102.673 348.833 101.905 348.508 101.332C348.195 100.759 347.733 100.342 347.121 100.082C346.522 99.8216 345.799 99.6914 344.953 99.6914H341.75ZM378.703 94.9453V100.141C378.703 102.185 378.462 103.962 377.98 105.473C377.512 106.983 376.835 108.233 375.949 109.223C375.077 110.212 374.035 110.948 372.824 111.43C371.613 111.911 370.279 112.152 368.82 112.152C367.648 112.152 366.555 112.003 365.539 111.703C364.523 111.391 363.605 110.922 362.785 110.297C361.978 109.659 361.281 108.865 360.695 107.914C360.109 106.964 359.66 105.844 359.348 104.555C359.035 103.253 358.879 101.781 358.879 100.141V94.9453C358.879 92.888 359.113 91.1107 359.582 89.6133C360.064 88.1029 360.747 86.8529 361.633 85.8633C362.518 84.8737 363.566 84.138 364.777 83.6562C365.988 83.1745 367.323 82.9336 368.781 82.9336C369.953 82.9336 371.04 83.0898 372.043 83.4023C373.059 83.7018 373.977 84.1706 374.797 84.8086C375.617 85.4336 376.314 86.2214 376.887 87.1719C377.473 88.1224 377.922 89.2487 378.234 90.5508C378.547 91.8398 378.703 93.3047 378.703 94.9453ZM372.121 100.941V94.1055C372.121 93.194 372.069 92.3997 371.965 91.7227C371.874 91.0456 371.73 90.4727 371.535 90.0039C371.353 89.5352 371.125 89.1576 370.852 88.8711C370.578 88.5716 370.266 88.3568 369.914 88.2266C369.576 88.0833 369.198 88.0117 368.781 88.0117C368.26 88.0117 367.792 88.1224 367.375 88.3438C366.971 88.5521 366.626 88.8906 366.34 89.3594C366.053 89.8281 365.832 90.4531 365.676 91.2344C365.533 92.0156 365.461 92.9727 365.461 94.1055V100.941C365.461 101.866 365.507 102.673 365.598 103.363C365.702 104.04 365.845 104.62 366.027 105.102C366.223 105.57 366.457 105.954 366.73 106.254C367.004 106.54 367.316 106.749 367.668 106.879C368.02 107.009 368.404 107.074 368.82 107.074C369.328 107.074 369.784 106.97 370.188 106.762C370.591 106.553 370.936 106.215 371.223 105.746C371.522 105.264 371.743 104.633 371.887 103.852C372.043 103.057 372.121 102.087 372.121 100.941ZM382.18 90.2969V88.793C382.18 87.7122 382.414 86.7292 382.883 85.8438C383.352 84.9583 384.055 84.2487 384.992 83.7148C385.93 83.181 387.095 82.9141 388.488 82.9141C389.921 82.9141 391.105 83.181 392.043 83.7148C392.98 84.2487 393.677 84.9583 394.133 85.8438C394.602 86.7292 394.836 87.7122 394.836 88.793V90.2969C394.836 91.3516 394.602 92.3216 394.133 93.207C393.677 94.0924 392.98 94.8021 392.043 95.3359C391.118 95.8698 389.947 96.1367 388.527 96.1367C387.121 96.1367 385.949 95.8698 385.012 95.3359C384.074 94.8021 383.365 94.0924 382.883 93.207C382.414 92.3216 382.18 91.3516 382.18 90.2969ZM386.398 88.793V90.2969C386.398 90.6875 386.477 91.0586 386.633 91.4102C386.789 91.7617 387.023 92.0482 387.336 92.2695C387.661 92.4779 388.059 92.582 388.527 92.582C389.009 92.582 389.4 92.4779 389.699 92.2695C389.999 92.0482 390.22 91.7617 390.363 91.4102C390.52 91.0586 390.598 90.6875 390.598 90.2969V88.793C390.598 88.3763 390.52 87.9922 390.363 87.6406C390.22 87.2891 389.992 87.0091 389.68 86.8008C389.367 86.5794 388.97 86.4688 388.488 86.4688C388.033 86.4688 387.648 86.5794 387.336 86.8008C387.023 87.0091 386.789 87.2891 386.633 87.6406C386.477 87.9922 386.398 88.3763 386.398 88.793ZM395.676 106.293V104.789C395.676 103.721 395.91 102.745 396.379 101.859C396.861 100.974 397.57 100.264 398.508 99.7305C399.458 99.1966 400.63 98.9297 402.023 98.9297C403.456 98.9297 404.634 99.1966 405.559 99.7305C406.496 100.264 407.193 100.974 407.648 101.859C408.117 102.745 408.352 103.721 408.352 104.789V106.293C408.352 107.361 408.117 108.337 407.648 109.223C407.193 110.108 406.503 110.818 405.578 111.352C404.654 111.885 403.482 112.152 402.062 112.152C400.656 112.152 399.478 111.885 398.527 111.352C397.577 110.818 396.861 110.108 396.379 109.223C395.91 108.337 395.676 107.361 395.676 106.293ZM399.914 104.789V106.293C399.914 106.697 400.012 107.074 400.207 107.426C400.402 107.777 400.663 108.064 400.988 108.285C401.314 108.493 401.672 108.598 402.062 108.598C402.661 108.598 403.104 108.493 403.391 108.285C403.69 108.064 403.885 107.777 403.977 107.426C404.081 107.074 404.133 106.697 404.133 106.293V104.789C404.133 104.385 404.055 104.008 403.898 103.656C403.742 103.305 403.508 103.025 403.195 102.816C402.883 102.595 402.492 102.484 402.023 102.484C401.555 102.484 401.164 102.595 400.852 102.816C400.539 103.025 400.305 103.305 400.148 103.656C399.992 104.008 399.914 104.385 399.914 104.789ZM403.664 87.4062L389.777 109.633L386.711 108.09L400.598 85.8633L403.664 87.4062Z" fill="#00AED4"/>
<path d="M360.496 199.301C359.944 199.301 359.496 198.853 359.496 198.301V162.303H341.813C340.936 162.303 340.484 161.255 341.085 160.617L371.768 128.074C372.162 127.656 372.828 127.656 373.223 128.074L403.905 160.617C404.507 161.255 404.055 162.303 403.178 162.303H385.496V198.301C385.496 198.853 385.049 199.301 384.496 199.301H360.496Z" fill="#6FC7E2"/>
<path d="M481.242 420.606V419.29H478.54V420.606H481.242ZM482.208 418.59V421.306H477.588V418.59H482.208ZM475.488 420.606V419.29H472.814V420.606H475.488ZM476.468 418.59V421.306H471.876V418.59H476.468ZM473.262 426.038H476.426V424.834H473.262V426.038ZM473.262 422.846V424.036H476.426V422.846H473.262ZM480.822 424.036V422.846H477.49V424.036H480.822ZM480.822 426.038V424.834H477.49V426.038H480.822ZM483.174 427.942V428.852H477.49V430.826H476.426V428.852H470.854V427.942H476.426V426.878H472.254V422.006H481.886V426.878H477.49V427.942H483.174ZM487.878 424.792H494.752V430.84H493.674V425.828H487.794C487.584 427.648 487.038 429.412 485.722 430.882C485.554 430.644 485.176 430.28 484.938 430.098C486.702 428.082 486.898 425.45 486.898 422.916V418.212H487.934V421.516H493.198V418.072H494.248V422.538H487.934V422.916C487.934 423.546 487.92 424.176 487.878 424.792ZM507.772 420.718V419.444H502.214V420.718H507.772ZM507.772 422.86V421.558H502.214V422.86H507.772ZM508.794 418.562V423.742H501.206V418.562H508.794ZM503.376 425.604H500.31V427.018H503.376V425.604ZM500.31 429.426H503.376V427.844H500.31V429.426ZM499.33 430.854V424.68H504.398V430.742H503.376V430.336H500.31V430.854H499.33ZM506.624 429.426H509.718V427.844H506.624V429.426ZM509.718 425.604H506.624V427.018H509.718V425.604ZM505.616 424.68H510.754V430.742H509.718V430.336H506.624V430.854H505.616V424.68ZM520.848 421.81V421.012H517.11V421.81H520.848ZM521.758 420.424V422.398H516.242V420.424H521.758ZM516.536 425.94V426.612H521.394V425.94H516.536ZM516.536 424.722V425.366H521.394V424.722H516.536ZM516.536 423.504V424.148H521.394V423.504H516.536ZM522.318 427.214H520.26C521.24 427.564 522.36 428.04 523.004 428.474L522.164 428.866C521.59 428.474 520.582 427.97 519.602 427.62L520.204 427.214H517.558L518.314 427.452C517.614 427.984 516.508 428.53 515.584 428.852C515.444 428.698 515.136 428.404 514.954 428.264C515.878 427.984 516.872 427.62 517.488 427.214H515.64V422.916H522.318V427.214ZM514.184 429.286H523.788V419.64H514.184V429.286ZM513.19 418.688H524.81V430.868H523.788V430.224H514.184V430.868H513.19V418.688ZM537.998 423.084V421.754H534.288V423.084H537.998ZM537.998 425.212V423.854H534.288V425.212H537.998ZM537.998 427.354V425.996H534.288V427.354H537.998ZM533.364 420.928H535.38C535.464 420.508 535.562 420.032 535.618 419.612H532.986V418.716H539.258V419.612H536.682C536.57 420.06 536.444 420.522 536.318 420.928H538.936V428.18H533.364V420.928ZM527.974 421.726V423.098H529.444V421.726H527.974ZM527.974 419.57V420.928H529.444V419.57H527.974ZM531.74 420.928V419.57H530.256V420.928H531.74ZM531.74 423.098V421.726H530.256V423.098H531.74ZM532.902 428.404L532.286 429.216C531.922 428.796 531.026 427.97 530.326 427.368V430.826H529.374V427.158C528.702 428.32 527.848 429.426 526.98 430.084C526.882 429.804 526.644 429.384 526.476 429.146C527.442 428.474 528.464 427.256 529.122 426.052H526.742V425.114H529.374V423.924H527.134V418.744H532.622V423.924H530.326V425.114H532.846V426.052H530.326V426.416C530.998 426.892 532.538 428.068 532.902 428.404ZM534.694 428.46L535.576 428.978C534.876 429.692 533.714 430.462 532.706 430.882C532.552 430.672 532.23 430.378 532.006 430.196C533.014 429.804 534.134 429.062 534.694 428.46ZM536.64 429.034L537.41 428.516C538.152 429.02 539.132 429.776 539.608 430.294L538.81 430.854C538.334 430.35 537.396 429.566 536.64 429.034ZM550.304 420.172L549.324 420.466C549.198 419.878 548.918 418.954 548.652 418.268L549.604 418.03C549.884 418.716 550.164 419.584 550.304 420.172ZM552.978 420.578V421.558H546.202V420.578H552.978ZM548.988 428.334L548.008 428.642C547.868 427.186 547.448 424.596 547 422.65L547.868 422.426C548.358 424.4 548.82 426.92 548.988 428.334ZM545.208 418.968L546.09 419.276C545.726 420.242 545.292 421.474 544.914 422.202L544.242 421.95C544.592 421.166 544.998 419.85 545.208 418.968ZM542.352 421.908L541.554 422.118C541.428 421.32 541.106 420.088 540.812 419.15L541.568 418.968C541.876 419.906 542.212 421.11 542.352 421.908ZM541.96 424.512L542.646 424.736C542.338 426.248 541.694 428.18 540.952 429.146C540.84 428.852 540.616 428.39 540.462 428.124C541.064 427.312 541.708 425.772 541.96 424.512ZM545.88 423.7H543.85V430.84H542.884V423.7H540.658V422.72H542.884V418.058H543.85V422.72H545.88V423.7ZM544.046 424.918L544.606 424.526C544.858 424.89 545.824 426.626 546.006 427.032L545.306 427.816C545.068 427.13 544.326 425.45 544.046 424.918ZM550.71 429.258H553.37V430.28H545.642V429.258H549.786C550.29 427.382 550.836 424.414 551.088 422.328L552.138 422.496C551.788 424.652 551.228 427.396 550.71 429.258ZM561.042 429.846L561.014 429.874C562.302 429.174 563.254 428.264 563.912 427.06C563.464 425.968 563.142 424.722 562.876 423.364C562.638 423.952 562.386 424.47 562.106 424.918C561.98 424.778 561.686 424.526 561.476 424.344V425.646H558.312C558.172 425.94 558.018 426.234 557.864 426.542H559.628V426.444V425.982H560.482V426.458V426.542H561.882V427.298H560.398C560.286 427.872 559.992 428.474 559.348 429.034C559.992 429.314 560.594 429.608 561.042 429.846ZM559.516 427.298H557.43C557.248 427.592 557.08 427.872 556.912 428.138C557.416 428.292 557.948 428.474 558.466 428.684C559.082 428.236 559.376 427.746 559.516 427.298ZM556.184 424.05V424.974H557.92V424.05H556.184ZM560.552 424.05H558.746V424.974H560.552V424.05ZM565.396 421.74H563.478L563.408 421.908C563.632 423.406 563.954 424.792 564.43 426.01C564.906 424.806 565.214 423.406 565.396 421.74ZM556.436 422.048H557.92V421.152H556.436V422.048ZM557.92 419.682H556.436V420.452H557.92V419.682ZM560.342 419.682H558.746V420.452H560.342V419.682ZM558.746 422.048H560.342V421.152H558.746V422.048ZM567.384 421.74H566.32C566.068 423.896 565.62 425.66 564.906 427.102C565.536 428.362 566.39 429.37 567.496 429.972C567.286 430.154 566.978 430.504 566.824 430.77C565.802 430.14 565.004 429.188 564.374 428.026C563.604 429.202 562.568 430.126 561.182 430.854C561.098 430.672 560.874 430.364 560.706 430.154L560.37 430.462C559.908 430.196 559.278 429.874 558.578 429.594C557.78 430.056 556.632 430.476 555.008 430.826C554.938 430.616 554.728 430.308 554.56 430.126C555.89 429.86 556.884 429.538 557.612 429.188C556.954 428.936 556.268 428.698 555.624 428.53C555.89 428.194 556.184 427.746 556.478 427.298H554.672V426.542H556.912C557.08 426.234 557.22 425.94 557.36 425.646H555.288V423.392H557.92V422.776H555.624V421.194H554.658V420.41H555.624V418.954H557.92V418.044H558.746V418.954H561.196V420.41H561.994V421.194H561.196V422.776H558.746V423.392H561.476V424.134C562.4 422.608 563.058 420.326 563.45 418.044L564.36 418.226C564.192 419.08 563.982 419.962 563.758 420.802H567.384V421.74Z" fill="#B0B0B0"/>
<defs>
<linearGradient id="paint0_linear_275_44465" x1="92.9961" y1="237.762" x2="92.9961" y2="373.762" gradientUnits="userSpaceOnUse">
<stop stop-color="#0756AA"/>
<stop offset="1" stop-color="#17418F"/>
</linearGradient>
<linearGradient id="paint1_linear_275_44465" x1="279.996" y1="237.762" x2="279.996" y2="373.762" gradientUnits="userSpaceOnUse">
<stop stop-color="#0756AA"/>
<stop offset="1" stop-color="#17418F"/>
</linearGradient>
<linearGradient id="paint2_linear_275_44465" x1="279.996" y1="200.762" x2="279.996" y2="237.762" gradientUnits="userSpaceOnUse">
<stop stop-color="#859FD1"/>
<stop offset="1" stop-color="#4985C6"/>
</linearGradient>
<linearGradient id="paint3_linear_275_44465" x1="466.996" y1="163.762" x2="466.996" y2="200.762" gradientUnits="userSpaceOnUse">
<stop stop-color="#859FD1"/>
<stop offset="1" stop-color="#4985C6"/>
</linearGradient>
<linearGradient id="paint4_linear_275_44465" x1="466.996" y1="200.762" x2="466.996" y2="373.762" gradientUnits="userSpaceOnUse">
<stop stop-color="#0756AA"/>
<stop offset="1" stop-color="#17418F"/>
</linearGradient>
</defs>
</svg>
