<svg width="560" height="382" viewBox="0 0 560 382" fill="none" xmlns="http://www.w3.org/2000/svg">
<path d="M560 0H0V334H560V0Z" fill="white"/>
<path d="M0 298H140V334H0V298Z" fill="white"/>
<path d="M0 299H140V297H0V299Z" fill="#D1D1D1"/>
<path d="M52.9541 323V322.136C54.1808 321.059 55.1888 320.077 55.9781 319.192C56.7781 318.307 57.3701 317.485 57.7541 316.728C58.1381 315.96 58.3301 315.24 58.3301 314.568C58.3301 314.12 58.2501 313.72 58.0901 313.368C57.9408 313.016 57.7061 312.744 57.3861 312.552C57.0661 312.349 56.6608 312.248 56.1701 312.248C55.6901 312.248 55.2421 312.376 54.8261 312.632C54.4208 312.888 54.0581 313.213 53.7381 313.608L52.8901 312.776C53.3594 312.253 53.8661 311.837 54.4101 311.528C54.9541 311.219 55.5994 311.064 56.3461 311.064C57.0501 311.064 57.6528 311.208 58.1541 311.496C58.6661 311.773 59.0608 312.173 59.3381 312.696C59.6261 313.208 59.7701 313.811 59.7701 314.504C59.7701 315.283 59.5728 316.072 59.1781 316.872C58.7941 317.672 58.2554 318.488 57.5621 319.32C56.8794 320.141 56.0794 320.984 55.1621 321.848C55.4714 321.827 55.7914 321.805 56.1221 321.784C56.4634 321.752 56.7834 321.736 57.0821 321.736H60.3301V323H52.9541ZM65.5731 323.208C64.8371 323.208 64.1918 322.984 63.6371 322.536C63.0931 322.088 62.6718 321.411 62.3731 320.504C62.0744 319.597 61.9251 318.461 61.9251 317.096C61.9251 315.731 62.0744 314.605 62.3731 313.72C62.6718 312.824 63.0931 312.157 63.6371 311.72C64.1918 311.283 64.8371 311.064 65.5731 311.064C66.3198 311.064 66.9651 311.288 67.5091 311.736C68.0531 312.173 68.4744 312.835 68.7731 313.72C69.0718 314.605 69.2211 315.731 69.2211 317.096C69.2211 318.461 69.0718 319.597 68.7731 320.504C68.4744 321.411 68.0531 322.088 67.5091 322.536C66.9651 322.984 66.3198 323.208 65.5731 323.208ZM65.5731 322.024C66.0211 322.024 66.4104 321.853 66.7411 321.512C67.0824 321.171 67.3438 320.637 67.5251 319.912C67.7171 319.176 67.8131 318.237 67.8131 317.096C67.8131 315.955 67.7171 315.027 67.5251 314.312C67.3438 313.587 67.0824 313.059 66.7411 312.728C66.4104 312.387 66.0211 312.216 65.5731 312.216C65.1358 312.216 64.7464 312.387 64.4051 312.728C64.0638 313.059 63.7971 313.587 63.6051 314.312C63.4238 315.027 63.3331 315.955 63.3331 317.096C63.3331 318.237 63.4238 319.176 63.6051 319.912C63.7971 320.637 64.0638 321.171 64.4051 321.512C64.7464 321.853 65.1358 322.024 65.5731 322.024ZM70.7041 323V322.136C71.9308 321.059 72.9388 320.077 73.7281 319.192C74.5281 318.307 75.1201 317.485 75.5041 316.728C75.8881 315.96 76.0801 315.24 76.0801 314.568C76.0801 314.12 76.0001 313.72 75.8401 313.368C75.6908 313.016 75.4561 312.744 75.1361 312.552C74.8161 312.349 74.4108 312.248 73.9201 312.248C73.4401 312.248 72.9921 312.376 72.5761 312.632C72.1708 312.888 71.8081 313.213 71.4881 313.608L70.6401 312.776C71.1094 312.253 71.6161 311.837 72.1601 311.528C72.7041 311.219 73.3494 311.064 74.0961 311.064C74.8001 311.064 75.4028 311.208 75.9041 311.496C76.4161 311.773 76.8108 312.173 77.0881 312.696C77.3761 313.208 77.5201 313.811 77.5201 314.504C77.5201 315.283 77.3228 316.072 76.9281 316.872C76.5441 317.672 76.0054 318.488 75.3121 319.32C74.6294 320.141 73.8294 320.984 72.9121 321.848C73.2214 321.827 73.5414 321.805 73.8721 321.784C74.2134 321.752 74.5334 321.736 74.8321 321.736H78.0801V323H70.7041ZM83.3231 323.208C82.5871 323.208 81.9418 322.984 81.3871 322.536C80.8431 322.088 80.4218 321.411 80.1231 320.504C79.8244 319.597 79.6751 318.461 79.6751 317.096C79.6751 315.731 79.8244 314.605 80.1231 313.72C80.4218 312.824 80.8431 312.157 81.3871 311.72C81.9418 311.283 82.5871 311.064 83.3231 311.064C84.0698 311.064 84.7151 311.288 85.2591 311.736C85.8031 312.173 86.2244 312.835 86.5231 313.72C86.8218 314.605 86.9711 315.731 86.9711 317.096C86.9711 318.461 86.8218 319.597 86.5231 320.504C86.2244 321.411 85.8031 322.088 85.2591 322.536C84.7151 322.984 84.0698 323.208 83.3231 323.208ZM83.3231 322.024C83.7711 322.024 84.1604 321.853 84.4911 321.512C84.8324 321.171 85.0938 320.637 85.2751 319.912C85.4671 319.176 85.5631 318.237 85.5631 317.096C85.5631 315.955 85.4671 315.027 85.2751 314.312C85.0938 313.587 84.8324 313.059 84.4911 312.728C84.1604 312.387 83.7711 312.216 83.3231 312.216C82.8858 312.216 82.4964 312.387 82.1551 312.728C81.8138 313.059 81.5471 313.587 81.3551 314.312C81.1738 315.027 81.0831 315.955 81.0831 317.096C81.0831 318.237 81.1738 319.176 81.3551 319.912C81.5471 320.637 81.8138 321.171 82.1551 321.512C82.4964 321.853 82.8858 322.024 83.3231 322.024Z" fill="#6D6D6D"/>
<path d="M140 298H280V334H140V298Z" fill="white"/>
<path d="M140 299H280V297H140V299Z" fill="#D1D1D1"/>
<path d="M192.954 323V322.136C194.181 321.059 195.189 320.077 195.978 319.192C196.778 318.307 197.37 317.485 197.754 316.728C198.138 315.96 198.33 315.24 198.33 314.568C198.33 314.12 198.25 313.72 198.09 313.368C197.941 313.016 197.706 312.744 197.386 312.552C197.066 312.349 196.661 312.248 196.17 312.248C195.69 312.248 195.242 312.376 194.826 312.632C194.421 312.888 194.058 313.213 193.738 313.608L192.89 312.776C193.359 312.253 193.866 311.837 194.41 311.528C194.954 311.219 195.599 311.064 196.346 311.064C197.05 311.064 197.653 311.208 198.154 311.496C198.666 311.773 199.061 312.173 199.338 312.696C199.626 313.208 199.77 313.811 199.77 314.504C199.77 315.283 199.573 316.072 199.178 316.872C198.794 317.672 198.255 318.488 197.562 319.32C196.879 320.141 196.079 320.984 195.162 321.848C195.471 321.827 195.791 321.805 196.122 321.784C196.463 321.752 196.783 321.736 197.082 321.736H200.33V323H192.954ZM205.573 323.208C204.837 323.208 204.192 322.984 203.637 322.536C203.093 322.088 202.672 321.411 202.373 320.504C202.074 319.597 201.925 318.461 201.925 317.096C201.925 315.731 202.074 314.605 202.373 313.72C202.672 312.824 203.093 312.157 203.637 311.72C204.192 311.283 204.837 311.064 205.573 311.064C206.32 311.064 206.965 311.288 207.509 311.736C208.053 312.173 208.474 312.835 208.773 313.72C209.072 314.605 209.221 315.731 209.221 317.096C209.221 318.461 209.072 319.597 208.773 320.504C208.474 321.411 208.053 322.088 207.509 322.536C206.965 322.984 206.32 323.208 205.573 323.208ZM205.573 322.024C206.021 322.024 206.41 321.853 206.741 321.512C207.082 321.171 207.344 320.637 207.525 319.912C207.717 319.176 207.813 318.237 207.813 317.096C207.813 315.955 207.717 315.027 207.525 314.312C207.344 313.587 207.082 313.059 206.741 312.728C206.41 312.387 206.021 312.216 205.573 312.216C205.136 312.216 204.746 312.387 204.405 312.728C204.064 313.059 203.797 313.587 203.605 314.312C203.424 315.027 203.333 315.955 203.333 317.096C203.333 318.237 203.424 319.176 203.605 319.912C203.797 320.637 204.064 321.171 204.405 321.512C204.746 321.853 205.136 322.024 205.573 322.024ZM210.704 323V322.136C211.931 321.059 212.939 320.077 213.728 319.192C214.528 318.307 215.12 317.485 215.504 316.728C215.888 315.96 216.08 315.24 216.08 314.568C216.08 314.12 216 313.72 215.84 313.368C215.691 313.016 215.456 312.744 215.136 312.552C214.816 312.349 214.411 312.248 213.92 312.248C213.44 312.248 212.992 312.376 212.576 312.632C212.171 312.888 211.808 313.213 211.488 313.608L210.64 312.776C211.109 312.253 211.616 311.837 212.16 311.528C212.704 311.219 213.349 311.064 214.096 311.064C214.8 311.064 215.403 311.208 215.904 311.496C216.416 311.773 216.811 312.173 217.088 312.696C217.376 313.208 217.52 313.811 217.52 314.504C217.52 315.283 217.323 316.072 216.928 316.872C216.544 317.672 216.005 318.488 215.312 319.32C214.629 320.141 213.829 320.984 212.912 321.848C213.221 321.827 213.541 321.805 213.872 321.784C214.213 321.752 214.533 321.736 214.832 321.736H218.08V323H210.704ZM220.283 323V321.784H222.907V313.032H220.811V312.104C221.334 312.008 221.787 311.891 222.171 311.752C222.566 311.613 222.923 311.453 223.243 311.272H224.363V321.784H226.715V323H220.283Z" fill="#6D6D6D"/>
<path d="M280 298H420V334H280V298Z" fill="white"/>
<path d="M280 299H420V297H280V299Z" fill="#D1D1D1"/>
<path d="M332.954 323V322.136C334.181 321.059 335.189 320.077 335.978 319.192C336.778 318.307 337.37 317.485 337.754 316.728C338.138 315.96 338.33 315.24 338.33 314.568C338.33 314.12 338.25 313.72 338.09 313.368C337.941 313.016 337.706 312.744 337.386 312.552C337.066 312.349 336.661 312.248 336.17 312.248C335.69 312.248 335.242 312.376 334.826 312.632C334.421 312.888 334.058 313.213 333.738 313.608L332.89 312.776C333.359 312.253 333.866 311.837 334.41 311.528C334.954 311.219 335.599 311.064 336.346 311.064C337.05 311.064 337.653 311.208 338.154 311.496C338.666 311.773 339.061 312.173 339.338 312.696C339.626 313.208 339.77 313.811 339.77 314.504C339.77 315.283 339.573 316.072 339.178 316.872C338.794 317.672 338.255 318.488 337.562 319.32C336.879 320.141 336.079 320.984 335.162 321.848C335.471 321.827 335.791 321.805 336.122 321.784C336.463 321.752 336.783 321.736 337.082 321.736H340.33V323H332.954ZM345.573 323.208C344.837 323.208 344.192 322.984 343.637 322.536C343.093 322.088 342.672 321.411 342.373 320.504C342.074 319.597 341.925 318.461 341.925 317.096C341.925 315.731 342.074 314.605 342.373 313.72C342.672 312.824 343.093 312.157 343.637 311.72C344.192 311.283 344.837 311.064 345.573 311.064C346.32 311.064 346.965 311.288 347.509 311.736C348.053 312.173 348.474 312.835 348.773 313.72C349.072 314.605 349.221 315.731 349.221 317.096C349.221 318.461 349.072 319.597 348.773 320.504C348.474 321.411 348.053 322.088 347.509 322.536C346.965 322.984 346.32 323.208 345.573 323.208ZM345.573 322.024C346.021 322.024 346.41 321.853 346.741 321.512C347.082 321.171 347.344 320.637 347.525 319.912C347.717 319.176 347.813 318.237 347.813 317.096C347.813 315.955 347.717 315.027 347.525 314.312C347.344 313.587 347.082 313.059 346.741 312.728C346.41 312.387 346.021 312.216 345.573 312.216C345.136 312.216 344.746 312.387 344.405 312.728C344.064 313.059 343.797 313.587 343.605 314.312C343.424 315.027 343.333 315.955 343.333 317.096C343.333 318.237 343.424 319.176 343.605 319.912C343.797 320.637 344.064 321.171 344.405 321.512C344.746 321.853 345.136 322.024 345.573 322.024ZM350.704 323V322.136C351.931 321.059 352.939 320.077 353.728 319.192C354.528 318.307 355.12 317.485 355.504 316.728C355.888 315.96 356.08 315.24 356.08 314.568C356.08 314.12 356 313.72 355.84 313.368C355.691 313.016 355.456 312.744 355.136 312.552C354.816 312.349 354.411 312.248 353.92 312.248C353.44 312.248 352.992 312.376 352.576 312.632C352.171 312.888 351.808 313.213 351.488 313.608L350.64 312.776C351.109 312.253 351.616 311.837 352.16 311.528C352.704 311.219 353.349 311.064 354.096 311.064C354.8 311.064 355.403 311.208 355.904 311.496C356.416 311.773 356.811 312.173 357.088 312.696C357.376 313.208 357.52 313.811 357.52 314.504C357.52 315.283 357.323 316.072 356.928 316.872C356.544 317.672 356.005 318.488 355.312 319.32C354.629 320.141 353.829 320.984 352.912 321.848C353.221 321.827 353.541 321.805 353.872 321.784C354.213 321.752 354.533 321.736 354.832 321.736H358.08V323H350.704ZM359.579 323V322.136C360.806 321.059 361.814 320.077 362.603 319.192C363.403 318.307 363.995 317.485 364.379 316.728C364.763 315.96 364.955 315.24 364.955 314.568C364.955 314.12 364.875 313.72 364.715 313.368C364.566 313.016 364.331 312.744 364.011 312.552C363.691 312.349 363.286 312.248 362.795 312.248C362.315 312.248 361.867 312.376 361.451 312.632C361.046 312.888 360.683 313.213 360.363 313.608L359.515 312.776C359.984 312.253 360.491 311.837 361.035 311.528C361.579 311.219 362.224 311.064 362.971 311.064C363.675 311.064 364.278 311.208 364.779 311.496C365.291 311.773 365.686 312.173 365.963 312.696C366.251 313.208 366.395 313.811 366.395 314.504C366.395 315.283 366.198 316.072 365.803 316.872C365.419 317.672 364.88 318.488 364.187 319.32C363.504 320.141 362.704 320.984 361.787 321.848C362.096 321.827 362.416 321.805 362.747 321.784C363.088 321.752 363.408 321.736 363.707 321.736H366.955V323H359.579Z" fill="#6D6D6D"/>
<path d="M420 298H560V334H420V298Z" fill="white"/>
<path d="M420 299H560V297H420V299Z" fill="#D1D1D1"/>
<path d="M472.954 323V322.136C474.181 321.059 475.189 320.077 475.978 319.192C476.778 318.307 477.37 317.485 477.754 316.728C478.138 315.96 478.33 315.24 478.33 314.568C478.33 314.12 478.25 313.72 478.09 313.368C477.941 313.016 477.706 312.744 477.386 312.552C477.066 312.349 476.661 312.248 476.17 312.248C475.69 312.248 475.242 312.376 474.826 312.632C474.421 312.888 474.058 313.213 473.738 313.608L472.89 312.776C473.359 312.253 473.866 311.837 474.41 311.528C474.954 311.219 475.599 311.064 476.346 311.064C477.05 311.064 477.653 311.208 478.154 311.496C478.666 311.773 479.061 312.173 479.338 312.696C479.626 313.208 479.77 313.811 479.77 314.504C479.77 315.283 479.573 316.072 479.178 316.872C478.794 317.672 478.255 318.488 477.562 319.32C476.879 320.141 476.079 320.984 475.162 321.848C475.471 321.827 475.791 321.805 476.122 321.784C476.463 321.752 476.783 321.736 477.082 321.736H480.33V323H472.954ZM485.573 323.208C484.837 323.208 484.192 322.984 483.637 322.536C483.093 322.088 482.672 321.411 482.373 320.504C482.074 319.597 481.925 318.461 481.925 317.096C481.925 315.731 482.074 314.605 482.373 313.72C482.672 312.824 483.093 312.157 483.637 311.72C484.192 311.283 484.837 311.064 485.573 311.064C486.32 311.064 486.965 311.288 487.509 311.736C488.053 312.173 488.474 312.835 488.773 313.72C489.072 314.605 489.221 315.731 489.221 317.096C489.221 318.461 489.072 319.597 488.773 320.504C488.474 321.411 488.053 322.088 487.509 322.536C486.965 322.984 486.32 323.208 485.573 323.208ZM485.573 322.024C486.021 322.024 486.41 321.853 486.741 321.512C487.082 321.171 487.344 320.637 487.525 319.912C487.717 319.176 487.813 318.237 487.813 317.096C487.813 315.955 487.717 315.027 487.525 314.312C487.344 313.587 487.082 313.059 486.741 312.728C486.41 312.387 486.021 312.216 485.573 312.216C485.136 312.216 484.746 312.387 484.405 312.728C484.064 313.059 483.797 313.587 483.605 314.312C483.424 315.027 483.333 315.955 483.333 317.096C483.333 318.237 483.424 319.176 483.605 319.912C483.797 320.637 484.064 321.171 484.405 321.512C484.746 321.853 485.136 322.024 485.573 322.024ZM490.704 323V322.136C491.931 321.059 492.939 320.077 493.728 319.192C494.528 318.307 495.12 317.485 495.504 316.728C495.888 315.96 496.08 315.24 496.08 314.568C496.08 314.12 496 313.72 495.84 313.368C495.691 313.016 495.456 312.744 495.136 312.552C494.816 312.349 494.411 312.248 493.92 312.248C493.44 312.248 492.992 312.376 492.576 312.632C492.171 312.888 491.808 313.213 491.488 313.608L490.64 312.776C491.109 312.253 491.616 311.837 492.16 311.528C492.704 311.219 493.349 311.064 494.096 311.064C494.8 311.064 495.403 311.208 495.904 311.496C496.416 311.773 496.811 312.173 497.088 312.696C497.376 313.208 497.52 313.811 497.52 314.504C497.52 315.283 497.323 316.072 496.928 316.872C496.544 317.672 496.005 318.488 495.312 319.32C494.629 320.141 493.829 320.984 492.912 321.848C493.221 321.827 493.541 321.805 493.872 321.784C494.213 321.752 494.533 321.736 494.832 321.736H498.08V323H490.704ZM503.083 323.208C502.475 323.208 501.936 323.133 501.467 322.984C501.008 322.835 500.603 322.637 500.251 322.392C499.899 322.147 499.595 321.88 499.339 321.592L500.091 320.648C500.432 321 500.832 321.315 501.291 321.592C501.76 321.859 502.326 321.992 502.987 321.992C503.456 321.992 503.867 321.907 504.219 321.736C504.582 321.555 504.864 321.304 505.067 320.984C505.27 320.653 505.371 320.264 505.371 319.816C505.371 319.347 505.254 318.936 505.019 318.584C504.795 318.232 504.416 317.96 503.883 317.768C503.35 317.565 502.63 317.464 501.723 317.464V316.344C502.534 316.344 503.174 316.248 503.643 316.056C504.112 315.853 504.448 315.581 504.651 315.24C504.864 314.899 504.971 314.52 504.971 314.104C504.971 313.539 504.795 313.091 504.443 312.76C504.091 312.419 503.606 312.248 502.987 312.248C502.518 312.248 502.075 312.355 501.659 312.568C501.254 312.781 500.886 313.053 500.555 313.384L499.771 312.456C500.219 312.051 500.704 311.72 501.227 311.464C501.76 311.197 502.363 311.064 503.035 311.064C503.696 311.064 504.283 311.181 504.795 311.416C505.318 311.64 505.723 311.971 506.011 312.408C506.31 312.845 506.459 313.373 506.459 313.992C506.459 314.707 506.267 315.299 505.883 315.768C505.499 316.237 504.998 316.584 504.379 316.808V316.888C504.838 316.995 505.254 317.181 505.627 317.448C506 317.715 506.299 318.051 506.523 318.456C506.747 318.861 506.859 319.331 506.859 319.864C506.859 320.557 506.688 321.155 506.347 321.656C506.006 322.157 505.552 322.541 504.987 322.808C504.422 323.075 503.787 323.208 503.083 323.208Z" fill="#6D6D6D"/>
<path opacity="0.1" d="M210 91L70 109.5V298H490V41L350 78L210 91Z" fill="url(#paint0_linear_1766_38907)"/>
<path fill-rule="evenodd" clip-rule="evenodd" d="M490.254 41.9672L350.174 78.7181L210.111 91.629L70.1302 109.991L69.8701 108.008L209.889 89.641L349.826 76.7417L489.746 40.0327L490.254 41.9672Z" fill="#1DA637"/>
<path d="M57.069 92.252C56.241 92.252 55.503 92.102 54.855 91.802C54.207 91.49 53.691 91.07 53.307 90.542C52.935 90.002 52.749 89.39 52.749 88.706C52.749 88.118 52.863 87.596 53.091 87.14C53.319 86.684 53.613 86.294 53.973 85.97C54.333 85.634 54.711 85.358 55.107 85.142V85.052C54.627 84.704 54.213 84.278 53.865 83.774C53.517 83.258 53.343 82.652 53.343 81.956C53.343 81.272 53.505 80.672 53.829 80.156C54.165 79.64 54.615 79.244 55.179 78.968C55.755 78.68 56.409 78.536 57.141 78.536C57.909 78.536 58.569 78.686 59.121 78.986C59.673 79.286 60.099 79.7 60.399 80.228C60.711 80.744 60.867 81.35 60.867 82.046C60.867 82.49 60.777 82.91 60.597 83.306C60.417 83.702 60.195 84.062 59.931 84.386C59.679 84.698 59.409 84.956 59.121 85.16V85.25C59.529 85.466 59.901 85.736 60.237 86.06C60.573 86.372 60.843 86.75 61.047 87.194C61.251 87.638 61.353 88.16 61.353 88.76C61.353 89.408 61.173 89.996 60.813 90.524C60.465 91.052 59.967 91.472 59.319 91.784C58.683 92.096 57.933 92.252 57.069 92.252ZM57.951 84.638C58.335 84.266 58.623 83.876 58.815 83.468C59.019 83.048 59.121 82.61 59.121 82.154C59.121 81.758 59.043 81.398 58.887 81.074C58.731 80.75 58.497 80.498 58.185 80.318C57.885 80.126 57.519 80.03 57.087 80.03C56.547 80.03 56.097 80.204 55.737 80.552C55.377 80.888 55.197 81.356 55.197 81.956C55.197 82.436 55.323 82.838 55.575 83.162C55.827 83.486 56.163 83.762 56.583 83.99C57.003 84.218 57.459 84.434 57.951 84.638ZM57.123 90.74C57.567 90.74 57.957 90.656 58.293 90.488C58.641 90.32 58.911 90.086 59.103 89.786C59.295 89.474 59.391 89.108 59.391 88.688C59.391 88.292 59.307 87.95 59.139 87.662C58.971 87.362 58.737 87.104 58.437 86.888C58.149 86.672 57.807 86.474 57.411 86.294C57.015 86.102 56.589 85.916 56.133 85.736C55.677 86.06 55.305 86.462 55.017 86.942C54.729 87.41 54.585 87.926 54.585 88.49C54.585 88.934 54.693 89.324 54.909 89.66C55.137 89.996 55.443 90.26 55.827 90.452C56.211 90.644 56.643 90.74 57.123 90.74ZM65.6606 92C65.7206 90.788 65.8226 89.678 65.9666 88.67C66.1106 87.65 66.3206 86.69 66.5966 85.79C66.8726 84.878 67.2326 83.996 67.6766 83.144C68.1206 82.28 68.6606 81.398 69.2966 80.498H63.0866V78.734H71.6006V80.012C70.8326 80.972 70.2086 81.902 69.7286 82.802C69.2486 83.69 68.8766 84.596 68.6126 85.52C68.3486 86.444 68.1566 87.434 68.0366 88.49C67.9166 89.534 67.8326 90.704 67.7846 92H65.6606ZM75.1342 92.252C74.7502 92.252 74.4202 92.114 74.1442 91.838C73.8802 91.55 73.7482 91.196 73.7482 90.776C73.7482 90.344 73.8802 89.996 74.1442 89.732C74.4202 89.456 74.7502 89.318 75.1342 89.318C75.5302 89.318 75.8602 89.456 76.1242 89.732C76.4002 89.996 76.5382 90.344 76.5382 90.776C76.5382 91.196 76.4002 91.55 76.1242 91.838C75.8602 92.114 75.5302 92.252 75.1342 92.252ZM82.6376 92.252C81.9416 92.252 81.3236 92.168 80.7836 92C80.2556 91.832 79.7876 91.61 79.3796 91.334C78.9716 91.046 78.6176 90.74 78.3176 90.416L79.3256 89.084C79.7216 89.468 80.1716 89.804 80.6756 90.092C81.1796 90.38 81.7736 90.524 82.4576 90.524C82.9616 90.524 83.3996 90.44 83.7716 90.272C84.1436 90.092 84.4316 89.84 84.6356 89.516C84.8516 89.192 84.9596 88.796 84.9596 88.328C84.9596 87.848 84.8396 87.428 84.5996 87.068C84.3716 86.696 83.9696 86.414 83.3936 86.222C82.8296 86.018 82.0496 85.916 81.0536 85.916V84.368C81.9296 84.368 82.6136 84.272 83.1056 84.08C83.6096 83.876 83.9696 83.6 84.1856 83.252C84.4136 82.904 84.5276 82.508 84.5276 82.064C84.5276 81.488 84.3476 81.032 83.9876 80.696C83.6276 80.348 83.1296 80.174 82.4936 80.174C81.9896 80.174 81.5156 80.288 81.0716 80.516C80.6396 80.732 80.2316 81.026 79.8476 81.398L78.7676 80.102C79.2956 79.622 79.8716 79.238 80.4956 78.95C81.1196 78.65 81.8096 78.5 82.5656 78.5C83.3576 78.5 84.0596 78.638 84.6716 78.914C85.2836 79.178 85.7636 79.562 86.1116 80.066C86.4596 80.57 86.6336 81.188 86.6336 81.92C86.6336 82.676 86.4236 83.318 86.0036 83.846C85.5956 84.374 85.0436 84.77 84.3476 85.034V85.106C84.8516 85.238 85.3076 85.454 85.7156 85.754C86.1356 86.042 86.4656 86.414 86.7056 86.87C86.9456 87.326 87.0656 87.848 87.0656 88.436C87.0656 89.228 86.8616 89.912 86.4536 90.488C86.0576 91.052 85.5236 91.49 84.8516 91.802C84.1796 92.102 83.4416 92.252 82.6376 92.252Z" fill="#1DA637"/>
<path d="M74.9072 109.093L69.9072 104.093L64.9072 109.093L69.9072 114.093L74.9072 109.093Z" fill="url(#paint1_linear_1766_38907)"/>
<path d="M196.313 74.252C195.545 74.252 194.879 74.114 194.315 73.838C193.763 73.55 193.295 73.214 192.911 72.83L194.045 71.534C194.309 71.834 194.633 72.074 195.017 72.254C195.401 72.434 195.797 72.524 196.205 72.524C196.625 72.524 197.021 72.428 197.393 72.236C197.777 72.044 198.107 71.732 198.383 71.3C198.671 70.868 198.893 70.292 199.049 69.572C199.217 68.852 199.301 67.97 199.301 66.926C199.301 65.822 199.193 64.916 198.977 64.208C198.761 63.488 198.455 62.96 198.059 62.624C197.675 62.276 197.213 62.102 196.673 62.102C196.289 62.102 195.941 62.216 195.629 62.444C195.317 62.66 195.071 62.972 194.891 63.38C194.711 63.788 194.621 64.28 194.621 64.856C194.621 65.42 194.699 65.9 194.855 66.296C195.023 66.692 195.269 66.998 195.593 67.214C195.917 67.418 196.307 67.52 196.763 67.52C197.183 67.52 197.615 67.388 198.059 67.124C198.503 66.86 198.923 66.428 199.319 65.828L199.409 67.358C199.157 67.694 198.863 67.988 198.527 68.24C198.191 68.492 197.843 68.69 197.483 68.834C197.123 68.966 196.763 69.032 196.403 69.032C195.671 69.032 195.023 68.876 194.459 68.564C193.907 68.252 193.469 67.79 193.145 67.178C192.833 66.554 192.677 65.78 192.677 64.856C192.677 63.98 192.857 63.218 193.217 62.57C193.589 61.91 194.075 61.4 194.675 61.04C195.275 60.68 195.929 60.5 196.637 60.5C197.273 60.5 197.867 60.632 198.419 60.896C198.983 61.148 199.469 61.538 199.877 62.066C200.297 62.594 200.627 63.26 200.867 64.064C201.107 64.868 201.227 65.822 201.227 66.926C201.227 68.222 201.095 69.338 200.831 70.274C200.567 71.198 200.201 71.954 199.733 72.542C199.265 73.118 198.737 73.55 198.149 73.838C197.561 74.114 196.949 74.252 196.313 74.252ZM207.335 74.252C206.471 74.252 205.715 73.994 205.067 73.478C204.419 72.962 203.915 72.194 203.555 71.174C203.207 70.142 203.033 68.858 203.033 67.322C203.033 65.786 203.207 64.514 203.555 63.506C203.915 62.498 204.419 61.748 205.067 61.256C205.715 60.752 206.471 60.5 207.335 60.5C208.199 60.5 208.949 60.752 209.585 61.256C210.221 61.76 210.713 62.516 211.061 63.524C211.421 64.52 211.601 65.786 211.601 67.322C211.601 68.858 211.421 70.142 211.061 71.174C210.713 72.194 210.221 72.962 209.585 73.478C208.949 73.994 208.199 74.252 207.335 74.252ZM207.335 72.596C207.779 72.596 208.175 72.422 208.523 72.074C208.871 71.726 209.141 71.168 209.333 70.4C209.525 69.62 209.621 68.594 209.621 67.322C209.621 66.05 209.525 65.036 209.333 64.28C209.141 63.524 208.871 62.978 208.523 62.642C208.175 62.306 207.779 62.138 207.335 62.138C206.891 62.138 206.495 62.306 206.147 62.642C205.799 62.978 205.523 63.524 205.319 64.28C205.127 65.036 205.031 66.05 205.031 67.322C205.031 68.594 205.127 69.62 205.319 70.4C205.523 71.168 205.799 71.726 206.147 72.074C206.495 72.422 206.891 72.596 207.335 72.596ZM215.134 74.252C214.75 74.252 214.42 74.114 214.144 73.838C213.88 73.55 213.748 73.196 213.748 72.776C213.748 72.344 213.88 71.996 214.144 71.732C214.42 71.456 214.75 71.318 215.134 71.318C215.53 71.318 215.86 71.456 216.124 71.732C216.4 71.996 216.538 72.344 216.538 72.776C216.538 73.196 216.4 73.55 216.124 73.838C215.86 74.114 215.53 74.252 215.134 74.252ZM222.961 74.252C222.133 74.252 221.395 74.102 220.747 73.802C220.099 73.49 219.583 73.07 219.199 72.542C218.827 72.002 218.641 71.39 218.641 70.706C218.641 70.118 218.755 69.596 218.983 69.14C219.211 68.684 219.505 68.294 219.865 67.97C220.225 67.634 220.603 67.358 220.999 67.142V67.052C220.519 66.704 220.105 66.278 219.757 65.774C219.409 65.258 219.235 64.652 219.235 63.956C219.235 63.272 219.397 62.672 219.721 62.156C220.057 61.64 220.507 61.244 221.071 60.968C221.647 60.68 222.301 60.536 223.033 60.536C223.801 60.536 224.461 60.686 225.013 60.986C225.565 61.286 225.991 61.7 226.291 62.228C226.603 62.744 226.759 63.35 226.759 64.046C226.759 64.49 226.669 64.91 226.489 65.306C226.309 65.702 226.087 66.062 225.823 66.386C225.571 66.698 225.301 66.956 225.013 67.16V67.25C225.421 67.466 225.793 67.736 226.129 68.06C226.465 68.372 226.735 68.75 226.939 69.194C227.143 69.638 227.245 70.16 227.245 70.76C227.245 71.408 227.065 71.996 226.705 72.524C226.357 73.052 225.859 73.472 225.211 73.784C224.575 74.096 223.825 74.252 222.961 74.252ZM223.843 66.638C224.227 66.266 224.515 65.876 224.707 65.468C224.911 65.048 225.013 64.61 225.013 64.154C225.013 63.758 224.935 63.398 224.779 63.074C224.623 62.75 224.389 62.498 224.077 62.318C223.777 62.126 223.411 62.03 222.979 62.03C222.439 62.03 221.989 62.204 221.629 62.552C221.269 62.888 221.089 63.356 221.089 63.956C221.089 64.436 221.215 64.838 221.467 65.162C221.719 65.486 222.055 65.762 222.475 65.99C222.895 66.218 223.351 66.434 223.843 66.638ZM223.015 72.74C223.459 72.74 223.849 72.656 224.185 72.488C224.533 72.32 224.803 72.086 224.995 71.786C225.187 71.474 225.283 71.108 225.283 70.688C225.283 70.292 225.199 69.95 225.031 69.662C224.863 69.362 224.629 69.104 224.329 68.888C224.041 68.672 223.699 68.474 223.303 68.294C222.907 68.102 222.481 67.916 222.025 67.736C221.569 68.06 221.197 68.462 220.909 68.942C220.621 69.41 220.477 69.926 220.477 70.49C220.477 70.934 220.585 71.324 220.801 71.66C221.029 71.996 221.335 72.26 221.719 72.452C222.103 72.644 222.535 72.74 223.015 72.74Z" fill="#1DA637"/>
<path d="M214.907 91.0928L209.907 86.0928L204.907 91.0928L209.907 96.0928L214.907 91.0928Z" fill="url(#paint2_linear_1766_38907)"/>
<path d="M336.313 61.252C335.545 61.252 334.879 61.114 334.315 60.838C333.763 60.55 333.295 60.214 332.911 59.83L334.045 58.534C334.309 58.834 334.633 59.074 335.017 59.254C335.401 59.434 335.797 59.524 336.205 59.524C336.625 59.524 337.021 59.428 337.393 59.236C337.777 59.044 338.107 58.732 338.383 58.3C338.671 57.868 338.893 57.292 339.049 56.572C339.217 55.852 339.301 54.97 339.301 53.926C339.301 52.822 339.193 51.916 338.977 51.208C338.761 50.488 338.455 49.96 338.059 49.624C337.675 49.276 337.213 49.102 336.673 49.102C336.289 49.102 335.941 49.216 335.629 49.444C335.317 49.66 335.071 49.972 334.891 50.38C334.711 50.788 334.621 51.28 334.621 51.856C334.621 52.42 334.699 52.9 334.855 53.296C335.023 53.692 335.269 53.998 335.593 54.214C335.917 54.418 336.307 54.52 336.763 54.52C337.183 54.52 337.615 54.388 338.059 54.124C338.503 53.86 338.923 53.428 339.319 52.828L339.409 54.358C339.157 54.694 338.863 54.988 338.527 55.24C338.191 55.492 337.843 55.69 337.483 55.834C337.123 55.966 336.763 56.032 336.403 56.032C335.671 56.032 335.023 55.876 334.459 55.564C333.907 55.252 333.469 54.79 333.145 54.178C332.833 53.554 332.677 52.78 332.677 51.856C332.677 50.98 332.857 50.218 333.217 49.57C333.589 48.91 334.075 48.4 334.675 48.04C335.275 47.68 335.929 47.5 336.637 47.5C337.273 47.5 337.867 47.632 338.419 47.896C338.983 48.148 339.469 48.538 339.877 49.066C340.297 49.594 340.627 50.26 340.867 51.064C341.107 51.868 341.227 52.822 341.227 53.926C341.227 55.222 341.095 56.338 340.831 57.274C340.567 58.198 340.201 58.954 339.733 59.542C339.265 60.118 338.737 60.55 338.149 60.838C337.561 61.114 336.949 61.252 336.313 61.252ZM342.979 61V59.794C344.287 58.63 345.379 57.568 346.255 56.608C347.131 55.636 347.785 54.736 348.217 53.908C348.661 53.08 348.883 52.306 348.883 51.586C348.883 51.106 348.799 50.686 348.631 50.326C348.475 49.954 348.229 49.672 347.893 49.48C347.569 49.276 347.155 49.174 346.651 49.174C346.135 49.174 345.661 49.318 345.229 49.606C344.797 49.882 344.401 50.224 344.041 50.632L342.871 49.48C343.435 48.856 344.029 48.37 344.653 48.022C345.289 47.674 346.045 47.5 346.921 47.5C347.725 47.5 348.427 47.668 349.027 48.004C349.627 48.328 350.089 48.79 350.413 49.39C350.749 49.978 350.917 50.674 350.917 51.478C350.917 52.33 350.707 53.194 350.287 54.07C349.867 54.934 349.291 55.81 348.559 56.698C347.827 57.574 346.993 58.462 346.057 59.362C346.405 59.326 346.771 59.296 347.155 59.272C347.551 59.236 347.905 59.218 348.217 59.218H351.547V61H342.979ZM355.134 61.252C354.75 61.252 354.42 61.114 354.144 60.838C353.88 60.55 353.748 60.196 353.748 59.776C353.748 59.344 353.88 58.996 354.144 58.732C354.42 58.456 354.75 58.318 355.134 58.318C355.53 58.318 355.86 58.456 356.124 58.732C356.4 58.996 356.538 59.344 356.538 59.776C356.538 60.196 356.4 60.55 356.124 60.838C355.86 61.114 355.53 61.252 355.134 61.252ZM362.205 61.252C361.437 61.252 360.771 61.114 360.207 60.838C359.655 60.55 359.187 60.214 358.803 59.83L359.937 58.534C360.201 58.834 360.525 59.074 360.909 59.254C361.293 59.434 361.689 59.524 362.097 59.524C362.517 59.524 362.913 59.428 363.285 59.236C363.669 59.044 363.999 58.732 364.275 58.3C364.563 57.868 364.785 57.292 364.941 56.572C365.109 55.852 365.193 54.97 365.193 53.926C365.193 52.822 365.085 51.916 364.869 51.208C364.653 50.488 364.347 49.96 363.951 49.624C363.567 49.276 363.105 49.102 362.565 49.102C362.181 49.102 361.833 49.216 361.521 49.444C361.209 49.66 360.963 49.972 360.783 50.38C360.603 50.788 360.513 51.28 360.513 51.856C360.513 52.42 360.591 52.9 360.747 53.296C360.915 53.692 361.161 53.998 361.485 54.214C361.809 54.418 362.199 54.52 362.655 54.52C363.075 54.52 363.507 54.388 363.951 54.124C364.395 53.86 364.815 53.428 365.211 52.828L365.301 54.358C365.049 54.694 364.755 54.988 364.419 55.24C364.083 55.492 363.735 55.69 363.375 55.834C363.015 55.966 362.655 56.032 362.295 56.032C361.563 56.032 360.915 55.876 360.351 55.564C359.799 55.252 359.361 54.79 359.037 54.178C358.725 53.554 358.569 52.78 358.569 51.856C358.569 50.98 358.749 50.218 359.109 49.57C359.481 48.91 359.967 48.4 360.567 48.04C361.167 47.68 361.821 47.5 362.529 47.5C363.165 47.5 363.759 47.632 364.311 47.896C364.875 48.148 365.361 48.538 365.769 49.066C366.189 49.594 366.519 50.26 366.759 51.064C366.999 51.868 367.119 52.822 367.119 53.926C367.119 55.222 366.987 56.338 366.723 57.274C366.459 58.198 366.093 58.954 365.625 59.542C365.157 60.118 364.629 60.55 364.041 60.838C363.453 61.114 362.841 61.252 362.205 61.252Z" fill="#1DA637"/>
<path d="M354.907 78.0928L349.907 73.0928L344.907 78.0928L349.907 83.0928L354.907 78.0928Z" fill="url(#paint3_linear_1766_38907)"/>
<path d="M476.313 24.252C475.545 24.252 474.879 24.114 474.315 23.838C473.763 23.55 473.295 23.214 472.911 22.83L474.045 21.534C474.309 21.834 474.633 22.074 475.017 22.254C475.401 22.434 475.797 22.524 476.205 22.524C476.625 22.524 477.021 22.428 477.393 22.236C477.777 22.044 478.107 21.732 478.383 21.3C478.671 20.868 478.893 20.292 479.049 19.572C479.217 18.852 479.301 17.97 479.301 16.926C479.301 15.822 479.193 14.916 478.977 14.208C478.761 13.488 478.455 12.96 478.059 12.624C477.675 12.276 477.213 12.102 476.673 12.102C476.289 12.102 475.941 12.216 475.629 12.444C475.317 12.66 475.071 12.972 474.891 13.38C474.711 13.788 474.621 14.28 474.621 14.856C474.621 15.42 474.699 15.9 474.855 16.296C475.023 16.692 475.269 16.998 475.593 17.214C475.917 17.418 476.307 17.52 476.763 17.52C477.183 17.52 477.615 17.388 478.059 17.124C478.503 16.86 478.923 16.428 479.319 15.828L479.409 17.358C479.157 17.694 478.863 17.988 478.527 18.24C478.191 18.492 477.843 18.69 477.483 18.834C477.123 18.966 476.763 19.032 476.403 19.032C475.671 19.032 475.023 18.876 474.459 18.564C473.907 18.252 473.469 17.79 473.145 17.178C472.833 16.554 472.677 15.78 472.677 14.856C472.677 13.98 472.857 13.218 473.217 12.57C473.589 11.91 474.075 11.4 474.675 11.04C475.275 10.68 475.929 10.5 476.637 10.5C477.273 10.5 477.867 10.632 478.419 10.896C478.983 11.148 479.469 11.538 479.877 12.066C480.297 12.594 480.627 13.26 480.867 14.064C481.107 14.868 481.227 15.822 481.227 16.926C481.227 18.222 481.095 19.338 480.831 20.274C480.567 21.198 480.201 21.954 479.733 22.542C479.265 23.118 478.737 23.55 478.149 23.838C477.561 24.114 476.949 24.252 476.313 24.252ZM486.579 24.252C485.811 24.252 485.145 24.114 484.581 23.838C484.029 23.55 483.561 23.214 483.177 22.83L484.311 21.534C484.575 21.834 484.899 22.074 485.283 22.254C485.667 22.434 486.063 22.524 486.471 22.524C486.891 22.524 487.287 22.428 487.659 22.236C488.043 22.044 488.373 21.732 488.649 21.3C488.937 20.868 489.159 20.292 489.315 19.572C489.483 18.852 489.567 17.97 489.567 16.926C489.567 15.822 489.459 14.916 489.243 14.208C489.027 13.488 488.721 12.96 488.325 12.624C487.941 12.276 487.479 12.102 486.939 12.102C486.555 12.102 486.207 12.216 485.895 12.444C485.583 12.66 485.337 12.972 485.157 13.38C484.977 13.788 484.887 14.28 484.887 14.856C484.887 15.42 484.965 15.9 485.121 16.296C485.289 16.692 485.535 16.998 485.859 17.214C486.183 17.418 486.573 17.52 487.029 17.52C487.449 17.52 487.881 17.388 488.325 17.124C488.769 16.86 489.189 16.428 489.585 15.828L489.675 17.358C489.423 17.694 489.129 17.988 488.793 18.24C488.457 18.492 488.109 18.69 487.749 18.834C487.389 18.966 487.029 19.032 486.669 19.032C485.937 19.032 485.289 18.876 484.725 18.564C484.173 18.252 483.735 17.79 483.411 17.178C483.099 16.554 482.943 15.78 482.943 14.856C482.943 13.98 483.123 13.218 483.483 12.57C483.855 11.91 484.341 11.4 484.941 11.04C485.541 10.68 486.195 10.5 486.903 10.5C487.539 10.5 488.133 10.632 488.685 10.896C489.249 11.148 489.735 11.538 490.143 12.066C490.563 12.594 490.893 13.26 491.133 14.064C491.373 14.868 491.493 15.822 491.493 16.926C491.493 18.222 491.361 19.338 491.097 20.274C490.833 21.198 490.467 21.954 489.999 22.542C489.531 23.118 489.003 23.55 488.415 23.838C487.827 24.114 487.215 24.252 486.579 24.252ZM495.134 24.252C494.75 24.252 494.42 24.114 494.144 23.838C493.88 23.55 493.748 23.196 493.748 22.776C493.748 22.344 493.88 21.996 494.144 21.732C494.42 21.456 494.75 21.318 495.134 21.318C495.53 21.318 495.86 21.456 496.124 21.732C496.4 21.996 496.538 22.344 496.538 22.776C496.538 23.196 496.4 23.55 496.124 23.838C495.86 24.114 495.53 24.252 495.134 24.252ZM502.961 24.252C502.097 24.252 501.341 23.994 500.693 23.478C500.045 22.962 499.541 22.194 499.181 21.174C498.833 20.142 498.659 18.858 498.659 17.322C498.659 15.786 498.833 14.514 499.181 13.506C499.541 12.498 500.045 11.748 500.693 11.256C501.341 10.752 502.097 10.5 502.961 10.5C503.825 10.5 504.575 10.752 505.211 11.256C505.847 11.76 506.339 12.516 506.687 13.524C507.047 14.52 507.227 15.786 507.227 17.322C507.227 18.858 507.047 20.142 506.687 21.174C506.339 22.194 505.847 22.962 505.211 23.478C504.575 23.994 503.825 24.252 502.961 24.252ZM502.961 22.596C503.405 22.596 503.801 22.422 504.149 22.074C504.497 21.726 504.767 21.168 504.959 20.4C505.151 19.62 505.247 18.594 505.247 17.322C505.247 16.05 505.151 15.036 504.959 14.28C504.767 13.524 504.497 12.978 504.149 12.642C503.801 12.306 503.405 12.138 502.961 12.138C502.517 12.138 502.121 12.306 501.773 12.642C501.425 12.978 501.149 13.524 500.945 14.28C500.753 15.036 500.657 16.05 500.657 17.322C500.657 18.594 500.753 19.62 500.945 20.4C501.149 21.168 501.425 21.726 501.773 22.074C502.121 22.422 502.517 22.596 502.961 22.596Z" fill="#1DA637"/>
<path d="M494.907 41.0928L489.907 36.0928L484.907 41.0928L489.907 46.0928L494.907 41.0928Z" fill="url(#paint4_linear_1766_38907)"/>
<path d="M42 160C42 157.239 44.2386 155 47 155H93C95.7614 155 98 157.239 98 160V298H42V160Z" fill="url(#paint5_linear_1766_38907)"/>
<path d="M53.6553 176.224C53.0473 176.224 52.5033 176.149 52.0233 176C51.5433 175.851 51.122 175.653 50.7593 175.408C50.3966 175.163 50.0766 174.907 49.7993 174.64L50.6793 173.44C50.9033 173.664 51.1486 173.872 51.4153 174.064C51.682 174.245 51.9806 174.395 52.3113 174.512C52.6526 174.629 53.0313 174.688 53.4473 174.688C53.8846 174.688 54.2793 174.592 54.6313 174.4C54.9833 174.197 55.2606 173.909 55.4633 173.536C55.666 173.152 55.7673 172.699 55.7673 172.176C55.7673 171.408 55.5593 170.811 55.1433 170.384C54.738 169.957 54.1993 169.744 53.5273 169.744C53.154 169.744 52.834 169.797 52.5673 169.904C52.3006 170.011 51.9966 170.176 51.6553 170.4L50.7433 169.808L51.0953 164.208H57.0633V165.776H52.6953L52.4233 168.784C52.6793 168.656 52.9353 168.56 53.1913 168.496C53.4473 168.421 53.73 168.384 54.0393 168.384C54.7006 168.384 55.3033 168.517 55.8473 168.784C56.3913 169.051 56.8233 169.461 57.1433 170.016C57.4633 170.56 57.6233 171.264 57.6233 172.128C57.6233 172.992 57.4366 173.733 57.0633 174.352C56.69 174.96 56.1993 175.424 55.5913 175.744C54.994 176.064 54.3486 176.224 53.6553 176.224ZM59.7563 179.2L59.3403 178.16C59.895 177.925 60.327 177.611 60.6363 177.216C60.9456 176.832 61.095 176.4 61.0843 175.92L60.9563 174.448L61.7243 175.664C61.6176 175.781 61.495 175.867 61.3563 175.92C61.2176 175.963 61.0683 175.984 60.9083 175.984C60.5883 175.984 60.3003 175.883 60.0443 175.68C59.799 175.467 59.6763 175.173 59.6763 174.8C59.6763 174.437 59.799 174.149 60.0443 173.936C60.3003 173.723 60.6043 173.616 60.9563 173.616C61.415 173.616 61.767 173.792 62.0123 174.144C62.2576 174.496 62.3803 174.981 62.3803 175.6C62.3803 176.443 62.1456 177.173 61.6763 177.792C61.2176 178.421 60.5776 178.891 59.7563 179.2ZM64.6179 176V174.48H67.2099V166.288H65.0979V165.12C65.6526 165.024 66.1326 164.901 66.5379 164.752C66.9539 164.603 67.3326 164.421 67.6739 164.208H69.0659V174.48H71.3539V176H64.6179ZM76.6709 176.224C76.0522 176.224 75.5029 176.149 75.0229 176C74.5536 175.851 74.1376 175.653 73.7749 175.408C73.4122 175.152 73.0976 174.88 72.8309 174.592L73.7269 173.408C74.0789 173.749 74.4789 174.048 74.9269 174.304C75.3749 174.56 75.9029 174.688 76.5109 174.688C76.9589 174.688 77.3482 174.613 77.6789 174.464C78.0096 174.304 78.2656 174.08 78.4469 173.792C78.6389 173.504 78.7349 173.152 78.7349 172.736C78.7349 172.309 78.6282 171.936 78.4149 171.616C78.2122 171.285 77.8549 171.035 77.3429 170.864C76.8416 170.683 76.1482 170.592 75.2629 170.592V169.216C76.0416 169.216 76.6496 169.131 77.0869 168.96C77.5349 168.779 77.8549 168.533 78.0469 168.224C78.2496 167.915 78.3509 167.563 78.3509 167.168C78.3509 166.656 78.1909 166.251 77.8709 165.952C77.5509 165.643 77.1082 165.488 76.5429 165.488C76.0949 165.488 75.6736 165.589 75.2789 165.792C74.8949 165.984 74.5322 166.245 74.1909 166.576L73.2309 165.424C73.7002 164.997 74.2122 164.656 74.7669 164.4C75.3216 164.133 75.9349 164 76.6069 164C77.3109 164 77.9349 164.123 78.4789 164.368C79.0229 164.603 79.4496 164.944 79.7589 165.392C80.0682 165.84 80.2229 166.389 80.2229 167.04C80.2229 167.712 80.0362 168.283 79.6629 168.752C79.3002 169.221 78.8096 169.573 78.1909 169.808V169.872C78.6389 169.989 79.0442 170.181 79.4069 170.448C79.7802 170.704 80.0736 171.035 80.2869 171.44C80.5002 171.845 80.6069 172.309 80.6069 172.832C80.6069 173.536 80.4256 174.144 80.0629 174.656C79.7109 175.157 79.2362 175.547 78.6389 175.824C78.0416 176.091 77.3856 176.224 76.6709 176.224ZM82.2119 176V174.928C83.3746 173.893 84.3452 172.949 85.1239 172.096C85.9026 171.232 86.4839 170.432 86.8679 169.696C87.2626 168.96 87.4599 168.272 87.4599 167.632C87.4599 167.205 87.3852 166.832 87.2359 166.512C87.0972 166.181 86.8786 165.931 86.5799 165.76C86.2919 165.579 85.9239 165.488 85.4759 165.488C85.0172 165.488 84.5959 165.616 84.2119 165.872C83.8279 166.117 83.4759 166.421 83.1559 166.784L82.1159 165.76C82.6172 165.205 83.1452 164.773 83.6999 164.464C84.2652 164.155 84.9372 164 85.7159 164C86.4306 164 87.0546 164.149 87.5879 164.448C88.1212 164.736 88.5319 165.147 88.8199 165.68C89.1186 166.203 89.2679 166.821 89.2679 167.536C89.2679 168.293 89.0812 169.061 88.7079 169.84C88.3346 170.608 87.8226 171.387 87.1719 172.176C86.5212 172.955 85.7799 173.744 84.9479 174.544C85.2572 174.512 85.5826 174.485 85.9239 174.464C86.2759 174.432 86.5906 174.416 86.8679 174.416H89.8279V176H82.2119Z" fill="white"/>
<path d="M182 120C182 117.239 184.239 115 187 115H233C235.761 115 238 117.239 238 120V298H182V120Z" fill="url(#paint6_linear_1766_38907)"/>
<path d="M193.655 136.224C193.047 136.224 192.503 136.149 192.023 136C191.543 135.851 191.122 135.653 190.759 135.408C190.397 135.163 190.077 134.907 189.799 134.64L190.679 133.44C190.903 133.664 191.149 133.872 191.415 134.064C191.682 134.245 191.981 134.395 192.311 134.512C192.653 134.629 193.031 134.688 193.447 134.688C193.885 134.688 194.279 134.592 194.631 134.4C194.983 134.197 195.261 133.909 195.463 133.536C195.666 133.152 195.767 132.699 195.767 132.176C195.767 131.408 195.559 130.811 195.143 130.384C194.738 129.957 194.199 129.744 193.527 129.744C193.154 129.744 192.834 129.797 192.567 129.904C192.301 130.011 191.997 130.176 191.655 130.4L190.743 129.808L191.095 124.208H197.063V125.776H192.695L192.423 128.784C192.679 128.656 192.935 128.56 193.191 128.496C193.447 128.421 193.73 128.384 194.039 128.384C194.701 128.384 195.303 128.517 195.847 128.784C196.391 129.051 196.823 129.461 197.143 130.016C197.463 130.56 197.623 131.264 197.623 132.128C197.623 132.992 197.437 133.733 197.063 134.352C196.69 134.96 196.199 135.424 195.591 135.744C194.994 136.064 194.349 136.224 193.655 136.224ZM199.756 139.2L199.34 138.16C199.895 137.925 200.327 137.611 200.636 137.216C200.946 136.832 201.095 136.4 201.084 135.92L200.956 134.448L201.724 135.664C201.618 135.781 201.495 135.867 201.356 135.92C201.218 135.963 201.068 135.984 200.908 135.984C200.588 135.984 200.3 135.883 200.044 135.68C199.799 135.467 199.676 135.173 199.676 134.8C199.676 134.437 199.799 134.149 200.044 133.936C200.3 133.723 200.604 133.616 200.956 133.616C201.415 133.616 201.767 133.792 202.012 134.144C202.258 134.496 202.38 134.981 202.38 135.6C202.38 136.443 202.146 137.173 201.676 137.792C201.218 138.421 200.578 138.891 199.756 139.2ZM208.682 136V128.32C208.682 128 208.692 127.621 208.714 127.184C208.735 126.736 208.751 126.352 208.762 126.032H208.698C208.548 126.331 208.394 126.635 208.234 126.944C208.084 127.253 207.924 127.557 207.754 127.856L205.45 131.392H211.898V132.832H203.578V131.6L208.266 124.208H210.41V136H208.682ZM216.959 136.224C216.223 136.224 215.567 136.091 214.991 135.824C214.415 135.547 213.956 135.173 213.615 134.704C213.284 134.224 213.119 133.68 213.119 133.072C213.119 132.549 213.22 132.085 213.423 131.68C213.625 131.275 213.887 130.928 214.207 130.64C214.527 130.341 214.863 130.096 215.215 129.904V129.824C214.788 129.515 214.42 129.136 214.111 128.688C213.801 128.229 213.647 127.691 213.647 127.072C213.647 126.464 213.791 125.931 214.079 125.472C214.377 125.013 214.777 124.661 215.279 124.416C215.791 124.16 216.372 124.032 217.023 124.032C217.705 124.032 218.292 124.165 218.783 124.432C219.273 124.699 219.652 125.067 219.919 125.536C220.196 125.995 220.335 126.533 220.335 127.152C220.335 127.547 220.255 127.92 220.095 128.272C219.935 128.624 219.737 128.944 219.503 129.232C219.279 129.509 219.039 129.739 218.783 129.92V130C219.145 130.192 219.476 130.432 219.775 130.72C220.073 130.997 220.313 131.333 220.495 131.728C220.676 132.123 220.767 132.587 220.767 133.12C220.767 133.696 220.607 134.219 220.287 134.688C219.977 135.157 219.535 135.531 218.959 135.808C218.393 136.085 217.727 136.224 216.959 136.224ZM217.743 129.456C218.084 129.125 218.34 128.779 218.511 128.416C218.692 128.043 218.783 127.653 218.783 127.248C218.783 126.896 218.713 126.576 218.575 126.288C218.436 126 218.228 125.776 217.951 125.616C217.684 125.445 217.359 125.36 216.975 125.36C216.495 125.36 216.095 125.515 215.775 125.824C215.455 126.123 215.295 126.539 215.295 127.072C215.295 127.499 215.407 127.856 215.631 128.144C215.855 128.432 216.153 128.677 216.527 128.88C216.9 129.083 217.305 129.275 217.743 129.456ZM217.007 134.88C217.401 134.88 217.748 134.805 218.047 134.656C218.356 134.507 218.596 134.299 218.767 134.032C218.937 133.755 219.023 133.429 219.023 133.056C219.023 132.704 218.948 132.4 218.799 132.144C218.649 131.877 218.441 131.648 218.175 131.456C217.919 131.264 217.615 131.088 217.263 130.928C216.911 130.757 216.532 130.592 216.127 130.432C215.721 130.72 215.391 131.077 215.135 131.504C214.879 131.92 214.751 132.379 214.751 132.88C214.751 133.275 214.847 133.621 215.039 133.92C215.241 134.219 215.513 134.453 215.855 134.624C216.196 134.795 216.58 134.88 217.007 134.88ZM226.084 136.224C225.348 136.224 224.692 136.091 224.116 135.824C223.54 135.547 223.081 135.173 222.74 134.704C222.409 134.224 222.244 133.68 222.244 133.072C222.244 132.549 222.345 132.085 222.548 131.68C222.75 131.275 223.012 130.928 223.332 130.64C223.652 130.341 223.988 130.096 224.34 129.904V129.824C223.913 129.515 223.545 129.136 223.236 128.688C222.926 128.229 222.772 127.691 222.772 127.072C222.772 126.464 222.916 125.931 223.204 125.472C223.502 125.013 223.902 124.661 224.404 124.416C224.916 124.16 225.497 124.032 226.148 124.032C226.83 124.032 227.417 124.165 227.908 124.432C228.398 124.699 228.777 125.067 229.044 125.536C229.321 125.995 229.46 126.533 229.46 127.152C229.46 127.547 229.38 127.92 229.22 128.272C229.06 128.624 228.862 128.944 228.628 129.232C228.404 129.509 228.164 129.739 227.908 129.92V130C228.27 130.192 228.601 130.432 228.9 130.72C229.198 130.997 229.438 131.333 229.62 131.728C229.801 132.123 229.892 132.587 229.892 133.12C229.892 133.696 229.732 134.219 229.412 134.688C229.102 135.157 228.66 135.531 228.084 135.808C227.518 136.085 226.852 136.224 226.084 136.224ZM226.868 129.456C227.209 129.125 227.465 128.779 227.636 128.416C227.817 128.043 227.908 127.653 227.908 127.248C227.908 126.896 227.838 126.576 227.7 126.288C227.561 126 227.353 125.776 227.076 125.616C226.809 125.445 226.484 125.36 226.1 125.36C225.62 125.36 225.22 125.515 224.9 125.824C224.58 126.123 224.42 126.539 224.42 127.072C224.42 127.499 224.532 127.856 224.756 128.144C224.98 128.432 225.278 128.677 225.652 128.88C226.025 129.083 226.43 129.275 226.868 129.456ZM226.132 134.88C226.526 134.88 226.873 134.805 227.172 134.656C227.481 134.507 227.721 134.299 227.892 134.032C228.062 133.755 228.148 133.429 228.148 133.056C228.148 132.704 228.073 132.4 227.924 132.144C227.774 131.877 227.566 131.648 227.3 131.456C227.044 131.264 226.74 131.088 226.388 130.928C226.036 130.757 225.657 130.592 225.252 130.432C224.846 130.72 224.516 131.077 224.26 131.504C224.004 131.92 223.876 132.379 223.876 132.88C223.876 133.275 223.972 133.621 224.164 133.92C224.366 134.219 224.638 134.453 224.98 134.624C225.321 134.795 225.705 134.88 226.132 134.88Z" fill="white"/>
<path d="M322 88C322 85.2386 324.239 83 327 83H373C375.761 83 378 85.2386 378 88V298H322V88Z" fill="url(#paint7_linear_1766_38907)"/>
<path d="M333.655 104.224C333.047 104.224 332.503 104.149 332.023 104C331.543 103.851 331.122 103.653 330.759 103.408C330.397 103.163 330.077 102.907 329.799 102.64L330.679 101.44C330.903 101.664 331.149 101.872 331.415 102.064C331.682 102.245 331.981 102.395 332.311 102.512C332.653 102.629 333.031 102.688 333.447 102.688C333.885 102.688 334.279 102.592 334.631 102.4C334.983 102.197 335.261 101.909 335.463 101.536C335.666 101.152 335.767 100.699 335.767 100.176C335.767 99.408 335.559 98.8107 335.143 98.384C334.738 97.9573 334.199 97.744 333.527 97.744C333.154 97.744 332.834 97.7973 332.567 97.904C332.301 98.0107 331.997 98.176 331.655 98.4L330.743 97.808L331.095 92.208H337.063V93.776H332.695L332.423 96.784C332.679 96.656 332.935 96.56 333.191 96.496C333.447 96.4213 333.73 96.384 334.039 96.384C334.701 96.384 335.303 96.5173 335.847 96.784C336.391 97.0507 336.823 97.4613 337.143 98.016C337.463 98.56 337.623 99.264 337.623 100.128C337.623 100.992 337.437 101.733 337.063 102.352C336.69 102.96 336.199 103.424 335.591 103.744C334.994 104.064 334.349 104.224 333.655 104.224ZM339.756 107.2L339.34 106.16C339.895 105.925 340.327 105.611 340.636 105.216C340.946 104.832 341.095 104.4 341.084 103.92L340.956 102.448L341.724 103.664C341.618 103.781 341.495 103.867 341.356 103.92C341.218 103.963 341.068 103.984 340.908 103.984C340.588 103.984 340.3 103.883 340.044 103.68C339.799 103.467 339.676 103.173 339.676 102.8C339.676 102.437 339.799 102.149 340.044 101.936C340.3 101.723 340.604 101.616 340.956 101.616C341.415 101.616 341.767 101.792 342.012 102.144C342.258 102.496 342.38 102.981 342.38 103.6C342.38 104.443 342.146 105.173 341.676 105.792C341.218 106.421 340.578 106.891 339.756 107.2ZM346.346 104C346.399 102.923 346.49 101.936 346.618 101.04C346.746 100.133 346.932 99.28 347.178 98.48C347.423 97.6693 347.743 96.8853 348.138 96.128C348.532 95.36 349.012 94.576 349.578 93.776H344.058V92.208H351.626V93.344C350.943 94.1973 350.388 95.024 349.962 95.824C349.535 96.6133 349.204 97.4187 348.97 98.24C348.735 99.0613 348.564 99.9413 348.458 100.88C348.351 101.808 348.276 102.848 348.234 104H346.346ZM356.959 104.224C356.191 104.224 355.519 103.995 354.943 103.536C354.367 103.077 353.919 102.395 353.599 101.488C353.289 100.571 353.135 99.4293 353.135 98.064C353.135 96.6987 353.289 95.568 353.599 94.672C353.919 93.776 354.367 93.1093 354.943 92.672C355.519 92.224 356.191 92 356.959 92C357.727 92 358.393 92.224 358.959 92.672C359.524 93.12 359.961 93.792 360.271 94.688C360.591 95.5733 360.751 96.6987 360.751 98.064C360.751 99.4293 360.591 100.571 360.271 101.488C359.961 102.395 359.524 103.077 358.959 103.536C358.393 103.995 357.727 104.224 356.959 104.224ZM356.959 102.752C357.353 102.752 357.705 102.597 358.015 102.288C358.324 101.979 358.564 101.483 358.735 100.8C358.905 100.107 358.991 99.1947 358.991 98.064C358.991 96.9333 358.905 96.032 358.735 95.36C358.564 94.688 358.324 94.2027 358.015 93.904C357.705 93.6053 357.353 93.456 356.959 93.456C356.564 93.456 356.212 93.6053 355.903 93.904C355.593 94.2027 355.348 94.688 355.167 95.36C354.996 96.032 354.911 96.9333 354.911 98.064C354.911 99.1947 354.996 100.107 355.167 100.8C355.348 101.483 355.593 101.979 355.903 102.288C356.212 102.597 356.564 102.752 356.959 102.752ZM366.084 104.224C365.316 104.224 364.644 103.995 364.068 103.536C363.492 103.077 363.044 102.395 362.724 101.488C362.414 100.571 362.26 99.4293 362.26 98.064C362.26 96.6987 362.414 95.568 362.724 94.672C363.044 93.776 363.492 93.1093 364.068 92.672C364.644 92.224 365.316 92 366.084 92C366.852 92 367.518 92.224 368.084 92.672C368.649 93.12 369.086 93.792 369.396 94.688C369.716 95.5733 369.876 96.6987 369.876 98.064C369.876 99.4293 369.716 100.571 369.396 101.488C369.086 102.395 368.649 103.077 368.084 103.536C367.518 103.995 366.852 104.224 366.084 104.224ZM366.084 102.752C366.478 102.752 366.83 102.597 367.14 102.288C367.449 101.979 367.689 101.483 367.86 100.8C368.03 100.107 368.116 99.1947 368.116 98.064C368.116 96.9333 368.03 96.032 367.86 95.36C367.689 94.688 367.449 94.2027 367.14 93.904C366.83 93.6053 366.478 93.456 366.084 93.456C365.689 93.456 365.337 93.6053 365.028 93.904C364.718 94.2027 364.473 94.688 364.292 95.36C364.121 96.032 364.036 96.9333 364.036 98.064C364.036 99.1947 364.121 100.107 364.292 100.8C364.473 101.483 364.718 101.979 365.028 102.288C365.337 102.597 365.689 102.752 366.084 102.752Z" fill="white"/>
<path d="M462 62C462 59.2386 464.239 57 467 57H513C515.761 57 518 59.2386 518 62V298H462V62Z" fill="url(#paint8_linear_1766_38907)"/>
<path d="M473.655 78.224C473.047 78.224 472.503 78.1493 472.023 78C471.543 77.8507 471.122 77.6533 470.759 77.408C470.397 77.1627 470.077 76.9067 469.799 76.64L470.679 75.44C470.903 75.664 471.149 75.872 471.415 76.064C471.682 76.2453 471.981 76.3947 472.311 76.512C472.653 76.6293 473.031 76.688 473.447 76.688C473.885 76.688 474.279 76.592 474.631 76.4C474.983 76.1973 475.261 75.9093 475.463 75.536C475.666 75.152 475.767 74.6987 475.767 74.176C475.767 73.408 475.559 72.8107 475.143 72.384C474.738 71.9573 474.199 71.744 473.527 71.744C473.154 71.744 472.834 71.7973 472.567 71.904C472.301 72.0107 471.997 72.176 471.655 72.4L470.743 71.808L471.095 66.208H477.063V67.776H472.695L472.423 70.784C472.679 70.656 472.935 70.56 473.191 70.496C473.447 70.4213 473.73 70.384 474.039 70.384C474.701 70.384 475.303 70.5173 475.847 70.784C476.391 71.0507 476.823 71.4613 477.143 72.016C477.463 72.56 477.623 73.264 477.623 74.128C477.623 74.992 477.437 75.7333 477.063 76.352C476.69 76.96 476.199 77.424 475.591 77.744C474.994 78.064 474.349 78.224 473.655 78.224ZM479.756 81.2L479.34 80.16C479.895 79.9253 480.327 79.6107 480.636 79.216C480.946 78.832 481.095 78.4 481.084 77.92L480.956 76.448L481.724 77.664C481.618 77.7813 481.495 77.8667 481.356 77.92C481.218 77.9627 481.068 77.984 480.908 77.984C480.588 77.984 480.3 77.8827 480.044 77.68C479.799 77.4667 479.676 77.1733 479.676 76.8C479.676 76.4373 479.799 76.1493 480.044 75.936C480.3 75.7227 480.604 75.616 480.956 75.616C481.415 75.616 481.767 75.792 482.012 76.144C482.258 76.496 482.38 76.9813 482.38 77.6C482.38 78.4427 482.146 79.1733 481.676 79.792C481.218 80.4213 480.578 80.8907 479.756 81.2ZM487.834 78.224C487.098 78.224 486.442 78.0907 485.866 77.824C485.29 77.5467 484.831 77.1733 484.49 76.704C484.159 76.224 483.994 75.68 483.994 75.072C483.994 74.5493 484.095 74.0853 484.298 73.68C484.5 73.2747 484.762 72.928 485.082 72.64C485.402 72.3413 485.738 72.096 486.09 71.904V71.824C485.663 71.5147 485.295 71.136 484.986 70.688C484.676 70.2293 484.522 69.6907 484.522 69.072C484.522 68.464 484.666 67.9307 484.954 67.472C485.252 67.0133 485.652 66.6613 486.154 66.416C486.666 66.16 487.247 66.032 487.898 66.032C488.58 66.032 489.167 66.1653 489.658 66.432C490.148 66.6987 490.527 67.0667 490.794 67.536C491.071 67.9947 491.21 68.5333 491.21 69.152C491.21 69.5467 491.13 69.92 490.97 70.272C490.81 70.624 490.612 70.944 490.378 71.232C490.154 71.5093 489.914 71.7387 489.658 71.92V72C490.02 72.192 490.351 72.432 490.65 72.72C490.948 72.9973 491.188 73.3333 491.37 73.728C491.551 74.1227 491.642 74.5867 491.642 75.12C491.642 75.696 491.482 76.2187 491.162 76.688C490.852 77.1573 490.41 77.5307 489.834 77.808C489.268 78.0853 488.602 78.224 487.834 78.224ZM488.618 71.456C488.959 71.1253 489.215 70.7787 489.386 70.416C489.567 70.0427 489.658 69.6533 489.658 69.248C489.658 68.896 489.588 68.576 489.45 68.288C489.311 68 489.103 67.776 488.826 67.616C488.559 67.4453 488.234 67.36 487.85 67.36C487.37 67.36 486.97 67.5147 486.65 67.824C486.33 68.1227 486.17 68.5387 486.17 69.072C486.17 69.4987 486.282 69.856 486.506 70.144C486.73 70.432 487.028 70.6773 487.402 70.88C487.775 71.0827 488.18 71.2747 488.618 71.456ZM487.882 76.88C488.276 76.88 488.623 76.8053 488.922 76.656C489.231 76.5067 489.471 76.2987 489.642 76.032C489.812 75.7547 489.898 75.4293 489.898 75.056C489.898 74.704 489.823 74.4 489.674 74.144C489.524 73.8773 489.316 73.648 489.05 73.456C488.794 73.264 488.49 73.088 488.138 72.928C487.786 72.7573 487.407 72.592 487.002 72.432C486.596 72.72 486.266 73.0773 486.01 73.504C485.754 73.92 485.626 74.3787 485.626 74.88C485.626 75.2747 485.722 75.6213 485.914 75.92C486.116 76.2187 486.388 76.4533 486.73 76.624C487.071 76.7947 487.455 76.88 487.882 76.88ZM496.671 78.224C496.052 78.224 495.503 78.1493 495.023 78C494.553 77.8507 494.137 77.6533 493.775 77.408C493.412 77.152 493.097 76.88 492.831 76.592L493.727 75.408C494.079 75.7493 494.479 76.048 494.927 76.304C495.375 76.56 495.903 76.688 496.511 76.688C496.959 76.688 497.348 76.6133 497.679 76.464C498.009 76.304 498.265 76.08 498.447 75.792C498.639 75.504 498.735 75.152 498.735 74.736C498.735 74.3093 498.628 73.936 498.415 73.616C498.212 73.2853 497.855 73.0347 497.343 72.864C496.841 72.6827 496.148 72.592 495.263 72.592V71.216C496.041 71.216 496.649 71.1307 497.087 70.96C497.535 70.7787 497.855 70.5333 498.047 70.224C498.249 69.9147 498.351 69.5627 498.351 69.168C498.351 68.656 498.191 68.2507 497.871 67.952C497.551 67.6427 497.108 67.488 496.543 67.488C496.095 67.488 495.673 67.5893 495.279 67.792C494.895 67.984 494.532 68.2453 494.191 68.576L493.231 67.424C493.7 66.9973 494.212 66.656 494.767 66.4C495.321 66.1333 495.935 66 496.607 66C497.311 66 497.935 66.1227 498.479 66.368C499.023 66.6027 499.449 66.944 499.759 67.392C500.068 67.84 500.223 68.3893 500.223 69.04C500.223 69.712 500.036 70.2827 499.663 70.752C499.3 71.2213 498.809 71.5733 498.191 71.808V71.872C498.639 71.9893 499.044 72.1813 499.407 72.448C499.78 72.704 500.073 73.0347 500.287 73.44C500.5 73.8453 500.607 74.3093 500.607 74.832C500.607 75.536 500.425 76.144 500.063 76.656C499.711 77.1573 499.236 77.5467 498.639 77.824C498.041 78.0907 497.385 78.224 496.671 78.224ZM502.212 78V76.928C503.374 75.8933 504.345 74.9493 505.124 74.096C505.902 73.232 506.484 72.432 506.868 71.696C507.262 70.96 507.46 70.272 507.46 69.632C507.46 69.2053 507.385 68.832 507.236 68.512C507.097 68.1813 506.878 67.9307 506.58 67.76C506.292 67.5787 505.924 67.488 505.476 67.488C505.017 67.488 504.596 67.616 504.212 67.872C503.828 68.1173 503.476 68.4213 503.156 68.784L502.116 67.76C502.617 67.2053 503.145 66.7733 503.7 66.464C504.265 66.1547 504.937 66 505.716 66C506.43 66 507.054 66.1493 507.588 66.448C508.121 66.736 508.532 67.1467 508.82 67.68C509.118 68.2027 509.268 68.8213 509.268 69.536C509.268 70.2933 509.081 71.0613 508.708 71.84C508.334 72.608 507.822 73.3867 507.172 74.176C506.521 74.9547 505.78 75.744 504.948 76.544C505.257 76.512 505.582 76.4853 505.924 76.464C506.276 76.432 506.59 76.416 506.868 76.416H509.828V78H502.212Z" fill="white"/>
<path d="M87 365H67V371H87V365Z" fill="url(#paint9_linear_1766_38907)"/>
<path d="M100.984 367V370.664H104.888V367H100.984ZM99.8475 365.912H106.072V371.736H99.8475V365.912ZM96.3115 362.216H109.704V376.264H108.424V363.416H97.5435V376.264H96.3115V362.216ZM97.0155 374.264H109.16V375.4H97.0155V374.264ZM119.784 364.68H126.296V365.816H119.784V364.68ZM120.232 361.56L121.464 361.752C121.283 362.787 121.048 363.784 120.76 364.744C120.472 365.704 120.136 366.595 119.752 367.416C119.368 368.237 118.92 368.963 118.408 369.592C118.355 369.507 118.275 369.4 118.168 369.272C118.072 369.144 117.965 369.016 117.848 368.888C117.741 368.76 117.64 368.659 117.544 368.584C118.013 368.04 118.419 367.4 118.76 366.664C119.101 365.917 119.395 365.112 119.64 364.248C119.885 363.384 120.083 362.488 120.232 361.56ZM123.976 365.24L125.16 365.4C124.872 367.192 124.461 368.776 123.928 370.152C123.395 371.528 122.696 372.723 121.832 373.736C120.968 374.739 119.891 375.592 118.6 376.296C118.557 376.211 118.488 376.104 118.392 375.976C118.296 375.859 118.2 375.736 118.104 375.608C118.008 375.491 117.912 375.389 117.816 375.304C119.064 374.696 120.099 373.928 120.92 373C121.741 372.072 122.392 370.963 122.872 369.672C123.363 368.381 123.731 366.904 123.976 365.24ZM120.232 365.688C120.573 367.096 121.021 368.429 121.576 369.688C122.131 370.947 122.808 372.056 123.608 373.016C124.419 373.965 125.357 374.707 126.424 375.24C126.339 375.315 126.237 375.405 126.12 375.512C126.013 375.629 125.912 375.747 125.816 375.864C125.731 375.992 125.656 376.109 125.592 376.216C124.493 375.608 123.533 374.792 122.712 373.768C121.901 372.744 121.213 371.565 120.648 370.232C120.083 368.888 119.619 367.443 119.256 365.896L120.232 365.688ZM116.184 361.8H117.368V376.296H116.184V361.8ZM112.472 373.4L112.36 372.264L112.904 371.768L116.728 370.504C116.76 370.675 116.803 370.861 116.856 371.064C116.92 371.256 116.973 371.416 117.016 371.544C116.099 371.875 115.357 372.147 114.792 372.36C114.227 372.573 113.789 372.744 113.48 372.872C113.181 373 112.957 373.101 112.808 373.176C112.669 373.251 112.557 373.325 112.472 373.4ZM112.472 373.4C112.44 373.293 112.397 373.176 112.344 373.048C112.291 372.909 112.232 372.771 112.168 372.632C112.104 372.493 112.04 372.381 111.976 372.296C112.093 372.221 112.216 372.104 112.344 371.944C112.472 371.773 112.536 371.528 112.536 371.208V363.336H113.72V372.28C113.72 372.28 113.656 372.317 113.528 372.392C113.4 372.467 113.256 372.563 113.096 372.68C112.936 372.797 112.792 372.92 112.664 373.048C112.536 373.176 112.472 373.293 112.472 373.4ZM128.136 365.656H132.648V366.872H128.136V365.656ZM134.392 361.592H135.672V374.632C135.672 375.037 135.619 375.347 135.512 375.56C135.416 375.773 135.245 375.933 135 376.04C134.755 376.147 134.429 376.216 134.024 376.248C133.619 376.28 133.107 376.296 132.488 376.296C132.467 376.179 132.429 376.04 132.376 375.88C132.333 375.72 132.28 375.56 132.216 375.4C132.163 375.24 132.099 375.101 132.024 374.984C132.483 374.995 132.899 375 133.272 375C133.656 375.011 133.912 375.011 134.04 375C134.168 374.989 134.259 374.963 134.312 374.92C134.365 374.877 134.392 374.787 134.392 374.648V361.592ZM132.264 365.656H132.504L132.728 365.608L133.512 365.912C133.256 367.309 132.883 368.573 132.392 369.704C131.912 370.835 131.347 371.821 130.696 372.664C130.056 373.496 129.357 374.179 128.6 374.712C128.536 374.616 128.445 374.509 128.328 374.392C128.211 374.264 128.088 374.147 127.96 374.04C127.832 373.923 127.72 373.837 127.624 373.784C128.371 373.293 129.053 372.669 129.672 371.912C130.291 371.155 130.819 370.275 131.256 369.272C131.704 368.259 132.04 367.149 132.264 365.944V365.656ZM135.576 365.224C135.907 366.088 136.312 366.941 136.792 367.784C137.283 368.616 137.827 369.4 138.424 370.136C139.032 370.872 139.688 371.533 140.392 372.12C141.096 372.696 141.832 373.16 142.6 373.512C142.515 373.597 142.413 373.704 142.296 373.832C142.179 373.96 142.067 374.093 141.96 374.232C141.864 374.371 141.779 374.499 141.704 374.616C140.925 374.2 140.184 373.672 139.48 373.032C138.776 372.392 138.12 371.672 137.512 370.872C136.915 370.072 136.376 369.219 135.896 368.312C135.416 367.395 135 366.451 134.648 365.48L135.576 365.224ZM140.072 364.568L141.16 365.336C140.787 365.763 140.376 366.211 139.928 366.68C139.491 367.149 139.048 367.597 138.6 368.024C138.163 368.44 137.752 368.808 137.368 369.128L136.536 368.472C136.909 368.141 137.309 367.752 137.736 367.304C138.173 366.856 138.595 366.392 139 365.912C139.416 365.432 139.773 364.984 140.072 364.568ZM147 364.36V365.24H154.952V364.36H147ZM147 362.792V363.656H154.952V362.792H147ZM145.832 362.072H156.152V365.96H145.832V362.072ZM146.68 370.632V371.56H155.432V370.632H146.68ZM146.68 369.032V369.928H155.432V369.032H146.68ZM145.544 368.28H156.616V372.296H145.544V368.28ZM150.392 368.552H151.56V375.432H150.392V368.552ZM143.832 366.648H158.184V367.56H143.832V366.648ZM145.096 373.176H156.968V374.024H145.096V373.176ZM143.752 374.952H158.28V375.88H143.752V374.952ZM170.12 368.92C170.12 367.875 170.248 366.899 170.504 365.992C170.771 365.085 171.144 364.243 171.624 363.464C172.104 362.675 172.664 361.955 173.304 361.304L174.264 361.8C173.656 362.429 173.128 363.117 172.68 363.864C172.232 364.6 171.885 365.389 171.64 366.232C171.405 367.064 171.288 367.96 171.288 368.92C171.288 369.869 171.405 370.765 171.64 371.608C171.885 372.451 172.232 373.24 172.68 373.976C173.128 374.712 173.656 375.4 174.264 376.04L173.304 376.536C172.664 375.875 172.104 375.155 171.624 374.376C171.144 373.597 170.771 372.755 170.504 371.848C170.248 370.931 170.12 369.955 170.12 368.92ZM175.832 367.88H190.184V369.048H175.832V367.88ZM182.328 363.72H183.592V376.28H182.328V363.72ZM187.688 361.768L188.616 362.776C187.869 363 187.032 363.208 186.104 363.4C185.176 363.581 184.2 363.752 183.176 363.912C182.152 364.061 181.117 364.2 180.072 364.328C179.027 364.445 178.013 364.547 177.032 364.632C177.021 364.525 176.995 364.408 176.952 364.28C176.92 364.152 176.877 364.024 176.824 363.896C176.781 363.768 176.739 363.661 176.696 363.576C177.667 363.48 178.664 363.373 179.688 363.256C180.712 363.128 181.715 362.989 182.696 362.84C183.677 362.68 184.595 362.515 185.448 362.344C186.312 362.163 187.059 361.971 187.688 361.768ZM192.552 364.584H205.496V365.784H192.552V364.584ZM191.864 374.392H206.152V375.592H191.864V374.392ZM194.776 366.92L195.96 366.648C196.173 367.363 196.387 368.125 196.6 368.936C196.813 369.747 197.005 370.536 197.176 371.304C197.347 372.072 197.475 372.765 197.56 373.384L196.296 373.704C196.211 373.085 196.088 372.387 195.928 371.608C195.768 370.829 195.587 370.035 195.384 369.224C195.181 368.403 194.979 367.635 194.776 366.92ZM202.056 366.648L203.416 366.888C203.235 367.549 203.032 368.243 202.808 368.968C202.595 369.693 202.371 370.419 202.136 371.144C201.901 371.859 201.661 372.541 201.416 373.192C201.181 373.832 200.952 374.408 200.728 374.92L199.544 374.648C199.779 374.136 200.013 373.549 200.248 372.888C200.483 372.227 200.712 371.533 200.936 370.808C201.16 370.072 201.368 369.352 201.56 368.648C201.752 367.933 201.917 367.267 202.056 366.648ZM197.848 361.784L199.016 361.464C199.176 361.869 199.336 362.312 199.496 362.792C199.656 363.272 199.779 363.683 199.864 364.024L198.632 364.392C198.557 364.04 198.445 363.619 198.296 363.128C198.157 362.637 198.008 362.189 197.848 361.784ZM208.088 364.328H221.976V365.496H208.088V364.328ZM213.096 368.056H219.496V369.224H213.096V368.056ZM219.16 368.056H220.408C220.408 368.056 220.403 368.093 220.392 368.168C220.392 368.243 220.392 368.323 220.392 368.408C220.392 368.493 220.381 368.568 220.36 368.632C220.264 370.147 220.157 371.373 220.04 372.312C219.923 373.251 219.789 373.971 219.64 374.472C219.491 374.973 219.309 375.331 219.096 375.544C218.915 375.747 218.712 375.885 218.488 375.96C218.275 376.035 218.013 376.083 217.704 376.104C217.427 376.125 217.043 376.131 216.552 376.12C216.061 376.109 215.549 376.088 215.016 376.056C215.005 375.875 214.957 375.672 214.872 375.448C214.797 375.235 214.701 375.048 214.584 374.888C215.16 374.931 215.699 374.963 216.2 374.984C216.712 374.995 217.075 375 217.288 375C217.469 375 217.619 374.989 217.736 374.968C217.853 374.936 217.96 374.883 218.056 374.808C218.216 374.659 218.36 374.344 218.488 373.864C218.627 373.384 218.749 372.691 218.856 371.784C218.973 370.867 219.075 369.693 219.16 368.264V368.056ZM212.472 365.016H213.8C213.757 365.859 213.693 366.712 213.608 367.576C213.523 368.44 213.379 369.288 213.176 370.12C212.984 370.952 212.701 371.752 212.328 372.52C211.965 373.277 211.48 373.981 210.872 374.632C210.275 375.283 209.523 375.843 208.616 376.312C208.531 376.163 208.403 375.997 208.232 375.816C208.061 375.635 207.896 375.485 207.736 375.368C208.6 374.941 209.309 374.429 209.864 373.832C210.429 373.235 210.877 372.589 211.208 371.896C211.549 371.192 211.8 370.456 211.96 369.688C212.131 368.909 212.248 368.125 212.312 367.336C212.387 366.547 212.44 365.773 212.472 365.016ZM214.04 361.912L215.192 361.464C215.416 361.837 215.64 362.248 215.864 362.696C216.088 363.133 216.253 363.512 216.36 363.832L215.144 364.36C215.048 364.04 214.893 363.651 214.68 363.192C214.467 362.723 214.253 362.296 214.04 361.912ZM232.76 370.616L233.912 370.104C234.349 370.68 234.797 371.299 235.256 371.96C235.715 372.611 236.141 373.245 236.536 373.864C236.941 374.483 237.272 375.032 237.528 375.512L236.312 376.168C236.077 375.688 235.757 375.123 235.352 374.472C234.957 373.821 234.531 373.16 234.072 372.488C233.624 371.816 233.187 371.192 232.76 370.616ZM228.072 362.024L229.368 362.44C228.995 363.315 228.552 364.173 228.04 365.016C227.539 365.859 227 366.643 226.424 367.368C225.848 368.093 225.256 368.733 224.648 369.288C224.584 369.203 224.483 369.101 224.344 368.984C224.216 368.856 224.083 368.733 223.944 368.616C223.816 368.488 223.699 368.392 223.592 368.328C224.189 367.816 224.765 367.229 225.32 366.568C225.885 365.896 226.403 365.176 226.872 364.408C227.341 363.629 227.741 362.835 228.072 362.024ZM225.608 375.496C225.576 375.4 225.533 375.272 225.48 375.112C225.427 374.963 225.368 374.803 225.304 374.632C225.24 374.461 225.176 374.317 225.112 374.2C225.336 374.147 225.565 373.997 225.8 373.752C226.045 373.507 226.317 373.192 226.616 372.808C226.787 372.627 227.027 372.328 227.336 371.912C227.656 371.485 228.013 370.979 228.408 370.392C228.803 369.805 229.197 369.176 229.592 368.504C229.997 367.832 230.365 367.155 230.696 366.472L232.04 367.048C231.507 367.997 230.941 368.936 230.344 369.864C229.747 370.792 229.128 371.677 228.488 372.52C227.859 373.352 227.224 374.099 226.584 374.76V374.792C226.584 374.792 226.531 374.819 226.424 374.872C226.328 374.915 226.216 374.968 226.088 375.032C225.96 375.107 225.848 375.181 225.752 375.256C225.656 375.341 225.608 375.421 225.608 375.496ZM225.608 375.496L225.576 374.472L226.456 373.992L235.896 373.448C235.917 373.629 235.955 373.832 236.008 374.056C236.072 374.28 236.12 374.461 236.152 374.6C234.648 374.696 233.357 374.781 232.28 374.856C231.203 374.931 230.291 374.989 229.544 375.032C228.808 375.085 228.205 375.133 227.736 375.176C227.267 375.219 226.893 375.256 226.616 375.288C226.339 375.32 226.125 375.352 225.976 375.384C225.827 375.416 225.704 375.453 225.608 375.496ZM232.824 361.96H234.248C234.515 362.803 234.861 363.624 235.288 364.424C235.715 365.213 236.205 365.933 236.76 366.584C237.315 367.224 237.907 367.752 238.536 368.168C238.44 368.253 238.333 368.365 238.216 368.504C238.099 368.632 237.981 368.765 237.864 368.904C237.757 369.043 237.667 369.176 237.592 369.304C236.952 368.813 236.344 368.216 235.768 367.512C235.203 366.808 234.696 366.04 234.248 365.208C233.8 364.376 233.437 363.528 233.16 362.664H232.824V361.96ZM230.344 361.96H233.864V363.192H230.344V361.96ZM243.56 368.024C244.168 369.261 244.989 370.355 246.024 371.304C247.059 372.253 248.28 373.043 249.688 373.672C251.096 374.301 252.664 374.76 254.392 375.048C254.307 375.144 254.211 375.256 254.104 375.384C254.008 375.523 253.912 375.661 253.816 375.8C253.731 375.949 253.661 376.077 253.608 376.184C251.837 375.853 250.237 375.347 248.808 374.664C247.389 373.971 246.147 373.107 245.08 372.072C244.013 371.037 243.133 369.832 242.44 368.456L243.56 368.024ZM242.6 362.584H252.68V368.584H242.6V367.432H251.432V363.768H242.6V362.584ZM241.912 362.584H243.176V367.016C243.176 367.709 243.144 368.461 243.08 369.272C243.027 370.083 242.909 370.909 242.728 371.752C242.557 372.584 242.296 373.395 241.944 374.184C241.603 374.963 241.149 375.677 240.584 376.328C240.52 376.243 240.424 376.141 240.296 376.024C240.168 375.917 240.04 375.811 239.912 375.704C239.795 375.597 239.688 375.523 239.592 375.48C240.125 374.872 240.547 374.211 240.856 373.496C241.165 372.781 241.395 372.051 241.544 371.304C241.704 370.547 241.805 369.805 241.848 369.08C241.891 368.344 241.912 367.651 241.912 367V362.584ZM259.88 368.92C259.88 369.955 259.747 370.931 259.48 371.848C259.224 372.755 258.856 373.597 258.376 374.376C257.896 375.155 257.336 375.875 256.696 376.536L255.736 376.04C256.344 375.4 256.872 374.712 257.32 373.976C257.768 373.24 258.109 372.451 258.344 371.608C258.589 370.765 258.712 369.869 258.712 368.92C258.712 367.96 258.589 367.064 258.344 366.232C258.109 365.389 257.768 364.6 257.32 363.864C256.872 363.117 256.344 362.429 255.736 361.8L256.696 361.304C257.336 361.955 257.896 362.675 258.376 363.464C258.856 364.243 259.224 365.085 259.48 365.992C259.747 366.899 259.88 367.875 259.88 368.92Z" fill="#4F4F4F"/>
<path d="M340.907 368.093L335.907 363.093L330.907 368.093L335.907 373.093L340.907 368.093Z" fill="url(#paint10_linear_1766_38907)"/>
<path d="M356.376 370.664L357.336 371.096C356.92 371.459 356.44 371.805 355.896 372.136C355.352 372.456 354.765 372.755 354.136 373.032C353.507 373.299 352.867 373.539 352.216 373.752C351.565 373.955 350.925 374.125 350.296 374.264C350.221 374.125 350.115 373.965 349.976 373.784C349.848 373.603 349.725 373.459 349.608 373.352C350.227 373.245 350.856 373.101 351.496 372.92C352.147 372.739 352.771 372.536 353.368 372.312C353.976 372.077 354.541 371.821 355.064 371.544C355.587 371.256 356.024 370.963 356.376 370.664ZM357.768 370.552C358.269 371.779 359.08 372.776 360.2 373.544C361.32 374.312 362.701 374.829 364.344 375.096C364.227 375.213 364.104 375.368 363.976 375.56C363.848 375.752 363.741 375.923 363.656 376.072C362.515 375.848 361.496 375.501 360.6 375.032C359.704 374.563 358.936 373.976 358.296 373.272C357.667 372.568 357.155 371.747 356.76 370.808L357.768 370.552ZM362.456 371.416L363.336 372.056C362.835 372.408 362.269 372.749 361.64 373.08C361.021 373.411 360.445 373.688 359.912 373.912L359.16 373.32C359.512 373.149 359.891 372.957 360.296 372.744C360.701 372.52 361.096 372.296 361.48 372.072C361.864 371.837 362.189 371.619 362.456 371.416ZM349.88 370.296H364.136V371.288H349.88V370.296ZM359.144 362.376H360.232V367.64H359.144V362.376ZM362.184 361.72H363.272V368.36C363.272 368.669 363.229 368.904 363.144 369.064C363.069 369.213 362.92 369.331 362.696 369.416C362.461 369.501 362.152 369.555 361.768 369.576C361.395 369.587 360.931 369.592 360.376 369.592C360.355 369.443 360.307 369.277 360.232 369.096C360.157 368.904 360.077 368.739 359.992 368.6C360.429 368.611 360.824 368.616 361.176 368.616C361.528 368.616 361.763 368.611 361.88 368.6C361.997 368.6 362.077 368.584 362.12 368.552C362.163 368.509 362.184 368.44 362.184 368.344V361.72ZM353.448 361.56H354.504V369.688H353.448V361.56ZM356.472 366.248H357.48V368.216C357.48 368.44 357.453 368.616 357.4 368.744C357.347 368.861 357.235 368.952 357.064 369.016C356.904 369.091 356.701 369.133 356.456 369.144C356.211 369.155 355.907 369.16 355.544 369.16C355.523 369.043 355.48 368.915 355.416 368.776C355.352 368.637 355.288 368.509 355.224 368.392C355.491 368.403 355.72 368.408 355.912 368.408C356.104 368.408 356.232 368.403 356.296 368.392C356.413 368.392 356.472 368.333 356.472 368.216V366.248ZM350.648 366.248H356.92V367.064H351.608V369.256H350.648V366.248ZM349.816 364.536H357.896V365.4H349.816V364.536ZM351.48 362.696H357.336V363.544H351.144L351.48 362.696ZM351.336 361.608L352.28 361.832C352.109 362.323 351.901 362.808 351.656 363.288C351.421 363.768 351.176 364.179 350.92 364.52C350.824 364.445 350.685 364.365 350.504 364.28C350.323 364.184 350.168 364.104 350.04 364.04C350.328 363.72 350.579 363.347 350.792 362.92C351.016 362.483 351.197 362.045 351.336 361.608ZM352.808 376.296L352.776 375.448L353.272 375.048L357.896 374.056C357.875 374.205 357.859 374.365 357.848 374.536C357.837 374.707 357.837 374.851 357.848 374.968C356.792 375.224 355.944 375.427 355.304 375.576C354.664 375.725 354.179 375.843 353.848 375.928C353.517 376.024 353.277 376.093 353.128 376.136C352.989 376.189 352.883 376.243 352.808 376.296ZM352.824 376.28C352.803 376.195 352.765 376.093 352.712 375.976C352.669 375.869 352.616 375.757 352.552 375.64C352.499 375.533 352.445 375.448 352.392 375.384C352.52 375.309 352.664 375.181 352.824 375C352.984 374.819 353.064 374.541 353.064 374.168V372.648H354.184V375.016C354.184 375.016 354.136 375.043 354.04 375.096C353.955 375.149 353.843 375.224 353.704 375.32C353.576 375.416 353.443 375.523 353.304 375.64C353.165 375.757 353.048 375.869 352.952 375.976C352.867 376.083 352.824 376.184 352.824 376.28ZM356.184 369.288L357.304 368.984C357.464 369.229 357.619 369.507 357.768 369.816C357.917 370.115 358.024 370.371 358.088 370.584L356.92 370.952C356.856 370.739 356.755 370.477 356.616 370.168C356.477 369.848 356.333 369.555 356.184 369.288ZM375.192 369.064H376.376V375.512H375.192V369.064ZM371.176 374.808H380.296V375.88H371.176V374.808ZM372.056 371.608H379.624V372.648H372.056V371.608ZM373.352 363.416V366.424H378.28V363.416H373.352ZM372.232 362.376H379.432V367.464H372.232V362.376ZM378.92 368.056L379.72 368.952C379.059 369.133 378.291 369.288 377.416 369.416C376.541 369.544 375.635 369.651 374.696 369.736C373.768 369.821 372.872 369.885 372.008 369.928C371.997 369.8 371.96 369.645 371.896 369.464C371.843 369.283 371.784 369.128 371.72 369C372.349 368.957 372.995 368.909 373.656 368.856C374.328 368.792 374.989 368.723 375.64 368.648C376.291 368.573 376.899 368.488 377.464 368.392C378.029 368.285 378.515 368.173 378.92 368.056ZM368.392 362.888H369.576V376.248H368.392V362.888ZM365.784 366.072H371.576V367.192H365.784V366.072ZM368.456 366.504L369.208 366.824C369.048 367.389 368.851 367.976 368.616 368.584C368.381 369.181 368.125 369.779 367.848 370.376C367.581 370.963 367.293 371.517 366.984 372.04C366.685 372.552 366.381 372.989 366.072 373.352C366.008 373.192 365.912 373.005 365.784 372.792C365.667 372.579 365.555 372.397 365.448 372.248C365.747 371.928 366.04 371.544 366.328 371.096C366.616 370.648 366.893 370.163 367.16 369.64C367.437 369.117 367.688 368.589 367.912 368.056C368.136 367.512 368.317 366.995 368.456 366.504ZM370.824 361.784L371.672 362.712C371.171 362.915 370.6 363.101 369.96 363.272C369.331 363.432 368.675 363.576 367.992 363.704C367.32 363.821 366.669 363.923 366.04 364.008C366.019 363.88 365.971 363.731 365.896 363.56C365.821 363.379 365.752 363.224 365.688 363.096C366.296 362.989 366.915 362.872 367.544 362.744C368.184 362.616 368.792 362.472 369.368 362.312C369.944 362.141 370.429 361.965 370.824 361.784ZM369.512 368.12C369.619 368.216 369.773 368.371 369.976 368.584C370.189 368.787 370.419 369.011 370.664 369.256C370.909 369.491 371.128 369.715 371.32 369.928C371.523 370.141 371.667 370.296 371.752 370.392L371.032 371.336C370.936 371.176 370.797 370.973 370.616 370.728C370.445 370.483 370.253 370.221 370.04 369.944C369.827 369.667 369.624 369.411 369.432 369.176C369.24 368.941 369.08 368.755 368.952 368.616L369.512 368.12ZM382.136 365.656H386.648V366.872H382.136V365.656ZM388.392 361.592H389.672V374.632C389.672 375.037 389.619 375.347 389.512 375.56C389.416 375.773 389.245 375.933 389 376.04C388.755 376.147 388.429 376.216 388.024 376.248C387.619 376.28 387.107 376.296 386.488 376.296C386.467 376.179 386.429 376.04 386.376 375.88C386.333 375.72 386.28 375.56 386.216 375.4C386.163 375.24 386.099 375.101 386.024 374.984C386.483 374.995 386.899 375 387.272 375C387.656 375.011 387.912 375.011 388.04 375C388.168 374.989 388.259 374.963 388.312 374.92C388.365 374.877 388.392 374.787 388.392 374.648V361.592ZM386.264 365.656H386.504L386.728 365.608L387.512 365.912C387.256 367.309 386.883 368.573 386.392 369.704C385.912 370.835 385.347 371.821 384.696 372.664C384.056 373.496 383.357 374.179 382.6 374.712C382.536 374.616 382.445 374.509 382.328 374.392C382.211 374.264 382.088 374.147 381.96 374.04C381.832 373.923 381.72 373.837 381.624 373.784C382.371 373.293 383.053 372.669 383.672 371.912C384.291 371.155 384.819 370.275 385.256 369.272C385.704 368.259 386.04 367.149 386.264 365.944V365.656ZM389.576 365.224C389.907 366.088 390.312 366.941 390.792 367.784C391.283 368.616 391.827 369.4 392.424 370.136C393.032 370.872 393.688 371.533 394.392 372.12C395.096 372.696 395.832 373.16 396.6 373.512C396.515 373.597 396.413 373.704 396.296 373.832C396.179 373.96 396.067 374.093 395.96 374.232C395.864 374.371 395.779 374.499 395.704 374.616C394.925 374.2 394.184 373.672 393.48 373.032C392.776 372.392 392.12 371.672 391.512 370.872C390.915 370.072 390.376 369.219 389.896 368.312C389.416 367.395 389 366.451 388.648 365.48L389.576 365.224ZM394.072 364.568L395.16 365.336C394.787 365.763 394.376 366.211 393.928 366.68C393.491 367.149 393.048 367.597 392.6 368.024C392.163 368.44 391.752 368.808 391.368 369.128L390.536 368.472C390.909 368.141 391.309 367.752 391.736 367.304C392.173 366.856 392.595 366.392 393 365.912C393.416 365.432 393.773 364.984 394.072 364.568ZM402.984 367V370.664H406.888V367H402.984ZM401.848 365.912H408.072V371.736H401.848V365.912ZM398.312 362.216H411.704V376.264H410.424V363.416H399.544V376.264H398.312V362.216ZM399.016 374.264H411.16V375.4H399.016V374.264ZM421.784 364.68H428.296V365.816H421.784V364.68ZM422.232 361.56L423.464 361.752C423.283 362.787 423.048 363.784 422.76 364.744C422.472 365.704 422.136 366.595 421.752 367.416C421.368 368.237 420.92 368.963 420.408 369.592C420.355 369.507 420.275 369.4 420.168 369.272C420.072 369.144 419.965 369.016 419.848 368.888C419.741 368.76 419.64 368.659 419.544 368.584C420.013 368.04 420.419 367.4 420.76 366.664C421.101 365.917 421.395 365.112 421.64 364.248C421.885 363.384 422.083 362.488 422.232 361.56ZM425.976 365.24L427.16 365.4C426.872 367.192 426.461 368.776 425.928 370.152C425.395 371.528 424.696 372.723 423.832 373.736C422.968 374.739 421.891 375.592 420.6 376.296C420.557 376.211 420.488 376.104 420.392 375.976C420.296 375.859 420.2 375.736 420.104 375.608C420.008 375.491 419.912 375.389 419.816 375.304C421.064 374.696 422.099 373.928 422.92 373C423.741 372.072 424.392 370.963 424.872 369.672C425.363 368.381 425.731 366.904 425.976 365.24ZM422.232 365.688C422.573 367.096 423.021 368.429 423.576 369.688C424.131 370.947 424.808 372.056 425.608 373.016C426.419 373.965 427.357 374.707 428.424 375.24C428.339 375.315 428.237 375.405 428.12 375.512C428.013 375.629 427.912 375.747 427.816 375.864C427.731 375.992 427.656 376.109 427.592 376.216C426.493 375.608 425.533 374.792 424.712 373.768C423.901 372.744 423.213 371.565 422.648 370.232C422.083 368.888 421.619 367.443 421.256 365.896L422.232 365.688ZM418.184 361.8H419.368V376.296H418.184V361.8ZM414.472 373.4L414.36 372.264L414.904 371.768L418.728 370.504C418.76 370.675 418.803 370.861 418.856 371.064C418.92 371.256 418.973 371.416 419.016 371.544C418.099 371.875 417.357 372.147 416.792 372.36C416.227 372.573 415.789 372.744 415.48 372.872C415.181 373 414.957 373.101 414.808 373.176C414.669 373.251 414.557 373.325 414.472 373.4ZM414.472 373.4C414.44 373.293 414.397 373.176 414.344 373.048C414.291 372.909 414.232 372.771 414.168 372.632C414.104 372.493 414.04 372.381 413.976 372.296C414.093 372.221 414.216 372.104 414.344 371.944C414.472 371.773 414.536 371.528 414.536 371.208V363.336H415.72V372.28C415.72 372.28 415.656 372.317 415.528 372.392C415.4 372.467 415.256 372.563 415.096 372.68C414.936 372.797 414.792 372.92 414.664 373.048C414.536 373.176 414.472 373.293 414.472 373.4ZM436.36 370.456H437.64V376.28H436.36V370.456ZM429.816 371.768H444.2V372.888H429.816V371.768ZM430.136 363H444.056V364.104H430.136V363ZM442.264 364.712L443.272 365.32C442.909 365.693 442.509 366.061 442.072 366.424C441.645 366.776 441.245 367.085 440.872 367.352L439.992 366.76C440.237 366.589 440.499 366.387 440.776 366.152C441.053 365.907 441.32 365.661 441.576 365.416C441.843 365.16 442.072 364.925 442.264 364.712ZM437.816 367.912L438.712 367.544C438.957 367.811 439.197 368.109 439.432 368.44C439.677 368.771 439.901 369.091 440.104 369.4C440.307 369.709 440.467 369.992 440.584 370.248L439.624 370.68C439.528 370.424 439.379 370.136 439.176 369.816C438.984 369.496 438.771 369.171 438.536 368.84C438.301 368.499 438.061 368.189 437.816 367.912ZM429.896 369.608C430.397 369.395 431 369.128 431.704 368.808C432.419 368.477 433.139 368.136 433.864 367.784L434.104 368.696C433.485 369.027 432.861 369.357 432.232 369.688C431.613 370.019 431.037 370.312 430.504 370.568L429.896 369.608ZM430.36 365.416L431.176 364.76C431.464 364.931 431.763 365.123 432.072 365.336C432.392 365.539 432.685 365.752 432.952 365.976C433.229 366.189 433.459 366.387 433.64 366.568L432.776 367.304C432.616 367.123 432.397 366.92 432.12 366.696C431.853 366.472 431.565 366.248 431.256 366.024C430.947 365.789 430.648 365.587 430.36 365.416ZM439.832 368.472L440.68 367.832C441.043 368.035 441.427 368.269 441.832 368.536C442.237 368.792 442.621 369.053 442.984 369.32C443.347 369.576 443.645 369.811 443.88 370.024L442.984 370.744C442.76 370.531 442.472 370.291 442.12 370.024C441.768 369.757 441.389 369.491 440.984 369.224C440.589 368.947 440.205 368.696 439.832 368.472ZM434.408 367.272C434.387 367.197 434.355 367.096 434.312 366.968C434.28 366.84 434.243 366.712 434.2 366.584C434.157 366.456 434.115 366.344 434.072 366.248C434.179 366.227 434.291 366.173 434.408 366.088C434.536 365.992 434.659 365.875 434.776 365.736C434.872 365.64 435.016 365.469 435.208 365.224C435.411 364.968 435.629 364.669 435.864 364.328C436.099 363.987 436.301 363.64 436.472 363.288L437.512 363.704C437.171 364.28 436.781 364.829 436.344 365.352C435.917 365.864 435.501 366.307 435.096 366.68V366.712C435.096 366.712 435.059 366.728 434.984 366.76C434.92 366.792 434.84 366.84 434.744 366.904C434.659 366.957 434.579 367.016 434.504 367.08C434.44 367.144 434.408 367.208 434.408 367.272ZM434.408 367.272V366.44L435 366.088L438.12 365.912C438.067 366.051 438.019 366.216 437.976 366.408C437.944 366.6 437.917 366.755 437.896 366.872C437.203 366.915 436.643 366.957 436.216 367C435.789 367.043 435.453 367.08 435.208 367.112C434.973 367.133 434.797 367.16 434.68 367.192C434.563 367.213 434.472 367.24 434.408 367.272ZM434.088 370.456C434.077 370.381 434.051 370.285 434.008 370.168C433.965 370.04 433.923 369.912 433.88 369.784C433.837 369.645 433.795 369.523 433.752 369.416C433.933 369.384 434.131 369.299 434.344 369.16C434.557 369.021 434.797 368.84 435.064 368.616C435.213 368.499 435.432 368.307 435.72 368.04C436.008 367.773 436.333 367.459 436.696 367.096C437.059 366.733 437.432 366.339 437.816 365.912C438.2 365.475 438.557 365.037 438.888 364.6L439.864 365.16C439.075 366.077 438.248 366.947 437.384 367.768C436.52 368.589 435.661 369.299 434.808 369.896V369.928C434.808 369.928 434.771 369.944 434.696 369.976C434.632 370.008 434.552 370.056 434.456 370.12C434.36 370.173 434.275 370.232 434.2 370.296C434.125 370.349 434.088 370.403 434.088 370.456ZM434.088 370.456L434.072 369.64L434.68 369.272L439.576 368.856C439.565 369.005 439.555 369.171 439.544 369.352C439.544 369.533 439.549 369.683 439.56 369.8C438.419 369.907 437.507 369.997 436.824 370.072C436.141 370.136 435.613 370.189 435.24 370.232C434.877 370.275 434.616 370.317 434.456 370.36C434.296 370.392 434.173 370.424 434.088 370.456ZM435.96 361.752L437.128 361.448C437.331 361.704 437.528 361.997 437.72 362.328C437.923 362.648 438.077 362.931 438.184 363.176L436.968 363.56C436.872 363.315 436.723 363.021 436.52 362.68C436.328 362.339 436.141 362.029 435.96 361.752ZM456.12 368.92C456.12 367.875 456.248 366.899 456.504 365.992C456.771 365.085 457.144 364.243 457.624 363.464C458.104 362.675 458.664 361.955 459.304 361.304L460.264 361.8C459.656 362.429 459.128 363.117 458.68 363.864C458.232 364.6 457.885 365.389 457.64 366.232C457.405 367.064 457.288 367.96 457.288 368.92C457.288 369.869 457.405 370.765 457.64 371.608C457.885 372.451 458.232 373.24 458.68 373.976C459.128 374.712 459.656 375.4 460.264 376.04L459.304 376.536C458.664 375.875 458.104 375.155 457.624 374.376C457.144 373.597 456.771 372.755 456.504 371.848C456.248 370.931 456.12 369.955 456.12 368.92ZM464.92 370.248C464.376 370.248 463.901 370.104 463.496 369.816C463.101 369.517 462.792 369.091 462.568 368.536C462.355 367.981 462.248 367.309 462.248 366.52C462.248 365.731 462.355 365.064 462.568 364.52C462.792 363.965 463.101 363.544 463.496 363.256C463.901 362.968 464.376 362.824 464.92 362.824C465.72 362.824 466.365 363.144 466.856 363.784C467.347 364.424 467.592 365.336 467.592 366.52C467.592 367.309 467.48 367.981 467.256 368.536C467.032 369.091 466.717 369.517 466.312 369.816C465.917 370.104 465.453 370.248 464.92 370.248ZM464.92 369.336C465.389 369.336 465.763 369.101 466.04 368.632C466.328 368.152 466.472 367.448 466.472 366.52C466.472 365.571 466.328 364.872 466.04 364.424C465.763 363.965 465.389 363.736 464.92 363.736C464.451 363.736 464.072 363.965 463.784 364.424C463.496 364.872 463.352 365.571 463.352 366.52C463.352 367.448 463.496 368.152 463.784 368.632C464.072 369.101 464.451 369.336 464.92 369.336ZM473.096 375.016C472.573 375.016 472.109 374.872 471.704 374.584C471.299 374.285 470.984 373.859 470.76 373.304C470.547 372.749 470.44 372.077 470.44 371.288C470.44 370.499 470.547 369.832 470.76 369.288C470.984 368.744 471.299 368.328 471.704 368.04C472.109 367.741 472.573 367.592 473.096 367.592C473.64 367.592 474.109 367.741 474.504 368.04C474.909 368.328 475.219 368.744 475.432 369.288C475.656 369.832 475.768 370.499 475.768 371.288C475.768 372.077 475.656 372.749 475.432 373.304C475.219 373.859 474.909 374.285 474.504 374.584C474.109 374.872 473.64 375.016 473.096 375.016ZM473.096 374.104C473.576 374.104 473.955 373.869 474.232 373.4C474.52 372.931 474.664 372.227 474.664 371.288C474.664 370.349 474.52 369.651 474.232 369.192C473.955 368.733 473.576 368.504 473.096 368.504C472.637 368.504 472.264 368.733 471.976 369.192C471.688 369.651 471.544 370.349 471.544 371.288C471.544 372.227 471.688 372.931 471.976 373.4C472.264 373.869 472.637 374.104 473.096 374.104ZM465.256 375.016L471.752 362.824H472.728L466.232 375.016H465.256ZM481.88 368.92C481.88 369.955 481.747 370.931 481.48 371.848C481.224 372.755 480.856 373.597 480.376 374.376C479.896 375.155 479.336 375.875 478.696 376.536L477.736 376.04C478.344 375.4 478.872 374.712 479.32 373.976C479.768 373.24 480.109 372.451 480.344 371.608C480.589 370.765 480.712 369.869 480.712 368.92C480.712 367.96 480.589 367.064 480.344 366.232C480.109 365.389 479.768 364.6 479.32 363.864C478.872 363.117 478.344 362.429 477.736 361.8L478.696 361.304C479.336 361.955 479.896 362.675 480.376 363.464C480.856 364.243 481.224 365.085 481.48 365.992C481.747 366.899 481.88 367.875 481.88 368.92Z" fill="#4F4F4F"/>
<defs>
<linearGradient id="paint0_linear_1766_38907" x1="280" y1="41" x2="280" y2="329.495" gradientUnits="userSpaceOnUse">
<stop stop-color="#1DA637"/>
<stop offset="1" stop-color="white"/>
</linearGradient>
<linearGradient id="paint1_linear_1766_38907" x1="70.0998" y1="104.093" x2="70.1004" y2="114.478" gradientUnits="userSpaceOnUse">
<stop stop-color="#A6CC94"/>
<stop offset="1" stop-color="#1DA637"/>
</linearGradient>
<linearGradient id="paint2_linear_1766_38907" x1="210.1" y1="86.0926" x2="210.1" y2="96.4786" gradientUnits="userSpaceOnUse">
<stop stop-color="#A6CC94"/>
<stop offset="1" stop-color="#1DA637"/>
</linearGradient>
<linearGradient id="paint3_linear_1766_38907" x1="350.1" y1="73.0926" x2="350.1" y2="83.4785" gradientUnits="userSpaceOnUse">
<stop stop-color="#A6CC94"/>
<stop offset="1" stop-color="#1DA637"/>
</linearGradient>
<linearGradient id="paint4_linear_1766_38907" x1="490.1" y1="36.0926" x2="490.1" y2="46.4785" gradientUnits="userSpaceOnUse">
<stop stop-color="#A6CC94"/>
<stop offset="1" stop-color="#1DA637"/>
</linearGradient>
<linearGradient id="paint5_linear_1766_38907" x1="70" y1="155" x2="70" y2="298" gradientUnits="userSpaceOnUse">
<stop stop-color="#6FC7E2"/>
<stop offset="1" stop-color="#00AED4"/>
</linearGradient>
<linearGradient id="paint6_linear_1766_38907" x1="210" y1="115" x2="210" y2="298" gradientUnits="userSpaceOnUse">
<stop stop-color="#6FC7E2"/>
<stop offset="1" stop-color="#00AED4"/>
</linearGradient>
<linearGradient id="paint7_linear_1766_38907" x1="350" y1="83" x2="350" y2="298" gradientUnits="userSpaceOnUse">
<stop stop-color="#6FC7E2"/>
<stop offset="1" stop-color="#00AED4"/>
</linearGradient>
<linearGradient id="paint8_linear_1766_38907" x1="490" y1="57" x2="490" y2="298" gradientUnits="userSpaceOnUse">
<stop stop-color="#6FC7E2"/>
<stop offset="1" stop-color="#00AED4"/>
</linearGradient>
<linearGradient id="paint9_linear_1766_38907" x1="77" y1="365" x2="77" y2="371" gradientUnits="userSpaceOnUse">
<stop stop-color="#6FC7E2"/>
<stop offset="1" stop-color="#00AED4"/>
</linearGradient>
<linearGradient id="paint10_linear_1766_38907" x1="336.1" y1="363.093" x2="336.1" y2="373.478" gradientUnits="userSpaceOnUse">
<stop stop-color="#A6CC94"/>
<stop offset="1" stop-color="#1DA637"/>
</linearGradient>
</defs>
</svg>
