<svg width="440" height="374" viewBox="0 0 440 374" fill="none" xmlns="http://www.w3.org/2000/svg">
<g clip-path="url(#clip0_260_53930)">
<mask id="mask0_260_53930" style="mask-type:luminance" maskUnits="userSpaceOnUse" x="71" y="359" width="10" height="11">
<path d="M81 359.688H71V369.688H81V359.688Z" fill="white"/>
</mask>
<g mask="url(#mask0_260_53930)">
<path d="M80.9082 364.781L75.9082 359.781L70.9082 364.781L75.9082 369.781L80.9082 364.781Z" fill="url(#paint0_linear_260_53930)"/>
</g>
<path d="M92.551 360.694H96.487V361.83H92.551V360.694ZM98.775 358.246H100.023V372.95H98.775V358.246ZM91.095 364.166L91.911 363.446C92.3057 363.766 92.7163 364.123 93.143 364.518C93.5803 364.902 93.9857 365.291 94.359 365.686C94.743 366.07 95.0523 366.417 95.287 366.726L94.439 367.558C94.215 367.249 93.9163 366.897 93.543 366.502C93.1697 366.097 92.7697 365.691 92.343 365.286C91.9163 364.881 91.5003 364.507 91.095 364.166ZM92.695 358.23L93.8951 358.454C93.6711 359.467 93.399 360.443 93.079 361.382C92.759 362.321 92.3963 363.19 91.991 363.99C91.5857 364.79 91.1377 365.499 90.647 366.118C90.5723 366.043 90.471 365.958 90.343 365.862C90.2257 365.766 90.0977 365.67 89.959 365.574C89.831 365.478 89.719 365.403 89.623 365.35C90.1137 364.795 90.5563 364.145 90.951 363.398C91.3457 362.651 91.687 361.841 91.975 360.966C92.2737 360.081 92.5137 359.169 92.695 358.23ZM96.103 360.694H96.327L96.567 360.646L97.399 360.902C97.1323 363.014 96.6843 364.854 96.055 366.422C95.4257 367.979 94.6523 369.291 93.735 370.358C92.8283 371.425 91.8043 372.278 90.663 372.918C90.599 372.811 90.5083 372.694 90.391 372.566C90.2737 372.438 90.1457 372.315 90.007 372.198C89.879 372.081 89.7617 371.99 89.655 371.926C90.7857 371.339 91.7883 370.561 92.663 369.59C93.5483 368.619 94.2843 367.425 94.871 366.006C95.4577 364.587 95.8683 362.918 96.103 360.998V360.694ZM99.543 363.814L100.455 363.094C100.914 363.446 101.394 363.841 101.895 364.278C102.407 364.715 102.887 365.147 103.335 365.574C103.794 366.001 104.167 366.379 104.455 366.71L103.463 367.558C103.196 367.217 102.839 366.827 102.391 366.39C101.954 365.942 101.484 365.494 100.983 365.046C100.492 364.598 100.012 364.187 99.543 363.814ZM111.527 359.638H119.959V360.55H111.527V359.638ZM111.159 363.462H120.311V364.374H111.159V363.462ZM111.095 369.398H120.375V370.31H111.095V369.398ZM111.943 361.51H119.703V362.39H111.943V361.51ZM113.463 358.262H114.535V363.83H113.463V358.262ZM116.919 358.262H118.007V363.83H116.919V358.262ZM115.175 363.846H116.231V369.686H115.175V363.846ZM118.311 365.302H119.415V371.718C119.415 372.017 119.372 372.246 119.287 372.406C119.212 372.566 119.068 372.694 118.855 372.79C118.642 372.875 118.343 372.923 117.959 372.934C117.586 372.945 117.111 372.95 116.535 372.95C116.503 372.811 116.455 372.646 116.391 372.454C116.327 372.273 116.258 372.113 116.183 371.974C116.61 371.985 116.994 371.99 117.335 371.99C117.687 371.99 117.911 371.99 118.007 371.99C118.114 371.979 118.188 371.953 118.231 371.91C118.284 371.878 118.311 371.814 118.311 371.718V365.302ZM112.119 365.302H118.775V366.214H113.207V372.982H112.119V365.302ZM112.695 367.366H118.759V368.198H112.695V367.366ZM107.111 369.27L108.199 369.51C108.018 370.171 107.767 370.811 107.447 371.43C107.127 372.038 106.786 372.555 106.423 372.982C106.359 372.918 106.268 372.843 106.151 372.758C106.034 372.683 105.916 372.603 105.799 372.518C105.692 372.443 105.591 372.385 105.495 372.342C105.858 371.958 106.178 371.494 106.455 370.95C106.743 370.406 106.962 369.846 107.111 369.27ZM109.127 369.654L110.039 369.254C110.295 369.638 110.551 370.065 110.807 370.534C111.063 370.993 111.25 371.393 111.367 371.734L110.423 372.198C110.338 371.974 110.226 371.713 110.087 371.414C109.948 371.115 109.794 370.817 109.623 370.518C109.463 370.209 109.298 369.921 109.127 369.654ZM107.383 362.838V364.902H109.783V362.838H107.383ZM107.383 365.846V367.942H109.783V365.846H107.383ZM107.383 359.846V361.894H109.783V359.846H107.383ZM106.327 358.854H110.855V368.934H106.327V358.854ZM124.183 367.846H133.783V368.646H124.183V367.846ZM124.215 365.862H134.471V370.63H124.215V369.75H133.287V366.742H124.215V365.862ZM128.311 366.294H129.479V371.126C129.479 371.393 129.554 371.569 129.703 371.654C129.852 371.739 130.178 371.782 130.679 371.782C130.775 371.782 130.935 371.782 131.159 371.782C131.394 371.782 131.66 371.782 131.959 371.782C132.258 371.782 132.556 371.782 132.855 371.782C133.164 371.782 133.442 371.782 133.687 371.782C133.943 371.782 134.135 371.782 134.263 371.782C134.551 371.782 134.764 371.739 134.903 371.654C135.052 371.558 135.159 371.377 135.223 371.11C135.287 370.833 135.33 370.427 135.351 369.894C135.479 369.979 135.644 370.059 135.847 370.134C136.05 370.209 136.231 370.262 136.391 370.294C136.338 370.945 136.247 371.446 136.119 371.798C135.991 372.15 135.788 372.395 135.511 372.534C135.234 372.683 134.844 372.758 134.343 372.758C134.258 372.758 134.087 372.758 133.831 372.758C133.586 372.758 133.298 372.758 132.967 372.758C132.636 372.758 132.306 372.758 131.975 372.758C131.655 372.758 131.367 372.758 131.111 372.758C130.866 372.758 130.7 372.758 130.615 372.758C130.028 372.758 129.564 372.71 129.223 372.614C128.882 372.529 128.642 372.363 128.503 372.118C128.375 371.883 128.311 371.553 128.311 371.126V366.294ZM123.607 365.862H124.759V371.462H123.607V365.862ZM122.919 358.886H135.063V359.75H122.919V358.886ZM128.359 359.11H129.527V365.27H128.359V359.11ZM122.215 360.758H135.815V364.214H134.615V361.622H123.367V364.214H122.215V360.758ZM123.655 364.406C124.156 364.342 124.738 364.262 125.399 364.166C126.06 364.07 126.748 363.969 127.463 363.862L127.511 364.614C126.892 364.753 126.284 364.881 125.687 364.998C125.09 365.115 124.53 365.227 124.007 365.334L123.655 364.406ZM124.055 362.582L124.407 361.926C124.759 361.99 125.127 362.07 125.511 362.166C125.895 362.251 126.263 362.347 126.615 362.454C126.978 362.561 127.276 362.667 127.511 362.774L127.159 363.51C126.924 363.403 126.631 363.291 126.279 363.174C125.927 363.057 125.554 362.945 125.159 362.838C124.775 362.731 124.407 362.646 124.055 362.582ZM133.447 361.846L133.991 362.55C133.682 362.678 133.34 362.801 132.967 362.918C132.604 363.025 132.236 363.126 131.863 363.222C131.49 363.307 131.148 363.382 130.839 363.446L130.407 362.838C130.716 362.763 131.058 362.667 131.431 362.55C131.804 362.433 132.167 362.31 132.519 362.182C132.882 362.054 133.191 361.942 133.447 361.846ZM130.199 364.502L130.487 363.766C130.903 363.809 131.34 363.873 131.799 363.958C132.268 364.043 132.716 364.139 133.143 364.246C133.58 364.353 133.943 364.454 134.231 364.55L133.975 365.382C133.676 365.275 133.308 365.169 132.871 365.062C132.444 364.945 131.996 364.838 131.527 364.742C131.068 364.635 130.626 364.555 130.199 364.502ZM138.327 361.734H150.743V362.966H138.327V361.734ZM150.279 361.734H151.511C151.511 361.734 151.511 361.777 151.511 361.862C151.511 361.947 151.506 362.038 151.495 362.134C151.495 362.23 151.49 362.31 151.479 362.374C151.394 364.027 151.303 365.435 151.207 366.598C151.122 367.761 151.02 368.721 150.903 369.478C150.796 370.225 150.674 370.817 150.535 371.254C150.407 371.681 150.252 371.99 150.071 372.182C149.879 372.417 149.676 372.577 149.463 372.662C149.26 372.747 149.004 372.806 148.695 372.838C148.428 372.859 148.055 372.865 147.575 372.854C147.106 372.843 146.626 372.827 146.135 372.806C146.124 372.625 146.082 372.417 146.007 372.182C145.943 371.947 145.847 371.745 145.719 371.574C146.274 371.617 146.78 371.649 147.239 371.67C147.708 371.681 148.044 371.686 148.247 371.686C148.418 371.686 148.556 371.67 148.663 371.638C148.78 371.606 148.887 371.537 148.983 371.43C149.132 371.291 149.266 371.019 149.383 370.614C149.511 370.198 149.623 369.622 149.719 368.886C149.826 368.139 149.922 367.201 150.007 366.07C150.103 364.939 150.194 363.579 150.279 361.99V361.734ZM143.559 358.278H144.807V361.046C144.807 361.782 144.775 362.561 144.711 363.382C144.647 364.193 144.508 365.025 144.295 365.878C144.082 366.721 143.756 367.563 143.319 368.406C142.882 369.249 142.295 370.065 141.559 370.854C140.823 371.633 139.895 372.358 138.775 373.03C138.711 372.923 138.626 372.811 138.519 372.694C138.412 372.577 138.3 372.459 138.183 372.342C138.066 372.235 137.954 372.15 137.847 372.086C138.914 371.446 139.794 370.763 140.487 370.038C141.191 369.313 141.746 368.566 142.151 367.798C142.567 367.019 142.871 366.241 143.063 365.462C143.266 364.683 143.399 363.921 143.463 363.174C143.527 362.427 143.559 361.718 143.559 361.046V358.278Z" fill="#4F4F4F"/>
<mask id="mask1_260_53930" style="mask-type:luminance" maskUnits="userSpaceOnUse" x="203" y="359" width="10" height="11">
<path d="M213 359.688H203V369.688H213V359.688Z" fill="white"/>
</mask>
<g mask="url(#mask1_260_53930)">
<path d="M212.906 364.781L207.906 359.781L202.906 364.781L207.906 369.781L212.906 364.781Z" fill="url(#paint1_linear_260_53930)"/>
</g>
<path d="M229.672 364.998C230.195 366.673 231.021 368.107 232.152 369.302C233.283 370.497 234.717 371.345 236.456 371.846C236.371 371.931 236.275 372.033 236.168 372.15C236.061 372.278 235.96 372.411 235.864 372.55C235.779 372.689 235.704 372.811 235.64 372.918C234.445 372.523 233.389 371.969 232.472 371.254C231.565 370.539 230.787 369.681 230.136 368.678C229.496 367.675 228.973 366.545 228.568 365.286L229.672 364.998ZM222.632 359.478H235.304V360.694H222.632V359.478ZM222.056 364.406H235.992V365.622H222.056V364.406ZM228.264 359.894H229.528V362.598C229.528 363.259 229.485 363.958 229.4 364.694C229.315 365.419 229.144 366.155 228.888 366.902C228.632 367.649 228.243 368.385 227.72 369.11C227.208 369.825 226.52 370.507 225.656 371.158C224.803 371.809 223.736 372.401 222.456 372.934C222.403 372.838 222.328 372.726 222.232 372.598C222.147 372.47 222.051 372.342 221.944 372.214C221.848 372.097 221.757 372.001 221.672 371.926C222.877 371.435 223.88 370.891 224.68 370.294C225.491 369.697 226.131 369.073 226.6 368.422C227.08 367.771 227.437 367.11 227.672 366.438C227.917 365.766 228.077 365.105 228.152 364.454C228.227 363.793 228.264 363.174 228.264 362.598V359.894ZM245.016 361.638H252.2V362.79H245.016V361.638ZM240.056 361.654L240.648 360.998C240.979 361.222 241.32 361.478 241.672 361.766C242.035 362.043 242.371 362.321 242.68 362.598C243 362.875 243.261 363.131 243.464 363.366L242.84 364.118C242.648 363.894 242.397 363.638 242.088 363.35C241.779 363.051 241.448 362.753 241.096 362.454C240.744 362.155 240.397 361.889 240.056 361.654ZM249.24 359.11L250.12 358.598C250.44 358.918 250.765 359.275 251.096 359.67C251.427 360.065 251.683 360.417 251.864 360.726L250.936 361.302C250.776 360.993 250.531 360.635 250.2 360.23C249.88 359.814 249.56 359.441 249.24 359.11ZM241.016 358.102L242.152 358.438C241.885 359.142 241.555 359.851 241.16 360.566C240.776 361.27 240.333 361.947 239.832 362.598C239.341 363.238 238.808 363.803 238.232 364.294C238.189 364.209 238.136 364.107 238.072 363.99C238.019 363.862 237.955 363.739 237.88 363.622C237.816 363.494 237.752 363.387 237.688 363.302C238.189 362.875 238.653 362.369 239.08 361.782C239.517 361.195 239.901 360.587 240.232 359.958C240.563 359.318 240.824 358.699 241.016 358.102ZM244.088 359.67H244.328L244.552 359.638L245.272 359.926C244.952 361.494 244.472 362.859 243.832 364.022C243.203 365.185 242.451 366.166 241.576 366.966C240.712 367.755 239.768 368.39 238.744 368.87C238.691 368.774 238.616 368.667 238.52 368.55C238.424 368.433 238.323 368.321 238.216 368.214C238.109 368.097 238.008 368.006 237.912 367.942C238.925 367.505 239.843 366.929 240.664 366.214C241.496 365.499 242.205 364.619 242.792 363.574C243.389 362.529 243.821 361.313 244.088 359.926V359.67ZM241.192 359.67H244.52V360.662H240.584L241.192 359.67ZM247.672 358.438H248.808V360.198C248.808 360.849 248.76 361.553 248.664 362.31C248.579 363.057 248.387 363.825 248.088 364.614C247.789 365.403 247.347 366.177 246.76 366.934C246.173 367.691 245.389 368.401 244.408 369.062C244.301 368.945 244.157 368.811 243.976 368.662C243.805 368.513 243.645 368.39 243.496 368.294C244.445 367.654 245.197 366.982 245.752 366.278C246.307 365.563 246.723 364.849 247 364.134C247.277 363.409 247.459 362.71 247.544 362.038C247.629 361.366 247.672 360.753 247.672 360.198V358.438ZM242.52 369.878L243.624 369.766C243.731 370.235 243.821 370.747 243.896 371.302C243.971 371.846 244.013 372.299 244.024 372.662L242.84 372.838C242.84 372.582 242.824 372.283 242.792 371.942C242.771 371.611 242.733 371.265 242.68 370.902C242.637 370.539 242.584 370.198 242.52 369.878ZM245.816 369.846L246.92 369.638C247.069 369.947 247.213 370.283 247.352 370.646C247.491 370.998 247.613 371.339 247.72 371.67C247.827 372.001 247.907 372.294 247.96 372.55L246.776 372.806C246.701 372.422 246.573 371.953 246.392 371.398C246.221 370.843 246.029 370.326 245.816 369.846ZM249.128 369.766L250.184 369.318C250.451 369.638 250.723 369.99 251 370.374C251.277 370.747 251.533 371.121 251.768 371.494C252.013 371.867 252.205 372.193 252.344 372.47L251.224 372.998C251.096 372.71 250.915 372.379 250.68 372.006C250.456 371.633 250.205 371.249 249.928 370.854C249.661 370.459 249.395 370.097 249.128 369.766ZM239.752 369.43L240.856 369.734C240.579 370.278 240.253 370.849 239.88 371.446C239.507 372.043 239.139 372.55 238.776 372.966L237.656 372.518C237.901 372.262 238.152 371.963 238.408 371.622C238.664 371.281 238.904 370.923 239.128 370.55C239.363 370.166 239.571 369.793 239.752 369.43ZM237.96 364.918C238.397 364.822 238.904 364.705 239.48 364.566C240.056 364.417 240.659 364.262 241.288 364.102L241.416 364.886C240.851 365.057 240.301 365.227 239.768 365.398C239.245 365.569 238.744 365.723 238.264 365.862L237.96 364.918ZM247.816 362.822L248.808 362.374C249.149 362.843 249.496 363.345 249.848 363.878C250.2 364.401 250.536 364.929 250.856 365.462C251.187 365.995 251.48 366.507 251.736 366.998C251.992 367.489 252.2 367.931 252.36 368.326L251.288 368.854C251.128 368.459 250.92 368.017 250.664 367.526C250.419 367.025 250.136 366.502 249.816 365.958C249.507 365.414 249.181 364.875 248.84 364.342C248.499 363.798 248.157 363.291 247.816 362.822ZM256.888 359.734H267.752V360.678H256.888V359.734ZM256.952 361.686H266.536V362.63H256.952V361.686ZM255.304 363.67H264.84V364.63H255.304V363.67ZM254.264 367.782H263.928V368.742H254.264V367.782ZM257.24 358.23L258.424 358.566C258.125 359.259 257.768 359.931 257.352 360.582C256.947 361.233 256.504 361.835 256.024 362.39C255.544 362.934 255.048 363.414 254.536 363.83C254.483 363.755 254.397 363.659 254.28 363.542C254.173 363.425 254.067 363.307 253.96 363.19C253.853 363.073 253.752 362.977 253.656 362.902C254.403 362.347 255.091 361.659 255.72 360.838C256.36 360.017 256.867 359.147 257.24 358.23ZM264.504 363.67H265.704C265.693 364.918 265.699 366.043 265.72 367.046C265.752 368.038 265.816 368.886 265.912 369.59C266.008 370.294 266.147 370.838 266.328 371.222C266.52 371.595 266.776 371.782 267.096 371.782C267.267 371.782 267.379 371.563 267.432 371.126C267.485 370.689 267.523 370.123 267.544 369.43C267.651 369.569 267.784 369.707 267.944 369.846C268.104 369.974 268.248 370.075 268.376 370.15C268.344 370.843 268.28 371.393 268.184 371.798C268.099 372.214 267.965 372.507 267.784 372.678C267.613 372.859 267.357 372.95 267.016 372.95C266.429 372.95 265.965 372.737 265.624 372.31C265.293 371.894 265.048 371.286 264.888 370.486C264.728 369.675 264.621 368.699 264.568 367.558C264.525 366.406 264.504 365.11 264.504 363.67ZM255.352 365.526L256.264 365.142C256.541 365.451 256.797 365.793 257.032 366.166C257.277 366.539 257.453 366.87 257.56 367.158L256.584 367.574C256.499 367.297 256.339 366.966 256.104 366.582C255.869 366.187 255.619 365.835 255.352 365.526ZM258.584 364.982H259.72V372.95H258.584V364.982ZM262.056 365.158L263.128 365.558C262.84 365.931 262.541 366.315 262.232 366.71C261.923 367.094 261.635 367.425 261.368 367.702L260.584 367.35C260.755 367.147 260.931 366.918 261.112 366.662C261.293 366.406 261.469 366.145 261.64 365.878C261.811 365.611 261.949 365.371 262.056 365.158ZM257.224 369.238L258.136 369.606C257.88 370.022 257.571 370.443 257.208 370.87C256.845 371.286 256.451 371.67 256.024 372.022C255.608 372.374 255.197 372.662 254.792 372.886C254.707 372.758 254.589 372.609 254.44 372.438C254.291 372.267 254.152 372.129 254.024 372.022C254.419 371.841 254.813 371.601 255.208 371.302C255.613 371.003 255.992 370.678 256.344 370.326C256.707 369.974 257 369.611 257.224 369.238ZM260.376 369.91L261.08 369.254C261.443 369.51 261.816 369.793 262.2 370.102C262.584 370.411 262.941 370.721 263.272 371.03C263.613 371.329 263.891 371.601 264.104 371.846L263.352 372.598C263.139 372.342 262.867 372.059 262.536 371.75C262.205 371.441 261.848 371.126 261.464 370.806C261.091 370.475 260.728 370.177 260.376 369.91Z" fill="#4F4F4F"/>
<mask id="mask2_260_53930" style="mask-type:luminance" maskUnits="userSpaceOnUse" x="319" y="359" width="11" height="11">
<path d="M329.002 359.688H319.002V369.688H329.002V359.688Z" fill="white"/>
</mask>
<g mask="url(#mask2_260_53930)">
<path d="M328.908 364.781L323.908 359.781L318.908 364.781L323.908 369.781L328.908 364.781Z" fill="url(#paint2_linear_260_53930)"/>
</g>
<path d="M340.311 361.894H348.071V362.87H340.311V361.894ZM340.343 368.566H349.479V369.622H340.343V368.566ZM338.407 364.006H342.647V364.998H338.407V364.006ZM344.391 364.086H345.559V367.014C345.559 367.291 345.522 367.505 345.447 367.654C345.372 367.803 345.228 367.915 345.015 367.99C344.812 368.065 344.546 368.113 344.215 368.134C343.884 368.145 343.474 368.15 342.983 368.15C342.951 368.001 342.898 367.841 342.823 367.67C342.759 367.499 342.684 367.345 342.599 367.206C342.972 367.217 343.298 367.222 343.575 367.222C343.863 367.222 344.055 367.222 344.151 367.222C344.247 367.211 344.311 367.19 344.343 367.158C344.375 367.126 344.391 367.067 344.391 366.982V364.086ZM339.815 370.054L340.839 370.566C340.583 370.961 340.284 371.393 339.943 371.862C339.612 372.342 339.255 372.753 338.871 373.094L337.831 372.486C338.226 372.177 338.599 371.793 338.951 371.334C339.303 370.875 339.591 370.449 339.815 370.054ZM342.247 370.486L343.367 370.326C343.506 370.699 343.628 371.11 343.735 371.558C343.842 372.006 343.906 372.39 343.927 372.71L342.743 372.902C342.732 372.582 342.679 372.198 342.583 371.75C342.498 371.302 342.386 370.881 342.247 370.486ZM345.703 370.47L346.727 370.15C346.983 370.513 347.223 370.913 347.447 371.35C347.671 371.787 347.826 372.171 347.911 372.502L346.823 372.87C346.738 372.55 346.588 372.161 346.375 371.702C346.172 371.254 345.948 370.843 345.703 370.47ZM348.839 370.486L349.815 369.99C350.114 370.225 350.412 370.486 350.711 370.774C351.01 371.051 351.287 371.334 351.543 371.622C351.81 371.91 352.023 372.177 352.183 372.422L351.143 372.966C350.994 372.731 350.791 372.465 350.535 372.166C350.29 371.878 350.018 371.59 349.719 371.302C349.431 371.003 349.138 370.731 348.839 370.486ZM342.423 364.006H342.631L342.839 363.958L343.575 364.262C343.266 365.041 342.839 365.729 342.295 366.326C341.762 366.923 341.154 367.43 340.471 367.846C339.799 368.262 339.1 368.598 338.375 368.854C338.311 368.726 338.215 368.566 338.087 368.374C337.959 368.182 337.836 368.033 337.719 367.926C338.38 367.734 339.02 367.457 339.639 367.094C340.268 366.731 340.828 366.305 341.319 365.814C341.81 365.313 342.178 364.763 342.423 364.166V364.006ZM347.799 361.894H348.087L348.327 361.83L349.079 362.454C348.716 362.753 348.306 363.046 347.847 363.334C347.399 363.622 346.93 363.889 346.439 364.134C345.959 364.379 345.484 364.587 345.015 364.758C344.94 364.662 344.839 364.545 344.711 364.406C344.583 364.267 344.476 364.161 344.391 364.086C344.807 363.926 345.228 363.734 345.655 363.51C346.092 363.286 346.498 363.057 346.871 362.822C347.244 362.577 347.554 362.347 347.799 362.134V361.894ZM345.863 364.134C346.258 364.699 346.78 365.211 347.431 365.67C348.082 366.129 348.812 366.523 349.623 366.854C350.434 367.185 351.271 367.441 352.135 367.622C352.05 367.697 351.954 367.793 351.847 367.91C351.751 368.027 351.66 368.15 351.575 368.278C351.49 368.406 351.42 368.523 351.367 368.63C350.492 368.406 349.644 368.097 348.823 367.702C348.012 367.307 347.271 366.838 346.599 366.294C345.938 365.739 345.388 365.131 344.951 364.47L345.863 364.134ZM349.751 363.718L350.711 364.358C350.284 364.721 349.815 365.078 349.303 365.43C348.802 365.771 348.338 366.065 347.911 366.31L347.143 365.718C347.42 365.547 347.719 365.345 348.039 365.11C348.359 364.875 348.668 364.635 348.967 364.39C349.276 364.145 349.538 363.921 349.751 363.718ZM337.879 359.366H344.503V360.406H337.879V359.366ZM341.255 358.246H342.391V361.462H341.255V358.246ZM347.751 358.246H348.871V361.462H347.751V358.246ZM345.415 359.366H352.055V360.406H345.415V359.366ZM356.887 359.734H367.751V360.678H356.887V359.734ZM356.951 361.686H366.535V362.63H356.951V361.686ZM355.303 363.67H364.839V364.63H355.303V363.67ZM354.263 367.782H363.927V368.742H354.263V367.782ZM357.239 358.23L358.423 358.566C358.124 359.259 357.767 359.931 357.351 360.582C356.946 361.233 356.503 361.835 356.023 362.39C355.543 362.934 355.047 363.414 354.535 363.83C354.482 363.755 354.396 363.659 354.279 363.542C354.172 363.425 354.066 363.307 353.959 363.19C353.852 363.073 353.751 362.977 353.655 362.902C354.402 362.347 355.09 361.659 355.719 360.838C356.359 360.017 356.866 359.147 357.239 358.23ZM364.503 363.67H365.703C365.692 364.918 365.698 366.043 365.719 367.046C365.751 368.038 365.815 368.886 365.911 369.59C366.007 370.294 366.146 370.838 366.327 371.222C366.519 371.595 366.775 371.782 367.095 371.782C367.266 371.782 367.378 371.563 367.431 371.126C367.484 370.689 367.522 370.123 367.543 369.43C367.65 369.569 367.783 369.707 367.943 369.846C368.103 369.974 368.247 370.075 368.375 370.15C368.343 370.843 368.279 371.393 368.183 371.798C368.098 372.214 367.964 372.507 367.783 372.678C367.612 372.859 367.356 372.95 367.015 372.95C366.428 372.95 365.964 372.737 365.623 372.31C365.292 371.894 365.047 371.286 364.887 370.486C364.727 369.675 364.62 368.699 364.567 367.558C364.524 366.406 364.503 365.11 364.503 363.67ZM355.351 365.526L356.263 365.142C356.54 365.451 356.796 365.793 357.031 366.166C357.276 366.539 357.452 366.87 357.559 367.158L356.583 367.574C356.498 367.297 356.338 366.966 356.103 366.582C355.868 366.187 355.618 365.835 355.351 365.526ZM358.583 364.982H359.719V372.95H358.583V364.982ZM362.055 365.158L363.127 365.558C362.839 365.931 362.54 366.315 362.231 366.71C361.922 367.094 361.634 367.425 361.367 367.702L360.583 367.35C360.754 367.147 360.93 366.918 361.111 366.662C361.292 366.406 361.468 366.145 361.639 365.878C361.81 365.611 361.948 365.371 362.055 365.158ZM357.223 369.238L358.135 369.606C357.879 370.022 357.57 370.443 357.207 370.87C356.844 371.286 356.45 371.67 356.023 372.022C355.607 372.374 355.196 372.662 354.791 372.886C354.706 372.758 354.588 372.609 354.439 372.438C354.29 372.267 354.151 372.129 354.023 372.022C354.418 371.841 354.812 371.601 355.207 371.302C355.612 371.003 355.991 370.678 356.343 370.326C356.706 369.974 356.999 369.611 357.223 369.238ZM360.375 369.91L361.079 369.254C361.442 369.51 361.815 369.793 362.199 370.102C362.583 370.411 362.94 370.721 363.271 371.03C363.612 371.329 363.89 371.601 364.103 371.846L363.351 372.598C363.138 372.342 362.866 372.059 362.535 371.75C362.204 371.441 361.847 371.126 361.463 370.806C361.09 370.475 360.727 370.177 360.375 369.91Z" fill="#4F4F4F"/>
<path d="M384 173.266C384 264.393 310.127 338.266 219 338.266C127.873 338.266 54 264.393 54 173.266C54 82.1386 127.873 8.26562 219 8.26562C310.127 8.26562 384 82.1386 384 173.266Z" fill="url(#paint3_linear_260_53930)"/>
<path d="M240.16 1.38367C264.267 4.25446 287.512 12.1097 308.42 24.45L219.466 175.156L240.16 1.38367Z" fill="url(#paint4_linear_260_53930)"/>
<path d="M308.261 24.3545C320.594 31.6166 331.989 40.3642 342.192 50.4012L219.465 175.153L308.261 24.3545Z" fill="url(#paint5_linear_260_53930)"/>
<path d="M314.76 148.229C328.575 201.127 296.938 255.209 244.048 269.026C191.157 282.842 137.083 251.201 123.238 198.303C109.423 145.405 141.091 91.3225 193.951 77.5058C246.841 63.6892 300.915 95.3308 314.73 148.229" fill="white"/>
<path d="M114.574 278.896C112.366 278.896 110.734 277.583 110.734 275.759C110.734 274.207 111.758 273.167 112.846 272.591V272.511C111.966 271.887 111.262 271.007 111.262 269.759C111.262 267.919 112.702 266.719 114.622 266.719C116.67 266.719 117.95 267.999 117.95 269.839C117.95 271.039 117.134 272.063 116.398 272.607V272.687C117.454 273.279 118.382 274.207 118.382 275.807C118.382 277.551 116.846 278.896 114.574 278.896ZM115.342 272.143C116.046 271.487 116.398 270.735 116.398 269.951C116.398 268.863 115.742 268.047 114.59 268.047C113.63 268.047 112.91 268.703 112.91 269.759C112.91 271.039 114.03 271.631 115.342 272.143ZM114.606 277.567C115.822 277.567 116.638 276.863 116.638 275.759C116.638 274.319 115.342 273.775 113.742 273.119C112.926 273.679 112.366 274.559 112.366 275.583C112.366 276.751 113.342 277.567 114.606 277.567ZM121.523 270.559C121.523 272.063 122.195 272.927 123.427 272.927C124.163 272.927 124.995 272.495 125.667 271.487C125.491 269.167 124.611 268.111 123.331 268.111C122.323 268.111 121.523 269.023 121.523 270.559ZM123.011 278.896C121.651 278.896 120.691 278.351 120.003 277.647L121.011 276.511C121.475 277.039 122.195 277.391 122.931 277.391C124.355 277.391 125.587 276.239 125.699 272.879C125.011 273.727 124.003 274.255 123.107 274.255C121.139 274.255 119.811 273.023 119.811 270.559C119.811 268.223 121.411 266.687 123.315 266.687C125.571 266.687 127.395 268.495 127.395 272.399C127.395 277.039 125.283 278.896 123.011 278.896ZM130.632 278.896C129.944 278.896 129.4 278.367 129.4 277.615C129.4 276.847 129.944 276.303 130.632 276.303C131.32 276.303 131.864 276.847 131.864 277.615C131.864 278.367 131.32 278.896 130.632 278.896ZM137.302 278.896C135.446 278.896 134.278 278.143 133.446 277.327L134.326 276.127C134.998 276.799 135.846 277.391 137.078 277.391C138.406 277.391 139.414 276.447 139.414 274.879C139.414 273.311 138.518 272.415 137.174 272.415C136.422 272.415 135.974 272.639 135.286 273.087L134.39 272.495L134.742 266.895H140.71V268.463H136.342L136.07 271.487C136.582 271.231 137.046 271.071 137.686 271.071C139.654 271.071 141.27 272.239 141.27 274.815C141.27 277.423 139.366 278.896 137.302 278.896ZM145.467 274.143C143.819 274.143 142.715 272.767 142.715 270.399C142.715 268.031 143.819 266.687 145.467 266.687C147.115 266.687 148.235 268.031 148.235 270.399C148.235 272.767 147.115 274.143 145.467 274.143ZM145.467 273.055C146.299 273.055 146.891 272.207 146.891 270.399C146.891 268.575 146.299 267.775 145.467 267.775C144.651 267.775 144.059 268.575 144.059 270.399C144.059 272.207 144.651 273.055 145.467 273.055ZM145.835 278.896L152.283 266.687H153.451L147.003 278.896H145.835ZM153.835 278.896C152.187 278.896 151.067 277.535 151.067 275.167C151.067 272.799 152.187 271.455 153.835 271.455C155.467 271.455 156.587 272.799 156.587 275.167C156.587 277.535 155.467 278.896 153.835 278.896ZM153.835 277.823C154.651 277.823 155.243 276.975 155.243 275.167C155.243 273.343 154.651 272.543 153.835 272.543C153.003 272.543 152.427 273.343 152.427 275.167C152.427 276.975 153.003 277.823 153.835 277.823Z" fill="white"/>
<path d="M331.288 25.8955C329.432 25.8955 328.232 25.1595 327.448 24.2795L328.344 23.0955C329.032 23.7995 329.912 24.3915 331.128 24.3915C332.456 24.3915 333.368 23.6555 333.368 22.4235C333.368 21.1275 332.536 20.2795 329.88 20.2795V18.9195C332.2 18.9195 332.968 18.0395 332.968 16.8555C332.968 15.8155 332.28 15.1755 331.16 15.1595C330.248 15.1755 329.48 15.6075 328.808 16.2635L327.848 15.1115C328.776 14.2795 329.864 13.6875 331.224 13.6875C333.336 13.6875 334.824 14.7915 334.824 16.7275C334.824 18.0875 334.04 19.0315 332.792 19.4955V19.5755C334.152 19.9115 335.224 20.9355 335.224 22.5195C335.224 24.6475 333.448 25.8955 331.288 25.8955ZM338.509 25.8955C337.821 25.8955 337.277 25.3675 337.277 24.6155C337.277 23.8475 337.821 23.3035 338.509 23.3035C339.197 23.3035 339.741 23.8475 339.741 24.6155C339.741 25.3675 339.197 25.8955 338.509 25.8955ZM343.291 17.5595C343.291 19.0635 343.963 19.9275 345.195 19.9275C345.931 19.9275 346.763 19.4955 347.435 18.4875C347.259 16.1675 346.379 15.1115 345.099 15.1115C344.091 15.1115 343.291 16.0235 343.291 17.5595ZM344.779 25.8955C343.419 25.8955 342.459 25.3515 341.771 24.6475L342.779 23.5115C343.243 24.0395 343.963 24.3915 344.699 24.3915C346.123 24.3915 347.355 23.2395 347.467 19.8795C346.779 20.7275 345.771 21.2555 344.875 21.2555C342.907 21.2555 341.579 20.0235 341.579 17.5595C341.579 15.2235 343.179 13.6875 345.083 13.6875C347.339 13.6875 349.163 15.4955 349.163 19.3995C349.163 24.0395 347.051 25.8955 344.779 25.8955ZM353.344 21.1435C351.696 21.1435 350.592 19.7675 350.592 17.3995C350.592 15.0315 351.696 13.6875 353.344 13.6875C354.992 13.6875 356.112 15.0315 356.112 17.3995C356.112 19.7675 354.992 21.1435 353.344 21.1435ZM353.344 20.0555C354.176 20.0555 354.768 19.2075 354.768 17.3995C354.768 15.5755 354.176 14.7755 353.344 14.7755C352.528 14.7755 351.936 15.5755 351.936 17.3995C351.936 19.2075 352.528 20.0555 353.344 20.0555ZM353.712 25.8955L360.16 13.6875H361.328L354.88 25.8955H353.712ZM361.712 25.8955C360.064 25.8955 358.944 24.5355 358.944 22.1675C358.944 19.7995 360.064 18.4555 361.712 18.4555C363.344 18.4555 364.464 19.7995 364.464 22.1675C364.464 24.5355 363.344 25.8955 361.712 25.8955ZM361.712 24.8235C362.528 24.8235 363.12 23.9755 363.12 22.1675C363.12 20.3435 362.528 19.5435 361.712 19.5435C360.88 19.5435 360.304 20.3435 360.304 22.1675C360.304 23.9755 360.88 24.8235 361.712 24.8235Z" fill="#4985C6"/>
<path d="M250.784 40.6715C250.112 40.6715 249.296 41.0395 248.592 42.0475C248.784 44.3835 249.632 45.4875 250.896 45.4875C251.92 45.4875 252.736 44.5595 252.736 43.0235C252.736 41.5195 252.048 40.6715 250.784 40.6715ZM250.912 46.8955C248.672 46.8955 246.848 45.0235 246.848 41.0235C246.848 36.4955 248.976 34.6875 251.296 34.6875C252.608 34.6875 253.568 35.2475 254.24 35.9515L253.232 37.0715C252.8 36.5595 252.08 36.1915 251.392 36.1915C249.888 36.1915 248.64 37.3275 248.56 40.6875C249.248 39.8395 250.272 39.3275 251.12 39.3275C253.104 39.3275 254.432 40.5435 254.432 43.0235C254.432 45.3595 252.832 46.8955 250.912 46.8955ZM257.509 46.8955C256.821 46.8955 256.277 46.3675 256.277 45.6155C256.277 44.8475 256.821 44.3035 257.509 44.3035C258.197 44.3035 258.741 44.8475 258.741 45.6155C258.741 46.3675 258.197 46.8955 257.509 46.8955ZM264.675 40.6715C264.003 40.6715 263.187 41.0395 262.483 42.0475C262.675 44.3835 263.523 45.4875 264.787 45.4875C265.811 45.4875 266.627 44.5595 266.627 43.0235C266.627 41.5195 265.939 40.6715 264.675 40.6715ZM264.803 46.8955C262.563 46.8955 260.739 45.0235 260.739 41.0235C260.739 36.4955 262.867 34.6875 265.187 34.6875C266.499 34.6875 267.459 35.2475 268.131 35.9515L267.123 37.0715C266.691 36.5595 265.971 36.1915 265.283 36.1915C263.779 36.1915 262.531 37.3275 262.451 40.6875C263.139 39.8395 264.163 39.3275 265.011 39.3275C266.995 39.3275 268.323 40.5435 268.323 43.0235C268.323 45.3595 266.723 46.8955 264.803 46.8955ZM272.344 42.1435C270.696 42.1435 269.592 40.7675 269.592 38.3995C269.592 36.0315 270.696 34.6875 272.344 34.6875C273.992 34.6875 275.112 36.0315 275.112 38.3995C275.112 40.7675 273.992 42.1435 272.344 42.1435ZM272.344 41.0555C273.176 41.0555 273.768 40.2075 273.768 38.3995C273.768 36.5755 273.176 35.7755 272.344 35.7755C271.528 35.7755 270.936 36.5755 270.936 38.3995C270.936 40.2075 271.528 41.0555 272.344 41.0555ZM272.712 46.8955L279.16 34.6875H280.328L273.88 46.8955H272.712ZM280.712 46.8955C279.064 46.8955 277.944 45.5355 277.944 43.1675C277.944 40.7995 279.064 39.4555 280.712 39.4555C282.344 39.4555 283.464 40.7995 283.464 43.1675C283.464 45.5355 282.344 46.8955 280.712 46.8955ZM280.712 45.8235C281.528 45.8235 282.12 44.9755 282.12 43.1675C282.12 41.3435 281.528 40.5435 280.712 40.5435C279.88 40.5435 279.304 41.3435 279.304 43.1675C279.304 44.9755 279.88 45.8235 280.712 45.8235Z" fill="white"/>
</g>
<defs>
<linearGradient id="paint0_linear_260_53930" x1="75.502" y1="359.688" x2="75.502" y2="369.688" gradientUnits="userSpaceOnUse">
<stop stop-color="#C2C559"/>
<stop offset="1" stop-color="#A7AC39"/>
</linearGradient>
<linearGradient id="paint1_linear_260_53930" x1="208" y1="359.687" x2="208" y2="369.687" gradientUnits="userSpaceOnUse">
<stop stop-color="#FF9E45"/>
<stop offset="1" stop-color="#FF7A00"/>
</linearGradient>
<linearGradient id="paint2_linear_260_53930" x1="324.002" y1="359.687" x2="324.002" y2="369.687" gradientUnits="userSpaceOnUse">
<stop stop-color="#6FC7E2"/>
<stop offset="1" stop-color="#00AED4"/>
</linearGradient>
<linearGradient id="paint3_linear_260_53930" x1="219" y1="8.26562" x2="219" y2="338.266" gradientUnits="userSpaceOnUse">
<stop stop-color="#C2C559"/>
<stop offset="1" stop-color="#A7AC39"/>
</linearGradient>
<linearGradient id="paint4_linear_260_53930" x1="240" y1="1.69044" x2="240" y2="99.1904" gradientUnits="userSpaceOnUse">
<stop stop-color="#FF9E45"/>
<stop offset="1" stop-color="#FF7A00"/>
</linearGradient>
<linearGradient id="paint5_linear_260_53930" x1="324.903" y1="10.4848" x2="324.903" y2="120.687" gradientUnits="userSpaceOnUse">
<stop stop-color="#6FC7E2"/>
<stop offset="1" stop-color="#00AED4"/>
</linearGradient>
<clipPath id="clip0_260_53930">
<rect width="440" height="373" fill="white" transform="translate(0 0.6875)"/>
</clipPath>
</defs>
</svg>
