<svg width="876" height="350" viewBox="0 0 876 350" fill="none" xmlns="http://www.w3.org/2000/svg">
<g clip-path="url(#clip0_281_20563)">
<path d="M876 0H0V350H876V0Z" fill="white"/>
<path d="M415 92.4531H152V93.3965H415V92.4531Z" fill="#E7E7E7"/>
<mask id="mask0_281_20563" style="mask-type:luminance" maskUnits="userSpaceOnUse" x="152" y="163" width="10" height="10">
<path d="M162 163H152V173H162V163Z" fill="white"/>
</mask>
<g mask="url(#mask0_281_20563)">
<path d="M161.906 168.094L156.906 163.094L151.906 168.094L156.906 173.094L161.906 168.094Z" fill="url(#paint0_linear_281_20563)"/>
</g>
<path d="M176.095 170.984L176.239 172.04C174.239 172.632 172.111 173.256 170.559 173.72L170.239 172.584C170.943 172.408 171.807 172.184 172.751 171.912V168.04H170.735V166.936H172.751V163.528H170.543V162.44H175.999V163.528H173.887V166.936H175.855V168.04H173.887V171.608L176.095 170.984ZM177.855 168.424V170.056H183.039V168.424H177.855ZM177.855 165.864V167.464H183.039V165.864H177.855ZM177.855 163.32V164.92H183.039V163.32H177.855ZM182.495 175.08H183.743C184.111 175.08 184.175 174.84 184.223 173.192C184.447 173.4 184.927 173.576 185.215 173.656C185.135 175.608 184.831 176.104 183.871 176.104H182.319C181.183 176.104 180.895 175.768 180.895 174.616V171.064H179.327C179.007 173.608 178.143 175.352 175.039 176.312C174.927 176.04 174.607 175.56 174.367 175.336C177.183 174.568 177.903 173.128 178.159 171.064H176.735V162.312H184.207V171.064H182.031V174.616C182.031 175.016 182.095 175.08 182.495 175.08ZM189.967 166.376H197.599C196.159 165.528 194.751 164.456 193.711 163.368C192.655 164.52 191.375 165.544 189.967 166.376ZM197.791 167.48H194.271V169.656H199.855V170.744H194.271V174.648H200.575V175.752H186.831V174.648H193.039V170.744H187.551V169.656H193.039V167.48H189.583V166.6C188.767 167.048 187.903 167.448 187.039 167.752C186.863 167.432 186.543 166.968 186.239 166.68C189.215 165.704 192.159 163.832 193.679 161.464L194.767 161.976C194.655 162.152 194.511 162.36 194.367 162.552C195.951 164.248 198.767 165.912 201.199 166.68C200.911 166.92 200.543 167.4 200.367 167.704C199.535 167.4 198.655 166.984 197.791 166.488V167.48ZM196.623 174.424L195.727 174.04C196.287 173.256 197.007 171.992 197.391 171.096L198.527 171.528C197.935 172.536 197.199 173.672 196.623 174.424ZM188.895 171.496L189.887 171.096C190.495 171.992 191.151 173.192 191.407 173.96L190.367 174.392C190.143 173.656 189.503 172.392 188.895 171.496ZM214.799 165.272V163.144H210.095V165.272H214.799ZM215.951 162.152V166.264H208.959V162.152H215.951ZM207.871 168.504L208.047 169.576C207.327 169.8 206.623 170.024 205.919 170.232V174.808C205.919 175.496 205.743 175.8 205.327 175.992C204.927 176.184 204.255 176.216 203.167 176.2C203.119 175.912 202.943 175.432 202.799 175.128C203.551 175.144 204.255 175.144 204.447 175.128C204.671 175.128 204.751 175.048 204.751 174.824V170.568L202.671 171.176L202.319 170.024C202.991 169.864 203.839 169.64 204.751 169.4V165.944H202.511V164.824H204.751V161.64H205.919V164.824H207.999V165.944H205.919V169.064C206.559 168.872 207.231 168.696 207.871 168.504ZM216.431 167.432V174.84C216.431 175.496 216.287 175.816 215.839 176.008C215.391 176.2 214.639 176.216 213.487 176.216C213.439 175.88 213.295 175.416 213.135 175.096C213.951 175.128 214.719 175.112 214.943 175.112C215.167 175.112 215.231 175.032 215.231 174.84V172.888C213.455 173.336 211.631 173.816 210.191 174.152L209.759 173.016C211.151 172.76 213.199 172.328 215.231 171.88V168.472H209.807V170.456C209.807 172.232 209.551 174.68 208.191 176.328C207.999 176.12 207.487 175.752 207.231 175.624C208.495 174.088 208.639 172.008 208.639 170.44V167.432H216.431ZM210.223 170.264L210.671 169.432C212.015 169.656 213.727 170.168 214.655 170.616L214.191 171.544C213.295 171.08 211.599 170.536 210.223 170.264ZM222.335 165.32V163.368H219.967V165.32H222.335ZM222.335 168.216V166.248H219.967V168.216H222.335ZM222.335 171.128V169.144H219.967V171.128H222.335ZM223.327 162.376V172.104H219.023V162.376H223.327ZM219.871 172.616L220.799 172.92C220.367 173.944 219.743 175.144 219.231 175.928C219.039 175.768 218.623 175.496 218.415 175.368C218.943 174.616 219.487 173.56 219.871 172.616ZM221.551 173.064L222.303 172.6C222.831 173.352 223.423 174.344 223.711 174.952L222.895 175.496C222.639 174.84 222.031 173.816 221.551 173.064ZM230.495 171.016H225.983V172.408H230.495V171.016ZM225.983 174.584H230.495V173.256H225.983V174.584ZM224.959 176.168V170.072H231.551V176.104H230.495V175.512H225.983V176.168H224.959ZM225.647 165.4L226.319 165.192C226.703 165.912 227.119 166.872 227.311 167.448L226.607 167.736C226.431 167.128 226.031 166.136 225.647 165.4ZM229.823 167.72L229.167 167.48C229.503 166.872 229.951 165.88 230.175 165.208L230.927 165.464C230.575 166.248 230.175 167.128 229.823 167.72ZM231.215 168.28V164.632H228.639V168.28H231.215ZM225.247 164.632V168.28H227.807V164.632H225.247ZM230.143 163.704H232.223V169.208H224.271V163.704H226.287C226.111 163.208 225.711 162.488 225.359 161.944L226.287 161.608C226.703 162.152 227.119 162.888 227.311 163.368L226.543 163.704H229.055C229.471 163.096 229.951 162.2 230.223 161.576L231.311 161.976C230.943 162.552 230.543 163.192 230.143 163.704ZM238.009 171.08V169.96H242.105V171.08H238.009ZM247.806 175V173.784H250.414V165.032H248.334V164.104C249.374 163.912 250.126 163.64 250.766 163.256H251.886V173.784H254.238V175H247.806ZM258.441 175C258.633 170.552 259.449 167.72 261.737 164.52H256.057V163.256H263.401V164.152C260.649 167.672 260.137 170.408 259.961 175H258.441ZM265.348 178.04L264.996 177.176C266.004 176.728 266.596 175.944 266.596 175C266.532 175.016 266.484 175.016 266.42 175.016C265.86 175.016 265.348 174.664 265.348 173.992C265.348 173.368 265.86 172.968 266.452 172.968C267.22 172.968 267.684 173.624 267.684 174.696C267.684 176.232 266.788 177.432 265.348 178.04ZM270.682 166.856C270.682 168.44 271.386 169.464 272.778 169.464C273.578 169.464 274.474 169 275.226 167.896C275.066 165.48 274.17 164.2 272.666 164.2C271.546 164.2 270.682 165.256 270.682 166.856ZM272.346 175.208C271.082 175.208 270.186 174.696 269.53 174.008L270.346 173.096C270.826 173.656 271.546 173.992 272.298 173.992C273.818 173.992 275.13 172.744 275.242 169.112C274.522 169.992 273.514 170.552 272.538 170.552C270.586 170.552 269.306 169.288 269.306 166.856C269.306 164.584 270.842 163.048 272.666 163.048C274.922 163.048 276.602 164.904 276.602 168.632C276.602 173.384 274.554 175.208 272.346 175.208ZM281.701 175.208C279.861 175.208 278.709 174.44 277.941 173.608L278.677 172.648C279.365 173.368 280.261 173.992 281.589 173.992C282.981 173.992 283.973 173.16 283.973 171.8C283.973 170.408 283.029 169.464 280.325 169.464V168.344C282.741 168.344 283.573 167.368 283.573 166.104C283.573 164.984 282.805 164.248 281.589 164.248C280.645 164.248 279.813 164.712 279.157 165.384L278.373 164.456C279.253 163.64 280.293 163.048 281.653 163.048C283.621 163.048 285.061 164.136 285.061 165.992C285.061 167.416 284.213 168.36 282.981 168.824V168.888C284.357 169.208 285.461 170.264 285.461 171.864C285.461 173.96 283.781 175.208 281.701 175.208ZM287.056 175V174.136C290.736 170.92 292.432 168.584 292.432 166.568C292.432 165.224 291.728 164.248 290.272 164.248C289.312 164.248 288.48 164.84 287.84 165.608L286.992 164.776C287.952 163.736 288.96 163.048 290.448 163.048C292.544 163.048 293.856 164.424 293.856 166.52C293.856 168.856 292.016 171.24 289.264 173.848C289.872 173.8 290.592 173.736 291.184 173.736H294.432V175H287.056ZM296.427 178.04L296.075 177.176C297.083 176.728 297.675 175.944 297.675 175C297.611 175.016 297.563 175.016 297.499 175.016C296.939 175.016 296.427 174.664 296.427 173.992C296.427 173.368 296.939 172.968 297.531 172.968C298.299 172.968 298.763 173.624 298.763 174.696C298.763 176.232 297.867 177.432 296.427 178.04ZM304.128 175.208C301.888 175.208 300.464 173.176 300.464 169.096C300.464 165.016 301.888 163.048 304.128 163.048C306.352 163.048 307.776 165.032 307.776 169.096C307.776 173.176 306.352 175.208 304.128 175.208ZM304.128 174.04C305.456 174.04 306.352 172.552 306.352 169.096C306.352 165.672 305.456 164.216 304.128 164.216C302.784 164.216 301.888 165.672 301.888 169.096C301.888 172.552 302.784 174.04 304.128 174.04ZM311.723 175C311.915 170.552 312.731 167.72 315.019 164.52H309.339V163.256H316.683V164.152C313.931 167.672 313.419 170.408 313.243 175H311.723ZM321.654 175.208C319.814 175.208 318.662 174.44 317.894 173.608L318.63 172.648C319.318 173.368 320.214 173.992 321.542 173.992C322.934 173.992 323.926 173.16 323.926 171.8C323.926 170.408 322.982 169.464 320.278 169.464V168.344C322.694 168.344 323.526 167.368 323.526 166.104C323.526 164.984 322.758 164.248 321.542 164.248C320.598 164.248 319.766 164.712 319.11 165.384L318.326 164.456C319.206 163.64 320.246 163.048 321.606 163.048C323.574 163.048 325.014 164.136 325.014 165.992C325.014 167.416 324.166 168.36 322.934 168.824V168.888C324.31 169.208 325.414 170.264 325.414 171.864C325.414 173.96 323.734 175.208 321.654 175.208ZM339.985 162.872V164.008H328.721V162.872H339.985ZM337.585 174.808H339.649C340.289 174.808 340.385 174.392 340.465 171.944C340.737 172.168 341.249 172.376 341.569 172.472C341.441 175.192 341.121 175.944 339.729 175.944H337.441C336.017 175.944 335.633 175.528 335.633 174.168V168.472H332.641C332.337 171.896 331.569 174.696 327.889 176.184C327.745 175.896 327.409 175.464 327.137 175.256C330.545 173.96 331.137 171.464 331.377 168.472H327.329V167.32H341.329V168.472H336.833V174.152C336.833 174.696 336.961 174.808 337.585 174.808Z" fill="#4F4F4F"/>
<path d="M169.74 196.864H183.996V198.016H169.74V196.864ZM170.78 200.736H183.02V201.872H170.78V200.736ZM176.188 194.56H177.436V201.552H176.188V194.56ZM173.164 203.904H174.364V207.376C174.364 207.621 174.433 207.781 174.572 207.856C174.721 207.931 175.052 207.968 175.564 207.968C175.649 207.968 175.804 207.968 176.028 207.968C176.262 207.968 176.524 207.968 176.812 207.968C177.11 207.968 177.404 207.968 177.692 207.968C177.99 207.968 178.262 207.968 178.508 207.968C178.753 207.968 178.94 207.968 179.068 207.968C179.356 207.968 179.574 207.925 179.724 207.84C179.873 207.744 179.974 207.557 180.028 207.28C180.092 206.992 180.134 206.56 180.156 205.984C180.241 206.048 180.348 206.112 180.476 206.176C180.614 206.229 180.753 206.277 180.892 206.32C181.03 206.363 181.153 206.4 181.26 206.432C181.206 207.136 181.11 207.675 180.972 208.048C180.844 208.432 180.636 208.693 180.348 208.832C180.07 208.981 179.67 209.056 179.148 209.056C179.062 209.056 178.897 209.056 178.652 209.056C178.406 209.056 178.118 209.056 177.788 209.056C177.468 209.056 177.142 209.056 176.812 209.056C176.492 209.056 176.209 209.056 175.964 209.056C175.729 209.056 175.574 209.056 175.5 209.056C174.892 209.056 174.417 209.008 174.076 208.912C173.745 208.816 173.51 208.645 173.372 208.4C173.233 208.165 173.164 207.829 173.164 207.392V203.904ZM174.892 202.944L175.724 202.224C176.15 202.469 176.593 202.747 177.052 203.056C177.521 203.365 177.953 203.68 178.348 204C178.753 204.32 179.084 204.619 179.34 204.896L178.46 205.712C178.225 205.435 177.91 205.131 177.516 204.8C177.121 204.469 176.694 204.139 176.236 203.808C175.788 203.477 175.34 203.189 174.892 202.944ZM180.748 204.288L181.836 203.888C182.113 204.325 182.39 204.805 182.668 205.328C182.945 205.84 183.201 206.341 183.436 206.832C183.67 207.312 183.852 207.728 183.98 208.08L182.812 208.576C182.694 208.203 182.524 207.771 182.3 207.28C182.076 206.779 181.83 206.267 181.564 205.744C181.297 205.221 181.025 204.736 180.748 204.288ZM171.244 204.048L172.316 204.416C172.209 204.853 172.076 205.317 171.916 205.808C171.756 206.299 171.574 206.779 171.372 207.248C171.18 207.717 170.961 208.128 170.716 208.48L169.644 207.92C169.889 207.579 170.108 207.189 170.3 206.752C170.502 206.315 170.684 205.861 170.844 205.392C171.004 204.912 171.137 204.464 171.244 204.048ZM186.508 196.368H199.244V197.6H186.508V196.368ZM185.676 206.848H200.06V208.048H185.676V206.848ZM192.14 196.992H193.468V207.344H192.14V196.992ZM201.388 203.024C202.038 202.864 202.812 202.661 203.708 202.416C204.604 202.16 205.516 201.899 206.444 201.632L206.604 202.736C205.761 202.992 204.913 203.248 204.06 203.504C203.206 203.749 202.433 203.979 201.74 204.192L201.388 203.024ZM201.58 197.792H206.94V198.928H201.58V197.792ZM203.772 194.56H204.94V207.76C204.94 208.091 204.897 208.347 204.812 208.528C204.726 208.709 204.577 208.848 204.364 208.944C204.15 209.029 203.868 209.083 203.516 209.104C203.164 209.136 202.716 209.152 202.172 209.152C202.15 209.003 202.102 208.821 202.028 208.608C201.964 208.395 201.889 208.208 201.804 208.048C202.177 208.059 202.518 208.064 202.828 208.064C203.148 208.064 203.356 208.064 203.452 208.064C203.569 208.053 203.649 208.027 203.692 207.984C203.745 207.941 203.772 207.867 203.772 207.76V194.56ZM208.716 195.136H212.908V196.256H208.716V195.136ZM206.86 201.632H214.236V202.752H206.86V201.632ZM213.82 201.632H214.06L214.284 201.584L215.068 201.92C214.705 202.976 214.225 203.909 213.628 204.72C213.03 205.531 212.342 206.235 211.564 206.832C210.785 207.429 209.937 207.931 209.02 208.336C208.113 208.741 207.169 209.067 206.188 209.312C206.166 209.195 206.118 209.067 206.044 208.928C205.98 208.8 205.905 208.667 205.82 208.528C205.745 208.4 205.665 208.293 205.58 208.208C206.497 208.016 207.382 207.744 208.236 207.392C209.1 207.04 209.894 206.603 210.62 206.08C211.356 205.547 211.996 204.928 212.54 204.224C213.094 203.509 213.521 202.709 213.82 201.824V201.632ZM208.348 202.448C208.785 203.419 209.377 204.293 210.124 205.072C210.87 205.84 211.756 206.491 212.78 207.024C213.804 207.547 214.94 207.936 216.188 208.192C216.102 208.277 216.006 208.384 215.9 208.512C215.804 208.651 215.713 208.789 215.628 208.928C215.542 209.067 215.473 209.189 215.42 209.296C213.489 208.837 211.841 208.059 210.476 206.96C209.11 205.861 208.054 204.485 207.308 202.832L208.348 202.448ZM208.412 195.136H209.548V196.928C209.548 197.419 209.484 197.925 209.356 198.448C209.228 198.96 208.988 199.461 208.636 199.952C208.294 200.432 207.793 200.859 207.132 201.232C207.078 201.147 207.004 201.051 206.908 200.944C206.812 200.827 206.71 200.715 206.604 200.608C206.497 200.491 206.406 200.405 206.332 200.352C206.94 200.021 207.388 199.664 207.676 199.28C207.974 198.885 208.172 198.485 208.268 198.08C208.364 197.675 208.412 197.28 208.412 196.896V195.136ZM212.348 195.136H213.5V198.848C213.5 199.072 213.516 199.232 213.548 199.328C213.59 199.413 213.676 199.456 213.804 199.456C213.878 199.456 214.001 199.456 214.172 199.456C214.342 199.456 214.513 199.456 214.684 199.456C214.854 199.456 214.972 199.456 215.036 199.456C215.164 199.456 215.302 199.451 215.452 199.44C215.601 199.419 215.729 199.397 215.836 199.376C215.857 199.525 215.873 199.701 215.884 199.904C215.894 200.107 215.916 200.277 215.948 200.416C215.841 200.448 215.708 200.469 215.548 200.48C215.388 200.491 215.228 200.496 215.068 200.496C214.982 200.496 214.844 200.496 214.652 200.496C214.46 200.496 214.273 200.496 214.092 200.496C213.921 200.496 213.798 200.496 213.724 200.496C213.35 200.496 213.062 200.443 212.86 200.336C212.657 200.229 212.518 200.053 212.444 199.808C212.38 199.563 212.348 199.232 212.348 198.816V195.136ZM220.492 195.536H225.02V196.752H220.492V195.536ZM224.412 195.536H225.628C225.628 196.005 225.649 196.56 225.692 197.2C225.734 197.84 225.825 198.528 225.964 199.264C226.102 199.989 226.316 200.747 226.604 201.536C226.892 202.325 227.281 203.115 227.772 203.904C228.262 204.683 228.876 205.44 229.612 206.176C230.358 206.912 231.26 207.589 232.316 208.208C232.23 208.283 232.118 208.379 231.98 208.496C231.852 208.624 231.729 208.752 231.612 208.88C231.505 209.019 231.414 209.136 231.34 209.232C230.273 208.581 229.356 207.867 228.588 207.088C227.83 206.299 227.196 205.477 226.684 204.624C226.182 203.771 225.777 202.917 225.468 202.064C225.169 201.2 224.94 200.368 224.78 199.568C224.63 198.757 224.529 198.005 224.476 197.312C224.433 196.619 224.412 196.027 224.412 195.536ZM223.948 198.672L225.308 198.912C224.924 200.533 224.422 201.995 223.804 203.296C223.196 204.597 222.454 205.744 221.58 206.736C220.716 207.717 219.692 208.555 218.508 209.248C218.444 209.163 218.342 209.061 218.204 208.944C218.076 208.827 217.937 208.704 217.788 208.576C217.649 208.459 217.526 208.363 217.42 208.288C219.201 207.349 220.614 206.08 221.66 204.48C222.705 202.869 223.468 200.933 223.948 198.672ZM237.158 204.08V202.96H241.27V204.08H237.158ZM250.533 208V206.784H253.157V198.032H251.061V197.104C251.584 197.008 252.037 196.891 252.421 196.752C252.816 196.613 253.173 196.453 253.493 196.272H254.613V206.784H256.965V208H250.533ZM259.2 211.04L258.848 210.176C259.349 209.952 259.744 209.648 260.032 209.264C260.32 208.88 260.459 208.443 260.448 207.952L260.288 206.64L261.008 207.712C260.901 207.829 260.784 207.915 260.656 207.968C260.539 208.011 260.411 208.032 260.272 208.032C259.984 208.032 259.733 207.941 259.52 207.76C259.307 207.579 259.2 207.328 259.2 207.008C259.2 206.688 259.307 206.437 259.52 206.256C259.744 206.075 260.005 205.984 260.304 205.984C260.688 205.984 260.987 206.139 261.2 206.448C261.424 206.747 261.536 207.163 261.536 207.696C261.536 208.464 261.323 209.136 260.896 209.712C260.48 210.288 259.915 210.731 259.2 211.04ZM266.933 208.208C266.208 208.208 265.562 208.075 264.997 207.808C264.432 207.541 263.989 207.173 263.669 206.704C263.349 206.235 263.189 205.696 263.189 205.088C263.189 204.565 263.29 204.096 263.493 203.68C263.706 203.253 263.978 202.891 264.309 202.592C264.64 202.283 264.981 202.032 265.333 201.84V201.776C264.906 201.477 264.533 201.109 264.213 200.672C263.904 200.224 263.749 199.691 263.749 199.072C263.749 198.475 263.888 197.957 264.165 197.52C264.453 197.072 264.837 196.725 265.317 196.48C265.808 196.224 266.357 196.096 266.965 196.096C267.637 196.096 268.213 196.229 268.693 196.496C269.173 196.763 269.541 197.125 269.797 197.584C270.053 198.043 270.181 198.576 270.181 199.184C270.181 199.589 270.096 199.973 269.925 200.336C269.765 200.699 269.568 201.024 269.333 201.312C269.098 201.589 268.864 201.824 268.629 202.016V202.096C268.97 202.288 269.29 202.523 269.589 202.8C269.888 203.067 270.128 203.397 270.309 203.792C270.501 204.176 270.597 204.64 270.597 205.184C270.597 205.739 270.442 206.251 270.133 206.72C269.834 207.179 269.408 207.541 268.853 207.808C268.309 208.075 267.669 208.208 266.933 208.208ZM267.733 201.632C268.128 201.28 268.426 200.907 268.629 200.512C268.832 200.107 268.933 199.691 268.933 199.264C268.933 198.869 268.853 198.517 268.693 198.208C268.544 197.899 268.32 197.653 268.021 197.472C267.722 197.28 267.365 197.184 266.949 197.184C266.405 197.184 265.957 197.355 265.605 197.696C265.253 198.037 265.077 198.496 265.077 199.072C265.077 199.531 265.2 199.92 265.445 200.24C265.701 200.549 266.032 200.816 266.437 201.04C266.842 201.253 267.274 201.451 267.733 201.632ZM266.949 207.12C267.408 207.12 267.802 207.035 268.133 206.864C268.474 206.693 268.736 206.459 268.917 206.16C269.109 205.861 269.205 205.52 269.205 205.136C269.205 204.741 269.12 204.405 268.949 204.128C268.778 203.84 268.549 203.589 268.261 203.376C267.984 203.163 267.658 202.971 267.285 202.8C266.912 202.629 266.517 202.464 266.101 202.304C265.632 202.603 265.242 202.981 264.933 203.44C264.634 203.888 264.485 204.395 264.485 204.96C264.485 205.365 264.592 205.733 264.805 206.064C265.018 206.395 265.312 206.656 265.685 206.848C266.069 207.029 266.49 207.12 266.949 207.12ZM272.736 208V206.784H275.36V198.032H273.264V197.104C273.787 197.008 274.24 196.891 274.624 196.752C275.019 196.613 275.376 196.453 275.696 196.272H276.816V206.784H279.168V208H272.736ZM284.411 208.208C283.803 208.208 283.264 208.133 282.795 207.984C282.336 207.835 281.931 207.637 281.579 207.392C281.227 207.147 280.923 206.88 280.667 206.592L281.419 205.648C281.76 206 282.16 206.315 282.619 206.592C283.088 206.859 283.654 206.992 284.315 206.992C284.784 206.992 285.195 206.907 285.547 206.736C285.91 206.555 286.192 206.304 286.395 205.984C286.598 205.653 286.699 205.264 286.699 204.816C286.699 204.347 286.582 203.936 286.347 203.584C286.123 203.232 285.744 202.96 285.211 202.768C284.678 202.565 283.958 202.464 283.051 202.464V201.344C283.862 201.344 284.502 201.248 284.971 201.056C285.44 200.853 285.776 200.581 285.979 200.24C286.192 199.899 286.299 199.52 286.299 199.104C286.299 198.539 286.123 198.091 285.771 197.76C285.419 197.419 284.934 197.248 284.315 197.248C283.846 197.248 283.403 197.355 282.987 197.568C282.582 197.781 282.214 198.053 281.883 198.384L281.099 197.456C281.547 197.051 282.032 196.72 282.555 196.464C283.088 196.197 283.691 196.064 284.363 196.064C285.024 196.064 285.611 196.181 286.123 196.416C286.646 196.64 287.051 196.971 287.339 197.408C287.638 197.845 287.787 198.373 287.787 198.992C287.787 199.707 287.595 200.299 287.211 200.768C286.827 201.237 286.326 201.584 285.707 201.808V201.888C286.166 201.995 286.582 202.181 286.955 202.448C287.328 202.715 287.627 203.051 287.851 203.456C288.075 203.861 288.187 204.331 288.187 204.864C288.187 205.557 288.016 206.155 287.675 206.656C287.334 207.157 286.88 207.541 286.315 207.808C285.75 208.075 285.115 208.208 284.411 208.208ZM290.278 211.04L289.926 210.176C290.427 209.952 290.822 209.648 291.11 209.264C291.398 208.88 291.537 208.443 291.526 207.952L291.366 206.64L292.086 207.712C291.979 207.829 291.862 207.915 291.734 207.968C291.617 208.011 291.489 208.032 291.35 208.032C291.062 208.032 290.811 207.941 290.598 207.76C290.385 207.579 290.278 207.328 290.278 207.008C290.278 206.688 290.385 206.437 290.598 206.256C290.822 206.075 291.083 205.984 291.382 205.984C291.766 205.984 292.065 206.139 292.278 206.448C292.502 206.747 292.614 207.163 292.614 207.696C292.614 208.464 292.401 209.136 291.974 209.712C291.558 210.288 290.993 210.731 290.278 211.04ZM298.971 208V200C298.971 199.712 298.982 199.36 299.003 198.944C299.025 198.528 299.041 198.171 299.051 197.872H298.987C298.838 198.149 298.683 198.437 298.523 198.736C298.374 199.024 298.214 199.312 298.043 199.6L295.371 203.6H301.915V204.768H293.851V203.808L298.731 196.272H300.347V208H298.971ZM306.854 208.208C306.118 208.208 305.473 207.984 304.918 207.536C304.374 207.088 303.953 206.411 303.654 205.504C303.356 204.597 303.206 203.461 303.206 202.096C303.206 200.731 303.356 199.605 303.654 198.72C303.953 197.824 304.374 197.157 304.918 196.72C305.473 196.283 306.118 196.064 306.854 196.064C307.601 196.064 308.246 196.288 308.79 196.736C309.334 197.173 309.756 197.835 310.054 198.72C310.353 199.605 310.502 200.731 310.502 202.096C310.502 203.461 310.353 204.597 310.054 205.504C309.756 206.411 309.334 207.088 308.79 207.536C308.246 207.984 307.601 208.208 306.854 208.208ZM306.854 207.024C307.302 207.024 307.692 206.853 308.022 206.512C308.364 206.171 308.625 205.637 308.806 204.912C308.998 204.176 309.094 203.237 309.094 202.096C309.094 200.955 308.998 200.027 308.806 199.312C308.625 198.587 308.364 198.059 308.022 197.728C307.692 197.387 307.302 197.216 306.854 197.216C306.417 197.216 306.028 197.387 305.686 197.728C305.345 198.059 305.078 198.587 304.886 199.312C304.705 200.027 304.614 200.955 304.614 202.096C304.614 203.237 304.705 204.176 304.886 204.912C305.078 205.637 305.345 206.171 305.686 206.512C306.028 206.853 306.417 207.024 306.854 207.024ZM315.041 208.208C314.401 208.208 313.847 208.096 313.377 207.872C312.919 207.637 312.529 207.349 312.209 207.008L313.009 206.096C313.265 206.373 313.564 206.592 313.905 206.752C314.257 206.912 314.62 206.992 314.993 206.992C315.388 206.992 315.761 206.901 316.113 206.72C316.465 206.539 316.775 206.24 317.041 205.824C317.319 205.397 317.532 204.843 317.681 204.16C317.841 203.477 317.921 202.635 317.921 201.632C317.921 200.672 317.82 199.861 317.617 199.2C317.425 198.539 317.137 198.043 316.753 197.712C316.369 197.371 315.905 197.2 315.361 197.2C314.988 197.2 314.652 197.312 314.353 197.536C314.055 197.76 313.815 198.069 313.633 198.464C313.452 198.859 313.361 199.328 313.361 199.872C313.361 200.395 313.436 200.853 313.585 201.248C313.745 201.632 313.98 201.931 314.289 202.144C314.609 202.357 314.999 202.464 315.457 202.464C315.852 202.464 316.263 202.341 316.689 202.096C317.127 201.84 317.543 201.424 317.937 200.848L318.001 202.016C317.767 202.315 317.495 202.581 317.185 202.816C316.887 203.051 316.567 203.232 316.225 203.36C315.895 203.488 315.559 203.552 315.217 203.552C314.567 203.552 313.996 203.413 313.505 203.136C313.025 202.859 312.652 202.448 312.385 201.904C312.119 201.349 311.985 200.672 311.985 199.872C311.985 199.104 312.14 198.437 312.449 197.872C312.759 197.296 313.164 196.853 313.665 196.544C314.177 196.224 314.737 196.064 315.345 196.064C315.911 196.064 316.433 196.181 316.913 196.416C317.393 196.64 317.809 196.987 318.161 197.456C318.513 197.915 318.791 198.491 318.993 199.184C319.196 199.877 319.297 200.693 319.297 201.632C319.297 202.816 319.18 203.829 318.945 204.672C318.711 205.504 318.391 206.181 317.985 206.704C317.58 207.227 317.121 207.611 316.609 207.856C316.108 208.091 315.585 208.208 315.041 208.208ZM329.484 201.008H330.7V207.184C330.7 207.472 330.748 207.659 330.844 207.744C330.94 207.819 331.143 207.856 331.452 207.856C331.527 207.856 331.655 207.856 331.836 207.856C332.028 207.856 332.236 207.856 332.46 207.856C332.684 207.856 332.892 207.856 333.084 207.856C333.287 207.856 333.436 207.856 333.532 207.856C333.756 207.856 333.922 207.787 334.028 207.648C334.135 207.499 334.21 207.221 334.252 206.816C334.306 206.4 334.338 205.781 334.348 204.96C334.455 205.035 334.572 205.109 334.7 205.184C334.828 205.248 334.962 205.307 335.1 205.36C335.25 205.413 335.378 205.456 335.484 205.488C335.442 206.405 335.362 207.12 335.244 207.632C335.138 208.133 334.956 208.485 334.7 208.688C334.455 208.891 334.098 208.992 333.628 208.992C333.554 208.992 333.404 208.992 333.18 208.992C332.956 208.992 332.716 208.992 332.46 208.992C332.204 208.992 331.964 208.992 331.74 208.992C331.527 208.992 331.383 208.992 331.308 208.992C330.839 208.992 330.466 208.939 330.188 208.832C329.922 208.725 329.735 208.539 329.628 208.272C329.532 208.016 329.484 207.659 329.484 207.2V201.008ZM321.1 200.288H335.228V201.472H321.1V200.288ZM322.508 195.808H333.868V196.96H322.508V195.808ZM325.196 201.2H326.476C326.402 202.096 326.29 202.944 326.14 203.744C325.991 204.544 325.746 205.291 325.404 205.984C325.074 206.667 324.604 207.285 323.996 207.84C323.399 208.395 322.626 208.859 321.676 209.232C321.612 209.093 321.506 208.928 321.356 208.736C321.207 208.555 321.063 208.411 320.924 208.304C321.799 207.973 322.503 207.563 323.036 207.072C323.58 206.581 323.996 206.032 324.284 205.424C324.583 204.805 324.796 204.144 324.924 203.44C325.052 202.725 325.143 201.979 325.196 201.2Z" fill="#4F4F4F"/>
<path d="M175.501 237.768L173.485 238.408V244.232H172.381V238.76C171.437 239.048 170.525 239.336 169.741 239.576L169.421 238.44C170.237 238.216 171.261 237.944 172.381 237.592V234.024H170.925C170.733 234.92 170.509 235.736 170.221 236.392C170.013 236.248 169.565 235.96 169.309 235.864C169.917 234.504 170.221 232.488 170.413 230.536L171.453 230.712C171.373 231.432 171.261 232.168 171.149 232.872H172.381V229.624H173.485V232.872H175.117V234.024H173.485V237.288L175.341 236.712L175.501 237.768ZM177.725 232.28H183.949C183.949 232.28 183.949 232.744 183.933 232.888C183.581 240.136 183.229 242.616 182.589 243.416C182.285 243.832 181.965 243.976 181.485 244.024C181.053 244.088 180.365 244.072 179.661 244.024C179.645 243.672 179.533 243.176 179.325 242.856C180.045 242.92 180.685 242.936 181.005 242.936C181.261 242.936 181.421 242.872 181.597 242.664C182.109 242.104 182.461 239.736 182.781 233.4H182.013C181.213 237.592 179.453 241.848 176.797 243.96C176.573 243.704 176.157 243.416 175.805 243.24C178.429 241.352 180.157 237.416 180.989 233.4H179.677C178.957 236.136 177.485 239.128 175.741 240.648C175.517 240.408 175.133 240.136 174.797 239.96C176.493 238.632 177.917 235.96 178.653 233.4H177.277C176.749 234.568 176.141 235.624 175.453 236.44C175.261 236.248 174.781 235.912 174.541 235.752C175.853 234.328 176.813 232.024 177.341 229.608L178.429 229.832C178.237 230.68 177.997 231.496 177.725 232.28ZM195.997 234.456V231.432H189.645V234.456H195.997ZM197.197 230.296V235.592H188.493V230.296H197.197ZM190.653 238.424H187.309V242.216H190.653V238.424ZM186.173 244.232V237.272H191.821V244.088H190.653V243.368H187.309V244.232H186.173ZM194.717 242.216H198.349V238.424H194.717V242.216ZM193.565 237.272H199.517V244.12H198.349V243.368H194.717V244.232H193.565V237.272ZM213.901 233.272V231.144H209.197V233.272H213.901ZM215.053 230.152V234.264H208.061V230.152H215.053ZM206.973 236.504L207.149 237.576C206.429 237.8 205.725 238.024 205.021 238.232V242.808C205.021 243.496 204.845 243.8 204.429 243.992C204.029 244.184 203.357 244.216 202.269 244.2C202.221 243.912 202.045 243.432 201.901 243.128C202.653 243.144 203.357 243.144 203.549 243.128C203.773 243.128 203.853 243.048 203.853 242.824V238.568L201.773 239.176L201.421 238.024C202.093 237.864 202.941 237.64 203.853 237.4V233.944H201.613V232.824H203.853V229.64H205.021V232.824H207.101V233.944H205.021V237.064C205.661 236.872 206.333 236.696 206.973 236.504ZM215.533 235.432V242.84C215.533 243.496 215.389 243.816 214.941 244.008C214.493 244.2 213.741 244.216 212.589 244.216C212.541 243.88 212.397 243.416 212.237 243.096C213.053 243.128 213.821 243.112 214.045 243.112C214.269 243.112 214.333 243.032 214.333 242.84V240.888C212.557 241.336 210.733 241.816 209.293 242.152L208.861 241.016C210.253 240.76 212.301 240.328 214.333 239.88V236.472H208.909V238.456C208.909 240.232 208.653 242.68 207.293 244.328C207.101 244.12 206.589 243.752 206.333 243.624C207.597 242.088 207.741 240.008 207.741 238.44V235.432H215.533ZM209.325 238.264L209.773 237.432C211.117 237.656 212.829 238.168 213.757 238.616L213.293 239.544C212.397 239.08 210.701 238.536 209.325 238.264ZM221.437 233.32V231.368H219.069V233.32H221.437ZM221.437 236.216V234.248H219.069V236.216H221.437ZM221.437 239.128V237.144H219.069V239.128H221.437ZM222.429 230.376V240.104H218.125V230.376H222.429ZM218.973 240.616L219.901 240.92C219.469 241.944 218.845 243.144 218.333 243.928C218.141 243.768 217.725 243.496 217.517 243.368C218.045 242.616 218.589 241.56 218.973 240.616ZM220.653 241.064L221.405 240.6C221.933 241.352 222.525 242.344 222.813 242.952L221.997 243.496C221.741 242.84 221.133 241.816 220.653 241.064ZM229.597 239.016H225.085V240.408H229.597V239.016ZM225.085 242.584H229.597V241.256H225.085V242.584ZM224.061 244.168V238.072H230.653V244.104H229.597V243.512H225.085V244.168H224.061ZM224.749 233.4L225.421 233.192C225.805 233.912 226.221 234.872 226.413 235.448L225.709 235.736C225.533 235.128 225.133 234.136 224.749 233.4ZM228.925 235.72L228.269 235.48C228.605 234.872 229.053 233.88 229.277 233.208L230.029 233.464C229.677 234.248 229.277 235.128 228.925 235.72ZM230.317 236.28V232.632H227.741V236.28H230.317ZM224.349 232.632V236.28H226.909V232.632H224.349ZM229.245 231.704H231.325V237.208H223.373V231.704H225.389C225.213 231.208 224.813 230.488 224.461 229.944L225.389 229.608C225.805 230.152 226.221 230.888 226.413 231.368L225.645 231.704H228.157C228.573 231.096 229.053 230.2 229.325 229.576L230.413 229.976C230.045 230.552 229.645 231.192 229.245 231.704ZM237.111 239.08V237.96H241.207V239.08H237.111ZM249.724 243.208C247.884 243.208 246.732 242.44 245.964 241.608L246.7 240.648C247.388 241.368 248.284 241.992 249.612 241.992C251.004 241.992 251.996 241.16 251.996 239.8C251.996 238.408 251.052 237.464 248.348 237.464V236.344C250.764 236.344 251.596 235.368 251.596 234.104C251.596 232.984 250.828 232.248 249.612 232.248C248.668 232.248 247.836 232.712 247.18 233.384L246.396 232.456C247.276 231.64 248.316 231.048 249.676 231.048C251.644 231.048 253.084 232.136 253.084 233.992C253.084 235.416 252.236 236.36 251.004 236.824V236.888C252.38 237.208 253.484 238.264 253.484 239.864C253.484 241.96 251.804 243.208 249.724 243.208ZM258.823 243.208C256.583 243.208 255.159 241.176 255.159 237.096C255.159 233.016 256.583 231.048 258.823 231.048C261.047 231.048 262.471 233.032 262.471 237.096C262.471 241.176 261.047 243.208 258.823 243.208ZM258.823 242.04C260.151 242.04 261.047 240.552 261.047 237.096C261.047 233.672 260.151 232.216 258.823 232.216C257.479 232.216 256.583 233.672 256.583 237.096C256.583 240.552 257.479 242.04 258.823 242.04ZM264.658 243V241.784H267.266V233.032H265.186V232.104C266.226 231.912 266.978 231.64 267.618 231.256H268.738V241.784H271.09V243H264.658ZM273.325 246.04L272.973 245.176C273.981 244.728 274.573 243.944 274.573 243C274.509 243.016 274.461 243.016 274.397 243.016C273.837 243.016 273.325 242.664 273.325 241.992C273.325 241.368 273.837 240.968 274.429 240.968C275.197 240.968 275.661 241.624 275.661 242.696C275.661 244.232 274.765 245.432 273.325 246.04ZM281.042 243.208C278.882 243.208 277.298 241.896 277.298 240.088C277.298 238.52 278.386 237.432 279.458 236.856V236.776C278.594 236.184 277.874 235.304 277.874 234.072C277.874 232.28 279.266 231.096 281.09 231.096C283.09 231.096 284.306 232.376 284.306 234.184C284.306 235.416 283.442 236.472 282.738 237.016V237.096C283.762 237.688 284.722 238.568 284.722 240.168C284.722 241.88 283.25 243.208 281.042 243.208ZM281.842 236.632C282.642 235.928 283.058 235.128 283.058 234.264C283.058 233.112 282.338 232.168 281.074 232.168C279.986 232.168 279.202 232.936 279.202 234.072C279.202 235.48 280.466 236.088 281.842 236.632ZM281.074 242.12C282.418 242.12 283.33 241.304 283.33 240.136C283.33 238.568 281.89 237.976 280.226 237.304C279.282 237.912 278.626 238.84 278.626 239.96C278.626 241.208 279.666 242.12 281.074 242.12ZM289.917 243.208C287.757 243.208 286.173 241.896 286.173 240.088C286.173 238.52 287.261 237.432 288.333 236.856V236.776C287.469 236.184 286.749 235.304 286.749 234.072C286.749 232.28 288.141 231.096 289.965 231.096C291.965 231.096 293.181 232.376 293.181 234.184C293.181 235.416 292.317 236.472 291.613 237.016V237.096C292.637 237.688 293.597 238.568 293.597 240.168C293.597 241.88 292.125 243.208 289.917 243.208ZM290.717 236.632C291.517 235.928 291.933 235.128 291.933 234.264C291.933 233.112 291.213 232.168 289.949 232.168C288.861 232.168 288.077 232.936 288.077 234.072C288.077 235.48 289.341 236.088 290.717 236.632ZM289.949 242.12C291.293 242.12 292.205 241.304 292.205 240.136C292.205 238.568 290.765 237.976 289.101 237.304C288.157 237.912 287.501 238.84 287.501 239.96C287.501 241.208 288.541 242.12 289.949 242.12ZM295.032 243V242.136C298.712 238.92 300.408 236.584 300.408 234.568C300.408 233.224 299.704 232.248 298.248 232.248C297.288 232.248 296.456 232.84 295.816 233.608L294.968 232.776C295.928 231.736 296.936 231.048 298.424 231.048C300.52 231.048 301.832 232.424 301.832 234.52C301.832 236.856 299.992 239.24 297.24 241.848C297.848 241.8 298.568 241.736 299.16 241.736H302.408V243H295.032ZM316.883 230.872V232.008H305.619V230.872H316.883ZM314.483 242.808H316.547C317.187 242.808 317.283 242.392 317.363 239.944C317.635 240.168 318.147 240.376 318.467 240.472C318.339 243.192 318.019 243.944 316.627 243.944H314.339C312.915 243.944 312.531 243.528 312.531 242.168V236.472H309.539C309.235 239.896 308.467 242.696 304.787 244.184C304.643 243.896 304.307 243.464 304.035 243.256C307.443 241.96 308.035 239.464 308.275 236.472H304.227V235.32H318.227V236.472H313.731V242.152C313.731 242.696 313.859 242.808 314.483 242.808Z" fill="#4F4F4F"/>
<path d="M173.405 265.72H172.029C171.517 266.52 170.941 267.24 170.365 267.784C170.205 267.592 169.789 267.192 169.533 267C170.525 266.12 171.437 264.84 171.981 263.512L173.037 263.8C172.893 264.12 172.749 264.44 172.573 264.76H176.701V265.72H173.677C174.173 266.152 174.765 266.744 175.069 267.112L174.285 267.768C173.965 267.352 173.309 266.68 172.797 266.184L173.405 265.72ZM181.101 275.224H173.405V276.76H181.101V275.224ZM180.269 270.92H173.405V272.28H180.269V270.92ZM173.405 273.192V274.296H182.269V278.2H181.101V277.688H173.405V278.232H172.221V270.008H181.437V273.192H173.405ZM175.853 267.08L176.909 266.856C177.133 267.224 177.405 267.688 177.549 268.088H183.373V270.696H182.189V269.032H171.613V270.696H170.461V268.088H176.333C176.189 267.752 176.029 267.384 175.853 267.08ZM179.149 264.776H184.013V265.72H180.573C181.149 266.184 181.853 266.792 182.221 267.208L181.421 267.912C181.053 267.464 180.317 266.776 179.725 266.28L180.413 265.72H178.589C178.221 266.216 177.837 266.68 177.421 267.032C177.229 266.856 176.797 266.488 176.525 266.328C177.389 265.64 178.109 264.6 178.509 263.512L179.597 263.784C179.469 264.12 179.325 264.456 179.149 264.776ZM190.445 273.784L190.653 274.92C188.941 275.496 187.117 276.12 185.693 276.584L185.421 275.384C186.013 275.208 186.749 274.984 187.565 274.712V270.392H185.757V269.288H187.565V265.816H185.581V264.696H190.541V265.816H188.701V269.288H190.301V270.392H188.701V274.36L190.445 273.784ZM192.413 268.392V270.424H194.845V268.392H192.413ZM192.413 265.384V267.4H194.845V265.384H192.413ZM198.317 267.4V265.384H195.869V267.4H198.317ZM198.317 270.424V268.392H195.869V270.424H198.317ZM195.965 276.616H200.205V277.704H189.901V276.616H194.765V274.424H191.133V273.336H194.765V271.464H191.325V264.344H199.453V271.464H195.965V273.336H199.693V274.424H195.965V276.616ZM206.429 275.88L207.501 276.36C206.189 277.096 204.173 277.816 202.557 278.232C202.381 277.992 201.965 277.544 201.709 277.336C203.341 277.032 205.293 276.472 206.429 275.88ZM204.893 274.088V275.096H212.893V274.088H204.893ZM210.029 268.728H207.053C206.813 269.144 206.445 269.528 205.917 269.864H213.053C213.021 269.688 212.941 269.496 212.861 269.352C213.357 269.4 213.789 269.416 213.965 269.416C214.141 269.416 214.253 269.4 214.333 269.304C214.413 269.224 214.477 269.064 214.525 268.728H211.149V269.832H210.029V268.728ZM206.445 266.984H204.237C204.189 267.32 204.141 267.64 204.093 267.944H206.205C206.349 267.64 206.413 267.32 206.445 266.984ZM207.565 265.288V266.2H210.029V265.288H207.565ZM213.629 265.288H211.149V266.2H213.629V265.288ZM210.029 267.944V266.984H207.533C207.517 267.32 207.469 267.64 207.373 267.944H210.029ZM212.893 271.624V270.632H204.893V271.624H212.893ZM212.893 273.336V272.36H204.893V273.336H212.893ZM214.077 275.864H211.341C213.005 276.344 214.749 276.952 215.837 277.416L214.941 278.152C213.869 277.656 212.061 276.984 210.237 276.44L210.829 275.864H203.741V270.792C203.325 270.92 202.845 271.032 202.317 271.144C202.205 270.872 201.949 270.44 201.757 270.216C203.773 269.848 204.941 269.336 205.613 268.728H202.893C203.037 268.024 203.197 267.032 203.293 266.2H206.477V265.288H202.573V264.504H206.477V263.624H207.565V264.504H210.029V263.624H211.149V264.504H214.717V266.984H211.149V267.944H215.709C215.709 267.944 215.693 268.184 215.677 268.328C215.581 269.192 215.485 269.656 215.261 269.864C215.053 270.056 214.813 270.136 214.493 270.152C214.381 270.152 214.237 270.168 214.077 270.168V275.864ZM225.469 272.216H229.773V269.56H225.469V272.216ZM220.397 272.216H224.285V269.56H220.461V270.504C220.461 271.032 220.445 271.624 220.397 272.216ZM224.285 265.88H220.461V268.44H224.285V265.88ZM229.773 268.44V265.88H225.469V268.44H229.773ZM230.941 264.744V276.616C230.941 277.384 230.733 277.736 230.221 277.944C229.677 278.136 228.749 278.152 227.245 278.136C227.197 277.816 227.005 277.304 226.845 276.984C227.965 277.032 229.053 277.016 229.341 277.016C229.661 277 229.773 276.904 229.773 276.6V273.352H225.469V278.072H224.285V273.352H220.285C220.045 275.128 219.501 276.952 218.285 278.312C218.109 278.072 217.629 277.672 217.373 277.528C219.133 275.544 219.293 272.728 219.293 270.504V264.744H230.941ZM237.111 273.08V271.96H241.207V273.08H237.111ZM247.34 272.6H250.94V269C250.94 268.424 250.988 267.48 251.02 266.872H250.956C250.668 267.448 250.348 268.024 250.012 268.6L247.34 272.6ZM250.94 277V273.768H245.82V272.808L250.7 265.256H252.316V272.6H253.868V273.768H252.316V277H250.94ZM256.455 268.856C256.455 270.44 257.159 271.464 258.551 271.464C259.351 271.464 260.247 271 260.999 269.896C260.839 267.48 259.943 266.2 258.439 266.2C257.319 266.2 256.455 267.256 256.455 268.856ZM258.119 277.208C256.855 277.208 255.959 276.696 255.303 276.008L256.119 275.096C256.599 275.656 257.319 275.992 258.071 275.992C259.591 275.992 260.903 274.744 261.015 271.112C260.295 271.992 259.287 272.552 258.311 272.552C256.359 272.552 255.079 271.288 255.079 268.856C255.079 266.584 256.615 265.048 258.439 265.048C260.695 265.048 262.375 266.904 262.375 270.632C262.375 275.384 260.327 277.208 258.119 277.208ZM267.714 277.208C265.554 277.208 263.97 275.896 263.97 274.088C263.97 272.52 265.058 271.432 266.13 270.856V270.776C265.266 270.184 264.546 269.304 264.546 268.072C264.546 266.28 265.938 265.096 267.762 265.096C269.762 265.096 270.978 266.376 270.978 268.184C270.978 269.416 270.114 270.472 269.41 271.016V271.096C270.434 271.688 271.394 272.568 271.394 274.168C271.394 275.88 269.922 277.208 267.714 277.208ZM268.514 270.632C269.314 269.928 269.73 269.128 269.73 268.264C269.73 267.112 269.01 266.168 267.746 266.168C266.658 266.168 265.874 266.936 265.874 268.072C265.874 269.48 267.138 270.088 268.514 270.632ZM267.746 276.12C269.09 276.12 270.002 275.304 270.002 274.136C270.002 272.568 268.562 271.976 266.898 271.304C265.954 271.912 265.298 272.84 265.298 273.96C265.298 275.208 266.338 276.12 267.746 276.12ZM273.325 280.04L272.973 279.176C273.981 278.728 274.573 277.944 274.573 277C274.509 277.016 274.461 277.016 274.397 277.016C273.837 277.016 273.325 276.664 273.325 275.992C273.325 275.368 273.837 274.968 274.429 274.968C275.197 274.968 275.661 275.624 275.661 276.696C275.661 278.232 274.765 279.432 273.325 280.04ZM280.802 277.208C278.962 277.208 277.81 276.44 277.042 275.608L277.778 274.648C278.466 275.368 279.362 275.992 280.69 275.992C282.082 275.992 283.074 275.16 283.074 273.8C283.074 272.408 282.13 271.464 279.426 271.464V270.344C281.842 270.344 282.674 269.368 282.674 268.104C282.674 266.984 281.906 266.248 280.69 266.248C279.746 266.248 278.914 266.712 278.258 267.384L277.474 266.456C278.354 265.64 279.394 265.048 280.754 265.048C282.722 265.048 284.162 266.136 284.162 267.992C284.162 269.416 283.314 270.36 282.082 270.824V270.888C283.458 271.208 284.562 272.264 284.562 273.864C284.562 275.96 282.882 277.208 280.802 277.208ZM290.141 270.808C289.405 270.808 288.461 271.24 287.741 272.312C287.917 274.744 288.797 276.072 290.269 276.072C291.389 276.072 292.269 275 292.269 273.4C292.269 271.816 291.565 270.808 290.141 270.808ZM290.269 277.208C288.013 277.208 286.349 275.272 286.349 271.4C286.349 266.808 288.413 265.048 290.685 265.048C291.901 265.048 292.781 265.56 293.421 266.248L292.621 267.16C292.157 266.6 291.453 266.264 290.733 266.264C289.133 266.264 287.773 267.496 287.709 271.144C288.429 270.264 289.453 269.72 290.381 269.72C292.365 269.72 293.629 270.952 293.629 273.4C293.629 275.672 292.093 277.208 290.269 277.208ZM296.408 268.856C296.408 270.44 297.112 271.464 298.504 271.464C299.304 271.464 300.2 271 300.952 269.896C300.792 267.48 299.896 266.2 298.392 266.2C297.272 266.2 296.408 267.256 296.408 268.856ZM298.072 277.208C296.808 277.208 295.912 276.696 295.256 276.008L296.072 275.096C296.552 275.656 297.272 275.992 298.024 275.992C299.544 275.992 300.856 274.744 300.968 271.112C300.248 271.992 299.24 272.552 298.264 272.552C296.312 272.552 295.032 271.288 295.032 268.856C295.032 266.584 296.568 265.048 298.392 265.048C300.648 265.048 302.328 266.904 302.328 270.632C302.328 275.384 300.28 277.208 298.072 277.208ZM316.883 264.872V266.008H305.619V264.872H316.883ZM314.483 276.808H316.547C317.187 276.808 317.283 276.392 317.363 273.944C317.635 274.168 318.147 274.376 318.467 274.472C318.339 277.192 318.019 277.944 316.627 277.944H314.339C312.915 277.944 312.531 277.528 312.531 276.168V270.472H309.539C309.235 273.896 308.467 276.696 304.787 278.184C304.643 277.896 304.307 277.464 304.035 277.256C307.443 275.96 308.035 273.464 308.275 270.472H304.227V269.32H318.227V270.472H313.731V276.152C313.731 276.696 313.859 276.808 314.483 276.808Z" fill="#4F4F4F"/>
<mask id="mask1_281_20563" style="mask-type:luminance" maskUnits="userSpaceOnUse" x="152" y="198" width="11" height="10">
<path d="M162.5 198H152.5V208H162.5V198Z" fill="white"/>
</mask>
<g mask="url(#mask1_281_20563)">
<path d="M162.406 203.094L157.406 198.094L152.406 203.094L157.406 208.094L162.406 203.094Z" fill="url(#paint1_linear_281_20563)"/>
</g>
<mask id="mask2_281_20563" style="mask-type:luminance" maskUnits="userSpaceOnUse" x="152" y="232" width="11" height="10">
<path d="M162.5 232H152.5V242H162.5V232Z" fill="white"/>
</mask>
<g mask="url(#mask2_281_20563)">
<path d="M162.406 237.094L157.406 232.094L152.406 237.094L157.406 242.094L162.406 237.094Z" fill="url(#paint2_linear_281_20563)"/>
</g>
<mask id="mask3_281_20563" style="mask-type:luminance" maskUnits="userSpaceOnUse" x="152" y="266" width="11" height="10">
<path d="M162.5 266H152.5V276H162.5V266Z" fill="white"/>
</mask>
<g mask="url(#mask3_281_20563)">
<path d="M162.406 271.098L157.406 266.098L152.406 271.098L157.406 276.098L162.406 271.098Z" fill="url(#paint3_linear_281_20563)"/>
</g>
<path d="M731.365 224.757C713.289 273.146 657.051 298.54 605.763 281.486C554.474 264.432 527.537 211.372 545.635 162.983C563.711 114.593 619.949 89.1998 671.237 106.254C722.526 123.308 749.463 176.368 731.365 224.757Z" fill="white"/>
<g clip-path="url(#clip1_281_20563)">
<rect width="373" height="350" transform="translate(455)" fill="white"/>
<path d="M785 177C785 268.127 711.127 342 620 342C528.873 342 455 268.127 455 177C455 85.873 528.873 12 620 12C711.127 12 785 85.873 785 177Z" fill="url(#paint4_linear_281_20563)"/>
<path d="M721.563 32.486C727.534 36.7417 733.232 41.3684 738.624 46.339L620 174.999L721.563 32.486Z" fill="url(#paint5_linear_281_20563)"/>
<path d="M738.624 46.339C744.015 51.3095 749.088 56.614 753.813 62.221L620 174.999L738.624 46.339Z" fill="url(#paint6_linear_281_20563)"/>
<path d="M753.814 62.2237C775.215 87.6164 788.949 118.574 793.412 151.481L620 175.002L753.814 62.2237Z" fill="url(#paint7_linear_281_20563)"/>
<path d="M715.76 151.963C729.575 204.861 697.938 258.943 645.048 272.76C592.157 286.576 538.083 254.935 524.238 202.037C510.423 149.139 542.091 95.0568 594.951 81.2401C647.841 67.4235 701.915 99.0651 715.73 151.963" fill="white"/>
<path d="M507.48 262.208C506.755 262.208 506.109 262.075 505.544 261.808C504.979 261.541 504.536 261.173 504.216 260.704C503.896 260.235 503.736 259.696 503.736 259.088C503.736 258.565 503.837 258.096 504.04 257.68C504.253 257.253 504.525 256.891 504.856 256.592C505.187 256.283 505.528 256.032 505.88 255.84V255.776C505.453 255.477 505.08 255.109 504.76 254.672C504.451 254.224 504.296 253.691 504.296 253.072C504.296 252.475 504.435 251.957 504.712 251.52C505 251.072 505.384 250.725 505.864 250.48C506.355 250.224 506.904 250.096 507.512 250.096C508.184 250.096 508.76 250.229 509.24 250.496C509.72 250.763 510.088 251.125 510.344 251.584C510.6 252.043 510.728 252.576 510.728 253.184C510.728 253.589 510.643 253.973 510.472 254.336C510.312 254.699 510.115 255.024 509.88 255.312C509.645 255.589 509.411 255.824 509.176 256.016V256.096C509.517 256.288 509.837 256.523 510.136 256.8C510.435 257.067 510.675 257.397 510.856 257.792C511.048 258.176 511.144 258.64 511.144 259.184C511.144 259.739 510.989 260.251 510.68 260.72C510.381 261.179 509.955 261.541 509.4 261.808C508.856 262.075 508.216 262.208 507.48 262.208ZM508.28 255.632C508.675 255.28 508.973 254.907 509.176 254.512C509.379 254.107 509.48 253.691 509.48 253.264C509.48 252.869 509.4 252.517 509.24 252.208C509.091 251.899 508.867 251.653 508.568 251.472C508.269 251.28 507.912 251.184 507.496 251.184C506.952 251.184 506.504 251.355 506.152 251.696C505.8 252.037 505.624 252.496 505.624 253.072C505.624 253.531 505.747 253.92 505.992 254.24C506.248 254.549 506.579 254.816 506.984 255.04C507.389 255.253 507.821 255.451 508.28 255.632ZM507.496 261.12C507.955 261.12 508.349 261.035 508.68 260.864C509.021 260.693 509.283 260.459 509.464 260.16C509.656 259.861 509.752 259.52 509.752 259.136C509.752 258.741 509.667 258.405 509.496 258.128C509.325 257.84 509.096 257.589 508.808 257.376C508.531 257.163 508.205 256.971 507.832 256.8C507.459 256.629 507.064 256.464 506.648 256.304C506.179 256.603 505.789 256.981 505.48 257.44C505.181 257.888 505.032 258.395 505.032 258.96C505.032 259.365 505.139 259.733 505.352 260.064C505.565 260.395 505.859 260.656 506.232 260.848C506.616 261.029 507.037 261.12 507.496 261.12ZM515.043 262C515.096 260.891 515.187 259.872 515.315 258.944C515.454 258.005 515.651 257.125 515.907 256.304C516.163 255.472 516.488 254.667 516.883 253.888C517.288 253.109 517.779 252.32 518.355 251.52H512.659V250.272H520.003V251.152C519.32 252.037 518.76 252.885 518.323 253.696C517.896 254.507 517.56 255.333 517.315 256.176C517.08 257.019 516.904 257.915 516.787 258.864C516.68 259.803 516.606 260.848 516.563 262H515.043ZM524.03 257.456C523.497 257.456 523.027 257.312 522.622 257.024C522.227 256.725 521.918 256.299 521.694 255.744C521.481 255.189 521.374 254.517 521.374 253.728C521.374 252.939 521.481 252.272 521.694 251.728C521.918 251.184 522.227 250.773 522.622 250.496C523.027 250.208 523.497 250.064 524.03 250.064C524.574 250.064 525.043 250.208 525.438 250.496C525.843 250.773 526.153 251.184 526.366 251.728C526.59 252.272 526.702 252.939 526.702 253.728C526.702 254.517 526.59 255.189 526.366 255.744C526.153 256.299 525.843 256.725 525.438 257.024C525.043 257.312 524.574 257.456 524.03 257.456ZM524.03 256.56C524.499 256.56 524.873 256.325 525.15 255.856C525.438 255.376 525.582 254.667 525.582 253.728C525.582 252.789 525.438 252.096 525.15 251.648C524.873 251.189 524.499 250.96 524.03 250.96C523.571 250.96 523.198 251.189 522.91 251.648C522.622 252.096 522.478 252.789 522.478 253.728C522.478 254.667 522.622 255.376 522.91 255.856C523.198 256.325 523.571 256.56 524.03 256.56ZM524.366 262.208L530.846 250.064H531.838L525.358 262.208H524.366ZM532.206 262.208C531.673 262.208 531.203 262.064 530.798 261.776C530.403 261.488 530.094 261.067 529.87 260.512C529.657 259.957 529.55 259.285 529.55 258.496C529.55 257.707 529.657 257.04 529.87 256.496C530.094 255.952 530.403 255.536 530.798 255.248C531.203 254.96 531.673 254.816 532.206 254.816C532.739 254.816 533.203 254.96 533.598 255.248C534.003 255.536 534.313 255.952 534.526 256.496C534.75 257.04 534.862 257.707 534.862 258.496C534.862 259.285 534.75 259.957 534.526 260.512C534.313 261.067 534.003 261.488 533.598 261.776C533.203 262.064 532.739 262.208 532.206 262.208ZM532.206 261.312C532.665 261.312 533.038 261.077 533.326 260.608C533.625 260.139 533.774 259.435 533.774 258.496C533.774 257.557 533.625 256.859 533.326 256.4C533.038 255.941 532.665 255.712 532.206 255.712C531.747 255.712 531.369 255.941 531.07 256.4C530.782 256.859 530.638 257.557 530.638 258.496C530.638 259.435 530.782 260.139 531.07 260.608C531.369 261.077 531.747 261.312 532.206 261.312Z" fill="white"/>
<path d="M735.658 118.856C735.658 120.44 736.362 121.464 737.754 121.464C738.554 121.464 739.45 121 740.202 119.896C740.042 117.48 739.146 116.2 737.642 116.2C736.522 116.2 735.658 117.256 735.658 118.856ZM737.322 127.208C736.058 127.208 735.162 126.696 734.506 126.008L735.322 125.096C735.802 125.656 736.522 125.992 737.274 125.992C738.794 125.992 740.106 124.744 740.218 121.112C739.498 121.992 738.49 122.552 737.514 122.552C735.562 122.552 734.282 121.288 734.282 118.856C734.282 116.584 735.818 115.048 737.642 115.048C739.898 115.048 741.578 116.904 741.578 120.632C741.578 125.384 739.53 127.208 737.322 127.208ZM745.733 122.456C744.133 122.456 743.077 121.096 743.077 118.728C743.077 116.376 744.133 115.048 745.733 115.048C747.349 115.048 748.405 116.376 748.405 118.728C748.405 121.096 747.349 122.456 745.733 122.456ZM745.733 121.544C746.661 121.544 747.301 120.6 747.301 118.728C747.301 116.856 746.661 115.944 745.733 115.944C744.821 115.944 744.181 116.856 744.181 118.728C744.181 120.6 744.821 121.544 745.733 121.544ZM746.085 127.208L752.549 115.048H753.541L747.061 127.208H746.085ZM753.909 127.208C752.309 127.208 751.237 125.864 751.237 123.496C751.237 121.144 752.309 119.816 753.909 119.816C755.509 119.816 756.565 121.144 756.565 123.496C756.565 125.864 755.509 127.208 753.909 127.208ZM753.909 126.312C754.821 126.312 755.461 125.368 755.461 123.496C755.461 121.624 754.821 120.712 753.909 120.712C752.981 120.712 752.357 121.624 752.357 123.496C752.357 125.368 752.981 126.312 753.909 126.312Z" fill="white"/>
<path d="M737.704 28V27.136C741.384 23.92 743.08 21.584 743.08 19.568C743.08 18.224 742.376 17.248 740.92 17.248C739.96 17.248 739.128 17.84 738.488 18.608L737.64 17.776C738.6 16.736 739.608 16.048 741.096 16.048C743.192 16.048 744.504 17.424 744.504 19.52C744.504 21.856 742.664 24.24 739.912 26.848C740.52 26.8 741.24 26.736 741.832 26.736H745.08V28H737.704ZM749.155 23.456C747.555 23.456 746.499 22.096 746.499 19.728C746.499 17.376 747.555 16.048 749.155 16.048C750.771 16.048 751.827 17.376 751.827 19.728C751.827 22.096 750.771 23.456 749.155 23.456ZM749.155 22.544C750.083 22.544 750.723 21.6 750.723 19.728C750.723 17.856 750.083 16.944 749.155 16.944C748.243 16.944 747.603 17.856 747.603 19.728C747.603 21.6 748.243 22.544 749.155 22.544ZM749.507 28.208L755.971 16.048H756.963L750.483 28.208H749.507ZM757.331 28.208C755.731 28.208 754.659 26.864 754.659 24.496C754.659 22.144 755.731 20.816 757.331 20.816C758.931 20.816 759.987 22.144 759.987 24.496C759.987 26.864 758.931 28.208 757.331 28.208ZM757.331 27.312C758.243 27.312 758.883 26.368 758.883 24.496C758.883 22.624 758.243 21.712 757.331 21.712C756.403 21.712 755.779 22.624 755.779 24.496C755.779 26.368 756.403 27.312 757.331 27.312Z" fill="#E0532E"/>
<path d="M760.704 55V54.136C764.384 50.92 766.08 48.584 766.08 46.568C766.08 45.224 765.376 44.248 763.92 44.248C762.96 44.248 762.128 44.84 761.488 45.608L760.64 44.776C761.6 43.736 762.608 43.048 764.096 43.048C766.192 43.048 767.504 44.424 767.504 46.52C767.504 48.856 765.664 51.24 762.912 53.848C763.52 53.8 764.24 53.736 764.832 53.736H768.08V55H760.704ZM772.155 50.456C770.555 50.456 769.499 49.096 769.499 46.728C769.499 44.376 770.555 43.048 772.155 43.048C773.771 43.048 774.827 44.376 774.827 46.728C774.827 49.096 773.771 50.456 772.155 50.456ZM772.155 49.544C773.083 49.544 773.723 48.6 773.723 46.728C773.723 44.856 773.083 43.944 772.155 43.944C771.243 43.944 770.603 44.856 770.603 46.728C770.603 48.6 771.243 49.544 772.155 49.544ZM772.507 55.208L778.971 43.048H779.963L773.483 55.208H772.507ZM780.331 55.208C778.731 55.208 777.659 53.864 777.659 51.496C777.659 49.144 778.731 47.816 780.331 47.816C781.931 47.816 782.987 49.144 782.987 51.496C782.987 53.864 781.931 55.208 780.331 55.208ZM780.331 54.312C781.243 54.312 781.883 53.368 781.883 51.496C781.883 49.624 781.243 48.712 780.331 48.712C779.403 48.712 778.779 49.624 778.779 51.496C778.779 53.368 779.403 54.312 780.331 54.312Z" fill="#A7AC39"/>
</g>
<path d="M159.776 67.636L158.732 69.022C158.39 68.518 157.706 67.708 157.094 67.006V74.404H155.474V67.42C154.736 68.14 153.944 68.77 153.188 69.256C153.062 68.806 152.702 67.924 152.486 67.6C154.376 66.502 156.284 64.54 157.436 62.452H152.99V60.94H156.392C156.068 60.274 155.384 59.266 154.772 58.582L156.068 57.844C156.734 58.546 157.454 59.5 157.76 60.148L156.464 60.94H158.318L158.606 60.868L159.506 61.498C158.984 62.83 158.228 64.108 157.364 65.278C158.084 65.926 159.416 67.258 159.776 67.636ZM165.212 72.136H169.244V73.774H158.966V72.136H163.502V64.99H159.776V63.388H163.502V57.916H165.212V63.388H168.848V64.99H165.212V72.136ZM182.492 69.562H175.598V70.552H182.492V69.562ZM175.598 72.712H182.492V71.704H175.598V72.712ZM173.942 74.404V68.41H184.202V74.332H182.492V73.846H175.598V74.404H173.942ZM173.294 63.01H185.012C184.04 62.668 183.05 62.254 182.132 61.732V62.254H175.904V61.822C175.076 62.29 174.194 62.668 173.294 63.01ZM183.608 66.592V64.108H179.612V66.592H181.628L180.512 66.25C180.836 65.674 181.214 64.756 181.412 64.144L182.816 64.54C182.42 65.314 182.024 66.07 181.7 66.592H183.608ZM175.22 64.576L176.39 64.216C176.786 64.828 177.182 65.656 177.308 66.196L176.12 66.592H178.244V64.108H174.338V66.592H176.066C175.94 66.034 175.598 65.206 175.22 64.576ZM177.128 61.102H181.07C180.332 60.652 179.666 60.13 179.09 59.59C178.514 60.13 177.83 60.652 177.128 61.102ZM178.766 57.808L180.242 58.33C180.152 58.438 180.08 58.564 179.972 58.672C181.646 60.22 184.688 61.588 187.496 62.182C187.154 62.47 186.686 63.064 186.434 63.46C186.002 63.334 185.534 63.19 185.084 63.028V67.69H172.916V63.154C172.466 63.316 172.034 63.46 171.584 63.586C171.44 63.28 170.972 62.596 170.684 62.308C173.942 61.48 177.128 59.914 178.766 57.808ZM193.562 58.384L195.398 58.96C194.12 61.894 192.086 64.846 190.106 66.664C189.818 66.322 189.062 65.62 188.63 65.278C190.592 63.658 192.464 61.03 193.562 58.384ZM198.836 68.086L200.456 67.366C201.896 69.31 203.588 71.83 204.434 73.45L202.742 74.368C202.49 73.846 202.184 73.27 201.788 72.622C192.77 73.288 191.69 73.36 190.898 73.666C190.826 73.288 190.484 72.352 190.232 71.866C190.772 71.722 191.258 71.182 191.96 70.354C192.698 69.562 194.984 66.43 196.424 63.424L198.368 64.216C196.892 66.844 195.092 69.454 193.292 71.524L200.834 71.074C200.168 70.03 199.466 68.986 198.836 68.086ZM196.388 58.348H200.798C201.626 61.048 203.354 63.676 205.496 65.008C205.1 65.386 204.506 66.142 204.2 66.664C202.166 65.134 200.51 62.614 199.52 60.058H196.388V58.348ZM222.812 61.354V62.83H207.17V61.354H211.634C211.238 60.526 210.554 59.41 209.924 58.564L211.346 57.934C212.084 58.834 212.876 60.04 213.218 60.868L212.246 61.354H217.79L216.8 60.994C217.394 60.166 218.15 58.852 218.564 57.916L220.256 58.42C219.644 59.446 218.924 60.562 218.294 61.354H222.812ZM216.512 64.558L217.376 63.37C219.122 63.982 221.588 64.972 222.884 65.656L221.966 66.988C220.742 66.304 218.312 65.224 216.512 64.558ZM212.228 63.352L213.38 64.162C212.102 65.206 209.798 66.538 208.178 67.294C207.944 66.898 207.53 66.286 207.17 65.944C208.79 65.404 211.076 64.252 212.228 63.352ZM210.59 68.392V72.388H212.498V68.392H210.59ZM215.954 68.392H214.028V72.388H215.954V68.392ZM219.428 68.392H217.484V72.388H219.428V68.392ZM220.994 72.388H223.136V73.864H206.882V72.388H209.096V66.97H220.994V72.388ZM234.026 60.076V60.526C234.026 62.2 233.522 64.162 231.218 65.368C231.02 65.044 230.426 64.378 230.138 64.144C232.172 63.118 232.46 61.732 232.46 60.472V58.528H238.382V62.56C238.382 63.064 238.418 63.262 238.706 63.262H239.912C240.182 63.262 240.596 63.226 240.848 63.154C240.866 63.586 240.92 64.18 240.974 64.558C240.722 64.648 240.326 64.666 239.93 64.666H238.58C237.122 64.666 236.798 64.072 236.798 62.542V60.076H234.026ZM230.336 65.692L230.552 67.222C229.976 67.402 229.382 67.582 228.806 67.726V72.442C228.806 73.306 228.626 73.738 228.104 73.972C227.582 74.242 226.79 74.278 225.548 74.278C225.494 73.864 225.26 73.18 225.062 72.766C225.854 72.784 226.61 72.784 226.826 72.784C227.078 72.766 227.186 72.694 227.186 72.424V68.194L225.098 68.77L224.648 67.168C225.368 67.006 226.232 66.79 227.186 66.538V62.974H224.882V61.426H227.186V57.916H228.806V61.426H230.894V62.974H228.806V66.106L230.336 65.692ZM237.878 67.276H232.874C233.486 68.446 234.332 69.472 235.394 70.318C236.402 69.49 237.248 68.482 237.878 67.276ZM239.012 65.656L240.092 66.106C239.408 68.302 238.238 69.976 236.78 71.29C238.058 72.028 239.57 72.586 241.262 72.91C240.902 73.27 240.452 73.99 240.2 74.458C238.346 74.008 236.726 73.306 235.358 72.352C233.846 73.324 232.118 73.99 230.282 74.458C230.138 73.99 229.76 73.288 229.454 72.928C231.092 72.604 232.658 72.064 234.008 71.272C232.856 70.192 231.956 68.914 231.254 67.438L231.704 67.276H230.804V65.71H238.724L239.012 65.656ZM246.158 58.942H252.098C252.098 62.2 252.512 68.878 259.37 72.928C258.992 73.216 258.308 73.936 258.02 74.35C253.934 71.884 252.008 68.212 251.126 64.9C249.794 69.238 247.544 72.388 244.214 74.386C243.89 74.044 243.116 73.342 242.666 73.036C246.536 71.038 248.714 67.492 249.758 62.614L250.676 62.776C250.55 62.02 250.478 61.282 250.442 60.634H246.158V58.942ZM265.706 58.888V60.148H261.296V58.888H265.706ZM271.988 60.31V60.598C271.988 60.724 271.988 60.868 271.952 61.03C272.924 62.02 274.85 62.632 277.226 62.776C276.902 63.118 276.488 63.712 276.326 64.144C274.274 63.856 272.636 63.208 271.502 62.164C270.854 62.992 269.432 63.766 266.336 64.198C266.174 63.82 265.796 63.262 265.49 62.956H260.918V61.642H266.138V62.83C270.044 62.326 270.458 61.318 270.458 60.544V60.31H268.964C268.568 60.958 268.118 61.534 267.65 61.984C267.38 61.75 266.768 61.318 266.39 61.138C267.326 60.328 268.064 59.086 268.46 57.826L269.954 58.15C269.846 58.456 269.738 58.744 269.612 59.05H275.228L275.462 58.978L276.614 59.356C276.164 60.31 275.552 61.354 275.048 62.02L273.734 61.552C273.968 61.228 274.238 60.76 274.49 60.31H271.988ZM264.878 69.4V70.444H273.32V69.4H264.878ZM264.878 67.366V68.374H273.32V67.366H264.878ZM264.878 65.332V66.358H273.32V65.332H264.878ZM274.994 71.506H271.844C273.698 72.118 275.696 72.874 276.92 73.468L275.408 74.386C274.31 73.792 272.42 72.982 270.566 72.352L271.61 71.506H266.228L267.722 72.19C266.264 73.072 264.014 73.936 262.214 74.44C261.926 74.098 261.332 73.486 260.972 73.18C262.808 72.82 264.914 72.208 266.156 71.506H263.258V64.27H274.994V71.506ZM283.526 59.896L282.5 61.228C281.834 60.706 280.502 59.86 279.548 59.248L280.538 58.078C281.456 58.6 282.824 59.392 283.526 59.896ZM282.662 64.594L281.654 65.944C280.988 65.44 279.656 64.612 278.684 64.054L279.656 62.848C280.592 63.352 281.942 64.108 282.662 64.594ZM281.636 67.51L282.968 68.446C282.266 70.318 281.348 72.478 280.52 74.17L279.008 73.27C279.764 71.866 280.844 69.562 281.636 67.51ZM285.686 60.31V63.712C285.686 66.844 285.362 71.398 283.256 74.368C282.968 74.098 282.248 73.666 281.852 73.486C283.868 70.678 284.048 66.628 284.048 63.712V58.798H295.064V60.31H285.686ZM287.036 69.31L288.53 69.724C287.954 71.02 287.09 72.478 286.352 73.378C286.046 73.162 285.398 72.766 285.02 72.568C285.794 71.722 286.568 70.462 287.036 69.31ZM288.044 65.872V67.186H292.904V65.872H288.044ZM288.044 63.388V64.684H292.904V63.388H288.044ZM294.47 68.428H291.176V72.766C291.176 73.522 291.05 73.936 290.51 74.152C289.988 74.404 289.196 74.422 288.026 74.404C287.972 73.99 287.756 73.378 287.594 72.964C288.35 73 289.088 72.982 289.304 72.982C289.52 72.982 289.592 72.91 289.592 72.712V68.428H286.55V62.128H289.124C289.304 61.57 289.502 60.904 289.61 60.418L291.482 60.76C291.248 61.246 290.996 61.696 290.78 62.128H294.47V68.428ZM292.076 69.688L293.516 69.148C294.182 70.228 295.028 71.686 295.424 72.568L293.894 73.234C293.516 72.334 292.724 70.822 292.076 69.688Z" fill="black"/>
<path d="M163.367 111.844V110.528H160.665V111.844H163.367ZM164.333 109.828V112.544H159.713V109.828H164.333ZM157.613 111.844V110.528H154.939V111.844H157.613ZM158.593 109.828V112.544H154.001V109.828H158.593ZM155.387 117.276H158.551V116.072H155.387V117.276ZM155.387 114.084V115.274H158.551V114.084H155.387ZM162.947 115.274V114.084H159.615V115.274H162.947ZM162.947 117.276V116.072H159.615V117.276H162.947ZM165.299 119.18V120.09H159.615V122.064H158.551V120.09H152.979V119.18H158.551V118.116H154.379V113.244H164.011V118.116H159.615V119.18H165.299ZM175.771 111.354L174.749 111.662C174.637 111.074 174.357 110.136 174.091 109.436L175.071 109.184C175.323 109.884 175.645 110.78 175.771 111.354ZM178.851 111.816V112.824H171.305V111.816H178.851ZM174.189 119.558L173.167 119.852C173.055 118.396 172.649 115.834 172.215 113.888L173.153 113.678C173.615 115.624 174.035 118.13 174.189 119.558ZM170.157 109.338L171.137 109.632C170.759 110.654 170.269 111.648 169.723 112.6V122.05H168.687V114.224C168.253 114.854 167.777 115.414 167.301 115.918C167.203 115.666 166.909 115.134 166.713 114.896C168.085 113.552 169.387 111.466 170.157 109.338ZM176.569 120.496H179.425V121.504H170.717V120.496H175.603C176.107 118.62 176.667 115.652 176.933 113.566L178.011 113.762C177.647 115.904 177.073 118.634 176.569 120.496ZM185.202 115.54C184.698 115.54 184.278 115.134 184.278 114.574C184.278 113.986 184.698 113.58 185.202 113.58C185.706 113.58 186.126 113.986 186.126 114.574C186.126 115.134 185.706 115.54 185.202 115.54ZM185.202 121.182C184.698 121.182 184.278 120.79 184.278 120.216C184.278 119.628 184.698 119.222 185.202 119.222C185.706 119.222 186.126 119.628 186.126 120.216C186.126 120.79 185.706 121.182 185.202 121.182ZM197.325 110.752V111.62H191.193V110.752H193.937C193.755 110.332 193.517 109.856 193.321 109.478L194.329 109.212C194.623 109.688 194.931 110.29 195.127 110.752H197.325ZM193.503 113.622L192.635 113.86C192.565 113.342 192.341 112.53 192.103 111.914L192.929 111.718C193.209 112.32 193.447 113.104 193.503 113.622ZM192.271 117.906L193.125 118.144C192.789 119.138 192.201 120.23 191.683 120.93C191.515 120.804 191.165 120.538 190.955 120.426C191.501 119.768 191.991 118.816 192.271 117.906ZM197.381 117.164H194.847V122.022H193.825V117.164H191.039V116.268H193.825V114.798H190.969V113.916H194.833C195.099 113.272 195.421 112.348 195.589 111.704L196.541 111.9C196.289 112.572 196.023 113.328 195.757 113.916H197.535V114.798H194.847V116.268H197.381V117.164ZM195.477 118.2L196.191 117.822C196.639 118.508 197.129 119.418 197.367 120.02L196.625 120.44C196.401 119.838 195.897 118.872 195.477 118.2ZM203.639 113.972V114.952H202.113V122.008H201.105V114.952H199.187V115.442C199.187 117.444 199.005 120.188 197.731 122.008C197.563 121.812 197.157 121.49 196.933 121.378C198.109 119.698 198.221 117.304 198.221 115.442V110.626C199.789 110.374 201.567 109.954 202.575 109.534L203.401 110.304C202.253 110.738 200.657 111.088 199.187 111.312V113.972H203.639ZM210.737 111.564V110.836H205.193V110.108H210.737V109.282H211.759V110.108H217.401V110.836H211.759V111.564H216.365V112.25H206.215V111.564H210.737ZM217.121 117.444H216.141V116.184H206.397V117.444H205.459V115.456H217.121V117.444ZM214.755 114.252V113.454H207.811V114.252H214.755ZM206.845 112.838H215.777V114.868H206.845V112.838ZM212.921 117.43H210.457C209.967 117.752 209.477 118.018 208.987 118.242L213.873 118.172C213.509 117.934 213.131 117.724 212.795 117.542L212.921 117.43ZM211.759 120.986H217.401V121.756H205.193V120.986H210.737V120.244H206.537V119.558H210.737V118.872C208.007 118.942 207.615 118.97 207.335 119.054C207.293 118.886 207.181 118.508 207.097 118.298C207.307 118.284 207.573 118.228 207.853 118.116C208.077 118.032 208.637 117.78 209.225 117.43H206.817V116.786H215.693V117.43H214.097C214.853 117.864 215.623 118.41 216.085 118.802L215.441 119.348C215.273 119.18 215.021 118.984 214.755 118.774L211.759 118.844V119.558H216.141V120.244H211.759V120.986ZM224.583 109.548L225.451 109.884C225.045 110.486 224.611 111.116 224.247 111.536L223.617 111.256C223.939 110.78 224.359 110.038 224.583 109.548ZM221.335 111.158L220.565 111.536C220.397 111.102 219.991 110.416 219.627 109.926L220.369 109.604C220.761 110.066 221.167 110.71 221.335 111.158ZM230.267 117.164V120.258C230.267 120.79 230.141 121.056 229.707 121.196C229.259 121.35 228.531 121.35 227.369 121.35C227.313 121.084 227.159 120.734 227.019 120.482C227.901 120.496 228.727 120.496 228.951 120.496C229.175 120.482 229.245 120.426 229.245 120.244V118.074H225.759V122.078H224.737V118.074H221.503V121.392H220.481V117.164H224.737V116.296H225.759V117.164H230.267ZM221.097 112.81L221.699 112.936C221.573 113.762 221.363 114.63 221.069 115.218C220.943 115.148 220.691 114.994 220.509 114.938C220.817 114.35 220.985 113.58 221.097 112.81ZM223.197 112.964L223.715 112.81C224.009 113.51 224.247 114.42 224.317 114.994L223.757 115.162C223.701 114.574 223.477 113.664 223.197 112.964ZM229.763 111.55H227.397C227.677 112.306 228.083 112.992 228.601 113.594C229.105 113.034 229.497 112.348 229.763 111.55ZM231.569 111.55H230.743C230.421 112.628 229.889 113.524 229.217 114.238C229.917 114.882 230.757 115.372 231.695 115.68C231.499 115.834 231.233 116.184 231.121 116.408C230.155 116.058 229.315 115.512 228.601 114.826C227.901 115.4 227.075 115.862 226.123 116.226C226.025 116.016 225.759 115.61 225.591 115.428C226.515 115.12 227.327 114.7 227.999 114.168C227.537 113.594 227.131 112.95 226.823 112.25C226.571 112.572 226.319 112.852 226.025 113.104C225.899 112.95 225.591 112.628 225.381 112.474V116.058H224.555V112.306H222.833V116.282H222.119V112.306H220.383V116.436H219.585V111.606H222.007V109.296H222.931V111.606H225.381V112.432C226.291 111.676 226.991 110.556 227.355 109.296L228.237 109.478C228.111 109.898 227.957 110.332 227.761 110.724H231.569V111.55ZM238.76 123.758C237.472 121.658 236.702 119.404 236.702 116.646C236.702 113.902 237.472 111.634 238.76 109.548L239.558 109.912C238.34 111.914 237.766 114.266 237.766 116.646C237.766 119.026 238.34 121.392 239.558 123.38L238.76 123.758ZM252.115 110.388V111.382H242.259V110.388H252.115ZM250.015 120.832H251.821C252.381 120.832 252.465 120.468 252.535 118.326C252.773 118.522 253.221 118.704 253.501 118.788C253.389 121.168 253.109 121.826 251.891 121.826H249.889C248.643 121.826 248.307 121.462 248.307 120.272V115.288H245.689C245.423 118.284 244.751 120.734 241.531 122.036C241.405 121.784 241.111 121.406 240.873 121.224C243.855 120.09 244.373 117.906 244.583 115.288H241.041V114.28H253.291V115.288H249.357V120.258C249.357 120.734 249.469 120.832 250.015 120.832ZM255.531 123.758L254.747 123.38C255.951 121.392 256.539 119.026 256.539 116.646C256.539 114.266 255.951 111.914 254.747 109.912L255.531 109.548C256.833 111.634 257.603 113.902 257.603 116.646C257.603 119.404 256.833 121.658 255.531 123.758Z" fill="#4F4F4F"/>
</g>
<defs>
<linearGradient id="paint0_linear_281_20563" x1="157" y1="163" x2="157" y2="173" gradientUnits="userSpaceOnUse">
<stop stop-color="#FF9E45"/>
<stop offset="1" stop-color="#FF7A00"/>
</linearGradient>
<linearGradient id="paint1_linear_281_20563" x1="157.5" y1="198" x2="157.5" y2="208" gradientUnits="userSpaceOnUse">
<stop stop-color="#6FC7E2"/>
<stop offset="1" stop-color="#00AED4"/>
</linearGradient>
<linearGradient id="paint2_linear_281_20563" x1="157" y1="232" x2="157" y2="242" gradientUnits="userSpaceOnUse">
<stop stop-color="#C2C559"/>
<stop offset="1" stop-color="#A7AC39"/>
</linearGradient>
<linearGradient id="paint3_linear_281_20563" x1="157" y1="266.004" x2="157" y2="276.004" gradientUnits="userSpaceOnUse">
<stop stop-color="#DF6F2A"/>
<stop offset="1" stop-color="#E0532E"/>
</linearGradient>
<linearGradient id="paint4_linear_281_20563" x1="620" y1="12" x2="620" y2="342" gradientUnits="userSpaceOnUse">
<stop stop-color="#FF9E45"/>
<stop offset="1" stop-color="#FF7A00"/>
</linearGradient>
<linearGradient id="paint5_linear_281_20563" x1="721.563" y1="32.486" x2="721.563" y2="128.5" gradientUnits="userSpaceOnUse">
<stop stop-color="#DF6F2A"/>
<stop offset="1" stop-color="#E0532E"/>
</linearGradient>
<linearGradient id="paint6_linear_281_20563" x1="725.5" y1="48" x2="725.5" y2="126" gradientUnits="userSpaceOnUse">
<stop stop-color="#C2C559"/>
<stop offset="1" stop-color="#A7AC39"/>
</linearGradient>
<linearGradient id="paint7_linear_281_20563" x1="740.5" y1="81.0019" x2="744" y2="164.502" gradientUnits="userSpaceOnUse">
<stop stop-color="#6FC7E2"/>
<stop offset="1" stop-color="#00AED4"/>
</linearGradient>
<clipPath id="clip0_281_20563">
<rect width="876" height="350" fill="white"/>
</clipPath>
<clipPath id="clip1_281_20563">
<rect width="373" height="350" fill="white" transform="translate(455)"/>
</clipPath>
</defs>
</svg>
