<svg width="876" height="371" viewBox="0 0 876 371" fill="none" xmlns="http://www.w3.org/2000/svg">
<g clip-path="url(#clip0_416_54713)">
<path d="M876 0H0V371H876V0Z" fill="white"/>
<g clip-path="url(#clip1_416_54713)">
<path d="M823 203.578C823 294.705 749.127 368.578 658 368.578C566.873 368.578 493 294.705 493 203.578C493 112.451 566.873 38.5781 658 38.5781C749.127 38.5781 823 112.451 823 203.578Z" fill="url(#paint0_linear_416_54713)"/>
<path d="M697.652 34.9068C703.726 36.3022 709.721 38.0212 715.612 40.0563L658.468 205.463L697.652 34.9068Z" fill="url(#paint1_linear_416_54713)"/>
<path d="M769.165 69.9231C772.827 72.9143 776.367 76.0527 779.775 79.3306L658.468 205.463L769.165 69.9231Z" fill="url(#paint2_linear_416_54713)"/>
<path d="M779.678 79.2375C786.608 85.8924 792.979 93.1069 798.725 100.808L658.468 205.463L779.678 79.2375Z" fill="url(#paint3_linear_416_54713)"/>
<path d="M715.264 39.941C734.868 46.6678 753.121 56.8235 769.173 69.9349L658.466 205.468L715.264 39.941Z" fill="url(#paint4_linear_416_54713)"/>
<path d="M753.76 178.541C767.575 231.439 735.938 285.521 683.048 299.338C630.157 313.154 576.083 281.513 562.238 228.615C548.423 175.717 580.091 121.635 632.951 107.818C685.841 94.0017 739.915 125.643 753.73 178.541" fill="white"/>
<path d="M544.576 302.224C543.84 302.224 543.184 302.091 542.608 301.824C542.032 301.547 541.573 301.173 541.232 300.704C540.901 300.224 540.736 299.68 540.736 299.072C540.736 298.549 540.837 298.085 541.04 297.68C541.243 297.275 541.504 296.928 541.824 296.64C542.144 296.341 542.48 296.096 542.832 295.904V295.824C542.405 295.515 542.037 295.136 541.728 294.688C541.419 294.229 541.264 293.691 541.264 293.072C541.264 292.464 541.408 291.931 541.696 291.472C541.995 291.013 542.395 290.661 542.896 290.416C543.408 290.16 543.989 290.032 544.64 290.032C545.323 290.032 545.909 290.165 546.4 290.432C546.891 290.699 547.269 291.067 547.536 291.536C547.813 291.995 547.952 292.533 547.952 293.152C547.952 293.547 547.872 293.92 547.712 294.272C547.552 294.624 547.355 294.944 547.12 295.232C546.896 295.509 546.656 295.739 546.4 295.92V296C546.763 296.192 547.093 296.432 547.392 296.72C547.691 296.997 547.931 297.333 548.112 297.728C548.293 298.123 548.384 298.587 548.384 299.12C548.384 299.696 548.224 300.219 547.904 300.688C547.595 301.157 547.152 301.531 546.576 301.808C546.011 302.085 545.344 302.224 544.576 302.224ZM545.36 295.456C545.701 295.125 545.957 294.779 546.128 294.416C546.309 294.043 546.4 293.653 546.4 293.248C546.4 292.896 546.331 292.576 546.192 292.288C546.053 292 545.845 291.776 545.568 291.616C545.301 291.445 544.976 291.36 544.592 291.36C544.112 291.36 543.712 291.515 543.392 291.824C543.072 292.123 542.912 292.539 542.912 293.072C542.912 293.499 543.024 293.856 543.248 294.144C543.472 294.432 543.771 294.677 544.144 294.88C544.517 295.083 544.923 295.275 545.36 295.456ZM544.624 300.88C545.019 300.88 545.365 300.805 545.664 300.656C545.973 300.507 546.213 300.299 546.384 300.032C546.555 299.755 546.64 299.429 546.64 299.056C546.64 298.704 546.565 298.4 546.416 298.144C546.267 297.877 546.059 297.648 545.792 297.456C545.536 297.264 545.232 297.088 544.88 296.928C544.528 296.757 544.149 296.592 543.744 296.432C543.339 296.72 543.008 297.077 542.752 297.504C542.496 297.92 542.368 298.379 542.368 298.88C542.368 299.275 542.464 299.621 542.656 299.92C542.859 300.219 543.131 300.453 543.472 300.624C543.813 300.795 544.197 300.88 544.624 300.88ZM554.053 302.224C553.488 302.224 552.96 302.107 552.469 301.872C551.978 301.627 551.546 301.264 551.173 300.784C550.8 300.293 550.506 299.68 550.293 298.944C550.08 298.208 549.973 297.339 549.973 296.336C549.973 295.205 550.096 294.24 550.341 293.44C550.586 292.629 550.917 291.973 551.333 291.472C551.749 290.971 552.224 290.603 552.757 290.368C553.29 290.123 553.845 290 554.421 290C555.082 290 555.653 290.123 556.133 290.368C556.624 290.613 557.034 290.912 557.365 291.264L556.357 292.384C556.144 292.128 555.872 291.92 555.541 291.76C555.21 291.589 554.869 291.504 554.517 291.504C554.005 291.504 553.53 291.659 553.093 291.968C552.666 292.267 552.325 292.768 552.069 293.472C551.813 294.176 551.685 295.131 551.685 296.336C551.685 297.349 551.781 298.187 551.973 298.848C552.165 299.499 552.437 299.989 552.789 300.32C553.141 300.64 553.552 300.8 554.021 300.8C554.373 300.8 554.682 300.699 554.949 300.496C555.226 300.293 555.445 300.011 555.605 299.648C555.765 299.275 555.845 298.837 555.845 298.336C555.845 297.835 555.77 297.408 555.621 297.056C555.472 296.704 555.253 296.437 554.965 296.256C554.688 296.075 554.341 295.984 553.925 295.984C553.573 295.984 553.194 296.096 552.789 296.32C552.394 296.544 552.016 296.928 551.653 297.472L551.589 296.128C551.813 295.808 552.074 295.541 552.373 295.328C552.672 295.104 552.981 294.933 553.301 294.816C553.632 294.699 553.946 294.64 554.245 294.64C554.906 294.64 555.482 294.779 555.973 295.056C556.474 295.323 556.864 295.728 557.141 296.272C557.429 296.816 557.573 297.504 557.573 298.336C557.573 299.115 557.408 299.797 557.077 300.384C556.757 300.96 556.33 301.413 555.797 301.744C555.274 302.064 554.693 302.224 554.053 302.224ZM560.634 302.224C560.293 302.224 559.999 302.101 559.754 301.856C559.519 301.6 559.402 301.285 559.402 300.912C559.402 300.528 559.519 300.219 559.754 299.984C559.999 299.739 560.293 299.616 560.634 299.616C560.986 299.616 561.279 299.739 561.514 299.984C561.759 300.219 561.882 300.528 561.882 300.912C561.882 301.285 561.759 301.6 561.514 301.856C561.279 302.101 560.986 302.224 560.634 302.224ZM567.592 302.224C566.824 302.224 566.152 301.995 565.576 301.536C565 301.077 564.552 300.395 564.232 299.488C563.922 298.571 563.768 297.429 563.768 296.064C563.768 294.699 563.922 293.568 564.232 292.672C564.552 291.776 565 291.109 565.576 290.672C566.152 290.224 566.824 290 567.592 290C568.36 290 569.026 290.224 569.592 290.672C570.157 291.12 570.594 291.792 570.904 292.688C571.224 293.573 571.384 294.699 571.384 296.064C571.384 297.429 571.224 298.571 570.904 299.488C570.594 300.395 570.157 301.077 569.592 301.536C569.026 301.995 568.36 302.224 567.592 302.224ZM567.592 300.752C567.986 300.752 568.338 300.597 568.648 300.288C568.957 299.979 569.197 299.483 569.368 298.8C569.538 298.107 569.624 297.195 569.624 296.064C569.624 294.933 569.538 294.032 569.368 293.36C569.197 292.688 568.957 292.203 568.648 291.904C568.338 291.605 567.986 291.456 567.592 291.456C567.197 291.456 566.845 291.605 566.536 291.904C566.226 292.203 565.981 292.688 565.8 293.36C565.629 294.032 565.544 294.933 565.544 296.064C565.544 297.195 565.629 298.107 565.8 298.8C565.981 299.483 566.226 299.979 566.536 300.288C566.845 300.597 567.197 300.752 567.592 300.752ZM576.717 302.224C575.949 302.224 575.277 301.995 574.701 301.536C574.125 301.077 573.677 300.395 573.357 299.488C573.047 298.571 572.893 297.429 572.893 296.064C572.893 294.699 573.047 293.568 573.357 292.672C573.677 291.776 574.125 291.109 574.701 290.672C575.277 290.224 575.949 290 576.717 290C577.485 290 578.151 290.224 578.717 290.672C579.282 291.12 579.719 291.792 580.029 292.688C580.349 293.573 580.509 294.699 580.509 296.064C580.509 297.429 580.349 298.571 580.029 299.488C579.719 300.395 579.282 301.077 578.717 301.536C578.151 301.995 577.485 302.224 576.717 302.224ZM576.717 300.752C577.111 300.752 577.463 300.597 577.773 300.288C578.082 299.979 578.322 299.483 578.493 298.8C578.663 298.107 578.749 297.195 578.749 296.064C578.749 294.933 578.663 294.032 578.493 293.36C578.322 292.688 578.082 292.203 577.773 291.904C577.463 291.605 577.111 291.456 576.717 291.456C576.322 291.456 575.97 291.605 575.661 291.904C575.351 292.203 575.106 292.688 574.925 293.36C574.754 294.032 574.669 294.933 574.669 296.064C574.669 297.195 574.754 298.107 574.925 298.8C575.106 299.483 575.351 299.979 575.661 300.288C575.97 300.597 576.322 300.752 576.717 300.752ZM584.594 297.44C584.05 297.44 583.57 297.296 583.154 297.008C582.738 296.709 582.412 296.283 582.178 295.728C581.954 295.163 581.842 294.485 581.842 293.696C581.842 292.907 581.954 292.24 582.178 291.696C582.412 291.141 582.738 290.72 583.154 290.432C583.57 290.144 584.05 290 584.594 290C585.148 290 585.634 290.144 586.05 290.432C586.466 290.72 586.786 291.141 587.01 291.696C587.244 292.24 587.362 292.907 587.362 293.696C587.362 294.485 587.244 295.163 587.01 295.728C586.786 296.283 586.466 296.709 586.05 297.008C585.634 297.296 585.148 297.44 584.594 297.44ZM584.594 296.368C585.01 296.368 585.346 296.149 585.602 295.712C585.868 295.275 586.002 294.603 586.002 293.696C586.002 292.789 585.868 292.128 585.602 291.712C585.346 291.296 585.01 291.088 584.594 291.088C584.188 291.088 583.852 291.296 583.586 291.712C583.319 292.128 583.186 292.789 583.186 293.696C583.186 294.603 583.319 295.275 583.586 295.712C583.852 296.149 584.188 296.368 584.594 296.368ZM584.962 302.224L591.41 290H592.578L586.13 302.224H584.962ZM592.962 302.224C592.418 302.224 591.938 302.075 591.522 301.776C591.106 301.477 590.78 301.051 590.546 300.496C590.322 299.941 590.21 299.269 590.21 298.48C590.21 297.68 590.322 297.008 590.546 296.464C590.78 295.92 591.106 295.504 591.522 295.216C591.938 294.917 592.418 294.768 592.962 294.768C593.506 294.768 593.986 294.917 594.402 295.216C594.818 295.504 595.138 295.92 595.362 296.464C595.596 297.008 595.714 297.68 595.714 298.48C595.714 299.269 595.596 299.941 595.362 300.496C595.138 301.051 594.818 301.477 594.402 301.776C593.986 302.075 593.506 302.224 592.962 302.224ZM592.962 301.12C593.367 301.12 593.703 300.907 593.97 300.48C594.247 300.053 594.386 299.387 594.386 298.48C594.386 297.563 594.247 296.896 593.97 296.48C593.703 296.064 593.367 295.856 592.962 295.856C592.556 295.856 592.22 296.064 591.954 296.48C591.687 296.896 591.554 297.563 591.554 298.48C591.554 299.387 591.687 300.053 591.954 300.48C592.22 300.907 592.556 301.12 592.962 301.12Z" fill="white"/>
<path d="M783.288 67.224C782.669 67.224 782.12 67.1493 781.64 67C781.171 66.8507 780.755 66.6533 780.392 66.408C780.029 66.152 779.715 65.88 779.448 65.592L780.344 64.408C780.696 64.7493 781.096 65.048 781.544 65.304C781.992 65.56 782.52 65.688 783.128 65.688C783.576 65.688 783.965 65.6133 784.296 65.464C784.627 65.304 784.883 65.08 785.064 64.792C785.256 64.504 785.352 64.152 785.352 63.736C785.352 63.3093 785.245 62.936 785.032 62.616C784.829 62.2853 784.472 62.0347 783.96 61.864C783.459 61.6827 782.765 61.592 781.88 61.592V60.216C782.659 60.216 783.267 60.1307 783.704 59.96C784.152 59.7787 784.472 59.5333 784.664 59.224C784.867 58.9147 784.968 58.5627 784.968 58.168C784.968 57.656 784.808 57.2507 784.488 56.952C784.168 56.6427 783.725 56.488 783.16 56.488C782.712 56.488 782.291 56.5893 781.896 56.792C781.512 56.984 781.149 57.2453 780.808 57.576L779.848 56.424C780.317 55.9973 780.829 55.656 781.384 55.4C781.939 55.1333 782.552 55 783.224 55C783.928 55 784.552 55.1227 785.096 55.368C785.64 55.6027 786.067 55.944 786.376 56.392C786.685 56.84 786.84 57.3893 786.84 58.04C786.84 58.712 786.653 59.2827 786.28 59.752C785.917 60.2213 785.427 60.5733 784.808 60.808V60.872C785.256 60.9893 785.661 61.1813 786.024 61.448C786.397 61.704 786.691 62.0347 786.904 62.44C787.117 62.8453 787.224 63.3093 787.224 63.832C787.224 64.536 787.043 65.144 786.68 65.656C786.328 66.1573 785.853 66.5467 785.256 66.824C784.659 67.0907 784.003 67.224 783.288 67.224ZM790.509 67.224C790.168 67.224 789.874 67.1013 789.629 66.856C789.394 66.6 789.277 66.2853 789.277 65.912C789.277 65.528 789.394 65.2187 789.629 64.984C789.874 64.7387 790.168 64.616 790.509 64.616C790.861 64.616 791.154 64.7387 791.389 64.984C791.634 65.2187 791.757 65.528 791.757 65.912C791.757 66.2853 791.634 66.6 791.389 66.856C791.154 67.1013 790.861 67.224 790.509 67.224ZM797.179 67.224C796.56 67.224 796.011 67.1493 795.531 67C795.061 66.8507 794.645 66.6533 794.283 66.408C793.92 66.152 793.605 65.88 793.339 65.592L794.235 64.408C794.587 64.7493 794.987 65.048 795.435 65.304C795.883 65.56 796.411 65.688 797.019 65.688C797.467 65.688 797.856 65.6133 798.187 65.464C798.517 65.304 798.773 65.08 798.955 64.792C799.147 64.504 799.243 64.152 799.243 63.736C799.243 63.3093 799.136 62.936 798.923 62.616C798.72 62.2853 798.363 62.0347 797.851 61.864C797.349 61.6827 796.656 61.592 795.771 61.592V60.216C796.549 60.216 797.157 60.1307 797.595 59.96C798.043 59.7787 798.363 59.5333 798.555 59.224C798.757 58.9147 798.859 58.5627 798.859 58.168C798.859 57.656 798.699 57.2507 798.379 56.952C798.059 56.6427 797.616 56.488 797.051 56.488C796.603 56.488 796.181 56.5893 795.787 56.792C795.403 56.984 795.04 57.2453 794.699 57.576L793.739 56.424C794.208 55.9973 794.72 55.656 795.275 55.4C795.829 55.1333 796.443 55 797.115 55C797.819 55 798.443 55.1227 798.987 55.368C799.531 55.6027 799.957 55.944 800.267 56.392C800.576 56.84 800.731 57.3893 800.731 58.04C800.731 58.712 800.544 59.2827 800.171 59.752C799.808 60.2213 799.317 60.5733 798.699 60.808V60.872C799.147 60.9893 799.552 61.1813 799.915 61.448C800.288 61.704 800.581 62.0347 800.795 62.44C801.008 62.8453 801.115 63.3093 801.115 63.832C801.115 64.536 800.933 65.144 800.571 65.656C800.219 66.1573 799.744 66.5467 799.147 66.824C798.549 67.0907 797.893 67.224 797.179 67.224ZM803.376 67V65.48H805.968V57.288H803.856V56.12C804.41 56.024 804.89 55.9013 805.296 55.752C805.712 55.6027 806.09 55.4213 806.432 55.208H807.824V65.48H810.112V67H803.376ZM814.469 62.44C813.925 62.44 813.445 62.296 813.029 62.008C812.613 61.7093 812.287 61.2827 812.053 60.728C811.829 60.1627 811.717 59.4853 811.717 58.696C811.717 57.9067 811.829 57.24 812.053 56.696C812.287 56.1413 812.613 55.72 813.029 55.432C813.445 55.144 813.925 55 814.469 55C815.023 55 815.509 55.144 815.925 55.432C816.341 55.72 816.661 56.1413 816.885 56.696C817.119 57.24 817.237 57.9067 817.237 58.696C817.237 59.4853 817.119 60.1627 816.885 60.728C816.661 61.2827 816.341 61.7093 815.925 62.008C815.509 62.296 815.023 62.44 814.469 62.44ZM814.469 61.368C814.885 61.368 815.221 61.1493 815.477 60.712C815.743 60.2747 815.877 59.6027 815.877 58.696C815.877 57.7893 815.743 57.128 815.477 56.712C815.221 56.296 814.885 56.088 814.469 56.088C814.063 56.088 813.727 56.296 813.461 56.712C813.194 57.128 813.061 57.7893 813.061 58.696C813.061 59.6027 813.194 60.2747 813.461 60.712C813.727 61.1493 814.063 61.368 814.469 61.368ZM814.837 67.224L821.285 55H822.453L816.005 67.224H814.837ZM822.837 67.224C822.293 67.224 821.813 67.0747 821.397 66.776C820.981 66.4773 820.655 66.0507 820.421 65.496C820.197 64.9413 820.085 64.2693 820.085 63.48C820.085 62.68 820.197 62.008 820.421 61.464C820.655 60.92 820.981 60.504 821.397 60.216C821.813 59.9173 822.293 59.768 822.837 59.768C823.381 59.768 823.861 59.9173 824.277 60.216C824.693 60.504 825.013 60.92 825.237 61.464C825.471 62.008 825.589 62.68 825.589 63.48C825.589 64.2693 825.471 64.9413 825.237 65.496C825.013 66.0507 824.693 66.4773 824.277 66.776C823.861 67.0747 823.381 67.224 822.837 67.224ZM822.837 66.12C823.242 66.12 823.578 65.9067 823.845 65.48C824.122 65.0533 824.261 64.3867 824.261 63.48C824.261 62.5627 824.122 61.896 823.845 61.48C823.578 61.064 823.242 60.856 822.837 60.856C822.431 60.856 822.095 61.064 821.829 61.48C821.562 61.896 821.429 62.5627 821.429 63.48C821.429 64.3867 821.562 65.0533 821.829 65.48C822.095 65.9067 822.431 66.12 822.837 66.12Z" fill="#4985C6"/>
<path d="M690.36 22V20.48H692.952V12.288H690.84V11.12C691.395 11.024 691.875 10.9013 692.28 10.752C692.696 10.6027 693.075 10.4213 693.416 10.208H694.808V20.48H697.096V22H690.36ZM700.509 22.224C700.168 22.224 699.874 22.1013 699.629 21.856C699.394 21.6 699.277 21.2853 699.277 20.912C699.277 20.528 699.394 20.2187 699.629 19.984C699.874 19.7387 700.168 19.616 700.509 19.616C700.861 19.616 701.154 19.7387 701.389 19.984C701.634 20.2187 701.757 20.528 701.757 20.912C701.757 21.2853 701.634 21.6 701.389 21.856C701.154 22.1013 700.861 22.224 700.509 22.224ZM705.979 22C706.032 20.9227 706.123 19.936 706.251 19.04C706.379 18.1333 706.565 17.28 706.811 16.48C707.056 15.6693 707.376 14.8853 707.771 14.128C708.165 13.36 708.645 12.576 709.211 11.776H703.691V10.208H711.259V11.344C710.576 12.1973 710.021 13.024 709.595 13.824C709.168 14.6133 708.837 15.4187 708.603 16.24C708.368 17.0613 708.197 17.9413 708.091 18.88C707.984 19.808 707.909 20.848 707.867 22H705.979ZM716.304 22.224C715.696 22.224 715.152 22.1493 714.672 22C714.192 21.8507 713.77 21.6533 713.408 21.408C713.045 21.1627 712.725 20.9067 712.448 20.64L713.328 19.44C713.552 19.664 713.797 19.872 714.064 20.064C714.33 20.2453 714.629 20.3947 714.96 20.512C715.301 20.6293 715.68 20.688 716.096 20.688C716.533 20.688 716.928 20.592 717.28 20.4C717.632 20.1973 717.909 19.9093 718.112 19.536C718.314 19.152 718.416 18.6987 718.416 18.176C718.416 17.408 718.208 16.8107 717.792 16.384C717.386 15.9573 716.848 15.744 716.176 15.744C715.802 15.744 715.482 15.7973 715.216 15.904C714.949 16.0107 714.645 16.176 714.304 16.4L713.392 15.808L713.744 10.208H719.712V11.776H715.344L715.072 14.784C715.328 14.656 715.584 14.56 715.84 14.496C716.096 14.4213 716.378 14.384 716.688 14.384C717.349 14.384 717.952 14.5173 718.496 14.784C719.04 15.0507 719.472 15.4613 719.792 16.016C720.112 16.56 720.272 17.264 720.272 18.128C720.272 18.992 720.085 19.7333 719.712 20.352C719.338 20.96 718.848 21.424 718.24 21.744C717.642 22.064 716.997 22.224 716.304 22.224ZM724.469 17.44C723.925 17.44 723.445 17.296 723.029 17.008C722.613 16.7093 722.287 16.2827 722.053 15.728C721.829 15.1627 721.717 14.4853 721.717 13.696C721.717 12.9067 721.829 12.24 722.053 11.696C722.287 11.1413 722.613 10.72 723.029 10.432C723.445 10.144 723.925 10 724.469 10C725.023 10 725.509 10.144 725.925 10.432C726.341 10.72 726.661 11.1413 726.885 11.696C727.119 12.24 727.237 12.9067 727.237 13.696C727.237 14.4853 727.119 15.1627 726.885 15.728C726.661 16.2827 726.341 16.7093 725.925 17.008C725.509 17.296 725.023 17.44 724.469 17.44ZM724.469 16.368C724.885 16.368 725.221 16.1493 725.477 15.712C725.743 15.2747 725.877 14.6027 725.877 13.696C725.877 12.7893 725.743 12.128 725.477 11.712C725.221 11.296 724.885 11.088 724.469 11.088C724.063 11.088 723.727 11.296 723.461 11.712C723.194 12.128 723.061 12.7893 723.061 13.696C723.061 14.6027 723.194 15.2747 723.461 15.712C723.727 16.1493 724.063 16.368 724.469 16.368ZM724.837 22.224L731.285 10H732.453L726.005 22.224H724.837ZM732.837 22.224C732.293 22.224 731.813 22.0747 731.397 21.776C730.981 21.4773 730.655 21.0507 730.421 20.496C730.197 19.9413 730.085 19.2693 730.085 18.48C730.085 17.68 730.197 17.008 730.421 16.464C730.655 15.92 730.981 15.504 731.397 15.216C731.813 14.9173 732.293 14.768 732.837 14.768C733.381 14.768 733.861 14.9173 734.277 15.216C734.693 15.504 735.013 15.92 735.237 16.464C735.471 17.008 735.589 17.68 735.589 18.48C735.589 19.2693 735.471 19.9413 735.237 20.496C735.013 21.0507 734.693 21.4773 734.277 21.776C733.861 22.0747 733.381 22.224 732.837 22.224ZM732.837 21.12C733.242 21.12 733.578 20.9067 733.845 20.48C734.122 20.0533 734.261 19.3867 734.261 18.48C734.261 17.5627 734.122 16.896 733.845 16.48C733.578 16.064 733.242 15.856 732.837 15.856C732.431 15.856 732.095 16.064 731.829 16.48C731.562 16.896 731.429 17.5627 731.429 18.48C731.429 19.3867 731.562 20.0533 731.829 20.48C732.095 20.9067 732.431 21.12 732.837 21.12Z" fill="#FF881A"/>
<path d="M710.928 85.224C710.363 85.224 709.835 85.1067 709.344 84.872C708.853 84.6267 708.421 84.264 708.048 83.784C707.675 83.2933 707.381 82.68 707.168 81.944C706.955 81.208 706.848 80.3387 706.848 79.336C706.848 78.2053 706.971 77.24 707.216 76.44C707.461 75.6293 707.792 74.9733 708.208 74.472C708.624 73.9707 709.099 73.6027 709.632 73.368C710.165 73.1227 710.72 73 711.296 73C711.957 73 712.528 73.1227 713.008 73.368C713.499 73.6133 713.909 73.912 714.24 74.264L713.232 75.384C713.019 75.128 712.747 74.92 712.416 74.76C712.085 74.5893 711.744 74.504 711.392 74.504C710.88 74.504 710.405 74.6587 709.968 74.968C709.541 75.2667 709.2 75.768 708.944 76.472C708.688 77.176 708.56 78.1307 708.56 79.336C708.56 80.3493 708.656 81.1867 708.848 81.848C709.04 82.4987 709.312 82.9893 709.664 83.32C710.016 83.64 710.427 83.8 710.896 83.8C711.248 83.8 711.557 83.6987 711.824 83.496C712.101 83.2933 712.32 83.0107 712.48 82.648C712.64 82.2747 712.72 81.8373 712.72 81.336C712.72 80.8347 712.645 80.408 712.496 80.056C712.347 79.704 712.128 79.4373 711.84 79.256C711.563 79.0747 711.216 78.984 710.8 78.984C710.448 78.984 710.069 79.096 709.664 79.32C709.269 79.544 708.891 79.928 708.528 80.472L708.464 79.128C708.688 78.808 708.949 78.5413 709.248 78.328C709.547 78.104 709.856 77.9333 710.176 77.816C710.507 77.6987 710.821 77.64 711.12 77.64C711.781 77.64 712.357 77.7787 712.848 78.056C713.349 78.3227 713.739 78.728 714.016 79.272C714.304 79.816 714.448 80.504 714.448 81.336C714.448 82.1147 714.283 82.7973 713.952 83.384C713.632 83.96 713.205 84.4133 712.672 84.744C712.149 85.064 711.568 85.224 710.928 85.224ZM717.509 85.224C717.168 85.224 716.874 85.1013 716.629 84.856C716.394 84.6 716.277 84.2853 716.277 83.912C716.277 83.528 716.394 83.2187 716.629 82.984C716.874 82.7387 717.168 82.616 717.509 82.616C717.861 82.616 718.154 82.7387 718.389 82.984C718.634 83.2187 718.757 83.528 718.757 83.912C718.757 84.2853 718.634 84.6 718.389 84.856C718.154 85.1013 717.861 85.224 717.509 85.224ZM720.595 85V83.928C721.757 82.8933 722.728 81.9493 723.507 81.096C724.285 80.232 724.867 79.432 725.251 78.696C725.645 77.96 725.843 77.272 725.843 76.632C725.843 76.2053 725.768 75.832 725.619 75.512C725.48 75.1813 725.261 74.9307 724.963 74.76C724.675 74.5787 724.307 74.488 723.859 74.488C723.4 74.488 722.979 74.616 722.595 74.872C722.211 75.1173 721.859 75.4213 721.539 75.784L720.499 74.76C721 74.2053 721.528 73.7733 722.083 73.464C722.648 73.1547 723.32 73 724.099 73C724.813 73 725.437 73.1493 725.971 73.448C726.504 73.736 726.915 74.1467 727.203 74.68C727.501 75.2027 727.651 75.8213 727.651 76.536C727.651 77.2933 727.464 78.0613 727.091 78.84C726.717 79.608 726.205 80.3867 725.555 81.176C724.904 81.9547 724.163 82.744 723.331 83.544C723.64 83.512 723.965 83.4853 724.307 83.464C724.659 83.432 724.973 83.416 725.251 83.416H728.211V85H720.595ZM733.592 85.224C732.856 85.224 732.2 85.0907 731.624 84.824C731.048 84.5467 730.589 84.1733 730.248 83.704C729.917 83.224 729.752 82.68 729.752 82.072C729.752 81.5493 729.853 81.0853 730.056 80.68C730.258 80.2747 730.52 79.928 730.84 79.64C731.16 79.3413 731.496 79.096 731.848 78.904V78.824C731.421 78.5147 731.053 78.136 730.744 77.688C730.434 77.2293 730.28 76.6907 730.28 76.072C730.28 75.464 730.424 74.9307 730.712 74.472C731.01 74.0133 731.41 73.6613 731.912 73.416C732.424 73.16 733.005 73.032 733.656 73.032C734.338 73.032 734.925 73.1653 735.416 73.432C735.906 73.6987 736.285 74.0667 736.552 74.536C736.829 74.9947 736.968 75.5333 736.968 76.152C736.968 76.5467 736.888 76.92 736.728 77.272C736.568 77.624 736.37 77.944 736.136 78.232C735.912 78.5093 735.672 78.7387 735.416 78.92V79C735.778 79.192 736.109 79.432 736.408 79.72C736.706 79.9973 736.946 80.3333 737.128 80.728C737.309 81.1227 737.4 81.5867 737.4 82.12C737.4 82.696 737.24 83.2187 736.92 83.688C736.61 84.1573 736.168 84.5307 735.592 84.808C735.026 85.0853 734.36 85.224 733.592 85.224ZM734.376 78.456C734.717 78.1253 734.973 77.7787 735.144 77.416C735.325 77.0427 735.416 76.6533 735.416 76.248C735.416 75.896 735.346 75.576 735.208 75.288C735.069 75 734.861 74.776 734.584 74.616C734.317 74.4453 733.992 74.36 733.608 74.36C733.128 74.36 732.728 74.5147 732.408 74.824C732.088 75.1227 731.928 75.5387 731.928 76.072C731.928 76.4987 732.04 76.856 732.264 77.144C732.488 77.432 732.786 77.6773 733.16 77.88C733.533 78.0827 733.938 78.2747 734.376 78.456ZM733.64 83.88C734.034 83.88 734.381 83.8053 734.68 83.656C734.989 83.5067 735.229 83.2987 735.4 83.032C735.57 82.7547 735.656 82.4293 735.656 82.056C735.656 81.704 735.581 81.4 735.432 81.144C735.282 80.8773 735.074 80.648 734.808 80.456C734.552 80.264 734.248 80.088 733.896 79.928C733.544 79.7573 733.165 79.592 732.76 79.432C732.354 79.72 732.024 80.0773 731.768 80.504C731.512 80.92 731.384 81.3787 731.384 81.88C731.384 82.2747 731.48 82.6213 731.672 82.92C731.874 83.2187 732.146 83.4533 732.488 83.624C732.829 83.7947 733.213 83.88 733.64 83.88ZM741.469 80.44C740.925 80.44 740.445 80.296 740.029 80.008C739.613 79.7093 739.287 79.2827 739.053 78.728C738.829 78.1627 738.717 77.4853 738.717 76.696C738.717 75.9067 738.829 75.24 739.053 74.696C739.287 74.1413 739.613 73.72 740.029 73.432C740.445 73.144 740.925 73 741.469 73C742.023 73 742.509 73.144 742.925 73.432C743.341 73.72 743.661 74.1413 743.885 74.696C744.119 75.24 744.237 75.9067 744.237 76.696C744.237 77.4853 744.119 78.1627 743.885 78.728C743.661 79.2827 743.341 79.7093 742.925 80.008C742.509 80.296 742.023 80.44 741.469 80.44ZM741.469 79.368C741.885 79.368 742.221 79.1493 742.477 78.712C742.743 78.2747 742.877 77.6027 742.877 76.696C742.877 75.7893 742.743 75.128 742.477 74.712C742.221 74.296 741.885 74.088 741.469 74.088C741.063 74.088 740.727 74.296 740.461 74.712C740.194 75.128 740.061 75.7893 740.061 76.696C740.061 77.6027 740.194 78.2747 740.461 78.712C740.727 79.1493 741.063 79.368 741.469 79.368ZM741.837 85.224L748.285 73H749.453L743.005 85.224H741.837ZM749.837 85.224C749.293 85.224 748.813 85.0747 748.397 84.776C747.981 84.4773 747.655 84.0507 747.421 83.496C747.197 82.9413 747.085 82.2693 747.085 81.48C747.085 80.68 747.197 80.008 747.421 79.464C747.655 78.92 747.981 78.504 748.397 78.216C748.813 77.9173 749.293 77.768 749.837 77.768C750.381 77.768 750.861 77.9173 751.277 78.216C751.693 78.504 752.013 78.92 752.237 79.464C752.471 80.008 752.589 80.68 752.589 81.48C752.589 82.2693 752.471 82.9413 752.237 83.496C752.013 84.0507 751.693 84.4773 751.277 84.776C750.861 85.0747 750.381 85.224 749.837 85.224ZM749.837 84.12C750.242 84.12 750.578 83.9067 750.845 83.48C751.122 83.0533 751.261 82.3867 751.261 81.48C751.261 80.5627 751.122 79.896 750.845 79.48C750.578 79.064 750.242 78.856 749.837 78.856C749.431 78.856 749.095 79.064 748.829 79.48C748.562 79.896 748.429 80.5627 748.429 81.48C748.429 82.3867 748.562 83.0533 748.829 83.48C749.095 83.9067 749.431 84.12 749.837 84.12Z" fill="white"/>
<path d="M802.704 93V91.928C803.867 90.8933 804.837 89.9493 805.616 89.096C806.395 88.232 806.976 87.432 807.36 86.696C807.755 85.96 807.952 85.272 807.952 84.632C807.952 84.2053 807.877 83.832 807.728 83.512C807.589 83.1813 807.371 82.9307 807.072 82.76C806.784 82.5787 806.416 82.488 805.968 82.488C805.509 82.488 805.088 82.616 804.704 82.872C804.32 83.1173 803.968 83.4213 803.648 83.784L802.608 82.76C803.109 82.2053 803.637 81.7733 804.192 81.464C804.757 81.1547 805.429 81 806.208 81C806.923 81 807.547 81.1493 808.08 81.448C808.613 81.736 809.024 82.1467 809.312 82.68C809.611 83.2027 809.76 83.8213 809.76 84.536C809.76 85.2933 809.573 86.0613 809.2 86.84C808.827 87.608 808.315 88.3867 807.664 89.176C807.013 89.9547 806.272 90.744 805.44 91.544C805.749 91.512 806.075 91.4853 806.416 91.464C806.768 91.432 807.083 91.416 807.36 91.416H810.32V93H802.704ZM813.509 93.224C813.168 93.224 812.874 93.1013 812.629 92.856C812.394 92.6 812.277 92.2853 812.277 91.912C812.277 91.528 812.394 91.2187 812.629 90.984C812.874 90.7387 813.168 90.616 813.509 90.616C813.861 90.616 814.154 90.7387 814.389 90.984C814.634 91.2187 814.757 91.528 814.757 91.912C814.757 92.2853 814.634 92.6 814.389 92.856C814.154 93.1013 813.861 93.224 813.509 93.224ZM820.819 93.224C820.253 93.224 819.725 93.1067 819.235 92.872C818.744 92.6267 818.312 92.264 817.939 91.784C817.565 91.2933 817.272 90.68 817.059 89.944C816.845 89.208 816.739 88.3387 816.739 87.336C816.739 86.2053 816.861 85.24 817.107 84.44C817.352 83.6293 817.683 82.9733 818.099 82.472C818.515 81.9707 818.989 81.6027 819.523 81.368C820.056 81.1227 820.611 81 821.187 81C821.848 81 822.419 81.1227 822.899 81.368C823.389 81.6133 823.8 81.912 824.131 82.264L823.123 83.384C822.909 83.128 822.637 82.92 822.307 82.76C821.976 82.5893 821.635 82.504 821.283 82.504C820.771 82.504 820.296 82.6587 819.859 82.968C819.432 83.2667 819.091 83.768 818.835 84.472C818.579 85.176 818.451 86.1307 818.451 87.336C818.451 88.3493 818.547 89.1867 818.739 89.848C818.931 90.4987 819.203 90.9893 819.555 91.32C819.907 91.64 820.317 91.8 820.787 91.8C821.139 91.8 821.448 91.6987 821.715 91.496C821.992 91.2933 822.211 91.0107 822.371 90.648C822.531 90.2747 822.611 89.8373 822.611 89.336C822.611 88.8347 822.536 88.408 822.387 88.056C822.237 87.704 822.019 87.4373 821.731 87.256C821.453 87.0747 821.107 86.984 820.691 86.984C820.339 86.984 819.96 87.096 819.555 87.32C819.16 87.544 818.781 87.928 818.419 88.472L818.355 87.128C818.579 86.808 818.84 86.5413 819.139 86.328C819.437 86.104 819.747 85.9333 820.067 85.816C820.397 85.6987 820.712 85.64 821.011 85.64C821.672 85.64 822.248 85.7787 822.739 86.056C823.24 86.3227 823.629 86.728 823.907 87.272C824.195 87.816 824.339 88.504 824.339 89.336C824.339 90.1147 824.173 90.7973 823.843 91.384C823.523 91.96 823.096 92.4133 822.563 92.744C822.04 93.064 821.459 93.224 820.819 93.224ZM829.304 93.224C828.696 93.224 828.152 93.1493 827.672 93C827.192 92.8507 826.77 92.6533 826.408 92.408C826.045 92.1627 825.725 91.9067 825.448 91.64L826.328 90.44C826.552 90.664 826.797 90.872 827.064 91.064C827.33 91.2453 827.629 91.3947 827.96 91.512C828.301 91.6293 828.68 91.688 829.096 91.688C829.533 91.688 829.928 91.592 830.28 91.4C830.632 91.1973 830.909 90.9093 831.112 90.536C831.314 90.152 831.416 89.6987 831.416 89.176C831.416 88.408 831.208 87.8107 830.792 87.384C830.386 86.9573 829.848 86.744 829.176 86.744C828.802 86.744 828.482 86.7973 828.216 86.904C827.949 87.0107 827.645 87.176 827.304 87.4L826.392 86.808L826.744 81.208H832.712V82.776H828.344L828.072 85.784C828.328 85.656 828.584 85.56 828.84 85.496C829.096 85.4213 829.378 85.384 829.688 85.384C830.349 85.384 830.952 85.5173 831.496 85.784C832.04 86.0507 832.472 86.4613 832.792 87.016C833.112 87.56 833.272 88.264 833.272 89.128C833.272 89.992 833.085 90.7333 832.712 91.352C832.338 91.96 831.848 92.424 831.24 92.744C830.642 93.064 829.997 93.224 829.304 93.224ZM837.469 88.44C836.925 88.44 836.445 88.296 836.029 88.008C835.613 87.7093 835.287 87.2827 835.053 86.728C834.829 86.1627 834.717 85.4853 834.717 84.696C834.717 83.9067 834.829 83.24 835.053 82.696C835.287 82.1413 835.613 81.72 836.029 81.432C836.445 81.144 836.925 81 837.469 81C838.023 81 838.509 81.144 838.925 81.432C839.341 81.72 839.661 82.1413 839.885 82.696C840.119 83.24 840.237 83.9067 840.237 84.696C840.237 85.4853 840.119 86.1627 839.885 86.728C839.661 87.2827 839.341 87.7093 838.925 88.008C838.509 88.296 838.023 88.44 837.469 88.44ZM837.469 87.368C837.885 87.368 838.221 87.1493 838.477 86.712C838.743 86.2747 838.877 85.6027 838.877 84.696C838.877 83.7893 838.743 83.128 838.477 82.712C838.221 82.296 837.885 82.088 837.469 82.088C837.063 82.088 836.727 82.296 836.461 82.712C836.194 83.128 836.061 83.7893 836.061 84.696C836.061 85.6027 836.194 86.2747 836.461 86.712C836.727 87.1493 837.063 87.368 837.469 87.368ZM837.837 93.224L844.285 81H845.453L839.005 93.224H837.837ZM845.837 93.224C845.293 93.224 844.813 93.0747 844.397 92.776C843.981 92.4773 843.655 92.0507 843.421 91.496C843.197 90.9413 843.085 90.2693 843.085 89.48C843.085 88.68 843.197 88.008 843.421 87.464C843.655 86.92 843.981 86.504 844.397 86.216C844.813 85.9173 845.293 85.768 845.837 85.768C846.381 85.768 846.861 85.9173 847.277 86.216C847.693 86.504 848.013 86.92 848.237 87.464C848.471 88.008 848.589 88.68 848.589 89.48C848.589 90.2693 848.471 90.9413 848.237 91.496C848.013 92.0507 847.693 92.4773 847.277 92.776C846.861 93.0747 846.381 93.224 845.837 93.224ZM845.837 92.12C846.242 92.12 846.578 91.9067 846.845 91.48C847.122 91.0533 847.261 90.3867 847.261 89.48C847.261 88.5627 847.122 87.896 846.845 87.48C846.578 87.064 846.242 86.856 845.837 86.856C845.431 86.856 845.095 87.064 844.829 87.48C844.562 87.896 844.429 88.5627 844.429 89.48C844.429 90.3867 844.562 91.0533 844.829 91.48C845.095 91.9067 845.431 92.12 845.837 92.12Z" fill="#BD5784"/>
</g>
<path d="M73.4766 72.2472H80.8846V73.3672H73.4766V72.2472ZM73.2206 79.2232H80.9966V80.3752H73.2206V79.2232ZM82.0686 71.9912H86.2126V73.3032H82.0686V71.9912ZM76.6126 71.3512H77.8926V82.3432H76.6126V71.3512ZM81.4766 71.9912H82.9166V79.8312C82.9166 80.4712 83.0286 80.5992 83.7006 80.5992C84.0046 80.5992 85.4926 80.5992 85.8766 80.5992C86.4686 80.5992 86.5806 80.2472 86.6446 78.5512C86.9806 78.7752 87.5566 79.0312 87.9726 79.1112C87.7966 81.3032 87.3966 81.9592 85.9886 81.9592C85.6206 81.9592 83.8446 81.9592 83.5086 81.9592C81.9566 81.9592 81.4766 81.5272 81.4766 79.8312V71.9912ZM85.4446 71.9912H86.9006V76.6952C86.9006 77.3672 86.7726 77.7832 86.2606 78.0232C85.7646 78.2632 85.0446 78.2952 84.0046 78.2952C83.9246 77.8632 83.6846 77.2712 83.4926 76.8872C84.2606 76.9032 84.9486 76.9032 85.1726 76.9032C85.3966 76.8872 85.4446 76.8392 85.4446 76.6472V71.9912ZM75.2046 76.7112V77.5752H79.2206V76.7112H75.2046ZM75.2046 74.9832V75.8152H79.2206V74.9832H75.2046ZM74.0046 74.0392H80.4846V78.5352H74.0046V74.0392ZM75.2686 68.5512H80.3566V69.7512H75.2686V68.5512ZM81.9086 68.5672H87.8286V69.7512H81.9086V68.5672ZM75.5086 67.3672L76.8526 67.7512C76.2286 69.2872 75.1886 70.8392 74.1806 71.8472C73.9566 71.5752 73.4446 71.0632 73.1406 70.8232C74.1006 69.9592 74.9966 68.6792 75.5086 67.3672ZM82.1166 67.3672L83.5086 67.7032C82.9966 69.2712 82.0846 70.7912 81.1246 71.7512C80.8686 71.5112 80.3086 71.0792 79.9726 70.8712C80.9006 70.0232 81.6846 68.7112 82.1166 67.3672ZM76.4046 70.2472L77.3166 69.4632C77.8926 69.9112 78.6446 70.5832 79.0126 71.0152L78.0526 71.8952C77.7006 71.4312 76.9806 70.7432 76.4046 70.2472ZM83.3806 70.3112L84.3566 69.5112C84.9166 69.9272 85.6366 70.5352 86.0046 70.9512L84.9806 71.8472C84.6446 71.4152 83.9406 70.7592 83.3806 70.3112ZM90.2286 68.7912H94.1326V79.0792H90.2286V77.7992H93.0926V70.0392H90.2286V68.7912ZM89.5726 68.7912H90.6126V80.5352H89.5726V68.7912ZM95.3486 77.7992H98.1806V81.0312H95.3486V80.0712H97.0606V78.7752H95.3486V77.7992ZM94.7566 77.7992H95.8606V81.7992H94.7566V77.7992ZM90.3086 73.2392H93.7966V74.4872H90.3086V73.2392ZM91.3806 69.5112H92.2926V78.4392H91.3806V69.5112ZM94.6766 68.4872H103.605V69.4632H94.6766V68.4872ZM95.3166 70.1832H103.013V71.1432H95.3166V70.1832ZM94.4526 71.7672H102.885V72.7112H94.4526V71.7672ZM95.7166 73.3032H101.925V74.1352H95.7166V73.3032ZM94.8686 74.8712H102.805V75.7032H94.8686V74.8712ZM94.3726 76.2952H103.925V77.2392H94.3726V76.2952ZM98.5486 78.1672H103.813V79.1912H98.5486V78.1672ZM98.3086 67.4952H99.7166V70.6952H98.3086V67.4952ZM98.2126 73.5912H99.5086V75.0792H98.2126V73.5912ZM102.517 71.7672H102.709L102.933 71.7192L103.829 71.9752C103.605 72.7912 103.301 73.7192 103.029 74.3112L101.957 73.9592C102.165 73.4152 102.389 72.6152 102.517 71.9432V71.7672ZM101.253 77.2232H102.517V81.1432C102.517 81.7192 102.421 82.0072 102.037 82.1832C101.637 82.3592 101.093 82.3592 100.293 82.3592C100.229 82.0552 100.053 81.6072 99.9086 81.3032C100.437 81.3192 100.901 81.3192 101.061 81.3032C101.205 81.3032 101.253 81.2712 101.253 81.1112V77.2232ZM98.7406 79.7352L99.6526 79.2232C100.085 79.6552 100.565 80.2632 100.757 80.6792L99.8126 81.2712C99.6366 80.8392 99.1726 80.1832 98.7406 79.7352ZM105.157 73.9432H119.877V75.5912H105.157V73.9432Z" fill="black"/>
<path d="M242.5 98H72.5V99H242.5V98Z" fill="#E7E7E7"/>
<mask id="mask0_416_54713" style="mask-type:luminance" maskUnits="userSpaceOnUse" x="73" y="118" width="10" height="10">
<path d="M83 118H73V128H83V118Z" fill="white"/>
</mask>
<g mask="url(#mask0_416_54713)">
<path d="M82.9063 123.094L77.9062 118.094L72.9062 123.094L77.9062 128.094L82.9063 123.094Z" fill="url(#paint5_linear_416_54713)"/>
</g>
<path d="M97.8774 125.663L98.8214 126.111C97.2054 127.535 94.2774 128.735 91.7814 129.263C91.6374 128.991 91.3334 128.591 91.1094 128.367C93.5734 127.919 96.4214 126.895 97.8774 125.663ZM99.2534 125.567C100.261 128.015 102.549 129.567 105.829 130.111C105.605 130.351 105.301 130.783 105.157 131.087C101.717 130.399 99.4294 128.655 98.2614 125.807L99.2534 125.567ZM103.957 126.431L104.837 127.055C103.813 127.775 102.469 128.463 101.413 128.927L100.661 128.319C101.701 127.839 103.125 127.039 103.957 126.431ZM91.3814 125.311H105.621V126.287H91.3814V125.311ZM100.629 117.391H101.717V122.639H100.629V117.391ZM103.669 116.719H104.757V123.359C104.757 123.983 104.629 124.255 104.181 124.431C103.733 124.591 102.997 124.607 101.861 124.607C101.813 124.303 101.637 123.903 101.477 123.599C102.357 123.631 103.141 123.631 103.365 123.615C103.605 123.615 103.669 123.551 103.669 123.343V116.719ZM94.9494 116.559H95.9894V124.687H94.9494V116.559ZM97.9734 121.263H98.9654V123.215C98.9654 123.663 98.9014 123.887 98.5654 124.031C98.2294 124.175 97.7494 124.175 97.0454 124.175C96.9974 123.919 96.8374 123.631 96.7254 123.407C97.2374 123.423 97.6534 123.423 97.7814 123.407C97.9254 123.391 97.9734 123.359 97.9734 123.231V121.263ZM92.1494 121.263H98.4214V122.079H93.1094V124.271H92.1494V121.263ZM91.3174 119.535H99.3974V120.415H91.3174V119.535ZM92.9814 117.711H98.8374V118.559H92.6294L92.9814 117.711ZM92.8374 116.623L93.7814 116.847C93.4454 117.807 92.9174 118.847 92.4054 119.519C92.2134 119.375 91.7814 119.167 91.5414 119.055C92.1014 118.399 92.5494 117.487 92.8374 116.623ZM94.3094 131.295L94.2614 130.447L94.7574 130.047L99.3814 129.055C99.3494 129.343 99.3334 129.743 99.3494 129.967C95.0934 130.975 94.6134 131.103 94.3094 131.295ZM94.3254 131.295C94.2454 131.039 94.0374 130.591 93.8774 130.399C94.1334 130.239 94.5494 129.919 94.5494 129.183V127.663L95.6854 127.647V130.015C95.6854 130.015 94.3254 130.831 94.3254 131.295ZM97.6854 124.303L98.7894 123.983C99.1094 124.479 99.4454 125.167 99.5894 125.583L98.4054 125.967C98.2934 125.535 97.9734 124.815 97.6854 124.303ZM116.677 124.063H117.861V130.527H116.677V124.063ZM112.677 129.807H121.781V130.879H112.677V129.807ZM113.557 126.623H121.109V127.647H113.557V126.623ZM114.837 118.415V121.423H119.765V118.415H114.837ZM113.717 117.375H120.933V122.479H113.717V117.375ZM120.421 123.055L121.221 123.951C119.221 124.511 116.085 124.815 113.509 124.943C113.477 124.671 113.349 124.271 113.221 123.999C115.717 123.855 118.757 123.535 120.421 123.055ZM109.893 117.887H111.061V131.247H109.893V117.887ZM107.269 121.071H113.077V122.207H107.269V121.071ZM109.957 121.503L110.709 121.823C110.069 124.079 108.789 126.879 107.557 128.367C107.445 128.031 107.157 127.535 106.949 127.263C108.101 125.983 109.381 123.487 109.957 121.503ZM112.309 116.799L113.157 117.727C111.669 118.319 109.413 118.767 107.541 119.023C107.477 118.767 107.317 118.367 107.173 118.095C108.997 117.791 111.125 117.343 112.309 116.799ZM111.013 123.135C111.413 123.487 112.917 125.007 113.237 125.407L112.533 126.351C112.149 125.695 110.949 124.175 110.453 123.615L111.013 123.135ZM130.869 116.559H131.957V123.327C131.957 126.527 131.589 129.343 128.693 131.295C128.501 131.055 128.101 130.687 127.829 130.495C130.533 128.719 130.869 126.207 130.869 123.327V116.559ZM133.621 116.559H134.773V131.263H133.621V116.559ZM128.245 119.295H131.349V120.399H128.245V119.295ZM134.229 119.295H137.573V120.399H134.229V119.295ZM134.293 122.655H137.413V123.727H134.293V122.655ZM134.213 126.143H137.845V127.247H134.213V126.143ZM128.357 122.655H131.397V123.727H128.357V122.655ZM127.445 126.831C128.373 126.575 129.653 126.159 130.965 125.743L131.141 126.671C130.037 127.103 128.901 127.519 127.909 127.871L127.445 126.831ZM122.933 124.863C124.181 124.511 126.053 123.935 127.877 123.343L128.037 124.447C126.373 125.023 124.613 125.599 123.253 126.031L122.933 124.863ZM123.157 119.791H128.021V120.911H123.157V119.791ZM125.173 116.575H126.293V129.887C126.293 130.559 126.133 130.879 125.733 131.071C125.365 131.263 124.741 131.295 123.733 131.295C123.685 131.007 123.541 130.511 123.381 130.175C124.085 130.191 124.693 130.191 124.885 130.175C125.077 130.175 125.173 130.127 125.173 129.887V116.575ZM141.797 116.847L142.837 116.543C143.173 117.215 143.541 118.111 143.717 118.671L142.613 119.039C142.469 118.447 142.101 117.519 141.797 116.847ZM139.189 119.151H146.309V120.287H139.189V119.151ZM141.781 122.415H144.853V123.519H141.781V122.415ZM144.437 122.415H145.589C145.589 122.415 145.589 122.799 145.573 122.959C145.461 128.239 145.365 130.031 144.949 130.575C144.693 130.927 144.421 131.055 143.989 131.103C143.605 131.151 142.933 131.151 142.245 131.103C142.229 130.783 142.117 130.303 141.941 129.983C142.597 130.047 143.205 130.063 143.445 130.063C143.685 130.063 143.813 130.015 143.941 129.839C144.213 129.455 144.341 127.727 144.437 122.655V122.415ZM147.925 119.551H153.877V120.671H147.925V119.551ZM148.277 116.559L149.509 116.751C148.917 119.807 147.941 122.719 146.533 124.591C146.341 124.351 145.877 123.903 145.605 123.695C146.917 121.999 147.797 119.327 148.277 116.559ZM151.589 120.159L152.773 120.287C151.925 125.807 150.165 129.231 146.101 131.327C145.973 131.055 145.621 130.527 145.397 130.271C149.237 128.479 150.885 125.231 151.589 120.159ZM148.405 120.575C149.157 125.039 150.789 128.719 154.037 130.223C153.749 130.463 153.381 130.927 153.189 131.247C149.813 129.487 148.197 125.663 147.349 120.767L148.405 120.575ZM141.093 119.711H142.229V123.615C142.229 126.271 141.909 129.007 139.781 131.263C139.573 131.023 139.189 130.703 138.885 130.495C140.853 128.415 141.093 125.871 141.093 123.615V119.711Z" fill="#4F4F4F"/>
<path d="M97.4164 157.264V159.424H103.608V157.264H97.4164ZM96.3444 156.304H104.728V160.4H96.3444V156.304ZM100.344 159.888H101.384V163.456C101.384 163.856 101.496 163.936 102.104 163.936C102.36 163.936 103.8 163.936 104.168 163.936C104.664 163.936 104.76 163.744 104.808 162.416C105.032 162.592 105.464 162.752 105.752 162.816C105.64 164.48 105.32 164.896 104.264 164.896C103.992 164.896 102.264 164.896 101.992 164.896C100.68 164.896 100.344 164.592 100.344 163.472V159.888ZM98.3284 152.48L99.4484 152.816C98.6164 154.672 97.3364 156.512 96.0884 157.696C95.8644 157.504 95.3844 157.184 95.0964 157.024C96.3924 155.92 97.6084 154.208 98.3284 152.48ZM99.9924 156.576H101.096C100.76 160.208 99.9764 163.52 95.6884 165.136C95.5604 164.88 95.2564 164.496 95.0324 164.304C99.0804 162.848 99.7044 159.808 99.9924 156.576ZM101.48 153.84H101.72L101.896 153.792L102.632 154.24C102.2 155.232 101.464 156.368 100.856 157.088C100.632 156.928 100.28 156.704 100.008 156.592C100.552 155.904 101.192 154.8 101.48 154.048V153.84ZM101.896 161.136L102.728 160.624C103.368 161.136 104.088 161.888 104.408 162.416L103.528 162.992C103.208 162.448 102.52 161.68 101.896 161.136ZM98.1844 153.84H101.928V154.752H97.5924L98.1844 153.84ZM91.8324 153.088L92.7444 152.576C93.4324 153.36 94.2644 154.4 94.6644 155.056L93.7044 155.68C93.3204 155.008 92.4884 153.888 91.8324 153.088ZM91.2404 156.256H94.6964V157.264H91.2404V156.256ZM94.0884 163.6C95.0804 165.696 97.1604 165.984 100.36 165.984C102.056 165.984 104.392 165.92 106.04 165.776C105.864 166.032 105.72 166.576 105.656 166.896C104.136 166.992 102.12 167.024 100.36 167.024C96.6004 167.024 94.5044 166.608 93.2884 163.968L94.0884 163.6ZM94.0884 160.256H94.4404L94.6484 160.224L95.1924 160.448C94.6804 163.808 93.4484 166.08 91.7844 167.312C91.6244 167.072 91.2244 166.656 90.9844 166.48C92.5684 165.392 93.6884 163.344 94.0884 160.464V160.256ZM91.4804 161.456V160.544L92.0564 160.256H94.5844V161.232H92.4244C92.0084 161.232 91.5924 161.328 91.4804 161.456ZM91.4804 161.456C91.4004 161.184 91.1604 160.624 91.0324 160.368C91.2724 160.304 91.5284 160.208 91.8004 159.888C92.2804 159.408 93.8004 157.232 94.3284 156.384V156.336L94.6804 156.176L95.4804 156.544C94.7284 157.632 93.2884 159.68 92.3764 160.704C92.3764 160.704 91.4804 161.152 91.4804 161.456ZM107.4 154.496H114.936V155.52H107.4V154.496ZM107.144 157.424H114.952V158.464H107.144V157.424ZM109.016 152.704H110.12V158.064H109.016V152.704ZM112.184 152.704H113.288V158.064H112.184V152.704ZM112.904 159.44H114.04V166.064C114.04 166.64 113.912 166.944 113.512 167.104C113.128 167.28 112.488 167.296 111.512 167.296C111.464 167.008 111.304 166.56 111.16 166.288C111.848 166.304 112.472 166.304 112.664 166.288C112.856 166.288 112.904 166.24 112.904 166.048V159.44ZM116.168 155.552H121.864V156.672H116.168V155.552ZM116.568 152.56L117.704 152.736C117.224 155.76 116.408 158.672 115.144 160.592C114.984 160.352 114.568 159.856 114.312 159.648C115.464 157.936 116.168 155.264 116.568 152.56ZM119.768 156.16L120.888 156.272C120.2 161.6 118.744 165.12 115.224 167.312C115.112 167.056 114.776 166.576 114.552 166.336C117.88 164.432 119.208 161.072 119.768 156.16ZM116.824 156.496C117.528 160.912 119.048 164.72 122.008 166.304C121.736 166.528 121.352 166.976 121.192 167.28C118.12 165.44 116.648 161.488 115.88 156.656L116.824 156.496ZM108.952 159.44H113.256V160.352H108.952V159.44ZM108.296 159.44H109.384V162.512C109.384 164.016 109.208 166.048 108.152 167.424C107.976 167.216 107.512 166.88 107.272 166.752C108.2 165.504 108.296 163.824 108.296 162.496V159.44ZM109.256 164.4C110.296 164.096 111.8 163.568 113.32 163.04L113.464 163.824C112.152 164.384 110.824 164.944 109.704 165.392L109.256 164.4ZM109.592 161.584L110.136 160.896C111.016 161.312 112.024 161.856 112.552 162.24L112.008 163.024C111.464 162.64 110.424 161.984 109.592 161.584ZM130.872 152.56H131.96V159.328C131.96 162.528 131.592 165.344 128.696 167.296C128.504 167.056 128.104 166.688 127.832 166.496C130.536 164.72 130.872 162.208 130.872 159.328V152.56ZM133.624 152.56H134.776V167.264H133.624V152.56ZM128.248 155.296H131.352V156.4H128.248V155.296ZM134.232 155.296H137.576V156.4H134.232V155.296ZM134.296 158.656H137.416V159.728H134.296V158.656ZM134.216 162.144H137.848V163.248H134.216V162.144ZM128.36 158.656H131.4V159.728H128.36V158.656ZM127.448 162.832C128.376 162.576 129.656 162.16 130.968 161.744L131.144 162.672C130.04 163.104 128.904 163.52 127.912 163.872L127.448 162.832ZM122.936 160.864C124.184 160.512 126.056 159.936 127.88 159.344L128.04 160.448C126.376 161.024 124.616 161.6 123.256 162.032L122.936 160.864ZM123.16 155.792H128.024V156.912H123.16V155.792ZM125.176 152.576H126.296V165.888C126.296 166.56 126.136 166.88 125.736 167.072C125.368 167.264 124.744 167.296 123.736 167.296C123.688 167.008 123.544 166.512 123.384 166.176C124.088 166.192 124.696 166.192 124.888 166.176C125.08 166.176 125.176 166.128 125.176 165.888V152.576ZM141.8 152.848L142.84 152.544C143.176 153.216 143.544 154.112 143.72 154.672L142.616 155.04C142.472 154.448 142.104 153.52 141.8 152.848ZM139.192 155.152H146.312V156.288H139.192V155.152ZM141.784 158.416H144.856V159.52H141.784V158.416ZM144.44 158.416H145.592C145.592 158.416 145.592 158.8 145.576 158.96C145.464 164.24 145.368 166.032 144.952 166.576C144.696 166.928 144.424 167.056 143.992 167.104C143.608 167.152 142.936 167.152 142.248 167.104C142.232 166.784 142.12 166.304 141.944 165.984C142.6 166.048 143.208 166.064 143.448 166.064C143.688 166.064 143.816 166.016 143.944 165.84C144.216 165.456 144.344 163.728 144.44 158.656V158.416ZM147.928 155.552H153.88V156.672H147.928V155.552ZM148.28 152.56L149.512 152.752C148.92 155.808 147.944 158.72 146.536 160.592C146.344 160.352 145.88 159.904 145.608 159.696C146.92 158 147.8 155.328 148.28 152.56ZM151.592 156.16L152.776 156.288C151.928 161.808 150.168 165.232 146.104 167.328C145.976 167.056 145.624 166.528 145.4 166.272C149.24 164.48 150.888 161.232 151.592 156.16ZM148.408 156.576C149.16 161.04 150.792 164.72 154.04 166.224C153.752 166.464 153.384 166.928 153.192 167.248C149.816 165.488 148.2 161.664 147.352 156.768L148.408 156.576ZM141.096 155.712H142.232V159.616C142.232 162.272 141.912 165.008 139.784 167.264C139.576 167.024 139.192 166.704 138.888 166.496C140.856 164.416 141.096 161.872 141.096 159.616V155.712Z" fill="#4F4F4F"/>
<path d="M94.1303 192.961H103.01V193.953H94.1303V192.961ZM97.9223 191.121H99.0742V196.353H97.9223V191.121ZM96.2423 196.737V199.057H100.85V196.737H96.2423ZM95.1702 195.793H101.97V200.001H95.1702V195.793ZM91.9062 189.329H105.122V203.329H103.874V190.449H93.1063V203.329H91.9062V189.329ZM92.5943 201.441H104.386V202.561H92.5943V201.441ZM109.874 193.505H119.202V194.657H109.874V193.505ZM114.482 197.281H119.874V198.417H114.482V197.281ZM113.842 194.049H115.09V202.145L113.842 201.985V194.049ZM110.082 195.953L111.298 196.081C110.85 199.313 109.858 201.745 108.05 203.329C107.858 203.121 107.362 202.721 107.074 202.529C108.866 201.153 109.73 198.865 110.082 195.953ZM110.834 198.001C111.97 201.265 114.466 201.825 117.714 201.841C118.306 201.841 121.074 201.841 121.858 201.809C121.666 202.113 121.458 202.673 121.394 203.025H117.65C113.842 203.025 111.234 202.289 109.858 198.385L110.834 198.001ZM107.81 190.369H121.186V193.873H119.954V191.521H108.994V193.873H107.81V190.369ZM113.298 188.801L114.482 188.465C114.866 189.073 115.282 189.889 115.442 190.433L114.194 190.817C114.05 190.289 113.682 189.441 113.298 188.801ZM133.842 189.361L134.642 188.673C135.474 189.233 136.482 190.065 136.978 190.625L136.13 191.377C135.65 190.801 134.674 189.937 133.842 189.361ZM123.378 191.553H137.634V192.721H123.378V191.553ZM123.922 195.121H130.994V196.289H123.922V195.121ZM126.802 195.745H128.002V201.457H126.802V195.745ZM123.442 201.617C125.346 201.249 128.482 200.609 131.442 199.969L131.538 201.041C128.802 201.681 125.874 202.353 123.81 202.817L123.442 201.617ZM131.522 188.641H132.802C132.754 196.065 134.194 202.065 136.162 202.065C136.61 202.065 136.802 201.185 136.898 199.041C137.17 199.313 137.634 199.585 137.97 199.697C137.762 202.497 137.298 203.313 136.066 203.313C132.882 203.313 131.586 196.385 131.522 188.641ZM145.714 188.577L146.706 188.689C146.322 190.641 145.554 192.961 144.066 194.737C143.906 194.529 143.602 194.193 143.378 194.049C144.706 192.465 145.41 190.273 145.714 188.577ZM146.002 190.145H148.226V191.089H145.698L146.002 190.145ZM147.954 190.145H148.13L148.306 190.097L148.898 190.289C148.354 194.769 146.754 197.857 144.594 199.409C144.45 199.169 144.162 198.801 143.938 198.609C145.922 197.297 147.49 194.289 147.954 190.337V190.145ZM144.914 192.561L145.378 191.873C146.258 192.465 147.282 193.329 147.746 193.953L147.282 194.737C146.818 194.081 145.81 193.169 144.914 192.561ZM148.578 192.113H153.746V193.153H148.578V192.113ZM150.354 188.561H151.394C151.266 192.993 150.946 197.105 148.066 199.281C147.906 199.041 147.554 198.673 147.298 198.481C150.002 196.513 150.258 192.641 150.354 188.561ZM151.506 189.521L152.29 189.137C152.786 189.825 153.394 190.769 153.666 191.345L152.866 191.809C152.61 191.217 152.018 190.241 151.506 189.521ZM144.61 199.617L145.538 199.969C145.282 200.977 144.898 202.321 144.386 203.169L143.41 202.753C143.938 201.937 144.37 200.609 144.61 199.617ZM146.642 199.985L147.554 199.873C147.794 200.897 147.97 202.209 147.986 202.977L146.994 203.153C146.994 202.353 146.85 201.009 146.642 199.985ZM148.978 199.937L149.906 199.713C150.338 200.689 150.77 202.001 150.914 202.785L149.954 203.089C149.794 202.289 149.394 200.961 148.978 199.937ZM151.346 199.809L152.29 199.473C152.914 200.497 153.634 201.889 153.954 202.737L152.946 203.137C152.658 202.305 151.97 200.865 151.346 199.809ZM143.666 195.457C144.37 195.329 145.234 195.089 146.226 194.849L146.338 195.537C145.474 195.857 144.738 196.129 143.97 196.385L143.666 195.457ZM141.09 188.689H142.146V194.305C142.146 197.521 141.906 200.721 139.762 203.249C139.586 202.993 139.218 202.625 138.978 202.449C140.898 200.129 141.09 197.185 141.09 194.305V188.689ZM143.122 191.057L144.05 191.345C143.618 192.433 143.138 193.777 142.738 194.625L142.066 194.369C142.434 193.489 142.898 192.033 143.122 191.057ZM141.89 197.761C142.242 198.177 143.49 200.145 143.778 200.593L142.978 201.409C142.61 200.657 141.57 198.881 141.154 198.273L141.89 197.761ZM139.074 191.521L139.874 191.393C140.146 192.897 140.402 194.817 140.466 195.889L139.602 196.097C139.554 194.977 139.33 193.009 139.074 191.521ZM150.322 193.329L151.282 193.025C152.322 194.865 153.442 197.297 153.874 198.769L152.834 199.153C152.434 197.665 151.362 195.201 150.322 193.329ZM165.282 194.369H169.25V195.249H165.282V194.369ZM164.818 196.481H169.682V197.361H164.818V196.481ZM164.434 188.577H165.602V192.465H164.434V188.577ZM166.674 193.297H167.698V196.945H166.674V193.297ZM161.506 189.953H168.818V190.881H161.506V189.953ZM160.674 194.369H164.418V195.249H160.674V194.369ZM160.658 192.017H169.682V192.961H160.658V192.017ZM160.29 198.177H169.842V199.185H160.29V198.177ZM162.066 193.297H163.09V196.753L162.066 196.961V193.297ZM160.242 196.753C161.346 196.625 162.914 196.449 164.53 196.241L164.546 197.089C163.09 197.313 161.602 197.505 160.434 197.665L160.242 196.753ZM165.618 198.689H166.738V201.745C166.738 202.113 166.802 202.161 167.202 202.161C167.378 202.161 168.274 202.161 168.514 202.161C168.882 202.161 168.946 201.953 168.994 200.529C169.218 200.689 169.666 200.849 169.97 200.929C169.874 202.705 169.57 203.137 168.642 203.137C168.402 203.137 167.266 203.137 167.058 203.137C165.89 203.137 165.618 202.833 165.618 201.761V198.689ZM162.85 198.721H163.97C163.746 201.169 163.026 202.545 160.194 203.297C160.098 203.025 159.794 202.577 159.554 202.369C162.098 201.777 162.69 200.721 162.85 198.721ZM157.282 188.737H158.354V194.225C158.354 197.457 158.114 200.737 155.986 203.313C155.81 203.073 155.442 202.705 155.186 202.529C157.074 200.145 157.282 197.137 157.282 194.241V188.737ZM159.586 190.849L160.626 191.185C160.194 192.369 159.714 193.857 159.298 194.769L158.546 194.481C158.93 193.521 159.362 191.921 159.586 190.849ZM158.034 197.585C158.482 198.033 160.018 200.001 160.37 200.449L159.586 201.297C159.122 200.513 157.826 198.785 157.314 198.145L158.034 197.585ZM155.106 191.617L155.938 191.313C156.386 192.721 156.866 194.497 157.042 195.489L156.178 195.921C155.97 194.849 155.522 193.009 155.106 191.617Z" fill="#4F4F4F"/>
<mask id="mask1_416_54713" style="mask-type:luminance" maskUnits="userSpaceOnUse" x="73" y="190" width="10" height="10">
<path d="M83 190H73V200H83V190Z" fill="white"/>
</mask>
<g mask="url(#mask1_416_54713)">
<path d="M82.9063 195.094L77.9062 190.094L72.9063 195.094L77.9063 200.094L82.9063 195.094Z" fill="url(#paint6_linear_416_54713)"/>
</g>
<mask id="mask2_416_54713" style="mask-type:luminance" maskUnits="userSpaceOnUse" x="72" y="226" width="11" height="10">
<path d="M82.5 226H72.5V236H82.5V226Z" fill="white"/>
</mask>
<g mask="url(#mask2_416_54713)">
<path d="M82.4063 231.094L77.4062 226.094L72.4062 231.094L77.4062 236.094L82.4063 231.094Z" fill="url(#paint7_linear_416_54713)"/>
</g>
<path d="M100.769 224.575L101.969 224.783C101.041 226.335 99.6013 227.871 97.4413 229.055C97.2813 228.799 96.9293 228.415 96.6733 228.239C98.6733 227.231 100.065 225.807 100.769 224.575ZM100.385 225.967H104.273V226.959H99.6813L100.385 225.967ZM103.857 225.967H104.081L104.289 225.903L105.057 226.271C103.793 229.631 100.801 231.535 97.5853 232.463C97.4733 232.175 97.1693 231.727 96.9613 231.487C99.9213 230.767 102.801 228.959 103.857 226.159V225.967ZM98.7213 228.095L99.4893 227.487C100.369 227.999 101.409 228.799 101.921 229.391L101.121 230.063C100.641 229.487 99.5853 228.639 98.7213 228.095ZM101.617 230.591L102.833 230.799C101.809 232.543 100.145 234.255 97.6493 235.535C97.4893 235.263 97.1373 234.879 96.8813 234.703C99.2333 233.599 100.833 231.999 101.617 230.591ZM101.169 232.111H104.993V233.135H100.449L101.169 232.111ZM104.641 232.111H104.881L105.105 232.063L105.873 232.399C104.513 236.447 101.105 238.415 97.2333 239.295C97.1053 238.991 96.8333 238.527 96.6253 238.271C100.241 237.583 103.505 235.727 104.641 232.303V232.111ZM99.0733 234.511L99.8893 233.839C100.913 234.399 102.113 235.295 102.689 235.951L101.841 236.703C101.281 236.031 100.097 235.119 99.0733 234.511ZM93.8893 225.887H95.0573V239.247H93.8893V225.887ZM91.2653 229.071H97.0733V230.207H91.2653V229.071ZM93.9533 229.503L94.7053 229.823C94.0653 232.079 92.7853 234.879 91.5533 236.367C91.4413 236.031 91.1533 235.535 90.9453 235.263C92.0973 233.983 93.3773 231.487 93.9533 229.503ZM96.2573 224.799L97.1053 225.727C95.6333 226.319 93.3933 226.767 91.5373 227.023C91.4733 226.751 91.3133 226.367 91.1693 226.095C92.9773 225.791 95.0893 225.343 96.2573 224.799ZM95.0093 231.135C95.4093 231.487 96.9133 233.007 97.2333 233.407L96.5293 234.351C96.1453 233.695 94.9453 232.175 94.4493 231.615L95.0093 231.135ZM107.601 235.023H114.897V235.935H107.601V235.023ZM107.169 227.311H115.153V228.239H107.169V227.311ZM110.641 225.855H111.745V237.631H110.641V225.855ZM107.153 237.663C109.105 237.487 112.097 237.199 114.961 236.895L114.977 237.839C112.257 238.159 109.361 238.495 107.329 238.703L107.153 237.663ZM108.641 232.031V233.215H113.825V232.031H108.641ZM108.641 230.079V231.231H113.825V230.079H108.641ZM107.633 229.247H114.849V234.047H107.633V229.247ZM114.273 224.719L114.881 225.647C112.993 226.063 110.017 226.335 107.617 226.415C107.569 226.159 107.457 225.759 107.329 225.519C109.713 225.391 112.625 225.103 114.273 224.719ZM115.041 228.303H120.817V229.423H115.041V228.303ZM120.353 228.303H121.505C121.505 228.303 121.489 228.751 121.489 228.911C121.313 235.663 121.153 237.903 120.625 238.591C120.337 239.007 120.017 239.151 119.537 239.199C119.089 239.247 118.321 239.247 117.585 239.199C117.553 238.863 117.425 238.367 117.233 238.047C118.017 238.111 118.721 238.127 119.041 238.127C119.297 238.127 119.457 238.079 119.601 237.871C120.001 237.375 120.177 235.071 120.353 228.591V228.303ZM116.977 224.767H118.129C118.113 231.135 118.097 236.511 114.273 239.375C114.081 239.087 113.665 238.703 113.377 238.511C117.041 235.887 116.961 230.815 116.977 224.767ZM133.841 225.359L134.641 224.671C135.473 225.231 136.481 226.063 136.977 226.623L136.129 227.375C135.649 226.799 134.673 225.935 133.841 225.359ZM123.377 227.551H137.633V228.719H123.377V227.551ZM123.921 231.119H130.993V232.287H123.921V231.119ZM126.801 231.743H128.001V237.455H126.801V231.743ZM123.441 237.615C125.345 237.247 128.481 236.607 131.441 235.967L131.537 237.039C128.801 237.679 125.873 238.351 123.809 238.815L123.441 237.615ZM131.521 224.639H132.801C132.753 232.063 134.193 238.063 136.161 238.063C136.609 238.063 136.801 237.183 136.897 235.039C137.169 235.311 137.633 235.583 137.969 235.695C137.761 238.495 137.297 239.311 136.065 239.311C132.881 239.311 131.585 232.383 131.521 224.639ZM145.713 224.575L146.705 224.687C146.321 226.639 145.553 228.959 144.065 230.735C143.905 230.527 143.601 230.191 143.377 230.047C144.705 228.463 145.409 226.271 145.713 224.575ZM146.001 226.143H148.225V227.087H145.697L146.001 226.143ZM147.953 226.143H148.129L148.305 226.095L148.897 226.287C148.353 230.767 146.753 233.855 144.593 235.407C144.449 235.167 144.161 234.799 143.937 234.607C145.921 233.295 147.489 230.287 147.953 226.335V226.143ZM144.913 228.559L145.377 227.871C146.257 228.463 147.281 229.327 147.745 229.951L147.281 230.735C146.817 230.079 145.809 229.167 144.913 228.559ZM148.577 228.111H153.745V229.151H148.577V228.111ZM150.353 224.559H151.393C151.265 228.991 150.945 233.103 148.065 235.279C147.905 235.039 147.553 234.671 147.297 234.479C150.001 232.511 150.257 228.639 150.353 224.559ZM151.505 225.519L152.289 225.135C152.785 225.823 153.393 226.767 153.665 227.343L152.865 227.807C152.609 227.215 152.017 226.239 151.505 225.519ZM144.609 235.615L145.537 235.967C145.281 236.975 144.897 238.319 144.385 239.167L143.409 238.751C143.937 237.935 144.369 236.607 144.609 235.615ZM146.641 235.983L147.553 235.871C147.793 236.895 147.969 238.207 147.985 238.975L146.993 239.151C146.993 238.351 146.849 237.007 146.641 235.983ZM148.977 235.935L149.905 235.711C150.337 236.687 150.769 237.999 150.913 238.783L149.953 239.087C149.793 238.287 149.393 236.959 148.977 235.935ZM151.345 235.807L152.289 235.471C152.913 236.495 153.633 237.887 153.953 238.735L152.945 239.135C152.657 238.303 151.969 236.863 151.345 235.807ZM143.665 231.455C144.369 231.327 145.233 231.087 146.225 230.847L146.337 231.535C145.473 231.855 144.737 232.127 143.969 232.383L143.665 231.455ZM141.089 224.687H142.145V230.303C142.145 233.519 141.905 236.719 139.761 239.247C139.585 238.991 139.217 238.623 138.977 238.447C140.897 236.127 141.089 233.183 141.089 230.303V224.687ZM143.121 227.055L144.049 227.343C143.617 228.431 143.137 229.775 142.737 230.623L142.065 230.367C142.433 229.487 142.897 228.031 143.121 227.055ZM141.889 233.759C142.241 234.175 143.489 236.143 143.777 236.591L142.977 237.407C142.609 236.655 141.569 234.879 141.153 234.271L141.889 233.759ZM139.073 227.519L139.873 227.391C140.145 228.895 140.401 230.815 140.465 231.887L139.601 232.095C139.553 230.975 139.329 229.007 139.073 227.519ZM150.321 229.327L151.281 229.023C152.321 230.863 153.441 233.295 153.873 234.767L152.833 235.151C152.433 233.663 151.361 231.199 150.321 229.327ZM165.281 230.367H169.249V231.247H165.281V230.367ZM164.817 232.479H169.681V233.359H164.817V232.479ZM164.433 224.575H165.601V228.463H164.433V224.575ZM166.673 229.295H167.697V232.943H166.673V229.295ZM161.505 225.951H168.817V226.879H161.505V225.951ZM160.673 230.367H164.417V231.247H160.673V230.367ZM160.657 228.015H169.681V228.959H160.657V228.015ZM160.289 234.175H169.841V235.183H160.289V234.175ZM162.065 229.295H163.089V232.751L162.065 232.959V229.295ZM160.241 232.751C161.345 232.623 162.913 232.447 164.529 232.239L164.545 233.087C163.089 233.311 161.601 233.503 160.433 233.663L160.241 232.751ZM165.617 234.687H166.737V237.743C166.737 238.111 166.801 238.159 167.201 238.159C167.377 238.159 168.273 238.159 168.513 238.159C168.881 238.159 168.945 237.951 168.993 236.527C169.217 236.687 169.665 236.847 169.969 236.927C169.873 238.703 169.569 239.135 168.641 239.135C168.401 239.135 167.265 239.135 167.057 239.135C165.889 239.135 165.617 238.831 165.617 237.759V234.687ZM162.849 234.719H163.969C163.745 237.167 163.025 238.543 160.193 239.295C160.097 239.023 159.793 238.575 159.553 238.367C162.097 237.775 162.689 236.719 162.849 234.719ZM157.281 224.735H158.353V230.223C158.353 233.455 158.113 236.735 155.985 239.311C155.809 239.071 155.441 238.703 155.185 238.527C157.073 236.143 157.281 233.135 157.281 230.239V224.735ZM159.585 226.847L160.625 227.183C160.193 228.367 159.713 229.855 159.297 230.767L158.545 230.479C158.929 229.519 159.361 227.919 159.585 226.847ZM158.033 233.583C158.481 234.031 160.017 235.999 160.369 236.447L159.585 237.295C159.121 236.511 157.825 234.783 157.313 234.143L158.033 233.583ZM155.105 227.615L155.937 227.311C156.385 228.719 156.865 230.495 157.041 231.487L156.177 231.919C155.969 230.847 155.521 229.007 155.105 227.615Z" fill="#4F4F4F"/>
<path d="M263.477 72.2472H270.885V73.3672H263.477V72.2472ZM263.221 79.2232H270.997V80.3752H263.221V79.2232ZM272.069 71.9912H276.213V73.3032H272.069V71.9912ZM266.613 71.3512H267.893V82.3432H266.613V71.3512ZM271.477 71.9912H272.917V79.8312C272.917 80.4712 273.029 80.5992 273.701 80.5992C274.005 80.5992 275.493 80.5992 275.877 80.5992C276.469 80.5992 276.581 80.2472 276.645 78.5512C276.981 78.7752 277.557 79.0312 277.973 79.1112C277.797 81.3032 277.397 81.9592 275.989 81.9592C275.621 81.9592 273.845 81.9592 273.509 81.9592C271.957 81.9592 271.477 81.5272 271.477 79.8312V71.9912ZM275.445 71.9912H276.901V76.6952C276.901 77.3672 276.773 77.7832 276.261 78.0232C275.765 78.2632 275.045 78.2952 274.005 78.2952C273.925 77.8632 273.685 77.2712 273.493 76.8872C274.261 76.9032 274.949 76.9032 275.173 76.9032C275.397 76.8872 275.445 76.8392 275.445 76.6472V71.9912ZM265.205 76.7112V77.5752H269.221V76.7112H265.205ZM265.205 74.9832V75.8152H269.221V74.9832H265.205ZM264.005 74.0392H270.485V78.5352H264.005V74.0392ZM265.269 68.5512H270.357V69.7512H265.269V68.5512ZM271.909 68.5672H277.829V69.7512H271.909V68.5672ZM265.509 67.3672L266.853 67.7512C266.229 69.2872 265.189 70.8392 264.181 71.8472C263.957 71.5752 263.445 71.0632 263.141 70.8232C264.101 69.9592 264.997 68.6792 265.509 67.3672ZM272.117 67.3672L273.509 67.7032C272.997 69.2712 272.085 70.7912 271.125 71.7512C270.869 71.5112 270.309 71.0792 269.973 70.8712C270.901 70.0232 271.685 68.7112 272.117 67.3672ZM266.405 70.2472L267.317 69.4632C267.893 69.9112 268.645 70.5832 269.013 71.0152L268.053 71.8952C267.701 71.4312 266.981 70.7432 266.405 70.2472ZM273.381 70.3112L274.357 69.5112C274.917 69.9272 275.637 70.5352 276.005 70.9512L274.981 71.8472C274.645 71.4152 273.941 70.7592 273.381 70.3112ZM280.229 68.7912H284.133V79.0792H280.229V77.7992H283.093V70.0392H280.229V68.7912ZM279.573 68.7912H280.613V80.5352H279.573V68.7912ZM285.349 77.7992H288.181V81.0312H285.349V80.0712H287.061V78.7752H285.349V77.7992ZM284.757 77.7992H285.861V81.7992H284.757V77.7992ZM280.309 73.2392H283.797V74.4872H280.309V73.2392ZM281.381 69.5112H282.293V78.4392H281.381V69.5112ZM284.677 68.4872H293.605V69.4632H284.677V68.4872ZM285.317 70.1832H293.013V71.1432H285.317V70.1832ZM284.453 71.7672H292.885V72.7112H284.453V71.7672ZM285.717 73.3032H291.925V74.1352H285.717V73.3032ZM284.869 74.8712H292.805V75.7032H284.869V74.8712ZM284.373 76.2952H293.925V77.2392H284.373V76.2952ZM288.549 78.1672H293.813V79.1912H288.549V78.1672ZM288.309 67.4952H289.717V70.6952H288.309V67.4952ZM288.213 73.5912H289.509V75.0792H288.213V73.5912ZM292.517 71.7672H292.709L292.933 71.7192L293.829 71.9752C293.605 72.7912 293.301 73.7192 293.029 74.3112L291.957 73.9592C292.165 73.4152 292.389 72.6152 292.517 71.9432V71.7672ZM291.253 77.2232H292.517V81.1432C292.517 81.7192 292.421 82.0072 292.037 82.1832C291.637 82.3592 291.093 82.3592 290.293 82.3592C290.229 82.0552 290.053 81.6072 289.909 81.3032C290.437 81.3192 290.901 81.3192 291.061 81.3032C291.205 81.3032 291.253 81.2712 291.253 81.1112V77.2232ZM288.741 79.7352L289.653 79.2232C290.085 79.6552 290.565 80.2632 290.757 80.6792L289.813 81.2712C289.637 80.8392 289.173 80.1832 288.741 79.7352ZM296.725 69.7512H308.277V71.3992H296.725V69.7512ZM295.381 79.1592H309.621V80.8712H295.381V79.1592Z" fill="black"/>
<path d="M432.5 98H262.5V99H432.5V98Z" fill="#E7E7E7"/>
<mask id="mask3_416_54713" style="mask-type:luminance" maskUnits="userSpaceOnUse" x="262" y="118" width="11" height="10">
<path d="M272.5 118H262.5V128H272.5V118Z" fill="white"/>
</mask>
<g mask="url(#mask3_416_54713)">
<path d="M272.406 123.094L267.406 118.094L262.406 123.094L267.406 128.094L272.406 123.094Z" fill="url(#paint8_linear_416_54713)"/>
</g>
<path d="M283.687 126.162H293.271V126.978H283.687V126.162ZM283.719 124.194H293.959V128.962H283.719V128.082H292.775V125.058H283.719V124.194ZM287.815 124.626H288.967V129.442C288.967 130.002 289.159 130.098 290.183 130.098C290.663 130.098 293.127 130.098 293.751 130.098C294.615 130.098 294.759 129.826 294.839 128.21C295.111 128.402 295.559 128.562 295.895 128.626C295.719 130.562 295.351 131.074 293.831 131.074C293.415 131.074 290.519 131.074 290.119 131.074C288.327 131.074 287.815 130.754 287.815 129.442V124.626ZM283.095 124.194H284.247V129.794H283.095V124.194ZM282.407 117.202H294.551V118.066H282.407V117.202ZM287.847 117.426H289.031V123.586H287.847V117.426ZM281.703 119.09H295.303V122.53H294.103V119.938H282.855V122.53H281.703V119.09ZM283.143 122.722C284.167 122.61 285.543 122.402 286.967 122.178L286.999 122.946C285.767 123.202 284.551 123.442 283.511 123.65L283.143 122.722ZM283.559 120.898L283.911 120.258C284.935 120.434 286.295 120.786 287.015 121.106L286.663 121.826C285.943 121.522 284.599 121.106 283.559 120.898ZM292.951 120.178L293.479 120.866C292.567 121.25 291.255 121.586 290.327 121.778L289.895 121.154C290.823 120.946 292.167 120.466 292.951 120.178ZM289.703 122.834L289.991 122.098C291.223 122.226 292.839 122.578 293.735 122.882L293.463 123.698C292.583 123.394 290.951 123.01 289.703 122.834ZM297.815 120.066H310.231V121.282H297.815V120.066ZM309.767 120.066H311.015C311.015 120.066 310.999 120.514 310.983 120.706C310.615 127.33 310.279 129.714 309.575 130.514C309.191 130.978 308.807 131.106 308.199 131.154C307.639 131.218 306.615 131.186 305.623 131.122C305.607 130.77 305.447 130.242 305.223 129.89C306.311 129.986 307.335 130.002 307.735 130.002C308.087 130.002 308.279 129.954 308.487 129.762C309.095 129.17 309.447 126.674 309.767 120.322V120.066ZM303.047 116.594H304.311V119.378C304.311 123.026 303.863 127.97 298.263 131.346C298.087 131.058 297.639 130.61 297.351 130.402C302.663 127.234 303.047 122.69 303.047 119.378V116.594Z" fill="#4F4F4F"/>
<mask id="mask4_416_54713" style="mask-type:luminance" maskUnits="userSpaceOnUse" x="73" y="154" width="10" height="10">
<path d="M83 154H73V164H83V154Z" fill="white"/>
</mask>
<g mask="url(#mask4_416_54713)">
<path d="M82.9063 159.094L77.9062 154.094L72.9062 159.094L77.9062 164.094L82.9063 159.094Z" fill="url(#paint9_linear_416_54713)"/>
</g>
<mask id="mask5_416_54713" style="mask-type:luminance" maskUnits="userSpaceOnUse" x="263" y="154" width="10" height="10">
<path d="M273 154H263V164H273V154Z" fill="white"/>
</mask>
<g mask="url(#mask5_416_54713)">
<path d="M272.906 159.094L267.906 154.094L262.906 159.094L267.906 164.094L272.906 159.094Z" fill="url(#paint10_linear_416_54713)"/>
</g>
<path d="M283.811 156.222H291.571V157.198H283.811V156.222ZM283.827 162.894H292.963V163.934H283.827V162.894ZM281.891 158.318H286.131V159.31H281.891V158.318ZM287.875 158.398H289.043V161.342C289.043 161.902 288.947 162.158 288.515 162.302C288.099 162.462 287.443 162.478 286.467 162.478C286.403 162.174 286.259 161.806 286.099 161.518C286.835 161.55 287.443 161.55 287.651 161.534C287.827 161.518 287.875 161.47 287.875 161.31V158.398ZM283.315 164.366L284.323 164.894C283.811 165.694 283.123 166.734 282.371 167.406L281.315 166.814C282.115 166.174 282.851 165.166 283.315 164.366ZM285.747 164.814L286.851 164.654C287.139 165.406 287.379 166.398 287.411 167.038L286.227 167.23C286.211 166.59 286.003 165.582 285.747 164.814ZM289.203 164.798L290.227 164.462C290.739 165.182 291.235 166.158 291.411 166.814L290.307 167.198C290.147 166.542 289.683 165.534 289.203 164.798ZM292.339 164.814L293.315 164.302C294.179 165.006 295.203 166.03 295.667 166.734L294.627 167.294C294.195 166.574 293.203 165.534 292.339 164.814ZM285.907 158.318H286.131L286.339 158.286L287.059 158.59C286.147 160.894 284.035 162.43 281.875 163.182C281.731 162.91 281.443 162.478 281.219 162.254C283.171 161.662 285.187 160.286 285.907 158.494V158.318ZM291.283 156.222H291.571L291.827 156.158L292.563 156.782C291.491 157.662 289.907 158.542 288.515 159.086C288.371 158.878 288.067 158.558 287.875 158.398C289.123 157.934 290.563 157.102 291.283 156.446V156.222ZM289.347 158.462C290.547 160.142 293.011 161.422 295.619 161.934C295.363 162.174 295.027 162.638 294.867 162.942C292.243 162.286 289.763 160.782 288.451 158.782L289.347 158.462ZM293.251 158.03L294.195 158.686C293.331 159.406 292.259 160.142 291.395 160.638L290.627 160.046C291.459 159.534 292.595 158.654 293.251 158.03ZM281.363 153.694H288.003V154.734H281.363V153.694ZM284.755 152.574H285.875V155.79H284.755V152.574ZM291.235 152.574H292.355V155.79H291.235V152.574ZM288.915 153.694H295.555V154.718H288.915V153.694ZM303.507 154.446H311.843V155.502H303.507V154.446ZM303.299 156.798H310.451V157.806H303.299V156.798ZM301.827 159.15H309.459V160.222H301.827V159.15ZM303.875 152.574L305.011 152.862C304.323 154.83 303.203 156.718 302.019 157.934C301.811 157.726 301.331 157.358 301.043 157.198C302.243 156.078 303.267 154.35 303.875 152.574ZM308.803 159.15H309.955C309.971 163.134 310.067 166.19 310.883 166.19C311.107 166.19 311.187 165.262 311.219 163.998C311.427 164.254 311.747 164.542 311.987 164.702C311.891 166.59 311.683 167.31 310.787 167.31C308.947 167.31 308.867 164.014 308.803 159.15ZM298.051 153.758L298.739 152.894C299.635 153.342 300.851 154.062 301.459 154.558L300.739 155.534C300.163 155.006 298.979 154.254 298.051 153.758ZM297.091 158.142L297.731 157.262C298.659 157.646 299.923 158.286 300.547 158.734L299.891 159.742C299.267 159.278 298.035 158.606 297.091 158.142ZM297.587 166.158C298.355 164.974 299.443 162.974 300.259 161.23L301.171 162.014C300.435 163.614 299.475 165.518 298.627 166.958L297.587 166.158Z" fill="#4F4F4F"/>
</g>
<defs>
<linearGradient id="paint0_linear_416_54713" x1="658" y1="38.5781" x2="658" y2="368.578" gradientUnits="userSpaceOnUse">
<stop stop-color="#C2C559"/>
<stop offset="1" stop-color="#A7AC39"/>
</linearGradient>
<linearGradient id="paint1_linear_416_54713" x1="704.823" y1="41.5205" x2="671.848" y2="185.243" gradientUnits="userSpaceOnUse">
<stop stop-color="#FF9E45"/>
<stop offset="0.525118" stop-color="#FF7A00"/>
</linearGradient>
<linearGradient id="paint2_linear_416_54713" x1="817.538" y1="71.2614" x2="809.432" y2="148.84" gradientUnits="userSpaceOnUse">
<stop stop-color="#859FD1"/>
<stop offset="1" stop-color="#4985C6"/>
</linearGradient>
<linearGradient id="paint3_linear_416_54713" x1="783.814" y1="83.2186" x2="773.587" y2="178.17" gradientUnits="userSpaceOnUse">
<stop stop-color="#D386A4"/>
<stop offset="0.950546" stop-color="#BD5784"/>
</linearGradient>
<linearGradient id="paint4_linear_416_54713" x1="780.932" y1="53.0375" x2="769.13" y2="162.606" gradientUnits="userSpaceOnUse">
<stop stop-color="#6FC7E2"/>
<stop offset="0.875982" stop-color="#00AED4"/>
</linearGradient>
<linearGradient id="paint5_linear_416_54713" x1="78.0003" y1="118" x2="78.0004" y2="128" gradientUnits="userSpaceOnUse">
<stop stop-color="#6FC7E2"/>
<stop offset="1" stop-color="#00AED4"/>
</linearGradient>
<linearGradient id="paint6_linear_416_54713" x1="78.0003" y1="190" x2="78.0003" y2="200" gradientUnits="userSpaceOnUse">
<stop stop-color="#D386A4"/>
<stop offset="1" stop-color="#BD5784"/>
</linearGradient>
<linearGradient id="paint7_linear_416_54713" x1="77.5003" y1="226" x2="77.5004" y2="236" gradientUnits="userSpaceOnUse">
<stop stop-color="#888888"/>
<stop offset="1" stop-color="#4F4F4F"/>
</linearGradient>
<linearGradient id="paint8_linear_416_54713" x1="267" y1="118" x2="267" y2="128" gradientUnits="userSpaceOnUse">
<stop stop-color="#C2C559"/>
<stop offset="1" stop-color="#A7AC39"/>
</linearGradient>
<linearGradient id="paint9_linear_416_54713" x1="78.0003" y1="154.5" x2="78.0003" y2="164" gradientUnits="userSpaceOnUse">
<stop stop-color="#859FD1"/>
<stop offset="1" stop-color="#4985C6"/>
</linearGradient>
<linearGradient id="paint10_linear_416_54713" x1="268" y1="154" x2="268" y2="164" gradientUnits="userSpaceOnUse">
<stop stop-color="#FF9E45"/>
<stop offset="1" stop-color="#FF7A00"/>
</linearGradient>
<clipPath id="clip0_416_54713">
<rect width="876" height="371" fill="white"/>
</clipPath>
<clipPath id="clip1_416_54713">
<rect width="388" height="373" fill="white" transform="translate(464)"/>
</clipPath>
</defs>
</svg>
