<svg width="942" height="470" viewBox="0 0 942 470" fill="none" xmlns="http://www.w3.org/2000/svg">
<path d="M653 378C653 375.791 654.791 374 657 374L817.417 374C818.636 374 819.789 374.556 820.548 375.51L842.02 402.51C843.179 403.968 843.179 406.032 842.02 407.49L820.548 434.49C819.789 435.444 818.636 436 817.417 436L657 436C654.791 436 653 434.209 653 432V378Z" fill="url(#paint0_linear_367_47613)"/>
<path d="M726.8 411.74V407.42H722.76V405.74H726.8V401.4H728.58V405.74H732.64V407.42H728.58V411.74H726.8ZM738.766 414.28C737.993 414.28 737.306 414.187 736.706 414C736.12 413.813 735.6 413.567 735.146 413.26C734.693 412.94 734.3 412.6 733.966 412.24L735.086 410.76C735.526 411.187 736.026 411.56 736.586 411.88C737.146 412.2 737.806 412.36 738.566 412.36C739.126 412.36 739.613 412.267 740.026 412.08C740.44 411.88 740.76 411.6 740.986 411.24C741.226 410.88 741.346 410.44 741.346 409.92C741.346 409.387 741.213 408.92 740.946 408.52C740.693 408.107 740.246 407.793 739.606 407.58C738.98 407.353 738.113 407.24 737.006 407.24V405.52C737.98 405.52 738.74 405.413 739.286 405.2C739.846 404.973 740.246 404.667 740.486 404.28C740.74 403.893 740.866 403.453 740.866 402.96C740.866 402.32 740.666 401.813 740.266 401.44C739.866 401.053 739.313 400.86 738.606 400.86C738.046 400.86 737.52 400.987 737.026 401.24C736.546 401.48 736.093 401.807 735.666 402.22L734.466 400.78C735.053 400.247 735.693 399.82 736.386 399.5C737.08 399.167 737.846 399 738.686 399C739.566 399 740.346 399.153 741.026 399.46C741.706 399.753 742.24 400.18 742.626 400.74C743.013 401.3 743.206 401.987 743.206 402.8C743.206 403.64 742.973 404.353 742.506 404.94C742.053 405.527 741.44 405.967 740.666 406.26V406.34C741.226 406.487 741.733 406.727 742.186 407.06C742.653 407.38 743.02 407.793 743.286 408.3C743.553 408.807 743.686 409.387 743.686 410.04C743.686 410.92 743.46 411.68 743.006 412.32C742.566 412.947 741.973 413.433 741.226 413.78C740.48 414.113 739.66 414.28 738.766 414.28ZM750.533 414.28C749.573 414.28 748.733 413.993 748.013 413.42C747.293 412.847 746.733 411.993 746.333 410.86C745.946 409.713 745.753 408.287 745.753 406.58C745.753 404.873 745.946 403.46 746.333 402.34C746.733 401.22 747.293 400.387 748.013 399.84C748.733 399.28 749.573 399 750.533 399C751.493 399 752.326 399.28 753.033 399.84C753.739 400.4 754.286 401.24 754.673 402.36C755.073 403.467 755.273 404.873 755.273 406.58C755.273 408.287 755.073 409.713 754.673 410.86C754.286 411.993 753.739 412.847 753.033 413.42C752.326 413.993 751.493 414.28 750.533 414.28ZM750.533 412.44C751.026 412.44 751.466 412.247 751.853 411.86C752.239 411.473 752.539 410.853 752.753 410C752.966 409.133 753.073 407.993 753.073 406.58C753.073 405.167 752.966 404.04 752.753 403.2C752.539 402.36 752.239 401.753 751.853 401.38C751.466 401.007 751.026 400.82 750.533 400.82C750.039 400.82 749.599 401.007 749.213 401.38C748.826 401.753 748.519 402.36 748.293 403.2C748.079 404.04 747.973 405.167 747.973 406.58C747.973 407.993 748.079 409.133 748.293 410C748.519 410.853 748.826 411.473 749.213 411.86C749.599 412.247 750.039 412.44 750.533 412.44ZM760.379 408.3C759.699 408.3 759.099 408.12 758.579 407.76C758.059 407.387 757.652 406.853 757.359 406.16C757.079 405.453 756.939 404.607 756.939 403.62C756.939 402.633 757.079 401.8 757.359 401.12C757.652 400.427 758.059 399.9 758.579 399.54C759.099 399.18 759.699 399 760.379 399C761.072 399 761.679 399.18 762.199 399.54C762.719 399.9 763.119 400.427 763.399 401.12C763.692 401.8 763.839 402.633 763.839 403.62C763.839 404.607 763.692 405.453 763.399 406.16C763.119 406.853 762.719 407.387 762.199 407.76C761.679 408.12 761.072 408.3 760.379 408.3ZM760.379 406.96C760.899 406.96 761.319 406.687 761.639 406.14C761.972 405.593 762.139 404.753 762.139 403.62C762.139 402.487 761.972 401.66 761.639 401.14C761.319 400.62 760.899 400.36 760.379 400.36C759.872 400.36 759.452 400.62 759.119 401.14C758.785 401.66 758.619 402.487 758.619 403.62C758.619 404.753 758.785 405.593 759.119 406.14C759.452 406.687 759.872 406.96 760.379 406.96ZM760.839 414.28L768.899 399H770.359L762.299 414.28H760.839ZM770.839 414.28C770.159 414.28 769.559 414.093 769.039 413.72C768.519 413.347 768.112 412.813 767.819 412.12C767.539 411.427 767.399 410.587 767.399 409.6C767.399 408.6 767.539 407.76 767.819 407.08C768.112 406.4 768.519 405.88 769.039 405.52C769.559 405.147 770.159 404.96 770.839 404.96C771.519 404.96 772.119 405.147 772.639 405.52C773.159 405.88 773.559 406.4 773.839 407.08C774.132 407.76 774.279 408.6 774.279 409.6C774.279 410.587 774.132 411.427 773.839 412.12C773.559 412.813 773.159 413.347 772.639 413.72C772.119 414.093 771.519 414.28 770.839 414.28ZM770.839 412.9C771.345 412.9 771.765 412.633 772.099 412.1C772.445 411.567 772.619 410.733 772.619 409.6C772.619 408.453 772.445 407.62 772.099 407.1C771.765 406.58 771.345 406.32 770.839 406.32C770.332 406.32 769.912 406.58 769.579 407.1C769.245 407.62 769.079 408.453 769.079 409.6C769.079 410.733 769.245 411.567 769.579 412.1C769.912 412.633 770.332 412.9 770.839 412.9Z" fill="white"/>
<path d="M98 94C98 91.7909 99.7909 90 102 90H497.359C498.577 90 499.728 90.5545 500.487 91.5065L522.012 118.506C523.175 119.965 523.175 122.035 522.012 123.494L500.487 150.494C499.728 151.445 498.577 152 497.359 152H102C99.7908 152 98 150.209 98 148V94Z" fill="url(#paint1_linear_367_47613)"/>
<path d="M493 231C493 228.791 494.791 227 497 227L657.417 227C658.636 227 659.789 227.556 660.548 228.51L682.02 255.51C683.179 256.968 683.179 259.032 682.02 260.49L660.548 287.49C659.789 288.444 658.636 289 657.417 289L497 289C494.791 289 493 287.209 493 285V231Z" fill="url(#paint2_linear_367_47613)"/>
<path d="M98 231C98 228.791 99.7909 227 102 227H497.359C498.577 227 499.728 227.555 500.487 228.506L522.012 255.506C523.175 256.965 523.175 259.035 522.012 260.494L500.487 287.494C499.728 288.445 498.577 289 497.359 289H102C99.7908 289 98 287.209 98 285V231Z" fill="url(#paint3_linear_367_47613)"/>
<path d="M493 378C493 375.791 494.791 374 497 374L657.417 374C658.636 374 659.789 374.556 660.548 375.51L682.02 402.51C683.179 403.968 683.179 406.032 682.02 407.49L660.548 434.49C659.789 435.444 658.636 436 657.417 436L497 436C494.791 436 493 434.209 493 432V378Z" fill="url(#paint4_linear_367_47613)"/>
<path d="M98 378C98 375.791 99.7909 374 102 374H497.359C498.577 374 499.728 374.555 500.487 375.506L522.012 402.506C523.175 403.965 523.175 406.035 522.012 407.494L500.487 434.494C499.728 435.445 498.577 436 497.359 436H102C99.7908 436 98 434.209 98 432V378Z" fill="url(#paint5_linear_367_47613)"/>
<path d="M263.7 267V265.1H266.94V255.26H264.3V253.8C264.993 253.667 265.593 253.513 266.1 253.34C266.62 253.153 267.093 252.933 267.52 252.68H269.26V265.1H272.12V267H263.7ZM281.086 267.28C280.166 267.28 279.306 267.113 278.506 266.78C277.72 266.433 277.026 265.933 276.426 265.28C275.826 264.627 275.36 263.833 275.026 262.9C274.693 261.953 274.526 260.873 274.526 259.66C274.526 258.46 274.7 257.387 275.046 256.44C275.393 255.493 275.866 254.693 276.466 254.04C277.066 253.373 277.773 252.867 278.586 252.52C279.4 252.173 280.273 252 281.206 252C282.113 252 282.92 252.187 283.626 252.56C284.333 252.933 284.913 253.367 285.366 253.86L284.126 255.34C283.74 254.953 283.306 254.64 282.826 254.4C282.36 254.147 281.833 254.02 281.246 254.02C280.393 254.02 279.64 254.247 278.986 254.7C278.346 255.153 277.84 255.793 277.466 256.62C277.106 257.447 276.926 258.44 276.926 259.6C276.926 260.76 277.1 261.767 277.446 262.62C277.793 263.46 278.286 264.107 278.926 264.56C279.566 265.013 280.32 265.24 281.186 265.24C281.853 265.24 282.446 265.1 282.966 264.82C283.5 264.527 283.986 264.14 284.426 263.66L285.686 265.14C285.086 265.833 284.406 266.367 283.646 266.74C282.9 267.1 282.046 267.28 281.086 267.28ZM292.108 252.6H309.568V254.3H292.108V252.6ZM293.648 260.82H308.048V262.48H293.648V260.82ZM296.708 257.18H304.948V258.82H296.708V257.18ZM303.668 253.36C304.108 254.093 304.675 254.8 305.368 255.48C306.061 256.16 306.835 256.773 307.688 257.32C308.541 257.853 309.408 258.287 310.288 258.62C310.155 258.74 310.001 258.893 309.828 259.08C309.668 259.253 309.515 259.44 309.368 259.64C309.221 259.827 309.101 260 309.008 260.16C308.101 259.76 307.215 259.247 306.348 258.62C305.481 257.98 304.681 257.26 303.948 256.46C303.228 255.66 302.608 254.82 302.088 253.94L303.668 253.36ZM295.788 263.42L297.608 263.96C297.115 264.787 296.508 265.587 295.788 266.36C295.081 267.12 294.375 267.76 293.668 268.28C293.561 268.16 293.415 268.027 293.228 267.88C293.055 267.733 292.868 267.587 292.668 267.44C292.481 267.293 292.315 267.173 292.168 267.08C292.861 266.64 293.535 266.093 294.188 265.44C294.855 264.787 295.388 264.113 295.788 263.42ZM303.888 264.3L305.408 263.42C305.861 263.793 306.335 264.207 306.828 264.66C307.321 265.113 307.788 265.56 308.228 266C308.668 266.44 309.021 266.84 309.288 267.2L307.668 268.2C307.415 267.84 307.075 267.433 306.648 266.98C306.235 266.527 305.788 266.067 305.308 265.6C304.828 265.12 304.355 264.687 303.888 264.3ZM299.188 250.1L301.248 250.38C300.835 251.647 300.261 252.887 299.528 254.1C298.808 255.313 297.881 256.447 296.748 257.5C295.628 258.54 294.275 259.453 292.688 260.24C292.608 260.08 292.488 259.907 292.328 259.72C292.181 259.533 292.021 259.353 291.848 259.18C291.688 259.007 291.528 258.873 291.368 258.78C292.901 258.1 294.195 257.287 295.248 256.34C296.301 255.393 297.148 254.387 297.788 253.32C298.428 252.253 298.895 251.18 299.188 250.1ZM299.888 261.92H301.848V268.7H299.888V261.92ZM311.928 257.72H329.728V259.62H311.928V257.72ZM319.808 250.12H321.808V268.68H319.808V250.12ZM326.828 251.06L328.928 251.88C328.581 252.453 328.221 253.04 327.848 253.64C327.475 254.24 327.101 254.813 326.728 255.36C326.355 255.907 326.001 256.393 325.668 256.82L324.008 256.06C324.341 255.62 324.681 255.113 325.028 254.54C325.388 253.953 325.721 253.36 326.028 252.76C326.348 252.147 326.615 251.58 326.828 251.06ZM312.988 251.94L314.708 251.2C315.095 251.653 315.468 252.16 315.828 252.72C316.188 253.28 316.515 253.827 316.808 254.36C317.101 254.893 317.328 255.38 317.488 255.82L315.608 256.66C315.475 256.233 315.268 255.747 314.988 255.2C314.721 254.653 314.415 254.093 314.068 253.52C313.721 252.947 313.361 252.42 312.988 251.94ZM317.288 260.62L318.948 261.24C318.495 262.187 317.948 263.127 317.308 264.06C316.668 264.993 315.981 265.853 315.248 266.64C314.515 267.413 313.775 268.067 313.028 268.6C312.921 268.453 312.781 268.28 312.608 268.08C312.448 267.893 312.275 267.707 312.088 267.52C311.915 267.347 311.755 267.2 311.608 267.08C312.341 266.627 313.061 266.053 313.768 265.36C314.488 264.667 315.155 263.913 315.768 263.1C316.381 262.273 316.888 261.447 317.288 260.62ZM322.648 261.44L324.148 260.54C324.721 261.06 325.301 261.627 325.888 262.24C326.475 262.84 327.035 263.453 327.568 264.08C328.101 264.707 328.588 265.32 329.028 265.92C329.468 266.507 329.828 267.06 330.108 267.58L328.468 268.64C328.215 268.133 327.875 267.58 327.448 266.98C327.021 266.367 326.548 265.74 326.028 265.1C325.508 264.447 324.955 263.807 324.368 263.18C323.795 262.553 323.221 261.973 322.648 261.44Z" fill="#17418F"/>
<path d="M566.8 264.74V260.42H562.76V258.74H566.8V254.4H568.58V258.74H572.64V260.42H568.58V264.74H566.8ZM578.766 267.28C577.993 267.28 577.306 267.187 576.706 267C576.12 266.813 575.6 266.567 575.146 266.26C574.693 265.94 574.3 265.6 573.966 265.24L575.086 263.76C575.526 264.187 576.026 264.56 576.586 264.88C577.146 265.2 577.806 265.36 578.566 265.36C579.126 265.36 579.613 265.267 580.026 265.08C580.44 264.88 580.76 264.6 580.986 264.24C581.226 263.88 581.346 263.44 581.346 262.92C581.346 262.387 581.213 261.92 580.946 261.52C580.693 261.107 580.246 260.793 579.606 260.58C578.98 260.353 578.113 260.24 577.006 260.24V258.52C577.98 258.52 578.74 258.413 579.286 258.2C579.846 257.973 580.246 257.667 580.486 257.28C580.74 256.893 580.866 256.453 580.866 255.96C580.866 255.32 580.666 254.813 580.266 254.44C579.866 254.053 579.313 253.86 578.606 253.86C578.046 253.86 577.52 253.987 577.026 254.24C576.546 254.48 576.093 254.807 575.666 255.22L574.466 253.78C575.053 253.247 575.693 252.82 576.386 252.5C577.08 252.167 577.846 252 578.686 252C579.566 252 580.346 252.153 581.026 252.46C581.706 252.753 582.24 253.18 582.626 253.74C583.013 254.3 583.206 254.987 583.206 255.8C583.206 256.64 582.973 257.353 582.506 257.94C582.053 258.527 581.44 258.967 580.666 259.26V259.34C581.226 259.487 581.733 259.727 582.186 260.06C582.653 260.38 583.02 260.793 583.286 261.3C583.553 261.807 583.686 262.387 583.686 263.04C583.686 263.92 583.46 264.68 583.006 265.32C582.566 265.947 581.973 266.433 581.226 266.78C580.48 267.113 579.66 267.28 578.766 267.28ZM590.533 267.28C589.573 267.28 588.733 266.993 588.013 266.42C587.293 265.847 586.733 264.993 586.333 263.86C585.946 262.713 585.753 261.287 585.753 259.58C585.753 257.873 585.946 256.46 586.333 255.34C586.733 254.22 587.293 253.387 588.013 252.84C588.733 252.28 589.573 252 590.533 252C591.493 252 592.326 252.28 593.033 252.84C593.739 253.4 594.286 254.24 594.673 255.36C595.073 256.467 595.273 257.873 595.273 259.58C595.273 261.287 595.073 262.713 594.673 263.86C594.286 264.993 593.739 265.847 593.033 266.42C592.326 266.993 591.493 267.28 590.533 267.28ZM590.533 265.44C591.026 265.44 591.466 265.247 591.853 264.86C592.239 264.473 592.539 263.853 592.753 263C592.966 262.133 593.073 260.993 593.073 259.58C593.073 258.167 592.966 257.04 592.753 256.2C592.539 255.36 592.239 254.753 591.853 254.38C591.466 254.007 591.026 253.82 590.533 253.82C590.039 253.82 589.599 254.007 589.213 254.38C588.826 254.753 588.519 255.36 588.293 256.2C588.079 257.04 587.973 258.167 587.973 259.58C587.973 260.993 588.079 262.133 588.293 263C588.519 263.853 588.826 264.473 589.213 264.86C589.599 265.247 590.039 265.44 590.533 265.44ZM600.379 261.3C599.699 261.3 599.099 261.12 598.579 260.76C598.059 260.387 597.652 259.853 597.359 259.16C597.079 258.453 596.939 257.607 596.939 256.62C596.939 255.633 597.079 254.8 597.359 254.12C597.652 253.427 598.059 252.9 598.579 252.54C599.099 252.18 599.699 252 600.379 252C601.072 252 601.679 252.18 602.199 252.54C602.719 252.9 603.119 253.427 603.399 254.12C603.692 254.8 603.839 255.633 603.839 256.62C603.839 257.607 603.692 258.453 603.399 259.16C603.119 259.853 602.719 260.387 602.199 260.76C601.679 261.12 601.072 261.3 600.379 261.3ZM600.379 259.96C600.899 259.96 601.319 259.687 601.639 259.14C601.972 258.593 602.139 257.753 602.139 256.62C602.139 255.487 601.972 254.66 601.639 254.14C601.319 253.62 600.899 253.36 600.379 253.36C599.872 253.36 599.452 253.62 599.119 254.14C598.785 254.66 598.619 255.487 598.619 256.62C598.619 257.753 598.785 258.593 599.119 259.14C599.452 259.687 599.872 259.96 600.379 259.96ZM600.839 267.28L608.899 252H610.359L602.299 267.28H600.839ZM610.839 267.28C610.159 267.28 609.559 267.093 609.039 266.72C608.519 266.347 608.112 265.813 607.819 265.12C607.539 264.427 607.399 263.587 607.399 262.6C607.399 261.6 607.539 260.76 607.819 260.08C608.112 259.4 608.519 258.88 609.039 258.52C609.559 258.147 610.159 257.96 610.839 257.96C611.519 257.96 612.119 258.147 612.639 258.52C613.159 258.88 613.559 259.4 613.839 260.08C614.132 260.76 614.279 261.6 614.279 262.6C614.279 263.587 614.132 264.427 613.839 265.12C613.559 265.813 613.159 266.347 612.639 266.72C612.119 267.093 611.519 267.28 610.839 267.28ZM610.839 265.9C611.345 265.9 611.765 265.633 612.099 265.1C612.445 264.567 612.619 263.733 612.619 262.6C612.619 261.453 612.445 260.62 612.099 260.1C611.765 259.58 611.345 259.32 610.839 259.32C610.332 259.32 609.912 259.58 609.579 260.1C609.245 260.62 609.079 261.453 609.079 262.6C609.079 263.733 609.245 264.567 609.579 265.1C609.912 265.633 610.332 265.9 610.839 265.9Z" fill="white"/>
<path d="M262.7 130V128.1H265.94V118.26H263.3V116.8C263.993 116.667 264.593 116.513 265.1 116.34C265.62 116.153 266.093 115.933 266.52 115.68H268.26V128.1H271.12V130H262.7ZM274.346 130V115.26H278.926C279.926 115.26 280.813 115.38 281.586 115.62C282.373 115.86 282.986 116.247 283.426 116.78C283.88 117.3 284.106 118 284.106 118.88C284.106 119.36 284.02 119.813 283.846 120.24C283.686 120.667 283.453 121.047 283.146 121.38C282.84 121.7 282.46 121.933 282.006 122.08V122.18C282.846 122.353 283.54 122.733 284.086 123.32C284.633 123.893 284.906 124.68 284.906 125.68C284.906 126.653 284.66 127.46 284.166 128.1C283.686 128.74 283.02 129.22 282.166 129.54C281.326 129.847 280.36 130 279.266 130H274.346ZM276.666 121.42H278.646C279.766 121.42 280.573 121.22 281.066 120.82C281.573 120.42 281.826 119.88 281.826 119.2C281.826 118.44 281.566 117.9 281.046 117.58C280.526 117.247 279.746 117.08 278.706 117.08H276.666V121.42ZM276.666 128.18H279.006C280.153 128.18 281.04 127.967 281.666 127.54C282.306 127.113 282.626 126.453 282.626 125.56C282.626 124.733 282.313 124.133 281.686 123.76C281.073 123.373 280.18 123.18 279.006 123.18H276.666V128.18ZM291.518 115.6H308.978V117.3H291.518V115.6ZM293.058 123.82H307.458V125.48H293.058V123.82ZM296.118 120.18H304.358V121.82H296.118V120.18ZM303.078 116.36C303.518 117.093 304.085 117.8 304.778 118.48C305.472 119.16 306.245 119.773 307.098 120.32C307.952 120.853 308.818 121.287 309.698 121.62C309.565 121.74 309.412 121.893 309.238 122.08C309.078 122.253 308.925 122.44 308.778 122.64C308.632 122.827 308.512 123 308.418 123.16C307.512 122.76 306.625 122.247 305.758 121.62C304.892 120.98 304.092 120.26 303.358 119.46C302.638 118.66 302.018 117.82 301.498 116.94L303.078 116.36ZM295.198 126.42L297.018 126.96C296.525 127.787 295.918 128.587 295.198 129.36C294.492 130.12 293.785 130.76 293.078 131.28C292.972 131.16 292.825 131.027 292.638 130.88C292.465 130.733 292.278 130.587 292.078 130.44C291.892 130.293 291.725 130.173 291.578 130.08C292.272 129.64 292.945 129.093 293.598 128.44C294.265 127.787 294.798 127.113 295.198 126.42ZM303.298 127.3L304.818 126.42C305.272 126.793 305.745 127.207 306.238 127.66C306.732 128.113 307.198 128.56 307.638 129C308.078 129.44 308.432 129.84 308.698 130.2L307.078 131.2C306.825 130.84 306.485 130.433 306.058 129.98C305.645 129.527 305.198 129.067 304.718 128.6C304.238 128.12 303.765 127.687 303.298 127.3ZM298.598 113.1L300.658 113.38C300.245 114.647 299.672 115.887 298.938 117.1C298.218 118.313 297.292 119.447 296.158 120.5C295.038 121.54 293.685 122.453 292.098 123.24C292.018 123.08 291.898 122.907 291.738 122.72C291.592 122.533 291.432 122.353 291.258 122.18C291.098 122.007 290.938 121.873 290.778 121.78C292.312 121.1 293.605 120.287 294.658 119.34C295.712 118.393 296.558 117.387 297.198 116.32C297.838 115.253 298.305 114.18 298.598 113.1ZM299.298 124.92H301.258V131.7H299.298V124.92ZM311.338 120.72H329.138V122.62H311.338V120.72ZM319.218 113.12H321.218V131.68H319.218V113.12ZM326.238 114.06L328.338 114.88C327.992 115.453 327.632 116.04 327.258 116.64C326.885 117.24 326.512 117.813 326.138 118.36C325.765 118.907 325.412 119.393 325.078 119.82L323.418 119.06C323.752 118.62 324.092 118.113 324.438 117.54C324.798 116.953 325.132 116.36 325.438 115.76C325.758 115.147 326.025 114.58 326.238 114.06ZM312.398 114.94L314.118 114.2C314.505 114.653 314.878 115.16 315.238 115.72C315.598 116.28 315.925 116.827 316.218 117.36C316.512 117.893 316.738 118.38 316.898 118.82L315.018 119.66C314.885 119.233 314.678 118.747 314.398 118.2C314.132 117.653 313.825 117.093 313.478 116.52C313.132 115.947 312.772 115.42 312.398 114.94ZM316.698 123.62L318.358 124.24C317.905 125.187 317.358 126.127 316.718 127.06C316.078 127.993 315.392 128.853 314.658 129.64C313.925 130.413 313.185 131.067 312.438 131.6C312.332 131.453 312.192 131.28 312.018 131.08C311.858 130.893 311.685 130.707 311.498 130.52C311.325 130.347 311.165 130.2 311.018 130.08C311.752 129.627 312.472 129.053 313.178 128.36C313.898 127.667 314.565 126.913 315.178 126.1C315.792 125.273 316.298 124.447 316.698 123.62ZM322.058 124.44L323.558 123.54C324.132 124.06 324.712 124.627 325.298 125.24C325.885 125.84 326.445 126.453 326.978 127.08C327.512 127.707 327.998 128.32 328.438 128.92C328.878 129.507 329.238 130.06 329.518 130.58L327.878 131.64C327.625 131.133 327.285 130.58 326.858 129.98C326.432 129.367 325.958 128.74 325.438 128.1C324.918 127.447 324.365 126.807 323.778 126.18C323.205 125.553 322.632 124.973 322.058 124.44Z" fill="#17418F"/>
<path d="M606.28 88.56H616.42V90.24H606.28V88.56ZM604.86 97.38H619.48V99.04H604.86V97.38ZM605.56 85.04H619.54V86.74H605.56V85.04ZM615.68 88.56H617.54C617.54 88.56 617.54 88.62 617.54 88.74C617.54 88.8467 617.533 88.9667 617.52 89.1C617.52 89.2333 617.52 89.3467 617.52 89.44C617.467 91.4133 617.407 93.08 617.34 94.44C617.273 95.8 617.193 96.9133 617.1 97.78C617.02 98.6467 616.92 99.32 616.8 99.8C616.68 100.267 616.54 100.607 616.38 100.82C616.167 101.1 615.94 101.293 615.7 101.4C615.46 101.52 615.18 101.6 614.86 101.64C614.553 101.68 614.16 101.693 613.68 101.68C613.2 101.68 612.713 101.667 612.22 101.64C612.207 101.44 612.16 101.193 612.08 100.9C612 100.62 611.893 100.373 611.76 100.16C612.253 100.2 612.693 100.227 613.08 100.24C613.48 100.253 613.78 100.26 613.98 100.26C614.167 100.26 614.313 100.24 614.42 100.2C614.527 100.16 614.627 100.08 614.72 99.96C614.84 99.8 614.947 99.4933 615.04 99.04C615.133 98.5867 615.22 97.9333 615.3 97.08C615.38 96.2267 615.447 95.1333 615.5 93.8C615.567 92.4667 615.627 90.8533 615.68 88.96V88.56ZM605.36 88.56H607.26C607.167 89.4133 607.06 90.3133 606.94 91.26C606.82 92.2067 606.693 93.1533 606.56 94.1C606.427 95.0467 606.293 95.9467 606.16 96.8C606.027 97.64 605.9 98.3867 605.78 99.04H603.84C603.987 98.36 604.127 97.5933 604.26 96.74C604.407 95.8867 604.547 94.9867 604.68 94.04C604.827 93.0933 604.953 92.1533 605.06 91.22C605.18 90.2733 605.28 89.3867 605.36 88.56ZM606.32 83L608.2 83.54C607.787 84.46 607.32 85.36 606.8 86.24C606.28 87.12 605.727 87.9467 605.14 88.72C604.553 89.4933 603.967 90.1733 603.38 90.76C603.247 90.6667 603.08 90.5533 602.88 90.42C602.68 90.2733 602.467 90.1333 602.24 90C602.027 89.8533 601.84 89.74 601.68 89.66C602.307 89.1267 602.907 88.5067 603.48 87.8C604.053 87.08 604.58 86.3133 605.06 85.5C605.553 84.6733 605.973 83.84 606.32 83ZM608.8 91.08L609.86 90.06C610.273 90.2333 610.7 90.44 611.14 90.68C611.593 90.92 612.013 91.1733 612.4 91.44C612.787 91.6933 613.1 91.94 613.34 92.18L612.24 93.32C612 93.08 611.687 92.8267 611.3 92.56C610.927 92.28 610.52 92.0133 610.08 91.76C609.653 91.5067 609.227 91.28 608.8 91.08ZM608.4 95.36L609.46 94.34C609.887 94.5267 610.327 94.7533 610.78 95.02C611.247 95.2867 611.68 95.56 612.08 95.84C612.48 96.12 612.813 96.3867 613.08 96.64L611.98 97.82C611.727 97.5533 611.4 97.2733 611 96.98C610.613 96.6867 610.193 96.4 609.74 96.12C609.287 95.8267 608.84 95.5733 608.4 95.36ZM601.78 92.92H605.74V92.98H616.48V92.92H620.26V94.62H616.48V94.56H605.74V94.62H601.78V92.92ZM621.84 91.16H640.24V93.24H621.84V91.16ZM647.82 84.24H659.66V101.5H657.84V85.9H649.56V101.66H647.82V84.24ZM650.24 88.62H657.26V90.04H650.24V88.62ZM648.74 98.82H658.78V100.48H648.74V98.82ZM652.96 86.44H654.46V92.82H652.96V86.44ZM652.34 93.38V96.06H655.14V93.38H652.34ZM650.94 92.04H656.6V97.4H650.94V92.04ZM645.56 83.2L647.3 83.72C646.913 84.8533 646.453 85.9933 645.92 87.14C645.4 88.2733 644.82 89.3467 644.18 90.36C643.553 91.36 642.9 92.2467 642.22 93.02C642.167 92.8733 642.087 92.6733 641.98 92.42C641.873 92.1667 641.753 91.9133 641.62 91.66C641.5 91.3933 641.387 91.18 641.28 91.02C641.867 90.38 642.427 89.64 642.96 88.8C643.493 87.96 643.98 87.0667 644.42 86.12C644.86 85.16 645.24 84.1867 645.56 83.2ZM643.9 88.34L645.68 86.56L645.7 86.58V101.7H643.9V88.34ZM668.62 86.14H679.72V87.9H668.62V86.14ZM669 90.64H677.72V92.36H669V90.64ZM673.16 83.12H675.04V91.58H673.16V83.12ZM671.24 91.96C671.987 93.9467 673.133 95.6533 674.68 97.08C676.24 98.4933 678.167 99.4933 680.46 100.08C680.327 100.2 680.18 100.353 680.02 100.54C679.86 100.74 679.713 100.94 679.58 101.14C679.447 101.353 679.333 101.54 679.24 101.7C676.84 100.993 674.847 99.8533 673.26 98.28C671.673 96.7067 670.433 94.7667 669.54 92.46L671.24 91.96ZM677.54 90.64H677.88L678.22 90.56L679.44 91.08C679.013 92.5333 678.44 93.8333 677.72 94.98C677.013 96.1133 676.18 97.1133 675.22 97.98C674.273 98.8467 673.227 99.58 672.08 100.18C670.947 100.793 669.747 101.287 668.48 101.66C668.427 101.487 668.34 101.293 668.22 101.08C668.113 100.88 667.993 100.673 667.86 100.46C667.727 100.247 667.6 100.08 667.48 99.96C668.64 99.6667 669.753 99.26 670.82 98.74C671.9 98.2067 672.88 97.5667 673.76 96.82C674.653 96.06 675.42 95.1933 676.06 94.22C676.713 93.2333 677.207 92.14 677.54 90.94V90.64ZM661.66 93.52C662.22 93.3867 662.86 93.2333 663.58 93.06C664.313 92.8733 665.08 92.6733 665.88 92.46C666.693 92.2333 667.493 92.02 668.28 91.82L668.52 93.54C667.427 93.86 666.32 94.18 665.2 94.5C664.093 94.8067 663.08 95.0867 662.16 95.34L661.66 93.52ZM661.9 87.06H668.34V88.82H661.9V87.06ZM664.38 83.12H666.24V99.5C666.24 99.9933 666.18 100.373 666.06 100.64C665.94 100.907 665.733 101.113 665.44 101.26C665.147 101.407 664.767 101.5 664.3 101.54C663.833 101.593 663.253 101.613 662.56 101.6C662.52 101.36 662.447 101.073 662.34 100.74C662.233 100.42 662.12 100.133 662 99.88C662.44 99.8933 662.847 99.9 663.22 99.9C663.607 99.9 663.867 99.8933 664 99.88C664.253 99.88 664.38 99.7533 664.38 99.5V83.12ZM687.08 87.92H694.76V89.66H687.08V87.92ZM689.92 83.24H691.58V101.62H689.92V83.24ZM695.2 84.68H699.98V86.36H695.2V84.68ZM694.72 89.42H700.28V91.12H694.72V89.42ZM692.1 84.8L693.28 84.16C693.613 84.5467 693.947 84.9867 694.28 85.48C694.613 85.96 694.86 86.3733 695.02 86.72L693.78 87.44C693.62 87.0933 693.38 86.6667 693.06 86.16C692.753 85.6533 692.433 85.2 692.1 84.8ZM696.78 90.22H698.58V99.36C698.58 99.84 698.527 100.22 698.42 100.5C698.327 100.78 698.12 100.993 697.8 101.14C697.48 101.3 697.08 101.393 696.6 101.42C696.133 101.46 695.553 101.48 694.86 101.48C694.833 101.213 694.767 100.907 694.66 100.56C694.567 100.213 694.46 99.9067 694.34 99.64C694.793 99.6533 695.22 99.66 695.62 99.66C696.02 99.66 696.293 99.66 696.44 99.66C696.573 99.66 696.66 99.64 696.7 99.6C696.753 99.5467 696.78 99.46 696.78 99.34V90.22ZM685.1 83.12L686.84 83.74C686.507 84.3 686.113 84.8733 685.66 85.46C685.207 86.0467 684.727 86.6067 684.22 87.14C683.727 87.66 683.227 88.12 682.72 88.52C682.64 88.3867 682.54 88.2333 682.42 88.06C682.3 87.8867 682.173 87.7133 682.04 87.54C681.92 87.3667 681.807 87.22 681.7 87.1C682.14 86.7667 682.573 86.38 683 85.94C683.44 85.4867 683.84 85.0133 684.2 84.52C684.573 84.0267 684.873 83.56 685.1 83.12ZM683.88 91.36L685.38 89.86L685.62 89.94V101.7H683.88V91.36ZM685.52 87.24L687.22 87.8C686.833 88.64 686.38 89.48 685.86 90.32C685.353 91.1467 684.8 91.9333 684.2 92.68C683.613 93.4133 683.013 94.06 682.4 94.62C682.347 94.4733 682.253 94.2933 682.12 94.08C681.987 93.8667 681.847 93.6533 681.7 93.44C681.567 93.2133 681.447 93.0333 681.34 92.9C682.153 92.2067 682.933 91.36 683.68 90.36C684.427 89.36 685.04 88.32 685.52 87.24ZM687.66 90.86H689.04C689.04 92.14 688.993 93.2867 688.9 94.3C688.82 95.3133 688.653 96.2 688.4 96.96C688.16 97.7067 687.78 98.34 687.26 98.86C687.167 98.6867 687.027 98.4867 686.84 98.26C686.653 98.0333 686.473 97.86 686.3 97.74C686.713 97.3 687.013 96.7667 687.2 96.14C687.387 95.5 687.507 94.7467 687.56 93.88C687.627 93.0133 687.66 92.0067 687.66 90.86ZM692.52 90.88H693.92V96.24C693.92 96.4933 693.927 96.6667 693.94 96.76C693.953 96.8533 694 96.9 694.08 96.9C694.16 96.9 694.267 96.9 694.4 96.9C694.533 96.9 694.633 96.9 694.7 96.9C694.793 96.9 694.9 96.8933 695.02 96.88C695.14 96.8667 695.247 96.8467 695.34 96.82C695.367 96.9933 695.393 97.22 695.42 97.5C695.447 97.78 695.467 97.9933 695.48 98.14C695.373 98.18 695.253 98.2067 695.12 98.22C694.987 98.2333 694.847 98.24 694.7 98.24C694.62 98.24 694.52 98.24 694.4 98.24C694.293 98.24 694.2 98.24 694.12 98.24C693.667 98.24 693.327 98.18 693.1 98.06C692.873 97.9267 692.72 97.7133 692.64 97.42C692.56 97.1133 692.52 96.7067 692.52 96.2V90.88ZM704.2 91.68H709.56V93.06H704.2V91.68ZM703.9 88.84H710.74V95.76H703.92V94.32H708.96V90.3H703.9V88.84ZM707.12 96.72L708.62 96.04C708.967 96.48 709.32 96.9667 709.68 97.5C710.053 98.02 710.393 98.5267 710.7 99.02C711.02 99.5133 711.287 99.9467 711.5 100.32L709.92 101.16C709.733 100.773 709.48 100.32 709.16 99.8C708.84 99.28 708.5 98.7533 708.14 98.22C707.793 97.6733 707.453 97.1733 707.12 96.72ZM712.06 88.84H718.44V90.56H713.82V101.64H712.06V88.84ZM717.58 88.84H719.38V97.28C719.38 97.7333 719.32 98.1 719.2 98.38C719.093 98.66 718.867 98.8733 718.52 99.02C718.2 99.1533 717.78 99.24 717.26 99.28C716.74 99.3067 716.093 99.32 715.32 99.32C715.28 99.0667 715.207 98.7733 715.1 98.44C714.993 98.1067 714.88 97.82 714.76 97.58C715.293 97.5933 715.787 97.6 716.24 97.6C716.707 97.6 717.02 97.6 717.18 97.6C717.34 97.5867 717.447 97.56 717.5 97.52C717.553 97.4667 717.58 97.3733 717.58 97.24V88.84ZM703.18 101.22L703.02 99.72L703.84 99.1L709.54 97.84C709.5 98.0933 709.473 98.3867 709.46 98.72C709.46 99.04 709.467 99.3 709.48 99.5C708.187 99.8067 707.147 100.06 706.36 100.26C705.587 100.46 704.987 100.613 704.56 100.72C704.133 100.84 703.82 100.933 703.62 101C703.433 101.08 703.287 101.153 703.18 101.22ZM703.18 101.22C703.127 101.087 703.047 100.92 702.94 100.72C702.847 100.533 702.74 100.347 702.62 100.16C702.513 99.9867 702.407 99.84 702.3 99.72C702.487 99.6133 702.667 99.4267 702.84 99.16C703.027 98.8933 703.12 98.5467 703.12 98.12V88.84H704.86V99.46C704.86 99.46 704.773 99.52 704.6 99.64C704.427 99.76 704.227 99.9133 704 100.1C703.787 100.287 703.593 100.48 703.42 100.68C703.26 100.88 703.18 101.06 703.18 101.22ZM704.6 84.46H710.92V86.08H704.6V84.46ZM712.62 84.46H720.16V86.08H712.62V84.46ZM704.78 82.98L706.64 83.54C706.36 84.2333 706.02 84.92 705.62 85.6C705.233 86.28 704.813 86.92 704.36 87.52C703.92 88.12 703.46 88.6467 702.98 89.1C702.9 88.9667 702.787 88.8 702.64 88.6C702.493 88.3867 702.333 88.18 702.16 87.98C702 87.7667 701.853 87.6 701.72 87.48C702.347 86.9333 702.933 86.26 703.48 85.46C704.027 84.66 704.46 83.8333 704.78 82.98ZM712.78 83L714.7 83.48C714.487 84.2133 714.22 84.94 713.9 85.66C713.593 86.3667 713.253 87.0333 712.88 87.66C712.507 88.2867 712.107 88.8333 711.68 89.3C711.587 89.18 711.447 89.0333 711.26 88.86C711.087 88.6867 710.9 88.5133 710.7 88.34C710.513 88.1667 710.347 88.0267 710.2 87.92C710.773 87.32 711.28 86.5867 711.72 85.72C712.173 84.8533 712.527 83.9467 712.78 83ZM705.82 87L707.14 85.96C707.447 86.2267 707.767 86.54 708.1 86.9C708.433 87.2467 708.687 87.5533 708.86 87.82L707.48 88.98C707.32 88.7133 707.08 88.3933 706.76 88.02C706.44 87.6333 706.127 87.2933 705.82 87ZM714.56 86.9L715.84 85.86C716.16 86.1267 716.493 86.44 716.84 86.8C717.187 87.1467 717.447 87.4533 717.62 87.72L716.26 88.86C716.1 88.5933 715.853 88.2733 715.52 87.9C715.187 87.5267 714.867 87.1933 714.56 86.9ZM731.54 92.6H739.54V101.58H737.74V94.32H733.28V101.66H731.54V92.6ZM734.34 83.14H736.18V93.1H734.34V83.14ZM735.44 87.4H740.3V89.16H735.44V87.4ZM732.44 99.08H738.6V100.8H732.44V99.08ZM723.9 85.12V89.74H729.12V85.12H723.9ZM722.44 83.8H730.62V91.06H722.44V83.8ZM724.04 86.04L724.9 85.8C725.06 86.28 725.2 86.8 725.32 87.36C725.44 87.9067 725.513 88.38 725.54 88.78L724.64 89.04C724.627 88.64 724.56 88.16 724.44 87.6C724.333 87.04 724.2 86.52 724.04 86.04ZM724.72 97.64L725.94 97.52C726.047 98.0667 726.12 98.6667 726.16 99.32C726.213 99.9733 726.233 100.533 726.22 101L724.96 101.16C724.987 100.68 724.973 100.113 724.92 99.46C724.88 98.8067 724.813 98.2 724.72 97.64ZM726.76 97.62L727.92 97.42C728.133 97.9267 728.32 98.4867 728.48 99.1C728.653 99.7 728.767 100.22 728.82 100.66L727.6 100.94C727.56 100.487 727.46 99.9533 727.3 99.34C727.14 98.7133 726.96 98.14 726.76 97.62ZM728.8 97.6L729.98 97.18C730.273 97.66 730.547 98.1933 730.8 98.78C731.053 99.3667 731.233 99.88 731.34 100.32L730.1 100.8C730.007 100.36 729.833 99.84 729.58 99.24C729.34 98.64 729.08 98.0933 728.8 97.6ZM722.86 97.18L724.16 97.64C724.027 98.2667 723.86 98.9333 723.66 99.64C723.473 100.347 723.227 100.94 722.92 101.42L721.58 100.86C721.793 100.54 721.98 100.173 722.14 99.76C722.313 99.3467 722.46 98.9133 722.58 98.46C722.7 98.0067 722.793 97.58 722.86 97.18ZM728.06 85.76L729.08 86.12C728.893 86.6267 728.7 87.16 728.5 87.72C728.313 88.28 728.133 88.7533 727.96 89.14L727.22 88.84C727.313 88.56 727.413 88.24 727.52 87.88C727.627 87.5067 727.727 87.1333 727.82 86.76C727.927 86.3867 728.007 86.0533 728.06 85.76ZM722.38 92.22H730.68V93.7H722.38V92.22ZM725.84 84.44H727.06V90.46H727.3V95.64H725.62V90.46H725.84V84.44ZM722 95.02H730.94V96.48H722V95.02Z" fill="#6D6D6D"/>
<path d="M598.656 120.9H612.536V122.74H598.656V120.9ZM597.796 126.76H611.796V128.58H597.796V126.76ZM595.556 133.22H613.516V135.06H595.556V133.22ZM603.556 117.12H605.516V134.14H603.556V117.12ZM598.996 117.4L600.956 117.84C600.663 118.867 600.309 119.88 599.896 120.88C599.496 121.867 599.056 122.787 598.576 123.64C598.096 124.48 597.596 125.22 597.076 125.86C596.943 125.753 596.769 125.633 596.556 125.5C596.356 125.353 596.149 125.213 595.936 125.08C595.723 124.933 595.529 124.82 595.356 124.74C595.903 124.153 596.403 123.473 596.856 122.7C597.309 121.913 597.716 121.067 598.076 120.16C598.449 119.253 598.756 118.333 598.996 117.4ZM617.776 124.04H633.476V125.58H617.776V124.04ZM616.976 118.86H632.876V120.36H616.976V118.86ZM620.896 127.44H632.376V128.96H620.896V127.44ZM620.796 130.42H631.876V131.9H620.796V130.42ZM618.916 133.54H633.776V135.1H618.916V133.54ZM625.296 125.94H627.156V134.6H625.296V125.94ZM616.816 124.04H618.656V128C618.656 128.587 618.629 129.227 618.576 129.92C618.523 130.613 618.416 131.32 618.256 132.04C618.109 132.747 617.889 133.427 617.596 134.08C617.303 134.747 616.923 135.353 616.456 135.9C616.363 135.78 616.223 135.633 616.036 135.46C615.863 135.3 615.683 135.147 615.496 135C615.309 134.853 615.149 134.747 615.016 134.68C615.563 134.027 615.963 133.313 616.216 132.54C616.469 131.753 616.629 130.967 616.696 130.18C616.776 129.393 616.816 128.66 616.816 127.98V124.04ZM621.136 125.86L622.756 126.34C622.396 127.313 621.929 128.267 621.356 129.2C620.796 130.12 620.176 130.893 619.496 131.52C619.456 131.4 619.376 131.233 619.256 131.02C619.149 130.807 619.036 130.593 618.916 130.38C618.796 130.153 618.683 129.98 618.576 129.86C619.109 129.367 619.596 128.767 620.036 128.06C620.489 127.353 620.856 126.62 621.136 125.86ZM619.296 121.16L620.536 120.2C621.429 120.4 622.376 120.627 623.376 120.88C624.376 121.12 625.369 121.38 626.356 121.66C627.343 121.927 628.276 122.2 629.156 122.48C630.036 122.747 630.809 122.987 631.476 123.2L630.296 124.26C629.656 124.02 628.896 123.76 628.016 123.48C627.149 123.2 626.223 122.92 625.236 122.64C624.249 122.36 623.243 122.093 622.216 121.84C621.203 121.573 620.229 121.347 619.296 121.16ZM629.456 120.12L630.736 120.92C630.016 121.28 629.203 121.627 628.296 121.96C627.389 122.293 626.436 122.607 625.436 122.9C624.449 123.18 623.456 123.44 622.456 123.68C621.469 123.907 620.529 124.107 619.636 124.28C619.516 124.12 619.349 123.933 619.136 123.72C618.923 123.507 618.736 123.34 618.576 123.22C619.496 123.06 620.463 122.873 621.476 122.66C622.503 122.433 623.509 122.187 624.496 121.92C625.483 121.653 626.403 121.367 627.256 121.06C628.123 120.753 628.856 120.44 629.456 120.12ZM623.256 117.56L624.576 116.92C624.883 117.253 625.189 117.64 625.496 118.08C625.816 118.52 626.056 118.907 626.216 119.24L624.836 119.98C624.689 119.647 624.463 119.253 624.156 118.8C623.863 118.347 623.563 117.933 623.256 117.56ZM636.076 121.4H651.516V123.34H636.076V121.4ZM650.756 121.4H652.736C652.736 121.4 652.729 121.467 652.716 121.6C652.716 121.72 652.709 121.853 652.696 122C652.696 122.133 652.689 122.247 652.676 122.34C652.569 124.38 652.463 126.12 652.356 127.56C652.249 129 652.129 130.193 651.996 131.14C651.863 132.073 651.709 132.813 651.536 133.36C651.376 133.893 651.183 134.287 650.956 134.54C650.689 134.873 650.409 135.1 650.116 135.22C649.836 135.34 649.489 135.427 649.076 135.48C648.729 135.52 648.263 135.533 647.676 135.52C647.089 135.52 646.489 135.507 645.876 135.48C645.863 135.2 645.796 134.873 645.676 134.5C645.556 134.127 645.403 133.8 645.216 133.52C645.883 133.587 646.496 133.627 647.056 133.64C647.629 133.64 648.043 133.64 648.296 133.64C648.509 133.64 648.683 133.62 648.816 133.58C648.963 133.54 649.103 133.46 649.236 133.34C649.409 133.153 649.569 132.807 649.716 132.3C649.876 131.793 650.016 131.087 650.136 130.18C650.256 129.273 650.363 128.133 650.456 126.76C650.563 125.373 650.663 123.713 650.756 121.78V121.4ZM642.456 117.16H644.456V120.92C644.456 121.827 644.409 122.793 644.316 123.82C644.236 124.833 644.063 125.873 643.796 126.94C643.529 128.007 643.123 129.06 642.576 130.1C642.029 131.14 641.296 132.147 640.376 133.12C639.469 134.08 638.329 134.967 636.956 135.78C636.849 135.62 636.709 135.44 636.536 135.24C636.376 135.053 636.196 134.867 635.996 134.68C635.809 134.507 635.636 134.367 635.476 134.26C636.769 133.513 637.836 132.707 638.676 131.84C639.529 130.973 640.209 130.073 640.716 129.14C641.223 128.193 641.596 127.247 641.836 126.3C642.089 125.34 642.256 124.407 642.336 123.5C642.416 122.58 642.456 121.72 642.456 120.92V117.16ZM664.396 121.74V123.08H670.536V121.74H664.396ZM664.396 119.14V120.48H670.536V119.14H664.396ZM662.676 117.76H672.336V124.48H662.676V117.76ZM661.736 125.7H673.416V127.26H661.736V125.7ZM666.556 126.5H668.336V134.66L666.556 133.92V126.5ZM664.256 130.12C664.603 131.173 665.056 131.96 665.616 132.48C666.176 132.987 666.829 133.327 667.576 133.5C668.336 133.66 669.156 133.74 670.036 133.74C670.183 133.74 670.429 133.74 670.776 133.74C671.123 133.74 671.509 133.74 671.936 133.74C672.363 133.74 672.763 133.74 673.136 133.74C673.523 133.727 673.809 133.72 673.996 133.72C673.929 133.853 673.856 134.02 673.776 134.22C673.696 134.42 673.629 134.62 673.576 134.82C673.523 135.033 673.483 135.227 673.456 135.4H672.636H669.956C669.129 135.4 668.363 135.333 667.656 135.2C666.963 135.08 666.329 134.853 665.756 134.52C665.183 134.187 664.669 133.7 664.216 133.06C663.776 132.407 663.403 131.567 663.096 130.54L664.256 130.12ZM667.836 129.34H672.376V130.86H667.836V129.34ZM662.976 128.04L664.696 128.26C664.496 129.887 664.129 131.327 663.596 132.58C663.076 133.82 662.369 134.847 661.476 135.66C661.383 135.553 661.249 135.427 661.076 135.28C660.903 135.147 660.723 135.007 660.536 134.86C660.363 134.727 660.209 134.62 660.076 134.54C660.943 133.847 661.603 132.947 662.056 131.84C662.523 130.733 662.829 129.467 662.976 128.04ZM655.016 127.54C655.816 127.34 656.769 127.08 657.876 126.76C658.983 126.44 660.103 126.113 661.236 125.78L661.496 127.5C660.469 127.82 659.423 128.147 658.356 128.48C657.303 128.813 656.336 129.107 655.456 129.36L655.016 127.54ZM655.236 121.04H661.436V122.8H655.236V121.04ZM657.576 117.14H659.316V133.4C659.316 133.867 659.263 134.233 659.156 134.5C659.049 134.767 658.863 134.98 658.596 135.14C658.329 135.287 657.983 135.38 657.556 135.42C657.129 135.473 656.596 135.493 655.956 135.48C655.943 135.253 655.883 134.967 655.776 134.62C655.683 134.287 655.576 133.993 655.456 133.74C655.856 133.753 656.223 133.76 656.556 133.76C656.889 133.76 657.116 133.76 657.236 133.76C657.369 133.76 657.456 133.733 657.496 133.68C657.549 133.627 657.576 133.533 657.576 133.4V117.14ZM679.876 119.92H681.776V125.5C681.776 126.433 681.716 127.373 681.596 128.32C681.489 129.253 681.263 130.167 680.916 131.06C680.569 131.94 680.049 132.78 679.356 133.58C678.676 134.367 677.756 135.08 676.596 135.72C676.503 135.573 676.376 135.407 676.216 135.22C676.056 135.033 675.889 134.853 675.716 134.68C675.543 134.507 675.383 134.367 675.236 134.26C676.276 133.7 677.103 133.073 677.716 132.38C678.343 131.687 678.809 130.967 679.116 130.22C679.436 129.46 679.643 128.68 679.736 127.88C679.829 127.08 679.876 126.28 679.876 125.48V119.92ZM687.436 117.46H689.376V135.68H687.436V117.46ZM675.436 125.12H693.596V126.94H675.436V125.12ZM684.256 117.32L685.636 118.9C684.796 119.327 683.849 119.733 682.796 120.12C681.743 120.493 680.656 120.833 679.536 121.14C678.416 121.447 677.316 121.72 676.236 121.96C676.196 121.733 676.109 121.473 675.976 121.18C675.843 120.873 675.716 120.613 675.596 120.4C676.649 120.16 677.709 119.88 678.776 119.56C679.843 119.227 680.849 118.873 681.796 118.5C682.756 118.127 683.576 117.733 684.256 117.32ZM702.536 134.42C701.376 134.42 700.346 134.28 699.446 134C698.566 133.72 697.786 133.35 697.106 132.89C696.426 132.41 695.836 131.9 695.336 131.36L697.016 129.14C697.676 129.78 698.426 130.34 699.266 130.82C700.106 131.3 701.096 131.54 702.236 131.54C703.076 131.54 703.806 131.4 704.426 131.12C705.046 130.82 705.526 130.4 705.866 129.86C706.226 129.32 706.406 128.66 706.406 127.88C706.406 127.08 706.206 126.38 705.806 125.78C705.426 125.16 704.756 124.69 703.796 124.37C702.856 124.03 701.556 123.86 699.896 123.86V121.28C701.356 121.28 702.496 121.12 703.316 120.8C704.156 120.46 704.756 120 705.116 119.42C705.496 118.84 705.686 118.18 705.686 117.44C705.686 116.48 705.386 115.72 704.786 115.16C704.186 114.58 703.356 114.29 702.296 114.29C701.456 114.29 700.666 114.48 699.926 114.86C699.206 115.22 698.526 115.71 697.886 116.33L696.086 114.17C696.966 113.37 697.926 112.73 698.966 112.25C700.006 111.75 701.156 111.5 702.416 111.5C703.736 111.5 704.906 111.73 705.926 112.19C706.946 112.63 707.746 113.27 708.326 114.11C708.906 114.95 709.196 115.98 709.196 117.2C709.196 118.46 708.846 119.53 708.146 120.41C707.466 121.29 706.546 121.95 705.386 122.39V122.51C706.226 122.73 706.986 123.09 707.666 123.59C708.366 124.07 708.916 124.69 709.316 125.45C709.716 126.21 709.916 127.08 709.916 128.06C709.916 129.38 709.576 130.52 708.896 131.48C708.236 132.42 707.346 133.15 706.226 133.67C705.106 134.17 703.876 134.42 702.536 134.42ZM720.185 134.42C718.745 134.42 717.485 133.99 716.405 133.13C715.325 132.27 714.485 130.99 713.885 129.29C713.305 127.57 713.015 125.43 713.015 122.87C713.015 120.31 713.305 118.19 713.885 116.51C714.485 114.83 715.325 113.58 716.405 112.76C717.485 111.92 718.745 111.5 720.185 111.5C721.625 111.5 722.875 111.92 723.935 112.76C724.995 113.6 725.815 114.86 726.395 116.54C726.995 118.2 727.295 120.31 727.295 122.87C727.295 125.43 726.995 127.57 726.395 129.29C725.815 130.99 724.995 132.27 723.935 133.13C722.875 133.99 721.625 134.42 720.185 134.42ZM720.185 131.66C720.925 131.66 721.585 131.37 722.165 130.79C722.745 130.21 723.195 129.28 723.515 128C723.835 126.7 723.995 124.99 723.995 122.87C723.995 120.75 723.835 119.06 723.515 117.8C723.195 116.54 722.745 115.63 722.165 115.07C721.585 114.51 720.925 114.23 720.185 114.23C719.445 114.23 718.785 114.51 718.205 115.07C717.625 115.63 717.165 116.54 716.825 117.8C716.505 119.06 716.345 120.75 716.345 122.87C716.345 124.99 716.505 126.7 716.825 128C717.165 129.28 717.625 130.21 718.205 130.79C718.785 131.37 719.445 131.66 720.185 131.66ZM732.875 128.3C732.195 128.3 731.595 128.12 731.075 127.76C730.555 127.387 730.148 126.853 729.855 126.16C729.575 125.453 729.435 124.607 729.435 123.62C729.435 122.633 729.575 121.8 729.855 121.12C730.148 120.427 730.555 119.9 731.075 119.54C731.595 119.18 732.195 119 732.875 119C733.568 119 734.175 119.18 734.695 119.54C735.215 119.9 735.615 120.427 735.895 121.12C736.188 121.8 736.335 122.633 736.335 123.62C736.335 124.607 736.188 125.453 735.895 126.16C735.615 126.853 735.215 127.387 734.695 127.76C734.175 128.12 733.568 128.3 732.875 128.3ZM732.875 126.96C733.395 126.96 733.815 126.687 734.135 126.14C734.468 125.593 734.635 124.753 734.635 123.62C734.635 122.487 734.468 121.66 734.135 121.14C733.815 120.62 733.395 120.36 732.875 120.36C732.368 120.36 731.948 120.62 731.615 121.14C731.282 121.66 731.115 122.487 731.115 123.62C731.115 124.753 731.282 125.593 731.615 126.14C731.948 126.687 732.368 126.96 732.875 126.96ZM733.335 134.28L741.395 119H742.855L734.795 134.28H733.335ZM743.335 134.28C742.655 134.28 742.055 134.093 741.535 133.72C741.015 133.347 740.608 132.813 740.315 132.12C740.035 131.427 739.895 130.587 739.895 129.6C739.895 128.6 740.035 127.76 740.315 127.08C740.608 126.4 741.015 125.88 741.535 125.52C742.055 125.147 742.655 124.96 743.335 124.96C744.015 124.96 744.615 125.147 745.135 125.52C745.655 125.88 746.055 126.4 746.335 127.08C746.628 127.76 746.775 128.6 746.775 129.6C746.775 130.587 746.628 131.427 746.335 132.12C746.055 132.813 745.655 133.347 745.135 133.72C744.615 134.093 744.015 134.28 743.335 134.28ZM743.335 132.9C743.842 132.9 744.262 132.633 744.595 132.1C744.942 131.567 745.115 130.733 745.115 129.6C745.115 128.453 744.942 127.62 744.595 127.1C744.262 126.58 743.842 126.32 743.335 126.32C742.828 126.32 742.408 126.58 742.075 127.1C741.742 127.62 741.575 128.453 741.575 129.6C741.575 130.733 741.742 131.567 742.075 132.1C742.408 132.633 742.828 132.9 743.335 132.9Z" fill="#17418F"/>
<path d="M263.7 414V412.1H266.94V402.26H264.3V400.8C264.993 400.667 265.593 400.513 266.1 400.34C266.62 400.153 267.093 399.933 267.52 399.68H269.26V412.1H272.12V414H263.7ZM275.346 414V399.26H279.166C280.686 399.26 281.973 399.54 283.026 400.1C284.08 400.647 284.88 401.46 285.426 402.54C285.986 403.62 286.266 404.967 286.266 406.58C286.266 408.18 285.986 409.533 285.426 410.64C284.88 411.747 284.086 412.587 283.046 413.16C282.006 413.72 280.753 414 279.286 414H275.346ZM277.666 412.1H279.006C280.06 412.1 280.946 411.893 281.666 411.48C282.4 411.067 282.946 410.453 283.306 409.64C283.68 408.813 283.866 407.793 283.866 406.58C283.866 405.353 283.68 404.34 283.306 403.54C282.946 402.74 282.4 402.147 281.666 401.76C280.946 401.36 280.06 401.16 279.006 401.16H277.666V412.1ZM293.163 399.6H310.623V401.3H293.163V399.6ZM294.703 407.82H309.103V409.48H294.703V407.82ZM297.763 404.18H306.003V405.82H297.763V404.18ZM304.723 400.36C305.163 401.093 305.729 401.8 306.423 402.48C307.116 403.16 307.889 403.773 308.743 404.32C309.596 404.853 310.463 405.287 311.343 405.62C311.209 405.74 311.056 405.893 310.883 406.08C310.723 406.253 310.569 406.44 310.423 406.64C310.276 406.827 310.156 407 310.063 407.16C309.156 406.76 308.269 406.247 307.403 405.62C306.536 404.98 305.736 404.26 305.003 403.46C304.283 402.66 303.663 401.82 303.143 400.94L304.723 400.36ZM296.843 410.42L298.663 410.96C298.169 411.787 297.563 412.587 296.843 413.36C296.136 414.12 295.429 414.76 294.723 415.28C294.616 415.16 294.469 415.027 294.283 414.88C294.109 414.733 293.923 414.587 293.723 414.44C293.536 414.293 293.369 414.173 293.223 414.08C293.916 413.64 294.589 413.093 295.243 412.44C295.909 411.787 296.443 411.113 296.843 410.42ZM304.943 411.3L306.463 410.42C306.916 410.793 307.389 411.207 307.883 411.66C308.376 412.113 308.843 412.56 309.283 413C309.723 413.44 310.076 413.84 310.343 414.2L308.723 415.2C308.469 414.84 308.129 414.433 307.703 413.98C307.289 413.527 306.843 413.067 306.363 412.6C305.883 412.12 305.409 411.687 304.943 411.3ZM300.243 397.1L302.303 397.38C301.889 398.647 301.316 399.887 300.583 401.1C299.863 402.313 298.936 403.447 297.803 404.5C296.683 405.54 295.329 406.453 293.743 407.24C293.663 407.08 293.543 406.907 293.383 406.72C293.236 406.533 293.076 406.353 292.903 406.18C292.743 406.007 292.583 405.873 292.423 405.78C293.956 405.1 295.249 404.287 296.303 403.34C297.356 402.393 298.203 401.387 298.843 400.32C299.483 399.253 299.949 398.18 300.243 397.1ZM300.943 408.92H302.903V415.7H300.943V408.92ZM312.983 404.72H330.783V406.62H312.983V404.72ZM320.863 397.12H322.863V415.68H320.863V397.12ZM327.883 398.06L329.983 398.88C329.636 399.453 329.276 400.04 328.903 400.64C328.529 401.24 328.156 401.813 327.783 402.36C327.409 402.907 327.056 403.393 326.723 403.82L325.063 403.06C325.396 402.62 325.736 402.113 326.083 401.54C326.443 400.953 326.776 400.36 327.083 399.76C327.403 399.147 327.669 398.58 327.883 398.06ZM314.043 398.94L315.763 398.2C316.149 398.653 316.523 399.16 316.883 399.72C317.243 400.28 317.569 400.827 317.863 401.36C318.156 401.893 318.383 402.38 318.543 402.82L316.663 403.66C316.529 403.233 316.323 402.747 316.043 402.2C315.776 401.653 315.469 401.093 315.123 400.52C314.776 399.947 314.416 399.42 314.043 398.94ZM318.343 407.62L320.003 408.24C319.549 409.187 319.003 410.127 318.363 411.06C317.723 411.993 317.036 412.853 316.303 413.64C315.569 414.413 314.829 415.067 314.083 415.6C313.976 415.453 313.836 415.28 313.663 415.08C313.503 414.893 313.329 414.707 313.143 414.52C312.969 414.347 312.809 414.2 312.663 414.08C313.396 413.627 314.116 413.053 314.823 412.36C315.543 411.667 316.209 410.913 316.823 410.1C317.436 409.273 317.943 408.447 318.343 407.62ZM323.703 408.44L325.203 407.54C325.776 408.06 326.356 408.627 326.943 409.24C327.529 409.84 328.089 410.453 328.623 411.08C329.156 411.707 329.643 412.32 330.083 412.92C330.523 413.507 330.883 414.06 331.163 414.58L329.523 415.64C329.269 415.133 328.929 414.58 328.503 413.98C328.076 413.367 327.603 412.74 327.083 412.1C326.563 411.447 326.009 410.807 325.423 410.18C324.849 409.553 324.276 408.973 323.703 408.44Z" fill="#17418F"/>
<circle cx="133" cy="354" r="35" fill="url(#paint6_linear_367_47613)"/>
<circle cx="133" cy="217" r="35" fill="url(#paint7_linear_367_47613)"/>
<circle cx="133" cy="80" r="35" fill="url(#paint8_linear_367_47613)"/>
<mask id="mask0_367_47613" style="mask-type:alpha" maskUnits="userSpaceOnUse" x="98" y="319" width="70" height="70">
<circle cx="133" cy="354" r="35" fill="#D9D9D9"/>
</mask>
<g mask="url(#mask0_367_47613)">
<line x1="102.25" y1="292.773" x2="102.25" y2="415.223" stroke="#639CDA" stroke-width="0.5"/>
<line x1="108.449" y1="292.773" x2="108.449" y2="415.223" stroke="#639CDA" stroke-width="0.5"/>
<line x1="114.648" y1="292.773" x2="114.648" y2="415.223" stroke="#639CDA" stroke-width="0.5"/>
<line x1="120.852" y1="292.773" x2="120.852" y2="415.223" stroke="#639CDA" stroke-width="0.5"/>
<line x1="127.051" y1="292.773" x2="127.051" y2="415.223" stroke="#639CDA" stroke-width="0.5"/>
<line x1="133.25" y1="292.773" x2="133.25" y2="415.223" stroke="#639CDA" stroke-width="0.5"/>
<line x1="139.449" y1="292.773" x2="139.449" y2="415.223" stroke="#639CDA" stroke-width="0.5"/>
<line x1="145.648" y1="292.773" x2="145.648" y2="415.223" stroke="#639CDA" stroke-width="0.5"/>
<line x1="151.852" y1="292.773" x2="151.852" y2="415.223" stroke="#639CDA" stroke-width="0.5"/>
<line x1="158.051" y1="292.773" x2="158.051" y2="415.223" stroke="#639CDA" stroke-width="0.5"/>
<line x1="164.25" y1="292.773" x2="164.25" y2="415.223" stroke="#639CDA" stroke-width="0.5"/>
<line x1="194.227" y1="323.25" x2="71.7766" y2="323.25" stroke="#639CDA" stroke-width="0.5"/>
<line x1="194.227" y1="329.453" x2="71.7766" y2="329.453" stroke="#639CDA" stroke-width="0.5"/>
<line x1="194.227" y1="335.648" x2="71.7766" y2="335.648" stroke="#639CDA" stroke-width="0.5"/>
<line x1="194.227" y1="341.852" x2="71.7766" y2="341.852" stroke="#639CDA" stroke-width="0.5"/>
<line x1="194.227" y1="348.047" x2="71.7766" y2="348.047" stroke="#639CDA" stroke-width="0.5"/>
<line x1="194.227" y1="354.25" x2="71.7766" y2="354.25" stroke="#639CDA" stroke-width="0.5"/>
<line x1="194.227" y1="360.453" x2="71.7766" y2="360.453" stroke="#639CDA" stroke-width="0.5"/>
<line x1="194.227" y1="366.648" x2="71.7766" y2="366.648" stroke="#639CDA" stroke-width="0.5"/>
<line x1="194.227" y1="372.852" x2="71.7766" y2="372.852" stroke="#639CDA" stroke-width="0.5"/>
<line x1="194.227" y1="379.047" x2="71.7766" y2="379.047" stroke="#639CDA" stroke-width="0.5"/>
<line x1="194.227" y1="385.25" x2="71.7766" y2="385.25" stroke="#639CDA" stroke-width="0.5"/>
</g>
<mask id="mask1_367_47613" style="mask-type:alpha" maskUnits="userSpaceOnUse" x="98" y="182" width="70" height="70">
<circle cx="133" cy="217" r="35" fill="#D9D9D9"/>
</mask>
<g mask="url(#mask1_367_47613)">
<line x1="102.25" y1="155.773" x2="102.25" y2="278.223" stroke="#639CDA" stroke-width="0.5"/>
<line x1="108.449" y1="155.773" x2="108.449" y2="278.223" stroke="#639CDA" stroke-width="0.5"/>
<line x1="114.648" y1="155.773" x2="114.648" y2="278.223" stroke="#639CDA" stroke-width="0.5"/>
<line x1="120.852" y1="155.773" x2="120.852" y2="278.223" stroke="#639CDA" stroke-width="0.5"/>
<line x1="127.051" y1="155.773" x2="127.051" y2="278.223" stroke="#639CDA" stroke-width="0.5"/>
<line x1="133.25" y1="155.773" x2="133.25" y2="278.223" stroke="#639CDA" stroke-width="0.5"/>
<line x1="139.449" y1="155.773" x2="139.449" y2="278.223" stroke="#639CDA" stroke-width="0.5"/>
<line x1="145.648" y1="155.773" x2="145.648" y2="278.223" stroke="#639CDA" stroke-width="0.5"/>
<line x1="151.852" y1="155.773" x2="151.852" y2="278.223" stroke="#639CDA" stroke-width="0.5"/>
<line x1="158.051" y1="155.773" x2="158.051" y2="278.223" stroke="#639CDA" stroke-width="0.5"/>
<line x1="164.25" y1="155.773" x2="164.25" y2="278.223" stroke="#639CDA" stroke-width="0.5"/>
<line x1="194.227" y1="186.25" x2="71.7766" y2="186.25" stroke="#639CDA" stroke-width="0.5"/>
<line x1="194.227" y1="192.453" x2="71.7766" y2="192.453" stroke="#639CDA" stroke-width="0.5"/>
<line x1="194.227" y1="198.648" x2="71.7766" y2="198.648" stroke="#639CDA" stroke-width="0.5"/>
<line x1="194.227" y1="204.852" x2="71.7766" y2="204.852" stroke="#639CDA" stroke-width="0.5"/>
<line x1="194.227" y1="211.047" x2="71.7766" y2="211.047" stroke="#639CDA" stroke-width="0.5"/>
<line x1="194.227" y1="217.25" x2="71.7766" y2="217.25" stroke="#639CDA" stroke-width="0.5"/>
<line x1="194.227" y1="223.453" x2="71.7766" y2="223.453" stroke="#639CDA" stroke-width="0.5"/>
<line x1="194.227" y1="229.648" x2="71.7766" y2="229.648" stroke="#639CDA" stroke-width="0.5"/>
<line x1="194.227" y1="235.852" x2="71.7766" y2="235.852" stroke="#639CDA" stroke-width="0.5"/>
<line x1="194.227" y1="242.047" x2="71.7766" y2="242.047" stroke="#639CDA" stroke-width="0.5"/>
<line x1="194.227" y1="248.25" x2="71.7766" y2="248.25" stroke="#639CDA" stroke-width="0.5"/>
</g>
<mask id="mask2_367_47613" style="mask-type:alpha" maskUnits="userSpaceOnUse" x="98" y="45" width="70" height="70">
<circle cx="133" cy="80" r="35" fill="#D9D9D9"/>
</mask>
<g mask="url(#mask2_367_47613)">
<line x1="102.25" y1="18.7734" x2="102.25" y2="141.223" stroke="#639CDA" stroke-width="0.5"/>
<line x1="108.449" y1="18.7734" x2="108.449" y2="141.223" stroke="#639CDA" stroke-width="0.5"/>
<line x1="114.648" y1="18.7734" x2="114.648" y2="141.223" stroke="#639CDA" stroke-width="0.5"/>
<line x1="120.852" y1="18.7734" x2="120.852" y2="141.223" stroke="#639CDA" stroke-width="0.5"/>
<line x1="127.051" y1="18.7734" x2="127.051" y2="141.223" stroke="#639CDA" stroke-width="0.5"/>
<line x1="133.25" y1="18.7734" x2="133.25" y2="141.223" stroke="#639CDA" stroke-width="0.5"/>
<line x1="139.449" y1="18.7734" x2="139.449" y2="141.223" stroke="#639CDA" stroke-width="0.5"/>
<line x1="145.648" y1="18.7734" x2="145.648" y2="141.223" stroke="#639CDA" stroke-width="0.5"/>
<line x1="151.852" y1="18.7734" x2="151.852" y2="141.223" stroke="#639CDA" stroke-width="0.5"/>
<line x1="158.051" y1="18.7734" x2="158.051" y2="141.223" stroke="#639CDA" stroke-width="0.5"/>
<line x1="164.25" y1="18.7734" x2="164.25" y2="141.223" stroke="#639CDA" stroke-width="0.5"/>
<line x1="194.227" y1="49.25" x2="71.7766" y2="49.25" stroke="#639CDA" stroke-width="0.5"/>
<line x1="194.227" y1="55.4531" x2="71.7766" y2="55.4531" stroke="#639CDA" stroke-width="0.5"/>
<line x1="194.227" y1="61.6484" x2="71.7766" y2="61.6484" stroke="#639CDA" stroke-width="0.5"/>
<line x1="194.227" y1="67.8516" x2="71.7766" y2="67.8516" stroke="#639CDA" stroke-width="0.5"/>
<line x1="194.227" y1="74.0469" x2="71.7766" y2="74.0469" stroke="#639CDA" stroke-width="0.5"/>
<line x1="194.227" y1="80.25" x2="71.7766" y2="80.25" stroke="#639CDA" stroke-width="0.5"/>
<line x1="194.227" y1="86.4531" x2="71.7766" y2="86.4531" stroke="#639CDA" stroke-width="0.5"/>
<line x1="194.227" y1="92.6484" x2="71.7766" y2="92.6484" stroke="#639CDA" stroke-width="0.5"/>
<line x1="194.227" y1="98.8516" x2="71.7766" y2="98.8516" stroke="#639CDA" stroke-width="0.5"/>
<line x1="194.227" y1="105.047" x2="71.7766" y2="105.047" stroke="#639CDA" stroke-width="0.5"/>
<line x1="194.227" y1="111.25" x2="71.7766" y2="111.25" stroke="#639CDA" stroke-width="0.5"/>
</g>
<path d="M116.55 366V363.15H121.41V348.39H117.45V346.2C118.49 346 119.39 345.77 120.15 345.51C120.93 345.23 121.64 344.9 122.28 344.52H124.89V363.15H129.18V366H116.55ZM134.019 366V343.89H139.749C142.029 343.89 143.959 344.31 145.539 345.15C147.119 345.97 148.319 347.19 149.139 348.81C149.979 350.43 150.399 352.45 150.399 354.87C150.399 357.27 149.979 359.3 149.139 360.96C148.319 362.62 147.129 363.88 145.569 364.74C144.009 365.58 142.129 366 139.929 366H134.019ZM137.499 363.15H139.509C141.089 363.15 142.419 362.84 143.499 362.22C144.599 361.6 145.419 360.68 145.959 359.46C146.519 358.22 146.799 356.69 146.799 354.87C146.799 353.03 146.519 351.51 145.959 350.31C145.419 349.11 144.599 348.22 143.499 347.64C142.419 347.04 141.089 346.74 139.509 346.74H137.499V363.15Z" fill="white"/>
<path d="M116.55 229V226.15H121.41V211.39H117.45V209.2C118.49 209 119.39 208.77 120.15 208.51C120.93 208.23 121.64 207.9 122.28 207.52H124.89V226.15H129.18V229H116.55ZM142.629 229.42C141.249 229.42 139.959 229.17 138.759 228.67C137.579 228.15 136.539 227.4 135.639 226.42C134.739 225.44 134.039 224.25 133.539 222.85C133.039 221.43 132.789 219.81 132.789 217.99C132.789 216.19 133.049 214.58 133.569 213.16C134.089 211.74 134.799 210.54 135.699 209.56C136.599 208.56 137.659 207.8 138.879 207.28C140.099 206.76 141.409 206.5 142.809 206.5C144.169 206.5 145.379 206.78 146.439 207.34C147.499 207.9 148.369 208.55 149.049 209.29L147.189 211.51C146.609 210.93 145.959 210.46 145.239 210.1C144.539 209.72 143.749 209.53 142.869 209.53C141.589 209.53 140.459 209.87 139.479 210.55C138.519 211.23 137.759 212.19 137.199 213.43C136.659 214.67 136.389 216.16 136.389 217.9C136.389 219.64 136.649 221.15 137.169 222.43C137.689 223.69 138.429 224.66 139.389 225.34C140.349 226.02 141.479 226.36 142.779 226.36C143.779 226.36 144.669 226.15 145.449 225.73C146.249 225.29 146.979 224.71 147.639 223.99L149.529 226.21C148.629 227.25 147.609 228.05 146.469 228.61C145.349 229.15 144.069 229.42 142.629 229.42Z" fill="white"/>
<path d="M116.55 92V89.15H121.41V74.39H117.45V72.2C118.49 72 119.39 71.77 120.15 71.51C120.93 71.23 121.64 70.9 122.28 70.52H124.89V89.15H129.18V92H116.55ZM134.019 92V69.89H140.889C142.389 69.89 143.719 70.07 144.879 70.43C146.059 70.79 146.979 71.37 147.639 72.17C148.319 72.95 148.659 74 148.659 75.32C148.659 76.04 148.529 76.72 148.269 77.36C148.029 78 147.679 78.57 147.219 79.07C146.759 79.55 146.189 79.9 145.509 80.12V80.27C146.769 80.53 147.809 81.1 148.629 81.98C149.449 82.84 149.859 84.02 149.859 85.52C149.859 86.98 149.489 88.19 148.749 89.15C148.029 90.11 147.029 90.83 145.749 91.31C144.489 91.77 143.039 92 141.399 92H134.019ZM137.499 79.13H140.469C142.149 79.13 143.359 78.83 144.099 78.23C144.859 77.63 145.239 76.82 145.239 75.8C145.239 74.66 144.849 73.85 144.069 73.37C143.289 72.87 142.119 72.62 140.559 72.62H137.499V79.13ZM137.499 89.27H141.009C142.729 89.27 144.059 88.95 144.999 88.31C145.959 87.67 146.439 86.68 146.439 85.34C146.439 84.1 145.969 83.2 145.029 82.64C144.109 82.06 142.769 81.77 141.009 81.77H137.499V89.27Z" fill="white"/>
<path d="M748.434 149.5L762.867 174.5L755.934 174.5L755.934 374L740.934 374L740.934 174.5L734 174.5L748.434 149.5Z" fill="url(#paint9_linear_367_47613)"/>
<path d="M588.434 149.497L602.867 174.497L595.934 174.497L595.934 227L580.934 227L580.934 174.497L574 174.497L588.434 149.497Z" fill="url(#paint10_linear_367_47613)"/>
<path d="M1.2 11.2H18.82V12.62H1.2V11.2ZM5.32 19.24H14.8V20.46H5.32V19.24ZM4.9 22.48H15.16V23.74H4.9V22.48ZM9.22 19.82H10.66V27.22H9.22V19.82ZM2.28 14.74H16.74V16.12H3.8V27.58H2.28V14.74ZM16.24 14.74H17.76V25.84C17.76 26.28 17.7 26.6133 17.58 26.84C17.46 27.08 17.2333 27.2533 16.9 27.36C16.5667 27.4667 16.1133 27.5333 15.54 27.56C14.9667 27.5867 14.2733 27.6 13.46 27.6C13.4333 27.4 13.3667 27.1733 13.26 26.92C13.1533 26.6667 13.0467 26.4467 12.94 26.26C13.3667 26.2733 13.7733 26.28 14.16 26.28C14.5467 26.2933 14.8867 26.2933 15.18 26.28C15.4733 26.28 15.6733 26.28 15.78 26.28C15.9667 26.2667 16.0867 26.2267 16.14 26.16C16.2067 26.1067 16.24 26 16.24 25.84V14.74ZM6.34 16.8L7.52 16.42C7.78667 16.7667 8.04 17.1667 8.28 17.62C8.52 18.06 8.69333 18.4467 8.8 18.78L7.54 19.22C7.44667 18.8867 7.28667 18.4933 7.06 18.04C6.83333 17.5733 6.59333 17.16 6.34 16.8ZM12.44 16.38L13.74 16.78C13.4733 17.3 13.1933 17.82 12.9 18.34C12.6067 18.86 12.3267 19.3067 12.06 19.68L11 19.34C11.16 19.06 11.3267 18.7467 11.5 18.4C11.6867 18.0533 11.86 17.7067 12.02 17.36C12.1933 17 12.3333 16.6733 12.44 16.38ZM9.16 9.2H10.82V15.66H9.16V9.2ZM21.56 10.48H38.52V11.86H21.56V10.48ZM21.04 25.34H38.98V26.7H21.04V25.34ZM23.36 20.42H28.44V26.16H27V21.74H23.36V20.42ZM22.46 15.02H28.44V16.32H23.94V21.74H22.46V15.02ZM28.44 11.12V15.6H26.98V11.12H28.44ZM31.44 11.14H32.88V15.62H31.44V11.14ZM31.44 14.98H37.52V21.7H36V16.3H31.44V14.98ZM31.44 20.4H36.8V21.72H32.88V26.18H31.44V20.4ZM44.24 10.86H45.72V27.56H44.24V10.86ZM40.86 14.84H48.68V16.24H40.86V14.84ZM44.32 15.38L45.26 15.78C45.06 16.4867 44.8133 17.22 44.52 17.98C44.2267 18.7267 43.9067 19.4733 43.56 20.22C43.2267 20.9533 42.8667 21.6467 42.48 22.3C42.1067 22.94 41.7267 23.4867 41.34 23.94C41.26 23.74 41.14 23.5067 40.98 23.24C40.8333 22.9733 40.6933 22.7467 40.56 22.56C40.9333 22.16 41.3 21.68 41.66 21.12C42.02 20.56 42.3667 19.9533 42.7 19.3C43.0467 18.6467 43.36 17.9867 43.64 17.32C43.92 16.64 44.1467 15.9933 44.32 15.38ZM47.44 9.48L48.36 10.68C47.7467 10.92 47.0533 11.14 46.28 11.34C45.5067 11.54 44.7067 11.72 43.88 11.88C43.0533 12.0267 42.2533 12.1533 41.48 12.26C41.4533 12.1 41.3933 11.9067 41.3 11.68C41.22 11.4533 41.14 11.26 41.06 11.1C41.8067 10.9667 42.5733 10.82 43.36 10.66C44.16 10.5 44.9133 10.32 45.62 10.12C46.34 9.90667 46.9467 9.69333 47.44 9.48ZM45.62 16.5C45.7533 16.6467 45.9533 16.8867 46.22 17.22C46.5 17.54 46.7933 17.8933 47.1 18.28C47.4067 18.6533 47.6867 19.0133 47.94 19.36C48.2067 19.6933 48.3933 19.9333 48.5 20.08L47.58 21.24C47.46 21 47.28 20.6933 47.04 20.32C46.8133 19.9333 46.56 19.5333 46.28 19.12C46.0133 18.7067 45.7533 18.32 45.5 17.96C45.26 17.6 45.0667 17.3267 44.92 17.14L45.62 16.5ZM55.24 9.18H56.72V27.56H55.24V9.18ZM48.44 22.2L59.08 20.5L59.3 21.88L48.66 23.64L48.44 22.2ZM50.06 11.46L51.02 10.58C51.42 10.8333 51.8267 11.12 52.24 11.44C52.6667 11.76 53.06 12.0867 53.42 12.42C53.78 12.7533 54.0733 13.06 54.3 13.34L53.26 14.3C53.06 14.0333 52.78 13.7333 52.42 13.4C52.0733 13.0533 51.6933 12.7133 51.28 12.38C50.8667 12.0333 50.46 11.7267 50.06 11.46ZM49.26 16.68L50.2 15.8C50.6267 16.0533 51.0733 16.3467 51.54 16.68C52.0067 17.0133 52.44 17.3533 52.84 17.7C53.24 18.0333 53.56 18.3467 53.8 18.64L52.8 19.62C52.56 19.3267 52.24 19.0067 51.84 18.66C51.4533 18.3 51.0333 17.9467 50.58 17.6C50.1267 17.2533 49.6867 16.9467 49.26 16.68ZM67.56 12.34H78.58V13.74H67.56V12.34ZM67.96 16.76H76.78V18.14H67.96V16.76ZM72.28 9.2H73.76V17.54H72.28V9.2ZM69.9 17.76C70.66 19.8667 71.8333 21.6667 73.42 23.16C75.0067 24.6533 76.9667 25.7067 79.3 26.32C79.1933 26.4267 79.0733 26.5533 78.94 26.7C78.82 26.86 78.7067 27.02 78.6 27.18C78.4933 27.34 78.4 27.4867 78.32 27.62C75.92 26.9 73.9067 25.7333 72.28 24.12C70.6667 22.5067 69.4267 20.52 68.56 18.16L69.9 17.76ZM76.66 16.76H76.94L77.22 16.7L78.18 17.12C77.7533 18.5467 77.1733 19.8267 76.44 20.96C75.7067 22.0933 74.8533 23.0933 73.88 23.96C72.92 24.8133 71.8733 25.54 70.74 26.14C69.62 26.74 68.4467 27.22 67.22 27.58C67.1667 27.4467 67.0933 27.2933 67 27.12C66.92 26.96 66.8267 26.7933 66.72 26.62C66.6133 26.46 66.5067 26.3333 66.4 26.24C67.5467 25.9333 68.6533 25.5133 69.72 24.98C70.8 24.4467 71.7933 23.8 72.7 23.04C73.62 22.2667 74.42 21.38 75.1 20.38C75.78 19.3667 76.3 18.2467 76.66 17.02V16.76ZM60.74 19.78C61.3 19.6467 61.9333 19.4867 62.64 19.3C63.3467 19.1 64.0933 18.8933 64.88 18.68C65.68 18.4533 66.4733 18.2267 67.26 18L67.46 19.38C66.3667 19.7133 65.2667 20.04 64.16 20.36C63.0667 20.68 62.0733 20.9733 61.18 21.24L60.74 19.78ZM60.98 13.24H67.26V14.66H60.98V13.24ZM63.56 9.2H65.04V25.78C65.04 26.2067 64.9867 26.5333 64.88 26.76C64.7733 26.9867 64.5867 27.16 64.32 27.28C64.0533 27.4 63.7 27.4733 63.26 27.5C62.8333 27.54 62.2733 27.5533 61.58 27.54C61.5533 27.3533 61.4933 27.1267 61.4 26.86C61.3067 26.6067 61.2133 26.3733 61.12 26.16C61.5867 26.1733 62.0133 26.18 62.4 26.18C62.7867 26.18 63.0467 26.18 63.18 26.18C63.4333 26.18 63.56 26.0467 63.56 25.78V9.2ZM89.22 20.58L90.42 21.12C89.9 21.5733 89.3 22.0067 88.62 22.42C87.94 22.82 87.2067 23.1933 86.42 23.54C85.6333 23.8733 84.8333 24.1733 84.02 24.44C83.2067 24.6933 82.4067 24.9067 81.62 25.08C81.5267 24.9067 81.3933 24.7067 81.22 24.48C81.06 24.2533 80.9067 24.0733 80.76 23.94C81.5333 23.8067 82.32 23.6267 83.12 23.4C83.9333 23.1733 84.7133 22.92 85.46 22.64C86.22 22.3467 86.9267 22.0267 87.58 21.68C88.2333 21.32 88.78 20.9533 89.22 20.58ZM90.96 20.44C91.5867 21.9733 92.6 23.22 94 24.18C95.4 25.14 97.1267 25.7867 99.18 26.12C99.0333 26.2667 98.88 26.46 98.72 26.7C98.56 26.94 98.4267 27.1533 98.32 27.34C96.8933 27.06 95.62 26.6267 94.5 26.04C93.38 25.4533 92.42 24.72 91.62 23.84C90.8333 22.96 90.1933 21.9333 89.7 20.76L90.96 20.44ZM96.82 21.52L97.92 22.32C97.2933 22.76 96.5867 23.1867 95.8 23.6C95.0267 24.0133 94.3067 24.36 93.64 24.64L92.7 23.9C93.14 23.6867 93.6133 23.4467 94.12 23.18C94.6267 22.9 95.12 22.62 95.6 22.34C96.08 22.0467 96.4867 21.7733 96.82 21.52ZM81.1 20.12H98.92V21.36H81.1V20.12ZM92.68 10.22H94.04V16.8H92.68V10.22ZM96.48 9.4H97.84V17.7C97.84 18.0867 97.7867 18.38 97.68 18.58C97.5867 18.7667 97.4 18.9133 97.12 19.02C96.8267 19.1267 96.44 19.1933 95.96 19.22C95.4933 19.2333 94.9133 19.24 94.22 19.24C94.1933 19.0533 94.1333 18.8467 94.04 18.62C93.9467 18.38 93.8467 18.1733 93.74 18C94.2867 18.0133 94.78 18.02 95.22 18.02C95.66 18.02 95.9533 18.0133 96.1 18C96.2467 18 96.3467 17.98 96.4 17.94C96.4533 17.8867 96.48 17.8 96.48 17.68V9.4ZM85.56 9.2H86.88V19.36H85.56V9.2ZM89.34 15.06H90.6V17.52C90.6 17.8 90.5667 18.02 90.5 18.18C90.4333 18.3267 90.2933 18.44 90.08 18.52C89.88 18.6133 89.6267 18.6667 89.32 18.68C89.0133 18.6933 88.6333 18.7 88.18 18.7C88.1533 18.5533 88.1 18.3933 88.02 18.22C87.94 18.0467 87.86 17.8867 87.78 17.74C88.1133 17.7533 88.4 17.76 88.64 17.76C88.88 17.76 89.04 17.7533 89.12 17.74C89.2667 17.74 89.34 17.6667 89.34 17.52V15.06ZM82.06 15.06H89.9V16.08H83.26V18.82H82.06V15.06ZM81.02 12.92H91.12V14H81.02V12.92ZM83.1 10.62H90.42V11.68H82.68L83.1 10.62ZM82.92 9.26L84.1 9.54C83.8867 10.1533 83.6267 10.76 83.32 11.36C83.0267 11.96 82.72 12.4733 82.4 12.9C82.28 12.8067 82.1067 12.7067 81.88 12.6C81.6533 12.48 81.46 12.38 81.3 12.3C81.66 11.9 81.9733 11.4333 82.24 10.9C82.52 10.3533 82.7467 9.80667 82.92 9.26ZM84.76 27.62L84.72 26.56L85.34 26.06L91.12 24.82C91.0933 25.0067 91.0733 25.2067 91.06 25.42C91.0467 25.6333 91.0467 25.8133 91.06 25.96C89.74 26.28 88.68 26.5333 87.88 26.72C87.08 26.9067 86.4733 27.0533 86.06 27.16C85.6467 27.28 85.3467 27.3667 85.16 27.42C84.9867 27.4867 84.8533 27.5533 84.76 27.62ZM84.78 27.6C84.7533 27.4933 84.7067 27.3667 84.64 27.22C84.5867 27.0867 84.52 26.9467 84.44 26.8C84.3733 26.6667 84.3067 26.56 84.24 26.48C84.4 26.3867 84.58 26.2267 84.78 26C84.98 25.7733 85.08 25.4267 85.08 24.96V23.06H86.48V26.02C86.48 26.02 86.42 26.0533 86.3 26.12C86.1933 26.1867 86.0533 26.28 85.88 26.4C85.72 26.52 85.5533 26.6533 85.38 26.8C85.2067 26.9467 85.06 27.0867 84.94 27.22C84.8333 27.3533 84.78 27.48 84.78 27.6ZM88.98 18.86L90.38 18.48C90.58 18.7867 90.7733 19.1333 90.96 19.52C91.1467 19.8933 91.28 20.2133 91.36 20.48L89.9 20.94C89.82 20.6733 89.6933 20.3467 89.52 19.96C89.3467 19.56 89.1667 19.1933 88.98 18.86ZM103.42 16.7H108.38V18.1H103.42V16.7ZM107.8 16.7H109.26C109.26 16.7 109.26 16.74 109.26 16.82C109.26 16.8867 109.253 16.9733 109.24 17.08C109.24 17.1867 109.24 17.2733 109.24 17.34C109.213 18.8333 109.173 20.0467 109.12 20.98C109.08 21.9 109.02 22.6 108.94 23.08C108.873 23.56 108.767 23.8933 108.62 24.08C108.46 24.2667 108.287 24.4 108.1 24.48C107.927 24.56 107.7 24.62 107.42 24.66C107.153 24.6867 106.807 24.7 106.38 24.7C105.953 24.6867 105.493 24.6667 105 24.64C104.987 24.4267 104.94 24.1933 104.86 23.94C104.793 23.6733 104.7 23.44 104.58 23.24C105.033 23.2933 105.46 23.3267 105.86 23.34C106.26 23.34 106.54 23.34 106.7 23.34C106.847 23.34 106.967 23.3267 107.06 23.3C107.167 23.2733 107.26 23.2133 107.34 23.12C107.433 23 107.507 22.7333 107.56 22.32C107.627 21.8933 107.673 21.2533 107.7 20.4C107.74 19.5333 107.773 18.38 107.8 16.94V16.7ZM113.42 10.2L114.32 9.28C114.747 9.48 115.187 9.72 115.64 10C116.107 10.2667 116.54 10.54 116.94 10.82C117.34 11.0867 117.673 11.3333 117.94 11.56L117 12.6C116.747 12.36 116.42 12.1 116.02 11.82C115.62 11.5267 115.193 11.24 114.74 10.96C114.287 10.68 113.847 10.4267 113.42 10.2ZM116.3 15.62L117.8 16C116.947 18.6133 115.78 20.88 114.3 22.8C112.82 24.72 111.06 26.2867 109.02 27.5C108.94 27.3933 108.833 27.26 108.7 27.1C108.567 26.9533 108.427 26.8 108.28 26.64C108.147 26.4933 108.027 26.3667 107.92 26.26C109.947 25.1933 111.66 23.76 113.06 21.96C114.46 20.1467 115.54 18.0333 116.3 15.62ZM103.54 12.6H119.02V14.06H103.54V12.6ZM102.56 12.6H104.12V18.24C104.12 18.9467 104.093 19.7133 104.04 20.54C103.987 21.3667 103.887 22.2067 103.74 23.06C103.593 23.9133 103.38 24.7467 103.1 25.56C102.82 26.36 102.447 27.0867 101.98 27.74C101.9 27.6333 101.78 27.5133 101.62 27.38C101.473 27.2467 101.313 27.12 101.14 27C100.98 26.88 100.84 26.7933 100.72 26.74C101.28 25.9133 101.687 25.0067 101.94 24.02C102.207 23.0333 102.373 22.04 102.44 21.04C102.52 20.0267 102.56 19.0867 102.56 18.22V12.6ZM110.88 9.22H112.44C112.427 11.0733 112.493 12.8333 112.64 14.5C112.787 16.1667 112.993 17.7 113.26 19.1C113.527 20.4867 113.847 21.6933 114.22 22.72C114.607 23.7333 115.027 24.52 115.48 25.08C115.947 25.64 116.433 25.92 116.94 25.92C117.233 25.92 117.447 25.64 117.58 25.08C117.727 24.5067 117.827 23.5533 117.88 22.22C118.053 22.38 118.26 22.54 118.5 22.7C118.753 22.86 118.98 22.9733 119.18 23.04C119.087 24.1867 118.953 25.08 118.78 25.72C118.62 26.36 118.38 26.8067 118.06 27.06C117.753 27.3267 117.34 27.46 116.82 27.46C116.153 27.46 115.54 27.2333 114.98 26.78C114.42 26.3267 113.92 25.6867 113.48 24.86C113.053 24.0333 112.68 23.06 112.36 21.94C112.04 20.8067 111.767 19.56 111.54 18.2C111.327 16.84 111.167 15.4067 111.06 13.9C110.953 12.38 110.893 10.82 110.88 9.22ZM127.56 12.34H138.58V13.74H127.56V12.34ZM127.96 16.76H136.78V18.14H127.96V16.76ZM132.28 9.2H133.76V17.54H132.28V9.2ZM129.9 17.76C130.66 19.8667 131.833 21.6667 133.42 23.16C135.007 24.6533 136.967 25.7067 139.3 26.32C139.193 26.4267 139.073 26.5533 138.94 26.7C138.82 26.86 138.707 27.02 138.6 27.18C138.493 27.34 138.4 27.4867 138.32 27.62C135.92 26.9 133.907 25.7333 132.28 24.12C130.667 22.5067 129.427 20.52 128.56 18.16L129.9 17.76ZM136.66 16.76H136.94L137.22 16.7L138.18 17.12C137.753 18.5467 137.173 19.8267 136.44 20.96C135.707 22.0933 134.853 23.0933 133.88 23.96C132.92 24.8133 131.873 25.54 130.74 26.14C129.62 26.74 128.447 27.22 127.22 27.58C127.167 27.4467 127.093 27.2933 127 27.12C126.92 26.96 126.827 26.7933 126.72 26.62C126.613 26.46 126.507 26.3333 126.4 26.24C127.547 25.9333 128.653 25.5133 129.72 24.98C130.8 24.4467 131.793 23.8 132.7 23.04C133.62 22.2667 134.42 21.38 135.1 20.38C135.78 19.3667 136.3 18.2467 136.66 17.02V16.76ZM120.74 19.78C121.3 19.6467 121.933 19.4867 122.64 19.3C123.347 19.1 124.093 18.8933 124.88 18.68C125.68 18.4533 126.473 18.2267 127.26 18L127.46 19.38C126.367 19.7133 125.267 20.04 124.16 20.36C123.067 20.68 122.073 20.9733 121.18 21.24L120.74 19.78ZM120.98 13.24H127.26V14.66H120.98V13.24ZM123.56 9.2H125.04V25.78C125.04 26.2067 124.987 26.5333 124.88 26.76C124.773 26.9867 124.587 27.16 124.32 27.28C124.053 27.4 123.7 27.4733 123.26 27.5C122.833 27.54 122.273 27.5533 121.58 27.54C121.553 27.3533 121.493 27.1267 121.4 26.86C121.307 26.6067 121.213 26.3733 121.12 26.16C121.587 26.1733 122.013 26.18 122.4 26.18C122.787 26.18 123.047 26.18 123.18 26.18C123.433 26.18 123.56 26.0467 123.56 25.78V9.2ZM146.06 14.06H153.68V15.46H146.06V14.06ZM149.02 9.36H150.36V27.54H149.02V9.36ZM154.14 10.8H158.92V12.14H154.14V10.8ZM153.66 15.48H159.2V16.84H153.66V15.48ZM151.06 10.84L152.02 10.3C152.38 10.7 152.733 11.1467 153.08 11.64C153.44 12.1333 153.7 12.5667 153.86 12.94L152.86 13.54C152.687 13.1667 152.433 12.7267 152.1 12.22C151.767 11.7133 151.42 11.2533 151.06 10.84ZM155.96 16.16H157.4V25.62C157.4 26.0333 157.347 26.3533 157.24 26.58C157.147 26.82 156.953 27 156.66 27.12C156.38 27.24 156.007 27.3133 155.54 27.34C155.073 27.38 154.487 27.4 153.78 27.4C153.767 27.1867 153.713 26.94 153.62 26.66C153.54 26.38 153.453 26.1333 153.36 25.92C153.867 25.9333 154.327 25.9467 154.74 25.96C155.167 25.96 155.453 25.9533 155.6 25.94C155.747 25.94 155.84 25.92 155.88 25.88C155.933 25.8267 155.96 25.74 155.96 25.62V16.16ZM144.24 9.2L145.62 9.7C145.3 10.2467 144.913 10.8067 144.46 11.38C144.02 11.94 143.553 12.48 143.06 13C142.567 13.52 142.067 13.98 141.56 14.38C141.507 14.2733 141.427 14.1533 141.32 14.02C141.227 13.8733 141.127 13.7333 141.02 13.6C140.913 13.4667 140.813 13.3533 140.72 13.26C141.173 12.9133 141.62 12.5133 142.06 12.06C142.513 11.6067 142.927 11.1333 143.3 10.64C143.687 10.1333 144 9.65333 144.24 9.2ZM143 17.18L144.2 15.96L144.38 16.02V27.62H143V17.18ZM144.74 13.22L146.1 13.68C145.713 14.5067 145.253 15.3267 144.72 16.14C144.2 16.9533 143.647 17.72 143.06 18.44C142.473 19.1467 141.873 19.7733 141.26 20.32C141.207 20.2133 141.127 20.08 141.02 19.92C140.913 19.7467 140.8 19.58 140.68 19.42C140.56 19.2467 140.453 19.1067 140.36 19C141.213 18.2933 142.033 17.4333 142.82 16.42C143.607 15.3933 144.247 14.3267 144.74 13.22ZM146.82 16.76H147.94C147.94 18.0533 147.893 19.2133 147.8 20.24C147.72 21.2667 147.553 22.16 147.3 22.92C147.047 23.68 146.66 24.32 146.14 24.84C146.06 24.7067 145.94 24.5467 145.78 24.36C145.62 24.1733 145.467 24.0333 145.32 23.94C145.76 23.4867 146.08 22.9267 146.28 22.26C146.493 21.5933 146.633 20.8067 146.7 19.9C146.767 18.9933 146.807 17.9467 146.82 16.76ZM151.52 16.78H152.66V22.42C152.66 22.6867 152.667 22.8667 152.68 22.96C152.707 23.04 152.767 23.08 152.86 23.08C152.94 23.08 153.06 23.08 153.22 23.08C153.393 23.08 153.52 23.08 153.6 23.08C153.693 23.08 153.8 23.0733 153.92 23.06C154.04 23.0467 154.147 23.0267 154.24 23C154.253 23.1467 154.273 23.3333 154.3 23.56C154.327 23.7867 154.347 23.9667 154.36 24.1C154.253 24.1267 154.133 24.1467 154 24.16C153.88 24.1733 153.747 24.18 153.6 24.18C153.52 24.18 153.4 24.18 153.24 24.18C153.08 24.18 152.96 24.18 152.88 24.18C152.493 24.18 152.2 24.1267 152 24.02C151.8 23.9133 151.667 23.7267 151.6 23.46C151.547 23.1933 151.52 22.84 151.52 22.4V16.78ZM163.76 9.2L165.02 9.7C164.607 10.5 164.08 11.32 163.44 12.16C162.813 13 162.187 13.72 161.56 14.32C161.52 14.2133 161.453 14.0933 161.36 13.96C161.267 13.8133 161.173 13.6733 161.08 13.54C160.987 13.3933 160.9 13.2733 160.82 13.18C161.193 12.8333 161.567 12.4333 161.94 11.98C162.313 11.5133 162.66 11.04 162.98 10.56C163.3 10.08 163.56 9.62667 163.76 9.2ZM164.18 13.2L165.38 13.66C165.047 14.4333 164.66 15.22 164.22 16.02C163.793 16.82 163.34 17.58 162.86 18.3C162.38 19.0067 161.893 19.6333 161.4 20.18C161.36 20.0733 161.287 19.94 161.18 19.78C161.087 19.62 160.987 19.4533 160.88 19.28C160.773 19.1067 160.673 18.9733 160.58 18.88C161.26 18.16 161.92 17.2933 162.56 16.28C163.213 15.2667 163.753 14.24 164.18 13.2ZM162.8 17.02L164.12 15.68L164.14 15.7V27.58H162.8V17.02ZM174.42 12.98H179.2V14.28H174.1L174.42 12.98ZM174.52 9.18L175.84 9.42C175.667 10.54 175.44 11.64 175.16 12.72C174.893 13.8 174.573 14.8067 174.2 15.74C173.84 16.66 173.42 17.4733 172.94 18.18C172.887 18.0867 172.8 17.9733 172.68 17.84C172.573 17.6933 172.46 17.5533 172.34 17.42C172.233 17.2733 172.127 17.16 172.02 17.08C172.673 16.12 173.2 14.9467 173.6 13.56C174.013 12.1733 174.32 10.7133 174.52 9.18ZM174.52 14.72C174.72 16.4667 175.007 18.0933 175.38 19.6C175.767 21.1067 176.28 22.44 176.92 23.6C177.573 24.7467 178.38 25.6533 179.34 26.32C179.247 26.4133 179.14 26.52 179.02 26.64C178.9 26.7733 178.787 26.9133 178.68 27.06C178.587 27.2067 178.507 27.34 178.44 27.46C177.427 26.6867 176.587 25.68 175.92 24.44C175.267 23.1867 174.74 21.7533 174.34 20.14C173.953 18.5133 173.647 16.7467 173.42 14.84L174.52 14.72ZM177.04 13.78L178.3 13.88C178.1 16.0267 177.787 17.96 177.36 19.68C176.933 21.4 176.347 22.92 175.6 24.24C174.867 25.5467 173.9 26.6867 172.7 27.66C172.633 27.5667 172.54 27.4533 172.42 27.32C172.3 27.2 172.18 27.0733 172.06 26.94C171.94 26.82 171.827 26.72 171.72 26.64C172.893 25.8 173.833 24.76 174.54 23.52C175.26 22.28 175.807 20.8467 176.18 19.22C176.567 17.58 176.853 15.7667 177.04 13.78ZM168.28 9.2H169.48V15.56H168.28V9.2ZM165.7 11.08H166.82V14.96H170.88V11.1H172.02V16.12H165.7V11.08ZM165.36 17.44H172.02V18.66H165.36V17.44ZM169.82 25.76L169.64 24.44L170.06 23.84L172.68 22.34C172.72 22.5133 172.773 22.7067 172.84 22.92C172.92 23.1333 172.987 23.3067 173.04 23.44C172.187 23.9867 171.54 24.4133 171.1 24.72C170.673 25.0133 170.373 25.2333 170.2 25.38C170.027 25.5267 169.9 25.6533 169.82 25.76ZM169.82 25.76C169.793 25.64 169.747 25.5 169.68 25.34C169.613 25.1667 169.54 25 169.46 24.84C169.38 24.68 169.307 24.5467 169.24 24.44C169.373 24.36 169.5 24.2267 169.62 24.04C169.753 23.84 169.82 23.5467 169.82 23.16V19.46H171.08V24.48C171.08 24.48 171.02 24.52 170.9 24.6C170.78 24.68 170.633 24.7933 170.46 24.94C170.287 25.0733 170.133 25.2133 170 25.36C169.88 25.4933 169.82 25.6267 169.82 25.76ZM166.34 19.5H167.66C167.633 20.7133 167.567 21.8133 167.46 22.8C167.353 23.7733 167.153 24.6333 166.86 25.38C166.567 26.1267 166.133 26.7533 165.56 27.26C165.48 27.0867 165.347 26.8933 165.16 26.68C164.987 26.4667 164.82 26.3 164.66 26.18C165.14 25.7533 165.493 25.22 165.72 24.58C165.96 23.94 166.12 23.2 166.2 22.36C166.28 21.5067 166.327 20.5533 166.34 19.5ZM185.28 17.06L186.3 16.7C186.567 17.2733 186.82 17.9 187.06 18.58C187.3 19.26 187.467 19.8267 187.56 20.28L186.46 20.72C186.407 20.4 186.32 20.0333 186.2 19.62C186.08 19.1933 185.94 18.76 185.78 18.32C185.62 17.8667 185.453 17.4467 185.28 17.06ZM183.64 22.22L184.72 21.98C184.84 22.66 184.947 23.4 185.04 24.2C185.147 24.9867 185.213 25.6667 185.24 26.24L184.14 26.52C184.127 25.9333 184.067 25.24 183.96 24.44C183.867 23.64 183.76 22.9 183.64 22.22ZM181.56 22.06L182.72 22.28C182.613 23.1333 182.473 24 182.3 24.88C182.127 25.76 181.94 26.5133 181.74 27.14C181.62 27.0733 181.44 26.9933 181.2 26.9C180.973 26.8067 180.787 26.74 180.64 26.7C180.867 26.0867 181.053 25.3667 181.2 24.54C181.347 23.7 181.467 22.8733 181.56 22.06ZM181.12 16.68C181.093 16.5867 181.053 16.46 181 16.3C180.96 16.14 180.913 15.98 180.86 15.82C180.807 15.6467 180.753 15.5 180.7 15.38C180.86 15.34 181.02 15.2267 181.18 15.04C181.353 14.84 181.54 14.5867 181.74 14.28C181.887 14.08 182.107 13.72 182.4 13.2C182.707 12.68 183.033 12.0667 183.38 11.36C183.74 10.6533 184.047 9.94 184.3 9.22L185.54 9.76C185.047 10.88 184.487 11.9867 183.86 13.08C183.247 14.1733 182.62 15.12 181.98 15.92V15.94C181.98 15.94 181.933 15.9667 181.84 16.02C181.76 16.0733 181.66 16.14 181.54 16.22C181.42 16.2867 181.32 16.3667 181.24 16.46C181.16 16.54 181.12 16.6133 181.12 16.68ZM181.12 16.68L181.1 15.64L181.74 15.22L185.14 14.92C185.1 15.1067 185.073 15.3067 185.06 15.52C185.047 15.7333 185.033 15.9133 185.02 16.06C184.26 16.1533 183.633 16.2333 183.14 16.3C182.66 16.3533 182.287 16.4067 182.02 16.46C181.753 16.5 181.553 16.54 181.42 16.58C181.3 16.6067 181.2 16.64 181.12 16.68ZM181.24 21.2C181.227 21.1067 181.193 20.98 181.14 20.82C181.087 20.66 181.033 20.5 180.98 20.34C180.927 20.1667 180.873 20.02 180.82 19.9C181.02 19.86 181.233 19.72 181.46 19.48C181.687 19.2267 181.947 18.9133 182.24 18.54C182.4 18.3533 182.627 18.0467 182.92 17.62C183.227 17.1933 183.567 16.6933 183.94 16.12C184.313 15.5333 184.687 14.9 185.06 14.22C185.447 13.54 185.8 12.8533 186.12 12.16L187.26 12.88C186.78 13.8 186.253 14.7133 185.68 15.62C185.12 16.5267 184.54 17.3933 183.94 18.22C183.34 19.0333 182.727 19.78 182.1 20.46V20.48C182.1 20.48 182.06 20.5067 181.98 20.56C181.9 20.6 181.8 20.66 181.68 20.74C181.56 20.8067 181.453 20.88 181.36 20.96C181.28 21.04 181.24 21.12 181.24 21.2ZM181.24 21.2L181.2 20.14L181.86 19.7L186.9 18.98C186.873 19.1533 186.853 19.3533 186.84 19.58C186.84 19.7933 186.847 19.9667 186.86 20.1C185.7 20.2867 184.767 20.44 184.06 20.56C183.367 20.68 182.833 20.78 182.46 20.86C182.087 20.94 181.813 21.0067 181.64 21.06C181.467 21.1 181.333 21.1467 181.24 21.2ZM185.8 21.8L186.78 21.48C187.02 22.0933 187.247 22.76 187.46 23.48C187.687 24.2 187.853 24.82 187.96 25.34L186.92 25.72C186.813 25.1867 186.653 24.5533 186.44 23.82C186.227 23.0867 186.013 22.4133 185.8 21.8ZM194.48 15.1L196.02 15.38C195.86 15.98 195.693 16.5933 195.52 17.22C195.347 17.8467 195.187 18.38 195.04 18.82L193.8 18.54C193.893 18.2333 193.98 17.88 194.06 17.48C194.153 17.0667 194.24 16.6533 194.32 16.24C194.4 15.8133 194.453 15.4333 194.48 15.1ZM187.76 11.14H198.86V14.16H197.46V12.42H189.14V14.44H187.76V11.14ZM190.06 13.76L191.4 14.08C191.173 14.9333 190.893 15.82 190.56 16.74C190.24 17.6467 189.86 18.5333 189.42 19.4C188.993 20.2533 188.507 21.0067 187.96 21.66C187.867 21.5133 187.74 21.34 187.58 21.14C187.42 20.94 187.28 20.78 187.16 20.66C187.64 20.0467 188.067 19.3467 188.44 18.56C188.813 17.7733 189.133 16.9667 189.4 16.14C189.68 15.3 189.9 14.5067 190.06 13.76ZM191.38 14.66H198.94V15.9H191.38V14.66ZM192.5 21.58H197.84V22.8H192.5V21.58ZM191.8 17.92H198.56V27.48H197.22V19.16H193.1V27.58H191.8V17.92ZM188.96 18.12L190.16 16.92L190.22 16.96V27.58H188.96V18.12ZM192.02 9.64L193.2 9.1C193.453 9.44667 193.693 9.82667 193.92 10.24C194.147 10.6533 194.313 11.02 194.42 11.34L193.14 11.94C193.047 11.62 192.893 11.2467 192.68 10.82C192.467 10.38 192.247 9.98667 192.02 9.64ZM192.56 25.42H197.84V26.64H192.56V25.42Z" fill="black"/>
<defs>
<linearGradient id="paint0_linear_367_47613" x1="653" y1="405" x2="804.616" y2="405" gradientUnits="userSpaceOnUse">
<stop stop-color="#0756AA"/>
<stop offset="1" stop-color="#17418F"/>
</linearGradient>
<linearGradient id="paint1_linear_367_47613" x1="128" y1="121" x2="474" y2="121" gradientUnits="userSpaceOnUse">
<stop stop-color="#96C9ED"/>
<stop offset="1" stop-color="#639CDA"/>
</linearGradient>
<linearGradient id="paint2_linear_367_47613" x1="421.506" y1="258" x2="644.616" y2="258" gradientUnits="userSpaceOnUse">
<stop stop-color="#588DD3"/>
<stop offset="1" stop-color="#2D61A6"/>
</linearGradient>
<linearGradient id="paint3_linear_367_47613" x1="128" y1="258" x2="474" y2="258" gradientUnits="userSpaceOnUse">
<stop stop-color="#96C9ED"/>
<stop offset="1" stop-color="#639CDA"/>
</linearGradient>
<linearGradient id="paint4_linear_367_47613" x1="421.506" y1="405" x2="644.616" y2="405" gradientUnits="userSpaceOnUse">
<stop stop-color="#588DD3"/>
<stop offset="1" stop-color="#2D61A6"/>
</linearGradient>
<linearGradient id="paint5_linear_367_47613" x1="128" y1="405" x2="474" y2="405" gradientUnits="userSpaceOnUse">
<stop stop-color="#96C9ED"/>
<stop offset="1" stop-color="#639CDA"/>
</linearGradient>
<linearGradient id="paint6_linear_367_47613" x1="98" y1="354" x2="168.286" y2="354" gradientUnits="userSpaceOnUse">
<stop stop-color="#0756AA"/>
<stop offset="1" stop-color="#17418F"/>
</linearGradient>
<linearGradient id="paint7_linear_367_47613" x1="98" y1="217" x2="168.286" y2="217" gradientUnits="userSpaceOnUse">
<stop stop-color="#0756AA"/>
<stop offset="1" stop-color="#17418F"/>
</linearGradient>
<linearGradient id="paint8_linear_367_47613" x1="98" y1="80" x2="168.286" y2="80" gradientUnits="userSpaceOnUse">
<stop stop-color="#0756AA"/>
<stop offset="1" stop-color="#17418F"/>
</linearGradient>
<linearGradient id="paint9_linear_367_47613" x1="748.434" y1="187" x2="748.434" y2="374" gradientUnits="userSpaceOnUse">
<stop stop-color="#CEDDEA"/>
<stop offset="1" stop-color="#E9F0F7"/>
</linearGradient>
<linearGradient id="paint10_linear_367_47613" x1="588.434" y1="177" x2="588.434" y2="364" gradientUnits="userSpaceOnUse">
<stop stop-color="#CEDDEA"/>
<stop offset="1" stop-color="#E9F0F7"/>
</linearGradient>
</defs>
</svg>
