<svg width="1200" height="199" viewBox="0 0 1200 199" fill="none" xmlns="http://www.w3.org/2000/svg">
<g clip-path="url(#clip0_1222_43520)">
<g filter="url(#filter0_d_1222_43520)">
<path d="M801 0H400C394.477 0 390 4.47715 390 10V42C390 47.5228 394.477 52 400 52H801C806.523 52 811 47.5228 811 42V10C811 4.47715 806.523 0 801 0Z" fill="url(#paint0_linear_1222_43520)"/>
</g>
<path d="M570.788 21.2082H572.212V30.1202H570.788V21.2082ZM573.764 19.5602H575.22V32.4402C575.22 32.8775 575.167 33.2135 575.06 33.4482C574.953 33.6829 574.772 33.8642 574.516 33.9922C574.26 34.1202 573.913 34.2002 573.476 34.2322C573.049 34.2749 572.505 34.2962 571.844 34.2962C571.812 34.0935 571.748 33.8429 571.652 33.5442C571.567 33.2562 571.471 33.0002 571.364 32.7762C571.833 32.7869 572.255 32.7975 572.628 32.8082C573.012 32.8082 573.268 32.8029 573.396 32.7922C573.535 32.7922 573.631 32.7655 573.684 32.7122C573.737 32.6589 573.764 32.5629 573.764 32.4242V19.5602ZM563.252 26.4242H568.612V27.3682H563.252V26.4242ZM564.068 32.5042H568.836V33.6562H564.068V32.5042ZM562.372 24.4882H563.796V26.5202C563.796 27.0322 563.775 27.5975 563.732 28.2162C563.689 28.8349 563.615 29.4695 563.508 30.1202C563.401 30.7602 563.247 31.3895 563.044 32.0082C562.841 32.6269 562.58 33.1975 562.26 33.7202C562.175 33.6455 562.052 33.5655 561.892 33.4802C561.732 33.4055 561.567 33.3309 561.396 33.2562C561.236 33.1922 561.092 33.1389 560.964 33.0962C561.284 32.5949 561.535 32.0615 561.716 31.4962C561.908 30.9202 562.052 30.3389 562.148 29.7522C562.244 29.1655 562.303 28.5949 562.324 28.0402C562.356 27.4855 562.372 26.9735 562.372 26.5042V24.4882ZM563.22 24.4882H569.204V29.3522H563.188V28.2802H567.828V25.5602H563.22V24.4882ZM563.492 29.9922H569.588V34.2162H568.26V31.0642H564.772V34.2482H563.492V29.9922ZM565.62 19.5442L567.012 20.0722C566.617 20.7122 566.137 21.3202 565.572 21.8962C565.017 22.4722 564.415 23.0002 563.764 23.4802C563.113 23.9602 562.457 24.3709 561.796 24.7122C561.753 24.6055 561.684 24.4615 561.588 24.2802C561.492 24.0989 561.391 23.9175 561.284 23.7362C561.177 23.5549 561.076 23.4055 560.98 23.2882C561.599 23.0109 562.196 22.6855 562.772 22.3122C563.359 21.9282 563.897 21.5015 564.388 21.0322C564.879 20.5629 565.289 20.0669 565.62 19.5442ZM565.172 21.1122L565.94 20.0242C566.271 20.2162 566.628 20.4295 567.012 20.6642C567.407 20.8989 567.801 21.1335 568.196 21.3682C568.591 21.6029 568.959 21.8322 569.3 22.0562C569.641 22.2802 569.929 22.4829 570.164 22.6642L569.364 23.9282C569.055 23.6722 568.655 23.3789 568.164 23.0482C567.684 22.7175 567.177 22.3815 566.644 22.0402C566.121 21.6989 565.631 21.3895 565.172 21.1122ZM564.276 22.8562H567.62V23.8002H564.276V22.8562ZM586.068 24.8402H591.908V26.2482H586.068V24.8402ZM577.428 21.1282H584.548V22.3762H577.428V21.1282ZM577.252 27.4802H584.58V28.7762H577.252V27.4802ZM577.172 24.7442H584.804V26.0082H577.172V24.7442ZM588.788 25.4482H590.26V34.2642H588.788V25.4482ZM578.372 22.7122L579.604 22.4242C579.743 22.7335 579.865 23.0749 579.972 23.4482C580.089 23.8215 580.169 24.1415 580.212 24.4082L578.932 24.7602C578.9 24.4829 578.831 24.1522 578.724 23.7682C578.628 23.3842 578.511 23.0322 578.372 22.7122ZM582.356 22.3922L583.748 22.6802C583.577 23.1282 583.401 23.5815 583.22 24.0402C583.039 24.4989 582.868 24.8882 582.708 25.2082L581.476 24.9362C581.583 24.7015 581.689 24.4349 581.796 24.1362C581.903 23.8375 582.004 23.5335 582.1 23.2242C582.207 22.9149 582.292 22.6375 582.356 22.3922ZM590.436 19.7202L591.62 20.8402C591.097 21.0429 590.511 21.2295 589.86 21.4002C589.22 21.5602 588.564 21.7042 587.892 21.8322C587.231 21.9602 586.58 22.0722 585.94 22.1682C585.908 22.0082 585.844 21.8162 585.748 21.5922C585.663 21.3682 585.572 21.1815 585.476 21.0322C586.084 20.9255 586.692 20.8029 587.3 20.6642C587.908 20.5255 588.484 20.3762 589.028 20.2162C589.583 20.0455 590.052 19.8802 590.436 19.7202ZM579.796 19.7522L581.3 19.3682C581.481 19.6989 581.657 20.0669 581.828 20.4722C582.009 20.8669 582.143 21.2082 582.228 21.4962L580.66 21.9442C580.585 21.6455 580.463 21.2935 580.292 20.8882C580.132 20.4722 579.967 20.0935 579.796 19.7522ZM585.476 21.0322H586.9V26.6482C586.9 27.2349 586.879 27.8642 586.836 28.5362C586.804 29.2082 586.729 29.8855 586.612 30.5682C586.495 31.2509 586.329 31.9122 586.116 32.5522C585.903 33.1922 585.615 33.7682 585.252 34.2802C585.177 34.1842 585.065 34.0775 584.916 33.9602C584.777 33.8429 584.628 33.7309 584.468 33.6242C584.319 33.5175 584.191 33.4375 584.084 33.3842C584.511 32.7549 584.825 32.0509 585.028 31.2722C585.231 30.4935 585.353 29.7042 585.396 28.9042C585.449 28.1042 585.476 27.3522 585.476 26.6482V21.0322ZM582.404 29.8802L583.412 29.3362C583.679 29.7202 583.935 30.1415 584.18 30.6002C584.425 31.0482 584.612 31.4375 584.74 31.7682L583.7 32.3922C583.572 32.0615 583.38 31.6562 583.124 31.1762C582.879 30.6962 582.639 30.2642 582.404 29.8802ZM578.564 29.4802L579.748 29.8162C579.556 30.3922 579.305 30.9789 578.996 31.5762C578.697 32.1629 578.399 32.6642 578.1 33.0802C577.983 32.9735 577.817 32.8509 577.604 32.7122C577.401 32.5629 577.225 32.4509 577.076 32.3762C577.375 31.9922 577.652 31.5442 577.908 31.0322C578.175 30.5095 578.393 29.9922 578.564 29.4802ZM580.372 25.4322H581.844V34.2642H580.372V25.4322ZM593.22 28.1682H607.796V29.4482H593.22V28.1682ZM604.388 27.0162L605.892 27.4002C605.551 28.6269 605.071 29.6562 604.452 30.4882C603.833 31.3202 603.06 31.9975 602.132 32.5202C601.204 33.0429 600.084 33.4429 598.772 33.7202C597.471 33.9975 595.956 34.1949 594.228 34.3122C594.175 34.0882 594.095 33.8482 593.988 33.5922C593.881 33.3469 593.764 33.1335 593.636 32.9522C595.279 32.8775 596.708 32.7282 597.924 32.5042C599.14 32.2802 600.175 31.9442 601.028 31.4962C601.881 31.0482 602.58 30.4615 603.124 29.7362C603.679 29.0002 604.1 28.0935 604.388 27.0162ZM593.396 22.7442H607.572V24.0242H593.396V22.7442ZM599.716 20.7442H601.22V27.0162H599.716V20.7442ZM599.06 23.0642L600.292 23.5762C599.929 24.0135 599.503 24.4402 599.012 24.8562C598.532 25.2615 598.015 25.6402 597.46 25.9922C596.905 26.3442 596.324 26.6589 595.716 26.9362C595.119 27.2135 594.521 27.4429 593.924 27.6242C593.817 27.4429 593.673 27.2349 593.492 27.0002C593.321 26.7655 593.156 26.5789 592.996 26.4402C593.583 26.2909 594.164 26.1042 594.74 25.8802C595.327 25.6455 595.892 25.3789 596.436 25.0802C596.98 24.7815 597.476 24.4615 597.924 24.1202C598.372 23.7789 598.751 23.4269 599.06 23.0642ZM604.964 19.5122L606.068 20.5682C605.332 20.7389 604.511 20.8829 603.604 21.0002C602.697 21.1175 601.743 21.2189 600.74 21.3042C599.748 21.3789 598.751 21.4429 597.748 21.4962C596.745 21.5389 595.775 21.5655 594.836 21.5762C594.825 21.4162 594.788 21.2189 594.724 20.9842C594.66 20.7495 594.591 20.5575 594.516 20.4082C595.433 20.3975 596.377 20.3709 597.348 20.3282C598.319 20.2749 599.273 20.2109 600.212 20.1362C601.151 20.0615 602.025 19.9709 602.836 19.8642C603.657 19.7575 604.367 19.6402 604.964 19.5122ZM595.412 31.3042L596.58 30.3122C597.604 30.5149 598.628 30.7335 599.652 30.9682C600.687 31.2029 601.684 31.4482 602.644 31.7042C603.604 31.9495 604.505 32.2002 605.348 32.4562C606.201 32.7015 606.953 32.9362 607.604 33.1602L606.26 34.2642C605.46 33.9442 604.489 33.6135 603.348 33.2722C602.207 32.9309 600.959 32.5895 599.604 32.2482C598.26 31.9069 596.863 31.5922 595.412 31.3042ZM595.412 31.3042C595.817 30.8882 596.233 30.4135 596.66 29.8802C597.087 29.3469 597.497 28.7975 597.892 28.2322C598.297 27.6562 598.639 27.1015 598.916 26.5682L600.436 26.9682C600.159 27.4802 599.833 28.0082 599.46 28.5522C599.087 29.0855 598.708 29.5922 598.324 30.0722C597.94 30.5522 597.583 30.9629 597.252 31.3042H595.412ZM601.684 24.9682L602.372 24.0082C602.831 24.1682 603.321 24.3495 603.844 24.5522C604.367 24.7549 604.889 24.9629 605.412 25.1762C605.945 25.3895 606.441 25.6029 606.9 25.8162C607.369 26.0189 607.775 26.2055 608.116 26.3762L607.396 27.4642C607.076 27.2935 606.687 27.1069 606.228 26.9042C605.78 26.6909 605.289 26.4722 604.756 26.2482C604.233 26.0135 603.705 25.7895 603.172 25.5762C602.649 25.3522 602.153 25.1495 601.684 24.9682ZM612.98 21.2562V22.6482H620.1V21.2562H612.98ZM611.46 20.0562H621.7V23.8482H611.46V20.0562ZM612.26 27.6562V28.5842H620.74V27.6562H612.26ZM612.26 29.5922V30.5522H620.74V29.5922H612.26ZM612.26 25.7202V26.6322H620.74V25.7202H612.26ZM610.756 24.6322H622.308V31.6242H610.756V24.6322ZM613.828 31.4642L615.204 32.3922C614.777 32.6482 614.276 32.8989 613.7 33.1442C613.135 33.4002 612.548 33.6295 611.94 33.8322C611.332 34.0455 610.751 34.2215 610.196 34.3602C610.068 34.2002 609.892 34.0135 609.668 33.8002C609.444 33.5869 609.241 33.4055 609.06 33.2562C609.625 33.1282 610.212 32.9682 610.82 32.7762C611.428 32.5735 611.999 32.3602 612.532 32.1362C613.065 31.9015 613.497 31.6775 613.828 31.4642ZM617.556 32.5042L618.884 31.5282C619.449 31.6775 620.041 31.8589 620.66 32.0722C621.289 32.2855 621.892 32.4989 622.468 32.7122C623.055 32.9255 623.561 33.1229 623.988 33.3042L622.66 34.3762C622.255 34.1842 621.759 33.9762 621.172 33.7522C620.596 33.5282 619.988 33.3042 619.348 33.0802C618.719 32.8562 618.121 32.6642 617.556 32.5042ZM628.308 25.0802V27.3202H636.628V25.0802H628.308ZM627.028 24.1042H637.972V28.2962H627.028V24.1042ZM629.7 22.3762H635.332V23.4002H629.7V22.3762ZM631.812 24.4402H633.06V27.8002H631.812V24.4402ZM629.108 25.5122L630.164 25.1762C630.345 25.4535 630.511 25.7575 630.66 26.0882C630.82 26.4189 630.927 26.7069 630.98 26.9522L629.86 27.3362C629.807 27.0802 629.711 26.7815 629.572 26.4402C629.433 26.0989 629.279 25.7895 629.108 25.5122ZM634.66 25.1122L635.94 25.4642C635.759 25.8055 635.577 26.1469 635.396 26.4882C635.225 26.8189 635.065 27.1015 634.916 27.3362L633.876 27.0002C634.004 26.7442 634.148 26.4349 634.308 26.0722C634.468 25.7095 634.585 25.3895 634.66 25.1122ZM627.956 28.9522H637.188V34.2802H635.636V29.9762H629.444V34.3442H627.956V28.9522ZM628.82 30.8722H636.276V31.8962H628.82V30.8722ZM628.82 32.8082H636.292V33.8482H628.82V32.8082ZM632.292 19.4002L633.636 19.8802C633.06 20.6269 632.356 21.2989 631.524 21.8962C630.692 22.4935 629.791 23.0215 628.82 23.4802C627.849 23.9282 626.857 24.3069 625.844 24.6162C625.791 24.5202 625.716 24.3975 625.62 24.2482C625.524 24.0989 625.423 23.9495 625.316 23.8002C625.209 23.6509 625.108 23.5335 625.012 23.4482C625.993 23.1922 626.948 22.8722 627.876 22.4882C628.804 22.0935 629.647 21.6402 630.404 21.1282C631.172 20.6055 631.801 20.0295 632.292 19.4002ZM633.236 20.0242C633.599 20.3869 634.036 20.7389 634.548 21.0802C635.071 21.4109 635.636 21.7202 636.244 22.0082C636.863 22.2962 637.503 22.5522 638.164 22.7762C638.836 23.0002 639.497 23.1869 640.148 23.3362C639.988 23.4642 639.812 23.6455 639.62 23.8802C639.439 24.1149 639.295 24.3229 639.188 24.5042C638.537 24.3229 637.876 24.0989 637.204 23.8322C636.532 23.5549 635.881 23.2455 635.252 22.9042C634.633 22.5522 634.052 22.1735 633.508 21.7682C632.975 21.3629 632.5 20.9415 632.084 20.5042L633.236 20.0242Z" fill="white"/>
<g filter="url(#filter1_d_1222_43520)">
<path d="M122.5 127H10C4.47715 127 0 131.477 0 137V169C0 174.523 4.47715 179 10 179H122.5C128.023 179 132.5 174.523 132.5 169V137C132.5 131.477 128.023 127 122.5 127Z" fill="url(#paint1_linear_1222_43520)"/>
</g>
<path d="M41.466 155.648L42.634 156.176C42.2287 156.539 41.7593 156.885 41.226 157.216C40.6927 157.536 40.1167 157.829 39.498 158.096C38.8793 158.352 38.2447 158.581 37.594 158.784C36.9433 158.987 36.2927 159.152 35.642 159.28C35.5567 159.12 35.434 158.928 35.274 158.704C35.114 158.48 34.9593 158.304 34.81 158.176C35.4393 158.069 36.0687 157.936 36.698 157.776C37.338 157.616 37.9513 157.429 38.538 157.216C39.1353 156.992 39.6847 156.752 40.186 156.496C40.6873 156.229 41.114 155.947 41.466 155.648ZM43.194 155.504C43.674 156.709 44.458 157.685 45.546 158.432C46.6447 159.179 48.0207 159.68 49.674 159.936C49.5247 160.075 49.37 160.261 49.21 160.496C49.05 160.741 48.922 160.96 48.826 161.152C47.6527 160.917 46.6233 160.565 45.738 160.096C44.8527 159.627 44.0953 159.035 43.466 158.32C42.8473 157.605 42.3407 156.763 41.946 155.792L43.194 155.504ZM47.658 156.4L48.746 157.2C48.234 157.541 47.674 157.872 47.066 158.192C46.4687 158.512 45.914 158.784 45.402 159.008L44.474 158.256C44.8153 158.096 45.178 157.909 45.562 157.696C45.9567 157.483 46.3353 157.264 46.698 157.04C47.0713 156.816 47.3913 156.603 47.658 156.4ZM35.082 155.2H49.418V156.416H35.082V155.2ZM44.202 147.296H45.562V152.576H44.202V147.296ZM47.274 146.64H48.65V153.168C48.65 153.52 48.602 153.792 48.506 153.984C48.4207 154.165 48.25 154.309 47.994 154.416C47.738 154.512 47.418 154.571 47.034 154.592C46.65 154.613 46.1753 154.624 45.61 154.624C45.5887 154.443 45.53 154.24 45.434 154.016C45.3487 153.781 45.258 153.579 45.162 153.408C45.5567 153.419 45.93 153.424 46.282 153.424C46.634 153.424 46.8633 153.419 46.97 153.408C47.0873 153.408 47.1673 153.392 47.21 153.36C47.2527 153.317 47.274 153.248 47.274 153.152V146.64ZM38.538 146.496H39.834V154.672H38.538V146.496ZM41.514 151.2H42.762V153.104C42.762 153.36 42.73 153.557 42.666 153.696C42.6127 153.835 42.49 153.947 42.298 154.032C42.1273 154.117 41.914 154.165 41.658 154.176C41.402 154.187 41.098 154.192 40.746 154.192C40.714 154.043 40.6553 153.888 40.57 153.728C40.4953 153.557 40.426 153.408 40.362 153.28C40.586 153.291 40.7887 153.296 40.97 153.296C41.1513 153.296 41.274 153.296 41.338 153.296C41.4553 153.285 41.514 153.227 41.514 153.12V151.2ZM35.786 151.2H42.026V152.176H36.954V154.272H35.786V151.2ZM35.034 149.424H43.098V150.48H35.034V149.424ZM36.746 147.584H42.602V148.608H36.33L36.746 147.584ZM36.442 146.528L37.594 146.816C37.4233 147.307 37.21 147.792 36.954 148.272C36.7087 148.752 36.458 149.163 36.202 149.504C36.0847 149.408 35.9193 149.301 35.706 149.184C35.4927 149.067 35.3113 148.976 35.162 148.912C35.4393 148.592 35.6847 148.224 35.898 147.808C36.122 147.381 36.3033 146.955 36.442 146.528ZM38.074 161.392L38.01 160.368L38.57 159.92L43.05 158.96C43.0287 159.141 43.0073 159.344 42.986 159.568C42.9753 159.781 42.97 159.963 42.97 160.112C41.9567 160.347 41.1407 160.539 40.522 160.688C39.914 160.837 39.4447 160.955 39.114 161.04C38.794 161.125 38.5593 161.189 38.41 161.232C38.2607 161.285 38.1487 161.339 38.074 161.392ZM38.09 161.376C38.0687 161.28 38.026 161.157 37.962 161.008C37.9087 160.869 37.8447 160.736 37.77 160.608C37.706 160.48 37.642 160.379 37.578 160.304C37.7167 160.219 37.866 160.075 38.026 159.872C38.1967 159.669 38.282 159.376 38.282 158.992V157.6L39.674 157.584V159.872C39.674 159.872 39.6207 159.909 39.514 159.984C39.4073 160.048 39.274 160.133 39.114 160.24C38.9647 160.357 38.81 160.48 38.65 160.608C38.49 160.747 38.3567 160.88 38.25 161.008C38.1433 161.147 38.09 161.269 38.09 161.376ZM41.322 154.272L42.73 153.872C42.89 154.128 43.0447 154.416 43.194 154.736C43.3433 155.045 43.45 155.317 43.514 155.552L42.026 156C41.962 155.776 41.8607 155.499 41.722 155.168C41.594 154.837 41.4607 154.539 41.322 154.272ZM60.33 154.08H61.834V160.528H60.33V154.08ZM56.49 159.632H65.578V160.976H56.49V159.632ZM57.322 156.48H64.922V157.776H57.322V156.48ZM58.874 148.544V151.248H63.322V148.544H58.874ZM57.466 147.248H64.794V152.544H57.466V147.248ZM64.154 152.96L65.098 154.096C64.4153 154.277 63.6313 154.432 62.746 154.56C61.8607 154.677 60.9487 154.779 60.01 154.864C59.0713 154.949 58.1753 155.008 57.322 155.04C57.3007 154.88 57.2527 154.688 57.178 154.464C57.114 154.229 57.0393 154.032 56.954 153.872C57.5833 153.84 58.2287 153.797 58.89 153.744C59.562 153.68 60.218 153.611 60.858 153.536C61.5087 153.461 62.1113 153.376 62.666 153.28C63.2313 153.184 63.7273 153.077 64.154 152.96ZM53.45 147.888H54.922V161.328H53.45V147.888ZM50.97 150.992H56.81V152.416H50.97V150.992ZM53.53 151.552L54.442 151.952C54.282 152.517 54.09 153.109 53.866 153.728C53.642 154.336 53.3967 154.939 53.13 155.536C52.874 156.133 52.5967 156.693 52.298 157.216C51.9993 157.739 51.6953 158.187 51.386 158.56C51.3113 158.347 51.1993 158.107 51.05 157.84C50.9007 157.563 50.7673 157.333 50.65 157.152C50.938 156.832 51.2207 156.453 51.498 156.016C51.7753 155.568 52.042 155.093 52.298 154.592C52.5647 154.08 52.7993 153.563 53.002 153.04C53.2153 152.517 53.3913 152.021 53.53 151.552ZM55.946 146.688L56.986 147.856C56.4633 148.059 55.8767 148.245 55.226 148.416C54.586 148.587 53.9247 148.736 53.242 148.864C52.57 148.981 51.914 149.083 51.274 149.168C51.242 149.008 51.178 148.816 51.082 148.592C50.9967 148.357 50.9167 148.16 50.842 148C51.45 147.904 52.0687 147.792 52.698 147.664C53.3273 147.525 53.9247 147.376 54.49 147.216C55.066 147.045 55.5513 146.869 55.946 146.688ZM54.89 153.136C54.986 153.211 55.1353 153.355 55.338 153.568C55.5407 153.771 55.7593 153.989 55.994 154.224C56.2393 154.459 56.458 154.683 56.65 154.896C56.842 155.099 56.9753 155.248 57.05 155.344L56.17 156.528C56.074 156.357 55.9407 156.144 55.77 155.888C55.61 155.632 55.4287 155.371 55.226 155.104C55.034 154.827 54.8473 154.565 54.666 154.32C54.4847 154.075 54.33 153.877 54.202 153.728L54.89 153.136ZM70.314 153.6H78.17V154.816H70.314V153.6ZM70.042 156.32H78.474V157.584H70.042V156.32ZM75.13 153.968H76.49V161.056H75.13V153.968ZM71.93 154.032H73.226V157.024C73.226 157.269 73.194 157.573 73.13 157.936C73.0767 158.299 72.97 158.688 72.81 159.104C72.65 159.509 72.4313 159.904 72.154 160.288C71.8767 160.672 71.514 161.013 71.066 161.312C70.9593 161.173 70.81 161.013 70.618 160.832C70.426 160.661 70.25 160.523 70.09 160.416C70.5913 160.107 70.97 159.744 71.226 159.328C71.4927 158.901 71.674 158.48 71.77 158.064C71.8767 157.648 71.93 157.296 71.93 157.008V154.032ZM68.362 149.344H72.65V150.384H68.362V149.344ZM75.77 149.344H80.074V150.384H75.77V149.344ZM79.482 147.152H80.986V159.504C80.986 159.909 80.9327 160.229 80.826 160.464C80.73 160.709 80.554 160.896 80.298 161.024C80.0313 161.152 79.69 161.232 79.274 161.264C78.858 161.296 78.3407 161.312 77.722 161.312C77.7113 161.173 77.6793 161.013 77.626 160.832C77.5833 160.651 77.53 160.464 77.466 160.272C77.4127 160.091 77.3487 159.936 77.274 159.808C77.6793 159.819 78.0633 159.824 78.426 159.824C78.7887 159.824 79.034 159.824 79.162 159.824C79.2793 159.813 79.3593 159.787 79.402 159.744C79.4553 159.691 79.482 159.605 79.482 159.488V147.152ZM68.506 147.152H73.594V152.672H68.506V151.552H72.17V148.256H68.506V147.152ZM80.25 147.152V148.256H76.298V151.584H80.25V152.688H74.858V147.152H80.25ZM67.594 147.152H69.082V161.36H67.594V147.152ZM90.906 151.28H94.186V152.464H90.906V151.28ZM89.706 155.936H95.114V156.992H89.706V155.936ZM84.41 147.12H88.858V148.32H84.41V147.12ZM88.442 147.12H88.698L88.954 147.056L89.898 147.52C89.5033 148.437 88.97 149.248 88.298 149.952C87.626 150.656 86.874 151.264 86.042 151.776C85.21 152.277 84.3513 152.688 83.466 153.008C83.37 152.837 83.242 152.64 83.082 152.416C82.9327 152.192 82.7887 152.016 82.65 151.888C83.258 151.707 83.8553 151.472 84.442 151.184C85.0287 150.885 85.5833 150.544 86.106 150.16C86.6287 149.765 87.0927 149.333 87.498 148.864C87.9033 148.384 88.218 147.883 88.442 147.36V147.12ZM91.354 146.544C91.7273 147.355 92.2287 148.096 92.858 148.768C93.4873 149.44 94.218 150.027 95.05 150.528C95.882 151.019 96.7887 151.392 97.77 151.648C97.6207 151.787 97.4553 151.973 97.274 152.208C97.1033 152.443 96.9647 152.651 96.858 152.832C95.834 152.512 94.89 152.069 94.026 151.504C93.1727 150.939 92.4153 150.272 91.754 149.504C91.1033 148.725 90.5647 147.861 90.138 146.912L91.354 146.544ZM94.234 146.592L95.354 147.376C94.97 147.717 94.5593 148.059 94.122 148.4C93.6847 148.741 93.2847 149.035 92.922 149.28L92.042 148.592C92.2767 148.421 92.5273 148.219 92.794 147.984C93.0713 147.749 93.338 147.515 93.594 147.28C93.85 147.035 94.0633 146.805 94.234 146.592ZM96.218 148.208L97.322 148.976C96.9487 149.328 96.538 149.675 96.09 150.016C95.642 150.347 95.226 150.629 94.842 150.864L93.93 150.176C94.1753 150.005 94.4367 149.808 94.714 149.584C95.002 149.349 95.2793 149.115 95.546 148.88C95.8127 148.635 96.0367 148.411 96.218 148.208ZM85.098 151.36H88.986V155.12H87.642V152.528H85.098V151.36ZM84.602 153.968H85.834C85.7593 154.587 85.6687 155.237 85.562 155.92C85.466 156.603 85.37 157.184 85.274 157.664H84.01C84.0847 157.333 84.154 156.96 84.218 156.544C84.2927 156.117 84.362 155.68 84.426 155.232C84.5007 154.784 84.5593 154.363 84.602 153.968ZM87.626 156.544H89.002C89.002 156.544 88.9967 156.613 88.986 156.752C88.986 156.891 88.9807 157.003 88.97 157.088C88.9167 157.824 88.8527 158.437 88.778 158.928C88.7033 159.408 88.618 159.787 88.522 160.064C88.4367 160.352 88.3247 160.565 88.186 160.704C88.026 160.853 87.8553 160.96 87.674 161.024C87.5033 161.099 87.2847 161.141 87.018 161.152C86.8047 161.173 86.506 161.184 86.122 161.184C85.738 161.184 85.3273 161.173 84.89 161.152C84.8793 160.949 84.8313 160.725 84.746 160.48C84.6713 160.245 84.5753 160.037 84.458 159.856C84.874 159.899 85.2687 159.925 85.642 159.936C86.026 159.947 86.298 159.952 86.458 159.952C86.5967 159.952 86.714 159.947 86.81 159.936C86.906 159.915 86.986 159.872 87.05 159.808C87.178 159.691 87.29 159.397 87.386 158.928C87.482 158.459 87.562 157.723 87.626 156.72V156.544ZM90.346 151.28H91.626V152.512C91.626 152.885 91.578 153.269 91.482 153.664C91.386 154.048 91.21 154.421 90.954 154.784C90.7087 155.136 90.346 155.456 89.866 155.744C89.8127 155.659 89.722 155.557 89.594 155.44C89.4767 155.312 89.354 155.189 89.226 155.072C89.1087 154.955 89.002 154.864 88.906 154.8C89.3327 154.565 89.6473 154.32 89.85 154.064C90.0527 153.808 90.186 153.547 90.25 153.28C90.314 153.003 90.346 152.736 90.346 152.48V151.28ZM94.794 155.936H95.066L95.306 155.904L96.154 156.208C95.7913 157.179 95.2847 158.005 94.634 158.688C93.9833 159.36 93.226 159.909 92.362 160.336C91.498 160.773 90.5593 161.115 89.546 161.36C89.482 161.2 89.386 161.008 89.258 160.784C89.1407 160.56 89.018 160.384 88.89 160.256C89.786 160.075 90.6287 159.808 91.418 159.456C92.2073 159.093 92.8953 158.635 93.482 158.08C94.0793 157.525 94.5167 156.875 94.794 156.128V155.936ZM85.146 153.968H88.122V155.12H84.938L85.146 153.968ZM84.682 156.544H88.01V157.664H84.474L84.682 156.544ZM83.93 149.296L84.794 148.48C85.146 148.672 85.5193 148.907 85.914 149.184C86.3087 149.451 86.6127 149.691 86.826 149.904L85.914 150.8C85.7113 150.576 85.418 150.325 85.034 150.048C84.6607 149.76 84.2927 149.509 83.93 149.296ZM93.514 151.296H94.762V153.76C94.762 153.952 94.778 154.085 94.81 154.16C94.842 154.224 94.9113 154.256 95.018 154.256C95.082 154.256 95.1833 154.256 95.322 154.256C95.4607 154.256 95.5993 154.256 95.738 154.256C95.8767 154.256 95.978 154.256 96.042 154.256C96.1487 154.256 96.282 154.251 96.442 154.24C96.602 154.229 96.73 154.213 96.826 154.192C96.8367 154.341 96.8473 154.517 96.858 154.72C96.8793 154.912 96.9007 155.083 96.922 155.232C96.826 155.264 96.698 155.285 96.538 155.296C96.378 155.307 96.218 155.312 96.058 155.312C96.0047 155.312 95.9193 155.312 95.802 155.312C95.6953 155.312 95.578 155.312 95.45 155.312C95.3327 155.312 95.2207 155.312 95.114 155.312C95.0073 155.312 94.9273 155.312 94.874 155.312C94.5007 155.312 94.2127 155.259 94.01 155.152C93.818 155.045 93.6847 154.88 93.61 154.656C93.546 154.421 93.514 154.117 93.514 153.744V151.296ZM89.594 157.776L90.314 156.928C90.794 157.184 91.306 157.461 91.85 157.76C92.394 158.059 92.938 158.368 93.482 158.688C94.026 158.997 94.538 159.301 95.018 159.6C95.498 159.888 95.9087 160.149 96.25 160.384L95.466 161.376C95.146 161.141 94.7513 160.869 94.282 160.56C93.8127 160.261 93.306 159.952 92.762 159.632C92.2287 159.301 91.6847 158.981 91.13 158.672C90.586 158.352 90.074 158.053 89.594 157.776Z" fill="white"/>
<g filter="url(#filter2_d_1222_43520)">
<path d="M275 127H162.5C156.977 127 152.5 131.477 152.5 137V169C152.5 174.523 156.977 179 162.5 179H275C280.523 179 285 174.523 285 169V137C285 131.477 280.523 127 275 127Z" fill="url(#paint2_linear_1222_43520)"/>
</g>
<path d="M189.374 152.032H201.934V153.264H189.374V152.032ZM188.734 147.888H201.454V149.088H188.734V147.888ZM191.87 154.752H201.054V155.968H191.87V154.752ZM191.79 157.136H200.654V158.32H191.79V157.136ZM190.286 159.632H202.174V160.88H190.286V159.632ZM195.39 153.552H196.878V160.48H195.39V153.552ZM188.606 152.032H190.078V155.2C190.078 155.669 190.057 156.181 190.014 156.736C189.971 157.291 189.886 157.856 189.758 158.432C189.641 158.997 189.465 159.541 189.23 160.064C188.995 160.597 188.691 161.083 188.318 161.52C188.243 161.424 188.131 161.307 187.982 161.168C187.843 161.04 187.699 160.917 187.55 160.8C187.401 160.683 187.273 160.597 187.166 160.544C187.603 160.021 187.923 159.451 188.126 158.832C188.329 158.203 188.457 157.573 188.51 156.944C188.574 156.315 188.606 155.728 188.606 155.184V152.032ZM192.062 153.488L193.358 153.872C193.07 154.651 192.697 155.413 192.238 156.16C191.79 156.896 191.294 157.515 190.75 158.016C190.718 157.92 190.654 157.787 190.558 157.616C190.473 157.445 190.382 157.275 190.286 157.104C190.19 156.923 190.099 156.784 190.014 156.688C190.441 156.293 190.83 155.813 191.182 155.248C191.545 154.683 191.838 154.096 192.062 153.488ZM190.59 149.728L191.582 148.96C192.297 149.12 193.054 149.301 193.854 149.504C194.654 149.696 195.449 149.904 196.238 150.128C197.027 150.341 197.774 150.56 198.478 150.784C199.182 150.997 199.801 151.189 200.334 151.36L199.39 152.208C198.878 152.016 198.27 151.808 197.566 151.584C196.873 151.36 196.131 151.136 195.342 150.912C194.553 150.688 193.747 150.475 192.926 150.272C192.115 150.059 191.337 149.877 190.59 149.728ZM198.718 148.896L199.742 149.536C199.166 149.824 198.515 150.101 197.79 150.368C197.065 150.635 196.302 150.885 195.502 151.12C194.713 151.344 193.918 151.552 193.118 151.744C192.329 151.925 191.577 152.085 190.862 152.224C190.766 152.096 190.633 151.947 190.462 151.776C190.291 151.605 190.142 151.472 190.014 151.376C190.75 151.248 191.523 151.099 192.334 150.928C193.155 150.747 193.961 150.549 194.75 150.336C195.539 150.123 196.275 149.893 196.958 149.648C197.651 149.403 198.238 149.152 198.718 148.896ZM193.758 146.848L194.814 146.336C195.059 146.603 195.305 146.912 195.55 147.264C195.806 147.616 195.998 147.925 196.126 148.192L195.022 148.784C194.905 148.517 194.723 148.203 194.478 147.84C194.243 147.477 194.003 147.147 193.758 146.848ZM207.726 148.608V151.248H213.79V148.608H207.726ZM206.27 147.152H215.342V152.704H206.27V147.152ZM203.998 154.24H209.87V161.232H208.366V155.696H205.422V161.344H203.998V154.24ZM211.454 154.24H217.598V161.264H216.078V155.696H212.894V161.344H211.454V154.24ZM204.638 159.056H208.99V160.512H204.638V159.056ZM212.158 159.056H216.798V160.512H212.158V159.056ZM220.126 151.344H224.942V152.528H220.126V151.344ZM220.126 153.488H224.974V154.656H220.126V153.488ZM219.438 149.184H225.614V150.4H219.438V149.184ZM220.782 155.648H224.942V160.416H220.782V159.168H223.63V156.88H220.782V155.648ZM220.126 155.648H221.422V161.136H220.126V155.648ZM221.134 147.008L222.302 146.416C222.537 146.747 222.766 147.109 222.99 147.504C223.214 147.888 223.39 148.229 223.518 148.528L222.302 149.2C222.174 148.912 221.998 148.56 221.774 148.144C221.561 147.717 221.347 147.339 221.134 147.008ZM227.15 147.04H231.342V148.448H227.15V147.04ZM225.406 153.504H232.446V154.928H225.406V153.504ZM231.918 153.504H232.206L232.462 153.456L233.406 153.856C233.107 154.901 232.702 155.835 232.19 156.656C231.678 157.467 231.081 158.176 230.398 158.784C229.726 159.392 228.979 159.904 228.158 160.32C227.347 160.736 226.483 161.077 225.566 161.344C225.523 161.205 225.459 161.051 225.374 160.88C225.289 160.709 225.193 160.544 225.086 160.384C224.99 160.224 224.894 160.091 224.798 159.984C225.63 159.792 226.419 159.52 227.166 159.168C227.913 158.805 228.601 158.363 229.23 157.84C229.859 157.317 230.403 156.715 230.862 156.032C231.321 155.349 231.673 154.587 231.918 153.744V153.504ZM227.278 154.768C227.673 155.632 228.201 156.411 228.862 157.104C229.534 157.787 230.323 158.368 231.23 158.848C232.147 159.328 233.161 159.685 234.27 159.92C234.163 160.027 234.051 160.16 233.934 160.32C233.817 160.491 233.705 160.661 233.598 160.832C233.491 161.003 233.401 161.157 233.326 161.296C231.587 160.859 230.105 160.123 228.878 159.088C227.662 158.053 226.697 156.763 225.982 155.216L227.278 154.768ZM226.862 147.04H228.254V148.832C228.254 149.333 228.19 149.851 228.062 150.384C227.945 150.907 227.715 151.413 227.374 151.904C227.033 152.395 226.531 152.827 225.87 153.2C225.806 153.093 225.71 152.971 225.582 152.832C225.465 152.683 225.342 152.539 225.214 152.4C225.086 152.261 224.979 152.16 224.894 152.096C225.47 151.776 225.897 151.435 226.174 151.072C226.462 150.699 226.649 150.32 226.734 149.936C226.819 149.541 226.862 149.163 226.862 148.8V147.04ZM230.606 147.04H231.998V150.672C231.998 150.896 232.009 151.056 232.03 151.152C232.062 151.248 232.131 151.296 232.238 151.296C232.291 151.296 232.371 151.296 232.478 151.296C232.595 151.296 232.707 151.296 232.814 151.296C232.931 151.296 233.011 151.296 233.054 151.296C233.161 151.296 233.283 151.291 233.422 151.28C233.571 151.259 233.694 151.232 233.79 151.2C233.811 151.392 233.827 151.611 233.838 151.856C233.849 152.101 233.87 152.309 233.902 152.48C233.806 152.523 233.683 152.549 233.534 152.56C233.385 152.571 233.23 152.576 233.07 152.576C233.006 152.576 232.91 152.576 232.782 152.576C232.654 152.576 232.526 152.576 232.398 152.576C232.27 152.576 232.174 152.576 232.11 152.576C231.683 152.576 231.363 152.512 231.15 152.384C230.937 152.256 230.793 152.053 230.718 151.776C230.643 151.488 230.606 151.109 230.606 150.64V147.04ZM236.43 151.344H241.726V152.528H236.43V151.344ZM236.43 153.488H241.694V154.656H236.43V153.488ZM235.726 149.184H242.414V150.4H235.726V149.184ZM237.182 155.648H241.742V160.416H237.182V159.168H240.414V156.88H237.182V155.648ZM236.526 155.648H237.822V161.136H236.526V155.648ZM237.566 147.008L238.734 146.416C238.969 146.747 239.198 147.109 239.422 147.504C239.646 147.888 239.822 148.229 239.95 148.528L238.734 149.2C238.617 148.912 238.446 148.56 238.222 148.144C237.998 147.717 237.779 147.339 237.566 147.008ZM242.366 151.952H250.094V153.44H242.366V151.952ZM245.358 146.784H246.926V161.344H245.358V146.784Z" fill="white"/>
<g filter="url(#filter3_d_1222_43520)">
<path d="M427.5 127H315C309.477 127 305 131.477 305 137V169C305 174.523 309.477 179 315 179H427.5C433.023 179 437.5 174.523 437.5 169V137C437.5 131.477 433.023 127 427.5 127Z" fill="url(#paint3_linear_1222_43520)"/>
</g>
<path d="M341.874 152.032H354.434V153.264H341.874V152.032ZM341.234 147.888H353.954V149.088H341.234V147.888ZM344.37 154.752H353.554V155.968H344.37V154.752ZM344.29 157.136H353.154V158.32H344.29V157.136ZM342.786 159.632H354.674V160.88H342.786V159.632ZM347.89 153.552H349.378V160.48H347.89V153.552ZM341.106 152.032H342.578V155.2C342.578 155.669 342.557 156.181 342.514 156.736C342.471 157.291 342.386 157.856 342.258 158.432C342.141 158.997 341.965 159.541 341.73 160.064C341.495 160.597 341.191 161.083 340.818 161.52C340.743 161.424 340.631 161.307 340.482 161.168C340.343 161.04 340.199 160.917 340.05 160.8C339.901 160.683 339.773 160.597 339.666 160.544C340.103 160.021 340.423 159.451 340.626 158.832C340.829 158.203 340.957 157.573 341.01 156.944C341.074 156.315 341.106 155.728 341.106 155.184V152.032ZM344.562 153.488L345.858 153.872C345.57 154.651 345.197 155.413 344.738 156.16C344.29 156.896 343.794 157.515 343.25 158.016C343.218 157.92 343.154 157.787 343.058 157.616C342.973 157.445 342.882 157.275 342.786 157.104C342.69 156.923 342.599 156.784 342.514 156.688C342.941 156.293 343.33 155.813 343.682 155.248C344.045 154.683 344.338 154.096 344.562 153.488ZM343.09 149.728L344.082 148.96C344.797 149.12 345.554 149.301 346.354 149.504C347.154 149.696 347.949 149.904 348.738 150.128C349.527 150.341 350.274 150.56 350.978 150.784C351.682 150.997 352.301 151.189 352.834 151.36L351.89 152.208C351.378 152.016 350.77 151.808 350.066 151.584C349.373 151.36 348.631 151.136 347.842 150.912C347.053 150.688 346.247 150.475 345.426 150.272C344.615 150.059 343.837 149.877 343.09 149.728ZM351.218 148.896L352.242 149.536C351.666 149.824 351.015 150.101 350.29 150.368C349.565 150.635 348.802 150.885 348.002 151.12C347.213 151.344 346.418 151.552 345.618 151.744C344.829 151.925 344.077 152.085 343.362 152.224C343.266 152.096 343.133 151.947 342.962 151.776C342.791 151.605 342.642 151.472 342.514 151.376C343.25 151.248 344.023 151.099 344.834 150.928C345.655 150.747 346.461 150.549 347.25 150.336C348.039 150.123 348.775 149.893 349.458 149.648C350.151 149.403 350.738 149.152 351.218 148.896ZM346.258 146.848L347.314 146.336C347.559 146.603 347.805 146.912 348.05 147.264C348.306 147.616 348.498 147.925 348.626 148.192L347.522 148.784C347.405 148.517 347.223 148.203 346.978 147.84C346.743 147.477 346.503 147.147 346.258 146.848ZM360.226 148.608V151.248H366.29V148.608H360.226ZM358.77 147.152H367.842V152.704H358.77V147.152ZM356.498 154.24H362.37V161.232H360.866V155.696H357.922V161.344H356.498V154.24ZM363.954 154.24H370.098V161.264H368.578V155.696H365.394V161.344H363.954V154.24ZM357.138 159.056H361.49V160.512H357.138V159.056ZM364.658 159.056H369.298V160.512H364.658V159.056ZM372.882 148.24H385.666V149.808H372.882V148.24ZM372.034 158.656H386.514V160.176H372.034V158.656ZM378.354 149.072H380.05V159.264H378.354V149.072ZM397.33 154.08H398.834V160.528H397.33V154.08ZM393.49 159.632H402.578V160.976H393.49V159.632ZM394.322 156.48H401.922V157.776H394.322V156.48ZM395.874 148.544V151.248H400.322V148.544H395.874ZM394.466 147.248H401.794V152.544H394.466V147.248ZM401.154 152.96L402.098 154.096C401.415 154.277 400.631 154.432 399.746 154.56C398.861 154.677 397.949 154.779 397.01 154.864C396.071 154.949 395.175 155.008 394.322 155.04C394.301 154.88 394.253 154.688 394.178 154.464C394.114 154.229 394.039 154.032 393.954 153.872C394.583 153.84 395.229 153.797 395.89 153.744C396.562 153.68 397.218 153.611 397.858 153.536C398.509 153.461 399.111 153.376 399.666 153.28C400.231 153.184 400.727 153.077 401.154 152.96ZM390.45 147.888H391.922V161.328H390.45V147.888ZM387.97 150.992H393.81V152.416H387.97V150.992ZM390.53 151.552L391.442 151.952C391.282 152.517 391.09 153.109 390.866 153.728C390.642 154.336 390.397 154.939 390.13 155.536C389.874 156.133 389.597 156.693 389.298 157.216C388.999 157.739 388.695 158.187 388.386 158.56C388.311 158.347 388.199 158.107 388.05 157.84C387.901 157.563 387.767 157.333 387.65 157.152C387.938 156.832 388.221 156.453 388.498 156.016C388.775 155.568 389.042 155.093 389.298 154.592C389.565 154.08 389.799 153.563 390.002 153.04C390.215 152.517 390.391 152.021 390.53 151.552ZM392.946 146.688L393.986 147.856C393.463 148.059 392.877 148.245 392.226 148.416C391.586 148.587 390.925 148.736 390.242 148.864C389.57 148.981 388.914 149.083 388.274 149.168C388.242 149.008 388.178 148.816 388.082 148.592C387.997 148.357 387.917 148.16 387.842 148C388.45 147.904 389.069 147.792 389.698 147.664C390.327 147.525 390.925 147.376 391.49 147.216C392.066 147.045 392.551 146.869 392.946 146.688ZM391.89 153.136C391.986 153.211 392.135 153.355 392.338 153.568C392.541 153.771 392.759 153.989 392.994 154.224C393.239 154.459 393.458 154.683 393.65 154.896C393.842 155.099 393.975 155.248 394.05 155.344L393.17 156.528C393.074 156.357 392.941 156.144 392.77 155.888C392.61 155.632 392.429 155.371 392.226 155.104C392.034 154.827 391.847 154.565 391.666 154.32C391.485 154.075 391.33 153.877 391.202 153.728L391.89 153.136Z" fill="white"/>
<g filter="url(#filter4_d_1222_43520)">
<path d="M580 127H467.5C461.977 127 457.5 131.477 457.5 137V169C457.5 174.523 461.977 179 467.5 179H580C585.523 179 590 174.523 590 169V137C590 131.477 585.523 127 580 127Z" fill="url(#paint4_linear_1222_43520)"/>
</g>
<path d="M494.374 152.032H506.934V153.264H494.374V152.032ZM493.734 147.888H506.454V149.088H493.734V147.888ZM496.87 154.752H506.054V155.968H496.87V154.752ZM496.79 157.136H505.654V158.32H496.79V157.136ZM495.286 159.632H507.174V160.88H495.286V159.632ZM500.39 153.552H501.878V160.48H500.39V153.552ZM493.606 152.032H495.078V155.2C495.078 155.669 495.057 156.181 495.014 156.736C494.971 157.291 494.886 157.856 494.758 158.432C494.641 158.997 494.465 159.541 494.23 160.064C493.995 160.597 493.691 161.083 493.318 161.52C493.243 161.424 493.131 161.307 492.982 161.168C492.843 161.04 492.699 160.917 492.55 160.8C492.401 160.683 492.273 160.597 492.166 160.544C492.603 160.021 492.923 159.451 493.126 158.832C493.329 158.203 493.457 157.573 493.51 156.944C493.574 156.315 493.606 155.728 493.606 155.184V152.032ZM497.062 153.488L498.358 153.872C498.07 154.651 497.697 155.413 497.238 156.16C496.79 156.896 496.294 157.515 495.75 158.016C495.718 157.92 495.654 157.787 495.558 157.616C495.473 157.445 495.382 157.275 495.286 157.104C495.19 156.923 495.099 156.784 495.014 156.688C495.441 156.293 495.83 155.813 496.182 155.248C496.545 154.683 496.838 154.096 497.062 153.488ZM495.59 149.728L496.582 148.96C497.297 149.12 498.054 149.301 498.854 149.504C499.654 149.696 500.449 149.904 501.238 150.128C502.027 150.341 502.774 150.56 503.478 150.784C504.182 150.997 504.801 151.189 505.334 151.36L504.39 152.208C503.878 152.016 503.27 151.808 502.566 151.584C501.873 151.36 501.131 151.136 500.342 150.912C499.553 150.688 498.747 150.475 497.926 150.272C497.115 150.059 496.337 149.877 495.59 149.728ZM503.718 148.896L504.742 149.536C504.166 149.824 503.515 150.101 502.79 150.368C502.065 150.635 501.302 150.885 500.502 151.12C499.713 151.344 498.918 151.552 498.118 151.744C497.329 151.925 496.577 152.085 495.862 152.224C495.766 152.096 495.633 151.947 495.462 151.776C495.291 151.605 495.142 151.472 495.014 151.376C495.75 151.248 496.523 151.099 497.334 150.928C498.155 150.747 498.961 150.549 499.75 150.336C500.539 150.123 501.275 149.893 501.958 149.648C502.651 149.403 503.238 149.152 503.718 148.896ZM498.758 146.848L499.814 146.336C500.059 146.603 500.305 146.912 500.55 147.264C500.806 147.616 500.998 147.925 501.126 148.192L500.022 148.784C499.905 148.517 499.723 148.203 499.478 147.84C499.243 147.477 499.003 147.147 498.758 146.848ZM512.726 148.608V151.248H518.79V148.608H512.726ZM511.27 147.152H520.342V152.704H511.27V147.152ZM508.998 154.24H514.87V161.232H513.366V155.696H510.422V161.344H508.998V154.24ZM516.454 154.24H522.598V161.264H521.078V155.696H517.894V161.344H516.454V154.24ZM509.638 159.056H513.99V160.512H509.638V159.056ZM517.158 159.056H521.798V160.512H517.158V159.056ZM525.798 149.712H530.214V150.864H525.798V149.712ZM525.798 152.08H530.262V153.232H525.798V152.08ZM527.494 148.096H528.662V155.36H527.494V148.096ZM527.862 156.4L528.454 156.192C528.614 156.523 528.774 156.885 528.934 157.28C529.094 157.664 529.211 157.989 529.286 158.256L528.662 158.512C528.577 158.224 528.459 157.883 528.31 157.488C528.161 157.093 528.011 156.731 527.862 156.4ZM526.918 156.624L527.574 156.496C527.691 156.912 527.803 157.365 527.91 157.856C528.017 158.336 528.091 158.752 528.134 159.104L527.446 159.248C527.403 158.885 527.334 158.464 527.238 157.984C527.142 157.493 527.035 157.04 526.918 156.624ZM525.958 156.768L526.646 156.688C526.699 157.157 526.742 157.664 526.774 158.208C526.806 158.752 526.822 159.221 526.822 159.616L526.102 159.696C526.113 159.301 526.102 158.832 526.07 158.288C526.049 157.744 526.011 157.237 525.958 156.768ZM524.902 156.464L525.718 156.736C525.675 157.088 525.622 157.483 525.558 157.92C525.494 158.347 525.419 158.768 525.334 159.184C525.259 159.6 525.169 159.963 525.062 160.272L524.198 159.952C524.315 159.643 524.417 159.285 524.502 158.88C524.587 158.464 524.662 158.043 524.726 157.616C524.801 157.189 524.859 156.805 524.902 156.464ZM529.382 154.528H530.582C530.582 154.528 530.582 154.597 530.582 154.736C530.582 154.864 530.582 154.965 530.582 155.04C530.539 156.341 530.497 157.387 530.454 158.176C530.411 158.965 530.353 159.563 530.278 159.968C530.214 160.363 530.129 160.64 530.022 160.8C529.905 160.949 529.777 161.056 529.638 161.12C529.51 161.184 529.355 161.227 529.174 161.248C529.014 161.28 528.817 161.296 528.582 161.296C528.358 161.296 528.123 161.291 527.878 161.28C527.867 161.109 527.83 160.912 527.766 160.688C527.713 160.475 527.643 160.293 527.558 160.144C527.782 160.165 527.985 160.176 528.166 160.176C528.358 160.187 528.497 160.192 528.582 160.192C528.667 160.192 528.742 160.181 528.806 160.16C528.87 160.139 528.929 160.091 528.982 160.016C529.057 159.909 529.115 159.68 529.158 159.328C529.201 158.965 529.238 158.421 529.27 157.696C529.313 156.96 529.35 155.979 529.382 154.752V154.528ZM530.518 147.168V148.416H526.246V154.528H530.022V155.776H525.046V147.168H530.518ZM532.15 153.312V155.12H533.366V153.312H532.15ZM531.142 152.32H534.438V156.128H531.142V152.32ZM536.118 153.312V155.12H537.414V153.312H536.118ZM535.094 152.32H538.502V156.128H535.094V152.32ZM532.246 156.528L533.542 156.768C533.339 157.696 533.035 158.56 532.63 159.36C532.235 160.16 531.766 160.827 531.222 161.36C531.158 161.285 531.062 161.195 530.934 161.088C530.817 160.981 530.689 160.875 530.55 160.768C530.422 160.661 530.31 160.576 530.214 160.512C530.726 160.043 531.153 159.467 531.494 158.784C531.846 158.091 532.097 157.339 532.246 156.528ZM532.406 150.064H537.174V151.232H532.406V150.064ZM532.134 158.736L532.886 157.84C533.227 158.043 533.59 158.288 533.974 158.576C534.358 158.853 534.651 159.104 534.854 159.328L534.086 160.32C533.883 160.096 533.59 159.835 533.206 159.536C532.833 159.227 532.475 158.96 532.134 158.736ZM536.214 156.464L537.574 156.688C537.403 157.648 537.131 158.533 536.758 159.344C536.385 160.144 535.931 160.811 535.398 161.344C535.323 161.269 535.217 161.179 535.078 161.072C534.95 160.965 534.811 160.859 534.662 160.752C534.523 160.645 534.395 160.56 534.278 160.496C534.79 160.027 535.206 159.445 535.526 158.752C535.846 158.048 536.075 157.285 536.214 156.464ZM535.862 159.152L536.71 158.224C536.987 158.395 537.275 158.592 537.574 158.816C537.883 159.04 538.171 159.264 538.438 159.488C538.715 159.701 538.939 159.899 539.11 160.08L538.198 161.12C538.038 160.928 537.825 160.715 537.558 160.48C537.302 160.245 537.019 160.011 536.71 159.776C536.411 159.541 536.129 159.333 535.862 159.152ZM534.422 146.32L535.814 146.768C535.291 147.675 534.619 148.517 533.798 149.296C532.977 150.075 532.086 150.747 531.126 151.312C531.062 151.216 530.971 151.109 530.854 150.992C530.747 150.864 530.63 150.741 530.502 150.624C530.385 150.507 530.278 150.416 530.182 150.352C530.79 150.021 531.361 149.637 531.894 149.2C532.438 148.763 532.923 148.299 533.35 147.808C533.787 147.307 534.145 146.811 534.422 146.32ZM535.046 146.784C535.355 147.157 535.739 147.541 536.198 147.936C536.667 148.331 537.169 148.693 537.702 149.024C538.246 149.355 538.763 149.632 539.254 149.856C539.179 149.963 539.099 150.101 539.014 150.272C538.939 150.443 538.87 150.613 538.806 150.784C538.742 150.944 538.689 151.083 538.646 151.2C538.113 150.901 537.553 150.544 536.966 150.128C536.39 149.712 535.846 149.269 535.334 148.8C534.822 148.331 534.39 147.872 534.038 147.424L535.046 146.784ZM546.47 147.056H549.238V148.256H546.47V147.056ZM548.886 147.056H549.126L549.382 147.008L550.262 147.296C550.07 148.235 549.793 149.104 549.43 149.904C549.067 150.693 548.641 151.392 548.15 152C547.659 152.608 547.115 153.115 546.518 153.52C546.422 153.371 546.283 153.195 546.102 152.992C545.931 152.789 545.771 152.629 545.622 152.512C546.123 152.192 546.593 151.765 547.03 151.232C547.478 150.699 547.862 150.091 548.182 149.408C548.513 148.725 548.747 148.016 548.886 147.28V147.056ZM545.958 149.776L546.758 148.816C547.067 148.987 547.387 149.189 547.718 149.424C548.049 149.648 548.31 149.851 548.502 150.032L547.654 151.104C547.483 150.912 547.233 150.693 546.902 150.448C546.571 150.192 546.257 149.968 545.958 149.776ZM547.702 157.536L548.998 157.184C549.222 157.525 549.419 157.909 549.59 158.336C549.771 158.752 549.889 159.109 549.942 159.408L548.566 159.808C548.523 159.509 548.422 159.147 548.262 158.72C548.102 158.283 547.915 157.888 547.702 157.536ZM551.798 146.608C551.99 147.397 552.251 148.16 552.582 148.896C552.923 149.621 553.329 150.277 553.798 150.864C554.278 151.451 554.817 151.915 555.414 152.256C555.233 152.384 555.041 152.56 554.838 152.784C554.646 152.997 554.491 153.189 554.374 153.36C553.734 152.933 553.163 152.389 552.662 151.728C552.171 151.056 551.75 150.304 551.398 149.472C551.057 148.64 550.769 147.765 550.534 146.848L551.798 146.608ZM553.222 146.848L554.118 147.664C553.83 147.941 553.521 148.203 553.19 148.448C552.87 148.693 552.577 148.907 552.31 149.088L551.542 148.336C551.798 148.144 552.086 147.904 552.406 147.616C552.737 147.317 553.009 147.061 553.222 146.848ZM554.246 148.704L555.126 149.536C554.806 149.792 554.465 150.032 554.102 150.256C553.75 150.48 553.43 150.672 553.142 150.832L552.422 150.08C552.699 149.92 553.014 149.701 553.366 149.424C553.729 149.147 554.022 148.907 554.246 148.704ZM548.438 150.992H552.486V152.208H548.438V150.992ZM545.926 159.744H555.046V160.96H545.926V159.744ZM548.55 154.304V155.904H552.294V154.304H548.55ZM547.254 153.136H553.67V157.072H547.254V153.136ZM551.91 157.104L553.398 157.472C553.163 157.941 552.918 158.421 552.662 158.912C552.406 159.392 552.171 159.803 551.958 160.144L550.79 159.824C550.929 159.568 551.067 159.28 551.206 158.96C551.345 158.64 551.478 158.32 551.606 158C551.734 157.669 551.835 157.371 551.91 157.104ZM540.95 151.344H545.318V152.528H540.95V151.344ZM540.95 153.488H545.318V154.656H540.95V153.488ZM540.342 149.184H545.814V150.4H540.342V149.184ZM541.526 155.648H545.398V160.416H541.526V159.168H544.198V156.88H541.526V155.648ZM540.934 155.648H542.102V161.136H540.934V155.648ZM541.878 147.008L542.918 146.368C543.153 146.688 543.387 147.045 543.622 147.44C543.857 147.824 544.043 148.16 544.182 148.448L543.094 149.2C542.987 148.912 542.817 148.56 542.582 148.144C542.347 147.717 542.113 147.339 541.878 147.008Z" fill="white"/>
<g filter="url(#filter5_d_1222_43520)">
<path d="M732.5 127H620C614.477 127 610 131.477 610 137V169C610 174.523 614.477 179 620 179H732.5C738.023 179 742.5 174.523 742.5 169V137C742.5 131.477 738.023 127 732.5 127Z" fill="url(#paint5_linear_1222_43520)"/>
</g>
<path d="M637.77 147.776L638.602 146.672C638.943 146.8 639.306 146.96 639.69 147.152C640.074 147.344 640.442 147.541 640.794 147.744C641.146 147.947 641.434 148.139 641.658 148.32L640.778 149.568C640.565 149.376 640.287 149.173 639.946 148.96C639.615 148.736 639.258 148.523 638.874 148.32C638.49 148.107 638.122 147.925 637.77 147.776ZM636.874 152.096L637.674 150.976C638.015 151.104 638.378 151.259 638.762 151.44C639.146 151.621 639.509 151.813 639.85 152.016C640.191 152.208 640.474 152.395 640.698 152.576L639.85 153.84C639.637 153.659 639.359 153.461 639.018 153.248C638.687 153.035 638.33 152.827 637.946 152.624C637.573 152.421 637.215 152.245 636.874 152.096ZM637.418 160.128C637.706 159.723 638.026 159.237 638.378 158.672C638.73 158.107 639.087 157.509 639.45 156.88C639.813 156.24 640.154 155.616 640.474 155.008L641.578 156.016C641.301 156.571 640.997 157.152 640.666 157.76C640.346 158.357 640.015 158.944 639.674 159.52C639.343 160.096 639.018 160.64 638.698 161.152L637.418 160.128ZM645.69 146.496H647.21V154.064H645.69V146.496ZM641.69 153.136H651.274V154.56H641.69V153.136ZM642.362 149.088H650.65V150.512H642.362V149.088ZM647.466 156.672L648.698 156.08C649.071 156.549 649.439 157.056 649.802 157.6C650.165 158.144 650.49 158.683 650.778 159.216C651.077 159.749 651.301 160.229 651.45 160.656L650.106 161.344C649.978 160.917 649.775 160.437 649.498 159.904C649.221 159.36 648.906 158.805 648.554 158.24C648.202 157.675 647.839 157.152 647.466 156.672ZM642.522 160.864L642.458 159.664L643.274 159.168L649.546 158.464C649.546 158.667 649.557 158.901 649.578 159.168C649.599 159.424 649.621 159.632 649.642 159.792C648.469 159.941 647.482 160.064 646.682 160.16C645.882 160.267 645.226 160.352 644.714 160.416C644.213 160.491 643.818 160.549 643.53 160.592C643.253 160.645 643.034 160.693 642.874 160.736C642.725 160.779 642.607 160.821 642.522 160.864ZM642.522 160.864C642.49 160.757 642.442 160.613 642.378 160.432C642.325 160.251 642.261 160.064 642.186 159.872C642.122 159.669 642.058 159.499 641.994 159.36C642.165 159.317 642.33 159.205 642.49 159.024C642.65 158.843 642.831 158.603 643.034 158.304C643.141 158.165 643.29 157.936 643.482 157.616C643.674 157.285 643.887 156.896 644.122 156.448C644.357 156 644.591 155.52 644.826 155.008C645.061 154.485 645.269 153.963 645.45 153.44L647.082 153.952C646.762 154.688 646.405 155.424 646.01 156.16C645.615 156.896 645.205 157.589 644.778 158.24C644.362 158.891 643.946 159.483 643.53 160.016V160.048C643.53 160.048 643.477 160.075 643.37 160.128C643.274 160.181 643.157 160.251 643.018 160.336C642.89 160.432 642.773 160.523 642.666 160.608C642.57 160.704 642.522 160.789 642.522 160.864ZM653.146 147.264H658.506V148.544H653.146V147.264ZM659.418 155.456H666.17V156.736H659.418V155.456ZM652.938 152.112H658.938V153.456H652.938V152.112ZM655.674 152.656H657.098V159.664C657.098 160.016 657.055 160.299 656.97 160.512C656.895 160.736 656.735 160.912 656.49 161.04C656.266 161.147 655.978 161.211 655.626 161.232C655.285 161.264 654.869 161.28 654.378 161.28C654.346 161.077 654.287 160.837 654.202 160.56C654.117 160.293 654.026 160.059 653.93 159.856C654.261 159.867 654.565 159.877 654.842 159.888C655.119 159.888 655.311 159.883 655.418 159.872C655.514 159.861 655.578 159.845 655.61 159.824C655.653 159.792 655.674 159.728 655.674 159.632V152.656ZM665.674 155.456H667.21C667.21 155.456 667.205 155.536 667.194 155.696C667.183 155.845 667.173 155.973 667.162 156.08C667.066 157.04 666.965 157.835 666.858 158.464C666.762 159.083 666.655 159.568 666.538 159.92C666.421 160.272 666.282 160.533 666.122 160.704C665.962 160.864 665.797 160.976 665.626 161.04C665.455 161.104 665.258 161.152 665.034 161.184C664.842 161.205 664.586 161.216 664.266 161.216C663.957 161.216 663.615 161.211 663.242 161.2C663.231 160.987 663.189 160.747 663.114 160.48C663.039 160.213 662.949 159.984 662.842 159.792C663.162 159.824 663.455 159.845 663.722 159.856C663.999 159.867 664.202 159.872 664.33 159.872C664.458 159.872 664.559 159.861 664.634 159.84C664.719 159.819 664.799 159.771 664.874 159.696C664.981 159.589 665.082 159.392 665.178 159.104C665.274 158.805 665.359 158.379 665.434 157.824C665.519 157.269 665.599 156.555 665.674 155.68V155.456ZM662.186 153.936H663.706C663.631 154.757 663.514 155.536 663.354 156.272C663.194 157.008 662.949 157.696 662.618 158.336C662.287 158.965 661.829 159.536 661.242 160.048C660.666 160.56 659.914 160.997 658.986 161.36C658.901 161.179 658.773 160.971 658.602 160.736C658.431 160.501 658.266 160.315 658.106 160.176C658.938 159.877 659.605 159.509 660.106 159.072C660.618 158.635 661.013 158.149 661.29 157.616C661.578 157.083 661.786 156.507 661.914 155.888C662.042 155.269 662.133 154.619 662.186 153.936ZM653.626 150.224L654.57 149.248C655.018 149.419 655.482 149.627 655.962 149.872C656.453 150.107 656.917 150.357 657.354 150.624C657.802 150.88 658.17 151.125 658.458 151.36L657.45 152.448C657.183 152.213 656.831 151.963 656.394 151.696C655.967 151.419 655.509 151.152 655.018 150.896C654.538 150.629 654.074 150.405 653.626 150.224ZM658.554 152.112H658.762L658.97 152.048L659.898 152.352C659.749 153.056 659.562 153.776 659.338 154.512C659.125 155.237 658.901 155.861 658.666 156.384L657.626 155.872C657.807 155.424 657.983 154.875 658.154 154.224C658.325 153.563 658.458 152.939 658.554 152.352V152.112ZM664.954 148.768L666.538 149.008C666.175 149.989 665.674 150.827 665.034 151.52C664.405 152.213 663.663 152.795 662.81 153.264C661.957 153.733 661.013 154.123 659.978 154.432C659.925 154.325 659.839 154.192 659.722 154.032C659.615 153.872 659.498 153.717 659.37 153.568C659.253 153.408 659.141 153.28 659.034 153.184C660.026 152.949 660.917 152.645 661.706 152.272C662.506 151.888 663.183 151.408 663.738 150.832C664.293 150.245 664.698 149.557 664.954 148.768ZM661.642 146.48L663.066 146.88C662.81 147.445 662.506 147.995 662.154 148.528C661.802 149.061 661.423 149.563 661.018 150.032C660.623 150.491 660.223 150.896 659.818 151.248C659.722 151.163 659.599 151.067 659.45 150.96C659.301 150.843 659.146 150.736 658.986 150.64C658.837 150.533 658.698 150.448 658.57 150.384C659.199 149.915 659.786 149.339 660.33 148.656C660.885 147.963 661.322 147.237 661.642 146.48ZM661.578 149.136C661.951 149.797 662.447 150.4 663.066 150.944C663.685 151.477 664.399 151.936 665.21 152.32C666.031 152.704 666.911 152.997 667.85 153.2C667.743 153.296 667.626 153.419 667.498 153.568C667.381 153.717 667.269 153.872 667.162 154.032C667.055 154.192 666.965 154.341 666.89 154.48C665.909 154.224 665.002 153.867 664.17 153.408C663.338 152.939 662.597 152.379 661.946 151.728C661.295 151.077 660.751 150.352 660.314 149.552L661.578 149.136ZM655.498 152.56L656.506 152.944C656.303 153.648 656.047 154.373 655.738 155.12C655.429 155.856 655.082 156.544 654.698 157.184C654.325 157.813 653.914 158.336 653.466 158.752C653.402 158.539 653.295 158.299 653.146 158.032C652.997 157.755 652.858 157.515 652.73 157.312C653.125 156.96 653.498 156.528 653.85 156.016C654.202 155.493 654.522 154.933 654.81 154.336C655.098 153.739 655.327 153.147 655.498 152.56ZM661.418 148.144H667.482V149.424H660.81L661.418 148.144ZM658.138 147.264H658.474L658.714 147.2L659.674 147.808C659.439 148.181 659.151 148.565 658.81 148.96C658.469 149.355 658.106 149.723 657.722 150.064C657.338 150.405 656.954 150.704 656.57 150.96C656.442 150.843 656.277 150.715 656.074 150.576C655.882 150.437 655.711 150.32 655.562 150.224C655.903 149.989 656.239 149.717 656.57 149.408C656.901 149.099 657.205 148.779 657.482 148.448C657.759 148.117 657.978 147.813 658.138 147.536V147.264ZM669.658 147.2H678.442V148.672H669.658V147.2ZM681.258 151.776H681.562L681.866 151.696L682.954 152.16C682.602 153.515 682.117 154.704 681.498 155.728C680.89 156.752 680.17 157.637 679.338 158.384C678.506 159.131 677.583 159.755 676.57 160.256C675.567 160.768 674.495 161.184 673.354 161.504C673.29 161.365 673.21 161.205 673.114 161.024C673.018 160.853 672.911 160.683 672.794 160.512C672.687 160.352 672.581 160.219 672.474 160.112C673.519 159.867 674.511 159.52 675.45 159.072C676.389 158.624 677.242 158.069 678.01 157.408C678.789 156.747 679.455 155.973 680.01 155.088C680.565 154.192 680.981 153.184 681.258 152.064V151.776ZM672.362 147.76H673.93V150.048C673.93 150.677 673.903 151.355 673.85 152.08C673.807 152.805 673.711 153.557 673.562 154.336C673.413 155.104 673.189 155.877 672.89 156.656C672.591 157.435 672.197 158.203 671.706 158.96C671.215 159.707 670.597 160.416 669.85 161.088C669.775 160.949 669.674 160.795 669.546 160.624C669.418 160.464 669.279 160.304 669.13 160.144C668.991 159.995 668.863 159.877 668.746 159.792C669.578 159.045 670.234 158.251 670.714 157.408C671.205 156.555 671.567 155.696 671.802 154.832C672.037 153.957 672.186 153.115 672.25 152.304C672.325 151.483 672.362 150.725 672.362 150.032V147.76ZM678.074 147.2H679.674C679.557 147.787 679.429 148.4 679.29 149.04C679.151 149.68 679.013 150.299 678.874 150.896C678.735 151.483 678.607 152 678.49 152.448H676.778C676.927 151.989 677.082 151.461 677.242 150.864C677.402 150.256 677.551 149.637 677.69 149.008C677.839 148.368 677.967 147.765 678.074 147.2ZM673.29 151.776H681.626V153.2H673.018L673.29 151.776ZM675.45 152.672C676.101 154.485 677.114 156.027 678.49 157.296C679.866 158.565 681.615 159.445 683.738 159.936C683.631 160.053 683.509 160.192 683.37 160.352C683.242 160.523 683.114 160.699 682.986 160.88C682.869 161.061 682.773 161.227 682.698 161.376C681.237 160.96 679.951 160.368 678.842 159.6C677.743 158.832 676.805 157.899 676.026 156.8C675.258 155.691 674.623 154.432 674.122 153.024L675.45 152.672ZM687.242 154.656H697.37V161.312H695.818V155.872H688.73V161.344H687.242V154.656ZM688.122 157.12H696.362V158.256H688.122V157.12ZM686.778 147.76H691.882V148.96H686.778V147.76ZM684.986 150.288H692.282V151.488H684.986V150.288ZM688.122 159.552H696.362V160.768H688.122V159.552ZM688.202 148.144H689.642V149.824C689.642 150.208 689.594 150.629 689.498 151.088C689.402 151.547 689.221 152.011 688.954 152.48C688.698 152.949 688.314 153.408 687.802 153.856C687.29 154.293 686.618 154.704 685.786 155.088C685.69 154.928 685.546 154.747 685.354 154.544C685.173 154.341 684.997 154.181 684.826 154.064C685.615 153.755 686.234 153.419 686.682 153.056C687.141 152.693 687.477 152.32 687.69 151.936C687.903 151.541 688.042 151.163 688.106 150.8C688.17 150.437 688.202 150.101 688.202 149.792V148.144ZM686.714 146.416L688.074 146.704C687.871 147.397 687.594 148.064 687.242 148.704C686.89 149.344 686.517 149.883 686.122 150.32C686.037 150.256 685.919 150.176 685.77 150.08C685.631 149.984 685.482 149.893 685.322 149.808C685.173 149.723 685.039 149.653 684.922 149.6C685.338 149.205 685.695 148.725 685.994 148.16C686.303 147.595 686.543 147.013 686.714 146.416ZM689.306 151.6C689.455 151.675 689.669 151.792 689.946 151.952C690.223 152.101 690.511 152.267 690.81 152.448C691.119 152.629 691.407 152.8 691.674 152.96C691.941 153.12 692.127 153.237 692.234 153.312L691.178 154.304C691.029 154.176 690.826 154.021 690.57 153.84C690.314 153.659 690.047 153.467 689.77 153.264C689.493 153.051 689.221 152.853 688.954 152.672C688.698 152.491 688.479 152.347 688.298 152.24L689.306 151.6ZM694.314 149.088V152.192H697.242V149.088H694.314ZM692.906 147.744H698.746V153.552H692.906V147.744ZM707.85 150.288H715.706V151.696H707.85V150.288ZM712.282 146.544H713.786V159.552C713.786 159.957 713.733 160.277 713.626 160.512C713.53 160.747 713.354 160.928 713.098 161.056C712.853 161.173 712.533 161.253 712.138 161.296C711.743 161.339 711.247 161.36 710.65 161.36C710.618 161.157 710.549 160.907 710.442 160.608C710.335 160.32 710.223 160.075 710.106 159.872C710.533 159.883 710.911 159.893 711.242 159.904C711.583 159.904 711.818 159.899 711.946 159.888C712.074 159.888 712.159 159.867 712.202 159.824C712.255 159.771 712.282 159.68 712.282 159.552V146.544ZM712.058 150.88L713.274 151.248C712.933 152.261 712.511 153.243 712.01 154.192C711.509 155.141 710.954 156.011 710.346 156.8C709.749 157.589 709.119 158.261 708.458 158.816C708.341 158.645 708.181 158.453 707.978 158.24C707.775 158.016 707.594 157.835 707.434 157.696C707.914 157.355 708.378 156.933 708.826 156.432C709.285 155.931 709.711 155.381 710.106 154.784C710.511 154.176 710.879 153.541 711.21 152.88C711.541 152.208 711.823 151.541 712.058 150.88ZM702.666 157.536L704.122 157.904C703.877 158.565 703.551 159.205 703.146 159.824C702.751 160.443 702.341 160.96 701.914 161.376C701.829 161.291 701.711 161.189 701.562 161.072C701.413 160.955 701.258 160.843 701.098 160.736C700.938 160.629 700.805 160.544 700.698 160.48C701.114 160.117 701.493 159.675 701.834 159.152C702.186 158.629 702.463 158.091 702.666 157.536ZM704.906 158.08L706.122 157.52C706.474 157.915 706.815 158.352 707.146 158.832C707.477 159.312 707.722 159.733 707.882 160.096L706.602 160.768C706.442 160.395 706.202 159.957 705.882 159.456C705.562 158.944 705.237 158.485 704.906 158.08ZM703.05 151.28V153.088H705.898V151.28H703.05ZM703.05 154.24V156.064H705.898V154.24H703.05ZM703.05 148.336V150.128H705.898V148.336H703.05ZM701.626 147.12H707.402V157.296H701.626V147.12Z" fill="white"/>
<g filter="url(#filter6_d_1222_43520)">
<path d="M885 127H772.5C766.977 127 762.5 131.477 762.5 137V169C762.5 174.523 766.977 179 772.5 179H885C890.523 179 895 174.523 895 169V137C895 131.477 890.523 127 885 127Z" fill="url(#paint6_linear_1222_43520)"/>
</g>
<path d="M819.79 147.44H827.63V148.88H819.79V147.44ZM824.206 152.304H825.742V159.504C825.742 159.941 825.683 160.277 825.566 160.512C825.459 160.757 825.251 160.939 824.942 161.056C824.643 161.173 824.243 161.243 823.742 161.264C823.251 161.285 822.627 161.296 821.87 161.296C821.838 161.083 821.774 160.832 821.678 160.544C821.593 160.256 821.497 160.005 821.39 159.792C821.742 159.803 822.083 159.813 822.414 159.824C822.745 159.824 823.033 159.824 823.278 159.824C823.523 159.824 823.694 159.819 823.79 159.808C823.95 159.808 824.057 159.787 824.11 159.744C824.174 159.691 824.206 159.605 824.206 159.488V152.304ZM819.102 151.856H828.078V153.296H819.102V151.856ZM815.726 153.376L817.054 152.048L817.246 152.128V161.376H815.726V153.376ZM817.566 149.936L818.99 150.48C818.585 151.173 818.11 151.861 817.566 152.544C817.022 153.227 816.457 153.872 815.87 154.48C815.283 155.088 814.702 155.621 814.126 156.08C814.062 155.973 813.966 155.84 813.838 155.68C813.71 155.509 813.577 155.344 813.438 155.184C813.31 155.013 813.193 154.88 813.086 154.784C813.63 154.4 814.174 153.947 814.718 153.424C815.273 152.901 815.795 152.341 816.286 151.744C816.777 151.147 817.203 150.544 817.566 149.936ZM816.926 146.48L818.382 147.088C818.019 147.568 817.598 148.059 817.118 148.56C816.638 149.051 816.142 149.525 815.63 149.984C815.118 150.432 814.611 150.832 814.11 151.184C814.046 151.067 813.961 150.933 813.854 150.784C813.758 150.624 813.657 150.469 813.55 150.32C813.443 150.171 813.342 150.048 813.246 149.952C813.694 149.653 814.147 149.307 814.606 148.912C815.075 148.517 815.513 148.107 815.918 147.68C816.323 147.253 816.659 146.853 816.926 146.48ZM842.622 146.896L844.03 147.424C843.774 147.968 843.497 148.512 843.198 149.056C842.91 149.6 842.633 150.069 842.366 150.464L841.102 149.952C841.273 149.675 841.454 149.36 841.646 149.008C841.838 148.656 842.019 148.293 842.19 147.92C842.361 147.547 842.505 147.205 842.622 146.896ZM835.598 147.568L836.814 146.992C837.038 147.291 837.251 147.616 837.454 147.968C837.667 148.32 837.854 148.667 838.014 149.008C838.185 149.339 838.307 149.643 838.382 149.92L837.07 150.576C837.006 150.299 836.894 149.989 836.734 149.648C836.585 149.296 836.409 148.939 836.206 148.576C836.014 148.213 835.811 147.877 835.598 147.568ZM842.094 151.024H843.518V159.6C843.518 159.973 843.47 160.272 843.374 160.496C843.289 160.72 843.113 160.891 842.846 161.008C842.59 161.125 842.254 161.195 841.838 161.216C841.433 161.248 840.926 161.264 840.318 161.264C840.297 161.061 840.243 160.821 840.158 160.544C840.073 160.267 839.982 160.032 839.886 159.84C840.302 159.861 840.686 159.877 841.038 159.888C841.401 159.888 841.646 159.883 841.774 159.872C841.902 159.861 841.987 159.835 842.03 159.792C842.073 159.749 842.094 159.675 842.094 159.568V151.024ZM839.038 146.496H840.478V151.952H839.038V146.496ZM836.574 151.024H842.414V152.336H836.574V151.024ZM836.014 151.024H837.422V155.68C837.422 156.277 837.395 156.923 837.342 157.616C837.299 158.309 837.198 158.992 837.038 159.664C836.889 160.325 836.659 160.912 836.35 161.424C836.265 161.339 836.147 161.237 835.998 161.12C835.859 161.013 835.715 160.907 835.566 160.8C835.417 160.693 835.283 160.619 835.166 160.576C835.433 160.107 835.625 159.595 835.742 159.04C835.859 158.475 835.934 157.904 835.966 157.328C835.998 156.741 836.014 156.192 836.014 155.68V151.024ZM837.342 156.912C837.801 156.827 838.323 156.72 838.91 156.592C839.497 156.453 840.121 156.309 840.782 156.16C841.443 156.011 842.105 155.861 842.766 155.712L842.91 156.896C842.025 157.131 841.134 157.36 840.238 157.584C839.353 157.808 838.542 158.011 837.806 158.192L837.342 156.912ZM837.598 154.192L838.206 153.248C838.601 153.333 839.017 153.44 839.454 153.568C839.902 153.685 840.329 153.824 840.734 153.984C841.139 154.133 841.475 154.283 841.742 154.432L841.102 155.488C840.846 155.328 840.521 155.168 840.126 155.008C839.731 154.848 839.31 154.693 838.862 154.544C838.425 154.395 838.003 154.277 837.598 154.192ZM830.478 150.528H834.51V151.808H830.478V150.528ZM829.502 153.312H835.118V154.608H829.502V153.312ZM829.614 155.6L830.638 155.344C830.777 155.792 830.905 156.283 831.022 156.816C831.15 157.349 831.246 157.808 831.31 158.192L830.222 158.496C830.179 158.101 830.099 157.637 829.982 157.104C829.865 156.56 829.742 156.059 829.614 155.6ZM829.294 159.456C829.774 159.371 830.334 159.275 830.974 159.168C831.614 159.061 832.297 158.944 833.022 158.816C833.758 158.677 834.494 158.539 835.23 158.4L835.31 159.536C834.307 159.76 833.305 159.984 832.302 160.208C831.31 160.443 830.419 160.645 829.63 160.816L829.294 159.456ZM834.238 155.168L835.406 155.488C835.257 155.968 835.097 156.469 834.926 156.992C834.766 157.504 834.617 157.936 834.478 158.288L833.534 158C833.619 157.744 833.705 157.451 833.79 157.12C833.886 156.779 833.977 156.437 834.062 156.096C834.147 155.755 834.206 155.445 834.238 155.168ZM831.87 151.072H833.198V159.568L831.87 159.808V151.072ZM832.174 146.448L833.502 146.896C833.225 147.525 832.889 148.144 832.494 148.752C832.099 149.36 831.678 149.931 831.23 150.464C830.782 150.997 830.323 151.472 829.854 151.888C829.811 151.771 829.747 151.616 829.662 151.424C829.587 151.232 829.502 151.04 829.406 150.848C829.31 150.645 829.219 150.485 829.134 150.368C829.742 149.888 830.313 149.307 830.846 148.624C831.39 147.931 831.833 147.205 832.174 146.448ZM831.966 148.112L832.782 147.104C833.113 147.371 833.465 147.669 833.838 148C834.222 148.32 834.585 148.635 834.926 148.944C835.278 149.243 835.566 149.504 835.79 149.728L834.942 150.896C834.729 150.651 834.446 150.368 834.094 150.048C833.753 149.717 833.395 149.381 833.022 149.04C832.649 148.699 832.297 148.389 831.966 148.112Z" fill="white"/>
<g filter="url(#filter7_d_1222_43520)">
<path d="M1037.5 127H925C919.477 127 915 131.477 915 137V169C915 174.523 919.477 179 925 179H1037.5C1043.02 179 1047.5 174.523 1047.5 169V137C1047.5 131.477 1043.02 127 1037.5 127Z" fill="url(#paint7_linear_1222_43520)"/>
</g>
<path d="M950.658 154.176H956.642V161.248H955.154V155.488H952.082V161.344H950.658V154.176ZM957.858 154.176H963.97V161.248H962.45V155.488H959.314V161.344H957.858V154.176ZM954.258 150.736V151.984H960.21V150.736H954.258ZM954.258 148.336V149.552H960.21V148.336H954.258ZM952.786 147.072H961.73V153.248H952.786V147.072ZM951.394 156.832H955.762V158H951.394V156.832ZM951.378 159.488H955.794V160.784H951.378V159.488ZM958.642 156.832H963.138V158H958.642V156.832ZM958.626 159.488H963.122V160.784H958.626V159.488ZM971.33 150.112V150.88H975.074V150.112H971.33ZM970.082 149.36H976.386V151.648H970.082V149.36ZM970.69 154.304V154.944H975.682V154.304H970.69ZM970.69 155.68V156.352H975.682V155.68H970.69ZM970.69 152.928V153.568H975.682V152.928H970.69ZM969.41 152.16H977.026V157.12H969.41V152.16ZM971.442 157.024L972.578 157.408C972.183 157.707 971.698 158 971.122 158.288C970.557 158.565 970.018 158.795 969.506 158.976C969.442 158.901 969.357 158.811 969.25 158.704C969.143 158.597 969.031 158.496 968.914 158.4C968.807 158.293 968.706 158.208 968.61 158.144C969.133 158.005 969.655 157.84 970.178 157.648C970.701 157.456 971.122 157.248 971.442 157.024ZM973.826 157.584L974.722 157.008C975.266 157.211 975.821 157.445 976.386 157.712C976.962 157.968 977.431 158.213 977.794 158.448L976.546 158.992C976.237 158.779 975.831 158.544 975.33 158.288C974.839 158.021 974.338 157.787 973.826 157.584ZM966.482 147.216H980.018V161.392H978.514V148.576H967.922V161.392H966.482V147.216ZM967.394 159.312H979.33V160.688H967.394V159.312ZM988.466 155.648L989.634 156.176C989.229 156.539 988.759 156.885 988.226 157.216C987.693 157.536 987.117 157.829 986.498 158.096C985.879 158.352 985.245 158.581 984.594 158.784C983.943 158.987 983.293 159.152 982.642 159.28C982.557 159.12 982.434 158.928 982.274 158.704C982.114 158.48 981.959 158.304 981.81 158.176C982.439 158.069 983.069 157.936 983.698 157.776C984.338 157.616 984.951 157.429 985.538 157.216C986.135 156.992 986.685 156.752 987.186 156.496C987.687 156.229 988.114 155.947 988.466 155.648ZM990.194 155.504C990.674 156.709 991.458 157.685 992.546 158.432C993.645 159.179 995.021 159.68 996.674 159.936C996.525 160.075 996.37 160.261 996.21 160.496C996.05 160.741 995.922 160.96 995.826 161.152C994.653 160.917 993.623 160.565 992.738 160.096C991.853 159.627 991.095 159.035 990.466 158.32C989.847 157.605 989.341 156.763 988.946 155.792L990.194 155.504ZM994.658 156.4L995.746 157.2C995.234 157.541 994.674 157.872 994.066 158.192C993.469 158.512 992.914 158.784 992.402 159.008L991.474 158.256C991.815 158.096 992.178 157.909 992.562 157.696C992.957 157.483 993.335 157.264 993.698 157.04C994.071 156.816 994.391 156.603 994.658 156.4ZM982.082 155.2H996.418V156.416H982.082V155.2ZM991.202 147.296H992.562V152.576H991.202V147.296ZM994.274 146.64H995.65V153.168C995.65 153.52 995.602 153.792 995.506 153.984C995.421 154.165 995.25 154.309 994.994 154.416C994.738 154.512 994.418 154.571 994.034 154.592C993.65 154.613 993.175 154.624 992.61 154.624C992.589 154.443 992.53 154.24 992.434 154.016C992.349 153.781 992.258 153.579 992.162 153.408C992.557 153.419 992.93 153.424 993.282 153.424C993.634 153.424 993.863 153.419 993.97 153.408C994.087 153.408 994.167 153.392 994.21 153.36C994.253 153.317 994.274 153.248 994.274 153.152V146.64ZM985.538 146.496H986.834V154.672H985.538V146.496ZM988.514 151.2H989.762V153.104C989.762 153.36 989.73 153.557 989.666 153.696C989.613 153.835 989.49 153.947 989.298 154.032C989.127 154.117 988.914 154.165 988.658 154.176C988.402 154.187 988.098 154.192 987.746 154.192C987.714 154.043 987.655 153.888 987.57 153.728C987.495 153.557 987.426 153.408 987.362 153.28C987.586 153.291 987.789 153.296 987.97 153.296C988.151 153.296 988.274 153.296 988.338 153.296C988.455 153.285 988.514 153.227 988.514 153.12V151.2ZM982.786 151.2H989.026V152.176H983.954V154.272H982.786V151.2ZM982.034 149.424H990.098V150.48H982.034V149.424ZM983.746 147.584H989.602V148.608H983.33L983.746 147.584ZM983.442 146.528L984.594 146.816C984.423 147.307 984.21 147.792 983.954 148.272C983.709 148.752 983.458 149.163 983.202 149.504C983.085 149.408 982.919 149.301 982.706 149.184C982.493 149.067 982.311 148.976 982.162 148.912C982.439 148.592 982.685 148.224 982.898 147.808C983.122 147.381 983.303 146.955 983.442 146.528ZM985.074 161.392L985.01 160.368L985.57 159.92L990.05 158.96C990.029 159.141 990.007 159.344 989.986 159.568C989.975 159.781 989.97 159.963 989.97 160.112C988.957 160.347 988.141 160.539 987.522 160.688C986.914 160.837 986.445 160.955 986.114 161.04C985.794 161.125 985.559 161.189 985.41 161.232C985.261 161.285 985.149 161.339 985.074 161.392ZM985.09 161.376C985.069 161.28 985.026 161.157 984.962 161.008C984.909 160.869 984.845 160.736 984.77 160.608C984.706 160.48 984.642 160.379 984.578 160.304C984.717 160.219 984.866 160.075 985.026 159.872C985.197 159.669 985.282 159.376 985.282 158.992V157.6L986.674 157.584V159.872C986.674 159.872 986.621 159.909 986.514 159.984C986.407 160.048 986.274 160.133 986.114 160.24C985.965 160.357 985.81 160.48 985.65 160.608C985.49 160.747 985.357 160.88 985.25 161.008C985.143 161.147 985.09 161.269 985.09 161.376ZM988.322 154.272L989.73 153.872C989.89 154.128 990.045 154.416 990.194 154.736C990.343 155.045 990.45 155.317 990.514 155.552L989.026 156C988.962 155.776 988.861 155.499 988.722 155.168C988.594 154.837 988.461 154.539 988.322 154.272ZM1004.29 148.416H1011.7V149.712H1004.29V148.416ZM1002.43 151.456H1012.34V152.752H1002.43V151.456ZM1004.45 146.688L1005.83 146.992C1005.56 147.803 1005.22 148.587 1004.8 149.344C1004.4 150.091 1003.96 150.72 1003.51 151.232C1003.41 151.157 1003.29 151.077 1003.14 150.992C1002.99 150.907 1002.83 150.821 1002.67 150.736C1002.51 150.651 1002.38 150.581 1002.26 150.528C1002.74 150.059 1003.16 149.483 1003.54 148.8C1003.92 148.107 1004.23 147.403 1004.45 146.688ZM1006.72 146.496H1008.23V152.32H1006.72V146.496ZM998.482 147.184L999.602 146.496C999.858 146.752 1000.11 147.029 1000.37 147.328C1000.64 147.627 1000.89 147.915 1001.12 148.192C1001.36 148.469 1001.55 148.715 1001.7 148.928L1000.55 149.76C1000.4 149.536 1000.2 149.275 999.97 148.976C999.746 148.677 999.501 148.373 999.234 148.064C998.978 147.744 998.727 147.451 998.482 147.184ZM997.97 150.208H1001.3V151.44H997.97V150.208ZM1001.01 157.376C1001.32 158.08 1001.75 158.603 1002.29 158.944C1002.83 159.285 1003.5 159.509 1004.27 159.616C1005.06 159.723 1005.96 159.776 1006.98 159.776C1007.54 159.776 1008.17 159.765 1008.87 159.744C1009.56 159.723 1010.26 159.696 1010.96 159.664C1011.67 159.632 1012.3 159.589 1012.87 159.536C1012.79 159.643 1012.72 159.781 1012.66 159.952C1012.59 160.123 1012.54 160.299 1012.48 160.48C1012.44 160.661 1012.4 160.821 1012.37 160.96C1011.85 160.992 1011.28 161.019 1010.67 161.04C1010.07 161.061 1009.45 161.077 1008.82 161.088C1008.19 161.099 1007.57 161.104 1006.96 161.104C1006.02 161.104 1005.19 161.061 1004.45 160.976C1003.72 160.891 1003.08 160.736 1002.51 160.512C1001.96 160.288 1001.47 159.963 1001.06 159.536C1000.64 159.099 1000.28 158.523 999.986 157.808L1001.01 157.376ZM1000.87 154.144H1001.22L1001.47 154.112L1002.21 154.384C1001.94 156.112 1001.5 157.557 1000.87 158.72C1000.25 159.872 999.49 160.757 998.594 161.376C998.53 161.269 998.439 161.147 998.322 161.008C998.205 160.88 998.082 160.752 997.954 160.624C997.826 160.507 997.714 160.416 997.618 160.352C998.45 159.808 999.149 159.04 999.714 158.048C1000.28 157.045 1000.66 155.829 1000.87 154.4V154.144ZM998.226 155.584V154.464L998.85 154.144H1001.28V155.344H999.186C998.983 155.344 998.786 155.371 998.594 155.424C998.413 155.467 998.29 155.52 998.226 155.584ZM998.226 155.584C998.205 155.467 998.157 155.328 998.082 155.168C998.018 155.008 997.954 154.848 997.89 154.688C997.826 154.528 997.767 154.405 997.714 154.32C997.842 154.277 997.97 154.224 998.098 154.16C998.226 154.085 998.354 153.968 998.482 153.808C998.599 153.691 998.765 153.488 998.978 153.2C999.191 152.901 999.421 152.576 999.666 152.224C999.911 151.861 1000.14 151.515 1000.35 151.184C1000.58 150.843 1000.75 150.565 1000.88 150.352V150.304L1001.3 150.128L1002.24 150.528C1002.07 150.805 1001.86 151.131 1001.6 151.504C1001.36 151.867 1001.1 152.245 1000.82 152.64C1000.55 153.035 1000.28 153.413 1000.02 153.776C999.751 154.139 999.506 154.448 999.282 154.704C999.282 154.704 999.229 154.736 999.122 154.8C999.015 154.853 998.893 154.928 998.754 155.024C998.615 155.109 998.493 155.205 998.386 155.312C998.279 155.408 998.226 155.499 998.226 155.584ZM1005.09 155.072V157.296H1009.83V155.072H1005.09ZM1003.63 153.856H1011.36V158.512H1003.63V153.856Z" fill="white"/>
<g filter="url(#filter8_d_1222_43520)">
<path d="M1190 127H1077.5C1071.98 127 1067.5 131.477 1067.5 137V169C1067.5 174.523 1071.98 179 1077.5 179H1190C1195.52 179 1200 174.523 1200 169V137C1200 131.477 1195.52 127 1190 127Z" fill="url(#paint8_linear_1222_43520)"/>
</g>
<path d="M1106.84 154.592V155.712H1112.61V154.592H1106.84ZM1105.41 153.616H1114.1V156.688H1105.41V153.616ZM1104.34 157.504H1115.53V161.36H1114.04V158.576H1105.77V161.36H1104.34V157.504ZM1105.22 159.84H1114.66V160.944H1105.22V159.84ZM1102.98 151.68H1116.55V154.672H1115.03V152.848H1104.44V154.672H1102.98V151.68ZM1108.41 147.232L1109.64 147.664C1109.39 147.963 1109.14 148.256 1108.89 148.544C1108.64 148.832 1108.42 149.077 1108.21 149.28L1107.32 148.896C1107.51 148.661 1107.71 148.384 1107.91 148.064C1108.12 147.744 1108.29 147.467 1108.41 147.232ZM1105.49 149.776L1106.39 148.944C1106.68 149.093 1106.99 149.269 1107.32 149.472C1107.66 149.675 1107.98 149.877 1108.29 150.08C1108.6 150.272 1108.86 150.443 1109.08 150.592L1108.15 151.552C1107.95 151.392 1107.7 151.211 1107.4 151.008C1107.1 150.795 1106.78 150.581 1106.44 150.368C1106.11 150.144 1105.79 149.947 1105.49 149.776ZM1105.78 146.496H1107.11C1107.08 147.221 1107 147.867 1106.87 148.432C1106.74 148.997 1106.54 149.493 1106.26 149.92C1105.98 150.347 1105.6 150.715 1105.09 151.024C1104.6 151.323 1103.96 151.579 1103.16 151.792C1103.1 151.632 1103 151.44 1102.85 151.216C1102.7 150.992 1102.56 150.821 1102.42 150.704C1103.12 150.544 1103.68 150.347 1104.1 150.112C1104.54 149.877 1104.87 149.595 1105.09 149.264C1105.33 148.933 1105.49 148.539 1105.59 148.08C1105.69 147.621 1105.75 147.093 1105.78 146.496ZM1115.48 147.184L1116.79 147.648C1116.51 147.957 1116.24 148.261 1115.96 148.56C1115.69 148.859 1115.45 149.115 1115.24 149.328L1114.29 148.928C1114.5 148.683 1114.71 148.395 1114.93 148.064C1115.17 147.733 1115.35 147.44 1115.48 147.184ZM1112.36 149.792L1113.22 148.88C1113.6 149.061 1114 149.269 1114.44 149.504C1114.89 149.739 1115.31 149.973 1115.72 150.208C1116.13 150.443 1116.48 150.651 1116.74 150.832L1115.85 151.872C1115.59 151.691 1115.26 151.477 1114.85 151.232C1114.46 150.987 1114.04 150.736 1113.59 150.48C1113.15 150.224 1112.74 149.995 1112.36 149.792ZM1112.6 146.496H1113.97C1113.93 147.2 1113.85 147.835 1113.72 148.4C1113.6 148.955 1113.4 149.445 1113.13 149.872C1112.85 150.288 1112.46 150.645 1111.96 150.944C1111.46 151.243 1110.81 151.493 1110.02 151.696C1109.96 151.536 1109.85 151.344 1109.7 151.12C1109.55 150.885 1109.41 150.704 1109.27 150.576C1109.96 150.416 1110.52 150.224 1110.93 150C1111.36 149.776 1111.69 149.504 1111.91 149.184C1112.14 148.853 1112.31 148.469 1112.41 148.032C1112.5 147.584 1112.57 147.072 1112.6 146.496ZM1102.82 147.52L1103.73 146.848C1103.96 147.083 1104.19 147.344 1104.44 147.632C1104.69 147.909 1104.89 148.149 1105.01 148.352L1104.07 149.12C1103.94 148.907 1103.76 148.651 1103.51 148.352C1103.28 148.043 1103.05 147.765 1102.82 147.52ZM1109.64 147.456L1110.53 146.784C1110.76 147.019 1110.99 147.28 1111.24 147.568C1111.49 147.845 1111.69 148.085 1111.83 148.288L1110.87 149.056C1110.74 148.843 1110.56 148.587 1110.31 148.288C1110.08 147.979 1109.85 147.701 1109.64 147.456ZM1108.52 155.968L1109.83 156.432C1109.66 156.741 1109.49 157.045 1109.33 157.344C1109.18 157.632 1109.05 157.888 1108.92 158.112L1107.86 157.712C1107.98 157.467 1108.1 157.179 1108.23 156.848C1108.36 156.507 1108.45 156.213 1108.52 155.968ZM1126.98 148.72H1128.45V159.168H1126.98V148.72ZM1124.93 154.096V154.976H1130.55V154.096H1124.93ZM1124.93 152.304V153.168H1130.55V152.304H1124.93ZM1123.69 151.328H1131.86V155.952H1123.69V151.328ZM1122.81 147.024H1132.55V150H1131.09V148.16H1124.2V150H1122.81V147.024ZM1124.09 149.44H1131.38V150.528H1124.09V149.44ZM1122.93 156.832H1132.73V157.984H1122.93V156.832ZM1118.97 147.168L1120.12 146.496C1120.47 146.88 1120.83 147.307 1121.19 147.776C1121.56 148.235 1121.85 148.629 1122.05 148.96L1120.87 149.76C1120.74 149.525 1120.57 149.259 1120.36 148.96C1120.14 148.661 1119.92 148.357 1119.67 148.048C1119.42 147.728 1119.19 147.435 1118.97 147.168ZM1118.45 150.224H1121.83V151.456H1118.45V150.224ZM1121.49 157.376C1121.8 158.08 1122.23 158.603 1122.77 158.944C1123.32 159.285 1123.98 159.509 1124.77 159.616C1125.56 159.723 1126.47 159.776 1127.49 159.776C1128.06 159.776 1128.69 159.765 1129.38 159.744C1130.08 159.723 1130.77 159.696 1131.46 159.664C1132.17 159.632 1132.81 159.589 1133.38 159.536C1133.31 159.643 1133.24 159.781 1133.17 159.952C1133.11 160.112 1133.05 160.283 1133 160.464C1132.96 160.645 1132.92 160.805 1132.89 160.944C1132.36 160.976 1131.8 161.003 1131.19 161.024C1130.58 161.045 1129.96 161.061 1129.32 161.072C1128.69 161.083 1128.07 161.088 1127.46 161.088C1126.52 161.088 1125.69 161.045 1124.95 160.96C1124.22 160.885 1123.58 160.731 1123.01 160.496C1122.46 160.272 1121.97 159.947 1121.54 159.52C1121.13 159.083 1120.77 158.512 1120.49 157.808L1121.49 157.376ZM1121.22 154.144H1121.65L1121.91 154.112L1122.57 154.384C1122.32 156.091 1121.9 157.531 1121.32 158.704C1120.73 159.867 1120.02 160.757 1119.17 161.376C1119.11 161.28 1119.01 161.163 1118.89 161.024C1118.77 160.896 1118.65 160.768 1118.52 160.64C1118.39 160.512 1118.27 160.416 1118.17 160.352C1118.96 159.808 1119.61 159.035 1120.13 158.032C1120.66 157.029 1121.02 155.819 1121.22 154.4V154.144ZM1118.73 155.584V154.464L1119.35 154.144H1121.81L1121.8 155.344H1119.69C1119.49 155.344 1119.3 155.371 1119.11 155.424C1118.92 155.467 1118.79 155.52 1118.73 155.584ZM1118.73 155.584C1118.7 155.467 1118.66 155.328 1118.58 155.168C1118.52 155.008 1118.45 154.848 1118.39 154.688C1118.33 154.517 1118.27 154.384 1118.21 154.288C1118.34 154.256 1118.47 154.208 1118.6 154.144C1118.73 154.069 1118.86 153.957 1119 153.808C1119.13 153.691 1119.3 153.488 1119.51 153.2C1119.72 152.912 1119.95 152.587 1120.2 152.224C1120.45 151.861 1120.69 151.515 1120.92 151.184C1121.14 150.843 1121.32 150.565 1121.45 150.352V150.304L1121.86 150.128L1122.82 150.56C1122.64 150.827 1122.42 151.147 1122.17 151.52C1121.91 151.883 1121.64 152.261 1121.37 152.656C1121.09 153.051 1120.81 153.429 1120.53 153.792C1120.27 154.144 1120.02 154.448 1119.8 154.704C1119.8 154.704 1119.74 154.736 1119.64 154.8C1119.53 154.853 1119.4 154.928 1119.25 155.024C1119.12 155.109 1118.99 155.205 1118.89 155.312C1118.78 155.408 1118.73 155.499 1118.73 155.584ZM1138.41 153.68C1139.28 155.397 1140.64 156.763 1142.47 157.776C1144.3 158.789 1146.56 159.456 1149.22 159.776C1149.1 159.893 1148.99 160.037 1148.87 160.208C1148.75 160.389 1148.64 160.571 1148.52 160.752C1148.41 160.944 1148.33 161.109 1148.26 161.248C1146.43 160.981 1144.79 160.549 1143.35 159.952C1141.92 159.355 1140.68 158.581 1139.62 157.632C1138.57 156.672 1137.69 155.525 1137 154.192L1138.41 153.68ZM1135.69 152.496H1146.04V153.984H1135.69V152.496ZM1134.92 148.784H1148.52V150.288H1134.92V148.784ZM1140.92 146.496H1142.49V153.168H1140.92V146.496ZM1145.67 152.496H1145.99L1146.28 152.448L1147.33 153.056C1146.83 154.315 1146.17 155.413 1145.33 156.352C1144.51 157.28 1143.56 158.075 1142.49 158.736C1141.42 159.387 1140.26 159.92 1139 160.336C1137.74 160.763 1136.42 161.099 1135.05 161.344C1135.01 161.205 1134.94 161.045 1134.84 160.864C1134.74 160.683 1134.64 160.501 1134.53 160.32C1134.43 160.139 1134.33 159.995 1134.23 159.888C1135.56 159.696 1136.83 159.424 1138.04 159.072C1139.24 158.709 1140.35 158.251 1141.35 157.696C1142.35 157.131 1143.22 156.443 1143.96 155.632C1144.69 154.821 1145.26 153.872 1145.67 152.784V152.496ZM1155.72 150.848H1164.53V152.064H1155.72V150.848ZM1155.38 153.088H1165.01V154.352H1155.38V153.088ZM1157.53 155.232H1162.98V156.368H1157.53V155.232ZM1156.17 148.944L1157.32 148.624C1157.47 148.923 1157.61 149.253 1157.75 149.616C1157.9 149.979 1158.01 150.283 1158.09 150.528L1156.87 150.944C1156.81 150.677 1156.7 150.357 1156.57 149.984C1156.44 149.6 1156.3 149.253 1156.17 148.944ZM1159 148.624L1160.2 148.416C1160.29 148.747 1160.38 149.104 1160.47 149.488C1160.56 149.872 1160.62 150.197 1160.66 150.464L1159.38 150.752C1159.36 150.475 1159.31 150.139 1159.24 149.744C1159.16 149.339 1159.08 148.965 1159 148.624ZM1163.53 146.592L1164.39 147.712C1163.82 147.829 1163.19 147.936 1162.49 148.032C1161.79 148.128 1161.06 148.208 1160.29 148.272C1159.54 148.336 1158.77 148.389 1158.01 148.432C1157.25 148.464 1156.51 148.491 1155.8 148.512C1155.78 148.341 1155.73 148.149 1155.65 147.936C1155.59 147.712 1155.52 147.52 1155.45 147.36C1156.15 147.339 1156.87 147.307 1157.61 147.264C1158.35 147.221 1159.08 147.168 1159.8 147.104C1160.52 147.029 1161.21 146.955 1161.85 146.88C1162.5 146.795 1163.06 146.699 1163.53 146.592ZM1158.73 156.064C1159.11 156.757 1159.62 157.381 1160.25 157.936C1160.89 158.48 1161.64 158.939 1162.5 159.312C1163.37 159.675 1164.32 159.941 1165.35 160.112C1165.19 160.261 1165.02 160.459 1164.84 160.704C1164.67 160.96 1164.53 161.184 1164.44 161.376C1162.82 161.035 1161.42 160.448 1160.25 159.616C1159.07 158.773 1158.16 157.712 1157.49 156.432L1158.73 156.064ZM1162.77 148.192L1164.2 148.624C1163.91 149.115 1163.6 149.616 1163.27 150.128C1162.94 150.629 1162.64 151.061 1162.37 151.424L1161.29 151.024C1161.46 150.768 1161.63 150.475 1161.81 150.144C1162.01 149.813 1162.19 149.477 1162.36 149.136C1162.53 148.795 1162.67 148.48 1162.77 148.192ZM1162.65 155.232H1162.93L1163.19 155.2L1164.02 155.536C1163.69 156.677 1163.21 157.632 1162.58 158.4C1161.95 159.168 1161.21 159.792 1160.34 160.272C1159.49 160.752 1158.55 161.12 1157.53 161.376C1157.48 161.269 1157.41 161.141 1157.3 160.992C1157.21 160.853 1157.1 160.715 1157 160.576C1156.89 160.437 1156.8 160.331 1156.71 160.256C1157.68 160.043 1158.57 159.739 1159.37 159.344C1160.17 158.949 1160.84 158.437 1161.4 157.808C1161.96 157.168 1162.38 156.379 1162.65 155.44V155.232ZM1157.77 151.616H1159.22C1159.17 152.277 1159.09 152.965 1159 153.68C1158.91 154.384 1158.78 155.093 1158.6 155.808C1158.43 156.523 1158.19 157.216 1157.88 157.888C1157.58 158.56 1157.2 159.189 1156.73 159.776C1156.26 160.363 1155.68 160.88 1155 161.328C1154.89 161.147 1154.74 160.949 1154.55 160.736C1154.37 160.533 1154.18 160.368 1153.99 160.24C1154.63 159.856 1155.16 159.403 1155.59 158.88C1156.03 158.347 1156.38 157.776 1156.65 157.168C1156.91 156.56 1157.12 155.936 1157.27 155.296C1157.42 154.656 1157.53 154.021 1157.59 153.392C1157.66 152.763 1157.72 152.171 1157.77 151.616ZM1150.21 155.232C1150.85 155.072 1151.61 154.864 1152.49 154.608C1153.37 154.352 1154.27 154.085 1155.19 153.808L1155.38 155.184C1154.53 155.451 1153.67 155.717 1152.81 155.984C1151.95 156.251 1151.17 156.491 1150.47 156.704L1150.21 155.232ZM1150.39 149.632H1155.25V151.04H1150.39V149.632ZM1152.25 146.512H1153.65V159.68C1153.65 160.053 1153.61 160.347 1153.53 160.56C1153.44 160.773 1153.29 160.944 1153.06 161.072C1152.85 161.189 1152.57 161.264 1152.23 161.296C1151.9 161.339 1151.47 161.36 1150.95 161.36C1150.94 161.168 1150.89 160.933 1150.81 160.656C1150.73 160.389 1150.65 160.155 1150.55 159.952C1150.87 159.963 1151.16 159.968 1151.43 159.968C1151.7 159.968 1151.88 159.963 1151.97 159.952C1152.07 159.952 1152.14 159.936 1152.18 159.904C1152.22 159.861 1152.25 159.787 1152.25 159.68V146.512Z" fill="white"/>
<path fill-rule="evenodd" clip-rule="evenodd" d="M65 92H64V93V127H66V94H218V127H220V94H371V127H373V94H524V127H526V94H674V127H676V94H827V127H829V94H980V127H982V94H1134V127H1136V93V92H1135H982H981H829H828H676H675H525H524H372H371H219H218H65Z" fill="#E7E7E7"/>
<path fill-rule="evenodd" clip-rule="evenodd" d="M599 92V52H601V92H599Z" fill="#E7E7E7"/>
</g>
<defs>
<filter id="filter0_d_1222_43520" x="370" y="-12" width="461" height="92" filterUnits="userSpaceOnUse" color-interpolation-filters="sRGB">
<feFlood flood-opacity="0" result="BackgroundImageFix"/>
<feColorMatrix in="SourceAlpha" type="matrix" values="0 0 0 0 0 0 0 0 0 0 0 0 0 0 0 0 0 0 127 0" result="hardAlpha"/>
<feOffset dy="8"/>
<feGaussianBlur stdDeviation="10"/>
<feComposite in2="hardAlpha" operator="out"/>
<feColorMatrix type="matrix" values="0 0 0 0 0 0 0 0 0 0.529412 0 0 0 0 0.690196 0 0 0 0.15 0"/>
<feBlend mode="normal" in2="BackgroundImageFix" result="effect1_dropShadow_1222_43520"/>
<feBlend mode="normal" in="SourceGraphic" in2="effect1_dropShadow_1222_43520" result="shape"/>
</filter>
<filter id="filter1_d_1222_43520" x="-20" y="115" width="172.5" height="92" filterUnits="userSpaceOnUse" color-interpolation-filters="sRGB">
<feFlood flood-opacity="0" result="BackgroundImageFix"/>
<feColorMatrix in="SourceAlpha" type="matrix" values="0 0 0 0 0 0 0 0 0 0 0 0 0 0 0 0 0 0 127 0" result="hardAlpha"/>
<feOffset dy="8"/>
<feGaussianBlur stdDeviation="10"/>
<feComposite in2="hardAlpha" operator="out"/>
<feColorMatrix type="matrix" values="0 0 0 0 0 0 0 0 0 0.529412 0 0 0 0 0.690196 0 0 0 0.15 0"/>
<feBlend mode="normal" in2="BackgroundImageFix" result="effect1_dropShadow_1222_43520"/>
<feBlend mode="normal" in="SourceGraphic" in2="effect1_dropShadow_1222_43520" result="shape"/>
</filter>
<filter id="filter2_d_1222_43520" x="132.5" y="115" width="172.5" height="92" filterUnits="userSpaceOnUse" color-interpolation-filters="sRGB">
<feFlood flood-opacity="0" result="BackgroundImageFix"/>
<feColorMatrix in="SourceAlpha" type="matrix" values="0 0 0 0 0 0 0 0 0 0 0 0 0 0 0 0 0 0 127 0" result="hardAlpha"/>
<feOffset dy="8"/>
<feGaussianBlur stdDeviation="10"/>
<feComposite in2="hardAlpha" operator="out"/>
<feColorMatrix type="matrix" values="0 0 0 0 0 0 0 0 0 0.529412 0 0 0 0 0.690196 0 0 0 0.15 0"/>
<feBlend mode="normal" in2="BackgroundImageFix" result="effect1_dropShadow_1222_43520"/>
<feBlend mode="normal" in="SourceGraphic" in2="effect1_dropShadow_1222_43520" result="shape"/>
</filter>
<filter id="filter3_d_1222_43520" x="285" y="115" width="172.5" height="92" filterUnits="userSpaceOnUse" color-interpolation-filters="sRGB">
<feFlood flood-opacity="0" result="BackgroundImageFix"/>
<feColorMatrix in="SourceAlpha" type="matrix" values="0 0 0 0 0 0 0 0 0 0 0 0 0 0 0 0 0 0 127 0" result="hardAlpha"/>
<feOffset dy="8"/>
<feGaussianBlur stdDeviation="10"/>
<feComposite in2="hardAlpha" operator="out"/>
<feColorMatrix type="matrix" values="0 0 0 0 0 0 0 0 0 0.529412 0 0 0 0 0.690196 0 0 0 0.15 0"/>
<feBlend mode="normal" in2="BackgroundImageFix" result="effect1_dropShadow_1222_43520"/>
<feBlend mode="normal" in="SourceGraphic" in2="effect1_dropShadow_1222_43520" result="shape"/>
</filter>
<filter id="filter4_d_1222_43520" x="437.5" y="115" width="172.5" height="92" filterUnits="userSpaceOnUse" color-interpolation-filters="sRGB">
<feFlood flood-opacity="0" result="BackgroundImageFix"/>
<feColorMatrix in="SourceAlpha" type="matrix" values="0 0 0 0 0 0 0 0 0 0 0 0 0 0 0 0 0 0 127 0" result="hardAlpha"/>
<feOffset dy="8"/>
<feGaussianBlur stdDeviation="10"/>
<feComposite in2="hardAlpha" operator="out"/>
<feColorMatrix type="matrix" values="0 0 0 0 0 0 0 0 0 0.529412 0 0 0 0 0.690196 0 0 0 0.15 0"/>
<feBlend mode="normal" in2="BackgroundImageFix" result="effect1_dropShadow_1222_43520"/>
<feBlend mode="normal" in="SourceGraphic" in2="effect1_dropShadow_1222_43520" result="shape"/>
</filter>
<filter id="filter5_d_1222_43520" x="590" y="115" width="172.5" height="92" filterUnits="userSpaceOnUse" color-interpolation-filters="sRGB">
<feFlood flood-opacity="0" result="BackgroundImageFix"/>
<feColorMatrix in="SourceAlpha" type="matrix" values="0 0 0 0 0 0 0 0 0 0 0 0 0 0 0 0 0 0 127 0" result="hardAlpha"/>
<feOffset dy="8"/>
<feGaussianBlur stdDeviation="10"/>
<feComposite in2="hardAlpha" operator="out"/>
<feColorMatrix type="matrix" values="0 0 0 0 0 0 0 0 0 0.529412 0 0 0 0 0.690196 0 0 0 0.15 0"/>
<feBlend mode="normal" in2="BackgroundImageFix" result="effect1_dropShadow_1222_43520"/>
<feBlend mode="normal" in="SourceGraphic" in2="effect1_dropShadow_1222_43520" result="shape"/>
</filter>
<filter id="filter6_d_1222_43520" x="742.5" y="115" width="172.5" height="92" filterUnits="userSpaceOnUse" color-interpolation-filters="sRGB">
<feFlood flood-opacity="0" result="BackgroundImageFix"/>
<feColorMatrix in="SourceAlpha" type="matrix" values="0 0 0 0 0 0 0 0 0 0 0 0 0 0 0 0 0 0 127 0" result="hardAlpha"/>
<feOffset dy="8"/>
<feGaussianBlur stdDeviation="10"/>
<feComposite in2="hardAlpha" operator="out"/>
<feColorMatrix type="matrix" values="0 0 0 0 0 0 0 0 0 0.529412 0 0 0 0 0.690196 0 0 0 0.15 0"/>
<feBlend mode="normal" in2="BackgroundImageFix" result="effect1_dropShadow_1222_43520"/>
<feBlend mode="normal" in="SourceGraphic" in2="effect1_dropShadow_1222_43520" result="shape"/>
</filter>
<filter id="filter7_d_1222_43520" x="895" y="115" width="172.5" height="92" filterUnits="userSpaceOnUse" color-interpolation-filters="sRGB">
<feFlood flood-opacity="0" result="BackgroundImageFix"/>
<feColorMatrix in="SourceAlpha" type="matrix" values="0 0 0 0 0 0 0 0 0 0 0 0 0 0 0 0 0 0 127 0" result="hardAlpha"/>
<feOffset dy="8"/>
<feGaussianBlur stdDeviation="10"/>
<feComposite in2="hardAlpha" operator="out"/>
<feColorMatrix type="matrix" values="0 0 0 0 0 0 0 0 0 0.529412 0 0 0 0 0.690196 0 0 0 0.15 0"/>
<feBlend mode="normal" in2="BackgroundImageFix" result="effect1_dropShadow_1222_43520"/>
<feBlend mode="normal" in="SourceGraphic" in2="effect1_dropShadow_1222_43520" result="shape"/>
</filter>
<filter id="filter8_d_1222_43520" x="1047.5" y="115" width="172.5" height="92" filterUnits="userSpaceOnUse" color-interpolation-filters="sRGB">
<feFlood flood-opacity="0" result="BackgroundImageFix"/>
<feColorMatrix in="SourceAlpha" type="matrix" values="0 0 0 0 0 0 0 0 0 0 0 0 0 0 0 0 0 0 127 0" result="hardAlpha"/>
<feOffset dy="8"/>
<feGaussianBlur stdDeviation="10"/>
<feComposite in2="hardAlpha" operator="out"/>
<feColorMatrix type="matrix" values="0 0 0 0 0 0 0 0 0 0.529412 0 0 0 0 0.690196 0 0 0 0.15 0"/>
<feBlend mode="normal" in2="BackgroundImageFix" result="effect1_dropShadow_1222_43520"/>
<feBlend mode="normal" in="SourceGraphic" in2="effect1_dropShadow_1222_43520" result="shape"/>
</filter>
<linearGradient id="paint0_linear_1222_43520" x1="390" y1="26" x2="811" y2="26" gradientUnits="userSpaceOnUse">
<stop stop-color="#6FC7E2"/>
<stop offset="1" stop-color="#00AED4"/>
</linearGradient>
<linearGradient id="paint1_linear_1222_43520" x1="0" y1="153" x2="132.5" y2="153" gradientUnits="userSpaceOnUse">
<stop stop-color="#859FD1"/>
<stop offset="1" stop-color="#4985C6"/>
</linearGradient>
<linearGradient id="paint2_linear_1222_43520" x1="152.5" y1="153" x2="285" y2="153" gradientUnits="userSpaceOnUse">
<stop stop-color="#859FD1"/>
<stop offset="1" stop-color="#4985C6"/>
</linearGradient>
<linearGradient id="paint3_linear_1222_43520" x1="305" y1="153" x2="437.5" y2="153" gradientUnits="userSpaceOnUse">
<stop stop-color="#859FD1"/>
<stop offset="1" stop-color="#4985C6"/>
</linearGradient>
<linearGradient id="paint4_linear_1222_43520" x1="457.5" y1="153" x2="590" y2="153" gradientUnits="userSpaceOnUse">
<stop stop-color="#859FD1"/>
<stop offset="1" stop-color="#4985C6"/>
</linearGradient>
<linearGradient id="paint5_linear_1222_43520" x1="610" y1="153" x2="742.5" y2="153" gradientUnits="userSpaceOnUse">
<stop stop-color="#859FD1"/>
<stop offset="1" stop-color="#4985C6"/>
</linearGradient>
<linearGradient id="paint6_linear_1222_43520" x1="762.5" y1="153" x2="895" y2="153" gradientUnits="userSpaceOnUse">
<stop stop-color="#859FD1"/>
<stop offset="1" stop-color="#4985C6"/>
</linearGradient>
<linearGradient id="paint7_linear_1222_43520" x1="915" y1="153" x2="1047.5" y2="153" gradientUnits="userSpaceOnUse">
<stop stop-color="#859FD1"/>
<stop offset="1" stop-color="#4985C6"/>
</linearGradient>
<linearGradient id="paint8_linear_1222_43520" x1="1067.5" y1="153" x2="1200" y2="153" gradientUnits="userSpaceOnUse">
<stop stop-color="#859FD1"/>
<stop offset="1" stop-color="#4985C6"/>
</linearGradient>
<clipPath id="clip0_1222_43520">
<rect width="1200" height="199" fill="white"/>
</clipPath>
</defs>
</svg>
