<svg width="820" height="300" viewBox="0 0 820 300" fill="none" xmlns="http://www.w3.org/2000/svg">
<g clip-path="url(#clip0_1766_51004)">
<path d="M150 300C232.843 300 300 232.843 300 150C300 67.1573 232.843 0 150 0C67.1573 0 0 67.1573 0 150C0 232.843 67.1573 300 150 300Z" fill="url(#paint0_radial_1766_51004)"/>
<path d="M177.557 92H122.754V121.69H177.557V92Z" fill="url(#paint1_linear_1766_51004)"/>
<path d="M143.86 165.409L141.023 137.119H158.799L155.963 165.409H143.86Z" fill="url(#paint2_linear_1766_51004)"/>
<path d="M154.335 129.519C154.335 131.977 152.368 133.944 149.909 133.944C147.451 133.944 145.484 131.977 145.484 129.519C145.484 127.06 147.489 125.094 149.909 125.094C152.33 125.094 154.335 127.06 154.335 129.519Z" fill="url(#paint3_linear_1766_51004)"/>
<path d="M122.829 165.409L119.992 137.119H137.768L134.932 165.409H122.829Z" fill="url(#paint4_linear_1766_51004)"/>
<path d="M133.303 129.519C133.303 131.977 131.337 133.944 128.878 133.944C126.42 133.944 124.453 131.977 124.453 129.519C124.453 127.06 126.458 125.094 128.878 125.094C131.299 125.094 133.303 127.06 133.303 129.519Z" fill="url(#paint5_linear_1766_51004)"/>
<path d="M164.889 165.409L162.09 137.119H179.828L177.029 165.409H164.889Z" fill="url(#paint6_linear_1766_51004)"/>
<path d="M175.21 129.519C175.21 131.977 173.243 133.944 170.784 133.944C168.326 133.944 166.359 131.977 166.359 129.519C166.359 127.06 168.364 125.094 170.784 125.094C173.205 125.094 175.21 127.06 175.21 129.519Z" fill="url(#paint7_linear_1766_51004)"/>
<path d="M137.481 103.791L133.656 107.615L137.481 111.44L141.305 107.615L137.481 103.791Z" fill="white"/>
<path d="M149.906 103.769L146.082 107.594L149.906 111.418L153.731 107.594L149.906 103.769Z" fill="white"/>
<path d="M162.309 103.777L158.484 107.602L162.309 111.426L166.133 107.602L162.309 103.777Z" fill="white"/>
<path d="M83.3972 199.85L84.8552 198.968C85.4432 199.412 86.0552 199.904 86.6912 200.444C87.3272 200.972 87.9332 201.5 88.5092 202.028C89.0852 202.556 89.5592 203.042 89.9312 203.486L88.3472 204.494C88.0112 204.074 87.5672 203.588 87.0152 203.036C86.4632 202.484 85.8692 201.932 85.2332 201.38C84.5972 200.816 83.9852 200.306 83.3972 199.85ZM78.7892 199.022L80.5892 199.706C80.1332 200.306 79.5992 200.906 78.9872 201.506C78.3872 202.094 77.7512 202.646 77.0792 203.162C76.4192 203.69 75.7652 204.158 75.1172 204.566C74.9972 204.446 74.8532 204.308 74.6852 204.152C74.5292 204.008 74.3612 203.864 74.1812 203.72C74.0132 203.588 73.8632 203.474 73.7312 203.378C74.3672 203.006 75.0092 202.58 75.6572 202.1C76.3052 201.608 76.8992 201.098 77.4392 200.57C77.9912 200.03 78.4412 199.514 78.7892 199.022ZM77.3852 190.76V195.89H86.3312V190.76H77.3852ZM75.6392 189.14H88.1492V197.528H75.6392V189.14ZM92.8832 188.564H106.797V189.824H92.8832V188.564ZM98.9672 188.978H100.641V195.998H98.9672V188.978ZM92.0912 190.94H107.661V194.9H105.969V192.236H93.7292V194.9H92.0912V190.94ZM93.8372 195.062C94.4012 195.002 95.0552 194.918 95.7992 194.81C96.5552 194.702 97.3352 194.588 98.1392 194.468L98.1932 195.476C97.5092 195.632 96.8312 195.782 96.1592 195.926C95.4992 196.07 94.8812 196.202 94.3052 196.322L93.8372 195.062ZM94.3592 193.262L94.8272 192.398C95.1992 192.458 95.5892 192.536 95.9972 192.632C96.4172 192.728 96.8192 192.83 97.2032 192.938C97.5872 193.046 97.9052 193.16 98.1572 193.28L97.6892 194.252C97.4372 194.132 97.1192 194.012 96.7352 193.892C96.3512 193.772 95.9492 193.658 95.5292 193.55C95.1212 193.43 94.7312 193.334 94.3592 193.262ZM104.727 192.272L105.429 193.208C105.093 193.34 104.721 193.466 104.313 193.586C103.917 193.706 103.515 193.814 103.107 193.91C102.711 194.006 102.345 194.09 102.009 194.162L101.451 193.316C101.775 193.244 102.135 193.148 102.531 193.028C102.939 192.896 103.335 192.764 103.719 192.632C104.103 192.488 104.439 192.368 104.727 192.272ZM101.199 195.332L101.559 194.342C102.015 194.39 102.501 194.462 103.017 194.558C103.545 194.654 104.049 194.762 104.529 194.882C105.021 194.99 105.429 195.104 105.753 195.224L105.411 196.322C105.087 196.202 104.679 196.082 104.187 195.962C103.707 195.83 103.203 195.71 102.675 195.602C102.159 195.494 101.667 195.404 101.199 195.332ZM91.9652 196.502H107.823V197.852H91.9652V196.502ZM97.2392 199.886H98.8052V204.368H97.2392V199.886ZM101.181 199.886H102.729V204.368H101.181V199.886ZM93.3332 198.968H105.573V200.336H94.9352V204.476H93.3332V198.968ZM105.195 198.968H106.833V202.892C106.833 203.264 106.791 203.552 106.707 203.756C106.623 203.972 106.455 204.134 106.203 204.242C105.951 204.362 105.645 204.434 105.285 204.458C104.925 204.482 104.505 204.494 104.025 204.494C103.989 204.29 103.917 204.056 103.809 203.792C103.713 203.528 103.611 203.294 103.503 203.09C103.827 203.102 104.121 203.108 104.385 203.108C104.661 203.108 104.847 203.108 104.943 203.108C105.039 203.096 105.105 203.072 105.141 203.036C105.177 203.012 105.195 202.958 105.195 202.874V198.968ZM99.0212 197.024L100.875 197.078C100.707 197.582 100.527 198.074 100.335 198.554C100.155 199.034 99.9872 199.454 99.8312 199.814L98.3372 199.67C98.4692 199.286 98.6012 198.848 98.7332 198.356C98.8652 197.864 98.9612 197.42 99.0212 197.024ZM109.767 198.068H125.985V199.49H109.767V198.068ZM110.037 188.528H125.643V190.022H110.037V188.528ZM121.611 197.024L123.267 197.474C122.847 198.698 122.277 199.73 121.557 200.57C120.849 201.41 119.973 202.1 118.929 202.64C117.897 203.18 116.673 203.594 115.257 203.882C113.841 204.17 112.215 204.386 110.379 204.53C110.319 204.29 110.229 204.032 110.109 203.756C109.989 203.48 109.857 203.246 109.713 203.054C111.453 202.958 112.983 202.79 114.303 202.55C115.623 202.31 116.763 201.962 117.723 201.506C118.683 201.05 119.475 200.462 120.099 199.742C120.735 199.01 121.239 198.104 121.611 197.024ZM111.927 201.452L113.241 200.354C114.405 200.534 115.569 200.744 116.733 200.984C117.897 201.224 119.025 201.47 120.117 201.722C121.209 201.974 122.229 202.232 123.177 202.496C124.137 202.76 124.989 203.018 125.733 203.27L124.185 204.476C123.285 204.128 122.187 203.774 120.891 203.414C119.607 203.066 118.203 202.724 116.679 202.388C115.155 202.04 113.571 201.728 111.927 201.452ZM114.879 189.086H116.499V195.332H114.879V189.086ZM119.037 189.086H120.639V195.332H119.037V189.086ZM112.503 192.686V194.81H123.285V192.686H112.503ZM110.919 191.318H124.977V196.16H110.919V191.318ZM111.927 201.452C112.323 201.008 112.737 200.492 113.169 199.904C113.601 199.316 114.015 198.704 114.411 198.068C114.807 197.432 115.137 196.826 115.401 196.25L117.093 196.646C116.829 197.21 116.505 197.792 116.121 198.392C115.749 198.98 115.365 199.544 114.969 200.084C114.585 200.612 114.231 201.074 113.907 201.47L111.927 201.452ZM131.691 203.252C130.995 203.252 130.377 203.168 129.837 203C129.309 202.832 128.841 202.61 128.433 202.334C128.025 202.046 127.671 201.74 127.371 201.416L128.379 200.084C128.775 200.468 129.225 200.804 129.729 201.092C130.233 201.38 130.827 201.524 131.511 201.524C132.015 201.524 132.453 201.44 132.825 201.272C133.197 201.092 133.485 200.84 133.689 200.516C133.905 200.192 134.013 199.796 134.013 199.328C134.013 198.848 133.893 198.428 133.653 198.068C133.425 197.696 133.023 197.414 132.447 197.222C131.883 197.018 131.103 196.916 130.107 196.916V195.368C130.983 195.368 131.667 195.272 132.159 195.08C132.663 194.876 133.023 194.6 133.239 194.252C133.467 193.904 133.581 193.508 133.581 193.064C133.581 192.488 133.401 192.032 133.041 191.696C132.681 191.348 132.183 191.174 131.547 191.174C131.043 191.174 130.569 191.288 130.125 191.516C129.693 191.732 129.285 192.026 128.901 192.398L127.821 191.102C128.349 190.622 128.925 190.238 129.549 189.95C130.173 189.65 130.863 189.5 131.619 189.5C132.411 189.5 133.113 189.638 133.725 189.914C134.337 190.178 134.817 190.562 135.165 191.066C135.513 191.57 135.687 192.188 135.687 192.92C135.687 193.676 135.477 194.318 135.057 194.846C134.649 195.374 134.097 195.77 133.401 196.034V196.106C133.905 196.238 134.361 196.454 134.769 196.754C135.189 197.042 135.519 197.414 135.759 197.87C135.999 198.326 136.119 198.848 136.119 199.436C136.119 200.228 135.915 200.912 135.507 201.488C135.111 202.052 134.577 202.49 133.905 202.802C133.233 203.102 132.495 203.252 131.691 203.252ZM145.071 187.844H147.015C146.991 188.42 146.955 189.128 146.907 189.968C146.871 190.796 146.775 191.714 146.619 192.722C146.475 193.73 146.241 194.774 145.917 195.854C145.593 196.922 145.143 197.984 144.567 199.04C144.003 200.084 143.283 201.074 142.407 202.01C141.531 202.946 140.457 203.762 139.185 204.458C139.041 204.242 138.837 204.008 138.573 203.756C138.321 203.504 138.057 203.282 137.781 203.09C139.029 202.454 140.073 201.704 140.913 200.84C141.753 199.976 142.437 199.058 142.965 198.086C143.493 197.102 143.901 196.112 144.189 195.116C144.477 194.12 144.681 193.16 144.801 192.236C144.921 191.3 144.993 190.454 145.017 189.698C145.053 188.942 145.071 188.324 145.071 187.844ZM146.835 190.058C146.859 190.274 146.907 190.67 146.979 191.246C147.051 191.822 147.177 192.506 147.357 193.298C147.549 194.09 147.819 194.936 148.167 195.836C148.515 196.736 148.971 197.63 149.535 198.518C150.099 199.394 150.795 200.216 151.623 200.984C152.463 201.752 153.459 202.394 154.611 202.91C154.359 203.114 154.119 203.348 153.891 203.612C153.663 203.876 153.483 204.128 153.351 204.368C152.151 203.804 151.119 203.108 150.255 202.28C149.391 201.44 148.665 200.54 148.077 199.58C147.489 198.608 147.015 197.636 146.655 196.664C146.295 195.68 146.013 194.756 145.809 193.892C145.617 193.016 145.473 192.26 145.377 191.624C145.293 190.976 145.233 190.514 145.197 190.238L146.835 190.058ZM160.011 187.952H161.775V198.122H160.011V187.952ZM166.491 187.952H168.255V198.122H166.491V187.952ZM155.961 197.024H172.359V198.698H155.961V197.024ZM156.645 191.462H171.765V193.1H156.645V191.462ZM165.573 200.39L167.085 199.544C167.625 199.928 168.207 200.36 168.831 200.84C169.467 201.308 170.073 201.776 170.649 202.244C171.237 202.712 171.717 203.132 172.089 203.504L170.433 204.512C170.097 204.152 169.647 203.732 169.083 203.252C168.531 202.772 167.943 202.28 167.319 201.776C166.707 201.272 166.125 200.81 165.573 200.39ZM160.857 199.58L162.639 200.264C162.207 200.792 161.703 201.32 161.127 201.848C160.563 202.364 159.969 202.85 159.345 203.306C158.733 203.774 158.127 204.182 157.527 204.53C157.407 204.398 157.263 204.26 157.095 204.116C156.939 203.972 156.777 203.828 156.609 203.684C156.441 203.54 156.291 203.42 156.159 203.324C156.735 203.012 157.323 202.652 157.923 202.244C158.523 201.824 159.075 201.38 159.579 200.912C160.095 200.444 160.521 200 160.857 199.58ZM177.597 191.93H186.687V193.388H177.597V191.93ZM178.497 195.062H180.063V202.19H178.497V195.062ZM179.343 195.062H185.787V200.93H179.343V199.49H184.221V196.484H179.343V195.062ZM174.609 188.708H188.991V190.31H176.265V204.53H174.609V188.708ZM188.019 188.708H189.693V202.478C189.693 202.946 189.627 203.318 189.495 203.594C189.375 203.87 189.165 204.074 188.865 204.206C188.565 204.35 188.163 204.44 187.659 204.476C187.167 204.512 186.537 204.53 185.769 204.53C185.745 204.374 185.703 204.194 185.643 203.99C185.583 203.786 185.511 203.582 185.427 203.378C185.343 203.174 185.259 203 185.175 202.856C185.703 202.88 186.195 202.892 186.651 202.892C187.119 202.892 187.431 202.892 187.587 202.892C187.743 202.88 187.851 202.844 187.911 202.784C187.983 202.712 188.019 202.604 188.019 202.46V188.708ZM200.043 191.966V193.172H205.569V191.966H200.043ZM200.043 189.626V190.832H205.569V189.626H200.043ZM198.495 188.384H207.189V194.432H198.495V188.384ZM197.649 195.53H208.161V196.934H197.649V195.53ZM201.987 196.25H203.589V203.594L201.987 202.928V196.25ZM199.917 199.508C200.229 200.456 200.637 201.164 201.141 201.632C201.645 202.088 202.233 202.394 202.905 202.55C203.589 202.694 204.327 202.766 205.119 202.766C205.251 202.766 205.473 202.766 205.785 202.766C206.097 202.766 206.445 202.766 206.829 202.766C207.213 202.766 207.573 202.766 207.909 202.766C208.257 202.754 208.515 202.748 208.683 202.748C208.623 202.868 208.557 203.018 208.485 203.198C208.413 203.378 208.353 203.558 208.305 203.738C208.257 203.93 208.221 204.104 208.197 204.26H207.459H205.047C204.303 204.26 203.613 204.2 202.977 204.08C202.353 203.972 201.783 203.768 201.267 203.468C200.751 203.168 200.289 202.73 199.881 202.154C199.485 201.566 199.149 200.81 198.873 199.886L199.917 199.508ZM203.139 198.806H207.225V200.174H203.139V198.806ZM198.765 197.636L200.313 197.834C200.133 199.298 199.803 200.594 199.323 201.722C198.855 202.838 198.219 203.762 197.415 204.494C197.331 204.398 197.211 204.284 197.055 204.152C196.899 204.032 196.737 203.906 196.569 203.774C196.413 203.654 196.275 203.558 196.155 203.486C196.935 202.862 197.529 202.052 197.937 201.056C198.357 200.06 198.633 198.92 198.765 197.636ZM191.601 197.186C192.321 197.006 193.179 196.772 194.175 196.484C195.171 196.196 196.179 195.902 197.199 195.602L197.433 197.15C196.509 197.438 195.567 197.732 194.607 198.032C193.659 198.332 192.789 198.596 191.997 198.824L191.601 197.186ZM191.799 191.336H197.379V192.92H191.799V191.336ZM193.905 187.826H195.471V202.46C195.471 202.88 195.423 203.21 195.327 203.45C195.231 203.69 195.063 203.882 194.823 204.026C194.583 204.158 194.271 204.242 193.887 204.278C193.503 204.326 193.023 204.344 192.447 204.332C192.435 204.128 192.381 203.87 192.285 203.558C192.201 203.258 192.105 202.994 191.997 202.766C192.357 202.778 192.687 202.784 192.987 202.784C193.287 202.784 193.491 202.784 193.599 202.784C193.719 202.784 193.797 202.76 193.833 202.712C193.881 202.664 193.905 202.58 193.905 202.46V187.826ZM217.233 197.438H218.943V204.494H217.233V197.438ZM210.501 189.086H225.837V191.768H224.181V190.508H212.085V191.768H210.501V189.086ZM210.213 192.362H226.107V193.73H210.213V192.362ZM210.015 198.824H226.287V200.246H210.015V198.824ZM221.715 191.174L223.389 191.534C223.005 192.71 222.471 193.694 221.787 194.486C221.115 195.266 220.269 195.896 219.249 196.376C218.241 196.856 217.029 197.222 215.613 197.474C214.209 197.726 212.583 197.906 210.735 198.014C210.663 197.762 210.573 197.51 210.465 197.258C210.369 196.994 210.261 196.772 210.141 196.592C211.881 196.532 213.405 196.4 214.713 196.196C216.021 195.992 217.137 195.692 218.061 195.296C218.997 194.888 219.759 194.348 220.347 193.676C220.947 193.004 221.403 192.17 221.715 191.174ZM212.409 195.368L213.759 194.324C214.899 194.492 216.039 194.684 217.179 194.9C218.331 195.116 219.441 195.344 220.509 195.584C221.577 195.824 222.573 196.076 223.497 196.34C224.433 196.592 225.261 196.838 225.981 197.078L224.343 198.176C223.467 197.852 222.405 197.522 221.157 197.186C219.921 196.85 218.553 196.526 217.053 196.214C215.565 195.902 214.017 195.62 212.409 195.368ZM216.693 188.168L218.457 187.772C218.649 188.048 218.841 188.36 219.033 188.708C219.237 189.044 219.399 189.332 219.519 189.572L217.665 190.058C217.569 189.806 217.425 189.5 217.233 189.14C217.041 188.78 216.861 188.456 216.693 188.168ZM212.409 195.368C212.877 194.948 213.369 194.468 213.885 193.928C214.401 193.376 214.899 192.806 215.379 192.218C215.859 191.618 216.267 191.054 216.603 190.526L218.241 191.03C217.869 191.546 217.443 192.074 216.963 192.614C216.495 193.154 216.015 193.664 215.523 194.144C215.043 194.612 214.593 195.02 214.173 195.368H212.409ZM214.299 200.462L216.009 201.02C215.649 201.428 215.217 201.824 214.713 202.208C214.221 202.58 213.699 202.922 213.147 203.234C212.607 203.558 212.079 203.834 211.563 204.062C211.443 203.954 211.299 203.828 211.131 203.684C210.963 203.54 210.789 203.396 210.609 203.252C210.429 203.12 210.273 203.012 210.141 202.928C210.933 202.64 211.707 202.286 212.463 201.866C213.231 201.434 213.843 200.966 214.299 200.462ZM220.113 201.308L221.301 200.228C221.841 200.468 222.405 200.75 222.993 201.074C223.593 201.398 224.163 201.728 224.703 202.064C225.255 202.4 225.705 202.712 226.053 203L224.757 204.206C224.433 203.918 224.007 203.6 223.479 203.252C222.951 202.904 222.393 202.556 221.805 202.208C221.217 201.86 220.653 201.56 220.113 201.308Z" fill="#F38733"/>
<path d="M410 300C492.843 300 560 232.843 560 150C560 67.1573 492.843 0 410 0C327.157 0 260 67.1573 260 150C260 232.843 327.157 300 410 300Z" fill="url(#paint8_radial_1766_51004)"/>
<path d="M444.695 93H393.078V119.212H444.695V93Z" fill="url(#paint9_linear_1766_51004)"/>
<path d="M439.492 97.5449H384.539V125.479H439.492V97.5449Z" fill="url(#paint10_linear_1766_51004)"/>
<path d="M390.405 136.955L403.346 149.456L392.238 165L376.145 149.566L390.405 136.955Z" fill="url(#paint11_linear_1766_51004)"/>
<path d="M390.406 136.953L425.379 130.281V136.953L411.815 139.739L428.055 143.405L443.965 136.22V143.369L427.578 152.863L401.88 151.544L399.717 154.55L385.273 141.499L390.406 136.953Z" fill="url(#paint12_linear_1766_51004)"/>
<path d="M394.367 153.01L392.742 154.949L394.681 156.574L396.306 154.635L394.367 153.01Z" fill="white"/>
<path d="M391.109 156.903L389.484 158.842L391.423 160.466L393.048 158.528L391.109 156.903Z" fill="white"/>
<path d="M412.58 115.75C410.758 115.75 410.042 114.983 409.945 114H408C408.106 115.825 409.556 116.85 411.253 117.192V119H413.906V117.208C415.63 116.9 417 115.958 417 114.25C417 111.883 414.852 111.075 412.845 110.583C410.838 110.092 410.193 109.583 410.193 108.792C410.193 107.883 411.085 107.25 412.58 107.25C414.153 107.25 414.737 107.958 414.79 109H416.744C416.682 107.567 415.753 106.25 413.906 105.825V104H411.253V105.8C409.538 106.15 408.159 107.2 408.159 108.808C408.159 110.733 409.848 111.692 412.314 112.25C414.525 112.75 414.967 113.483 414.967 114.258C414.967 114.833 414.533 115.75 412.58 115.75Z" fill="white"/>
<path d="M321.437 190.22H332.183V191.768H321.437V190.22ZM322.967 196.376H330.563V197.726H322.967V196.376ZM322.967 199.346H330.563V200.696H322.967V199.346ZM325.829 187.808H327.467V204.386H325.829V187.808ZM321.923 193.334H330.563V194.792H323.507V204.512H321.923V193.334ZM329.933 193.334H331.535V202.748C331.535 203.12 331.493 203.42 331.409 203.648C331.337 203.876 331.175 204.056 330.923 204.188C330.695 204.32 330.401 204.398 330.041 204.422C329.681 204.446 329.261 204.458 328.781 204.458C328.757 204.254 328.697 204.002 328.601 203.702C328.517 203.414 328.415 203.168 328.295 202.964C328.619 202.976 328.907 202.982 329.159 202.982C329.411 202.982 329.585 202.982 329.681 202.982C329.849 202.982 329.933 202.892 329.933 202.712V193.334ZM328.223 188.708L329.177 187.808C329.645 188.036 330.131 188.312 330.635 188.636C331.139 188.96 331.535 189.266 331.823 189.554L330.797 190.544C330.545 190.256 330.167 189.944 329.663 189.608C329.171 189.26 328.691 188.96 328.223 188.708ZM317.729 196.736L319.295 195.026V204.422H317.729V196.736ZM315.839 190.94H320.069V192.434H315.839V190.94ZM319.079 195.296C319.187 195.404 319.355 195.596 319.583 195.872C319.811 196.148 320.051 196.454 320.303 196.79C320.567 197.114 320.807 197.42 321.023 197.708C321.251 197.984 321.413 198.182 321.509 198.302L320.555 199.436C320.435 199.22 320.273 198.956 320.069 198.644C319.877 198.32 319.661 197.99 319.421 197.654C319.193 197.306 318.971 196.988 318.755 196.7C318.551 196.4 318.383 196.16 318.251 195.98L319.079 195.296ZM319.619 190.94H319.943L320.249 190.886L321.113 191.426C320.765 192.482 320.321 193.538 319.781 194.594C319.241 195.638 318.653 196.616 318.017 197.528C317.381 198.428 316.745 199.202 316.109 199.85C316.049 199.706 315.965 199.544 315.857 199.364C315.761 199.172 315.653 198.992 315.533 198.824C315.425 198.644 315.323 198.512 315.227 198.428C315.815 197.888 316.397 197.222 316.973 196.43C317.549 195.638 318.065 194.792 318.521 193.892C318.989 192.992 319.355 192.116 319.619 191.264V190.94ZM320.807 194.414L321.887 195.17C321.587 195.518 321.299 195.872 321.023 196.232C320.747 196.592 320.483 196.898 320.231 197.15L319.439 196.556C319.655 196.268 319.895 195.92 320.159 195.512C320.435 195.092 320.651 194.726 320.807 194.414ZM317.009 188.546L318.377 187.916C318.677 188.264 318.971 188.648 319.259 189.068C319.559 189.476 319.781 189.836 319.925 190.148L318.485 190.886C318.341 190.574 318.131 190.196 317.855 189.752C317.579 189.308 317.297 188.906 317.009 188.546ZM341.291 191.804H348.743V193.406H341.291V191.804ZM348.023 191.804H349.661C349.661 191.804 349.661 191.858 349.661 191.966C349.661 192.062 349.655 192.176 349.643 192.308C349.643 192.428 349.643 192.524 349.643 192.596C349.607 194.48 349.565 196.076 349.517 197.384C349.469 198.692 349.409 199.766 349.337 200.606C349.277 201.434 349.193 202.082 349.085 202.55C348.989 203.018 348.869 203.348 348.725 203.54C348.533 203.816 348.329 204.008 348.113 204.116C347.897 204.224 347.633 204.302 347.321 204.35C347.045 204.386 346.679 204.398 346.223 204.386C345.779 204.386 345.323 204.38 344.855 204.368C344.843 204.128 344.789 203.846 344.693 203.522C344.609 203.21 344.495 202.946 344.351 202.73C344.831 202.766 345.275 202.79 345.683 202.802C346.091 202.814 346.385 202.82 346.565 202.82C346.721 202.82 346.853 202.802 346.961 202.766C347.069 202.718 347.165 202.64 347.249 202.532C347.369 202.388 347.465 202.106 347.537 201.686C347.621 201.254 347.693 200.636 347.753 199.832C347.813 199.028 347.861 197.996 347.897 196.736C347.945 195.476 347.987 193.952 348.023 192.164V191.804ZM344.027 187.808H345.683C345.683 189.248 345.665 190.646 345.629 192.002C345.593 193.346 345.497 194.63 345.341 195.854C345.197 197.078 344.951 198.224 344.603 199.292C344.255 200.36 343.763 201.338 343.127 202.226C342.503 203.114 341.699 203.882 340.715 204.53C340.595 204.326 340.415 204.098 340.175 203.846C339.935 203.606 339.713 203.408 339.509 203.252C340.433 202.664 341.183 201.968 341.759 201.164C342.347 200.36 342.797 199.466 343.109 198.482C343.421 197.498 343.637 196.442 343.757 195.314C343.889 194.186 343.967 192.992 343.991 191.732C344.015 190.46 344.027 189.152 344.027 187.808ZM334.685 188.618H340.751V200.354H339.149V190.166H336.215V201.506H334.685V188.618ZM333.407 201.002C334.091 200.87 334.877 200.72 335.765 200.552C336.665 200.372 337.619 200.174 338.627 199.958C339.635 199.742 340.637 199.526 341.633 199.31L341.795 200.84C340.847 201.068 339.887 201.296 338.915 201.524C337.955 201.752 337.031 201.968 336.143 202.172C335.255 202.376 334.445 202.568 333.713 202.748L333.407 201.002ZM335.477 192.452H339.923V193.964H335.477V192.452ZM335.477 196.25H339.923V197.744H335.477V196.25ZM355.115 193.118H364.565V194.702H355.115V193.118ZM352.919 196.898H366.815V198.446H352.919V196.898ZM352.073 202.478H367.697V204.044H352.073V202.478ZM358.913 193.838H360.731V203.234H358.913V193.838ZM354.287 199.184L355.673 198.626C355.913 198.938 356.141 199.286 356.357 199.67C356.585 200.042 356.789 200.414 356.969 200.786C357.161 201.146 357.299 201.47 357.383 201.758L355.907 202.406C355.823 202.118 355.697 201.788 355.529 201.416C355.361 201.044 355.169 200.66 354.953 200.264C354.737 199.868 354.515 199.508 354.287 199.184ZM363.881 198.626L365.501 199.238C365.165 199.802 364.811 200.372 364.439 200.948C364.067 201.524 363.725 202.016 363.413 202.424L362.117 201.866C362.321 201.578 362.531 201.248 362.747 200.876C362.963 200.492 363.173 200.102 363.377 199.706C363.581 199.31 363.749 198.95 363.881 198.626ZM360.515 188.654C360.935 189.122 361.445 189.59 362.045 190.058C362.657 190.526 363.317 190.97 364.025 191.39C364.733 191.798 365.465 192.17 366.221 192.506C366.989 192.842 367.733 193.118 368.453 193.334C368.333 193.454 368.195 193.604 368.039 193.784C367.883 193.964 367.739 194.144 367.607 194.324C367.475 194.504 367.361 194.672 367.265 194.828C366.533 194.564 365.789 194.24 365.033 193.856C364.289 193.472 363.551 193.04 362.819 192.56C362.099 192.068 361.421 191.552 360.785 191.012C360.149 190.472 359.585 189.914 359.093 189.338L360.515 188.654ZM359.759 187.628L361.343 188.348C360.683 189.356 359.891 190.28 358.967 191.12C358.043 191.948 357.029 192.68 355.925 193.316C354.821 193.94 353.675 194.468 352.487 194.9C352.367 194.66 352.199 194.396 351.983 194.108C351.767 193.808 351.551 193.55 351.335 193.334C352.475 192.986 353.579 192.536 354.647 191.984C355.715 191.432 356.687 190.79 357.563 190.058C358.451 189.326 359.183 188.516 359.759 187.628ZM369.857 189.554H377.669V192.686H376.337V190.922H371.117V192.686H369.857V189.554ZM370.991 198.932H376.805V204.458H375.293V200.282H372.449V204.476H370.991V198.932ZM371.513 202.604H376.301V203.936H371.513V202.604ZM372.395 191.39L373.727 191.624C373.439 192.452 373.043 193.244 372.539 194C372.035 194.744 371.387 195.416 370.595 196.016C370.511 195.836 370.379 195.632 370.199 195.404C370.031 195.176 369.869 195.002 369.713 194.882C370.421 194.402 370.991 193.856 371.423 193.244C371.867 192.62 372.191 192.002 372.395 191.39ZM372.737 192.596H375.905V193.874H372.197L372.737 192.596ZM375.545 192.596H375.833L376.067 192.542L376.931 193.136C376.511 194.228 375.947 195.194 375.239 196.034C374.543 196.862 373.757 197.57 372.881 198.158C372.017 198.734 371.123 199.202 370.199 199.562C370.139 199.43 370.061 199.274 369.965 199.094C369.869 198.914 369.767 198.74 369.659 198.572C369.551 198.404 369.449 198.272 369.353 198.176C370.241 197.888 371.093 197.498 371.909 197.006C372.737 196.502 373.463 195.902 374.087 195.206C374.723 194.51 375.209 193.73 375.545 192.866V192.596ZM372.611 188.312L373.979 187.826C374.135 188.162 374.297 188.534 374.465 188.942C374.633 189.35 374.765 189.698 374.861 189.986L373.421 190.562C373.349 190.274 373.235 189.914 373.079 189.482C372.923 189.05 372.767 188.66 372.611 188.312ZM378.155 188.6H386.111V190.058H378.155V188.6ZM380.189 195.62V197.006H383.987V195.62H380.189ZM380.189 198.266V199.706H383.987V198.266H380.189ZM380.189 192.938V194.342H383.987V192.938H380.189ZM378.659 191.588H385.607V201.038H378.659V191.588ZM381.359 189.374L382.979 189.626C382.835 190.13 382.685 190.634 382.529 191.138C382.385 191.63 382.253 192.062 382.133 192.434L380.873 192.11C380.957 191.726 381.047 191.276 381.143 190.76C381.239 190.232 381.311 189.77 381.359 189.374ZM380.603 201.2L381.701 202.262C381.173 202.694 380.555 203.12 379.847 203.54C379.151 203.96 378.503 204.314 377.903 204.602C377.819 204.422 377.705 204.212 377.561 203.972C377.417 203.732 377.285 203.528 377.165 203.36C377.537 203.18 377.939 202.97 378.371 202.73C378.803 202.478 379.217 202.22 379.613 201.956C380.009 201.68 380.339 201.428 380.603 201.2ZM382.367 202.19L383.285 201.128C383.621 201.332 383.975 201.566 384.347 201.83C384.731 202.094 385.097 202.364 385.445 202.64C385.805 202.904 386.093 203.144 386.309 203.36L385.337 204.548C385.121 204.32 384.845 204.062 384.509 203.774C384.173 203.498 383.819 203.222 383.447 202.946C383.075 202.658 382.715 202.406 382.367 202.19ZM371.513 195.746L372.485 194.738C372.893 194.978 373.337 195.236 373.817 195.512C374.297 195.788 374.777 196.07 375.257 196.358C375.749 196.646 376.205 196.928 376.625 197.204C377.057 197.48 377.429 197.72 377.741 197.924L376.733 199.13C376.349 198.83 375.857 198.482 375.257 198.086C374.657 197.69 374.027 197.288 373.367 196.88C372.707 196.46 372.089 196.082 371.513 195.746ZM389.729 188.438H402.059V194.09H400.331V189.662H391.385V194.09H389.729V188.438ZM392.087 190.58H399.611V191.642H392.087V190.58ZM392.087 192.578H399.575V193.694H392.087V192.578ZM387.839 194.684H403.841V196.052H387.839V194.684ZM395.831 196.988H402.059V198.32H395.831V196.988ZM390.341 197.024H394.625V198.248H390.341V197.024ZM390.341 199.256H394.625V200.48H390.341V199.256ZM397.937 198.212C398.465 199.412 399.263 200.45 400.331 201.326C401.411 202.202 402.695 202.82 404.183 203.18C404.075 203.276 403.955 203.402 403.823 203.558C403.691 203.726 403.565 203.888 403.445 204.044C403.337 204.212 403.247 204.362 403.175 204.494C401.603 204.038 400.259 203.306 399.143 202.298C398.039 201.278 397.181 200.048 396.569 198.608L397.937 198.212ZM401.681 196.988H401.987L402.275 196.934L403.319 197.348C402.935 198.584 402.389 199.67 401.681 200.606C400.985 201.53 400.169 202.31 399.233 202.946C398.309 203.582 397.313 204.092 396.245 204.476C396.149 204.272 396.011 204.038 395.831 203.774C395.651 203.51 395.483 203.3 395.327 203.144C396.287 202.856 397.193 202.436 398.045 201.884C398.897 201.332 399.635 200.666 400.259 199.886C400.895 199.106 401.369 198.224 401.681 197.24V196.988ZM387.623 202.01C388.223 201.962 388.901 201.908 389.657 201.848C390.425 201.776 391.235 201.698 392.087 201.614C392.939 201.53 393.797 201.446 394.661 201.362L394.679 202.694C393.455 202.838 392.237 202.976 391.025 203.108C389.813 203.24 388.739 203.36 387.803 203.468L387.623 202.01ZM393.743 195.116H395.381V204.512H393.743V195.116ZM389.315 195.152H390.881V202.424H389.315V195.152ZM405.893 189.59H421.769V191.048H405.893V189.59ZM410.177 193.118V194.468H417.629V193.118H410.177ZM408.485 191.93H419.411V195.656H408.485V191.93ZM406.487 196.538H420.743V197.942H408.143V204.512H406.487V196.538ZM419.555 196.538H421.265V202.838C421.265 203.234 421.211 203.528 421.103 203.72C420.995 203.912 420.791 204.062 420.491 204.17C420.215 204.266 419.861 204.326 419.429 204.35C419.009 204.374 418.493 204.38 417.881 204.368C417.845 204.176 417.773 203.96 417.665 203.72C417.557 203.492 417.455 203.288 417.359 203.108C417.611 203.12 417.869 203.126 418.133 203.126C418.397 203.138 418.625 203.138 418.817 203.126C419.021 203.126 419.159 203.126 419.231 203.126C419.447 203.126 419.555 203.03 419.555 202.838V196.538ZM412.607 188.114L414.317 187.718C414.485 188.09 414.653 188.51 414.821 188.978C414.989 189.434 415.115 189.812 415.199 190.112L413.399 190.616C413.327 190.292 413.213 189.896 413.057 189.428C412.901 188.96 412.751 188.522 412.607 188.114ZM410.789 198.842H417.629V202.676H410.789V201.47H416.117V200.048H410.789V198.842ZM409.871 198.842H411.473V203.522H409.871V198.842ZM433.631 193.82H440.201V195.404H433.631V193.82ZM423.911 189.644H431.921V191.048H423.911V189.644ZM423.713 196.79H431.957V198.248H423.713V196.79ZM423.623 193.712H432.209V195.134H423.623V193.712ZM436.691 194.504H438.347V204.422H436.691V194.504ZM424.973 191.426L426.359 191.102C426.515 191.45 426.653 191.834 426.773 192.254C426.905 192.674 426.995 193.034 427.043 193.334L425.603 193.73C425.567 193.418 425.489 193.046 425.369 192.614C425.261 192.182 425.129 191.786 424.973 191.426ZM429.455 191.066L431.021 191.39C430.829 191.894 430.631 192.404 430.427 192.92C430.223 193.436 430.031 193.874 429.851 194.234L428.465 193.928C428.585 193.664 428.705 193.364 428.825 193.028C428.945 192.692 429.059 192.35 429.167 192.002C429.287 191.654 429.383 191.342 429.455 191.066ZM438.545 188.06L439.877 189.32C439.289 189.548 438.629 189.758 437.897 189.95C437.177 190.13 436.439 190.292 435.683 190.436C434.939 190.58 434.207 190.706 433.487 190.814C433.451 190.634 433.379 190.418 433.271 190.166C433.175 189.914 433.073 189.704 432.965 189.536C433.649 189.416 434.333 189.278 435.017 189.122C435.701 188.966 436.349 188.798 436.961 188.618C437.585 188.426 438.113 188.24 438.545 188.06ZM426.575 188.096L428.267 187.664C428.471 188.036 428.669 188.45 428.861 188.906C429.065 189.35 429.215 189.734 429.311 190.058L427.547 190.562C427.463 190.226 427.325 189.83 427.133 189.374C426.953 188.906 426.767 188.48 426.575 188.096ZM432.965 189.536H434.567V195.854C434.567 196.514 434.543 197.222 434.495 197.978C434.459 198.734 434.375 199.496 434.243 200.264C434.111 201.032 433.925 201.776 433.685 202.496C433.445 203.216 433.121 203.864 432.713 204.44C432.629 204.332 432.503 204.212 432.335 204.08C432.179 203.948 432.011 203.822 431.831 203.702C431.663 203.582 431.519 203.492 431.399 203.432C431.879 202.724 432.233 201.932 432.461 201.056C432.689 200.18 432.827 199.292 432.875 198.392C432.935 197.492 432.965 196.646 432.965 195.854V189.536ZM429.509 199.49L430.643 198.878C430.943 199.31 431.231 199.784 431.507 200.3C431.783 200.804 431.993 201.242 432.137 201.614L430.967 202.316C430.823 201.944 430.607 201.488 430.319 200.948C430.043 200.408 429.773 199.922 429.509 199.49ZM425.189 199.04L426.521 199.418C426.305 200.066 426.023 200.726 425.675 201.398C425.339 202.058 425.003 202.622 424.667 203.09C424.535 202.97 424.349 202.832 424.109 202.676C423.881 202.508 423.683 202.382 423.515 202.298C423.851 201.866 424.163 201.362 424.451 200.786C424.751 200.198 424.997 199.616 425.189 199.04ZM427.223 194.486H428.879V204.422H427.223V194.486ZM441.947 188.798H457.841V189.914H441.947V188.798ZM441.983 202.928H457.787V204.116H441.983V202.928ZM443.315 190.688H456.437V191.75H443.315V190.688ZM444.035 197.528H455.591V198.5H444.035V197.528ZM443.747 201.074H456.167V202.136H443.747V201.074ZM442.217 195.746H457.535V198.374H455.933V196.862H443.747V198.374H442.217V195.746ZM448.949 187.79H450.677V191.336H448.949V187.79ZM448.949 199.868H450.677V203.54H448.949V199.868ZM445.655 193.316V194.162H454.097V193.316H445.655ZM444.071 192.398H455.771V195.08H444.071V192.398ZM451.685 198.608L452.693 197.852C453.101 198.056 453.521 198.29 453.953 198.554C454.385 198.818 454.799 199.088 455.195 199.364C455.591 199.64 455.915 199.892 456.167 200.12L455.159 200.966C454.907 200.726 454.583 200.462 454.187 200.174C453.803 199.886 453.389 199.604 452.945 199.328C452.513 199.052 452.093 198.812 451.685 198.608ZM444.737 200.606C444.701 200.474 444.647 200.288 444.575 200.048C444.503 199.808 444.431 199.61 444.359 199.454C444.647 199.43 444.971 199.352 445.331 199.22C445.463 199.172 445.673 199.082 445.961 198.95C446.249 198.818 446.567 198.656 446.915 198.464C447.275 198.272 447.611 198.062 447.923 197.834L449.129 198.266C448.541 198.662 447.941 199.01 447.329 199.31C446.729 199.598 446.147 199.82 445.583 199.976V199.994C445.583 199.994 445.511 200.03 445.367 200.102C445.223 200.162 445.079 200.24 444.935 200.336C444.803 200.42 444.737 200.51 444.737 200.606ZM444.737 200.606V199.796L445.493 199.4L454.313 199.274C454.337 199.418 454.367 199.58 454.403 199.76C454.451 199.94 454.493 200.096 454.529 200.228C452.837 200.264 451.427 200.294 450.299 200.318C449.171 200.342 448.259 200.366 447.563 200.39C446.879 200.414 446.345 200.438 445.961 200.462C445.589 200.474 445.313 200.492 445.133 200.516C444.965 200.54 444.833 200.57 444.737 200.606ZM460.415 190.724H467.237V191.786H461.675V197.096H460.415V190.724ZM470.279 189.608H476.057V190.922H470.279V189.608ZM463.511 187.826H464.987V191.372H464.807V196.916H463.691V191.372H463.511V187.826ZM470.477 187.808L471.899 188.114C471.623 189.074 471.227 189.974 470.711 190.814C470.207 191.642 469.631 192.332 468.983 192.884C468.923 192.788 468.827 192.674 468.695 192.542C468.563 192.41 468.425 192.278 468.281 192.146C468.149 192.002 468.029 191.894 467.921 191.822C468.509 191.342 469.025 190.754 469.469 190.058C469.913 189.362 470.249 188.612 470.477 187.808ZM462.395 192.38L463.313 192.56C463.229 193.1 463.121 193.64 462.989 194.18C462.857 194.72 462.695 195.182 462.503 195.566C462.419 195.506 462.293 195.434 462.125 195.35C461.957 195.266 461.813 195.2 461.693 195.152C461.897 194.768 462.047 194.336 462.143 193.856C462.251 193.364 462.335 192.872 462.395 192.38ZM460.433 188.708L461.639 188.186C461.867 188.486 462.095 188.822 462.323 189.194C462.551 189.566 462.713 189.89 462.809 190.166L461.567 190.76C461.471 190.472 461.315 190.136 461.099 189.752C460.883 189.356 460.661 189.008 460.433 188.708ZM473.663 190.274L475.175 190.472C474.731 192.128 473.993 193.472 472.961 194.504C471.941 195.524 470.651 196.328 469.091 196.916C469.055 196.808 468.983 196.67 468.875 196.502C468.779 196.334 468.677 196.172 468.569 196.016C468.461 195.848 468.359 195.716 468.263 195.62C469.679 195.176 470.849 194.522 471.773 193.658C472.697 192.782 473.327 191.654 473.663 190.274ZM470.693 190.544C470.993 191.384 471.407 192.164 471.935 192.884C472.475 193.592 473.111 194.21 473.843 194.738C474.575 195.266 475.385 195.674 476.273 195.962C476.117 196.094 475.949 196.28 475.769 196.52C475.589 196.76 475.445 196.97 475.337 197.15C473.921 196.622 472.715 195.812 471.719 194.72C470.735 193.628 469.979 192.344 469.451 190.868L470.693 190.544ZM465.113 192.596L465.905 192.362C466.085 192.818 466.241 193.322 466.373 193.874C466.505 194.414 466.595 194.876 466.643 195.26L465.815 195.512C465.779 195.116 465.695 194.648 465.563 194.108C465.443 193.556 465.293 193.052 465.113 192.596ZM466.895 188.132L468.281 188.636C468.017 189.02 467.753 189.404 467.489 189.788C467.237 190.16 466.997 190.478 466.769 190.742L465.743 190.31C465.935 189.998 466.139 189.638 466.355 189.23C466.583 188.81 466.763 188.444 466.895 188.132ZM466.967 196.952H468.659V204.512H466.967V196.952ZM461.549 198.014H473.555V199.454H463.205V203.648H461.549V198.014ZM472.763 198.014H474.437V201.956C474.437 202.352 474.377 202.664 474.257 202.892C474.149 203.108 473.933 203.276 473.609 203.396C473.285 203.516 472.877 203.582 472.385 203.594C471.893 203.618 471.287 203.63 470.567 203.63C470.519 203.414 470.441 203.174 470.333 202.91C470.225 202.646 470.111 202.412 469.991 202.208C470.339 202.22 470.675 202.232 470.999 202.244C471.335 202.244 471.623 202.244 471.863 202.244C472.103 202.244 472.271 202.244 472.367 202.244C472.523 202.232 472.625 202.208 472.673 202.172C472.733 202.124 472.763 202.046 472.763 201.938V198.014ZM466.841 190.724H468.101V196.646H466.841V190.724ZM481.691 203.252C481.007 203.252 480.395 203.168 479.855 203C479.315 202.832 478.841 202.61 478.433 202.334C478.025 202.058 477.665 201.77 477.353 201.47L478.343 200.12C478.595 200.372 478.871 200.606 479.171 200.822C479.471 201.026 479.807 201.194 480.179 201.326C480.563 201.458 480.989 201.524 481.457 201.524C481.949 201.524 482.393 201.416 482.789 201.2C483.185 200.972 483.497 200.648 483.725 200.228C483.953 199.796 484.067 199.286 484.067 198.698C484.067 197.834 483.833 197.162 483.365 196.682C482.909 196.202 482.303 195.962 481.547 195.962C481.127 195.962 480.767 196.022 480.467 196.142C480.167 196.262 479.825 196.448 479.441 196.7L478.415 196.034L478.811 189.734H485.525V191.498H480.611L480.305 194.882C480.593 194.738 480.881 194.63 481.169 194.558C481.457 194.474 481.775 194.432 482.123 194.432C482.867 194.432 483.545 194.582 484.157 194.882C484.769 195.182 485.255 195.644 485.615 196.268C485.975 196.88 486.155 197.672 486.155 198.644C486.155 199.616 485.945 200.45 485.525 201.146C485.105 201.83 484.553 202.352 483.869 202.712C483.197 203.072 482.471 203.252 481.691 203.252ZM495.287 192.092H496.907V201.722H495.287V192.092ZM491.813 194.828V195.926H500.453V194.828H491.813ZM491.813 192.632V193.73H500.453V192.632H491.813ZM490.175 191.48H502.163V197.096H490.175V191.48ZM501.749 198.032H503.405V202.892C503.405 203.264 503.363 203.552 503.279 203.756C503.207 203.972 503.039 204.14 502.775 204.26C502.523 204.38 502.205 204.452 501.821 204.476C501.449 204.5 500.993 204.512 500.453 204.512C500.417 204.296 500.351 204.056 500.255 203.792C500.171 203.54 500.081 203.318 499.985 203.126C500.333 203.138 500.645 203.144 500.921 203.144C501.197 203.144 501.383 203.138 501.479 203.126C501.587 203.126 501.659 203.108 501.695 203.072C501.731 203.048 501.749 202.982 501.749 202.874V198.032ZM491.615 201.29C492.299 201.266 493.079 201.236 493.955 201.2C494.843 201.164 495.779 201.122 496.763 201.074C497.759 201.026 498.761 200.978 499.769 200.93L499.751 202.28C498.791 202.34 497.825 202.4 496.853 202.46C495.893 202.508 494.975 202.556 494.099 202.604C493.235 202.652 492.449 202.7 491.741 202.748L491.615 201.29ZM498.113 199.958L499.391 199.598C499.631 199.934 499.859 200.3 500.075 200.696C500.303 201.08 500.501 201.464 500.669 201.848C500.837 202.232 500.957 202.58 501.029 202.892L499.679 203.288C499.619 202.988 499.505 202.646 499.337 202.262C499.181 201.866 498.995 201.47 498.779 201.074C498.575 200.666 498.353 200.294 498.113 199.958ZM492.065 187.808H493.739V191.228H492.065V187.808ZM498.419 187.808H500.093V191.228H498.419V187.808ZM488.141 188.816H495.791V190.256H488.141V188.816ZM496.439 188.816H504.089V190.256H496.439V188.816ZM488.321 198.032H502.505V199.436H488.321V198.032ZM489.023 197.438H490.661V204.494H489.023V197.438Z" fill="#F38733"/>
<path d="M670 300C752.843 300 820 232.843 820 150C820 67.1573 752.843 0 670 0C587.157 0 520 67.1573 520 150C520 232.843 587.157 300 670 300Z" fill="url(#paint13_radial_1766_51004)"/>
<path d="M684.384 134.848H655.301V94H676.471L684.384 99.7958V134.848Z" fill="url(#paint14_linear_1766_51004)"/>
<path fill-rule="evenodd" clip-rule="evenodd" d="M671.473 144.248V144.246L687.992 118.67L692.504 123.217L686.257 133.281L698.508 125.993L703.228 111.486L708.087 116.38L704.686 132.726L688.652 148.76V161.425H671.473V144.248Z" fill="url(#paint15_linear_1766_51004)"/>
<path fill-rule="evenodd" clip-rule="evenodd" d="M652.004 118.67L668.524 144.248L668.521 144.249V161.425H651.342V148.757L635.311 132.726L631.875 116.38L636.768 111.486L641.454 125.993L653.705 133.281L647.458 123.217L652.004 118.67Z" fill="url(#paint16_linear_1766_51004)"/>
<path d="M668.521 164.241H648.809L651.342 152.857H668.521V164.241Z" fill="url(#paint17_linear_1766_51004)"/>
<path d="M691.15 164.241H671.473V152.857H688.617L691.15 164.241Z" fill="url(#paint18_linear_1766_51004)"/>
<path d="M669.982 123.776L661.409 115.203C659.223 113.017 659.223 109.477 661.409 107.325C663.596 105.139 667.101 105.139 669.287 107.325L669.982 107.985L670.676 107.325C672.862 105.139 676.367 105.139 678.554 107.325C680.74 109.512 680.74 113.017 678.554 115.203L669.982 123.776Z" fill="white"/>
<path d="M664.93 108.415L663.09 110.256L664.93 112.096L666.771 110.256L664.93 108.415Z" fill="url(#paint19_linear_1766_51004)"/>
<path d="M666.508 157.338H664.113V159.733H666.508V157.338Z" fill="white"/>
<path d="M675.809 157.338H673.414V159.733H675.809V157.338Z" fill="white"/>
<path d="M676.469 94L684.382 99.7958L677.44 101.253L676.469 94Z" fill="url(#paint20_linear_1766_51004)"/>
<path d="M601.276 194.018V195.908H604.894V194.018H601.276ZM599.8 192.668H606.46V197.258H599.8V192.668ZM598.9 189.95H607.144V191.444H598.9V189.95ZM607.342 192.434H615.244V193.982H607.342V192.434ZM610.924 195.188H612.4V202.118C612.4 202.286 612.406 202.424 612.418 202.532C612.442 202.64 612.472 202.712 612.508 202.748C612.568 202.784 612.622 202.808 612.67 202.82C612.73 202.832 612.802 202.838 612.886 202.838C612.958 202.838 613.054 202.838 613.174 202.838C613.306 202.838 613.42 202.838 613.516 202.838C613.6 202.838 613.684 202.832 613.768 202.82C613.852 202.808 613.912 202.79 613.948 202.766C614.056 202.718 614.134 202.544 614.182 202.244C614.206 202.088 614.224 201.836 614.236 201.488C614.248 201.14 614.254 200.732 614.254 200.264C614.41 200.408 614.614 200.546 614.866 200.678C615.118 200.81 615.358 200.912 615.586 200.984C615.574 201.404 615.544 201.824 615.496 202.244C615.46 202.664 615.418 202.97 615.37 203.162C615.238 203.534 615.022 203.792 614.722 203.936C614.59 204.008 614.422 204.056 614.218 204.08C614.026 204.116 613.846 204.134 613.678 204.134C613.594 204.134 613.474 204.134 613.318 204.134C613.174 204.134 613.03 204.134 612.886 204.134C612.742 204.134 612.622 204.134 612.526 204.134C612.334 204.134 612.13 204.104 611.914 204.044C611.698 203.984 611.512 203.894 611.356 203.774C611.212 203.642 611.104 203.462 611.032 203.234C610.96 203.006 610.924 202.592 610.924 201.992V195.188ZM609.754 187.844H611.374C611.362 188.984 611.332 190.172 611.284 191.408C611.248 192.632 611.158 193.856 611.014 195.08C610.882 196.304 610.66 197.492 610.348 198.644C610.036 199.796 609.616 200.876 609.088 201.884C608.56 202.88 607.882 203.768 607.054 204.548C606.922 204.368 606.742 204.176 606.514 203.972C606.286 203.78 606.064 203.624 605.848 203.504C606.64 202.796 607.282 201.974 607.774 201.038C608.266 200.102 608.65 199.094 608.926 198.014C609.202 196.934 609.394 195.818 609.502 194.666C609.622 193.502 609.694 192.344 609.718 191.192C609.742 190.04 609.754 188.924 609.754 187.844ZM602.446 196.844H603.976V202.802C603.976 203.15 603.934 203.432 603.85 203.648C603.778 203.864 603.622 204.032 603.382 204.152C603.142 204.272 602.854 204.344 602.518 204.368C602.182 204.392 601.774 204.404 601.294 204.404C601.27 204.2 601.21 203.96 601.114 203.684C601.018 203.42 600.916 203.186 600.808 202.982C601.12 202.994 601.408 203 601.672 203C601.936 203 602.116 203 602.212 203C602.368 203 602.446 202.922 602.446 202.766V196.844ZM600.34 198.014L601.726 198.302C601.534 199.154 601.276 199.994 600.952 200.822C600.64 201.65 600.292 202.346 599.908 202.91C599.824 202.838 599.71 202.748 599.566 202.64C599.422 202.532 599.272 202.43 599.116 202.334C598.972 202.226 598.84 202.142 598.72 202.082C599.092 201.578 599.41 200.966 599.674 200.246C599.95 199.514 600.172 198.77 600.34 198.014ZM604.498 198.338L605.704 197.798C605.992 198.29 606.262 198.836 606.514 199.436C606.778 200.036 606.958 200.552 607.054 200.984L605.776 201.578C605.68 201.134 605.512 200.612 605.272 200.012C605.044 199.4 604.786 198.842 604.498 198.338ZM611.788 189.194L612.922 188.546C613.282 188.942 613.642 189.398 614.002 189.914C614.374 190.418 614.644 190.856 614.812 191.228L613.606 191.984C613.51 191.72 613.36 191.426 613.156 191.102C612.964 190.778 612.748 190.448 612.508 190.112C612.28 189.776 612.04 189.47 611.788 189.194ZM601.816 188.114L603.382 187.772C603.574 188.156 603.766 188.582 603.958 189.05C604.15 189.506 604.288 189.896 604.372 190.22L602.734 190.634C602.662 190.31 602.536 189.908 602.356 189.428C602.188 188.948 602.008 188.51 601.816 188.114ZM622.786 194.252H624.388V202.82C624.388 203.204 624.34 203.504 624.244 203.72C624.148 203.936 623.974 204.104 623.722 204.224C623.446 204.332 623.104 204.398 622.696 204.422C622.3 204.446 621.826 204.458 621.274 204.458C621.238 204.254 621.166 204.02 621.058 203.756C620.95 203.504 620.842 203.282 620.734 203.09C621.118 203.102 621.472 203.108 621.796 203.108C622.132 203.12 622.36 203.12 622.48 203.108C622.6 203.108 622.678 203.084 622.714 203.036C622.762 203 622.786 202.928 622.786 202.82V194.252ZM618.646 194.252H623.65V195.692H618.646V194.252ZM625.9 196.25H627.574V202.154C627.574 202.454 627.634 202.652 627.754 202.748C627.874 202.832 628.132 202.874 628.528 202.874C628.612 202.874 628.768 202.874 628.996 202.874C629.224 202.874 629.476 202.874 629.752 202.874C630.04 202.874 630.304 202.874 630.544 202.874C630.784 202.874 630.964 202.874 631.084 202.874C631.324 202.874 631.504 202.826 631.624 202.73C631.744 202.622 631.828 202.412 631.876 202.1C631.924 201.788 631.96 201.332 631.984 200.732C632.176 200.852 632.416 200.972 632.704 201.092C633.004 201.212 633.268 201.296 633.496 201.344C633.436 202.136 633.328 202.748 633.172 203.18C633.028 203.624 632.8 203.93 632.488 204.098C632.188 204.278 631.774 204.368 631.246 204.368C631.162 204.368 631.018 204.368 630.814 204.368C630.622 204.368 630.4 204.368 630.148 204.368C629.896 204.368 629.644 204.368 629.392 204.368C629.14 204.368 628.912 204.368 628.708 204.368C628.516 204.368 628.384 204.368 628.312 204.368C627.676 204.368 627.178 204.302 626.818 204.17C626.47 204.038 626.23 203.81 626.098 203.486C625.966 203.174 625.9 202.73 625.9 202.154V196.25ZM621.904 189.626L623.308 189.122C623.584 189.542 623.866 190.004 624.154 190.508C624.442 191 624.712 191.48 624.964 191.948C625.216 192.416 625.42 192.836 625.576 193.208L624.1 193.838C623.968 193.466 623.782 193.04 623.542 192.56C623.302 192.068 623.038 191.57 622.75 191.066C622.462 190.55 622.18 190.07 621.904 189.626ZM626.926 190.166H632.272V191.642H626.926V190.166ZM626.926 198.248H632.434V199.76H626.926V198.248ZM617.656 193.352C617.62 193.244 617.572 193.094 617.512 192.902C617.452 192.71 617.386 192.512 617.314 192.308C617.242 192.104 617.176 191.936 617.116 191.804C617.26 191.768 617.41 191.684 617.566 191.552C617.722 191.42 617.89 191.258 618.07 191.066C618.202 190.934 618.394 190.706 618.646 190.382C618.91 190.046 619.192 189.656 619.492 189.212C619.804 188.756 620.074 188.288 620.302 187.808L622.03 188.33C621.718 188.858 621.37 189.38 620.986 189.896C620.602 190.4 620.206 190.88 619.798 191.336C619.402 191.78 619.018 192.17 618.646 192.506V192.542C618.646 192.542 618.592 192.572 618.484 192.632C618.388 192.68 618.274 192.746 618.142 192.83C618.01 192.914 617.896 193.004 617.8 193.1C617.704 193.196 617.656 193.28 617.656 193.352ZM617.656 193.352L617.602 192.11L618.448 191.606L624.064 191.192C624.1 191.408 624.148 191.648 624.208 191.912C624.268 192.164 624.328 192.38 624.388 192.56C623.008 192.68 621.898 192.782 621.058 192.866C620.23 192.95 619.588 193.022 619.132 193.082C618.676 193.13 618.346 193.178 618.142 193.226C617.938 193.262 617.776 193.304 617.656 193.352ZM617.836 194.252H619.42V198.536C619.42 199.148 619.384 199.82 619.312 200.552C619.24 201.272 619.096 201.986 618.88 202.694C618.676 203.39 618.358 204.014 617.926 204.566C617.854 204.446 617.746 204.308 617.602 204.152C617.458 204.008 617.308 203.864 617.152 203.72C616.996 203.576 616.858 203.468 616.738 203.396C617.074 202.928 617.32 202.418 617.476 201.866C617.632 201.302 617.728 200.732 617.764 200.156C617.812 199.568 617.836 199.016 617.836 198.5V194.252ZM619.132 200.894C619.66 200.654 620.284 200.354 621.004 199.994C621.736 199.634 622.48 199.256 623.236 198.86L623.578 199.922C622.906 200.342 622.234 200.762 621.562 201.182C620.902 201.602 620.278 201.992 619.69 202.352L619.132 200.894ZM619.42 197.294L620.302 196.484C620.59 196.664 620.896 196.868 621.22 197.096C621.544 197.324 621.856 197.546 622.156 197.762C622.456 197.966 622.696 198.152 622.876 198.32L621.976 199.238C621.784 199.058 621.544 198.854 621.256 198.626C620.968 198.398 620.662 198.17 620.338 197.942C620.014 197.702 619.708 197.486 619.42 197.294ZM625.9 187.826H627.574V193.316C627.574 193.652 627.622 193.886 627.718 194.018C627.814 194.15 628.006 194.216 628.294 194.216C628.414 194.216 628.612 194.216 628.888 194.216C629.164 194.216 629.464 194.216 629.788 194.216C630.112 194.216 630.418 194.216 630.706 194.216C630.994 194.216 631.198 194.216 631.318 194.216C631.558 194.216 631.834 194.204 632.146 194.18C632.47 194.156 632.722 194.126 632.902 194.09C632.926 194.318 632.95 194.57 632.974 194.846C632.998 195.122 633.028 195.356 633.064 195.548C632.896 195.596 632.65 195.632 632.326 195.656C632.014 195.668 631.696 195.674 631.372 195.674C631.264 195.674 631.096 195.674 630.868 195.674C630.652 195.674 630.412 195.674 630.148 195.674C629.884 195.674 629.62 195.674 629.356 195.674C629.104 195.674 628.876 195.674 628.672 195.674C628.468 195.674 628.324 195.674 628.24 195.674C627.628 195.674 627.154 195.596 626.818 195.44C626.482 195.284 626.242 195.032 626.098 194.684C625.966 194.336 625.9 193.868 625.9 193.28V187.826ZM637.168 194.558H641.488V196.124H637.168V194.558ZM640.84 194.558H642.496C642.496 194.558 642.496 194.6 642.496 194.684C642.496 194.768 642.49 194.864 642.478 194.972C642.478 195.08 642.478 195.17 642.478 195.242C642.454 196.55 642.424 197.618 642.388 198.446C642.352 199.274 642.298 199.91 642.226 200.354C642.154 200.786 642.052 201.086 641.92 201.254C641.764 201.446 641.596 201.584 641.416 201.668C641.236 201.752 641.014 201.812 640.75 201.848C640.522 201.884 640.216 201.902 639.832 201.902C639.448 201.902 639.04 201.896 638.608 201.884C638.596 201.632 638.548 201.356 638.464 201.056C638.38 200.756 638.272 200.498 638.14 200.282C638.512 200.318 638.86 200.342 639.184 200.354C639.508 200.366 639.748 200.372 639.904 200.372C640.024 200.372 640.126 200.36 640.21 200.336C640.306 200.3 640.39 200.246 640.462 200.174C640.546 200.066 640.612 199.832 640.66 199.472C640.708 199.1 640.744 198.542 640.768 197.798C640.804 197.054 640.828 196.064 640.84 194.828V194.558ZM646.042 188.798L647.086 187.772C647.446 187.952 647.824 188.162 648.22 188.402C648.616 188.63 648.988 188.864 649.336 189.104C649.684 189.344 649.972 189.566 650.2 189.77L649.12 190.922C648.904 190.718 648.622 190.49 648.274 190.238C647.938 189.986 647.572 189.734 647.176 189.482C646.792 189.23 646.414 189.002 646.042 188.798ZM648.436 193.586L650.146 194C649.39 196.34 648.346 198.392 647.014 200.156C645.694 201.92 644.128 203.348 642.316 204.44C642.244 204.308 642.13 204.152 641.974 203.972C641.818 203.804 641.662 203.63 641.506 203.45C641.35 203.282 641.206 203.144 641.074 203.036C642.862 202.076 644.374 200.792 645.61 199.184C646.846 197.576 647.788 195.71 648.436 193.586ZM637.276 190.706H651.19V192.38H637.276V190.706ZM636.142 190.706H637.924V195.872C637.924 196.532 637.9 197.246 637.852 198.014C637.804 198.782 637.714 199.568 637.582 200.372C637.45 201.164 637.258 201.932 637.006 202.676C636.754 203.42 636.418 204.086 635.998 204.674C635.914 204.566 635.776 204.434 635.584 204.278C635.404 204.122 635.218 203.972 635.026 203.828C634.846 203.696 634.69 203.594 634.558 203.522C635.05 202.802 635.404 201.998 635.62 201.11C635.848 200.21 635.992 199.304 636.052 198.392C636.112 197.48 636.142 196.634 636.142 195.854V190.706ZM643.558 187.826H645.34C645.328 189.41 645.382 190.934 645.502 192.398C645.622 193.85 645.796 195.2 646.024 196.448C646.252 197.696 646.522 198.782 646.834 199.706C647.146 200.63 647.494 201.35 647.878 201.866C648.274 202.382 648.676 202.64 649.084 202.64C649.324 202.64 649.504 202.388 649.624 201.884C649.744 201.38 649.828 200.546 649.876 199.382C650.08 199.574 650.32 199.76 650.596 199.94C650.872 200.12 651.124 200.252 651.352 200.336C651.256 201.404 651.118 202.232 650.938 202.82C650.758 203.408 650.506 203.816 650.182 204.044C649.87 204.272 649.462 204.386 648.958 204.386C648.334 204.386 647.764 204.176 647.248 203.756C646.744 203.336 646.288 202.742 645.88 201.974C645.484 201.206 645.142 200.306 644.854 199.274C644.578 198.242 644.344 197.108 644.152 195.872C643.96 194.636 643.816 193.34 643.72 191.984C643.624 190.616 643.57 189.23 643.558 187.826ZM655.276 194.018V195.908H658.894V194.018H655.276ZM653.8 192.668H660.46V197.258H653.8V192.668ZM652.9 189.95H661.144V191.444H652.9V189.95ZM661.342 192.434H669.244V193.982H661.342V192.434ZM664.924 195.188H666.4V202.118C666.4 202.286 666.406 202.424 666.418 202.532C666.442 202.64 666.472 202.712 666.508 202.748C666.568 202.784 666.622 202.808 666.67 202.82C666.73 202.832 666.802 202.838 666.886 202.838C666.958 202.838 667.054 202.838 667.174 202.838C667.306 202.838 667.42 202.838 667.516 202.838C667.6 202.838 667.684 202.832 667.768 202.82C667.852 202.808 667.912 202.79 667.948 202.766C668.056 202.718 668.134 202.544 668.182 202.244C668.206 202.088 668.224 201.836 668.236 201.488C668.248 201.14 668.254 200.732 668.254 200.264C668.41 200.408 668.614 200.546 668.866 200.678C669.118 200.81 669.358 200.912 669.586 200.984C669.574 201.404 669.544 201.824 669.496 202.244C669.46 202.664 669.418 202.97 669.37 203.162C669.238 203.534 669.022 203.792 668.722 203.936C668.59 204.008 668.422 204.056 668.218 204.08C668.026 204.116 667.846 204.134 667.678 204.134C667.594 204.134 667.474 204.134 667.318 204.134C667.174 204.134 667.03 204.134 666.886 204.134C666.742 204.134 666.622 204.134 666.526 204.134C666.334 204.134 666.13 204.104 665.914 204.044C665.698 203.984 665.512 203.894 665.356 203.774C665.212 203.642 665.104 203.462 665.032 203.234C664.96 203.006 664.924 202.592 664.924 201.992V195.188ZM663.754 187.844H665.374C665.362 188.984 665.332 190.172 665.284 191.408C665.248 192.632 665.158 193.856 665.014 195.08C664.882 196.304 664.66 197.492 664.348 198.644C664.036 199.796 663.616 200.876 663.088 201.884C662.56 202.88 661.882 203.768 661.054 204.548C660.922 204.368 660.742 204.176 660.514 203.972C660.286 203.78 660.064 203.624 659.848 203.504C660.64 202.796 661.282 201.974 661.774 201.038C662.266 200.102 662.65 199.094 662.926 198.014C663.202 196.934 663.394 195.818 663.502 194.666C663.622 193.502 663.694 192.344 663.718 191.192C663.742 190.04 663.754 188.924 663.754 187.844ZM656.446 196.844H657.976V202.802C657.976 203.15 657.934 203.432 657.85 203.648C657.778 203.864 657.622 204.032 657.382 204.152C657.142 204.272 656.854 204.344 656.518 204.368C656.182 204.392 655.774 204.404 655.294 204.404C655.27 204.2 655.21 203.96 655.114 203.684C655.018 203.42 654.916 203.186 654.808 202.982C655.12 202.994 655.408 203 655.672 203C655.936 203 656.116 203 656.212 203C656.368 203 656.446 202.922 656.446 202.766V196.844ZM654.34 198.014L655.726 198.302C655.534 199.154 655.276 199.994 654.952 200.822C654.64 201.65 654.292 202.346 653.908 202.91C653.824 202.838 653.71 202.748 653.566 202.64C653.422 202.532 653.272 202.43 653.116 202.334C652.972 202.226 652.84 202.142 652.72 202.082C653.092 201.578 653.41 200.966 653.674 200.246C653.95 199.514 654.172 198.77 654.34 198.014ZM658.498 198.338L659.704 197.798C659.992 198.29 660.262 198.836 660.514 199.436C660.778 200.036 660.958 200.552 661.054 200.984L659.776 201.578C659.68 201.134 659.512 200.612 659.272 200.012C659.044 199.4 658.786 198.842 658.498 198.338ZM665.788 189.194L666.922 188.546C667.282 188.942 667.642 189.398 668.002 189.914C668.374 190.418 668.644 190.856 668.812 191.228L667.606 191.984C667.51 191.72 667.36 191.426 667.156 191.102C666.964 190.778 666.748 190.448 666.508 190.112C666.28 189.776 666.04 189.47 665.788 189.194ZM655.816 188.114L657.382 187.772C657.574 188.156 657.766 188.582 657.958 189.05C658.15 189.506 658.288 189.896 658.372 190.22L656.734 190.634C656.662 190.31 656.536 189.908 656.356 189.428C656.188 188.948 656.008 188.51 655.816 188.114ZM670.756 195.044H687.316V196.916H670.756V195.044ZM698.746 188.024H700.456V204.512H698.746V188.024ZM695.65 188.744L697.288 189.086C697.132 189.902 696.934 190.718 696.694 191.534C696.454 192.338 696.184 193.088 695.884 193.784C695.596 194.48 695.284 195.098 694.948 195.638C694.84 195.554 694.696 195.464 694.516 195.368C694.336 195.26 694.15 195.158 693.958 195.062C693.778 194.954 693.616 194.87 693.472 194.81C693.82 194.318 694.132 193.748 694.408 193.1C694.684 192.452 694.924 191.756 695.128 191.012C695.344 190.268 695.518 189.512 695.65 188.744ZM696.064 191.408H704.434V193.082H695.632L696.064 191.408ZM693.688 196.664H705.262V198.338H693.688V196.664ZM692.626 187.88L694.228 188.366C693.856 189.386 693.412 190.4 692.896 191.408C692.392 192.404 691.84 193.352 691.24 194.252C690.652 195.14 690.04 195.926 689.404 196.61C689.356 196.466 689.272 196.286 689.152 196.07C689.044 195.854 688.924 195.638 688.792 195.422C688.672 195.194 688.564 195.014 688.468 194.882C689.02 194.306 689.548 193.646 690.052 192.902C690.568 192.146 691.048 191.342 691.492 190.49C691.936 189.626 692.314 188.756 692.626 187.88ZM690.808 192.65L692.428 191.048L692.446 191.066V204.494H690.808V192.65ZM714.514 189.032H721.552V190.58H714.514V189.032ZM713.74 195.35H723.352V196.97H713.74V195.35ZM717.772 193.442H719.536V202.586C719.536 203.054 719.47 203.414 719.338 203.666C719.218 203.918 718.99 204.11 718.654 204.242C718.342 204.374 717.946 204.452 717.466 204.476C716.986 204.512 716.392 204.53 715.684 204.53C715.636 204.29 715.552 204.014 715.432 203.702C715.312 203.39 715.198 203.12 715.09 202.892C715.414 202.904 715.732 202.916 716.044 202.928C716.368 202.928 716.644 202.928 716.872 202.928C717.112 202.928 717.28 202.928 717.376 202.928C717.52 202.916 717.622 202.886 717.682 202.838C717.742 202.79 717.772 202.7 717.772 202.568V193.442ZM720.922 189.032H721.372L721.768 188.942L722.938 189.77C722.578 190.31 722.17 190.862 721.714 191.426C721.27 191.99 720.796 192.53 720.292 193.046C719.788 193.562 719.278 194.012 718.762 194.396C718.654 194.252 718.498 194.084 718.294 193.892C718.09 193.7 717.916 193.55 717.772 193.442C718.18 193.094 718.582 192.686 718.978 192.218C719.386 191.738 719.758 191.252 720.094 190.76C720.442 190.256 720.718 189.806 720.922 189.41V189.032ZM707.026 197.654L708.052 196.466C708.568 196.862 709.108 197.294 709.672 197.762C710.248 198.23 710.818 198.71 711.382 199.202C711.958 199.694 712.486 200.174 712.966 200.642C713.458 201.098 713.86 201.512 714.172 201.884L713.056 203.306C712.744 202.922 712.354 202.49 711.886 202.01C711.418 201.53 710.902 201.038 710.338 200.534C709.786 200.018 709.222 199.514 708.646 199.022C708.082 198.53 707.542 198.074 707.026 197.654ZM707.026 197.654C707.218 197.03 707.404 196.322 707.584 195.53C707.764 194.726 707.932 193.886 708.088 193.01C708.244 192.122 708.382 191.24 708.502 190.364C708.634 189.476 708.73 188.636 708.79 187.844L710.482 187.934C710.386 188.762 710.266 189.638 710.122 190.562C709.99 191.474 709.834 192.386 709.654 193.298C709.486 194.21 709.306 195.08 709.114 195.908C708.934 196.736 708.76 197.48 708.592 198.14L707.026 197.654ZM711.76 190.364H713.344V192.236C713.344 192.92 713.314 193.67 713.254 194.486C713.194 195.302 713.062 196.148 712.858 197.024C712.666 197.9 712.366 198.776 711.958 199.652C711.562 200.528 711.028 201.38 710.356 202.208C709.696 203.036 708.862 203.822 707.854 204.566C707.77 204.434 707.656 204.29 707.512 204.134C707.368 203.99 707.218 203.846 707.062 203.702C706.906 203.57 706.768 203.462 706.648 203.378C707.584 202.706 708.364 201.992 708.988 201.236C709.624 200.48 710.128 199.706 710.5 198.914C710.872 198.11 711.148 197.318 711.328 196.538C711.508 195.746 711.622 194.984 711.67 194.252C711.73 193.52 711.76 192.836 711.76 192.2V190.364ZM706.594 191.858C707.266 191.834 708.022 191.804 708.862 191.768C709.702 191.72 710.59 191.672 711.526 191.624C712.474 191.564 713.416 191.51 714.352 191.462V193.01C712.996 193.094 711.652 193.178 710.32 193.262C708.988 193.346 707.806 193.418 706.774 193.478L706.594 191.858ZM732.064 187.808H733.792V202.766C733.792 203.222 733.726 203.564 733.594 203.792C733.462 204.02 733.24 204.194 732.928 204.314C732.616 204.422 732.214 204.488 731.722 204.512C731.23 204.548 730.6 204.566 729.832 204.566C729.796 204.362 729.718 204.128 729.598 203.864C729.49 203.6 729.376 203.372 729.256 203.18C729.592 203.192 729.922 203.198 730.246 203.198C730.57 203.21 730.852 203.21 731.092 203.198C731.344 203.198 731.524 203.198 731.632 203.198C731.8 203.186 731.914 203.15 731.974 203.09C732.034 203.042 732.064 202.934 732.064 202.766V187.808ZM725.152 189.122H740.884V190.49H725.152V189.122ZM728.662 192.542V193.64H737.356V192.542H728.662ZM727.024 191.426H739.084V194.774H727.024V191.426ZM726.538 195.854H739.372V202.604H737.662V197.042H726.538V195.854ZM724.792 198.086H741.262V199.418H724.792V198.086ZM726.394 200.552H738.562V201.812H726.394V200.552Z" fill="#F38733"/>
</g>
<defs>
<radialGradient id="paint0_radial_1766_51004" cx="0" cy="0" r="1" gradientUnits="userSpaceOnUse" gradientTransform="translate(150 150) rotate(90) scale(1063.75)">
<stop offset="0.0645686" stop-color="white" stop-opacity="0.5"/>
<stop offset="0.287905" stop-color="#F38733"/>
</radialGradient>
<linearGradient id="paint1_linear_1766_51004" x1="143.305" y1="80.8355" x2="143.305" y2="121.69" gradientUnits="userSpaceOnUse">
<stop stop-color="#FFC56D"/>
<stop offset="1" stop-color="#F56700"/>
</linearGradient>
<linearGradient id="paint2_linear_1766_51004" x1="151.78" y1="137.119" x2="151.78" y2="195.077" gradientUnits="userSpaceOnUse">
<stop stop-color="#FBEABE"/>
<stop offset="0.505668" stop-color="#FEA03D"/>
</linearGradient>
<linearGradient id="paint3_linear_1766_51004" x1="150.84" y1="125.094" x2="150.84" y2="143.225" gradientUnits="userSpaceOnUse">
<stop stop-color="#FBEABE"/>
<stop offset="0.505668" stop-color="#FEA03D"/>
</linearGradient>
<linearGradient id="paint4_linear_1766_51004" x1="130.749" y1="137.119" x2="130.749" y2="195.077" gradientUnits="userSpaceOnUse">
<stop stop-color="#FBEABE"/>
<stop offset="0.505668" stop-color="#FEA03D"/>
</linearGradient>
<linearGradient id="paint5_linear_1766_51004" x1="129.809" y1="125.094" x2="129.809" y2="143.225" gradientUnits="userSpaceOnUse">
<stop stop-color="#FBEABE"/>
<stop offset="0.505668" stop-color="#FEA03D"/>
</linearGradient>
<linearGradient id="paint6_linear_1766_51004" x1="172.824" y1="137.119" x2="172.824" y2="195.077" gradientUnits="userSpaceOnUse">
<stop stop-color="#FBEABE"/>
<stop offset="0.505668" stop-color="#FEA03D"/>
</linearGradient>
<linearGradient id="paint7_linear_1766_51004" x1="171.715" y1="125.094" x2="171.715" y2="143.225" gradientUnits="userSpaceOnUse">
<stop stop-color="#FBEABE"/>
<stop offset="0.505668" stop-color="#FEA03D"/>
</linearGradient>
<radialGradient id="paint8_radial_1766_51004" cx="0" cy="0" r="1" gradientUnits="userSpaceOnUse" gradientTransform="translate(410 150) rotate(90) scale(1063.75)">
<stop offset="0.0645686" stop-color="white" stop-opacity="0.5"/>
<stop offset="0.287905" stop-color="#F38733"/>
</radialGradient>
<linearGradient id="paint9_linear_1766_51004" x1="424.313" y1="93" x2="424.313" y2="146.699" gradientUnits="userSpaceOnUse">
<stop stop-color="#FBEABE"/>
<stop offset="0.64627" stop-color="#FEA03D"/>
</linearGradient>
<linearGradient id="paint10_linear_1766_51004" x1="405.146" y1="87.0404" x2="405.146" y2="125.479" gradientUnits="userSpaceOnUse">
<stop stop-color="#FFC56D"/>
<stop offset="1" stop-color="#F56700"/>
</linearGradient>
<linearGradient id="paint11_linear_1766_51004" x1="386.345" y1="126.409" x2="386.345" y2="165" gradientUnits="userSpaceOnUse">
<stop stop-color="#FFC56D"/>
<stop offset="1" stop-color="#F56700"/>
</linearGradient>
<linearGradient id="paint12_linear_1766_51004" x1="420.79" y1="130.281" x2="420.79" y2="180" gradientUnits="userSpaceOnUse">
<stop stop-color="#FBEABE"/>
<stop offset="0.64627" stop-color="#FEA03D"/>
</linearGradient>
<radialGradient id="paint13_radial_1766_51004" cx="0" cy="0" r="1" gradientUnits="userSpaceOnUse" gradientTransform="translate(670 150) rotate(90) scale(1063.75)">
<stop offset="0.0645686" stop-color="white" stop-opacity="0.5"/>
<stop offset="0.287905" stop-color="#F38733"/>
</radialGradient>
<linearGradient id="paint14_linear_1766_51004" x1="666.207" y1="78.6394" x2="666.207" y2="134.848" gradientUnits="userSpaceOnUse">
<stop stop-color="#FFC56D"/>
<stop offset="1" stop-color="#F56700"/>
</linearGradient>
<linearGradient id="paint15_linear_1766_51004" x1="693.629" y1="111.486" x2="693.629" y2="177" gradientUnits="userSpaceOnUse">
<stop offset="0.213402" stop-color="#FBEABE"/>
<stop offset="1" stop-color="#FEA03D"/>
</linearGradient>
<linearGradient id="paint16_linear_1766_51004" x1="654.052" y1="111.486" x2="654.052" y2="177" gradientUnits="userSpaceOnUse">
<stop offset="0.213402" stop-color="#FBEABE"/>
<stop offset="1" stop-color="#FEA03D"/>
</linearGradient>
<linearGradient id="paint17_linear_1766_51004" x1="656.201" y1="148.577" x2="656.201" y2="164.241" gradientUnits="userSpaceOnUse">
<stop stop-color="#FFC56D"/>
<stop offset="1" stop-color="#F56700"/>
</linearGradient>
<linearGradient id="paint18_linear_1766_51004" x1="678.852" y1="148.577" x2="678.852" y2="164.241" gradientUnits="userSpaceOnUse">
<stop stop-color="#FFC56D"/>
<stop offset="1" stop-color="#F56700"/>
</linearGradient>
<linearGradient id="paint19_linear_1766_51004" x1="664.204" y1="109.142" x2="664.204" y2="115" gradientUnits="userSpaceOnUse">
<stop stop-color="#FBEABE"/>
<stop offset="1" stop-color="#FEA03D"/>
</linearGradient>
<linearGradient id="paint20_linear_1766_51004" x1="681.257" y1="94" x2="681.257" y2="108.86" gradientUnits="userSpaceOnUse">
<stop stop-color="#FBEABE"/>
<stop offset="1" stop-color="#FEA03D"/>
</linearGradient>
<clipPath id="clip0_1766_51004">
<rect width="820" height="300" fill="white"/>
</clipPath>
</defs>
</svg>
