<svg width="1200" height="136" viewBox="0 0 1200 136" fill="none" xmlns="http://www.w3.org/2000/svg">
<rect width="1200" height="136" fill="white"/>
<path d="M5.92188 18.1221H16.7759V19.3641H5.92188V18.1221ZM5.21988 22.5321H17.2979V23.9001H5.21988V22.5321ZM5.07588 29.3181H17.3879V30.6861H5.07588V29.3181ZM6.31788 20.3361H16.4519V21.5421H6.31788V20.3361ZM7.52388 27.0501H14.8499V28.2381H7.52388V27.0501ZM8.27988 16.7901H9.91788V23.2521H8.27988V16.7901ZM12.5819 16.7901H14.2379V23.2521H12.5819V16.7901ZM10.4219 23.3961H12.0059V30.0021H10.4219V23.3961ZM14.4539 24.7641H16.0919V31.8741C16.0919 32.6481 15.9119 33.0261 15.3539 33.2781C14.7779 33.4941 13.9139 33.4941 12.6359 33.4941C12.5279 33.0981 12.2759 32.5221 12.0779 32.1621C12.9419 32.1801 13.8599 32.1801 14.1119 32.1801C14.3639 32.1621 14.4539 32.1081 14.4539 31.8561V24.7641ZM6.60588 24.7641H14.9759V25.9881H8.20788V33.4761H6.60588V24.7641ZM1.54788 18.2121L2.50188 16.9341C3.58188 17.4021 4.94988 18.1761 5.61588 18.7881L4.60788 20.1921C3.97788 19.5621 2.62788 18.7161 1.54788 18.2121ZM0.629883 23.0181L1.56588 21.7401C2.64588 22.1541 4.01388 22.8921 4.67988 23.4681L3.70788 24.8721C3.05988 24.2781 1.72788 23.4861 0.629883 23.0181ZM1.07988 32.2881C1.92588 30.8841 3.13188 28.5441 4.03188 26.4381L5.36388 27.4641C4.57188 29.3901 3.52788 31.5861 2.60988 33.3141L1.07988 32.2881ZM26.1899 20.0481L27.2699 19.1121C28.9439 19.7061 31.2299 20.6781 32.4359 21.3981L31.2839 22.4421C30.1679 21.7401 27.8999 20.6961 26.1899 20.0481ZM24.4799 21.3261H33.6239V22.6041H25.9919V30.6321H24.4799V21.3261ZM33.0119 21.3261H34.5599V29.1201C34.5599 29.8581 34.3979 30.2181 33.8939 30.4521C33.4079 30.6681 32.6519 30.6681 31.4999 30.6681C31.4459 30.2901 31.2479 29.7321 31.0679 29.3721C31.8239 29.4081 32.5079 29.3901 32.7239 29.3901C32.9579 29.3901 33.0119 29.3181 33.0119 29.1201V21.3261ZM24.5879 17.4921H33.3899V18.7881H24.5879V17.4921ZM25.3979 23.9181H33.5519V25.1421H25.3979V23.9181ZM25.3979 26.5101H33.5519V27.7881H25.3979V26.5101ZM28.7099 21.9021H30.1679V30.5781H28.7099V21.9021ZM32.7959 17.4921H33.1919L33.5339 17.4021L34.5599 18.2301C33.3179 19.3821 31.5179 20.5701 29.8619 21.3081C29.6639 21.0201 29.2499 20.5701 28.9979 20.3361C30.4199 19.7241 32.0399 18.6441 32.7959 17.7981V17.4921ZM19.3679 17.6001L20.6459 16.8261C21.4739 17.6901 22.4819 18.8241 22.9859 19.5621L21.6899 20.4981C21.2039 19.7421 20.1779 18.4821 19.3679 17.6001ZM18.8099 20.9841H22.6979V22.3701H18.8099V20.9841ZM22.2119 29.0481C23.2559 31.4421 25.5059 31.7481 28.9439 31.7661C30.8339 31.7661 33.6239 31.6581 35.5499 31.4961C35.3159 31.8381 35.0819 32.6301 34.9919 33.0981C33.2279 33.2061 30.9419 33.2421 28.9079 33.2421C24.7139 33.2421 22.4099 32.7201 21.0779 29.5521L22.2119 29.0481ZM22.1579 25.4301H22.5539L22.8419 25.3941L23.6699 25.7001C23.0579 29.6061 21.5639 32.1981 19.5119 33.5481C19.2959 33.2241 18.7379 32.6301 18.4139 32.3961C20.3399 31.2081 21.6719 28.9401 22.1579 25.7001V25.4301ZM19.0979 27.0321V25.7901L19.7999 25.4301H22.6799L22.6619 26.7801H20.1779C19.7279 26.7801 19.2419 26.8881 19.0979 27.0321ZM19.0979 27.0321C18.9899 26.6721 18.6659 25.9161 18.5039 25.5921C18.7919 25.5201 19.0799 25.3941 19.4039 25.0341C19.9619 24.4941 21.6719 22.1181 22.2839 21.1461V21.0921L22.7519 20.8941L23.8319 21.3981C22.9679 22.6221 21.3299 24.8901 20.3039 26.0601C20.3039 26.0601 19.0979 26.6361 19.0979 27.0321ZM40.9679 31.6941H50.1479V32.9901H40.9679V31.6941ZM37.6019 21.8481H52.5959V24.9081H50.8679V23.1621H39.2399V24.9081H37.6019V21.8481ZM40.8779 24.1161H50.3639V27.9141H40.8779V26.6721H48.7079V25.3761H40.8779V24.1161ZM40.9679 28.9761H51.3179V33.5121H49.6259V30.2721H40.9679V28.9761ZM39.6539 24.1161H41.3819V33.5481H39.6539V24.1161ZM43.7759 20.7681L45.2879 20.4621C45.6299 20.9661 46.0079 21.7041 46.1339 22.1901L44.5319 22.5501C44.4059 22.0821 44.0819 21.3261 43.7759 20.7681ZM39.1499 18.0141H44.8379V19.3461H39.1499V18.0141ZM46.5839 18.0321H53.2439V19.3461H46.5839V18.0321ZM39.3839 16.6641L40.8959 17.0961C40.1939 18.8241 38.9879 20.5701 37.8539 21.7041C37.6019 21.3981 37.0259 20.8221 36.6839 20.5521C37.7819 19.5801 38.8079 18.1401 39.3839 16.6641ZM46.8179 16.6641L48.3839 17.0601C47.8259 18.5001 46.8539 19.9221 45.8639 20.8041C45.5759 20.5341 44.9639 20.0121 44.5859 19.7961C45.5399 19.0221 46.3679 17.8701 46.8179 16.6641ZM40.3919 19.9221L41.4179 19.0401C42.0119 19.5261 42.7679 20.2461 43.1459 20.6961L42.0479 21.6681C41.7059 21.2001 40.9679 20.4441 40.3919 19.9221ZM48.2399 19.9941L49.3379 19.0941C50.0039 19.5981 50.8859 20.3361 51.3359 20.8401L50.1839 21.8481C49.7879 21.3261 48.9239 20.5521 48.2399 19.9941ZM59.5979 19.0941H71.0819V20.4981H59.5979V19.0941ZM64.3319 19.7061L66.2939 19.8501C65.9339 20.7861 65.4479 21.7761 65.0879 22.4241L63.6839 22.2081C63.9359 21.4521 64.2239 20.4261 64.3319 19.7061ZM67.4819 16.8081L69.1379 17.2761C68.5439 18.1761 67.9319 19.1301 67.4099 19.7421L66.0599 19.3101C66.5639 18.6261 67.1579 17.5641 67.4819 16.8081ZM61.3259 17.4021L62.6759 16.8621C63.1259 17.4381 63.6659 18.2481 63.8999 18.7701L62.4959 19.4001C62.2799 18.8601 61.7759 18.0141 61.3259 17.4021ZM62.6399 25.3401V26.6181H67.9319V25.3401H62.6399ZM62.6399 27.7521V29.0481H67.9319V27.7521H62.6399ZM62.6399 22.9281V24.2061H67.9319V22.9281H62.6399ZM61.0379 21.6861H69.6239V30.2901H61.0379V21.6861ZM55.3679 17.6001L56.6459 16.8261C57.4739 17.6901 58.4819 18.8241 58.9859 19.5621L57.6719 20.4981C57.1859 19.7421 56.1779 18.4821 55.3679 17.6001ZM54.8099 20.9841H58.6979V22.3701H54.8099V20.9841ZM58.2119 29.0481C59.2559 31.4421 61.5059 31.7481 64.9439 31.7661C66.8339 31.7661 69.6239 31.6581 71.5499 31.4961C71.3159 31.8381 71.0819 32.6301 70.9919 33.0981C69.2279 33.2061 66.9419 33.2421 64.9079 33.2421C60.7139 33.2421 58.4099 32.7201 57.0779 29.5521L58.2119 29.0481ZM58.1579 25.4301H58.5539L58.8419 25.3941L59.6699 25.7001C59.0579 29.6061 57.5639 32.1981 55.5119 33.5481C55.2959 33.2241 54.7379 32.6301 54.4139 32.3961C56.3399 31.2081 57.6719 28.9401 58.1579 25.7001V25.4301ZM55.0979 27.0321V25.7901L55.7999 25.4301H58.6799L58.6619 26.7801H56.1779C55.7279 26.7801 55.2419 26.8881 55.0979 27.0321ZM55.0979 27.0321C54.9899 26.6721 54.6659 25.9161 54.5039 25.5921C54.7919 25.5201 55.0799 25.3941 55.4039 25.0341C55.9619 24.4941 57.6719 22.1181 58.2839 21.1461V21.0921L58.7519 20.8941L59.8319 21.3981C58.9679 22.6221 57.3299 24.8901 56.3039 26.0601C56.3039 26.0601 55.0979 26.6361 55.0979 27.0321Z" fill="#4F4F4F"/>
<path d="M5.92188 106.121H16.7759V107.363H5.92188V106.121ZM5.21988 110.531H17.2979V111.899H5.21988V110.531ZM5.07588 117.317H17.3879V118.685H5.07588V117.317ZM6.31788 108.335H16.4519V109.541H6.31788V108.335ZM7.52388 115.049H14.8499V116.237H7.52388V115.049ZM8.27988 104.789H9.91788V111.251H8.27988V104.789ZM12.5819 104.789H14.2379V111.251H12.5819V104.789ZM10.4219 111.395H12.0059V118.001H10.4219V111.395ZM14.4539 112.763H16.0919V119.873C16.0919 120.647 15.9119 121.025 15.3539 121.277C14.7779 121.493 13.9139 121.493 12.6359 121.493C12.5279 121.097 12.2759 120.521 12.0779 120.161C12.9419 120.179 13.8599 120.179 14.1119 120.179C14.3639 120.161 14.4539 120.107 14.4539 119.855V112.763ZM6.60588 112.763H14.9759V113.987H8.20788V121.475H6.60588V112.763ZM1.54788 106.211L2.50188 104.933C3.58188 105.401 4.94988 106.175 5.61588 106.787L4.60788 108.191C3.97788 107.561 2.62788 106.715 1.54788 106.211ZM0.629883 111.017L1.56588 109.739C2.64588 110.153 4.01388 110.891 4.67988 111.467L3.70788 112.871C3.05988 112.277 1.72788 111.485 0.629883 111.017ZM1.07988 120.287C1.92588 118.883 3.13188 116.543 4.03188 114.437L5.36388 115.463C4.57188 117.389 3.52788 119.585 2.60988 121.313L1.07988 120.287ZM26.1899 108.047L27.2699 107.111C28.9439 107.705 31.2299 108.677 32.4359 109.397L31.2839 110.441C30.1679 109.739 27.8999 108.695 26.1899 108.047ZM24.4799 109.325H33.6239V110.603H25.9919V118.631H24.4799V109.325ZM33.0119 109.325H34.5599V117.119C34.5599 117.857 34.3979 118.217 33.8939 118.451C33.4079 118.667 32.6519 118.667 31.4999 118.667C31.4459 118.289 31.2479 117.731 31.0679 117.371C31.8239 117.407 32.5079 117.389 32.7239 117.389C32.9579 117.389 33.0119 117.317 33.0119 117.119V109.325ZM24.5879 105.491H33.3899V106.787H24.5879V105.491ZM25.3979 111.917H33.5519V113.141H25.3979V111.917ZM25.3979 114.509H33.5519V115.787H25.3979V114.509ZM28.7099 109.901H30.1679V118.577H28.7099V109.901ZM32.7959 105.491H33.1919L33.5339 105.401L34.5599 106.229C33.3179 107.381 31.5179 108.569 29.8619 109.307C29.6639 109.019 29.2499 108.569 28.9979 108.335C30.4199 107.723 32.0399 106.643 32.7959 105.797V105.491ZM19.3679 105.599L20.6459 104.825C21.4739 105.689 22.4819 106.823 22.9859 107.561L21.6899 108.497C21.2039 107.741 20.1779 106.481 19.3679 105.599ZM18.8099 108.983H22.6979V110.369H18.8099V108.983ZM22.2119 117.047C23.2559 119.441 25.5059 119.747 28.9439 119.765C30.8339 119.765 33.6239 119.657 35.5499 119.495C35.3159 119.837 35.0819 120.629 34.9919 121.097C33.2279 121.205 30.9419 121.241 28.9079 121.241C24.7139 121.241 22.4099 120.719 21.0779 117.551L22.2119 117.047ZM22.1579 113.429H22.5539L22.8419 113.393L23.6699 113.699C23.0579 117.605 21.5639 120.197 19.5119 121.547C19.2959 121.223 18.7379 120.629 18.4139 120.395C20.3399 119.207 21.6719 116.939 22.1579 113.699V113.429ZM19.0979 115.031V113.789L19.7999 113.429H22.6799L22.6619 114.779H20.1779C19.7279 114.779 19.2419 114.887 19.0979 115.031ZM19.0979 115.031C18.9899 114.671 18.6659 113.915 18.5039 113.591C18.7919 113.519 19.0799 113.393 19.4039 113.033C19.9619 112.493 21.6719 110.117 22.2839 109.145V109.091L22.7519 108.893L23.8319 109.397C22.9679 110.621 21.3299 112.889 20.3039 114.059C20.3039 114.059 19.0979 114.635 19.0979 115.031ZM41.2199 107.021H44.5319V108.425H41.2199V107.021ZM36.6299 110.297H45.0539V111.809H36.6299V110.297ZM40.4099 104.789H41.9219V111.143H40.4099V104.789ZM37.8539 106.373H39.2219V111.179H37.8539V106.373ZM43.4339 113.069L44.9639 113.411C43.9559 117.587 41.8319 120.125 37.8539 121.583C37.6739 121.151 37.2959 120.593 36.9179 120.233C40.5719 119.099 42.5519 116.795 43.4339 113.069ZM38.2139 112.727L39.6539 113.033C39.2759 114.545 38.5919 116.057 37.8359 117.065C37.5659 116.849 36.9359 116.453 36.5939 116.273C37.3139 115.355 37.8719 114.023 38.2139 112.727ZM45.0899 105.617H53.2259V107.057H45.0899V105.617ZM47.2679 112.601V114.059H51.2459V112.601H47.2679ZM47.2679 115.283V116.777H51.2459V115.283H47.2679ZM47.2679 109.919V111.359H51.2459V109.919H47.2679ZM45.7559 108.605H52.8299V118.055H45.7559V108.605ZM48.5099 106.373L50.1299 106.643C49.8419 107.651 49.5179 108.713 49.2839 109.433L48.0239 109.127C48.2039 108.335 48.4199 107.183 48.5099 106.373ZM47.6099 118.199L48.7079 119.279C47.6279 120.125 46.0979 121.043 44.8919 121.619C44.7299 121.259 44.4059 120.701 44.1539 120.359C45.2879 119.837 46.7999 118.919 47.6099 118.199ZM49.7519 119.189L50.6699 118.163C51.6059 118.739 52.8839 119.657 53.5139 120.305L52.5419 121.457C51.9479 120.809 50.7059 119.837 49.7519 119.189ZM40.2659 111.467H41.8139V117.263H40.2659V111.467ZM62.0819 114.977H63.8999V121.511H62.0819V114.977ZM54.8459 116.345H71.1539V117.929H54.8459V116.345ZM55.2599 106.355H70.9559V107.903H55.2599V106.355ZM68.8139 108.425L70.2359 109.271C69.4259 110.099 68.4179 110.963 67.6079 111.521L66.3659 110.729C67.1399 110.135 68.2199 109.145 68.8139 108.425ZM63.8999 112.079L65.1419 111.593C65.9339 112.547 66.8159 113.861 67.1579 114.725L65.8259 115.265C65.5019 114.419 64.6739 113.051 63.8999 112.079ZM54.8819 113.807C55.9979 113.357 57.7079 112.601 59.3459 111.863L59.6879 113.123C58.3379 113.843 56.8979 114.599 55.7099 115.175L54.8819 113.807ZM55.3859 109.415L56.5379 108.497C57.4919 109.037 58.6979 109.883 59.3099 110.477L58.1039 111.503C57.5459 110.909 56.3579 110.009 55.3859 109.415ZM66.1139 112.799L67.3019 111.881C68.4899 112.547 70.0919 113.573 70.9019 114.293L69.6419 115.301C68.9039 114.599 67.3379 113.519 66.1139 112.799ZM60.1379 111.467C60.0479 111.161 59.8139 110.459 59.6519 110.081C59.9219 110.027 60.1919 109.811 60.4799 109.487C60.7679 109.181 61.7399 107.975 62.3159 106.769L63.7379 107.345C62.9819 108.605 61.9379 109.865 61.0199 110.693V110.729C61.0199 110.729 60.1379 111.161 60.1379 111.467ZM60.1379 111.467L60.1199 110.333L60.8939 109.883L64.3139 109.721C64.2059 110.117 64.0799 110.711 64.0439 111.053C61.0019 111.233 60.4619 111.323 60.1379 111.467ZM59.7779 115.067C59.7059 114.779 59.4899 114.059 59.3099 113.645C59.7419 113.591 60.1919 113.249 60.8219 112.745C61.4879 112.223 63.6299 110.243 65.1059 108.263L66.4199 109.037C64.6919 111.071 62.6579 112.979 60.7139 114.329V114.365C60.7139 114.365 59.7779 114.779 59.7779 115.067ZM59.7779 115.067L59.7419 113.933L60.5339 113.447L65.9879 113.015C65.9339 113.411 65.8979 113.987 65.9159 114.293C60.8939 114.779 60.2099 114.887 59.7779 115.067ZM61.6139 105.113L63.3239 104.699C63.7739 105.293 64.2599 106.085 64.4939 106.625L62.7299 107.147C62.5319 106.607 62.0279 105.743 61.6139 105.113Z" fill="#4F4F4F"/>
<path d="M166.032 24.0088L166.896 23.7688C167.328 24.7768 167.776 26.0728 167.92 26.8568L167.008 27.1608C166.848 26.3608 166.448 25.0168 166.032 24.0088ZM164.608 28.0248L165.472 27.8328C165.664 28.9208 165.856 30.3128 165.904 31.2568L165.024 31.4488C164.976 30.5208 164.8 29.0968 164.608 28.0248ZM163.136 27.8648L164.048 28.0248C163.84 29.4008 163.488 30.9048 163.12 31.8968C162.928 31.7848 162.48 31.6408 162.24 31.5768C162.672 30.5848 162.944 29.1608 163.136 27.8648ZM162.544 23.5608C162.48 23.3208 162.304 22.7768 162.16 22.4888C162.432 22.4248 162.704 22.0888 162.992 21.5928C163.312 21.1288 164.336 19.2728 164.896 17.5448L165.968 17.9928C165.248 19.7688 164.24 21.6408 163.264 22.9208V22.9528C163.264 22.9528 162.544 23.3208 162.544 23.5608ZM162.544 23.5608L162.512 22.7288L163.072 22.3768L165.792 22.1368C165.744 22.4088 165.696 22.8248 165.712 23.0488C163.216 23.3368 162.784 23.4328 162.544 23.5608ZM162.64 27.1928C162.592 26.9688 162.416 26.4408 162.288 26.1528C162.608 26.0728 162.96 25.6568 163.44 25.0648C163.92 24.4728 165.552 22.1528 166.544 19.9768L167.552 20.4888C166.352 22.7288 164.832 25.0008 163.344 26.6008V26.6168C163.344 26.6168 162.64 26.9688 162.64 27.1928ZM162.64 27.1928L162.592 26.3288L163.136 25.9608L167.184 25.2728C167.136 25.5448 167.152 25.9608 167.168 26.1688C163.44 26.8888 162.96 27.0168 162.64 27.1928ZM166.08 27.7208L166.896 27.4968C167.184 28.3768 167.504 29.4968 167.632 30.2488L166.768 30.4888C166.656 29.7368 166.352 28.6008 166.08 27.7208ZM174.736 27.9928L175.584 27.6408C176.096 28.6488 176.704 29.9448 177.008 30.7768L176.096 31.1768C175.824 30.3288 175.216 29.0008 174.736 27.9928ZM169.744 27.7208H170.784V30.5528C170.784 30.9368 170.88 31.0008 171.488 31.0008C171.776 31.0008 173.232 31.0008 173.616 31.0008C174.128 31.0008 174.224 30.7928 174.288 29.3208C174.496 29.4968 174.896 29.6248 175.2 29.7048C175.072 31.4648 174.784 31.8968 173.712 31.8968C173.44 31.8968 171.664 31.8968 171.392 31.8968C170.08 31.8968 169.744 31.6248 169.744 30.5528V27.7208ZM168.592 27.7208L169.456 28.0248C169.216 29.0968 168.848 30.5528 168.384 31.4648L167.488 31.0328C167.968 30.1688 168.384 28.7608 168.592 27.7208ZM171.392 17.4648L172.608 17.7048C172.288 18.3768 171.936 19.0648 171.648 19.5288L170.72 19.2888C170.944 18.7608 171.248 17.9928 171.392 17.4648ZM172.48 20.3128L173.312 20.4408C172.72 21.5448 171.808 22.6968 170.448 23.6248C170.336 23.4488 170.08 23.1768 169.888 23.0648C171.136 22.2648 172.016 21.1928 172.48 20.3128ZM170.304 21.0168L170.976 20.5688C172.4 21.7208 174.016 23.4168 174.736 24.5048L174.032 25.0328C173.296 23.8808 171.696 22.1688 170.304 21.0168ZM174 21.1928L174.832 21.3368C174.064 22.7128 172.832 24.2168 171.056 25.3848C170.928 25.1928 170.688 24.9368 170.512 24.8088C172.176 23.7848 173.376 22.3448 174 21.1928ZM169.68 20.0888V25.5448H175.056V20.0888H169.68ZM168.608 19.0968H176.16V26.5688H168.608V19.0968ZM171.632 27.1928L172.432 26.7928C172.96 27.5928 173.648 28.6648 173.984 29.2888L173.152 29.7688C172.832 29.1128 172.176 28.0088 171.632 27.1928ZM184.208 18.3608H192.72V19.4488H184.208V18.3608ZM184.56 26.6648H192.224V27.7368H184.56V26.6648ZM183.68 30.8088H192.88V31.9128H183.68V30.8088ZM187.776 27.1768H188.976V31.4808H187.776V27.1768ZM185.744 19.9768L186.784 20.2488C186.368 21.0648 185.744 22.0888 185.2 22.9048C185.904 23.8328 186.624 24.9688 186.976 25.6888L185.968 26.1048C185.632 25.2728 184.88 24.0408 184.032 22.9208C184.672 21.9448 185.376 20.7448 185.744 19.9768ZM188.512 19.9928L189.568 20.2648C189.12 21.0808 188.496 22.0888 187.952 22.8888C188.672 23.8008 189.424 24.9208 189.776 25.6408L188.784 26.0728C188.432 25.2408 187.648 24.0088 186.768 22.9048C187.44 21.9448 188.144 20.7448 188.512 19.9928ZM191.28 19.9768L192.352 20.2648C191.872 21.0808 191.232 22.0888 190.688 22.9048C191.44 23.8168 192.24 24.9208 192.624 25.6408L191.648 26.1048C191.248 25.2728 190.4 24.0248 189.488 22.9208C190.176 21.9608 190.896 20.7448 191.28 19.9768ZM182.048 23.8808L182.976 23.6248C183.408 24.6808 183.872 26.0888 184.032 26.9368L183.056 27.2568C182.896 26.4088 182.48 24.9688 182.048 23.8808ZM180.592 28.0088L181.52 27.8328C181.712 28.9208 181.92 30.2968 181.968 31.2248L180.992 31.4168C180.96 30.4888 180.784 29.0808 180.592 28.0088ZM178.928 27.8648L179.968 28.0408C179.792 29.4488 179.472 31.0008 179.136 32.0088C178.912 31.8968 178.416 31.7368 178.16 31.6408C178.544 30.6488 178.784 29.1928 178.928 27.8648ZM178.544 23.5608C178.48 23.3208 178.304 22.7768 178.16 22.4888C178.448 22.4248 178.72 22.0888 179.056 21.5928C179.408 21.1288 180.528 19.2888 181.168 17.5448L182.256 17.9928C181.424 19.7848 180.336 21.6568 179.264 22.9368V22.9528C179.264 22.9528 178.544 23.3208 178.544 23.5608ZM178.544 23.5608L178.512 22.6808L179.088 22.3288L181.92 22.0888C181.856 22.3768 181.824 22.8088 181.824 23.0488C179.248 23.3368 178.8 23.4328 178.544 23.5608ZM178.64 27.1608C178.576 26.9208 178.4 26.3768 178.256 26.0568C178.608 25.9928 178.96 25.5768 179.44 25.0008C179.936 24.4248 181.584 22.1528 182.624 20.0088L183.648 20.6008C182.432 22.7608 180.912 24.9848 179.392 26.5368V26.5688C179.392 26.5688 178.64 26.9208 178.64 27.1608ZM178.64 27.1608L178.608 26.2808L179.184 25.9128L183.12 25.4008C183.072 25.6888 183.056 26.1208 183.072 26.3608C179.456 26.8888 178.96 27.0008 178.64 27.1608ZM182.144 27.6888L183.008 27.4168C183.328 28.2808 183.696 29.4008 183.84 30.1208L182.928 30.4248C182.8 29.6888 182.464 28.5528 182.144 27.6888ZM201.2 22.3768V24.4408H207.152V22.3768H201.2ZM201.2 19.3528V21.3848H207.152V19.3528H201.2ZM200.112 18.3128H208.304V25.4808H200.112V18.3128ZM199.904 27.3528H208.528V28.4568H199.904V27.3528ZM198.672 30.6648H209.056V31.7528H198.672V30.6648ZM194.32 18.6488H199.312V19.7848H194.32V18.6488ZM194.496 23.2728H199.088V24.4088H194.496V23.2728ZM194.16 29.4008C195.456 29.0488 197.376 28.4248 199.232 27.8008L199.44 28.9528C197.696 29.5448 195.872 30.1528 194.448 30.6328L194.16 29.4008ZM196.32 19.0968H197.472V29.0168L196.32 29.2408V19.0968ZM203.648 18.8088H204.704V24.9688H204.784V31.1608H203.568V24.9688H203.648V18.8088ZM211.696 20.1368H216.56V30.6008H211.696V29.5128H215.44V21.2088H211.696V20.1368ZM210.976 20.1368H212.096V31.8808H210.976V20.1368ZM211.616 24.5848H216.032V25.6568H211.616V24.5848ZM213.424 17.5288L214.72 17.7688C214.4 18.7608 214 19.8648 213.68 20.5848L212.72 20.3448C212.992 19.5768 213.296 18.3608 213.424 17.5288ZM218.832 20.0888H223.744V21.2088H218.832V20.0888ZM223.328 20.0888H224.448C224.448 20.0888 224.448 20.5368 224.448 20.7128C224.192 28.0568 223.968 30.5368 223.328 31.3208C222.976 31.7848 222.608 31.9288 222.048 31.9768C221.504 32.0408 220.56 32.0088 219.664 31.9608C219.632 31.6088 219.488 31.1128 219.264 30.7928C220.304 30.8728 221.264 30.8888 221.632 30.8888C221.952 30.8888 222.144 30.8408 222.32 30.6328C222.848 30.0568 223.104 27.4008 223.328 20.3448V20.0888ZM219.168 17.4968L220.32 17.7688C219.728 20.1528 218.784 22.5048 217.68 24.0248C217.472 23.8328 216.976 23.4968 216.688 23.3368C217.776 21.9288 218.656 19.7208 219.168 17.4968ZM218.432 24.2488L219.36 23.7048C220.272 24.8408 221.376 26.3928 221.888 27.3368L220.864 27.9768C220.384 27.0008 219.312 25.4168 218.432 24.2488ZM226.304 24.1048H240.944V25.4168H226.304V24.1048ZM249.808 21.3208H256.928V22.4728H249.808V21.3208ZM242.832 19.6408H249.248V20.7288H242.832V19.6408ZM242.704 26.2968H249.392V27.3848H242.704V26.2968ZM242.32 22.9528H249.568V24.0568H242.32V22.9528ZM254.16 17.7208H255.344V30.7288C255.344 31.4808 255.136 31.8168 254.672 32.0248C254.176 32.2168 253.392 32.2488 252.048 32.2488C251.984 31.9288 251.776 31.4008 251.6 31.0808C252.608 31.1128 253.488 31.0968 253.76 31.0968C254.064 31.0808 254.16 31.0008 254.16 30.7288V17.7208ZM250.432 24.3128L251.456 23.9448C252.032 25.0968 252.752 26.6648 253.104 27.5608L251.984 28.0248C251.68 27.0968 251.008 25.4968 250.432 24.3128ZM245.472 17.5608H246.624V23.5288H245.472V17.5608ZM245.472 24.4248H246.624V30.5688H245.472V24.4248ZM242.176 30.4248C244.064 30.1688 247.024 29.6888 249.824 29.2568L249.872 30.3608C247.184 30.8248 244.352 31.2888 242.352 31.6248L242.176 30.4248ZM263.712 22.5048H271.488V23.4968H263.712V22.5048ZM263.712 24.7768H271.488V25.7688H263.712V24.7768ZM264.208 30.6648H270.976V31.6568H264.208V30.6648ZM262.56 20.2168H272.752V21.2248H262.56V20.2168ZM263.504 27.1288H271.664V32.2328H270.576V28.1208H264.544V32.2808H263.504V27.1288ZM266.256 17.9608L267.296 17.5608C267.744 18.2168 268.224 19.0808 268.464 19.6568L267.376 20.1368C267.168 19.5448 266.672 18.6488 266.256 17.9608ZM261.68 17.6248L262.768 17.9448C261.824 20.6328 260.352 23.3368 258.768 25.1448C258.656 24.8728 258.32 24.2808 258.096 24.0088C259.536 22.4408 260.88 20.0408 261.68 17.6248ZM260.304 21.8008L261.392 20.6968L261.408 20.7128V32.3288H260.304V21.8008Z" fill="black"/>
<path opacity="0.1" d="M315.611 61H119C115.134 61 112 64.134 112 68C112 71.866 115.134 75 119 75H315.611C319.477 75 322.611 71.866 322.611 68C322.611 64.134 319.477 61 315.611 61Z" fill="#00AED4"/>
<path d="M217 84C225.837 84 233 76.8366 233 68C233 59.1634 225.837 52 217 52C208.163 52 201 59.1634 201 68C201 76.8366 208.163 84 217 84Z" fill="white"/>
<path d="M217 79C223.075 79 228 74.0751 228 68C228 61.9249 223.075 57 217 57C210.925 57 206 61.9249 206 68C206 74.0751 210.925 79 217 79Z" fill="url(#paint0_linear_1766_39262)"/>
<path fill-rule="evenodd" clip-rule="evenodd" d="M217 58C211.477 58 207 62.4772 207 68C207 73.5228 211.477 78 217 78C222.523 78 227 73.5228 227 68C227 62.4772 222.523 58 217 58ZM206 68C206 61.9249 210.925 57 217 57C223.075 57 228 61.9249 228 68C228 74.0751 223.075 79 217 79C210.925 79 206 74.0751 206 68Z" fill="white" fill-opacity="0.2"/>
<path d="M194.704 106.697H208.48V107.913H194.704V106.697ZM202.544 111.353L203.44 110.585C205.312 111.801 207.76 113.609 208.944 114.841L207.968 115.753C206.848 114.521 204.448 112.649 202.544 111.353ZM202.24 107.113L203.552 107.593C201.728 110.905 198.736 114.073 195.12 115.977C194.928 115.673 194.544 115.193 194.304 114.937C197.776 113.193 200.752 110.121 202.24 107.113ZM200.928 110.313L202.224 109.033V120.265H200.928V110.313ZM212.976 110.505H222.304V111.657H212.976V110.505ZM217.584 114.281H222.976V115.417H217.584V114.281ZM216.944 111.049H218.192V119.145L216.944 118.985V111.049ZM213.184 112.953L214.4 113.081C213.952 116.313 212.96 118.745 211.152 120.329C210.96 120.121 210.464 119.721 210.176 119.529C211.968 118.153 212.832 115.865 213.184 112.953ZM213.936 115.001C215.072 118.265 217.568 118.825 220.816 118.841C221.408 118.841 224.176 118.841 224.96 118.809C224.768 119.113 224.56 119.673 224.496 120.025H220.752C216.944 120.025 214.336 119.289 212.96 115.385L213.936 115.001ZM210.912 107.369H224.288V110.873H223.056V108.521H212.096V110.873H210.912V107.369ZM216.4 105.801L217.584 105.465C217.968 106.073 218.384 106.889 218.544 107.433L217.296 107.817C217.152 107.289 216.784 106.441 216.4 105.801ZM235.36 106.361H239.808V107.465H235.36V106.361ZM235.36 110.041H239.808V111.113H235.36V110.041ZM235.344 113.769H239.84V114.857H235.344V113.769ZM239.264 106.361H240.432V118.761C240.432 119.449 240.272 119.817 239.808 120.009C239.36 120.201 238.608 120.233 237.424 120.233C237.392 119.897 237.216 119.369 237.056 119.065C237.904 119.081 238.704 119.081 238.944 119.065C239.184 119.065 239.264 118.985 239.264 118.745V106.361ZM234.864 106.361H236V112.169C236 114.633 235.808 118.089 234.368 120.361C234.16 120.137 233.68 119.785 233.408 119.673C234.752 117.529 234.864 114.489 234.864 112.169V106.361ZM226.416 107.705H234.08V108.761H226.416V107.705ZM228.304 110.185H232.352V111.161H228.304V110.185ZM228.304 112.729H232.368V113.689H228.304V112.729ZM226.208 115.305H234.08V116.377H226.208V115.305ZM227.776 105.753H228.88V115.737H227.776V105.753ZM231.792 105.753H232.896V115.737H231.792V105.753ZM228.432 116.729L229.584 117.049C228.992 118.265 228.064 119.497 227.2 120.297C226.976 120.105 226.512 119.753 226.224 119.593C227.12 118.873 227.952 117.801 228.432 116.729ZM230.736 117.225L231.664 116.729C232.288 117.449 233.04 118.441 233.36 119.097L232.384 119.673C232.08 119.033 231.36 117.977 230.736 117.225Z" fill="black"/>
<path d="M408.48 17.5767H409.648V22.1847H408.48V17.5767ZM408.48 26.4087H409.648V32.2807H408.48V26.4087ZM407.264 24.8247V26.0887H410.848V24.8247H407.264ZM407.264 22.6647V23.9127H410.848V22.6647H407.264ZM406.176 21.7047H411.952V27.0487H406.176V21.7047ZM405.632 19.3687H412.448V20.4567H405.632V19.3687ZM415.584 23.5927H416.768V32.2807H415.584V23.5927ZM413.264 23.2887H418.992V24.4087H413.264V23.2887ZM412.592 27.0167H419.728V28.1367H412.592V27.0167ZM405.456 28.3127H412.576V29.4007H405.456V28.3127ZM416 17.3047L417.024 17.6247C416.08 20.0407 414.384 22.3127 412.576 23.5287C412.4 23.2407 412.032 22.8247 411.792 22.6167C413.504 21.5767 415.168 19.4327 416 17.3047ZM416.48 18.5047C417.344 20.0567 418.992 21.8007 420.368 22.6487C420.128 22.8407 419.776 23.2247 419.584 23.4967C418.224 22.5047 416.576 20.5527 415.632 18.8247L416.48 18.5047ZM430.832 18.4247H434.96V19.5127H431.904V32.2647H430.832V18.4247ZM434.736 18.4247H434.96L435.136 18.3767L435.968 18.8887C435.408 20.3767 434.656 22.2167 433.984 23.6887C435.424 25.2087 435.76 26.4727 435.76 27.5767C435.76 28.5207 435.568 29.2887 435.04 29.6407C434.768 29.8327 434.432 29.9287 434.048 29.9767C433.648 30.0247 433.136 30.0087 432.672 29.9927C432.64 29.6887 432.528 29.1927 432.352 28.8567C432.816 28.9047 433.264 28.9047 433.584 28.8887C433.824 28.8727 434.048 28.8247 434.24 28.7127C434.56 28.5207 434.656 28.0087 434.656 27.4647C434.656 26.4727 434.24 25.2887 432.8 23.8327C433.536 22.1847 434.304 20.0247 434.736 18.7927V18.4247ZM422.08 19.4487H429.632V20.5527H422.08V19.4487ZM421.616 23.7847H429.984V24.8887H421.616V23.7847ZM423.056 20.9527L424.08 20.6807C424.576 21.5447 424.992 22.6647 425.152 23.4167L424.048 23.7207C423.904 22.9687 423.488 21.8327 423.056 20.9527ZM427.728 20.6327L428.928 20.9207C428.48 22.0407 427.936 23.4007 427.472 24.2487L426.448 23.9927C426.912 23.0967 427.44 21.6407 427.728 20.6327ZM423.168 30.3447H428.656V31.4167H423.168V30.3447ZM422.528 26.3447H429.248V32.0567H428.064V27.4327H423.664V32.1847H422.528V26.3447ZM424.736 17.8007L425.808 17.4967C426.176 18.1847 426.544 19.0807 426.72 19.6407L425.568 20.0087C425.424 19.4327 425.072 18.5047 424.736 17.8007ZM440.432 22.9847V25.4007H449.104V22.9847H440.432ZM439.408 22.1687H450.192V26.2167H439.408V22.1687ZM442.032 20.4887H447.616V21.3367H442.032V20.4887ZM444.24 22.4567H445.248V25.8007H444.24V22.4567ZM441.408 23.4647L442.272 23.1767C442.688 23.7367 443.072 24.4887 443.232 25.0007L442.304 25.3367C442.176 24.8247 441.808 24.0407 441.408 23.4647ZM447.168 23.1127L448.192 23.4327C447.84 24.1207 447.424 24.8567 447.104 25.3367L446.272 25.0487C446.576 24.5047 446.976 23.6567 447.168 23.1127ZM440.352 26.9847H449.392V32.2167H448.176V27.8327H441.536V32.2807H440.352V26.9847ZM441.056 28.9047H448.704V29.7847H441.056V28.9047ZM441.056 30.8727H448.704V31.7367H441.056V30.8727ZM444.672 17.4967L445.744 17.8967C444.048 20.1047 441.04 21.6407 438.08 22.6007C437.952 22.3607 437.616 21.8647 437.392 21.6567C440.32 20.8567 443.184 19.4487 444.672 17.4967ZM445.376 18.0567C446.848 19.5927 449.744 20.9367 452.336 21.5447C452.08 21.7527 451.744 22.1847 451.568 22.4727C448.976 21.7687 446.064 20.2327 444.448 18.4567L445.376 18.0567ZM462.736 19.4007H463.904V23.4007H462.736V19.4007ZM460.816 25.0007H461.872V31.1767C461.872 31.7207 461.76 31.9927 461.376 32.1367C460.976 32.2807 460.352 32.2967 459.424 32.2967C459.376 32.0407 459.216 31.6567 459.088 31.3847C459.76 31.4007 460.384 31.4007 460.576 31.4007C460.768 31.3847 460.816 31.3367 460.816 31.1607V25.0007ZM465.472 17.5447L466.528 17.8647C466.16 18.4727 465.744 19.0327 465.408 19.4487L464.576 19.1447C464.88 18.6967 465.28 17.9927 465.472 17.5447ZM460.304 17.8967L461.168 17.5607C461.568 18.0087 462.016 18.6647 462.192 19.1127L461.28 19.4967C461.104 19.0487 460.704 18.3927 460.304 17.8967ZM465.44 24.8567L466.144 24.3127C466.8 24.7287 467.552 25.3687 467.904 25.8327L467.168 26.4407C466.832 25.9447 466.08 25.2887 465.44 24.8567ZM458.496 29.0647C459.808 28.9047 461.712 28.6647 463.6 28.3927L463.632 29.2887C461.856 29.5607 460.048 29.8327 458.64 30.0407L458.496 29.0647ZM462.768 24.2167L463.488 24.9527C462.288 25.3367 460.528 25.6087 459.072 25.7527C459.024 25.5447 458.896 25.2087 458.784 24.9847C460.192 24.8247 461.856 24.5527 462.768 24.2167ZM459.136 19.1447H467.68V20.0247H459.136V19.1447ZM459.664 21.0647H467.248V21.8967H459.664V21.0647ZM458.56 23.0167H468.016V23.9287H458.56V23.0167ZM458.544 26.6327H468.048V27.5607H458.544V26.6327ZM463.792 24.3127H464.832C464.896 29.0327 465.872 31.4487 466.992 31.4327C467.264 31.4327 467.408 31.0807 467.488 30.0407C467.696 30.2487 468.016 30.3927 468.256 30.4887C468.08 31.9447 467.696 32.4087 466.896 32.4087C464.928 32.4087 463.952 29.3527 463.792 24.3127ZM466.464 27.9127L467.344 28.3287C466.416 29.9607 464.688 31.3367 462.96 32.1207C462.832 31.9287 462.56 31.6407 462.352 31.4647C464.016 30.7447 465.648 29.4647 466.464 27.9127ZM454 22.4087H458.096V23.3687H454V22.4087ZM454 24.5527H458.096V25.5127H454V24.5527ZM453.424 20.2807H458.448V21.2887H453.424V20.2807ZM454.464 26.7127H458.064V31.3687H454.464V30.3767H457.136V27.6887H454.464V26.7127ZM453.968 26.7127H454.864V32.1207H453.968V26.7127ZM454.944 17.9607L455.84 17.6567C456.192 18.3287 456.576 19.2087 456.688 19.7527L455.744 20.1367C455.632 19.5607 455.296 18.6487 454.944 17.9607Z" fill="black"/>
<path opacity="0.1" d="M534.811 61H338.2C334.334 61 331.2 64.134 331.2 68C331.2 71.866 334.334 75 338.2 75H534.811C538.677 75 541.811 71.866 541.811 68C541.811 64.134 538.677 61 534.811 61Z" fill="#1DA637"/>
<path d="M436.2 84C445.037 84 452.2 76.8366 452.2 68C452.2 59.1634 445.037 52 436.2 52C427.364 52 420.2 59.1634 420.2 68C420.2 76.8366 427.364 84 436.2 84Z" fill="white"/>
<path d="M436.2 79C442.275 79 447.2 74.0751 447.2 68C447.2 61.9249 442.275 57 436.2 57C430.125 57 425.2 61.9249 425.2 68C425.2 74.0751 430.125 79 436.2 79Z" fill="url(#paint1_linear_1766_39262)"/>
<path fill-rule="evenodd" clip-rule="evenodd" d="M436.2 58C430.677 58 426.2 62.4772 426.2 68C426.2 73.5228 430.677 78 436.2 78C441.723 78 446.2 73.5228 446.2 68C446.2 62.4772 441.723 58 436.2 58ZM425.2 68C425.2 61.9249 430.125 57 436.2 57C442.275 57 447.2 61.9249 447.2 68C447.2 74.0751 442.275 79 436.2 79C430.125 79 425.2 74.0751 425.2 68Z" fill="white" fill-opacity="0.2"/>
<path d="M408.944 109.88H417.296V110.968H408.944V109.88ZM407.792 117.112H419.584V118.184H407.792V117.112ZM408.448 107.192H419.584V108.28H408.448V107.192ZM416.816 109.88H418C418 109.88 417.984 110.312 417.984 110.472C417.792 116.92 417.568 119.016 417.056 119.688C416.752 120.088 416.4 120.216 415.92 120.264C415.44 120.296 414.64 120.296 413.84 120.248C413.824 119.976 413.712 119.56 413.552 119.288C414.368 119.352 415.104 119.368 415.408 119.352C415.712 119.352 415.856 119.32 416 119.128C416.416 118.616 416.64 116.376 416.816 110.136V109.88ZM408.352 109.88H409.568C409.232 112.568 408.736 116.136 408.352 118.184H407.136C407.568 116.088 408.096 112.488 408.352 109.88ZM409.12 105.48L410.32 105.816C409.344 108.008 407.904 110.168 406.496 111.56C406.24 111.368 405.728 111.016 405.424 110.856C406.896 109.56 408.288 107.512 409.12 105.48ZM411.04 111.688L411.728 111C412.768 111.464 414.016 112.184 414.656 112.776L413.936 113.528C413.328 112.936 412.096 112.152 411.04 111.688ZM410.64 115.192L411.312 114.52C412.4 115.032 413.728 115.88 414.384 116.504L413.68 117.272C413.04 116.632 411.728 115.752 410.64 115.192ZM405.472 113.464H408.464V113.496H417.296V113.464H420.144V114.552H417.296V114.52H408.464V114.552H405.472V113.464ZM425.232 105.512L426.432 105.816C425.552 108.184 424.128 110.408 422.64 111.848C422.4 111.64 421.904 111.24 421.6 111.08C423.12 109.752 424.448 107.672 425.232 105.512ZM424.976 107.496H435.296V108.664H424.4L424.976 107.496ZM424.192 111.128H434.944V112.248H425.392V116.04H424.192V111.128ZM421.552 115.432H436.048V116.6H421.552V115.432ZM428.992 108.104H430.224V120.296H428.992V108.104ZM438.208 106.968H451.344V119.624H450.096V108.12H439.408V119.752H438.208V106.968ZM438.848 117.384H450.8V118.552H438.848V117.384ZM442.416 107.688H443.6C443.52 112.28 443.2 114.792 440.336 116.184C440.208 115.896 439.856 115.464 439.6 115.256C442.16 114.04 442.368 111.912 442.416 107.688ZM445.84 107.896H446.976V113.16C446.976 113.688 447.04 113.864 447.376 113.864C447.632 113.864 448.672 113.864 448.928 113.864C449.184 113.864 449.632 113.848 449.856 113.8C449.872 114.12 449.904 114.52 449.952 114.824C449.744 114.888 449.344 114.888 448.96 114.888C448.656 114.888 447.472 114.888 447.216 114.888C446.096 114.888 445.84 114.376 445.84 113.128V107.896ZM460.08 105.576L461.392 105.816C460.816 108.552 459.856 111.176 458.672 112.872C458.4 112.68 457.808 112.328 457.488 112.184C458.704 110.632 459.584 108.12 460.08 105.576ZM459.904 108.312H466.768V109.496H459.376L459.904 108.312ZM466.4 108.312H466.576L466.816 108.248L467.696 108.728C467.296 110.296 466.576 111.976 466.016 113.08C465.76 112.952 465.28 112.712 465.008 112.584C465.504 111.592 466.16 109.88 466.4 108.6V108.312ZM462.848 111.736C463.552 115.32 465.152 118.056 468.208 119.128C467.952 119.368 467.584 119.848 467.408 120.184C464.208 118.872 462.608 115.944 461.824 111.912L462.848 111.736ZM461.68 110.152H462.944V111.416C462.944 114.072 462.496 117.8 457.584 120.344C457.392 120.04 456.976 119.608 456.688 119.384C461.328 117.048 461.68 113.704 461.68 111.4V110.152ZM453.936 108.088H458.16V109.256H453.936V108.088ZM453.584 114.696H458.656V115.88H453.584V114.696Z" fill="black"/>
<path d="M626.8 27.0001H637.136V28.0721H626.8V27.0001ZM627.504 23.4641H636.512V24.5521H627.504V23.4641ZM625.216 30.7601H638.848V31.8481H625.216V30.7601ZM631.312 23.9121H632.576V31.3681H631.312V23.9121ZM627.712 18.0081H632.496V19.1281H627.712V18.0081ZM631.28 18.0081H632.624C634.128 20.2321 636.896 22.3921 639.44 23.4641C639.2 23.7041 638.8 24.2001 638.624 24.5201C636.016 23.2881 633.296 21.0001 631.664 18.6961H631.28V18.0081ZM631.504 18.0081L632.384 18.6161C630.8 20.7921 627.792 23.3041 625.344 24.6321C625.184 24.3281 624.864 23.9121 624.592 23.6561C627.024 22.5041 630.032 20.0881 631.504 18.0081ZM644.224 19.1601V20.8081H651.824V19.1601H644.224ZM643.024 18.1841H653.088V21.8001H643.024V18.1841ZM643.536 25.5921V26.7281H652.496V25.5921H643.536ZM643.536 27.5761V28.7281H652.496V27.5761H643.536ZM643.536 23.6241V24.7441H652.496V23.6241H643.536ZM642.336 22.7281H653.728V29.6081H642.336V22.7281ZM645.392 29.5921L646.512 30.3281C645.232 31.1121 643.152 31.8801 641.504 32.2961C641.296 32.0401 640.896 31.6561 640.608 31.4161C642.288 31.0161 644.384 30.2481 645.392 29.5921ZM649.296 30.4241L650.336 29.6401C652 30.1361 654.144 30.9201 655.392 31.4481L654.352 32.3121C653.168 31.7521 650.992 30.9201 649.296 30.4241ZM659.632 22.9841V25.4001H668.304V22.9841H659.632ZM658.608 22.1681H669.392V26.2161H658.608V22.1681ZM661.232 20.4881H666.816V21.3361H661.232V20.4881ZM663.44 22.4561H664.448V25.8001H663.44V22.4561ZM660.608 23.4641L661.472 23.1761C661.888 23.7361 662.272 24.4881 662.432 25.0001L661.504 25.3361C661.376 24.8241 661.008 24.0401 660.608 23.4641ZM666.368 23.1121L667.392 23.4321C667.04 24.1201 666.624 24.8561 666.304 25.3361L665.472 25.0481C665.776 24.5041 666.176 23.6561 666.368 23.1121ZM659.552 26.9841H668.592V32.2161H667.376V27.8321H660.736V32.2801H659.552V26.9841ZM660.256 28.9041H667.904V29.7841H660.256V28.9041ZM660.256 30.8721H667.904V31.7361H660.256V30.8721ZM663.872 17.4961L664.944 17.8961C663.248 20.1041 660.24 21.6401 657.28 22.6001C657.152 22.3601 656.816 21.8641 656.592 21.6561C659.52 20.8561 662.384 19.4481 663.872 17.4961ZM664.576 18.0561C666.048 19.5921 668.944 20.9361 671.536 21.5441C671.28 21.7521 670.944 22.1841 670.768 22.4721C668.176 21.7681 665.264 20.2321 663.648 18.4561L664.576 18.0561ZM681.936 19.4001H683.104V23.4001H681.936V19.4001ZM680.016 25.0001H681.072V31.1761C681.072 31.7201 680.96 31.9921 680.576 32.1361C680.176 32.2801 679.552 32.2961 678.624 32.2961C678.576 32.0401 678.416 31.6561 678.288 31.3841C678.96 31.4001 679.584 31.4001 679.776 31.4001C679.968 31.3841 680.016 31.3361 680.016 31.1601V25.0001ZM684.672 17.5441L685.728 17.8641C685.36 18.4721 684.944 19.0321 684.608 19.4481L683.776 19.1441C684.08 18.6961 684.48 17.9921 684.672 17.5441ZM679.504 17.8961L680.368 17.5601C680.768 18.0081 681.216 18.6641 681.392 19.1121L680.48 19.4961C680.304 19.0481 679.904 18.3921 679.504 17.8961ZM684.64 24.8561L685.344 24.3121C686 24.7281 686.752 25.3681 687.104 25.8321L686.368 26.4401C686.032 25.9441 685.28 25.2881 684.64 24.8561ZM677.696 29.0641C679.008 28.9041 680.912 28.6641 682.8 28.3921L682.832 29.2881C681.056 29.5601 679.248 29.8321 677.84 30.0401L677.696 29.0641ZM681.968 24.2161L682.688 24.9521C681.488 25.3361 679.728 25.6081 678.272 25.7521C678.224 25.5441 678.096 25.2081 677.984 24.9841C679.392 24.8241 681.056 24.5521 681.968 24.2161ZM678.336 19.1441H686.88V20.0241H678.336V19.1441ZM678.864 21.0641H686.448V21.8961H678.864V21.0641ZM677.76 23.0161H687.216V23.9281H677.76V23.0161ZM677.744 26.6321H687.248V27.5601H677.744V26.6321ZM682.992 24.3121H684.032C684.096 29.0321 685.072 31.4481 686.192 31.4321C686.464 31.4321 686.608 31.0801 686.688 30.0401C686.896 30.2481 687.216 30.3921 687.456 30.4881C687.28 31.9441 686.896 32.4081 686.096 32.4081C684.128 32.4081 683.152 29.3521 682.992 24.3121ZM685.664 27.9121L686.544 28.3281C685.616 29.9601 683.888 31.3361 682.16 32.1201C682.032 31.9281 681.76 31.6401 681.552 31.4641C683.216 30.7441 684.848 29.4641 685.664 27.9121ZM673.2 22.4081H677.296V23.3681H673.2V22.4081ZM673.2 24.5521H677.296V25.5121H673.2V24.5521ZM672.624 20.2801H677.648V21.2881H672.624V20.2801ZM673.664 26.7121H677.264V31.3681H673.664V30.3761H676.336V27.6881H673.664V26.7121ZM673.168 26.7121H674.064V32.1201H673.168V26.7121ZM674.144 17.9601L675.04 17.6561C675.392 18.3281 675.776 19.2081 675.888 19.7521L674.944 20.1361C674.832 19.5601 674.496 18.6481 674.144 17.9601Z" fill="black"/>
<path opacity="0.1" d="M754.011 61H557.4C553.534 61 550.4 64.134 550.4 68C550.4 71.866 553.534 75 557.4 75H754.011C757.877 75 761.011 71.866 761.011 68C761.011 64.134 757.877 61 754.011 61Z" fill="#00AED4"/>
<path d="M655.4 84C664.236 84 671.4 76.8366 671.4 68C671.4 59.1634 664.236 52 655.4 52C646.563 52 639.4 59.1634 639.4 68C639.4 76.8366 646.563 84 655.4 84Z" fill="white"/>
<path d="M655.4 79C661.475 79 666.4 74.0751 666.4 68C666.4 61.9249 661.475 57 655.4 57C649.325 57 644.4 61.9249 644.4 68C644.4 74.0751 649.325 79 655.4 79Z" fill="url(#paint2_linear_1766_39262)"/>
<path fill-rule="evenodd" clip-rule="evenodd" d="M655.4 58C649.877 58 645.4 62.4772 645.4 68C645.4 73.5228 649.877 78 655.4 78C660.923 78 665.4 73.5228 665.4 68C665.4 62.4772 660.923 58 655.4 58ZM644.4 68C644.4 61.9249 649.325 57 655.4 57C661.475 57 666.4 61.9249 666.4 68C666.4 74.0751 661.475 79 655.4 79C649.325 79 644.4 74.0751 644.4 68Z" fill="white" fill-opacity="0.2"/>
<path d="M628.144 109.88H636.496V110.968H628.144V109.88ZM626.992 117.112H638.784V118.184H626.992V117.112ZM627.648 107.192H638.784V108.28H627.648V107.192ZM636.016 109.88H637.2C637.2 109.88 637.184 110.312 637.184 110.472C636.992 116.92 636.768 119.016 636.256 119.688C635.952 120.088 635.6 120.216 635.12 120.264C634.64 120.296 633.84 120.296 633.04 120.248C633.024 119.976 632.912 119.56 632.752 119.288C633.568 119.352 634.304 119.368 634.608 119.352C634.912 119.352 635.056 119.32 635.2 119.128C635.616 118.616 635.84 116.376 636.016 110.136V109.88ZM627.552 109.88H628.768C628.432 112.568 627.936 116.136 627.552 118.184H626.336C626.768 116.088 627.296 112.488 627.552 109.88ZM628.32 105.48L629.52 105.816C628.544 108.008 627.104 110.168 625.696 111.56C625.44 111.368 624.928 111.016 624.624 110.856C626.096 109.56 627.488 107.512 628.32 105.48ZM630.24 111.688L630.928 111C631.968 111.464 633.216 112.184 633.856 112.776L633.136 113.528C632.528 112.936 631.296 112.152 630.24 111.688ZM629.84 115.192L630.512 114.52C631.6 115.032 632.928 115.88 633.584 116.504L632.88 117.272C632.24 116.632 630.928 115.752 629.84 115.192ZM624.672 113.464H627.664V113.496H636.496V113.464H639.344V114.552H636.496V114.52H627.664V114.552H624.672V113.464ZM644.432 105.512L645.632 105.816C644.752 108.184 643.328 110.408 641.84 111.848C641.6 111.64 641.104 111.24 640.8 111.08C642.32 109.752 643.648 107.672 644.432 105.512ZM644.176 107.496H654.496V108.664H643.6L644.176 107.496ZM643.392 111.128H654.144V112.248H644.592V116.04H643.392V111.128ZM640.752 115.432H655.248V116.6H640.752V115.432ZM648.192 108.104H649.424V120.296H648.192V108.104ZM658.256 107.864H669.744V109.144H658.256V107.864ZM656.896 117.352H671.104V118.696H656.896V117.352ZM679.28 105.576L680.592 105.816C680.016 108.552 679.056 111.176 677.872 112.872C677.6 112.68 677.008 112.328 676.688 112.184C677.904 110.632 678.784 108.12 679.28 105.576ZM679.104 108.312H685.968V109.496H678.576L679.104 108.312ZM685.6 108.312H685.776L686.016 108.248L686.896 108.728C686.496 110.296 685.776 111.976 685.216 113.08C684.96 112.952 684.48 112.712 684.208 112.584C684.704 111.592 685.36 109.88 685.6 108.6V108.312ZM682.048 111.736C682.752 115.32 684.352 118.056 687.408 119.128C687.152 119.368 686.784 119.848 686.608 120.184C683.408 118.872 681.808 115.944 681.024 111.912L682.048 111.736ZM680.88 110.152H682.144V111.416C682.144 114.072 681.696 117.8 676.784 120.344C676.592 120.04 676.176 119.608 675.888 119.384C680.528 117.048 680.88 113.704 680.88 111.4V110.152ZM673.136 108.088H677.36V109.256H673.136V108.088ZM672.784 114.696H677.856V115.88H672.784V114.696Z" fill="black"/>
<path d="M831.425 19.1596V20.8076H839.025V19.1596H831.425ZM830.225 18.1836H840.289V21.7996H830.225V18.1836ZM830.737 25.5916V26.7276H839.697V25.5916H830.737ZM830.737 27.5756V28.7276H839.697V27.5756H830.737ZM830.737 23.6236V24.7436H839.697V23.6236H830.737ZM829.537 22.7276H840.929V29.6076H829.537V22.7276ZM832.593 29.5916L833.713 30.3276C832.433 31.1116 830.353 31.8796 828.705 32.2956C828.497 32.0396 828.097 31.6556 827.809 31.4156C829.489 31.0156 831.585 30.2476 832.593 29.5916ZM836.497 30.4236L837.537 29.6396C839.201 30.1356 841.345 30.9196 842.593 31.4476L841.553 32.3116C840.369 31.7516 838.193 30.9196 836.497 30.4236ZM844.865 19.3676H857.601V20.6156H844.865V19.3676ZM844.017 29.8636H858.401V31.0636H844.017V29.8636ZM850.481 19.9916H851.825V30.3596H850.481V19.9916ZM863.953 28.6316H865.121V30.6956C865.121 31.0636 865.265 31.1436 866.097 31.1436C866.481 31.1436 868.417 31.1436 868.929 31.1436C869.617 31.1436 869.713 30.9516 869.793 29.5276C870.049 29.6876 870.529 29.8476 870.833 29.9276C870.705 31.7196 870.337 32.1516 869.041 32.1516C868.689 32.1516 866.353 32.1516 866.017 32.1516C864.369 32.1516 863.953 31.8476 863.953 30.6956V28.6316ZM865.713 28.3116L866.417 27.6556C867.313 28.1036 868.417 28.8396 868.977 29.3676L868.209 30.1036C867.697 29.5756 866.609 28.8076 865.713 28.3116ZM871.041 28.7756L872.001 28.3276C872.817 29.1596 873.729 30.3116 874.113 31.1116L873.089 31.6076C872.737 30.8236 871.857 29.6396 871.041 28.7756ZM862.097 28.5036L863.089 28.9356C862.625 29.9116 861.985 31.1116 861.169 31.8636L860.177 31.2876C860.977 30.5836 861.681 29.4316 862.097 28.5036ZM861.073 18.7436H873.281V19.7196H861.073V18.7436ZM860.353 21.3356H874.113V22.3116H860.353V21.3356ZM863.489 19.9596L864.593 19.7036C864.897 20.1996 865.201 20.8876 865.313 21.3356L864.161 21.6396C864.065 21.1756 863.793 20.4716 863.489 19.9596ZM869.793 19.6556L871.009 19.9276C870.657 20.6316 870.305 21.3196 869.969 21.8316L868.913 21.5436C869.217 21.0156 869.601 20.1996 869.793 19.6556ZM863.377 25.8476V26.9516H871.073V25.8476H863.377ZM863.377 23.9436V25.0476H871.073V23.9436H863.377ZM862.225 23.1116H872.257V27.7836H862.225V23.1116ZM866.273 17.6876L867.425 17.4316C867.793 17.9436 868.161 18.6636 868.305 19.1436L867.089 19.4476C866.961 18.9676 866.609 18.2316 866.273 17.6876ZM879.313 21.8636V23.5116H887.073V21.8636H879.313ZM879.313 24.5196V26.1836H887.073V24.5196H879.313ZM879.313 19.2076V20.8396H887.073V19.2076H879.313ZM878.145 18.1356H888.289V27.2716H878.145V18.1356ZM884.225 26.4876H885.441V30.4716C885.441 30.9356 885.569 31.0156 886.257 31.0156C886.593 31.0156 888.209 31.0156 888.641 31.0156C889.297 31.0156 889.409 30.7436 889.473 28.7436C889.729 28.9676 890.257 29.1596 890.593 29.2396C890.449 31.5756 890.097 32.1676 888.737 32.1676C888.401 32.1676 886.465 32.1676 886.145 32.1676C884.625 32.1676 884.225 31.7996 884.225 30.4716V26.4876ZM880.369 26.8236H881.665C881.329 29.6716 880.369 31.4156 876.513 32.2956C876.401 31.9916 876.065 31.4956 875.825 31.2396C879.345 30.5356 880.097 29.1596 880.369 26.8236ZM892.465 22.4076H896.801V23.3676H892.465V22.4076ZM892.977 26.6476H896.817V31.3196H892.977V30.3116H895.825V27.6556H892.977V26.6476ZM892.465 26.6476H893.457V32.0556H892.465V26.6476ZM892.465 24.5036H896.801V25.4636H892.465V24.5036ZM891.841 20.2796H897.297V21.2876H891.841V20.2796ZM893.553 17.9916L894.433 17.5916C894.881 18.2476 895.393 19.1276 895.649 19.6716L894.705 20.1516C894.465 19.5756 893.953 18.6636 893.553 17.9916ZM898.193 18.2956H899.201V24.2956C899.201 26.7116 899.025 30.1036 897.729 32.3116C897.537 32.1356 897.105 31.8156 896.881 31.7196C898.081 29.6076 898.193 26.5836 898.193 24.2956V18.2956ZM898.705 18.2956H905.585V19.3676H898.705V18.2956ZM905.073 18.2956H906.081V30.8076C906.081 31.4156 905.937 31.7676 905.537 31.9436C905.121 32.1196 904.449 32.1356 903.345 32.1356C903.313 31.8636 903.153 31.3836 902.993 31.0956C903.825 31.1276 904.545 31.1276 904.753 31.1116C904.993 31.0956 905.073 31.0316 905.073 30.8076V18.2956ZM898.961 21.0796H905.297V22.0716H898.961V21.0796ZM898.913 23.7036H905.329V24.6796H898.913V23.7036ZM901.601 18.9036H902.625V24.2316H901.601V18.9036ZM900.449 25.7516H904.193V29.5276H900.449V28.6156H903.249V26.6476H900.449V25.7516ZM899.905 25.7516H900.801V30.2636H899.905V25.7516ZM912.065 27.3356V28.7276H918.257V27.3356H912.065ZM912.065 25.1116V26.4876H918.257V25.1116H912.065ZM910.881 24.2316H919.505V29.5916H910.881V24.2316ZM908.113 19.6076H922.305V20.6636H908.113V19.6076ZM914.545 17.5596H915.745V24.5836H914.545V17.5596ZM913.969 19.9116L914.977 20.3116C913.537 22.4076 910.993 24.2636 908.657 25.2236C908.481 24.9196 908.129 24.5036 907.873 24.2636C910.161 23.4636 912.689 21.7196 913.969 19.9116ZM908.369 30.6956H922.081V31.7676H908.369V30.6956ZM915.297 20.6316L916.033 19.8956C918.097 21.1596 920.785 22.9996 922.161 24.2156L921.361 25.0956C920.065 23.8796 917.393 21.9436 915.297 20.6316Z" fill="black"/>
<path opacity="0.1" d="M973.211 61H776.6C772.734 61 769.6 64.134 769.6 68C769.6 71.866 772.734 75 776.6 75H973.211C977.077 75 980.211 71.866 980.211 68C980.211 64.134 977.077 61 973.211 61Z" fill="#4985C6"/>
<path d="M874.6 84C883.436 84 890.6 76.8366 890.6 68C890.6 59.1634 883.436 52 874.6 52C865.763 52 858.6 59.1634 858.6 68C858.6 76.8366 865.763 84 874.6 84Z" fill="white"/>
<path d="M874.6 79C880.675 79 885.6 74.0751 885.6 68C885.6 61.9249 880.675 57 874.6 57C868.524 57 863.6 61.9249 863.6 68C863.6 74.0751 868.524 79 874.6 79Z" fill="url(#paint3_linear_1766_39262)"/>
<path fill-rule="evenodd" clip-rule="evenodd" d="M874.6 58C869.077 58 864.6 62.4772 864.6 68C864.6 73.5228 869.077 78 874.6 78C880.122 78 884.6 73.5228 884.6 68C884.6 62.4772 880.122 58 874.6 58ZM863.6 68C863.6 61.9249 868.524 57 874.6 57C880.675 57 885.6 61.9249 885.6 68C885.6 74.0751 880.675 79 874.6 79C868.524 79 863.6 74.0751 863.6 68Z" fill="white" fill-opacity="0.2"/>
<path d="M847.344 109.88H855.696V110.968H847.344V109.88ZM846.192 117.112H857.984V118.184H846.192V117.112ZM846.848 107.192H857.984V108.28H846.848V107.192ZM855.216 109.88H856.4C856.4 109.88 856.384 110.312 856.384 110.472C856.192 116.92 855.968 119.016 855.456 119.688C855.152 120.088 854.8 120.216 854.32 120.264C853.84 120.296 853.04 120.296 852.24 120.248C852.224 119.976 852.112 119.56 851.952 119.288C852.768 119.352 853.504 119.368 853.808 119.352C854.112 119.352 854.256 119.32 854.4 119.128C854.816 118.616 855.04 116.376 855.216 110.136V109.88ZM846.752 109.88H847.968C847.632 112.568 847.136 116.136 846.752 118.184H845.536C845.968 116.088 846.496 112.488 846.752 109.88ZM847.52 105.48L848.72 105.816C847.744 108.008 846.304 110.168 844.896 111.56C844.64 111.368 844.128 111.016 843.824 110.856C845.296 109.56 846.688 107.512 847.52 105.48ZM849.44 111.688L850.128 111C851.168 111.464 852.416 112.184 853.056 112.776L852.336 113.528C851.728 112.936 850.496 112.152 849.44 111.688ZM849.04 115.192L849.712 114.52C850.8 115.032 852.128 115.88 852.784 116.504L852.08 117.272C851.44 116.632 850.128 115.752 849.04 115.192ZM843.872 113.464H846.864V113.496H855.696V113.464H858.544V114.552H855.696V114.52H846.864V114.552H843.872V113.464ZM863.632 105.512L864.832 105.816C863.952 108.184 862.528 110.408 861.04 111.848C860.8 111.64 860.304 111.24 860 111.08C861.52 109.752 862.848 107.672 863.632 105.512ZM863.376 107.496H873.696V108.664H862.8L863.376 107.496ZM862.592 111.128H873.344V112.248H863.792V116.04H862.592V111.128ZM859.952 115.432H874.448V116.6H859.952V115.432ZM867.392 108.104H868.624V120.296H867.392V108.104ZM875.904 112.104H890.544V113.416H875.904V112.104ZM898.48 105.576L899.792 105.816C899.216 108.552 898.256 111.176 897.072 112.872C896.8 112.68 896.208 112.328 895.888 112.184C897.104 110.632 897.984 108.12 898.48 105.576ZM898.304 108.312H905.168V109.496H897.776L898.304 108.312ZM904.8 108.312H904.976L905.216 108.248L906.096 108.728C905.696 110.296 904.976 111.976 904.416 113.08C904.16 112.952 903.68 112.712 903.408 112.584C903.904 111.592 904.56 109.88 904.8 108.6V108.312ZM901.248 111.736C901.952 115.32 903.552 118.056 906.608 119.128C906.352 119.368 905.984 119.848 905.808 120.184C902.608 118.872 901.008 115.944 900.224 111.912L901.248 111.736ZM900.08 110.152H901.344V111.416C901.344 114.072 900.896 117.8 895.984 120.344C895.792 120.04 895.376 119.608 895.088 119.384C899.728 117.048 900.08 113.704 900.08 111.4V110.152ZM892.336 108.088H896.56V109.256H892.336V108.088ZM891.984 114.696H897.056V115.88H891.984V114.696Z" fill="black"/>
<path d="M1049.58 27.1599H1059.17V27.9759H1049.58V27.1599ZM1049.62 25.1919H1059.86V29.9599H1049.62V29.0799H1058.67V26.0559H1049.62V25.1919ZM1053.71 25.6239H1054.86V30.4399C1054.86 30.9999 1055.06 31.0959 1056.08 31.0959C1056.56 31.0959 1059.02 31.0959 1059.65 31.0959C1060.51 31.0959 1060.66 30.8239 1060.74 29.2079C1061.01 29.3999 1061.46 29.5599 1061.79 29.6239C1061.62 31.5599 1061.25 32.0719 1059.73 32.0719C1059.31 32.0719 1056.42 32.0719 1056.02 32.0719C1054.22 32.0719 1053.71 31.7519 1053.71 30.4399V25.6239ZM1048.99 25.1919H1050.14V30.7919H1048.99V25.1919ZM1048.3 18.1999H1060.45V19.0639H1048.3V18.1999ZM1053.74 18.4239H1054.93V24.5839H1053.74V18.4239ZM1047.6 20.0879H1061.2V23.5279H1060V20.9359H1048.75V23.5279H1047.6V20.0879ZM1049.04 23.7199C1050.06 23.6079 1051.44 23.3999 1052.86 23.1759L1052.9 23.9439C1051.66 24.1999 1050.45 24.4399 1049.41 24.6479L1049.04 23.7199ZM1049.46 21.8959L1049.81 21.2559C1050.83 21.4319 1052.19 21.7839 1052.91 22.1039L1052.56 22.8239C1051.84 22.5199 1050.5 22.1039 1049.46 21.8959ZM1058.85 21.1759L1059.38 21.8639C1058.46 22.2479 1057.15 22.5839 1056.22 22.7759L1055.79 22.1519C1056.72 21.9439 1058.06 21.4639 1058.85 21.1759ZM1055.6 23.8319L1055.89 23.0959C1057.12 23.2239 1058.74 23.5759 1059.63 23.8799L1059.36 24.6959C1058.48 24.3919 1056.85 24.0079 1055.6 23.8319ZM1063.2 24.6799H1077.65V25.8799H1063.2V24.6799ZM1064.8 18.6479H1075.25V19.8319H1064.8V18.6479ZM1074.86 18.6479H1075.17L1075.46 18.5839L1076.35 19.2719C1074.86 20.7279 1072.54 22.2959 1070.62 23.2239C1070.45 22.9519 1070.06 22.5679 1069.82 22.3599C1071.62 21.5439 1073.82 20.0399 1074.86 18.9199V18.6479ZM1069.82 22.3599H1071.07V30.7119C1071.07 31.5119 1070.88 31.8799 1070.26 32.0559C1069.65 32.2639 1068.62 32.2799 1067.07 32.2799C1066.99 31.9279 1066.77 31.3999 1066.56 31.0479C1067.86 31.0959 1069.04 31.0799 1069.39 31.0639C1069.73 31.0479 1069.82 30.9679 1069.82 30.6959V22.3599ZM1083.15 28.6319H1084.32V30.6959C1084.32 31.0639 1084.46 31.1439 1085.3 31.1439C1085.68 31.1439 1087.62 31.1439 1088.13 31.1439C1088.82 31.1439 1088.91 30.9519 1088.99 29.5279C1089.25 29.6879 1089.73 29.8479 1090.03 29.9279C1089.9 31.7199 1089.54 32.1519 1088.24 32.1519C1087.89 32.1519 1085.55 32.1519 1085.22 32.1519C1083.57 32.1519 1083.15 31.8479 1083.15 30.6959V28.6319ZM1084.91 28.3119L1085.62 27.6559C1086.51 28.1039 1087.62 28.8399 1088.18 29.3679L1087.41 30.1039C1086.9 29.5759 1085.81 28.8079 1084.91 28.3119ZM1090.24 28.7759L1091.2 28.3279C1092.02 29.1599 1092.93 30.3119 1093.31 31.1119L1092.29 31.6079C1091.94 30.8239 1091.06 29.6399 1090.24 28.7759ZM1081.3 28.5039L1082.29 28.9359C1081.82 29.9119 1081.18 31.1119 1080.37 31.8639L1079.38 31.2879C1080.18 30.5839 1080.88 29.4319 1081.3 28.5039ZM1080.27 18.7439H1092.48V19.7199H1080.27V18.7439ZM1079.55 21.3359H1093.31V22.3119H1079.55V21.3359ZM1082.69 19.9599L1083.79 19.7039C1084.1 20.1999 1084.4 20.8879 1084.51 21.3359L1083.36 21.6399C1083.26 21.1759 1082.99 20.4719 1082.69 19.9599ZM1088.99 19.6559L1090.21 19.9279C1089.86 20.6319 1089.5 21.3199 1089.17 21.8319L1088.11 21.5439C1088.42 21.0159 1088.8 20.1999 1088.99 19.6559ZM1082.58 25.8479V26.9519H1090.27V25.8479H1082.58ZM1082.58 23.9439V25.0479H1090.27V23.9439H1082.58ZM1081.42 23.1119H1091.46V27.7839H1081.42V23.1119ZM1085.47 17.6879L1086.62 17.4319C1086.99 17.9439 1087.36 18.6639 1087.5 19.1439L1086.29 19.4479C1086.16 18.9679 1085.81 18.2319 1085.47 17.6879ZM1098.51 21.8639V23.5119H1106.27V21.8639H1098.51ZM1098.51 24.5199V26.1839H1106.27V24.5199H1098.51ZM1098.51 19.2079V20.8399H1106.27V19.2079H1098.51ZM1097.34 18.1359H1107.49V27.2719H1097.34V18.1359ZM1103.42 26.4879H1104.64V30.4719C1104.64 30.9359 1104.77 31.0159 1105.46 31.0159C1105.79 31.0159 1107.41 31.0159 1107.84 31.0159C1108.5 31.0159 1108.61 30.7439 1108.67 28.7439C1108.93 28.9679 1109.46 29.1599 1109.79 29.2399C1109.65 31.5759 1109.3 32.1679 1107.94 32.1679C1107.6 32.1679 1105.66 32.1679 1105.34 32.1679C1103.82 32.1679 1103.42 31.7999 1103.42 30.4719V26.4879ZM1099.57 26.8239H1100.86C1100.53 29.6719 1099.57 31.4159 1095.71 32.2959C1095.6 31.9919 1095.26 31.4959 1095.02 31.2399C1098.54 30.5359 1099.3 29.1599 1099.57 26.8239ZM1113.71 18.5679H1124.86V19.7679H1113.71V18.5679ZM1113.86 22.6159H1123.02V23.7839H1113.86V22.6159ZM1113.12 18.5679H1114.32V22.9359C1114.32 25.6559 1114.05 29.6079 1112.21 32.2479C1112 32.0399 1111.5 31.6879 1111.2 31.5439C1112.96 29.0479 1113.12 25.4959 1113.12 22.9359V18.5679ZM1122.69 22.6159H1122.93L1123.17 22.5679L1123.98 22.9199C1122.56 28.1839 1118.82 30.9839 1114.5 32.2799C1114.35 31.9599 1114.05 31.4479 1113.79 31.1919C1117.84 30.1359 1121.47 27.4159 1122.69 22.8559V22.6159ZM1116.42 23.2079C1117.79 27.3999 1120.72 30.1519 1125.52 31.2079C1125.22 31.4799 1124.88 31.9759 1124.7 32.3119C1119.78 31.0959 1116.83 28.1679 1115.26 23.5439L1116.42 23.2079ZM1134.4 23.0479H1140.66V23.7519H1134.4V23.0479ZM1134.4 24.6479H1140.7V25.3519H1134.4V24.6479ZM1134.06 26.2799H1141.36V27.0959H1134.06V26.2799ZM1132.1 19.9439L1133.1 20.2479C1132.27 21.9119 1131.04 23.5599 1129.84 24.6319C1129.68 24.4559 1129.28 24.0399 1129.04 23.8639C1130.22 22.9039 1131.39 21.4319 1132.1 19.9439ZM1134.66 19.9119L1135.66 20.1999C1134.98 21.7359 1133.92 23.3039 1132.91 24.3119C1132.74 24.1359 1132.32 23.7999 1132.06 23.6399C1133.1 22.6959 1134.06 21.3039 1134.66 19.9119ZM1137.3 21.7519H1138.32V26.5999H1137.3V21.7519ZM1132.96 28.5199H1134.06V30.7599C1134.06 31.1119 1134.19 31.1759 1134.86 31.1759C1135.18 31.1759 1136.82 31.1759 1137.23 31.1759C1137.78 31.1759 1137.87 31.0159 1137.92 29.7839C1138.16 29.9599 1138.62 30.1199 1138.91 30.1999C1138.8 31.7839 1138.46 32.1679 1137.34 32.1679C1137.04 32.1679 1135.06 32.1679 1134.75 32.1679C1133.31 32.1679 1132.96 31.8799 1132.96 30.7599V28.5199ZM1134.35 28.0399L1135.07 27.3519C1136 27.7839 1137.15 28.4399 1137.74 28.9519L1137.01 29.7039C1136.43 29.1919 1135.31 28.4719 1134.35 28.0399ZM1138.4 28.7439L1139.3 28.2959C1140.22 29.2079 1141.23 30.4719 1141.63 31.3519L1140.67 31.8639C1140.29 30.9839 1139.33 29.6719 1138.4 28.7439ZM1131.04 28.4719L1132.02 28.8239C1131.63 29.9279 1131.06 31.1599 1130.11 31.9119L1129.18 31.3199C1130.06 30.6479 1130.7 29.4959 1131.04 28.4719ZM1134.72 21.3999H1141.1V22.1839H1134.14L1134.72 21.3999ZM1133.79 22.3279L1134.82 21.4639V27.5759H1133.79V22.3279ZM1128.78 18.8079H1141.63V19.8319H1128.78V18.8079ZM1128.13 18.8079H1129.25V23.6399C1129.25 26.1359 1129.06 29.8159 1127.79 32.2959C1127.6 32.0879 1127.12 31.7199 1126.86 31.6079C1128.03 29.2719 1128.13 25.9919 1128.13 23.6399V18.8079ZM1131.04 22.5679L1132.06 21.5439L1132.08 21.5599V27.5759H1131.04V22.5679ZM1133.82 17.6079L1134.85 17.2559C1135.31 17.8479 1135.79 18.6319 1136 19.1759L1134.91 19.5919C1134.72 19.0319 1134.27 18.1999 1133.82 17.6079ZM1136.64 20.2319L1137.49 19.8479C1137.89 20.2639 1138.3 20.8239 1138.51 21.2079L1137.6 21.6559C1137.42 21.2399 1137.02 20.6479 1136.64 20.2319Z" fill="black"/>
<path opacity="0.1" d="M1192.41 61H995.8C991.934 61 988.8 64.134 988.8 68C988.8 71.866 991.934 75 995.8 75H1192.41C1196.28 75 1199.41 71.866 1199.41 68C1199.41 64.134 1196.28 61 1192.41 61Z" fill="#1DA637"/>
<path d="M1093.8 84C1102.64 84 1109.8 76.8366 1109.8 68C1109.8 59.1634 1102.64 52 1093.8 52C1084.96 52 1077.8 59.1634 1077.8 68C1077.8 76.8366 1084.96 84 1093.8 84Z" fill="white"/>
<path d="M1093.8 79C1099.87 79 1104.8 74.0751 1104.8 68C1104.8 61.9249 1099.87 57 1093.8 57C1087.72 57 1082.8 61.9249 1082.8 68C1082.8 74.0751 1087.72 79 1093.8 79Z" fill="url(#paint4_linear_1766_39262)"/>
<path fill-rule="evenodd" clip-rule="evenodd" d="M1093.8 58C1088.28 58 1083.8 62.4772 1083.8 68C1083.8 73.5228 1088.28 78 1093.8 78C1099.32 78 1103.8 73.5228 1103.8 68C1103.8 62.4772 1099.32 58 1093.8 58ZM1082.8 68C1082.8 61.9249 1087.72 57 1093.8 57C1099.87 57 1104.8 61.9249 1104.8 68C1104.8 74.0751 1099.87 79 1093.8 79C1087.72 79 1082.8 74.0751 1082.8 68Z" fill="white" fill-opacity="0.2"/>
<path d="M1080.54 109.577H1085.55V110.665H1080.54V109.577ZM1080.53 106.409H1086.27V113.977H1080.53V112.889H1085.07V107.497H1080.53V106.409ZM1079.94 119.801L1079.84 118.713L1080.37 118.217L1085.04 116.697C1085.12 117.033 1085.26 117.465 1085.36 117.721C1080.86 119.305 1080.29 119.529 1079.94 119.801ZM1083.42 115.289L1084.45 114.793C1085.28 116.089 1086.26 117.833 1086.7 118.905L1085.62 119.497C1085.2 118.425 1084.24 116.617 1083.42 115.289ZM1079.94 119.801C1079.86 119.465 1079.63 118.889 1079.42 118.585C1079.71 118.457 1080.11 118.169 1080.11 117.561V106.409H1081.33V118.729C1081.33 118.729 1079.94 119.321 1079.94 119.801ZM1091.82 106.521H1093.01V115.737C1093.01 116.393 1092.88 116.745 1092.43 116.953C1092 117.145 1091.26 117.161 1090.11 117.161C1090.06 116.825 1089.92 116.329 1089.74 116.009C1090.58 116.041 1091.31 116.041 1091.54 116.025C1091.76 116.009 1091.82 115.945 1091.82 115.737V106.521ZM1087.73 106.521H1092.48V107.625H1088.93V120.297H1087.73V106.521ZM1101.18 110.649H1109.2V111.705H1101.18V110.649ZM1100.46 107.481H1109.7V108.569H1100.46V107.481ZM1100.53 113.481H1109.65V114.553H1100.53V113.481ZM1104.5 105.561H1105.68V111.241H1104.5V105.561ZM1106.61 111.497H1107.78V118.857C1107.78 119.545 1107.62 119.897 1107.12 120.073C1106.62 120.249 1105.81 120.265 1104.53 120.265C1104.48 119.945 1104.29 119.465 1104.11 119.145C1105.1 119.177 1106 119.177 1106.26 119.161C1106.53 119.145 1106.61 119.081 1106.61 118.841V111.497ZM1101.5 115.673L1102.5 115.113C1103.26 115.929 1104.19 117.081 1104.59 117.833L1103.54 118.489C1103.15 117.721 1102.29 116.521 1101.5 115.673ZM1096.18 106.617H1100.18V117.129H1096.18V116.041H1099.06V107.705H1096.18V106.617ZM1096.22 111.273H1099.58V112.345H1096.22V111.273ZM1095.6 106.617H1096.74V118.441H1095.6V106.617Z" fill="black"/>
<defs>
<linearGradient id="paint0_linear_1766_39262" x1="217" y1="57" x2="217" y2="79" gradientUnits="userSpaceOnUse">
<stop stop-color="#6FC7E2"/>
<stop offset="1" stop-color="#00AED4"/>
</linearGradient>
<linearGradient id="paint1_linear_1766_39262" x1="436.2" y1="57" x2="436.2" y2="79" gradientUnits="userSpaceOnUse">
<stop stop-color="#6CCC74"/>
<stop offset="1" stop-color="#1DA637"/>
</linearGradient>
<linearGradient id="paint2_linear_1766_39262" x1="655.4" y1="57" x2="655.4" y2="79" gradientUnits="userSpaceOnUse">
<stop stop-color="#6FC7E2"/>
<stop offset="1" stop-color="#00AED4"/>
</linearGradient>
<linearGradient id="paint3_linear_1766_39262" x1="874.6" y1="57" x2="874.6" y2="79" gradientUnits="userSpaceOnUse">
<stop stop-color="#859FD1"/>
<stop offset="1" stop-color="#4985C6"/>
</linearGradient>
<linearGradient id="paint4_linear_1766_39262" x1="1093.8" y1="57" x2="1093.8" y2="79" gradientUnits="userSpaceOnUse">
<stop stop-color="#6CCC74"/>
<stop offset="1" stop-color="#1DA637"/>
</linearGradient>
</defs>
</svg>
