<svg width="820" height="300" viewBox="0 0 820 300" fill="none" xmlns="http://www.w3.org/2000/svg">
<g clip-path="url(#clip0_337_63424)">
<path d="M150 300C232.843 300 300 232.843 300 150C300 67.1573 232.843 0 150 0C67.1573 0 0 67.1573 0 150C0 232.843 67.1573 300 150 300Z" fill="url(#paint0_radial_337_63424)"/>
<path d="M177.557 92H122.754V121.69H177.557V92Z" fill="url(#paint1_linear_337_63424)"/>
<path d="M143.86 165.407L141.023 137.117H158.799L155.963 165.407H143.86Z" fill="url(#paint2_linear_337_63424)"/>
<path d="M154.335 129.519C154.335 131.977 152.368 133.944 149.909 133.944C147.451 133.944 145.484 131.977 145.484 129.519C145.484 127.06 147.489 125.094 149.909 125.094C152.33 125.094 154.335 127.06 154.335 129.519Z" fill="url(#paint3_linear_337_63424)"/>
<path d="M122.829 165.407L119.992 137.117H137.768L134.932 165.407H122.829Z" fill="url(#paint4_linear_337_63424)"/>
<path d="M133.303 129.519C133.303 131.977 131.337 133.944 128.878 133.944C126.42 133.944 124.453 131.977 124.453 129.519C124.453 127.06 126.458 125.094 128.878 125.094C131.299 125.094 133.303 127.06 133.303 129.519Z" fill="url(#paint5_linear_337_63424)"/>
<path d="M164.889 165.407L162.09 137.117H179.828L177.029 165.407H164.889Z" fill="url(#paint6_linear_337_63424)"/>
<path d="M175.21 129.519C175.21 131.977 173.243 133.944 170.784 133.944C168.326 133.944 166.359 131.977 166.359 129.519C166.359 127.06 168.364 125.094 170.784 125.094C173.205 125.094 175.21 127.06 175.21 129.519Z" fill="url(#paint7_linear_337_63424)"/>
<path d="M137.481 103.789L133.656 107.613L137.481 111.438L141.305 107.613L137.481 103.789Z" fill="white"/>
<path d="M149.906 103.766L146.082 107.591L149.906 111.415L153.731 107.591L149.906 103.766Z" fill="white"/>
<path d="M162.309 103.773L158.484 107.598L162.309 111.422L166.133 107.598L162.309 103.773Z" fill="white"/>
<path d="M83.3974 199.851L84.8554 198.969C85.4434 199.413 86.0554 199.905 86.6914 200.445C87.3274 200.973 87.9334 201.501 88.5094 202.029C89.0854 202.557 89.5594 203.043 89.9314 203.487L88.3474 204.495C88.0114 204.075 87.5674 203.589 87.0154 203.037C86.4634 202.485 85.8694 201.933 85.2334 201.381C84.5974 200.817 83.9854 200.307 83.3974 199.851ZM78.7894 199.023L80.5894 199.707C80.1334 200.307 79.5994 200.907 78.9874 201.507C78.3874 202.095 77.7514 202.647 77.0794 203.163C76.4194 203.691 75.7654 204.159 75.1174 204.567C74.9974 204.447 74.8534 204.309 74.6854 204.153C74.5294 204.009 74.3614 203.865 74.1814 203.721C74.0134 203.589 73.8634 203.475 73.7314 203.379C74.3674 203.007 75.0094 202.581 75.6574 202.101C76.3054 201.609 76.8994 201.099 77.4394 200.571C77.9914 200.031 78.4414 199.515 78.7894 199.023ZM77.3854 190.761V195.891H86.3314V190.761H77.3854ZM75.6394 189.141H88.1494V197.529H75.6394V189.141ZM92.8834 188.565H106.797V189.825H92.8834V188.565ZM98.9674 188.979H100.641V195.999H98.9674V188.979ZM92.0914 190.941H107.661V194.901H105.969V192.237H93.7294V194.901H92.0914V190.941ZM93.8374 195.063C94.4014 195.003 95.0554 194.919 95.7994 194.811C96.5554 194.703 97.3354 194.589 98.1394 194.469L98.1934 195.477C97.5094 195.633 96.8314 195.783 96.1594 195.927C95.4994 196.071 94.8814 196.203 94.3054 196.323L93.8374 195.063ZM94.3594 193.263L94.8274 192.399C95.1994 192.459 95.5894 192.537 95.9974 192.633C96.4174 192.729 96.8194 192.831 97.2034 192.939C97.5874 193.047 97.9054 193.161 98.1574 193.281L97.6894 194.253C97.4374 194.133 97.1194 194.013 96.7354 193.893C96.3514 193.773 95.9494 193.659 95.5294 193.551C95.1214 193.431 94.7314 193.335 94.3594 193.263ZM104.727 192.273L105.429 193.209C105.093 193.341 104.721 193.467 104.313 193.587C103.917 193.707 103.515 193.815 103.107 193.911C102.711 194.007 102.345 194.091 102.009 194.163L101.451 193.317C101.775 193.245 102.135 193.149 102.531 193.029C102.939 192.897 103.335 192.765 103.719 192.633C104.103 192.489 104.439 192.369 104.727 192.273ZM101.199 195.333L101.559 194.343C102.015 194.391 102.501 194.463 103.017 194.559C103.545 194.655 104.049 194.763 104.529 194.883C105.021 194.991 105.429 195.105 105.753 195.225L105.411 196.323C105.087 196.203 104.679 196.083 104.187 195.963C103.707 195.831 103.203 195.711 102.675 195.603C102.159 195.495 101.667 195.405 101.199 195.333ZM91.9654 196.503H107.823V197.853H91.9654V196.503ZM97.2394 199.887H98.8054V204.369H97.2394V199.887ZM101.181 199.887H102.729V204.369H101.181V199.887ZM93.3334 198.969H105.573V200.337H94.9354V204.477H93.3334V198.969ZM105.195 198.969H106.833V202.893C106.833 203.265 106.791 203.553 106.707 203.757C106.623 203.973 106.455 204.135 106.203 204.243C105.951 204.363 105.645 204.435 105.285 204.459C104.925 204.483 104.505 204.495 104.025 204.495C103.989 204.291 103.917 204.057 103.809 203.793C103.713 203.529 103.611 203.295 103.503 203.091C103.827 203.103 104.121 203.109 104.385 203.109C104.661 203.109 104.847 203.109 104.943 203.109C105.039 203.097 105.105 203.073 105.141 203.037C105.177 203.013 105.195 202.959 105.195 202.875V198.969ZM99.0214 197.025L100.875 197.079C100.707 197.583 100.527 198.075 100.335 198.555C100.155 199.035 99.9874 199.455 99.8314 199.815L98.3374 199.671C98.4694 199.287 98.6014 198.849 98.7334 198.357C98.8654 197.865 98.9614 197.421 99.0214 197.025ZM109.767 198.069H125.985V199.491H109.767V198.069ZM110.037 188.529H125.643V190.023H110.037V188.529ZM121.611 197.025L123.267 197.475C122.847 198.699 122.277 199.731 121.557 200.571C120.849 201.411 119.973 202.101 118.929 202.641C117.897 203.181 116.673 203.595 115.257 203.883C113.841 204.171 112.215 204.387 110.379 204.531C110.319 204.291 110.229 204.033 110.109 203.757C109.989 203.481 109.857 203.247 109.713 203.055C111.453 202.959 112.983 202.791 114.303 202.551C115.623 202.311 116.763 201.963 117.723 201.507C118.683 201.051 119.475 200.463 120.099 199.743C120.735 199.011 121.239 198.105 121.611 197.025ZM111.927 201.453L113.241 200.355C114.405 200.535 115.569 200.745 116.733 200.985C117.897 201.225 119.025 201.471 120.117 201.723C121.209 201.975 122.229 202.233 123.177 202.497C124.137 202.761 124.989 203.019 125.733 203.271L124.185 204.477C123.285 204.129 122.187 203.775 120.891 203.415C119.607 203.067 118.203 202.725 116.679 202.389C115.155 202.041 113.571 201.729 111.927 201.453ZM114.879 189.087H116.499V195.333H114.879V189.087ZM119.037 189.087H120.639V195.333H119.037V189.087ZM112.503 192.687V194.811H123.285V192.687H112.503ZM110.919 191.319H124.977V196.161H110.919V191.319ZM111.927 201.453C112.323 201.009 112.737 200.493 113.169 199.905C113.601 199.317 114.015 198.705 114.411 198.069C114.807 197.433 115.137 196.827 115.401 196.251L117.093 196.647C116.829 197.211 116.505 197.793 116.121 198.393C115.749 198.981 115.365 199.545 114.969 200.085C114.585 200.613 114.231 201.075 113.907 201.471L111.927 201.453ZM131.691 203.253C130.995 203.253 130.377 203.169 129.837 203.001C129.309 202.833 128.841 202.611 128.433 202.335C128.025 202.047 127.671 201.741 127.371 201.417L128.379 200.085C128.775 200.469 129.225 200.805 129.729 201.093C130.233 201.381 130.827 201.525 131.511 201.525C132.015 201.525 132.453 201.441 132.825 201.273C133.197 201.093 133.485 200.841 133.689 200.517C133.905 200.193 134.013 199.797 134.013 199.329C134.013 198.849 133.893 198.429 133.653 198.069C133.425 197.697 133.023 197.415 132.447 197.223C131.883 197.019 131.103 196.917 130.107 196.917V195.369C130.983 195.369 131.667 195.273 132.159 195.081C132.663 194.877 133.023 194.601 133.239 194.253C133.467 193.905 133.581 193.509 133.581 193.065C133.581 192.489 133.401 192.033 133.041 191.697C132.681 191.349 132.183 191.175 131.547 191.175C131.043 191.175 130.569 191.289 130.125 191.517C129.693 191.733 129.285 192.027 128.901 192.399L127.821 191.103C128.349 190.623 128.925 190.239 129.549 189.951C130.173 189.651 130.863 189.501 131.619 189.501C132.411 189.501 133.113 189.639 133.725 189.915C134.337 190.179 134.817 190.563 135.165 191.067C135.513 191.571 135.687 192.189 135.687 192.921C135.687 193.677 135.477 194.319 135.057 194.847C134.649 195.375 134.097 195.771 133.401 196.035V196.107C133.905 196.239 134.361 196.455 134.769 196.755C135.189 197.043 135.519 197.415 135.759 197.871C135.999 198.327 136.119 198.849 136.119 199.437C136.119 200.229 135.915 200.913 135.507 201.489C135.111 202.053 134.577 202.491 133.905 202.803C133.233 203.103 132.495 203.253 131.691 203.253ZM145.071 187.845H147.015C146.991 188.421 146.955 189.129 146.907 189.969C146.871 190.797 146.775 191.715 146.619 192.723C146.475 193.731 146.241 194.775 145.917 195.855C145.593 196.923 145.143 197.985 144.567 199.041C144.003 200.085 143.283 201.075 142.407 202.011C141.531 202.947 140.457 203.763 139.185 204.459C139.041 204.243 138.837 204.009 138.573 203.757C138.321 203.505 138.057 203.283 137.781 203.091C139.029 202.455 140.073 201.705 140.913 200.841C141.753 199.977 142.437 199.059 142.965 198.087C143.493 197.103 143.901 196.113 144.189 195.117C144.477 194.121 144.681 193.161 144.801 192.237C144.921 191.301 144.993 190.455 145.017 189.699C145.053 188.943 145.071 188.325 145.071 187.845ZM146.835 190.059C146.859 190.275 146.907 190.671 146.979 191.247C147.051 191.823 147.177 192.507 147.357 193.299C147.549 194.091 147.819 194.937 148.167 195.837C148.515 196.737 148.971 197.631 149.535 198.519C150.099 199.395 150.795 200.217 151.623 200.985C152.463 201.753 153.459 202.395 154.611 202.911C154.359 203.115 154.119 203.349 153.891 203.613C153.663 203.877 153.483 204.129 153.351 204.369C152.151 203.805 151.119 203.109 150.255 202.281C149.391 201.441 148.665 200.541 148.077 199.581C147.489 198.609 147.015 197.637 146.655 196.665C146.295 195.681 146.013 194.757 145.809 193.893C145.617 193.017 145.473 192.261 145.377 191.625C145.293 190.977 145.233 190.515 145.197 190.239L146.835 190.059ZM160.011 187.953H161.775V198.123H160.011V187.953ZM166.491 187.953H168.255V198.123H166.491V187.953ZM155.961 197.025H172.359V198.699H155.961V197.025ZM156.645 191.463H171.765V193.101H156.645V191.463ZM165.573 200.391L167.085 199.545C167.625 199.929 168.207 200.361 168.831 200.841C169.467 201.309 170.073 201.777 170.649 202.245C171.237 202.713 171.717 203.133 172.089 203.505L170.433 204.513C170.097 204.153 169.647 203.733 169.083 203.253C168.531 202.773 167.943 202.281 167.319 201.777C166.707 201.273 166.125 200.811 165.573 200.391ZM160.857 199.581L162.639 200.265C162.207 200.793 161.703 201.321 161.127 201.849C160.563 202.365 159.969 202.851 159.345 203.307C158.733 203.775 158.127 204.183 157.527 204.531C157.407 204.399 157.263 204.261 157.095 204.117C156.939 203.973 156.777 203.829 156.609 203.685C156.441 203.541 156.291 203.421 156.159 203.325C156.735 203.013 157.323 202.653 157.923 202.245C158.523 201.825 159.075 201.381 159.579 200.913C160.095 200.445 160.521 200.001 160.857 199.581ZM177.597 191.931H186.687V193.389H177.597V191.931ZM178.497 195.063H180.063V202.191H178.497V195.063ZM179.343 195.063H185.787V200.931H179.343V199.491H184.221V196.485H179.343V195.063ZM174.609 188.709H188.991V190.311H176.265V204.531H174.609V188.709ZM188.019 188.709H189.693V202.479C189.693 202.947 189.627 203.319 189.495 203.595C189.375 203.871 189.165 204.075 188.865 204.207C188.565 204.351 188.163 204.441 187.659 204.477C187.167 204.513 186.537 204.531 185.769 204.531C185.745 204.375 185.703 204.195 185.643 203.991C185.583 203.787 185.511 203.583 185.427 203.379C185.343 203.175 185.259 203.001 185.175 202.857C185.703 202.881 186.195 202.893 186.651 202.893C187.119 202.893 187.431 202.893 187.587 202.893C187.743 202.881 187.851 202.845 187.911 202.785C187.983 202.713 188.019 202.605 188.019 202.461V188.709ZM200.043 191.967V193.173H205.569V191.967H200.043ZM200.043 189.627V190.833H205.569V189.627H200.043ZM198.495 188.385H207.189V194.433H198.495V188.385ZM197.649 195.531H208.161V196.935H197.649V195.531ZM201.987 196.251H203.589V203.595L201.987 202.929V196.251ZM199.917 199.509C200.229 200.457 200.637 201.165 201.141 201.633C201.645 202.089 202.233 202.395 202.905 202.551C203.589 202.695 204.327 202.767 205.119 202.767C205.251 202.767 205.473 202.767 205.785 202.767C206.097 202.767 206.445 202.767 206.829 202.767C207.213 202.767 207.573 202.767 207.909 202.767C208.257 202.755 208.515 202.749 208.683 202.749C208.623 202.869 208.557 203.019 208.485 203.199C208.413 203.379 208.353 203.559 208.305 203.739C208.257 203.931 208.221 204.105 208.197 204.261H207.459H205.047C204.303 204.261 203.613 204.201 202.977 204.081C202.353 203.973 201.783 203.769 201.267 203.469C200.751 203.169 200.289 202.731 199.881 202.155C199.485 201.567 199.149 200.811 198.873 199.887L199.917 199.509ZM203.139 198.807H207.225V200.175H203.139V198.807ZM198.765 197.637L200.313 197.835C200.133 199.299 199.803 200.595 199.323 201.723C198.855 202.839 198.219 203.763 197.415 204.495C197.331 204.399 197.211 204.285 197.055 204.153C196.899 204.033 196.737 203.907 196.569 203.775C196.413 203.655 196.275 203.559 196.155 203.487C196.935 202.863 197.529 202.053 197.937 201.057C198.357 200.061 198.633 198.921 198.765 197.637ZM191.601 197.187C192.321 197.007 193.179 196.773 194.175 196.485C195.171 196.197 196.179 195.903 197.199 195.603L197.433 197.151C196.509 197.439 195.567 197.733 194.607 198.033C193.659 198.333 192.789 198.597 191.997 198.825L191.601 197.187ZM191.799 191.337H197.379V192.921H191.799V191.337ZM193.905 187.827H195.471V202.461C195.471 202.881 195.423 203.211 195.327 203.451C195.231 203.691 195.063 203.883 194.823 204.027C194.583 204.159 194.271 204.243 193.887 204.279C193.503 204.327 193.023 204.345 192.447 204.333C192.435 204.129 192.381 203.871 192.285 203.559C192.201 203.259 192.105 202.995 191.997 202.767C192.357 202.779 192.687 202.785 192.987 202.785C193.287 202.785 193.491 202.785 193.599 202.785C193.719 202.785 193.797 202.761 193.833 202.713C193.881 202.665 193.905 202.581 193.905 202.461V187.827ZM217.233 197.439H218.943V204.495H217.233V197.439ZM210.501 189.087H225.837V191.769H224.181V190.509H212.085V191.769H210.501V189.087ZM210.213 192.363H226.107V193.731H210.213V192.363ZM210.015 198.825H226.287V200.247H210.015V198.825ZM221.715 191.175L223.389 191.535C223.005 192.711 222.471 193.695 221.787 194.487C221.115 195.267 220.269 195.897 219.249 196.377C218.241 196.857 217.029 197.223 215.613 197.475C214.209 197.727 212.583 197.907 210.735 198.015C210.663 197.763 210.573 197.511 210.465 197.259C210.369 196.995 210.261 196.773 210.141 196.593C211.881 196.533 213.405 196.401 214.713 196.197C216.021 195.993 217.137 195.693 218.061 195.297C218.997 194.889 219.759 194.349 220.347 193.677C220.947 193.005 221.403 192.171 221.715 191.175ZM212.409 195.369L213.759 194.325C214.899 194.493 216.039 194.685 217.179 194.901C218.331 195.117 219.441 195.345 220.509 195.585C221.577 195.825 222.573 196.077 223.497 196.341C224.433 196.593 225.261 196.839 225.981 197.079L224.343 198.177C223.467 197.853 222.405 197.523 221.157 197.187C219.921 196.851 218.553 196.527 217.053 196.215C215.565 195.903 214.017 195.621 212.409 195.369ZM216.693 188.169L218.457 187.773C218.649 188.049 218.841 188.361 219.033 188.709C219.237 189.045 219.399 189.333 219.519 189.573L217.665 190.059C217.569 189.807 217.425 189.501 217.233 189.141C217.041 188.781 216.861 188.457 216.693 188.169ZM212.409 195.369C212.877 194.949 213.369 194.469 213.885 193.929C214.401 193.377 214.899 192.807 215.379 192.219C215.859 191.619 216.267 191.055 216.603 190.527L218.241 191.031C217.869 191.547 217.443 192.075 216.963 192.615C216.495 193.155 216.015 193.665 215.523 194.145C215.043 194.613 214.593 195.021 214.173 195.369H212.409ZM214.299 200.463L216.009 201.021C215.649 201.429 215.217 201.825 214.713 202.209C214.221 202.581 213.699 202.923 213.147 203.235C212.607 203.559 212.079 203.835 211.563 204.063C211.443 203.955 211.299 203.829 211.131 203.685C210.963 203.541 210.789 203.397 210.609 203.253C210.429 203.121 210.273 203.013 210.141 202.929C210.933 202.641 211.707 202.287 212.463 201.867C213.231 201.435 213.843 200.967 214.299 200.463ZM220.113 201.309L221.301 200.229C221.841 200.469 222.405 200.751 222.993 201.075C223.593 201.399 224.163 201.729 224.703 202.065C225.255 202.401 225.705 202.713 226.053 203.001L224.757 204.207C224.433 203.919 224.007 203.601 223.479 203.253C222.951 202.905 222.393 202.557 221.805 202.209C221.217 201.861 220.653 201.561 220.113 201.309Z" fill="#F38733"/>
<path d="M410 300C492.843 300 560 232.843 560 150C560 67.1573 492.843 0 410 0C327.157 0 260 67.1573 260 150C260 232.843 327.157 300 410 300Z" fill="url(#paint8_radial_337_63424)"/>
<path d="M444.695 93H393.078V119.212H444.695V93Z" fill="url(#paint9_linear_337_63424)"/>
<path d="M439.492 97.5469H384.539V125.481H439.492V97.5469Z" fill="url(#paint10_linear_337_63424)"/>
<path d="M390.405 136.953L403.346 149.454L392.238 164.998L376.145 149.564L390.405 136.953Z" fill="url(#paint11_linear_337_63424)"/>
<path d="M390.406 136.953L425.379 130.281V136.953L411.815 139.739L428.055 143.405L443.965 136.22V143.369L427.578 152.863L401.88 151.544L399.717 154.55L385.273 141.499L390.406 136.953Z" fill="url(#paint12_linear_337_63424)"/>
<path d="M394.367 153.008L392.742 154.947L394.681 156.572L396.306 154.633L394.367 153.008Z" fill="white"/>
<path d="M391.109 156.906L389.484 158.845L391.423 160.469L393.048 158.531L391.109 156.906Z" fill="white"/>
<path d="M412.58 115.75C410.758 115.75 410.042 114.983 409.945 114H408C408.106 115.825 409.556 116.85 411.253 117.192V119H413.906V117.208C415.63 116.9 417 115.958 417 114.25C417 111.883 414.852 111.075 412.845 110.583C410.838 110.092 410.193 109.583 410.193 108.792C410.193 107.883 411.085 107.25 412.58 107.25C414.153 107.25 414.737 107.958 414.79 109H416.744C416.682 107.567 415.753 106.25 413.906 105.825V104H411.253V105.8C409.538 106.15 408.159 107.2 408.159 108.808C408.159 110.733 409.848 111.692 412.314 112.25C414.525 112.75 414.967 113.483 414.967 114.258C414.967 114.833 414.533 115.75 412.58 115.75Z" fill="white"/>
<path d="M321.437 190.217H332.183V191.765H321.437V190.217ZM322.967 196.373H330.563V197.723H322.967V196.373ZM322.967 199.343H330.563V200.693H322.967V199.343ZM325.829 187.805H327.467V204.383H325.829V187.805ZM321.923 193.331H330.563V194.789H323.507V204.509H321.923V193.331ZM329.933 193.331H331.535V202.745C331.535 203.117 331.493 203.417 331.409 203.645C331.337 203.873 331.175 204.053 330.923 204.185C330.695 204.317 330.401 204.395 330.041 204.419C329.681 204.443 329.261 204.455 328.781 204.455C328.757 204.251 328.697 203.999 328.601 203.699C328.517 203.411 328.415 203.165 328.295 202.961C328.619 202.973 328.907 202.979 329.159 202.979C329.411 202.979 329.585 202.979 329.681 202.979C329.849 202.979 329.933 202.889 329.933 202.709V193.331ZM328.223 188.705L329.177 187.805C329.645 188.033 330.131 188.309 330.635 188.633C331.139 188.957 331.535 189.263 331.823 189.551L330.797 190.541C330.545 190.253 330.167 189.941 329.663 189.605C329.171 189.257 328.691 188.957 328.223 188.705ZM317.729 196.733L319.295 195.023V204.419H317.729V196.733ZM315.839 190.937H320.069V192.431H315.839V190.937ZM319.079 195.293C319.187 195.401 319.355 195.593 319.583 195.869C319.811 196.145 320.051 196.451 320.303 196.787C320.567 197.111 320.807 197.417 321.023 197.705C321.251 197.981 321.413 198.179 321.509 198.299L320.555 199.433C320.435 199.217 320.273 198.953 320.069 198.641C319.877 198.317 319.661 197.987 319.421 197.651C319.193 197.303 318.971 196.985 318.755 196.697C318.551 196.397 318.383 196.157 318.251 195.977L319.079 195.293ZM319.619 190.937H319.943L320.249 190.883L321.113 191.423C320.765 192.479 320.321 193.535 319.781 194.591C319.241 195.635 318.653 196.613 318.017 197.525C317.381 198.425 316.745 199.199 316.109 199.847C316.049 199.703 315.965 199.541 315.857 199.361C315.761 199.169 315.653 198.989 315.533 198.821C315.425 198.641 315.323 198.509 315.227 198.425C315.815 197.885 316.397 197.219 316.973 196.427C317.549 195.635 318.065 194.789 318.521 193.889C318.989 192.989 319.355 192.113 319.619 191.261V190.937ZM320.807 194.411L321.887 195.167C321.587 195.515 321.299 195.869 321.023 196.229C320.747 196.589 320.483 196.895 320.231 197.147L319.439 196.553C319.655 196.265 319.895 195.917 320.159 195.509C320.435 195.089 320.651 194.723 320.807 194.411ZM317.009 188.543L318.377 187.913C318.677 188.261 318.971 188.645 319.259 189.065C319.559 189.473 319.781 189.833 319.925 190.145L318.485 190.883C318.341 190.571 318.131 190.193 317.855 189.749C317.579 189.305 317.297 188.903 317.009 188.543ZM341.291 191.801H348.743V193.403H341.291V191.801ZM348.023 191.801H349.661C349.661 191.801 349.661 191.855 349.661 191.963C349.661 192.059 349.655 192.173 349.643 192.305C349.643 192.425 349.643 192.521 349.643 192.593C349.607 194.477 349.565 196.073 349.517 197.381C349.469 198.689 349.409 199.763 349.337 200.603C349.277 201.431 349.193 202.079 349.085 202.547C348.989 203.015 348.869 203.345 348.725 203.537C348.533 203.813 348.329 204.005 348.113 204.113C347.897 204.221 347.633 204.299 347.321 204.347C347.045 204.383 346.679 204.395 346.223 204.383C345.779 204.383 345.323 204.377 344.855 204.365C344.843 204.125 344.789 203.843 344.693 203.519C344.609 203.207 344.495 202.943 344.351 202.727C344.831 202.763 345.275 202.787 345.683 202.799C346.091 202.811 346.385 202.817 346.565 202.817C346.721 202.817 346.853 202.799 346.961 202.763C347.069 202.715 347.165 202.637 347.249 202.529C347.369 202.385 347.465 202.103 347.537 201.683C347.621 201.251 347.693 200.633 347.753 199.829C347.813 199.025 347.861 197.993 347.897 196.733C347.945 195.473 347.987 193.949 348.023 192.161V191.801ZM344.027 187.805H345.683C345.683 189.245 345.665 190.643 345.629 191.999C345.593 193.343 345.497 194.627 345.341 195.851C345.197 197.075 344.951 198.221 344.603 199.289C344.255 200.357 343.763 201.335 343.127 202.223C342.503 203.111 341.699 203.879 340.715 204.527C340.595 204.323 340.415 204.095 340.175 203.843C339.935 203.603 339.713 203.405 339.509 203.249C340.433 202.661 341.183 201.965 341.759 201.161C342.347 200.357 342.797 199.463 343.109 198.479C343.421 197.495 343.637 196.439 343.757 195.311C343.889 194.183 343.967 192.989 343.991 191.729C344.015 190.457 344.027 189.149 344.027 187.805ZM334.685 188.615H340.751V200.351H339.149V190.163H336.215V201.503H334.685V188.615ZM333.407 200.999C334.091 200.867 334.877 200.717 335.765 200.549C336.665 200.369 337.619 200.171 338.627 199.955C339.635 199.739 340.637 199.523 341.633 199.307L341.795 200.837C340.847 201.065 339.887 201.293 338.915 201.521C337.955 201.749 337.031 201.965 336.143 202.169C335.255 202.373 334.445 202.565 333.713 202.745L333.407 200.999ZM335.477 192.449H339.923V193.961H335.477V192.449ZM335.477 196.247H339.923V197.741H335.477V196.247ZM355.115 193.115H364.565V194.699H355.115V193.115ZM352.919 196.895H366.815V198.443H352.919V196.895ZM352.073 202.475H367.697V204.041H352.073V202.475ZM358.913 193.835H360.731V203.231H358.913V193.835ZM354.287 199.181L355.673 198.623C355.913 198.935 356.141 199.283 356.357 199.667C356.585 200.039 356.789 200.411 356.969 200.783C357.161 201.143 357.299 201.467 357.383 201.755L355.907 202.403C355.823 202.115 355.697 201.785 355.529 201.413C355.361 201.041 355.169 200.657 354.953 200.261C354.737 199.865 354.515 199.505 354.287 199.181ZM363.881 198.623L365.501 199.235C365.165 199.799 364.811 200.369 364.439 200.945C364.067 201.521 363.725 202.013 363.413 202.421L362.117 201.863C362.321 201.575 362.531 201.245 362.747 200.873C362.963 200.489 363.173 200.099 363.377 199.703C363.581 199.307 363.749 198.947 363.881 198.623ZM360.515 188.651C360.935 189.119 361.445 189.587 362.045 190.055C362.657 190.523 363.317 190.967 364.025 191.387C364.733 191.795 365.465 192.167 366.221 192.503C366.989 192.839 367.733 193.115 368.453 193.331C368.333 193.451 368.195 193.601 368.039 193.781C367.883 193.961 367.739 194.141 367.607 194.321C367.475 194.501 367.361 194.669 367.265 194.825C366.533 194.561 365.789 194.237 365.033 193.853C364.289 193.469 363.551 193.037 362.819 192.557C362.099 192.065 361.421 191.549 360.785 191.009C360.149 190.469 359.585 189.911 359.093 189.335L360.515 188.651ZM359.759 187.625L361.343 188.345C360.683 189.353 359.891 190.277 358.967 191.117C358.043 191.945 357.029 192.677 355.925 193.313C354.821 193.937 353.675 194.465 352.487 194.897C352.367 194.657 352.199 194.393 351.983 194.105C351.767 193.805 351.551 193.547 351.335 193.331C352.475 192.983 353.579 192.533 354.647 191.981C355.715 191.429 356.687 190.787 357.563 190.055C358.451 189.323 359.183 188.513 359.759 187.625ZM369.857 189.551H377.669V192.683H376.337V190.919H371.117V192.683H369.857V189.551ZM370.991 198.929H376.805V204.455H375.293V200.279H372.449V204.473H370.991V198.929ZM371.513 202.601H376.301V203.933H371.513V202.601ZM372.395 191.387L373.727 191.621C373.439 192.449 373.043 193.241 372.539 193.997C372.035 194.741 371.387 195.413 370.595 196.013C370.511 195.833 370.379 195.629 370.199 195.401C370.031 195.173 369.869 194.999 369.713 194.879C370.421 194.399 370.991 193.853 371.423 193.241C371.867 192.617 372.191 191.999 372.395 191.387ZM372.737 192.593H375.905V193.871H372.197L372.737 192.593ZM375.545 192.593H375.833L376.067 192.539L376.931 193.133C376.511 194.225 375.947 195.191 375.239 196.031C374.543 196.859 373.757 197.567 372.881 198.155C372.017 198.731 371.123 199.199 370.199 199.559C370.139 199.427 370.061 199.271 369.965 199.091C369.869 198.911 369.767 198.737 369.659 198.569C369.551 198.401 369.449 198.269 369.353 198.173C370.241 197.885 371.093 197.495 371.909 197.003C372.737 196.499 373.463 195.899 374.087 195.203C374.723 194.507 375.209 193.727 375.545 192.863V192.593ZM372.611 188.309L373.979 187.823C374.135 188.159 374.297 188.531 374.465 188.939C374.633 189.347 374.765 189.695 374.861 189.983L373.421 190.559C373.349 190.271 373.235 189.911 373.079 189.479C372.923 189.047 372.767 188.657 372.611 188.309ZM378.155 188.597H386.111V190.055H378.155V188.597ZM380.189 195.617V197.003H383.987V195.617H380.189ZM380.189 198.263V199.703H383.987V198.263H380.189ZM380.189 192.935V194.339H383.987V192.935H380.189ZM378.659 191.585H385.607V201.035H378.659V191.585ZM381.359 189.371L382.979 189.623C382.835 190.127 382.685 190.631 382.529 191.135C382.385 191.627 382.253 192.059 382.133 192.431L380.873 192.107C380.957 191.723 381.047 191.273 381.143 190.757C381.239 190.229 381.311 189.767 381.359 189.371ZM380.603 201.197L381.701 202.259C381.173 202.691 380.555 203.117 379.847 203.537C379.151 203.957 378.503 204.311 377.903 204.599C377.819 204.419 377.705 204.209 377.561 203.969C377.417 203.729 377.285 203.525 377.165 203.357C377.537 203.177 377.939 202.967 378.371 202.727C378.803 202.475 379.217 202.217 379.613 201.953C380.009 201.677 380.339 201.425 380.603 201.197ZM382.367 202.187L383.285 201.125C383.621 201.329 383.975 201.563 384.347 201.827C384.731 202.091 385.097 202.361 385.445 202.637C385.805 202.901 386.093 203.141 386.309 203.357L385.337 204.545C385.121 204.317 384.845 204.059 384.509 203.771C384.173 203.495 383.819 203.219 383.447 202.943C383.075 202.655 382.715 202.403 382.367 202.187ZM371.513 195.743L372.485 194.735C372.893 194.975 373.337 195.233 373.817 195.509C374.297 195.785 374.777 196.067 375.257 196.355C375.749 196.643 376.205 196.925 376.625 197.201C377.057 197.477 377.429 197.717 377.741 197.921L376.733 199.127C376.349 198.827 375.857 198.479 375.257 198.083C374.657 197.687 374.027 197.285 373.367 196.877C372.707 196.457 372.089 196.079 371.513 195.743ZM389.729 188.435H402.059V194.087H400.331V189.659H391.385V194.087H389.729V188.435ZM392.087 190.577H399.611V191.639H392.087V190.577ZM392.087 192.575H399.575V193.691H392.087V192.575ZM387.839 194.681H403.841V196.049H387.839V194.681ZM395.831 196.985H402.059V198.317H395.831V196.985ZM390.341 197.021H394.625V198.245H390.341V197.021ZM390.341 199.253H394.625V200.477H390.341V199.253ZM397.937 198.209C398.465 199.409 399.263 200.447 400.331 201.323C401.411 202.199 402.695 202.817 404.183 203.177C404.075 203.273 403.955 203.399 403.823 203.555C403.691 203.723 403.565 203.885 403.445 204.041C403.337 204.209 403.247 204.359 403.175 204.491C401.603 204.035 400.259 203.303 399.143 202.295C398.039 201.275 397.181 200.045 396.569 198.605L397.937 198.209ZM401.681 196.985H401.987L402.275 196.931L403.319 197.345C402.935 198.581 402.389 199.667 401.681 200.603C400.985 201.527 400.169 202.307 399.233 202.943C398.309 203.579 397.313 204.089 396.245 204.473C396.149 204.269 396.011 204.035 395.831 203.771C395.651 203.507 395.483 203.297 395.327 203.141C396.287 202.853 397.193 202.433 398.045 201.881C398.897 201.329 399.635 200.663 400.259 199.883C400.895 199.103 401.369 198.221 401.681 197.237V196.985ZM387.623 202.007C388.223 201.959 388.901 201.905 389.657 201.845C390.425 201.773 391.235 201.695 392.087 201.611C392.939 201.527 393.797 201.443 394.661 201.359L394.679 202.691C393.455 202.835 392.237 202.973 391.025 203.105C389.813 203.237 388.739 203.357 387.803 203.465L387.623 202.007ZM393.743 195.113H395.381V204.509H393.743V195.113ZM389.315 195.149H390.881V202.421H389.315V195.149ZM405.893 189.587H421.769V191.045H405.893V189.587ZM410.177 193.115V194.465H417.629V193.115H410.177ZM408.485 191.927H419.411V195.653H408.485V191.927ZM406.487 196.535H420.743V197.939H408.143V204.509H406.487V196.535ZM419.555 196.535H421.265V202.835C421.265 203.231 421.211 203.525 421.103 203.717C420.995 203.909 420.791 204.059 420.491 204.167C420.215 204.263 419.861 204.323 419.429 204.347C419.009 204.371 418.493 204.377 417.881 204.365C417.845 204.173 417.773 203.957 417.665 203.717C417.557 203.489 417.455 203.285 417.359 203.105C417.611 203.117 417.869 203.123 418.133 203.123C418.397 203.135 418.625 203.135 418.817 203.123C419.021 203.123 419.159 203.123 419.231 203.123C419.447 203.123 419.555 203.027 419.555 202.835V196.535ZM412.607 188.111L414.317 187.715C414.485 188.087 414.653 188.507 414.821 188.975C414.989 189.431 415.115 189.809 415.199 190.109L413.399 190.613C413.327 190.289 413.213 189.893 413.057 189.425C412.901 188.957 412.751 188.519 412.607 188.111ZM410.789 198.839H417.629V202.673H410.789V201.467H416.117V200.045H410.789V198.839ZM409.871 198.839H411.473V203.519H409.871V198.839ZM433.631 193.817H440.201V195.401H433.631V193.817ZM423.911 189.641H431.921V191.045H423.911V189.641ZM423.713 196.787H431.957V198.245H423.713V196.787ZM423.623 193.709H432.209V195.131H423.623V193.709ZM436.691 194.501H438.347V204.419H436.691V194.501ZM424.973 191.423L426.359 191.099C426.515 191.447 426.653 191.831 426.773 192.251C426.905 192.671 426.995 193.031 427.043 193.331L425.603 193.727C425.567 193.415 425.489 193.043 425.369 192.611C425.261 192.179 425.129 191.783 424.973 191.423ZM429.455 191.063L431.021 191.387C430.829 191.891 430.631 192.401 430.427 192.917C430.223 193.433 430.031 193.871 429.851 194.231L428.465 193.925C428.585 193.661 428.705 193.361 428.825 193.025C428.945 192.689 429.059 192.347 429.167 191.999C429.287 191.651 429.383 191.339 429.455 191.063ZM438.545 188.057L439.877 189.317C439.289 189.545 438.629 189.755 437.897 189.947C437.177 190.127 436.439 190.289 435.683 190.433C434.939 190.577 434.207 190.703 433.487 190.811C433.451 190.631 433.379 190.415 433.271 190.163C433.175 189.911 433.073 189.701 432.965 189.533C433.649 189.413 434.333 189.275 435.017 189.119C435.701 188.963 436.349 188.795 436.961 188.615C437.585 188.423 438.113 188.237 438.545 188.057ZM426.575 188.093L428.267 187.661C428.471 188.033 428.669 188.447 428.861 188.903C429.065 189.347 429.215 189.731 429.311 190.055L427.547 190.559C427.463 190.223 427.325 189.827 427.133 189.371C426.953 188.903 426.767 188.477 426.575 188.093ZM432.965 189.533H434.567V195.851C434.567 196.511 434.543 197.219 434.495 197.975C434.459 198.731 434.375 199.493 434.243 200.261C434.111 201.029 433.925 201.773 433.685 202.493C433.445 203.213 433.121 203.861 432.713 204.437C432.629 204.329 432.503 204.209 432.335 204.077C432.179 203.945 432.011 203.819 431.831 203.699C431.663 203.579 431.519 203.489 431.399 203.429C431.879 202.721 432.233 201.929 432.461 201.053C432.689 200.177 432.827 199.289 432.875 198.389C432.935 197.489 432.965 196.643 432.965 195.851V189.533ZM429.509 199.487L430.643 198.875C430.943 199.307 431.231 199.781 431.507 200.297C431.783 200.801 431.993 201.239 432.137 201.611L430.967 202.313C430.823 201.941 430.607 201.485 430.319 200.945C430.043 200.405 429.773 199.919 429.509 199.487ZM425.189 199.037L426.521 199.415C426.305 200.063 426.023 200.723 425.675 201.395C425.339 202.055 425.003 202.619 424.667 203.087C424.535 202.967 424.349 202.829 424.109 202.673C423.881 202.505 423.683 202.379 423.515 202.295C423.851 201.863 424.163 201.359 424.451 200.783C424.751 200.195 424.997 199.613 425.189 199.037ZM427.223 194.483H428.879V204.419H427.223V194.483ZM441.947 188.795H457.841V189.911H441.947V188.795ZM441.983 202.925H457.787V204.113H441.983V202.925ZM443.315 190.685H456.437V191.747H443.315V190.685ZM444.035 197.525H455.591V198.497H444.035V197.525ZM443.747 201.071H456.167V202.133H443.747V201.071ZM442.217 195.743H457.535V198.371H455.933V196.859H443.747V198.371H442.217V195.743ZM448.949 187.787H450.677V191.333H448.949V187.787ZM448.949 199.865H450.677V203.537H448.949V199.865ZM445.655 193.313V194.159H454.097V193.313H445.655ZM444.071 192.395H455.771V195.077H444.071V192.395ZM451.685 198.605L452.693 197.849C453.101 198.053 453.521 198.287 453.953 198.551C454.385 198.815 454.799 199.085 455.195 199.361C455.591 199.637 455.915 199.889 456.167 200.117L455.159 200.963C454.907 200.723 454.583 200.459 454.187 200.171C453.803 199.883 453.389 199.601 452.945 199.325C452.513 199.049 452.093 198.809 451.685 198.605ZM444.737 200.603C444.701 200.471 444.647 200.285 444.575 200.045C444.503 199.805 444.431 199.607 444.359 199.451C444.647 199.427 444.971 199.349 445.331 199.217C445.463 199.169 445.673 199.079 445.961 198.947C446.249 198.815 446.567 198.653 446.915 198.461C447.275 198.269 447.611 198.059 447.923 197.831L449.129 198.263C448.541 198.659 447.941 199.007 447.329 199.307C446.729 199.595 446.147 199.817 445.583 199.973V199.991C445.583 199.991 445.511 200.027 445.367 200.099C445.223 200.159 445.079 200.237 444.935 200.333C444.803 200.417 444.737 200.507 444.737 200.603ZM444.737 200.603V199.793L445.493 199.397L454.313 199.271C454.337 199.415 454.367 199.577 454.403 199.757C454.451 199.937 454.493 200.093 454.529 200.225C452.837 200.261 451.427 200.291 450.299 200.315C449.171 200.339 448.259 200.363 447.563 200.387C446.879 200.411 446.345 200.435 445.961 200.459C445.589 200.471 445.313 200.489 445.133 200.513C444.965 200.537 444.833 200.567 444.737 200.603ZM460.415 190.721H467.237V191.783H461.675V197.093H460.415V190.721ZM470.279 189.605H476.057V190.919H470.279V189.605ZM463.511 187.823H464.987V191.369H464.807V196.913H463.691V191.369H463.511V187.823ZM470.477 187.805L471.899 188.111C471.623 189.071 471.227 189.971 470.711 190.811C470.207 191.639 469.631 192.329 468.983 192.881C468.923 192.785 468.827 192.671 468.695 192.539C468.563 192.407 468.425 192.275 468.281 192.143C468.149 191.999 468.029 191.891 467.921 191.819C468.509 191.339 469.025 190.751 469.469 190.055C469.913 189.359 470.249 188.609 470.477 187.805ZM462.395 192.377L463.313 192.557C463.229 193.097 463.121 193.637 462.989 194.177C462.857 194.717 462.695 195.179 462.503 195.563C462.419 195.503 462.293 195.431 462.125 195.347C461.957 195.263 461.813 195.197 461.693 195.149C461.897 194.765 462.047 194.333 462.143 193.853C462.251 193.361 462.335 192.869 462.395 192.377ZM460.433 188.705L461.639 188.183C461.867 188.483 462.095 188.819 462.323 189.191C462.551 189.563 462.713 189.887 462.809 190.163L461.567 190.757C461.471 190.469 461.315 190.133 461.099 189.749C460.883 189.353 460.661 189.005 460.433 188.705ZM473.663 190.271L475.175 190.469C474.731 192.125 473.993 193.469 472.961 194.501C471.941 195.521 470.651 196.325 469.091 196.913C469.055 196.805 468.983 196.667 468.875 196.499C468.779 196.331 468.677 196.169 468.569 196.013C468.461 195.845 468.359 195.713 468.263 195.617C469.679 195.173 470.849 194.519 471.773 193.655C472.697 192.779 473.327 191.651 473.663 190.271ZM470.693 190.541C470.993 191.381 471.407 192.161 471.935 192.881C472.475 193.589 473.111 194.207 473.843 194.735C474.575 195.263 475.385 195.671 476.273 195.959C476.117 196.091 475.949 196.277 475.769 196.517C475.589 196.757 475.445 196.967 475.337 197.147C473.921 196.619 472.715 195.809 471.719 194.717C470.735 193.625 469.979 192.341 469.451 190.865L470.693 190.541ZM465.113 192.593L465.905 192.359C466.085 192.815 466.241 193.319 466.373 193.871C466.505 194.411 466.595 194.873 466.643 195.257L465.815 195.509C465.779 195.113 465.695 194.645 465.563 194.105C465.443 193.553 465.293 193.049 465.113 192.593ZM466.895 188.129L468.281 188.633C468.017 189.017 467.753 189.401 467.489 189.785C467.237 190.157 466.997 190.475 466.769 190.739L465.743 190.307C465.935 189.995 466.139 189.635 466.355 189.227C466.583 188.807 466.763 188.441 466.895 188.129ZM466.967 196.949H468.659V204.509H466.967V196.949ZM461.549 198.011H473.555V199.451H463.205V203.645H461.549V198.011ZM472.763 198.011H474.437V201.953C474.437 202.349 474.377 202.661 474.257 202.889C474.149 203.105 473.933 203.273 473.609 203.393C473.285 203.513 472.877 203.579 472.385 203.591C471.893 203.615 471.287 203.627 470.567 203.627C470.519 203.411 470.441 203.171 470.333 202.907C470.225 202.643 470.111 202.409 469.991 202.205C470.339 202.217 470.675 202.229 470.999 202.241C471.335 202.241 471.623 202.241 471.863 202.241C472.103 202.241 472.271 202.241 472.367 202.241C472.523 202.229 472.625 202.205 472.673 202.169C472.733 202.121 472.763 202.043 472.763 201.935V198.011ZM466.841 190.721H468.101V196.643H466.841V190.721ZM481.691 203.249C481.007 203.249 480.395 203.165 479.855 202.997C479.315 202.829 478.841 202.607 478.433 202.331C478.025 202.055 477.665 201.767 477.353 201.467L478.343 200.117C478.595 200.369 478.871 200.603 479.171 200.819C479.471 201.023 479.807 201.191 480.179 201.323C480.563 201.455 480.989 201.521 481.457 201.521C481.949 201.521 482.393 201.413 482.789 201.197C483.185 200.969 483.497 200.645 483.725 200.225C483.953 199.793 484.067 199.283 484.067 198.695C484.067 197.831 483.833 197.159 483.365 196.679C482.909 196.199 482.303 195.959 481.547 195.959C481.127 195.959 480.767 196.019 480.467 196.139C480.167 196.259 479.825 196.445 479.441 196.697L478.415 196.031L478.811 189.731H485.525V191.495H480.611L480.305 194.879C480.593 194.735 480.881 194.627 481.169 194.555C481.457 194.471 481.775 194.429 482.123 194.429C482.867 194.429 483.545 194.579 484.157 194.879C484.769 195.179 485.255 195.641 485.615 196.265C485.975 196.877 486.155 197.669 486.155 198.641C486.155 199.613 485.945 200.447 485.525 201.143C485.105 201.827 484.553 202.349 483.869 202.709C483.197 203.069 482.471 203.249 481.691 203.249ZM495.287 192.089H496.907V201.719H495.287V192.089ZM491.813 194.825V195.923H500.453V194.825H491.813ZM491.813 192.629V193.727H500.453V192.629H491.813ZM490.175 191.477H502.163V197.093H490.175V191.477ZM501.749 198.029H503.405V202.889C503.405 203.261 503.363 203.549 503.279 203.753C503.207 203.969 503.039 204.137 502.775 204.257C502.523 204.377 502.205 204.449 501.821 204.473C501.449 204.497 500.993 204.509 500.453 204.509C500.417 204.293 500.351 204.053 500.255 203.789C500.171 203.537 500.081 203.315 499.985 203.123C500.333 203.135 500.645 203.141 500.921 203.141C501.197 203.141 501.383 203.135 501.479 203.123C501.587 203.123 501.659 203.105 501.695 203.069C501.731 203.045 501.749 202.979 501.749 202.871V198.029ZM491.615 201.287C492.299 201.263 493.079 201.233 493.955 201.197C494.843 201.161 495.779 201.119 496.763 201.071C497.759 201.023 498.761 200.975 499.769 200.927L499.751 202.277C498.791 202.337 497.825 202.397 496.853 202.457C495.893 202.505 494.975 202.553 494.099 202.601C493.235 202.649 492.449 202.697 491.741 202.745L491.615 201.287ZM498.113 199.955L499.391 199.595C499.631 199.931 499.859 200.297 500.075 200.693C500.303 201.077 500.501 201.461 500.669 201.845C500.837 202.229 500.957 202.577 501.029 202.889L499.679 203.285C499.619 202.985 499.505 202.643 499.337 202.259C499.181 201.863 498.995 201.467 498.779 201.071C498.575 200.663 498.353 200.291 498.113 199.955ZM492.065 187.805H493.739V191.225H492.065V187.805ZM498.419 187.805H500.093V191.225H498.419V187.805ZM488.141 188.813H495.791V190.253H488.141V188.813ZM496.439 188.813H504.089V190.253H496.439V188.813ZM488.321 198.029H502.505V199.433H488.321V198.029ZM489.023 197.435H490.661V204.491H489.023V197.435Z" fill="#F38733"/>
<path d="M670 300C752.843 300 820 232.843 820 150C820 67.1573 752.843 0 670 0C587.157 0 520 67.1573 520 150C520 232.843 587.157 300 670 300Z" fill="url(#paint13_radial_337_63424)"/>
<path d="M684.384 134.848H655.301V94H676.471L684.384 99.7958V134.848Z" fill="url(#paint14_linear_337_63424)"/>
<path fill-rule="evenodd" clip-rule="evenodd" d="M671.473 144.246V144.244L687.992 118.668L692.504 123.215L686.257 133.279L698.508 125.991L703.228 111.484L708.087 116.378L704.686 132.724L688.652 148.758V161.423H671.473V144.246Z" fill="url(#paint15_linear_337_63424)"/>
<path fill-rule="evenodd" clip-rule="evenodd" d="M652.004 118.668L668.524 144.246L668.521 144.247V161.423H651.342V148.755L635.311 132.724L631.875 116.378L636.768 111.484L641.454 125.991L653.705 133.279L647.458 123.215L652.004 118.668Z" fill="url(#paint16_linear_337_63424)"/>
<path d="M668.521 164.243H648.809L651.342 152.859H668.521V164.243Z" fill="url(#paint17_linear_337_63424)"/>
<path d="M691.15 164.243H671.473V152.859H688.617L691.15 164.243Z" fill="url(#paint18_linear_337_63424)"/>
<path d="M669.982 123.778L661.409 115.205C659.223 113.019 659.223 109.479 661.409 107.327C663.596 105.141 667.101 105.141 669.287 107.327L669.982 107.987L670.676 107.327C672.862 105.141 676.367 105.141 678.554 107.327C680.74 109.514 680.74 113.019 678.554 115.205L669.982 123.778Z" fill="white"/>
<path d="M664.93 108.414L663.09 110.255L664.93 112.095L666.771 110.255L664.93 108.414Z" fill="url(#paint19_linear_337_63424)"/>
<path d="M666.508 157.336H664.113V159.731H666.508V157.336Z" fill="white"/>
<path d="M675.809 157.336H673.414V159.731H675.809V157.336Z" fill="white"/>
<path d="M676.469 94L684.382 99.7958L677.44 101.253L676.469 94Z" fill="url(#paint20_linear_337_63424)"/>
<path d="M601.276 194.019V195.909H604.894V194.019H601.276ZM599.8 192.669H606.46V197.259H599.8V192.669ZM598.9 189.951H607.144V191.445H598.9V189.951ZM607.342 192.435H615.244V193.983H607.342V192.435ZM610.924 195.189H612.4V202.119C612.4 202.287 612.406 202.425 612.418 202.533C612.442 202.641 612.472 202.713 612.508 202.749C612.568 202.785 612.622 202.809 612.67 202.821C612.73 202.833 612.802 202.839 612.886 202.839C612.958 202.839 613.054 202.839 613.174 202.839C613.306 202.839 613.42 202.839 613.516 202.839C613.6 202.839 613.684 202.833 613.768 202.821C613.852 202.809 613.912 202.791 613.948 202.767C614.056 202.719 614.134 202.545 614.182 202.245C614.206 202.089 614.224 201.837 614.236 201.489C614.248 201.141 614.254 200.733 614.254 200.265C614.41 200.409 614.614 200.547 614.866 200.679C615.118 200.811 615.358 200.913 615.586 200.985C615.574 201.405 615.544 201.825 615.496 202.245C615.46 202.665 615.418 202.971 615.37 203.163C615.238 203.535 615.022 203.793 614.722 203.937C614.59 204.009 614.422 204.057 614.218 204.081C614.026 204.117 613.846 204.135 613.678 204.135C613.594 204.135 613.474 204.135 613.318 204.135C613.174 204.135 613.03 204.135 612.886 204.135C612.742 204.135 612.622 204.135 612.526 204.135C612.334 204.135 612.13 204.105 611.914 204.045C611.698 203.985 611.512 203.895 611.356 203.775C611.212 203.643 611.104 203.463 611.032 203.235C610.96 203.007 610.924 202.593 610.924 201.993V195.189ZM609.754 187.845H611.374C611.362 188.985 611.332 190.173 611.284 191.409C611.248 192.633 611.158 193.857 611.014 195.081C610.882 196.305 610.66 197.493 610.348 198.645C610.036 199.797 609.616 200.877 609.088 201.885C608.56 202.881 607.882 203.769 607.054 204.549C606.922 204.369 606.742 204.177 606.514 203.973C606.286 203.781 606.064 203.625 605.848 203.505C606.64 202.797 607.282 201.975 607.774 201.039C608.266 200.103 608.65 199.095 608.926 198.015C609.202 196.935 609.394 195.819 609.502 194.667C609.622 193.503 609.694 192.345 609.718 191.193C609.742 190.041 609.754 188.925 609.754 187.845ZM602.446 196.845H603.976V202.803C603.976 203.151 603.934 203.433 603.85 203.649C603.778 203.865 603.622 204.033 603.382 204.153C603.142 204.273 602.854 204.345 602.518 204.369C602.182 204.393 601.774 204.405 601.294 204.405C601.27 204.201 601.21 203.961 601.114 203.685C601.018 203.421 600.916 203.187 600.808 202.983C601.12 202.995 601.408 203.001 601.672 203.001C601.936 203.001 602.116 203.001 602.212 203.001C602.368 203.001 602.446 202.923 602.446 202.767V196.845ZM600.34 198.015L601.726 198.303C601.534 199.155 601.276 199.995 600.952 200.823C600.64 201.651 600.292 202.347 599.908 202.911C599.824 202.839 599.71 202.749 599.566 202.641C599.422 202.533 599.272 202.431 599.116 202.335C598.972 202.227 598.84 202.143 598.72 202.083C599.092 201.579 599.41 200.967 599.674 200.247C599.95 199.515 600.172 198.771 600.34 198.015ZM604.498 198.339L605.704 197.799C605.992 198.291 606.262 198.837 606.514 199.437C606.778 200.037 606.958 200.553 607.054 200.985L605.776 201.579C605.68 201.135 605.512 200.613 605.272 200.013C605.044 199.401 604.786 198.843 604.498 198.339ZM611.788 189.195L612.922 188.547C613.282 188.943 613.642 189.399 614.002 189.915C614.374 190.419 614.644 190.857 614.812 191.229L613.606 191.985C613.51 191.721 613.36 191.427 613.156 191.103C612.964 190.779 612.748 190.449 612.508 190.113C612.28 189.777 612.04 189.471 611.788 189.195ZM601.816 188.115L603.382 187.773C603.574 188.157 603.766 188.583 603.958 189.051C604.15 189.507 604.288 189.897 604.372 190.221L602.734 190.635C602.662 190.311 602.536 189.909 602.356 189.429C602.188 188.949 602.008 188.511 601.816 188.115ZM622.786 194.253H624.388V202.821C624.388 203.205 624.34 203.505 624.244 203.721C624.148 203.937 623.974 204.105 623.722 204.225C623.446 204.333 623.104 204.399 622.696 204.423C622.3 204.447 621.826 204.459 621.274 204.459C621.238 204.255 621.166 204.021 621.058 203.757C620.95 203.505 620.842 203.283 620.734 203.091C621.118 203.103 621.472 203.109 621.796 203.109C622.132 203.121 622.36 203.121 622.48 203.109C622.6 203.109 622.678 203.085 622.714 203.037C622.762 203.001 622.786 202.929 622.786 202.821V194.253ZM618.646 194.253H623.65V195.693H618.646V194.253ZM625.9 196.251H627.574V202.155C627.574 202.455 627.634 202.653 627.754 202.749C627.874 202.833 628.132 202.875 628.528 202.875C628.612 202.875 628.768 202.875 628.996 202.875C629.224 202.875 629.476 202.875 629.752 202.875C630.04 202.875 630.304 202.875 630.544 202.875C630.784 202.875 630.964 202.875 631.084 202.875C631.324 202.875 631.504 202.827 631.624 202.731C631.744 202.623 631.828 202.413 631.876 202.101C631.924 201.789 631.96 201.333 631.984 200.733C632.176 200.853 632.416 200.973 632.704 201.093C633.004 201.213 633.268 201.297 633.496 201.345C633.436 202.137 633.328 202.749 633.172 203.181C633.028 203.625 632.8 203.931 632.488 204.099C632.188 204.279 631.774 204.369 631.246 204.369C631.162 204.369 631.018 204.369 630.814 204.369C630.622 204.369 630.4 204.369 630.148 204.369C629.896 204.369 629.644 204.369 629.392 204.369C629.14 204.369 628.912 204.369 628.708 204.369C628.516 204.369 628.384 204.369 628.312 204.369C627.676 204.369 627.178 204.303 626.818 204.171C626.47 204.039 626.23 203.811 626.098 203.487C625.966 203.175 625.9 202.731 625.9 202.155V196.251ZM621.904 189.627L623.308 189.123C623.584 189.543 623.866 190.005 624.154 190.509C624.442 191.001 624.712 191.481 624.964 191.949C625.216 192.417 625.42 192.837 625.576 193.209L624.1 193.839C623.968 193.467 623.782 193.041 623.542 192.561C623.302 192.069 623.038 191.571 622.75 191.067C622.462 190.551 622.18 190.071 621.904 189.627ZM626.926 190.167H632.272V191.643H626.926V190.167ZM626.926 198.249H632.434V199.761H626.926V198.249ZM617.656 193.353C617.62 193.245 617.572 193.095 617.512 192.903C617.452 192.711 617.386 192.513 617.314 192.309C617.242 192.105 617.176 191.937 617.116 191.805C617.26 191.769 617.41 191.685 617.566 191.553C617.722 191.421 617.89 191.259 618.07 191.067C618.202 190.935 618.394 190.707 618.646 190.383C618.91 190.047 619.192 189.657 619.492 189.213C619.804 188.757 620.074 188.289 620.302 187.809L622.03 188.331C621.718 188.859 621.37 189.381 620.986 189.897C620.602 190.401 620.206 190.881 619.798 191.337C619.402 191.781 619.018 192.171 618.646 192.507V192.543C618.646 192.543 618.592 192.573 618.484 192.633C618.388 192.681 618.274 192.747 618.142 192.831C618.01 192.915 617.896 193.005 617.8 193.101C617.704 193.197 617.656 193.281 617.656 193.353ZM617.656 193.353L617.602 192.111L618.448 191.607L624.064 191.193C624.1 191.409 624.148 191.649 624.208 191.913C624.268 192.165 624.328 192.381 624.388 192.561C623.008 192.681 621.898 192.783 621.058 192.867C620.23 192.951 619.588 193.023 619.132 193.083C618.676 193.131 618.346 193.179 618.142 193.227C617.938 193.263 617.776 193.305 617.656 193.353ZM617.836 194.253H619.42V198.537C619.42 199.149 619.384 199.821 619.312 200.553C619.24 201.273 619.096 201.987 618.88 202.695C618.676 203.391 618.358 204.015 617.926 204.567C617.854 204.447 617.746 204.309 617.602 204.153C617.458 204.009 617.308 203.865 617.152 203.721C616.996 203.577 616.858 203.469 616.738 203.397C617.074 202.929 617.32 202.419 617.476 201.867C617.632 201.303 617.728 200.733 617.764 200.157C617.812 199.569 617.836 199.017 617.836 198.501V194.253ZM619.132 200.895C619.66 200.655 620.284 200.355 621.004 199.995C621.736 199.635 622.48 199.257 623.236 198.861L623.578 199.923C622.906 200.343 622.234 200.763 621.562 201.183C620.902 201.603 620.278 201.993 619.69 202.353L619.132 200.895ZM619.42 197.295L620.302 196.485C620.59 196.665 620.896 196.869 621.22 197.097C621.544 197.325 621.856 197.547 622.156 197.763C622.456 197.967 622.696 198.153 622.876 198.321L621.976 199.239C621.784 199.059 621.544 198.855 621.256 198.627C620.968 198.399 620.662 198.171 620.338 197.943C620.014 197.703 619.708 197.487 619.42 197.295ZM625.9 187.827H627.574V193.317C627.574 193.653 627.622 193.887 627.718 194.019C627.814 194.151 628.006 194.217 628.294 194.217C628.414 194.217 628.612 194.217 628.888 194.217C629.164 194.217 629.464 194.217 629.788 194.217C630.112 194.217 630.418 194.217 630.706 194.217C630.994 194.217 631.198 194.217 631.318 194.217C631.558 194.217 631.834 194.205 632.146 194.181C632.47 194.157 632.722 194.127 632.902 194.091C632.926 194.319 632.95 194.571 632.974 194.847C632.998 195.123 633.028 195.357 633.064 195.549C632.896 195.597 632.65 195.633 632.326 195.657C632.014 195.669 631.696 195.675 631.372 195.675C631.264 195.675 631.096 195.675 630.868 195.675C630.652 195.675 630.412 195.675 630.148 195.675C629.884 195.675 629.62 195.675 629.356 195.675C629.104 195.675 628.876 195.675 628.672 195.675C628.468 195.675 628.324 195.675 628.24 195.675C627.628 195.675 627.154 195.597 626.818 195.441C626.482 195.285 626.242 195.033 626.098 194.685C625.966 194.337 625.9 193.869 625.9 193.281V187.827ZM637.168 194.559H641.488V196.125H637.168V194.559ZM640.84 194.559H642.496C642.496 194.559 642.496 194.601 642.496 194.685C642.496 194.769 642.49 194.865 642.478 194.973C642.478 195.081 642.478 195.171 642.478 195.243C642.454 196.551 642.424 197.619 642.388 198.447C642.352 199.275 642.298 199.911 642.226 200.355C642.154 200.787 642.052 201.087 641.92 201.255C641.764 201.447 641.596 201.585 641.416 201.669C641.236 201.753 641.014 201.813 640.75 201.849C640.522 201.885 640.216 201.903 639.832 201.903C639.448 201.903 639.04 201.897 638.608 201.885C638.596 201.633 638.548 201.357 638.464 201.057C638.38 200.757 638.272 200.499 638.14 200.283C638.512 200.319 638.86 200.343 639.184 200.355C639.508 200.367 639.748 200.373 639.904 200.373C640.024 200.373 640.126 200.361 640.21 200.337C640.306 200.301 640.39 200.247 640.462 200.175C640.546 200.067 640.612 199.833 640.66 199.473C640.708 199.101 640.744 198.543 640.768 197.799C640.804 197.055 640.828 196.065 640.84 194.829V194.559ZM646.042 188.799L647.086 187.773C647.446 187.953 647.824 188.163 648.22 188.403C648.616 188.631 648.988 188.865 649.336 189.105C649.684 189.345 649.972 189.567 650.2 189.771L649.12 190.923C648.904 190.719 648.622 190.491 648.274 190.239C647.938 189.987 647.572 189.735 647.176 189.483C646.792 189.231 646.414 189.003 646.042 188.799ZM648.436 193.587L650.146 194.001C649.39 196.341 648.346 198.393 647.014 200.157C645.694 201.921 644.128 203.349 642.316 204.441C642.244 204.309 642.13 204.153 641.974 203.973C641.818 203.805 641.662 203.631 641.506 203.451C641.35 203.283 641.206 203.145 641.074 203.037C642.862 202.077 644.374 200.793 645.61 199.185C646.846 197.577 647.788 195.711 648.436 193.587ZM637.276 190.707H651.19V192.381H637.276V190.707ZM636.142 190.707H637.924V195.873C637.924 196.533 637.9 197.247 637.852 198.015C637.804 198.783 637.714 199.569 637.582 200.373C637.45 201.165 637.258 201.933 637.006 202.677C636.754 203.421 636.418 204.087 635.998 204.675C635.914 204.567 635.776 204.435 635.584 204.279C635.404 204.123 635.218 203.973 635.026 203.829C634.846 203.697 634.69 203.595 634.558 203.523C635.05 202.803 635.404 201.999 635.62 201.111C635.848 200.211 635.992 199.305 636.052 198.393C636.112 197.481 636.142 196.635 636.142 195.855V190.707ZM643.558 187.827H645.34C645.328 189.411 645.382 190.935 645.502 192.399C645.622 193.851 645.796 195.201 646.024 196.449C646.252 197.697 646.522 198.783 646.834 199.707C647.146 200.631 647.494 201.351 647.878 201.867C648.274 202.383 648.676 202.641 649.084 202.641C649.324 202.641 649.504 202.389 649.624 201.885C649.744 201.381 649.828 200.547 649.876 199.383C650.08 199.575 650.32 199.761 650.596 199.941C650.872 200.121 651.124 200.253 651.352 200.337C651.256 201.405 651.118 202.233 650.938 202.821C650.758 203.409 650.506 203.817 650.182 204.045C649.87 204.273 649.462 204.387 648.958 204.387C648.334 204.387 647.764 204.177 647.248 203.757C646.744 203.337 646.288 202.743 645.88 201.975C645.484 201.207 645.142 200.307 644.854 199.275C644.578 198.243 644.344 197.109 644.152 195.873C643.96 194.637 643.816 193.341 643.72 191.985C643.624 190.617 643.57 189.231 643.558 187.827ZM655.276 194.019V195.909H658.894V194.019H655.276ZM653.8 192.669H660.46V197.259H653.8V192.669ZM652.9 189.951H661.144V191.445H652.9V189.951ZM661.342 192.435H669.244V193.983H661.342V192.435ZM664.924 195.189H666.4V202.119C666.4 202.287 666.406 202.425 666.418 202.533C666.442 202.641 666.472 202.713 666.508 202.749C666.568 202.785 666.622 202.809 666.67 202.821C666.73 202.833 666.802 202.839 666.886 202.839C666.958 202.839 667.054 202.839 667.174 202.839C667.306 202.839 667.42 202.839 667.516 202.839C667.6 202.839 667.684 202.833 667.768 202.821C667.852 202.809 667.912 202.791 667.948 202.767C668.056 202.719 668.134 202.545 668.182 202.245C668.206 202.089 668.224 201.837 668.236 201.489C668.248 201.141 668.254 200.733 668.254 200.265C668.41 200.409 668.614 200.547 668.866 200.679C669.118 200.811 669.358 200.913 669.586 200.985C669.574 201.405 669.544 201.825 669.496 202.245C669.46 202.665 669.418 202.971 669.37 203.163C669.238 203.535 669.022 203.793 668.722 203.937C668.59 204.009 668.422 204.057 668.218 204.081C668.026 204.117 667.846 204.135 667.678 204.135C667.594 204.135 667.474 204.135 667.318 204.135C667.174 204.135 667.03 204.135 666.886 204.135C666.742 204.135 666.622 204.135 666.526 204.135C666.334 204.135 666.13 204.105 665.914 204.045C665.698 203.985 665.512 203.895 665.356 203.775C665.212 203.643 665.104 203.463 665.032 203.235C664.96 203.007 664.924 202.593 664.924 201.993V195.189ZM663.754 187.845H665.374C665.362 188.985 665.332 190.173 665.284 191.409C665.248 192.633 665.158 193.857 665.014 195.081C664.882 196.305 664.66 197.493 664.348 198.645C664.036 199.797 663.616 200.877 663.088 201.885C662.56 202.881 661.882 203.769 661.054 204.549C660.922 204.369 660.742 204.177 660.514 203.973C660.286 203.781 660.064 203.625 659.848 203.505C660.64 202.797 661.282 201.975 661.774 201.039C662.266 200.103 662.65 199.095 662.926 198.015C663.202 196.935 663.394 195.819 663.502 194.667C663.622 193.503 663.694 192.345 663.718 191.193C663.742 190.041 663.754 188.925 663.754 187.845ZM656.446 196.845H657.976V202.803C657.976 203.151 657.934 203.433 657.85 203.649C657.778 203.865 657.622 204.033 657.382 204.153C657.142 204.273 656.854 204.345 656.518 204.369C656.182 204.393 655.774 204.405 655.294 204.405C655.27 204.201 655.21 203.961 655.114 203.685C655.018 203.421 654.916 203.187 654.808 202.983C655.12 202.995 655.408 203.001 655.672 203.001C655.936 203.001 656.116 203.001 656.212 203.001C656.368 203.001 656.446 202.923 656.446 202.767V196.845ZM654.34 198.015L655.726 198.303C655.534 199.155 655.276 199.995 654.952 200.823C654.64 201.651 654.292 202.347 653.908 202.911C653.824 202.839 653.71 202.749 653.566 202.641C653.422 202.533 653.272 202.431 653.116 202.335C652.972 202.227 652.84 202.143 652.72 202.083C653.092 201.579 653.41 200.967 653.674 200.247C653.95 199.515 654.172 198.771 654.34 198.015ZM658.498 198.339L659.704 197.799C659.992 198.291 660.262 198.837 660.514 199.437C660.778 200.037 660.958 200.553 661.054 200.985L659.776 201.579C659.68 201.135 659.512 200.613 659.272 200.013C659.044 199.401 658.786 198.843 658.498 198.339ZM665.788 189.195L666.922 188.547C667.282 188.943 667.642 189.399 668.002 189.915C668.374 190.419 668.644 190.857 668.812 191.229L667.606 191.985C667.51 191.721 667.36 191.427 667.156 191.103C666.964 190.779 666.748 190.449 666.508 190.113C666.28 189.777 666.04 189.471 665.788 189.195ZM655.816 188.115L657.382 187.773C657.574 188.157 657.766 188.583 657.958 189.051C658.15 189.507 658.288 189.897 658.372 190.221L656.734 190.635C656.662 190.311 656.536 189.909 656.356 189.429C656.188 188.949 656.008 188.511 655.816 188.115ZM670.756 195.045H687.316V196.917H670.756V195.045ZM698.746 188.025H700.456V204.513H698.746V188.025ZM695.65 188.745L697.288 189.087C697.132 189.903 696.934 190.719 696.694 191.535C696.454 192.339 696.184 193.089 695.884 193.785C695.596 194.481 695.284 195.099 694.948 195.639C694.84 195.555 694.696 195.465 694.516 195.369C694.336 195.261 694.15 195.159 693.958 195.063C693.778 194.955 693.616 194.871 693.472 194.811C693.82 194.319 694.132 193.749 694.408 193.101C694.684 192.453 694.924 191.757 695.128 191.013C695.344 190.269 695.518 189.513 695.65 188.745ZM696.064 191.409H704.434V193.083H695.632L696.064 191.409ZM693.688 196.665H705.262V198.339H693.688V196.665ZM692.626 187.881L694.228 188.367C693.856 189.387 693.412 190.401 692.896 191.409C692.392 192.405 691.84 193.353 691.24 194.253C690.652 195.141 690.04 195.927 689.404 196.611C689.356 196.467 689.272 196.287 689.152 196.071C689.044 195.855 688.924 195.639 688.792 195.423C688.672 195.195 688.564 195.015 688.468 194.883C689.02 194.307 689.548 193.647 690.052 192.903C690.568 192.147 691.048 191.343 691.492 190.491C691.936 189.627 692.314 188.757 692.626 187.881ZM690.808 192.651L692.428 191.049L692.446 191.067V204.495H690.808V192.651ZM714.514 189.033H721.552V190.581H714.514V189.033ZM713.74 195.351H723.352V196.971H713.74V195.351ZM717.772 193.443H719.536V202.587C719.536 203.055 719.47 203.415 719.338 203.667C719.218 203.919 718.99 204.111 718.654 204.243C718.342 204.375 717.946 204.453 717.466 204.477C716.986 204.513 716.392 204.531 715.684 204.531C715.636 204.291 715.552 204.015 715.432 203.703C715.312 203.391 715.198 203.121 715.09 202.893C715.414 202.905 715.732 202.917 716.044 202.929C716.368 202.929 716.644 202.929 716.872 202.929C717.112 202.929 717.28 202.929 717.376 202.929C717.52 202.917 717.622 202.887 717.682 202.839C717.742 202.791 717.772 202.701 717.772 202.569V193.443ZM720.922 189.033H721.372L721.768 188.943L722.938 189.771C722.578 190.311 722.17 190.863 721.714 191.427C721.27 191.991 720.796 192.531 720.292 193.047C719.788 193.563 719.278 194.013 718.762 194.397C718.654 194.253 718.498 194.085 718.294 193.893C718.09 193.701 717.916 193.551 717.772 193.443C718.18 193.095 718.582 192.687 718.978 192.219C719.386 191.739 719.758 191.253 720.094 190.761C720.442 190.257 720.718 189.807 720.922 189.411V189.033ZM707.026 197.655L708.052 196.467C708.568 196.863 709.108 197.295 709.672 197.763C710.248 198.231 710.818 198.711 711.382 199.203C711.958 199.695 712.486 200.175 712.966 200.643C713.458 201.099 713.86 201.513 714.172 201.885L713.056 203.307C712.744 202.923 712.354 202.491 711.886 202.011C711.418 201.531 710.902 201.039 710.338 200.535C709.786 200.019 709.222 199.515 708.646 199.023C708.082 198.531 707.542 198.075 707.026 197.655ZM707.026 197.655C707.218 197.031 707.404 196.323 707.584 195.531C707.764 194.727 707.932 193.887 708.088 193.011C708.244 192.123 708.382 191.241 708.502 190.365C708.634 189.477 708.73 188.637 708.79 187.845L710.482 187.935C710.386 188.763 710.266 189.639 710.122 190.563C709.99 191.475 709.834 192.387 709.654 193.299C709.486 194.211 709.306 195.081 709.114 195.909C708.934 196.737 708.76 197.481 708.592 198.141L707.026 197.655ZM711.76 190.365H713.344V192.237C713.344 192.921 713.314 193.671 713.254 194.487C713.194 195.303 713.062 196.149 712.858 197.025C712.666 197.901 712.366 198.777 711.958 199.653C711.562 200.529 711.028 201.381 710.356 202.209C709.696 203.037 708.862 203.823 707.854 204.567C707.77 204.435 707.656 204.291 707.512 204.135C707.368 203.991 707.218 203.847 707.062 203.703C706.906 203.571 706.768 203.463 706.648 203.379C707.584 202.707 708.364 201.993 708.988 201.237C709.624 200.481 710.128 199.707 710.5 198.915C710.872 198.111 711.148 197.319 711.328 196.539C711.508 195.747 711.622 194.985 711.67 194.253C711.73 193.521 711.76 192.837 711.76 192.201V190.365ZM706.594 191.859C707.266 191.835 708.022 191.805 708.862 191.769C709.702 191.721 710.59 191.673 711.526 191.625C712.474 191.565 713.416 191.511 714.352 191.463V193.011C712.996 193.095 711.652 193.179 710.32 193.263C708.988 193.347 707.806 193.419 706.774 193.479L706.594 191.859ZM732.064 187.809H733.792V202.767C733.792 203.223 733.726 203.565 733.594 203.793C733.462 204.021 733.24 204.195 732.928 204.315C732.616 204.423 732.214 204.489 731.722 204.513C731.23 204.549 730.6 204.567 729.832 204.567C729.796 204.363 729.718 204.129 729.598 203.865C729.49 203.601 729.376 203.373 729.256 203.181C729.592 203.193 729.922 203.199 730.246 203.199C730.57 203.211 730.852 203.211 731.092 203.199C731.344 203.199 731.524 203.199 731.632 203.199C731.8 203.187 731.914 203.151 731.974 203.091C732.034 203.043 732.064 202.935 732.064 202.767V187.809ZM725.152 189.123H740.884V190.491H725.152V189.123ZM728.662 192.543V193.641H737.356V192.543H728.662ZM727.024 191.427H739.084V194.775H727.024V191.427ZM726.538 195.855H739.372V202.605H737.662V197.043H726.538V195.855ZM724.792 198.087H741.262V199.419H724.792V198.087ZM726.394 200.553H738.562V201.813H726.394V200.553Z" fill="#F38733"/>
</g>
<defs>
<radialGradient id="paint0_radial_337_63424" cx="0" cy="0" r="1" gradientUnits="userSpaceOnUse" gradientTransform="translate(150 150) rotate(90) scale(1063.75)">
<stop offset="0.0645686" stop-color="white" stop-opacity="0.5"/>
<stop offset="0.287905" stop-color="#F38733"/>
</radialGradient>
<linearGradient id="paint1_linear_337_63424" x1="143.305" y1="80.8355" x2="143.305" y2="121.69" gradientUnits="userSpaceOnUse">
<stop stop-color="#FFC56D"/>
<stop offset="1" stop-color="#F56700"/>
</linearGradient>
<linearGradient id="paint2_linear_337_63424" x1="151.78" y1="137.117" x2="151.78" y2="195.075" gradientUnits="userSpaceOnUse">
<stop stop-color="#FBEABE"/>
<stop offset="0.505668" stop-color="#FEA03D"/>
</linearGradient>
<linearGradient id="paint3_linear_337_63424" x1="150.84" y1="125.094" x2="150.84" y2="143.225" gradientUnits="userSpaceOnUse">
<stop stop-color="#FBEABE"/>
<stop offset="0.505668" stop-color="#FEA03D"/>
</linearGradient>
<linearGradient id="paint4_linear_337_63424" x1="130.749" y1="137.117" x2="130.749" y2="195.075" gradientUnits="userSpaceOnUse">
<stop stop-color="#FBEABE"/>
<stop offset="0.505668" stop-color="#FEA03D"/>
</linearGradient>
<linearGradient id="paint5_linear_337_63424" x1="129.809" y1="125.094" x2="129.809" y2="143.225" gradientUnits="userSpaceOnUse">
<stop stop-color="#FBEABE"/>
<stop offset="0.505668" stop-color="#FEA03D"/>
</linearGradient>
<linearGradient id="paint6_linear_337_63424" x1="172.824" y1="137.117" x2="172.824" y2="195.075" gradientUnits="userSpaceOnUse">
<stop stop-color="#FBEABE"/>
<stop offset="0.505668" stop-color="#FEA03D"/>
</linearGradient>
<linearGradient id="paint7_linear_337_63424" x1="171.715" y1="125.094" x2="171.715" y2="143.225" gradientUnits="userSpaceOnUse">
<stop stop-color="#FBEABE"/>
<stop offset="0.505668" stop-color="#FEA03D"/>
</linearGradient>
<radialGradient id="paint8_radial_337_63424" cx="0" cy="0" r="1" gradientUnits="userSpaceOnUse" gradientTransform="translate(410 150) rotate(90) scale(1063.75)">
<stop offset="0.0645686" stop-color="white" stop-opacity="0.5"/>
<stop offset="0.287905" stop-color="#F38733"/>
</radialGradient>
<linearGradient id="paint9_linear_337_63424" x1="424.313" y1="93" x2="424.313" y2="146.699" gradientUnits="userSpaceOnUse">
<stop stop-color="#FBEABE"/>
<stop offset="0.64627" stop-color="#FEA03D"/>
</linearGradient>
<linearGradient id="paint10_linear_337_63424" x1="405.146" y1="87.0424" x2="405.146" y2="125.481" gradientUnits="userSpaceOnUse">
<stop stop-color="#FFC56D"/>
<stop offset="1" stop-color="#F56700"/>
</linearGradient>
<linearGradient id="paint11_linear_337_63424" x1="386.345" y1="126.407" x2="386.345" y2="164.998" gradientUnits="userSpaceOnUse">
<stop stop-color="#FFC56D"/>
<stop offset="1" stop-color="#F56700"/>
</linearGradient>
<linearGradient id="paint12_linear_337_63424" x1="420.79" y1="130.281" x2="420.79" y2="180" gradientUnits="userSpaceOnUse">
<stop stop-color="#FBEABE"/>
<stop offset="0.64627" stop-color="#FEA03D"/>
</linearGradient>
<radialGradient id="paint13_radial_337_63424" cx="0" cy="0" r="1" gradientUnits="userSpaceOnUse" gradientTransform="translate(670 150) rotate(90) scale(1063.75)">
<stop offset="0.0645686" stop-color="white" stop-opacity="0.5"/>
<stop offset="0.287905" stop-color="#F38733"/>
</radialGradient>
<linearGradient id="paint14_linear_337_63424" x1="666.207" y1="78.6394" x2="666.207" y2="134.848" gradientUnits="userSpaceOnUse">
<stop stop-color="#FFC56D"/>
<stop offset="1" stop-color="#F56700"/>
</linearGradient>
<linearGradient id="paint15_linear_337_63424" x1="693.629" y1="111.484" x2="693.629" y2="176.998" gradientUnits="userSpaceOnUse">
<stop offset="0.213402" stop-color="#FBEABE"/>
<stop offset="1" stop-color="#FEA03D"/>
</linearGradient>
<linearGradient id="paint16_linear_337_63424" x1="654.052" y1="111.484" x2="654.052" y2="176.998" gradientUnits="userSpaceOnUse">
<stop offset="0.213402" stop-color="#FBEABE"/>
<stop offset="1" stop-color="#FEA03D"/>
</linearGradient>
<linearGradient id="paint17_linear_337_63424" x1="656.201" y1="148.579" x2="656.201" y2="164.243" gradientUnits="userSpaceOnUse">
<stop stop-color="#FFC56D"/>
<stop offset="1" stop-color="#F56700"/>
</linearGradient>
<linearGradient id="paint18_linear_337_63424" x1="678.852" y1="148.579" x2="678.852" y2="164.243" gradientUnits="userSpaceOnUse">
<stop stop-color="#FFC56D"/>
<stop offset="1" stop-color="#F56700"/>
</linearGradient>
<linearGradient id="paint19_linear_337_63424" x1="664.204" y1="109.141" x2="664.204" y2="114.999" gradientUnits="userSpaceOnUse">
<stop stop-color="#FBEABE"/>
<stop offset="1" stop-color="#FEA03D"/>
</linearGradient>
<linearGradient id="paint20_linear_337_63424" x1="681.257" y1="94" x2="681.257" y2="108.86" gradientUnits="userSpaceOnUse">
<stop stop-color="#FBEABE"/>
<stop offset="1" stop-color="#FEA03D"/>
</linearGradient>
<clipPath id="clip0_337_63424">
<rect width="820" height="300" fill="white"/>
</clipPath>
</defs>
</svg>
