<svg width="1072" height="408" viewBox="0 0 1072 408" fill="none" xmlns="http://www.w3.org/2000/svg">
<g clip-path="url(#clip0_1766_39160)">
<rect width="1072" height="408" fill="white"/>
<g opacity="0.1" filter="url(#filter0_f_1766_39160)">
<path d="M532 380C721.986 380 876 333.438 876 276C876 218.562 721.986 172 532 172C342.014 172 188 218.562 188 276C188 333.438 342.014 380 532 380Z" fill="url(#paint0_linear_1766_39160)"/>
</g>
<g filter="url(#filter1_d_1766_39160)">
<path fill-rule="evenodd" clip-rule="evenodd" d="M636.352 106.353V165.476V166V224.476V225.123V284.123L696.001 254.654V195.654V195V136.531V136V76.877L636.352 106.353Z" fill="url(#paint1_linear_1766_39160)"/>
<path fill-rule="evenodd" clip-rule="evenodd" d="M636.351 106.353V165.476V166V224.476V225.123V284.123L576 254.654V195.654V195V136.531V136V76.877L636.351 106.353Z" fill="url(#paint2_linear_1766_39160)"/>
<path d="M696 76.8772L636.347 106.351L576 76.8772L636.347 46L696 76.8772Z" fill="url(#paint3_linear_1766_39160)"/>
<path d="M606.03 82.0004V80.2904H608.946V71.4344H606.57V70.1204C607.194 70.0004 607.734 69.8624 608.19 69.7064C608.658 69.5384 609.084 69.3404 609.468 69.1124H611.034V80.2904H613.608V82.0004H606.03ZM619.59 82.2524C618.906 82.2524 618.294 82.1684 617.754 82.0004C617.214 81.8324 616.74 81.6104 616.332 81.3344C615.924 81.0584 615.564 80.7704 615.252 80.4704L616.242 79.1204C616.494 79.3724 616.77 79.6064 617.07 79.8224C617.37 80.0264 617.706 80.1944 618.078 80.3264C618.462 80.4584 618.888 80.5244 619.356 80.5244C619.848 80.5244 620.292 80.4224 620.688 80.2184C621.084 80.0024 621.396 79.6964 621.624 79.3004C621.852 78.9044 621.966 78.4364 621.966 77.8964C621.966 77.0804 621.732 76.4444 621.264 75.9884C620.808 75.5324 620.202 75.3044 619.446 75.3044C619.026 75.3044 618.666 75.3704 618.366 75.5024C618.066 75.6224 617.724 75.8084 617.34 76.0604L616.314 75.4124L616.71 69.1124H623.424V70.8764H618.51L618.204 74.2604C618.492 74.1164 618.78 74.0084 619.068 73.9364C619.356 73.8524 619.674 73.8104 620.022 73.8104C620.766 73.8104 621.444 73.9544 622.056 74.2424C622.668 74.5184 623.154 74.9564 623.514 75.5564C623.874 76.1444 624.054 76.9004 624.054 77.8244C624.054 78.7604 623.844 79.5584 623.424 80.2184C623.004 80.8784 622.452 81.3824 621.768 81.7304C621.096 82.0784 620.37 82.2524 619.59 82.2524ZM625.877 77.6804V76.1504H630.629V77.6804H625.877ZM632.995 82.0004V80.2904H635.911V71.4344H633.535V70.1204C634.159 70.0004 634.699 69.8624 635.155 69.7064C635.623 69.5384 636.049 69.3404 636.433 69.1124H637.999V80.2904H640.573V82.0004H632.995ZM646.878 82.2524C646.05 82.2524 645.312 82.1024 644.664 81.8024C644.016 81.4904 643.5 81.0704 643.116 80.5424C642.744 80.0024 642.558 79.3904 642.558 78.7064C642.558 78.1544 642.672 77.6684 642.9 77.2484C643.128 76.8164 643.422 76.4384 643.782 76.1144C644.142 75.7904 644.52 75.5264 644.916 75.3224V75.2504C644.436 74.9024 644.022 74.4824 643.674 73.9904C643.326 73.4984 643.152 72.9164 643.152 72.2444C643.152 71.5604 643.314 70.9664 643.638 70.4624C643.974 69.9464 644.424 69.5504 644.988 69.2744C645.564 68.9984 646.218 68.8604 646.95 68.8604C647.718 68.8604 648.378 69.0104 648.93 69.3104C649.482 69.5984 649.908 70.0004 650.208 70.5164C650.52 71.0324 650.676 71.6324 650.676 72.3164C650.676 72.7604 650.586 73.1744 650.406 73.5584C650.226 73.9424 650.004 74.2844 649.74 74.5844C649.476 74.8844 649.206 75.1364 648.93 75.3404V75.4124C649.326 75.6404 649.692 75.9044 650.028 76.2044C650.376 76.5044 650.652 76.8644 650.856 77.2844C651.06 77.6924 651.162 78.1844 651.162 78.7604C651.162 79.4084 650.982 79.9964 650.622 80.5244C650.274 81.0524 649.776 81.4724 649.128 81.7844C648.492 82.0964 647.742 82.2524 646.878 82.2524ZM647.76 74.8184C648.144 74.4584 648.432 74.0804 648.624 73.6844C648.828 73.2884 648.93 72.8744 648.93 72.4424C648.93 72.0464 648.852 71.6924 648.696 71.3804C648.54 71.0684 648.306 70.8224 647.994 70.6424C647.694 70.4624 647.328 70.3724 646.896 70.3724C646.356 70.3724 645.906 70.5404 645.546 70.8764C645.186 71.2004 645.006 71.6564 645.006 72.2444C645.006 72.7124 645.132 73.1024 645.384 73.4144C645.648 73.7144 645.984 73.9784 646.392 74.2064C646.812 74.4224 647.268 74.6264 647.76 74.8184ZM646.932 80.7404C647.376 80.7404 647.766 80.6564 648.102 80.4884C648.45 80.3204 648.72 80.0864 648.912 79.7864C649.104 79.4744 649.2 79.1084 649.2 78.6884C649.2 78.3164 649.116 77.9984 648.948 77.7344C648.78 77.4584 648.546 77.2184 648.246 77.0144C647.946 76.8104 647.598 76.6244 647.202 76.4564C646.818 76.2764 646.398 76.1024 645.942 75.9344C645.486 76.2344 645.114 76.6004 644.826 77.0324C644.538 77.4644 644.394 77.9504 644.394 78.4904C644.394 78.9344 644.502 79.3244 644.718 79.6604C644.946 79.9964 645.252 80.2604 645.636 80.4524C646.02 80.6444 646.452 80.7404 646.932 80.7404ZM653.742 82.0004V68.7344H656.154L658.566 75.4484C658.722 75.8804 658.872 76.3244 659.016 76.7804C659.16 77.2244 659.304 77.6684 659.448 78.1124H659.538C659.694 77.6684 659.838 77.2244 659.97 76.7804C660.114 76.3244 660.258 75.8804 660.402 75.4484L662.778 68.7344H665.208V82.0004H663.264V75.4484C663.264 75.0524 663.276 74.6144 663.3 74.1344C663.336 73.6544 663.372 73.1684 663.408 72.6764C663.456 72.1844 663.504 71.7404 663.552 71.3444H663.462L662.4 74.4044L660.096 80.7224H658.8L656.478 74.4044L655.416 71.3444H655.344C655.392 71.7404 655.434 72.1844 655.47 72.6764C655.518 73.1684 655.554 73.6544 655.578 74.1344C655.614 74.6144 655.632 75.0524 655.632 75.4484V82.0004H653.742Z" fill="white"/>
</g>
<g filter="url(#filter2_d_1766_39160)">
<path fill-rule="evenodd" clip-rule="evenodd" d="M536.352 272.476V213.353L596.001 183.877V243V243.531V302.654L536.352 332.123V273V272.476Z" fill="url(#paint4_linear_1766_39160)"/>
<path fill-rule="evenodd" clip-rule="evenodd" d="M536.351 272.476V213.353L476 183.877V243V243.531V302.654L536.351 332.123V273V272.476Z" fill="url(#paint5_linear_1766_39160)"/>
<path d="M596 183.877L536.347 213.351L476 183.877L536.347 153L596 183.877Z" fill="url(#paint6_linear_1766_39160)"/>
</g>
<path d="M513.82 189.252C513.064 189.252 512.41 189.114 511.858 188.838C511.318 188.55 510.862 188.214 510.49 187.83L511.624 186.534C511.864 186.834 512.17 187.074 512.542 187.254C512.926 187.434 513.316 187.524 513.712 187.524C514.288 187.524 514.816 187.356 515.296 187.02C515.776 186.684 516.16 186.12 516.448 185.328C516.736 184.536 516.88 183.468 516.88 182.124C516.88 181.056 516.772 180.18 516.556 179.496C516.34 178.8 516.034 178.29 515.638 177.966C515.254 177.63 514.792 177.462 514.252 177.462C513.868 177.462 513.52 177.564 513.208 177.768C512.896 177.972 512.65 178.266 512.47 178.65C512.29 179.034 512.2 179.502 512.2 180.054C512.2 180.582 512.278 181.032 512.434 181.404C512.602 181.776 512.848 182.058 513.172 182.25C513.508 182.442 513.91 182.538 514.378 182.538C514.762 182.538 515.176 182.406 515.62 182.142C516.076 181.878 516.502 181.44 516.898 180.828L516.988 182.358C516.736 182.706 516.436 183.006 516.088 183.258C515.752 183.51 515.404 183.702 515.044 183.834C514.684 183.966 514.336 184.032 514 184.032C513.256 184.032 512.602 183.888 512.038 183.6C511.486 183.3 511.048 182.856 510.724 182.268C510.412 181.68 510.256 180.942 510.256 180.054C510.256 179.202 510.436 178.464 510.796 177.84C511.168 177.216 511.654 176.73 512.254 176.382C512.854 176.034 513.508 175.86 514.216 175.86C514.852 175.86 515.446 175.986 515.998 176.238C516.562 176.49 517.048 176.88 517.456 177.408C517.876 177.924 518.206 178.572 518.446 179.352C518.686 180.132 518.806 181.056 518.806 182.124C518.806 183.384 518.668 184.47 518.392 185.382C518.128 186.282 517.756 187.02 517.276 187.596C516.808 188.16 516.274 188.58 515.674 188.856C515.086 189.12 514.468 189.252 513.82 189.252ZM520.612 184.68V183.15H525.364V184.68H520.612ZM527.729 189V187.29H530.645V178.434H528.269V177.12C528.893 177 529.433 176.862 529.889 176.706C530.357 176.538 530.783 176.34 531.167 176.112H532.733V187.29H535.307V189H527.729ZM537.257 189V187.794C538.493 186.582 539.549 185.508 540.425 184.572C541.313 183.624 541.991 182.772 542.459 182.016C542.927 181.248 543.161 180.528 543.161 179.856C543.161 179.376 543.077 178.962 542.909 178.614C542.753 178.266 542.507 177.996 542.171 177.804C541.847 177.612 541.433 177.516 540.929 177.516C540.413 177.516 539.939 177.666 539.507 177.966C539.075 178.254 538.679 178.596 538.319 178.992L537.149 177.84C537.713 177.216 538.307 176.73 538.931 176.382C539.567 176.034 540.323 175.86 541.199 175.86C542.003 175.86 542.705 176.022 543.305 176.346C543.905 176.67 544.367 177.126 544.691 177.714C545.027 178.29 545.195 178.968 545.195 179.748C545.195 180.528 544.973 181.32 544.529 182.124C544.097 182.928 543.509 183.762 542.765 184.626C542.021 185.49 541.187 186.402 540.263 187.362C540.611 187.326 540.977 187.296 541.361 187.272C541.757 187.236 542.117 187.218 542.441 187.218H545.825V189H537.257ZM548.476 189V175.734H550.888L553.3 182.448C553.456 182.88 553.606 183.324 553.75 183.78C553.894 184.224 554.038 184.668 554.182 185.112H554.272C554.428 184.668 554.572 184.224 554.704 183.78C554.848 183.324 554.992 182.88 555.136 182.448L557.512 175.734H559.942V189H557.998V182.448C557.998 182.052 558.01 181.614 558.034 181.134C558.07 180.654 558.106 180.168 558.142 179.676C558.19 179.184 558.238 178.74 558.286 178.344H558.196L557.134 181.404L554.83 187.722H553.534L551.212 181.404L550.15 178.344H550.078C550.126 178.74 550.168 179.184 550.204 179.676C550.252 180.168 550.288 180.654 550.312 181.134C550.348 181.614 550.366 182.052 550.366 182.448V189H548.476Z" fill="white"/>
<g filter="url(#filter3_d_1766_39160)">
<path d="M436.352 320.353V380L496.001 350.531V290.877L436.352 320.353Z" fill="url(#paint7_linear_1766_39160)"/>
<path d="M436.352 320.353V380L376.001 350.531V290.877L436.352 320.353Z" fill="url(#paint8_linear_1766_39160)"/>
<path d="M496 290.877L436.347 320.351L376 290.877L436.347 260L496 290.877Z" fill="url(#paint9_linear_1766_39160)"/>
<path d="M419.824 296.252C419.128 296.252 418.51 296.168 417.97 296C417.442 295.832 416.974 295.61 416.566 295.334C416.158 295.046 415.804 294.74 415.504 294.416L416.512 293.084C416.908 293.468 417.358 293.804 417.862 294.092C418.366 294.38 418.96 294.524 419.644 294.524C420.148 294.524 420.586 294.44 420.958 294.272C421.33 294.104 421.618 293.864 421.822 293.552C422.038 293.24 422.146 292.868 422.146 292.436C422.146 291.956 422.026 291.548 421.786 291.212C421.558 290.864 421.156 290.594 420.58 290.402C420.016 290.21 419.236 290.114 418.24 290.114V288.566C419.116 288.566 419.8 288.47 420.292 288.278C420.796 288.074 421.156 287.81 421.372 287.486C421.6 287.15 421.714 286.778 421.714 286.37C421.714 285.794 421.534 285.344 421.174 285.02C420.814 284.684 420.316 284.516 419.68 284.516C419.176 284.516 418.702 284.636 418.258 284.876C417.826 285.104 417.418 285.404 417.034 285.776L415.954 284.48C416.482 284.012 417.058 283.628 417.682 283.328C418.306 283.016 418.996 282.86 419.752 282.86C420.544 282.86 421.246 282.992 421.858 283.256C422.47 283.52 422.95 283.904 423.298 284.408C423.646 284.9 423.82 285.5 423.82 286.208C423.82 286.952 423.61 287.576 423.19 288.08C422.782 288.572 422.23 288.95 421.534 289.214V289.304C422.038 289.424 422.494 289.628 422.902 289.916C423.322 290.204 423.652 290.57 423.892 291.014C424.132 291.446 424.252 291.956 424.252 292.544C424.252 293.324 424.048 293.99 423.64 294.542C423.244 295.094 422.71 295.52 422.038 295.82C421.366 296.108 420.628 296.252 419.824 296.252ZM426.112 291.68V290.15H430.864V291.68H426.112ZM437.225 296.252C436.589 296.252 435.989 296.126 435.425 295.874C434.873 295.61 434.387 295.22 433.967 294.704C433.559 294.188 433.235 293.54 432.995 292.76C432.755 291.968 432.635 291.038 432.635 289.97C432.635 288.698 432.767 287.618 433.031 286.73C433.307 285.83 433.679 285.092 434.147 284.516C434.615 283.94 435.149 283.52 435.749 283.256C436.349 282.992 436.979 282.86 437.639 282.86C438.383 282.86 439.025 282.998 439.565 283.274C440.117 283.55 440.579 283.886 440.951 284.282L439.817 285.542C439.577 285.254 439.271 285.02 438.899 284.84C438.527 284.66 438.137 284.57 437.729 284.57C437.153 284.57 436.625 284.738 436.145 285.074C435.665 285.41 435.281 285.974 434.993 286.766C434.705 287.546 434.561 288.614 434.561 289.97C434.561 291.038 434.669 291.92 434.885 292.616C435.101 293.3 435.407 293.81 435.803 294.146C436.199 294.482 436.661 294.65 437.189 294.65C437.573 294.65 437.921 294.548 438.233 294.344C438.545 294.128 438.791 293.828 438.971 293.444C439.163 293.048 439.259 292.58 439.259 292.04C439.259 291.512 439.169 291.068 438.989 290.708C438.821 290.336 438.575 290.054 438.251 289.862C437.927 289.67 437.531 289.574 437.063 289.574C436.679 289.574 436.259 289.7 435.803 289.952C435.359 290.204 434.939 290.642 434.543 291.266L434.453 289.754C434.717 289.406 435.017 289.106 435.353 288.854C435.689 288.602 436.037 288.41 436.397 288.278C436.769 288.134 437.117 288.062 437.441 288.062C438.185 288.062 438.839 288.212 439.403 288.512C439.967 288.8 440.405 289.238 440.717 289.826C441.029 290.414 441.185 291.152 441.185 292.04C441.185 292.892 440.999 293.63 440.627 294.254C440.267 294.878 439.787 295.37 439.187 295.73C438.599 296.078 437.945 296.252 437.225 296.252ZM443.711 296V282.734H446.123L448.535 289.448C448.691 289.88 448.841 290.324 448.985 290.78C449.129 291.224 449.273 291.668 449.417 292.112H449.507C449.663 291.668 449.807 291.224 449.939 290.78C450.083 290.324 450.227 289.88 450.371 289.448L452.747 282.734H455.177V296H453.233V289.448C453.233 289.052 453.245 288.614 453.269 288.134C453.305 287.654 453.341 287.168 453.377 286.676C453.425 286.184 453.473 285.74 453.521 285.344H453.431L452.369 288.404L450.065 294.722H448.769L446.447 288.404L445.385 285.344H445.313C445.361 285.74 445.403 286.184 445.439 286.676C445.487 287.168 445.523 287.654 445.547 288.134C445.583 288.614 445.601 289.052 445.601 289.448V296H443.711Z" fill="white"/>
</g>
<g filter="url(#filter4_d_1766_39160)">
<path d="M550 12H230C224.477 12 220 16.4772 220 22V108C220 113.523 224.477 118 230 118H550C555.523 118 560 113.523 560 108V22C560 16.4772 555.523 12 550 12Z" fill="white"/>
</g>
<path d="M243.44 42.2316H252.48V43.1276H243.44V42.2316ZM243.232 48.9996H252.704V49.8796H243.232V48.9996ZM244.848 50.3596L245.808 49.8796C246.304 50.2796 246.88 50.8876 247.136 51.3036L246.112 51.8476C245.872 51.4316 245.328 50.8076 244.848 50.3596ZM245.168 45.6396V46.2476H250.752V45.6396H245.168ZM245.168 44.3916V44.9676H250.752V44.3916H245.168ZM243.984 43.6876H251.984V46.9516H243.984V43.6876ZM249.232 48.4716H250.512V51.1596C250.512 51.7036 250.4 51.8796 249.984 52.0076C249.6 52.1356 248.976 52.1356 248.048 52.1356C247.984 51.8476 247.84 51.5436 247.712 51.3196C248.272 51.3356 248.848 51.3356 249.024 51.3196C249.184 51.3196 249.232 51.2716 249.232 51.1116V48.4716ZM243.488 47.6396C245.456 47.6556 248.464 47.6236 251.392 47.5756L251.36 48.3116C248.528 48.4076 245.6 48.4876 243.536 48.5196L243.488 47.6396ZM249.936 47.3516L250.736 46.8236C251.376 47.2716 252.112 47.9276 252.464 48.3756L251.648 48.9996C251.28 48.5196 250.544 47.7996 249.936 47.3516ZM247.296 41.5596H248.56V47.9276L247.296 47.9916V41.5596ZM241.408 40.1516H254.608V54.2956H253.168V41.3196H242.8V54.3596H241.408V40.1516ZM242.096 52.3596H253.76V53.5436H242.096V52.3596ZM263.2 46.4076H271.28V47.5276H263.2V46.4076ZM263.008 52.9356H271.424V54.0716H263.008V52.9356ZM265.44 39.5116H266.64V41.4796H265.44V39.5116ZM267.6 39.5116H268.816V41.4796H267.6V39.5116ZM264.64 43.6716V44.6636H269.712V43.6716H264.64ZM264.64 41.7356V42.7116H269.712V41.7356H264.64ZM263.488 40.6956H270.912V45.6876H263.488V40.6956ZM265.216 49.1596V50.2796H269.152V49.1596H265.216ZM263.904 48.1836H270.56V51.2396H263.904V48.1836ZM268.544 51.1916L269.904 51.5756C269.488 52.2956 269.072 53.0636 268.736 53.5596L267.76 53.2076C268.032 52.6476 268.368 51.7836 268.544 51.1916ZM264.64 51.5756L265.792 51.2236C266.064 51.8156 266.368 52.5996 266.512 53.1116L265.312 53.5116C265.2 52.9996 264.896 52.1836 264.64 51.5756ZM265.68 41.2396H266.656V45.2556H265.68V41.2396ZM267.664 41.2396H268.64V45.2556H267.664V41.2396ZM258.112 46.4876H261.744V47.5116H258.112V46.4876ZM261.024 46.4876H262.304V52.9356C262.304 53.5276 262.192 53.8636 261.792 54.0556C261.392 54.2476 260.832 54.2636 259.952 54.2636C259.904 53.9436 259.728 53.4476 259.568 53.1276C260.128 53.1436 260.656 53.1436 260.816 53.1436C260.976 53.1436 261.024 53.0796 261.024 52.9196V46.4876ZM257.392 40.0396H262.352V45.0316H261.088V41.1436H258.576V45.0316H257.392V40.0396ZM256.736 44.5356H263.024V46.9356H261.856V45.5916H257.856V46.9356H256.736V44.5356ZM259.408 42.0076H261.904V42.9196H260.24V44.9196H259.408V42.0076ZM257.536 46.4876H258.784V49.5116C258.784 50.9996 258.624 53.0316 257.696 54.4076C257.472 54.1676 256.928 53.7836 256.624 53.6396C257.456 52.4236 257.536 50.7756 257.536 49.4956V46.4876ZM258.624 51.2396C259.392 50.9196 260.48 50.3756 261.6 49.8156L261.84 50.5996C260.896 51.1916 259.968 51.7676 259.136 52.2796L258.624 51.2396ZM258.736 48.6636L259.392 48.0076C259.984 48.3916 260.672 48.8876 261.04 49.2396L260.336 50.0076C260 49.6396 259.296 49.0476 258.736 48.6636ZM278.336 40.7596H287.04V41.8476H278.336V40.7596ZM278.016 44.6636H287.376V45.7676H278.016V44.6636ZM278 50.6156H287.408V51.7356H278V50.6156ZM278.752 42.6796H286.784V43.7356H278.752V42.6796ZM280.24 39.5116H281.616V45.1276H280.24V39.5116ZM283.728 39.5116H285.12V45.1276H283.728V39.5116ZM281.968 45.1596H283.36V50.9516H281.968V45.1596ZM285.088 46.5516H286.528V52.8876C286.528 53.5756 286.384 53.9276 285.904 54.1356C285.392 54.3436 284.64 54.3436 283.504 54.3436C283.44 53.9916 283.264 53.4636 283.088 53.1276C283.824 53.1436 284.592 53.1436 284.784 53.1436C285.008 53.1276 285.088 53.0796 285.088 52.8876V46.5516ZM278.912 46.5516H285.696V47.6556H280.32V54.3756H278.912V46.5516ZM279.632 48.6156H285.68V49.6076H279.632V48.6156ZM273.184 44.3596H277.472V45.5276H273.184V44.3596ZM273.184 46.4876H277.472V47.6556H273.184V46.4876ZM272.592 42.1836H278V43.4156H272.592V42.1836ZM273.76 48.6636H277.584V53.4156H273.76V52.1836H276.416V49.8956H273.76V48.6636ZM273.168 48.6636H274.32V54.1356H273.168V48.6636ZM274.128 40.0236L275.264 39.3836C275.776 40.0236 276.384 40.8876 276.688 41.4476L275.488 42.2316C275.216 41.6396 274.624 40.6956 274.128 40.0236ZM296.496 43.0956H297.952V53.2876H296.496V43.0956ZM292.208 49.2876H302.368V50.5996H292.208V49.2876ZM291.184 52.6476H303.312V53.9596H291.184V52.6476ZM293.536 43.3356L294.912 43.4956C294.56 45.7516 293.712 47.5276 292.384 48.6636C292.144 48.4396 291.568 48.0076 291.248 47.8156C292.544 46.8396 293.248 45.2556 293.536 43.3356ZM293.264 45.9436L294.112 45.0636C294.896 45.7196 295.92 46.6956 296.384 47.3036L295.52 48.3116C295.04 47.6716 294.064 46.6636 293.264 45.9436ZM300.08 43.3356L301.44 43.5116C301.056 45.6876 300.176 47.3996 298.832 48.5036C298.608 48.2796 298.064 47.8316 297.76 47.6236C299.024 46.6956 299.776 45.1916 300.08 43.3356ZM299.552 45.9276L300.384 45.0636C301.36 45.8476 302.672 46.9516 303.328 47.6396L302.448 48.6316C301.824 47.9116 300.528 46.7436 299.552 45.9276ZM290.512 41.0956H303.232V42.5036H290.512V41.0956ZM289.712 41.0956H291.2V45.5116C291.2 48.0236 290.976 51.7996 289.648 54.2796C289.376 54.0076 288.72 53.5916 288.352 53.4316C289.616 51.1276 289.712 47.8316 289.712 45.4956V41.0956ZM295.536 39.8156L296.96 39.3516C297.472 40.0396 297.968 40.9676 298.208 41.5756L296.688 42.1356C296.512 41.4956 296 40.5356 295.536 39.8156ZM313.002 52.9996V45.3196C313.002 44.6956 313.05 43.6876 313.098 43.0476H313.018C312.73 43.6396 312.41 44.2636 312.074 44.8716L309.77 48.4076H316.234V49.8476H307.914V48.5996L312.586 41.2236H314.73V52.9996H313.002ZM321.279 53.2236C318.959 53.2236 317.471 51.1596 317.471 47.0636C317.471 42.9996 318.959 41.0156 321.279 41.0156C323.583 41.0156 325.087 42.9996 325.087 47.0636C325.087 51.1596 323.583 53.2236 321.279 53.2236ZM321.279 51.7516C322.479 51.7516 323.311 50.4716 323.311 47.0636C323.311 43.7036 322.479 42.4556 321.279 42.4556C320.079 42.4556 319.231 43.7036 319.231 47.0636C319.231 50.4716 320.079 51.7516 321.279 51.7516ZM326.596 49.1756V47.7996H330.82V49.1756H326.596ZM335.851 53.2236C333.995 53.2236 332.827 52.4716 331.979 51.6396L332.875 50.4396C333.531 51.1116 334.395 51.7036 335.627 51.7036C336.955 51.7036 337.947 50.7596 337.947 49.1916C337.947 47.6396 337.051 46.7436 335.707 46.7436C334.971 46.7436 334.523 46.9516 333.835 47.3996L332.923 46.8236L333.275 41.2236H339.259V42.7916H334.891L334.619 45.7996C335.115 45.5436 335.595 45.3996 336.235 45.3996C338.203 45.3996 339.819 46.5516 339.819 49.1436C339.819 51.7356 337.899 53.2236 335.851 53.2236ZM345.248 53.2236C342.928 53.2236 341.44 51.1596 341.44 47.0636C341.44 42.9996 342.928 41.0156 345.248 41.0156C347.552 41.0156 349.056 42.9996 349.056 47.0636C349.056 51.1596 347.552 53.2236 345.248 53.2236ZM345.248 51.7516C346.448 51.7516 347.28 50.4716 347.28 47.0636C347.28 43.7036 346.448 42.4556 345.248 42.4556C344.048 42.4556 343.2 43.7036 343.2 47.0636C343.2 50.4716 344.048 51.7516 345.248 51.7516ZM356.869 39.5436H358.581C358.501 42.5836 358.389 50.5356 351.637 54.3116C351.365 53.9116 350.868 53.4316 350.389 53.0956C356.997 49.6716 356.805 42.1196 356.869 39.5436ZM358.421 41.4956C358.549 42.7116 359.141 50.1676 365.333 52.9356C364.885 53.2876 364.453 53.7996 364.229 54.2316C357.797 51.1916 357.189 43.1436 356.965 41.6556L358.421 41.4956Z" fill="#4985C6"/>
<path d="M243 87C244.657 87 246 85.6569 246 84C246 82.3431 244.657 81 243 81C241.343 81 240 82.3431 240 84C240 85.6569 241.343 87 243 87Z" fill="#4F4F4F"/>
<path d="M269.44 77.8803L270.56 78.3443C269.472 79.8003 267.824 81.2243 266.336 82.1363C266.128 81.8803 265.776 81.5283 265.456 81.3203C266.864 80.5203 268.528 79.1763 269.44 77.8803ZM269.968 82.2163L271.056 82.6803C269.888 84.2323 268.016 85.7363 266.32 86.6803C266.128 86.4083 265.776 86.0563 265.472 85.8323C267.088 85.0163 268.96 83.5923 269.968 82.2163ZM270.288 86.8403L271.392 87.2563C270.144 89.3043 268.048 91.0963 265.824 92.1843C265.632 91.9123 265.296 91.5123 264.992 91.2723C267.104 90.3283 269.184 88.6643 270.288 86.8403ZM256.928 83.5123H265.488V84.4883H256.928V83.5123ZM258.976 86.1683V87.4963H263.584V86.1683H258.976ZM257.856 85.3043H264.736V88.3603H257.856V85.3043ZM262.656 89.0803L263.52 88.6963C264.08 89.4163 264.736 90.4083 265.024 91.0163L264.112 91.4963C263.84 90.8563 263.216 89.8483 262.656 89.0803ZM258.864 80.6963V81.6723H263.744V80.6963H258.864ZM258.864 78.9523V79.9123H263.744V78.9523H258.864ZM257.728 78.1363H264.928V82.5043H257.728V78.1363ZM260.672 87.9123H261.84V91.0163C261.84 91.5923 261.744 91.8643 261.344 92.0243C260.944 92.2003 260.336 92.2003 259.44 92.2003C259.376 91.8963 259.216 91.4963 259.072 91.2083C259.728 91.2243 260.272 91.2243 260.448 91.2083C260.64 91.2083 260.672 91.1443 260.672 91.0003V87.9123ZM258.448 88.7283L259.472 89.0163C259.072 89.9603 258.368 91.0003 257.728 91.6563C257.552 91.4963 257.136 91.1763 256.88 91.0163C257.52 90.4083 258.096 89.5603 258.448 88.7283ZM260.304 82.7923L261.424 82.5363C261.68 82.9043 261.968 83.4643 262.08 83.8483L260.928 84.1363C260.816 83.7683 260.544 83.1923 260.304 82.7923ZM275.648 81.5283H283.744V82.7443H275.648V81.5283ZM282.512 77.5763H283.744V82.2643H282.512V77.5763ZM275.28 77.7363H276.48V83.1763C276.48 86.4243 276.208 89.7523 273.904 92.3443C273.712 92.0563 273.28 91.6403 273.008 91.4323C275.056 89.0963 275.28 86.0723 275.28 83.1763V77.7363ZM275.6 85.3203H284.32V92.2803H283.072V86.5203H275.6V85.3203ZM288.88 88.1043H303.056V89.0803H288.88V88.1043ZM292.96 79.0323H302.928V79.9123H292.96V79.0323ZM298.464 87.2403H299.632V90.9363C299.632 91.5603 299.504 91.8643 298.976 92.0403C298.48 92.2163 297.664 92.2163 296.336 92.2163C296.288 91.8963 296.096 91.4803 295.936 91.1763C296.96 91.2083 297.872 91.1923 298.144 91.1763C298.384 91.1763 298.464 91.1123 298.464 90.9043V87.2403ZM291.856 89.7363L292.688 89.0803C293.504 89.6403 294.464 90.4883 294.912 91.0803L294.016 91.8163C293.6 91.2243 292.672 90.3283 291.856 89.7363ZM294.896 77.8163L295.872 77.5283C296.224 77.9443 296.592 78.5523 296.752 78.9683L295.728 79.3043C295.584 78.8883 295.232 78.2803 294.896 77.8163ZM295.056 82.7283V83.4643H300.608V82.7283H295.056ZM295.056 84.1043V84.8563H300.608V84.1043H295.056ZM295.056 81.3683V82.0883H300.608V81.3683H295.056ZM294.032 80.7123H301.68V85.5123H294.032V80.7123ZM297.328 79.3363L298.528 79.4643C298.256 80.0723 297.968 80.6483 297.712 81.0643L296.752 80.9043C296.96 80.4403 297.216 79.7683 297.328 79.3363ZM299.968 77.5763L301.088 77.8163C300.72 78.4403 300.288 79.0483 299.952 79.4643L298.992 79.2243C299.328 78.7603 299.744 78.0403 299.968 77.5763ZM289.92 77.8483L290.912 77.5923C291.328 78.0723 291.76 78.7283 291.984 79.1603L290.96 79.4803C290.736 79.0323 290.288 78.3443 289.92 77.8483ZM289.088 79.7523H292.288V80.7283H289.088V79.7523ZM292.048 84.3283C292.8 85.9443 294.304 86.1523 297.168 86.1523C299.072 86.1523 301.632 86.0883 303.408 85.9283C303.232 86.1683 303.104 86.6643 303.04 86.9843C301.424 87.0643 299.12 87.1123 297.184 87.1123C293.808 87.1123 292.288 86.7763 291.36 84.6803L292.048 84.3283ZM292.096 82.3763H292.464L292.656 82.3443L293.104 82.6483C292.448 84.8883 291.072 86.5363 289.536 87.4483C289.424 87.2083 289.104 86.7763 288.896 86.6003C290.32 85.8163 291.568 84.3603 292.096 82.5683V82.3763ZM289.408 83.5923V82.6643L289.984 82.3763H292.384V83.3523H290.336C289.952 83.3523 289.52 83.4643 289.408 83.5923ZM289.408 83.5763C289.328 83.3203 289.104 82.8083 288.992 82.5843C289.184 82.5203 289.44 82.4243 289.744 82.1683C290.176 81.7843 291.536 80.4243 292 79.8323V79.7843L292.368 79.6403L293.088 80.0403C292.384 80.8243 291.088 82.1363 290.224 82.8883C290.224 82.8883 289.408 83.2883 289.408 83.5763ZM311.536 85.5283H312.768C312.768 85.5283 312.752 85.8963 312.72 86.0723C312.448 89.6723 312.16 91.1123 311.648 91.6563C311.296 92.0243 310.928 92.1363 310.352 92.1683C309.84 92.2003 308.848 92.2003 307.824 92.1363C307.792 91.7523 307.616 91.2403 307.376 90.9043C308.448 91.0003 309.504 91.0003 309.904 91.0003C310.256 91.0003 310.432 90.9843 310.608 90.8243C311.024 90.4723 311.296 89.0803 311.536 85.7043V85.5283ZM306.288 81.9123H307.504C307.264 83.4803 306.912 85.4483 306.656 86.6483H305.408C305.712 85.4003 306.08 83.4323 306.288 81.9123ZM316.496 77.7363H317.696V92.2803H316.496V77.7363ZM306.304 85.5283H311.776V86.6483H306.144L306.304 85.5283ZM306.864 81.9123H311.504V79.3523H305.696V78.2323H312.672V83.0483H306.864V81.9123Z" fill="#4F4F4F"/>
<path d="M343 87C344.657 87 346 85.6569 346 84C346 82.3431 344.657 81 343 81C341.343 81 340 82.3431 340 84C340 85.6569 341.343 87 343 87Z" fill="#4F4F4F"/>
<path d="M362.272 86.0561H370.256V92.2001H369.104V87.1601H363.376V92.2801H362.272V86.0561ZM369.664 77.6241L370.608 78.5681C368.416 79.3201 365.072 79.8161 362.208 80.0881C362.16 79.8001 362 79.3361 361.856 79.0641C364.64 78.7601 367.888 78.2641 369.664 77.6241ZM365.728 79.0161H366.88V86.6961H365.728V79.0161ZM361.104 82.2641H371.296V83.4161H361.104V82.2641ZM363.024 90.4881H369.632V91.5921H363.024V90.4881ZM357.44 78.6161L358.112 77.7681C359.088 78.2481 360.448 78.9681 361.136 79.4321L360.432 80.4081C359.76 79.9281 358.432 79.1441 357.44 78.6161ZM356.656 83.0321L357.328 82.1521C358.272 82.6161 359.616 83.3201 360.288 83.7841L359.616 84.7601C358.96 84.3121 357.632 83.5441 356.656 83.0321ZM357.04 91.2561C357.904 90.0401 359.168 87.9281 360.096 86.1041L360.96 86.8881C360.112 88.5841 358.992 90.5841 358.048 92.0721L357.04 91.2561ZM373.104 88.0241H380.4V88.9361H373.104V88.0241ZM372.672 80.3121H380.656V81.2401H372.672V80.3121ZM376.144 78.8561H377.248V90.6321H376.144V78.8561ZM372.656 90.6641C374.608 90.4881 377.6 90.2001 380.464 89.8961L380.48 90.8401C377.76 91.1601 374.864 91.4961 372.832 91.7041L372.656 90.6641ZM374.144 85.0321V86.2161H379.328V85.0321H374.144ZM374.144 83.0801V84.2321H379.328V83.0801H374.144ZM373.136 82.2481H380.352V87.0481H373.136V82.2481ZM379.776 77.7201L380.384 78.6481C378.496 79.0641 375.52 79.3361 373.12 79.4161C373.072 79.1601 372.96 78.7601 372.832 78.5201C375.216 78.3921 378.128 78.1041 379.776 77.7201ZM380.544 81.3041H386.32V82.4241H380.544V81.3041ZM385.856 81.3041H387.008C387.008 81.3041 386.992 81.7521 386.992 81.9121C386.816 88.6641 386.656 90.9041 386.128 91.5921C385.84 92.0081 385.52 92.1521 385.04 92.2001C384.592 92.2481 383.824 92.2481 383.088 92.2001C383.056 91.8641 382.928 91.3681 382.736 91.0481C383.52 91.1121 384.224 91.1281 384.544 91.1281C384.8 91.1281 384.96 91.0801 385.104 90.8721C385.504 90.3761 385.68 88.0721 385.856 81.5921V81.3041ZM382.48 77.7681H383.632C383.616 84.1361 383.6 89.5121 379.776 92.3761C379.584 92.0881 379.168 91.7041 378.88 91.5121C382.544 88.8881 382.464 83.8161 382.48 77.7681ZM389.424 82.4081H394.16V83.3681H389.424V82.4081ZM389.424 84.5041H394.176V85.4641H389.424V84.5041ZM388.752 80.2801H394.848V81.2881H388.752V80.2801ZM389.936 86.6481H394.176V91.3201H389.936V90.3121H393.104V87.6561H389.936V86.6481ZM389.408 86.6481H390.464V92.0721H389.408V86.6481ZM390.496 77.9761L391.424 77.4961C391.888 78.1521 392.416 79.0001 392.672 79.5601L391.68 80.1361C391.44 79.5441 390.928 78.6321 390.496 77.9761ZM396.448 78.1521H400.592V79.2721H396.448V78.1521ZM394.672 84.6321H401.728V85.7681H394.672V84.6321ZM401.296 84.6321H401.536L401.744 84.5841L402.496 84.9201C401.264 89.0001 398.176 91.2561 394.704 92.2961C394.576 91.9761 394.304 91.4801 394.08 91.2241C397.312 90.4081 400.256 88.2641 401.296 84.8401V84.6321ZM396.368 85.6561C397.552 88.3921 400.064 90.4241 403.44 91.1761C403.184 91.4321 402.848 91.9281 402.688 92.2641C399.216 91.3521 396.704 89.1441 395.344 86.0081L396.368 85.6561ZM396.208 78.1521H397.328V79.9441C397.328 81.3841 396.912 83.0961 394.992 84.2321C394.848 83.9921 394.432 83.5281 394.224 83.3521C395.952 82.3601 396.208 81.0481 396.208 79.9121V78.1521ZM400 78.1521H401.12V81.8641C401.12 82.3121 401.152 82.4721 401.36 82.4721C401.536 82.4721 402.16 82.4721 402.336 82.4721C402.528 82.4721 402.832 82.4401 403.024 82.3921C403.04 82.6961 403.072 83.1441 403.12 83.4161C402.944 83.4961 402.624 83.5121 402.336 83.5121C402.128 83.5121 401.472 83.5121 401.28 83.5121C400.224 83.5121 400 83.0641 400 81.8481V78.1521ZM405.728 82.4081H410.96V83.3681H405.728V82.4081ZM405.728 84.5041H410.928V85.4641H405.728V84.5041ZM405.008 80.2801H411.632V81.2881H405.008V80.2801ZM406.352 86.6481H410.944V91.3201H406.352V90.3121H409.888V87.6561H406.352V86.6481ZM405.84 86.6481H406.88V92.0721H405.84V86.6481ZM406.912 77.9761L407.856 77.4961C408.304 78.1521 408.816 79.0001 409.072 79.5601L408.112 80.1361C407.872 79.5441 407.344 78.6321 406.912 77.9761ZM411.616 83.1121H419.28V84.2961H411.616V83.1121ZM414.752 77.8641H415.984V92.2801H414.752V77.8641Z" fill="#4F4F4F"/>
<g filter="url(#filter5_d_1766_39160)">
<path d="M921 131H601C595.477 131 591 135.477 591 141V227C591 232.523 595.477 237 601 237H921C926.523 237 931 232.523 931 227V141C931 135.477 926.523 131 921 131Z" fill="white"/>
</g>
<path d="M614.44 161.232H623.48V162.128H614.44V161.232ZM614.232 168H623.704V168.88H614.232V168ZM615.848 169.36L616.808 168.88C617.304 169.28 617.88 169.888 618.136 170.304L617.112 170.848C616.872 170.432 616.328 169.808 615.848 169.36ZM616.168 164.64V165.248H621.752V164.64H616.168ZM616.168 163.392V163.968H621.752V163.392H616.168ZM614.984 162.688H622.984V165.952H614.984V162.688ZM620.232 167.472H621.512V170.16C621.512 170.704 621.4 170.88 620.984 171.008C620.6 171.136 619.976 171.136 619.048 171.136C618.984 170.848 618.84 170.544 618.712 170.32C619.272 170.336 619.848 170.336 620.024 170.32C620.184 170.32 620.232 170.272 620.232 170.112V167.472ZM614.488 166.64C616.456 166.656 619.464 166.624 622.392 166.576L622.36 167.312C619.528 167.408 616.6 167.488 614.536 167.52L614.488 166.64ZM620.936 166.352L621.736 165.824C622.376 166.272 623.112 166.928 623.464 167.376L622.648 168C622.28 167.52 621.544 166.8 620.936 166.352ZM618.296 160.56H619.56V166.928L618.296 166.992V160.56ZM612.408 159.152H625.608V173.296H624.168V160.32H613.8V173.36H612.408V159.152ZM613.096 171.36H624.76V172.544H613.096V171.36ZM634.2 165.408H642.28V166.528H634.2V165.408ZM634.008 171.936H642.424V173.072H634.008V171.936ZM636.44 158.512H637.64V160.48H636.44V158.512ZM638.6 158.512H639.816V160.48H638.6V158.512ZM635.64 162.672V163.664H640.712V162.672H635.64ZM635.64 160.736V161.712H640.712V160.736H635.64ZM634.488 159.696H641.912V164.688H634.488V159.696ZM636.216 168.16V169.28H640.152V168.16H636.216ZM634.904 167.184H641.56V170.24H634.904V167.184ZM639.544 170.192L640.904 170.576C640.488 171.296 640.072 172.064 639.736 172.56L638.76 172.208C639.032 171.648 639.368 170.784 639.544 170.192ZM635.64 170.576L636.792 170.224C637.064 170.816 637.368 171.6 637.512 172.112L636.312 172.512C636.2 172 635.896 171.184 635.64 170.576ZM636.68 160.24H637.656V164.256H636.68V160.24ZM638.664 160.24H639.64V164.256H638.664V160.24ZM629.112 165.488H632.744V166.512H629.112V165.488ZM632.024 165.488H633.304V171.936C633.304 172.528 633.192 172.864 632.792 173.056C632.392 173.248 631.832 173.264 630.952 173.264C630.904 172.944 630.728 172.448 630.568 172.128C631.128 172.144 631.656 172.144 631.816 172.144C631.976 172.144 632.024 172.08 632.024 171.92V165.488ZM628.392 159.04H633.352V164.032H632.088V160.144H629.576V164.032H628.392V159.04ZM627.736 163.536H634.024V165.936H632.856V164.592H628.856V165.936H627.736V163.536ZM630.408 161.008H632.904V161.92H631.24V163.92H630.408V161.008ZM628.536 165.488H629.784V168.512C629.784 170 629.624 172.032 628.696 173.408C628.472 173.168 627.928 172.784 627.624 172.64C628.456 171.424 628.536 169.776 628.536 168.496V165.488ZM629.624 170.24C630.392 169.92 631.48 169.376 632.6 168.816L632.84 169.6C631.896 170.192 630.968 170.768 630.136 171.28L629.624 170.24ZM629.736 167.664L630.392 167.008C630.984 167.392 631.672 167.888 632.04 168.24L631.336 169.008C631 168.64 630.296 168.048 629.736 167.664ZM649.336 159.76H658.04V160.848H649.336V159.76ZM649.016 163.664H658.376V164.768H649.016V163.664ZM649 169.616H658.408V170.736H649V169.616ZM649.752 161.68H657.784V162.736H649.752V161.68ZM651.24 158.512H652.616V164.128H651.24V158.512ZM654.728 158.512H656.12V164.128H654.728V158.512ZM652.968 164.16H654.36V169.952H652.968V164.16ZM656.088 165.552H657.528V171.888C657.528 172.576 657.384 172.928 656.904 173.136C656.392 173.344 655.64 173.344 654.504 173.344C654.44 172.992 654.264 172.464 654.088 172.128C654.824 172.144 655.592 172.144 655.784 172.144C656.008 172.128 656.088 172.08 656.088 171.888V165.552ZM649.912 165.552H656.696V166.656H651.32V173.376H649.912V165.552ZM650.632 167.616H656.68V168.608H650.632V167.616ZM644.184 163.36H648.472V164.528H644.184V163.36ZM644.184 165.488H648.472V166.656H644.184V165.488ZM643.592 161.184H649V162.416H643.592V161.184ZM644.76 167.664H648.584V172.416H644.76V171.184H647.416V168.896H644.76V167.664ZM644.168 167.664H645.32V173.136H644.168V167.664ZM645.128 159.024L646.264 158.384C646.776 159.024 647.384 159.888 647.688 160.448L646.488 161.232C646.216 160.64 645.624 159.696 645.128 159.024ZM667.496 162.096H668.952V172.288H667.496V162.096ZM663.208 168.288H673.368V169.6H663.208V168.288ZM662.184 171.648H674.312V172.96H662.184V171.648ZM664.536 162.336L665.912 162.496C665.56 164.752 664.712 166.528 663.384 167.664C663.144 167.44 662.568 167.008 662.248 166.816C663.544 165.84 664.248 164.256 664.536 162.336ZM664.264 164.944L665.112 164.064C665.896 164.72 666.92 165.696 667.384 166.304L666.52 167.312C666.04 166.672 665.064 165.664 664.264 164.944ZM671.08 162.336L672.44 162.512C672.056 164.688 671.176 166.4 669.832 167.504C669.608 167.28 669.064 166.832 668.76 166.624C670.024 165.696 670.776 164.192 671.08 162.336ZM670.552 164.928L671.384 164.064C672.36 164.848 673.672 165.952 674.328 166.64L673.448 167.632C672.824 166.912 671.528 165.744 670.552 164.928ZM661.512 160.096H674.232V161.504H661.512V160.096ZM660.712 160.096H662.2V164.512C662.2 167.024 661.976 170.8 660.648 173.28C660.376 173.008 659.72 172.592 659.352 172.432C660.616 170.128 660.712 166.832 660.712 164.496V160.096ZM666.536 158.816L667.96 158.352C668.472 159.04 668.968 159.968 669.208 160.576L667.688 161.136C667.512 160.496 667 159.536 666.536 158.816ZM682.866 172.224C681.026 172.224 679.826 171.488 679.026 170.592L679.938 169.408C680.626 170.112 681.49 170.704 682.722 170.704C684.034 170.704 684.946 169.968 684.946 168.752C684.946 167.44 684.114 166.608 681.474 166.608V165.232C683.778 165.232 684.546 164.368 684.546 163.184C684.546 162.144 683.874 161.488 682.738 161.488C681.842 161.488 681.074 161.92 680.402 162.592L679.426 161.424C680.37 160.592 681.458 160.016 682.818 160.016C684.93 160.016 686.418 161.104 686.418 163.04C686.418 164.4 685.634 165.344 684.386 165.808V165.888C685.746 166.24 686.818 167.248 686.818 168.848C686.818 170.976 685.042 172.224 682.866 172.224ZM692.279 172.224C689.959 172.224 688.471 170.16 688.471 166.064C688.471 162 689.959 160.016 692.279 160.016C694.583 160.016 696.087 162 696.087 166.064C696.087 170.16 694.583 172.224 692.279 172.224ZM692.279 170.752C693.479 170.752 694.311 169.472 694.311 166.064C694.311 162.704 693.479 161.456 692.279 161.456C691.079 161.456 690.231 162.704 690.231 166.064C690.231 169.472 691.079 170.752 692.279 170.752ZM697.596 168.176V166.8H701.82V168.176H697.596ZM707.971 172V164.32C707.971 163.696 708.019 162.688 708.067 162.048H707.987C707.699 162.64 707.379 163.264 707.043 163.872L704.739 167.408H711.203V168.848H702.883V167.6L707.555 160.224H709.699V172H707.971ZM716.248 172.224C713.928 172.224 712.44 170.16 712.44 166.064C712.44 162 713.928 160.016 716.248 160.016C718.552 160.016 720.056 162 720.056 166.064C720.056 170.16 718.552 172.224 716.248 172.224ZM716.248 170.752C717.448 170.752 718.28 169.472 718.28 166.064C718.28 162.704 717.448 161.456 716.248 161.456C715.048 161.456 714.2 162.704 714.2 166.064C714.2 169.472 715.048 170.752 716.248 170.752ZM727.869 158.544H729.581C729.501 161.584 729.389 169.536 722.637 173.312C722.365 172.912 721.868 172.432 721.389 172.096C727.997 168.672 727.805 161.12 727.869 158.544ZM729.421 160.496C729.549 161.712 730.141 169.168 736.333 171.936C735.885 172.288 735.453 172.8 735.229 173.232C728.797 170.192 728.189 162.144 727.965 160.656L729.421 160.496Z" fill="#1DA637"/>
<path d="M614 206C615.657 206 617 204.657 617 203C617 201.343 615.657 200 614 200C612.343 200 611 201.343 611 203C611 204.657 612.343 206 614 206Z" fill="#4F4F4F"/>
<path d="M632.792 199.712V200.768H637.128V199.712H632.792ZM631.8 198.992H638.168V201.488H631.8V198.992ZM632.232 204.416V207.984H637.688V204.416H632.232ZM631.272 203.664H638.696V208.752H631.272V203.664ZM634.008 205.728V206.672H635.88V205.728H634.008ZM633.256 205.104H636.664V207.312H633.256V205.104ZM630.184 202.224H639.832V202.976H630.184V202.224ZM634.408 201.008H635.464V202.56H634.408V201.008ZM628.312 197.216H641.72V211.264H640.536V198.24H629.448V211.264H628.312V197.216ZM629.016 209.616H641.16V210.64H629.016V209.616ZM650.344 204.992H651.56V211.28H650.344V204.992ZM644.28 197.76H657.784V200.08H656.632V198.784H645.4V200.08H644.28V197.76ZM644.008 200.624H658.024V201.6H644.008V200.624ZM643.832 206.32H658.184V207.36H643.832V206.32ZM654.344 199.504L655.512 199.792C654.2 203.744 650.92 205.056 644.424 205.456C644.328 205.104 644.168 204.704 643.992 204.432C650.2 204.176 653.208 202.992 654.344 199.504ZM646.024 203.168L647.016 202.432C651.096 203.024 655.272 203.968 657.832 204.816L656.648 205.616C654.328 204.752 650.344 203.84 646.024 203.168ZM649.896 196.832L651.08 196.528C651.432 197.008 651.848 197.664 652.056 198.08L650.808 198.448C650.616 198.016 650.216 197.328 649.896 196.832ZM646.024 203.168C647.256 202.08 648.856 200.336 649.752 198.944L650.92 199.312C649.96 200.688 648.408 202.256 647.352 203.168H646.024ZM647.848 207.696L649.048 208.096C648.056 209.168 646.424 210.176 645.016 210.8C644.792 210.576 644.328 210.176 644.04 209.984C645.48 209.456 647 208.624 647.848 207.696ZM652.808 208.288L653.624 207.52C655.08 208.176 656.936 209.232 657.88 210L657 210.88C656.104 210.096 654.28 208.992 652.808 208.288ZM661.176 197.28H673.96V198.208H661.176V197.28ZM668.04 201.008H673.864V201.984H668.04V201.008ZM662.728 207.712H673.048V208.624H662.728V207.712ZM661.64 209.936H674.088V210.848H661.64V209.936ZM667.352 206.848H668.52V210.544H667.352V206.848ZM660.68 197.28H661.752V202.912C661.752 205.312 661.592 208.704 660.424 210.944C660.216 210.768 659.736 210.496 659.48 210.368C660.584 208.24 660.68 205.184 660.68 202.928V197.28ZM663.544 200.512V201.072H666.552V200.512H663.544ZM663.544 199.376V199.92H666.552V199.376H663.544ZM662.648 198.768H667.464V201.68H662.648V198.768ZM666.744 202.272H667.704V205.824C667.704 206.288 667.624 206.48 667.256 206.608C666.888 206.736 666.312 206.736 665.384 206.736C665.336 206.512 665.208 206.24 665.096 206.048C665.752 206.064 666.344 206.064 666.504 206.064C666.68 206.048 666.744 206 666.744 205.84V202.272ZM671.624 199.184L672.328 198.768C672.856 199.232 673.448 199.888 673.736 200.352L672.984 200.816C672.728 200.368 672.136 199.664 671.624 199.184ZM671.368 201.536C671.768 203.536 672.68 205.232 674.232 205.952C673.992 206.16 673.672 206.528 673.512 206.816C671.88 205.904 670.952 203.984 670.504 201.712L671.368 201.536ZM670.248 198.64H671.176V201.008C671.176 202.96 670.824 205.136 668.312 206.752C668.152 206.544 667.832 206.24 667.592 206.064C669.944 204.592 670.248 202.608 670.248 200.992V198.64ZM662.888 202.272H667.208V202.976H662.888V202.272ZM662.36 202.272H663.32V204.112C663.32 204.976 663.24 206.096 662.648 206.864C662.472 206.688 662.04 206.4 661.832 206.304C662.328 205.632 662.36 204.8 662.36 204.08V202.272ZM663.144 205.136C664.152 204.928 665.576 204.608 667.016 204.288L667.128 204.928C665.848 205.248 664.552 205.584 663.464 205.84L663.144 205.136ZM663.544 203.76L663.816 203.248C664.664 203.392 665.768 203.648 666.36 203.84L666.12 204.432C665.496 204.224 664.408 203.936 663.544 203.76ZM676.312 200.064H688.728V201.28H676.312V200.064ZM688.264 200.064H689.512C689.512 200.064 689.496 200.512 689.48 200.704C689.112 207.328 688.776 209.712 688.072 210.512C687.688 210.976 687.304 211.104 686.696 211.152C686.136 211.216 685.112 211.184 684.12 211.12C684.104 210.768 683.944 210.24 683.72 209.888C684.808 209.984 685.832 210 686.232 210C686.584 210 686.776 209.952 686.984 209.76C687.592 209.168 687.944 206.672 688.264 200.32V200.064ZM681.544 196.592H682.808V199.376C682.808 203.024 682.36 207.968 676.76 211.344C676.584 211.056 676.136 210.608 675.848 210.4C681.16 207.232 681.544 202.688 681.544 199.376V196.592ZM691.912 199.664H696.28V200.768H691.912V199.664ZM693.832 196.56H694.808V211.264H693.832V196.56ZM693.736 200.32L694.376 200.592C693.976 203.12 693.096 206.24 692.152 207.84C692.04 207.488 691.784 206.96 691.608 206.656C692.488 205.248 693.368 202.544 693.736 200.32ZM694.712 201.68C695.032 202.112 696.2 204.032 696.472 204.496L695.88 205.392C695.576 204.624 694.616 202.8 694.248 202.176L694.712 201.68ZM698.728 200.176H703.528V201.152H698.728V200.176ZM697.992 203.2V205.312H699.704V203.2H697.992ZM697.064 202.32H700.664V206.192H697.064V202.32ZM702.584 203.2V205.312H704.376V203.2H702.584ZM701.64 202.32H705.336V206.192H701.64V202.32ZM698.424 206.544L699.512 206.768C698.904 208.752 697.672 210.32 696.184 211.328C696.008 211.12 695.608 210.736 695.352 210.544C696.824 209.68 697.912 208.288 698.424 206.544ZM698.248 208.544L698.856 207.84C699.56 208.272 700.44 208.912 700.856 209.36L700.216 210.16C699.8 209.696 698.952 209.008 698.248 208.544ZM702.904 206.528L704.008 206.688C703.576 208.72 702.6 210.272 701.208 211.28C701.048 211.088 700.632 210.688 700.392 210.496C701.688 209.648 702.552 208.272 702.904 206.528ZM702.568 208.608L703.256 207.872C704.328 208.544 705.72 209.552 706.376 210.224L705.64 211.056C704.984 210.368 703.64 209.312 702.568 208.608ZM700.776 196.448L701.944 196.832C700.84 198.608 699.016 200.224 697.016 201.328C696.84 201.104 696.456 200.72 696.2 200.528C698.136 199.52 699.88 197.952 700.776 196.448ZM701.192 196.976C702.312 198.192 704.616 199.488 706.456 200.144C706.248 200.432 706.008 200.928 705.912 201.232C703.976 200.384 701.624 198.912 700.344 197.536L701.192 196.976ZM713.032 201.312V203.312H715.576V201.312H713.032ZM713.032 204.304V206.304H715.576V204.304H713.032ZM713.032 198.352V200.32H715.576V198.352H713.032ZM711.992 197.28H716.664V207.376H711.992V197.28ZM714.824 208.16L715.736 207.648C716.392 208.416 717.208 209.472 717.576 210.128L716.616 210.72C716.264 210.048 715.48 208.944 714.824 208.16ZM712.664 207.712L713.768 208C713.224 209.248 712.312 210.528 711.464 211.344C711.24 211.152 710.776 210.832 710.504 210.672C711.352 209.92 712.184 208.8 712.664 207.712ZM720.648 196.576H721.768V209.776C721.768 210.528 721.576 210.864 721.128 211.056C720.664 211.264 719.912 211.28 718.6 211.28C718.536 210.976 718.392 210.464 718.232 210.144C719.176 210.176 720.024 210.16 720.28 210.144C720.552 210.144 720.648 210.064 720.648 209.792V196.576ZM717.864 198.224H718.92V207.376H717.864V198.224ZM708.296 197.6L708.984 196.736C709.88 197.152 710.984 197.84 711.528 198.352L710.808 199.328C710.296 198.784 709.192 198.048 708.296 197.6ZM707.592 201.904L708.264 201.024C709.208 201.392 710.36 202.016 710.92 202.512L710.232 203.488C709.672 202.992 708.536 202.32 707.592 201.904ZM707.928 210.448C708.584 209.216 709.496 207.12 710.152 205.328L711.112 205.968C710.504 207.632 709.704 209.6 709 211.088L707.928 210.448Z" fill="#4F4F4F"/>
<path d="M746 206C747.657 206 749 204.657 749 203C749 201.343 747.657 200 746 200C744.343 200 743 201.343 743 203C743 204.657 744.343 206 746 206Z" fill="#4F4F4F"/>
<path d="M772.44 196.88L773.56 197.344C772.472 198.8 770.824 200.224 769.336 201.136C769.128 200.88 768.776 200.528 768.456 200.32C769.864 199.52 771.528 198.176 772.44 196.88ZM772.968 201.216L774.056 201.68C772.888 203.232 771.016 204.736 769.32 205.68C769.128 205.408 768.776 205.056 768.472 204.832C770.088 204.016 771.96 202.592 772.968 201.216ZM773.288 205.84L774.392 206.256C773.144 208.304 771.048 210.096 768.824 211.184C768.632 210.912 768.296 210.512 767.992 210.272C770.104 209.328 772.184 207.664 773.288 205.84ZM759.928 202.512H768.488V203.488H759.928V202.512ZM761.976 205.168V206.496H766.584V205.168H761.976ZM760.856 204.304H767.736V207.36H760.856V204.304ZM765.656 208.08L766.52 207.696C767.08 208.416 767.736 209.408 768.024 210.016L767.112 210.496C766.84 209.856 766.216 208.848 765.656 208.08ZM761.864 199.696V200.672H766.744V199.696H761.864ZM761.864 197.952V198.912H766.744V197.952H761.864ZM760.728 197.136H767.928V201.504H760.728V197.136ZM763.672 206.912H764.84V210.016C764.84 210.592 764.744 210.864 764.344 211.024C763.944 211.2 763.336 211.2 762.44 211.2C762.376 210.896 762.216 210.496 762.072 210.208C762.728 210.224 763.272 210.224 763.448 210.208C763.64 210.208 763.672 210.144 763.672 210V206.912ZM761.448 207.728L762.472 208.016C762.072 208.96 761.368 210 760.728 210.656C760.552 210.496 760.136 210.176 759.88 210.016C760.52 209.408 761.096 208.56 761.448 207.728ZM763.304 201.792L764.424 201.536C764.68 201.904 764.968 202.464 765.08 202.848L763.928 203.136C763.816 202.768 763.544 202.192 763.304 201.792ZM778.648 200.528H786.744V201.744H778.648V200.528ZM785.512 196.576H786.744V201.264H785.512V196.576ZM778.28 196.736H779.48V202.176C779.48 205.424 779.208 208.752 776.904 211.344C776.712 211.056 776.28 210.64 776.008 210.432C778.056 208.096 778.28 205.072 778.28 202.176V196.736ZM778.6 204.32H787.32V211.28H786.072V205.52H778.6V204.32ZM791.88 207.104H806.056V208.08H791.88V207.104ZM795.96 198.032H805.928V198.912H795.96V198.032ZM801.464 206.24H802.632V209.936C802.632 210.56 802.504 210.864 801.976 211.04C801.48 211.216 800.664 211.216 799.336 211.216C799.288 210.896 799.096 210.48 798.936 210.176C799.96 210.208 800.872 210.192 801.144 210.176C801.384 210.176 801.464 210.112 801.464 209.904V206.24ZM794.856 208.736L795.688 208.08C796.504 208.64 797.464 209.488 797.912 210.08L797.016 210.816C796.6 210.224 795.672 209.328 794.856 208.736ZM797.896 196.816L798.872 196.528C799.224 196.944 799.592 197.552 799.752 197.968L798.728 198.304C798.584 197.888 798.232 197.28 797.896 196.816ZM798.056 201.728V202.464H803.608V201.728H798.056ZM798.056 203.104V203.856H803.608V203.104H798.056ZM798.056 200.368V201.088H803.608V200.368H798.056ZM797.032 199.712H804.68V204.512H797.032V199.712ZM800.328 198.336L801.528 198.464C801.256 199.072 800.968 199.648 800.712 200.064L799.752 199.904C799.96 199.44 800.216 198.768 800.328 198.336ZM802.968 196.576L804.088 196.816C803.72 197.44 803.288 198.048 802.952 198.464L801.992 198.224C802.328 197.76 802.744 197.04 802.968 196.576ZM792.92 196.848L793.912 196.592C794.328 197.072 794.76 197.728 794.984 198.16L793.96 198.48C793.736 198.032 793.288 197.344 792.92 196.848ZM792.088 198.752H795.288V199.728H792.088V198.752ZM795.048 203.328C795.8 204.944 797.304 205.152 800.168 205.152C802.072 205.152 804.632 205.088 806.408 204.928C806.232 205.168 806.104 205.664 806.04 205.984C804.424 206.064 802.12 206.112 800.184 206.112C796.808 206.112 795.288 205.776 794.36 203.68L795.048 203.328ZM795.096 201.376H795.464L795.656 201.344L796.104 201.648C795.448 203.888 794.072 205.536 792.536 206.448C792.424 206.208 792.104 205.776 791.896 205.6C793.32 204.816 794.568 203.36 795.096 201.568V201.376ZM792.408 202.592V201.664L792.984 201.376H795.384V202.352H793.336C792.952 202.352 792.52 202.464 792.408 202.592ZM792.408 202.576C792.328 202.32 792.104 201.808 791.992 201.584C792.184 201.52 792.44 201.424 792.744 201.168C793.176 200.784 794.536 199.424 795 198.832V198.784L795.368 198.64L796.088 199.04C795.384 199.824 794.088 201.136 793.224 201.888C793.224 201.888 792.408 202.288 792.408 202.576ZM814.536 204.528H815.768C815.768 204.528 815.752 204.896 815.72 205.072C815.448 208.672 815.16 210.112 814.648 210.656C814.296 211.024 813.928 211.136 813.352 211.168C812.84 211.2 811.848 211.2 810.824 211.136C810.792 210.752 810.616 210.24 810.376 209.904C811.448 210 812.504 210 812.904 210C813.256 210 813.432 209.984 813.608 209.824C814.024 209.472 814.296 208.08 814.536 204.704V204.528ZM809.288 200.912H810.504C810.264 202.48 809.912 204.448 809.656 205.648H808.408C808.712 204.4 809.08 202.432 809.288 200.912ZM819.496 196.736H820.696V211.28H819.496V196.736ZM809.304 204.528H814.776V205.648H809.144L809.304 204.528ZM809.864 200.912H814.504V198.352H808.696V197.232H815.672V202.048H809.864V200.912Z" fill="#4F4F4F"/>
<g filter="url(#filter6_d_1766_39160)">
<path d="M350 226H30C24.4772 226 20 230.477 20 236V322C20 327.523 24.4772 332 30 332H350C355.523 332 360 327.523 360 322V236C360 230.477 355.523 226 350 226Z" fill="white"/>
</g>
<path d="M45.44 254.408H54.912V268.216H53.472V255.736H46.832V268.344H45.44V254.408ZM47.392 257.896H53.008V259.032H47.392V257.896ZM46.176 266.056H54.208V267.4H46.176V266.056ZM49.552 256.168H50.752V261.272H49.552V256.168ZM49.072 261.72V263.848H51.296V261.72H49.072ZM47.936 260.632H52.48V264.936H47.936V260.632ZM43.648 253.56L45.024 253.976C44.112 256.728 42.608 259.56 40.976 261.432C40.848 261.064 40.464 260.2 40.208 259.816C41.6 258.296 42.88 255.928 43.648 253.56ZM42.32 257.688L43.744 256.264L43.76 256.28V268.376H42.32V257.688ZM65.344 255.432H66.816V264.392H65.344V255.432ZM69.2 253.816H70.704V266.44C70.704 267.4 70.48 267.832 69.904 268.088C69.312 268.328 68.352 268.376 66.88 268.36C66.8 267.944 66.56 267.256 66.336 266.824C67.44 266.856 68.448 266.856 68.768 266.84C69.072 266.84 69.2 266.744 69.2 266.44V253.816ZM59.52 261.176H63.264V262.52H59.52V261.176ZM62.608 261.176H64.016C64.016 261.176 64 261.592 64 261.768C63.824 265.72 63.664 267.224 63.216 267.752C62.928 268.104 62.608 268.216 62.112 268.28C61.696 268.328 60.928 268.328 60.16 268.296C60.128 267.896 59.968 267.336 59.744 266.968C60.48 267.048 61.184 267.048 61.472 267.048C61.728 267.048 61.872 267.016 62.016 266.856C62.304 266.536 62.464 265.144 62.608 261.416V261.176ZM58.816 255.576V258.28H62.432V255.576H58.816ZM57.44 254.248H63.888V259.64H57.44V254.248ZM59.152 259.176H60.624C60.448 262.568 60.016 266.264 57.488 268.376C57.264 268.008 56.816 267.544 56.464 267.304C58.72 265.464 59.008 262.104 59.152 259.176ZM78.928 256.232H87.28V257.656H78.928V256.232ZM81.664 259.848H85.6V261.272H81.664V259.848ZM85.2 259.848H86.624C86.624 259.848 86.624 260.312 86.608 260.504C86.416 265.24 86.224 267 85.728 267.592C85.424 268.008 85.088 268.136 84.592 268.2C84.144 268.264 83.36 268.248 82.576 268.216C82.544 267.784 82.368 267.16 82.144 266.776C82.912 266.84 83.632 266.856 83.936 266.856C84.208 266.856 84.352 266.824 84.496 266.632C84.832 266.264 85.056 264.568 85.2 260.12V259.848ZM81.04 257.08H82.48C82.352 261.592 82.048 265.944 78.784 268.392C78.592 268.04 78.144 267.576 77.808 267.32C80.816 265.16 80.944 261.16 81.04 257.08ZM81.952 253.96L83.232 253.608C83.584 254.424 83.952 255.496 84.064 256.168L82.704 256.584C82.608 255.912 82.288 254.808 81.952 253.96ZM73.312 258.36H77.856V259.528H73.312V258.36ZM73.312 260.488H77.872V261.656H73.312V260.488ZM72.688 256.184H78.496V257.416H72.688V256.184ZM73.92 262.664H77.856V267.416H73.92V266.184H76.64V263.896H73.92V262.664ZM73.312 262.664H74.496V268.136H73.312V262.664ZM74.304 254.008L75.376 253.432C75.808 254.088 76.256 254.952 76.496 255.528L75.376 256.216C75.168 255.624 74.688 254.68 74.304 254.008ZM97.888 257.912L98.704 256.872C100.176 257.672 102.08 258.904 103.024 259.768L102.16 260.968C101.264 260.088 99.376 258.776 97.888 257.912ZM98.096 253.512H99.488C99.408 257.912 98.928 259.928 95.088 261.016C94.96 260.648 94.576 260.072 94.272 259.784C97.744 258.92 98.032 257.4 98.096 253.512ZM101.552 254.472L102.96 255.016C102.368 255.944 101.696 256.968 101.168 257.624L100.08 257.128C100.592 256.424 101.216 255.272 101.552 254.472ZM101.568 261.416L102.96 261.912C102.384 262.904 101.712 264.024 101.184 264.728L100.112 264.28C100.624 263.512 101.248 262.28 101.568 261.416ZM97.936 260.216H99.376V262.04C99.376 263.944 98.944 266.52 94.896 268.36C94.704 268.056 94.256 267.592 93.904 267.336C97.616 265.784 97.936 263.496 97.936 262.024V260.216ZM99.28 262.216C99.84 264.632 101.12 266.36 103.488 267.032C103.184 267.32 102.768 267.896 102.56 268.296C99.984 267.4 98.704 265.352 98.048 262.392L99.28 262.216ZM94.576 255.064L95.648 254.44C96.256 255.336 97.008 256.52 97.376 257.224L96.24 257.96C95.888 257.24 95.152 255.992 94.576 255.064ZM94.32 261.992L95.424 261.4C96.032 262.344 96.816 263.592 97.184 264.328L96.032 265.032C95.664 264.264 94.928 262.952 94.32 261.992ZM89.2 258.36H93.888V259.528H89.2V258.36ZM89.2 260.488H93.888V261.656H89.2V260.488ZM88.576 256.2H94.512V257.416H88.576V256.2ZM89.888 262.664H93.968V267.416H89.888V266.184H92.624V263.896H89.888V262.664ZM89.216 262.664H90.544V268.136H89.216V262.664ZM90.24 253.928L91.472 253.48C91.888 254.136 92.32 255.016 92.528 255.592L91.216 256.12C91.04 255.544 90.624 254.616 90.24 253.928ZM113.072 263.4C112.064 262.168 110.704 260.792 109.584 259.864L110.896 258.712C112.032 259.64 113.52 261.144 114.432 262.248L113.072 263.4ZM123.264 263.048H132.624V264.008H123.264V263.048ZM123.28 261.064H133.504V265.992H123.28V264.936H132.016V262.12H123.28V261.064ZM127.136 261.608H128.592V266.28C128.592 266.856 128.784 266.952 129.776 266.952C130.24 266.952 132.512 266.952 133.12 266.952C133.952 266.952 134.112 266.696 134.192 265.192C134.512 265.416 135.088 265.608 135.488 265.688C135.296 267.624 134.848 268.136 133.232 268.136C132.784 268.136 130.096 268.136 129.664 268.136C127.696 268.136 127.136 267.768 127.136 266.296V261.608ZM122.512 261.064H123.968V266.776H122.512V261.064ZM121.792 254.104H134.144V255.144H121.792V254.104ZM127.2 254.376H128.672V260.536H127.2V254.376ZM121.088 256.008H134.928V259.528H133.408V257.032H122.528V259.528H121.088V256.008ZM122.64 259.576C123.648 259.448 125.04 259.24 126.464 259.032L126.512 259.928C125.296 260.2 124.08 260.456 123.056 260.68L122.64 259.576ZM123.104 257.96L123.52 257.192C124.496 257.352 125.792 257.688 126.48 257.976L126.064 258.84C125.376 258.552 124.096 258.168 123.104 257.96ZM132.32 257.08L132.944 257.912C132.048 258.28 130.784 258.584 129.904 258.76L129.408 258.008C130.272 257.816 131.568 257.368 132.32 257.08ZM129.184 259.8L129.504 258.92C130.72 259.048 132.352 259.4 133.232 259.704L132.928 260.68C132.064 260.376 130.416 259.976 129.184 259.8ZM149.728 253.592L150.672 254.792C148.736 255.464 145.888 255.896 143.488 256.136C143.424 255.784 143.248 255.24 143.088 254.904C145.44 254.632 148.144 254.168 149.728 253.592ZM142.896 258.376H151.408V259.816H142.896V258.376ZM143.552 262.296H150.576V268.28H149.12V263.672H144.944V268.344H143.552V262.296ZM144.24 266.36H149.872V267.736H144.24V266.36ZM146.336 255.032H147.728V263.048H146.336V255.032ZM137.248 258.36H142.048V259.528H137.248V258.36ZM137.248 260.488H142.048V261.656H137.248V260.488ZM136.576 256.184H142.608V257.416H136.576V256.184ZM137.904 262.664H142.16V267.416H137.904V266.184H140.832V263.896H137.904V262.664ZM137.232 262.664H138.544V268.136H137.232V262.664ZM138.352 254.008L139.52 253.432C139.984 254.088 140.48 254.952 140.736 255.528L139.52 256.216C139.296 255.624 138.784 254.68 138.352 254.008ZM152.192 269.88L156.64 254.216H157.904L153.472 269.88H152.192ZM158.906 254.344H164.058V255.688H158.906V254.344ZM160.57 259.176H163.61V266.328H160.57V265.128H162.49V260.376H160.57V259.176ZM160.714 255.016L162.042 255.24C161.546 258.552 160.746 261.736 159.21 263.848C159.114 263.48 158.794 262.664 158.57 262.296C159.77 260.552 160.362 257.848 160.714 255.016ZM160.01 259.192H161.21V267.624H160.01V259.192ZM163.738 266.536H173.562V267.832H163.738V266.536ZM166.698 257.336H167.962V266.952H166.698V257.336ZM169.258 257.336H170.506V266.952H169.258V257.336ZM164.074 259.576L165.274 259.336C165.802 261.016 166.346 263.208 166.538 264.488L165.242 264.824C165.066 263.528 164.57 261.288 164.074 259.576ZM171.946 259.336L173.306 259.672C172.858 261.416 172.25 263.512 171.722 264.84L170.586 264.52C171.098 263.16 171.674 260.936 171.946 259.336ZM163.978 256.552H173.274V257.896H163.978V256.552ZM165.226 253.992L166.458 253.512C167.002 254.296 167.53 255.32 167.706 256.024L166.378 256.568C166.218 255.88 165.722 254.808 165.226 253.992ZM170.458 253.496L171.978 253.912C171.45 255 170.826 256.232 170.314 257.016L169.146 256.632C169.626 255.784 170.186 254.44 170.458 253.496ZM179.946 260.584H184.218V261.8H179.946V260.584ZM179.946 263.336H184.25V264.552H179.946V263.336ZM176.746 266.12H187.818V267.528H176.746V266.12ZM175.802 257.704H188.65V268.36H187.114V259.096H177.258V268.36H175.802V257.704ZM179.274 258.6H180.634V266.76H179.274V258.6ZM183.626 258.6H185.002V266.728H183.626V258.6ZM181.242 255.16L183.018 255.544C182.666 256.68 182.314 257.912 181.994 258.712L180.618 258.344C180.858 257.464 181.146 256.12 181.242 255.16ZM175.098 254.504H189.402V255.944H175.098V254.504Z" fill="#00AED4"/>
<path d="M43 301C44.6569 301 46 299.657 46 298C46 296.343 44.6569 295 43 295C41.3431 295 40 296.343 40 298C40 299.657 41.3431 301 43 301Z" fill="#4F4F4F"/>
<path d="M58.176 292.28H70.96V293.208H58.176V292.28ZM65.04 296.008H70.864V296.984H65.04V296.008ZM59.728 302.712H70.048V303.624H59.728V302.712ZM58.64 304.936H71.088V305.848H58.64V304.936ZM64.352 301.848H65.52V305.544H64.352V301.848ZM57.68 292.28H58.752V297.912C58.752 300.312 58.592 303.704 57.424 305.944C57.216 305.768 56.736 305.496 56.48 305.368C57.584 303.24 57.68 300.184 57.68 297.928V292.28ZM60.544 295.512V296.072H63.552V295.512H60.544ZM60.544 294.376V294.92H63.552V294.376H60.544ZM59.648 293.768H64.464V296.68H59.648V293.768ZM63.744 297.272H64.704V300.824C64.704 301.288 64.624 301.48 64.256 301.608C63.888 301.736 63.312 301.736 62.384 301.736C62.336 301.512 62.208 301.24 62.096 301.048C62.752 301.064 63.344 301.064 63.504 301.064C63.68 301.048 63.744 301 63.744 300.84V297.272ZM68.624 294.184L69.328 293.768C69.856 294.232 70.448 294.888 70.736 295.352L69.984 295.816C69.728 295.368 69.136 294.664 68.624 294.184ZM68.368 296.536C68.768 298.536 69.68 300.232 71.232 300.952C70.992 301.16 70.672 301.528 70.512 301.816C68.88 300.904 67.952 298.984 67.504 296.712L68.368 296.536ZM67.248 293.64H68.176V296.008C68.176 297.96 67.824 300.136 65.312 301.752C65.152 301.544 64.832 301.24 64.592 301.064C66.944 299.592 67.248 297.608 67.248 295.992V293.64ZM59.888 297.272H64.208V297.976H59.888V297.272ZM59.36 297.272H60.32V299.112C60.32 299.976 60.24 301.096 59.648 301.864C59.472 301.688 59.04 301.4 58.832 301.304C59.328 300.632 59.36 299.8 59.36 299.08V297.272ZM60.144 300.136C61.152 299.928 62.576 299.608 64.016 299.288L64.128 299.928C62.848 300.248 61.552 300.584 60.464 300.84L60.144 300.136ZM60.544 298.76L60.816 298.248C61.664 298.392 62.768 298.648 63.36 298.84L63.12 299.432C62.496 299.224 61.408 298.936 60.544 298.76ZM73.312 295.064H85.728V296.28H73.312V295.064ZM85.264 295.064H86.512C86.512 295.064 86.496 295.512 86.48 295.704C86.112 302.328 85.776 304.712 85.072 305.512C84.688 305.976 84.304 306.104 83.696 306.152C83.136 306.216 82.112 306.184 81.12 306.12C81.104 305.768 80.944 305.24 80.72 304.888C81.808 304.984 82.832 305 83.232 305C83.584 305 83.776 304.952 83.984 304.76C84.592 304.168 84.944 301.672 85.264 295.32V295.064ZM78.544 291.592H79.808V294.376C79.808 298.024 79.36 302.968 73.76 306.344C73.584 306.056 73.136 305.608 72.848 305.4C78.16 302.232 78.544 297.688 78.544 294.376V291.592ZM93.456 299.336H98.928V304.024H93.456V303.016H97.808V300.344H93.456V299.336ZM92.928 299.336H94.048V304.984H92.928V299.336ZM90.032 294.568H94.48V295.464H90.032V294.568ZM97.408 294.568H101.936V295.464H97.408V294.568ZM101.408 292.248H102.608V304.68C102.608 305.48 102.416 305.864 101.904 306.072C101.36 306.264 100.432 306.28 99.024 306.28C98.976 305.944 98.768 305.384 98.592 305.048C99.648 305.096 100.704 305.08 101.008 305.064C101.312 305.064 101.408 304.968 101.408 304.664V292.248ZM90.128 292.248H95.248V297.896H90.128V296.92H94.112V293.224H90.128V292.248ZM102.032 292.248V293.208H97.84V296.936H102.032V297.896H96.688V292.248H102.032ZM89.456 292.248H90.64V306.296H89.456V292.248ZM108.816 299.816H114.528V300.872H108.816V299.816ZM108.08 299.816H109.248V304.296C109.248 304.872 109.472 305 110.736 305C111.344 305 114.352 305 115.136 305C116.176 305 116.336 304.728 116.464 303C116.736 303.208 117.248 303.384 117.568 303.448C117.376 305.544 116.976 306.088 115.184 306.088C114.704 306.088 111.184 306.088 110.736 306.088C108.688 306.088 108.08 305.752 108.08 304.296V299.816ZM114.144 299.816H115.328C115.328 299.816 115.328 300.12 115.312 300.296C115.184 302.088 115.024 302.856 114.704 303.192C114.448 303.432 114.144 303.528 113.712 303.544C113.296 303.576 112.48 303.576 111.6 303.512C111.584 303.224 111.472 302.824 111.312 302.568C112.112 302.632 112.912 302.648 113.184 302.648C113.456 302.648 113.6 302.616 113.712 302.536C113.92 302.328 114.032 301.656 114.144 299.976V299.816ZM104.992 297.096H119.056V298.184H104.992V297.096ZM105.984 294.296H117.952V295.352H105.984V294.296ZM114.368 297.192C115.36 298.872 117.392 300.28 119.584 300.904C119.312 301.128 118.96 301.592 118.784 301.896C116.528 301.128 114.464 299.512 113.328 297.56L114.368 297.192ZM111.712 291.512L112.944 291.656C112.304 295.56 110.08 299.656 105.28 301.864C105.152 301.56 104.8 301.112 104.528 300.888C109.152 298.872 111.232 295.032 111.712 291.512ZM107.344 292.424L108.272 291.928C108.816 292.52 109.44 293.336 109.696 293.88L108.72 294.44C108.464 293.896 107.888 293.048 107.344 292.424ZM115.712 291.976L116.816 292.344C116.24 293.224 115.552 294.2 114.976 294.84L114.064 294.504C114.624 293.832 115.328 292.728 115.712 291.976ZM120.912 294.664H125.28V295.768H120.912V294.664ZM122.832 291.56H123.808V306.264H122.832V291.56ZM122.736 295.32L123.376 295.592C122.976 298.12 122.096 301.24 121.152 302.84C121.04 302.488 120.784 301.96 120.608 301.656C121.488 300.248 122.368 297.544 122.736 295.32ZM123.712 296.68C124.032 297.112 125.2 299.032 125.472 299.496L124.88 300.392C124.576 299.624 123.616 297.8 123.248 297.176L123.712 296.68ZM127.728 295.176H132.528V296.152H127.728V295.176ZM126.992 298.2V300.312H128.704V298.2H126.992ZM126.064 297.32H129.664V301.192H126.064V297.32ZM131.584 298.2V300.312H133.376V298.2H131.584ZM130.64 297.32H134.336V301.192H130.64V297.32ZM127.424 301.544L128.512 301.768C127.904 303.752 126.672 305.32 125.184 306.328C125.008 306.12 124.608 305.736 124.352 305.544C125.824 304.68 126.912 303.288 127.424 301.544ZM127.248 303.544L127.856 302.84C128.56 303.272 129.44 303.912 129.856 304.36L129.216 305.16C128.8 304.696 127.952 304.008 127.248 303.544ZM131.904 301.528L133.008 301.688C132.576 303.72 131.6 305.272 130.208 306.28C130.048 306.088 129.632 305.688 129.392 305.496C130.688 304.648 131.552 303.272 131.904 301.528ZM131.568 303.608L132.256 302.872C133.328 303.544 134.72 304.552 135.376 305.224L134.64 306.056C133.984 305.368 132.64 304.312 131.568 303.608ZM129.776 291.448L130.944 291.832C129.84 293.608 128.016 295.224 126.016 296.328C125.84 296.104 125.456 295.72 125.2 295.528C127.136 294.52 128.88 292.952 129.776 291.448ZM130.192 291.976C131.312 293.192 133.616 294.488 135.456 295.144C135.248 295.432 135.008 295.928 134.912 296.232C132.976 295.384 130.624 293.912 129.344 292.536L130.192 291.976ZM142.032 296.312V298.312H144.576V296.312H142.032ZM142.032 299.304V301.304H144.576V299.304H142.032ZM142.032 293.352V295.32H144.576V293.352H142.032ZM140.992 292.28H145.664V302.376H140.992V292.28ZM143.824 303.16L144.736 302.648C145.392 303.416 146.208 304.472 146.576 305.128L145.616 305.72C145.264 305.048 144.48 303.944 143.824 303.16ZM141.664 302.712L142.768 303C142.224 304.248 141.312 305.528 140.464 306.344C140.24 306.152 139.776 305.832 139.504 305.672C140.352 304.92 141.184 303.8 141.664 302.712ZM149.648 291.576H150.768V304.776C150.768 305.528 150.576 305.864 150.128 306.056C149.664 306.264 148.912 306.28 147.6 306.28C147.536 305.976 147.392 305.464 147.232 305.144C148.176 305.176 149.024 305.16 149.28 305.144C149.552 305.144 149.648 305.064 149.648 304.792V291.576ZM146.864 293.224H147.92V302.376H146.864V293.224ZM137.296 292.6L137.984 291.736C138.88 292.152 139.984 292.84 140.528 293.352L139.808 294.328C139.296 293.784 138.192 293.048 137.296 292.6ZM136.592 296.904L137.264 296.024C138.208 296.392 139.36 297.016 139.92 297.512L139.232 298.488C138.672 297.992 137.536 297.32 136.592 296.904ZM136.928 305.448C137.584 304.216 138.496 302.12 139.152 300.328L140.112 300.968C139.504 302.632 138.704 304.6 138 306.088L136.928 305.448Z" fill="#4F4F4F"/>
<path d="M175 301C176.657 301 178 299.657 178 298C178 296.343 176.657 295 175 295C173.343 295 172 296.343 172 298C172 299.657 173.343 301 175 301Z" fill="#4F4F4F"/>
<path d="M193.024 292.92H203.168V293.896H193.024V292.92ZM195.344 297.592H201.104V298.392H195.344V297.592ZM197.76 296.408H198.688V299.8H197.76V296.408ZM193.856 295.528H202.064V296.488H194.944V303.912H193.856V295.528ZM196.096 299.544H196.976V302.904H196.096V299.544ZM196.56 299.544H200.416V302.28H196.56V301.528H199.504V300.312H196.56V299.544ZM201.488 295.528H202.608V302.584C202.608 303.176 202.496 303.48 202.096 303.656C201.664 303.832 201.008 303.848 200.048 303.848C200 303.544 199.84 303.112 199.696 302.808C200.416 302.84 201.024 302.84 201.248 302.84C201.44 302.824 201.488 302.76 201.488 302.568V295.528ZM199.904 293.688L201.024 293.992C200.672 294.68 200.288 295.384 199.952 295.896L198.992 295.608C199.312 295.08 199.696 294.248 199.904 293.688ZM195.184 294.024L196.176 293.768C196.512 294.264 196.816 294.936 196.896 295.384L195.856 295.672C195.776 295.224 195.488 294.536 195.184 294.024ZM196.768 291.848L197.712 291.464C198.176 292.024 198.64 292.776 198.848 293.304L197.84 293.752C197.648 293.224 197.184 292.44 196.768 291.848ZM189.328 292.12L190.224 291.592C190.96 292.36 191.84 293.384 192.288 294.04L191.36 294.696C190.928 294.024 190.032 292.904 189.328 292.12ZM188.752 295.256H192.256V296.264H188.752V295.256ZM191.6 302.6C192.592 304.696 194.672 304.984 197.856 304.984C199.536 304.984 201.888 304.904 203.52 304.776C203.344 305.032 203.184 305.592 203.12 305.928C201.616 306.008 199.6 306.056 197.84 306.056C194.096 306.056 192 305.608 190.8 302.968L191.6 302.6ZM191.824 299.256H192.096L192.304 299.224L192.912 299.448C192.352 302.872 191.024 305.128 189.232 306.328C189.072 306.072 188.672 305.672 188.448 305.496C190.144 304.424 191.376 302.392 191.824 299.464V299.256ZM188.976 300.456V299.544L189.552 299.256H192.224L192.208 300.232H189.92C189.504 300.232 189.088 300.328 188.976 300.456ZM188.976 300.456C188.896 300.184 188.656 299.624 188.528 299.368C188.768 299.304 189.024 299.208 189.296 298.888C189.808 298.392 191.376 296.232 191.92 295.384V295.336L192.288 295.176L193.088 295.56C192.304 296.648 190.816 298.68 189.872 299.704C189.872 299.704 188.976 300.152 188.976 300.456ZM212 297.048H218.256V297.752H212V297.048ZM212 298.648H218.304V299.352H212V298.648ZM211.664 300.28H218.96V301.096H211.664V300.28ZM209.696 293.944L210.704 294.248C209.872 295.912 208.64 297.56 207.44 298.632C207.28 298.456 206.88 298.04 206.64 297.864C207.824 296.904 208.992 295.432 209.696 293.944ZM212.256 293.912L213.264 294.2C212.576 295.736 211.52 297.304 210.512 298.312C210.336 298.136 209.92 297.8 209.664 297.64C210.704 296.696 211.664 295.304 212.256 293.912ZM214.896 295.752H215.92V300.6H214.896V295.752ZM210.56 302.52H211.664V304.76C211.664 305.112 211.792 305.176 212.464 305.176C212.784 305.176 214.416 305.176 214.832 305.176C215.376 305.176 215.472 305.016 215.52 303.784C215.76 303.96 216.224 304.12 216.512 304.2C216.4 305.784 216.064 306.168 214.944 306.168C214.64 306.168 212.656 306.168 212.352 306.168C210.912 306.168 210.56 305.88 210.56 304.76V302.52ZM211.952 302.04L212.672 301.352C213.6 301.784 214.752 302.44 215.344 302.952L214.608 303.704C214.032 303.192 212.912 302.472 211.952 302.04ZM216 302.744L216.896 302.296C217.824 303.208 218.832 304.472 219.232 305.352L218.272 305.864C217.888 304.984 216.928 303.672 216 302.744ZM208.64 302.472L209.616 302.824C209.232 303.928 208.656 305.16 207.712 305.912L206.784 305.32C207.664 304.648 208.304 303.496 208.64 302.472ZM212.32 295.4H218.704V296.184H211.744L212.32 295.4ZM211.392 296.328L212.416 295.464V301.576H211.392V296.328ZM206.384 292.808H219.232V293.832H206.384V292.808ZM205.728 292.808H206.848V297.64C206.848 300.136 206.656 303.816 205.392 306.296C205.2 306.088 204.72 305.72 204.464 305.608C205.632 303.272 205.728 299.992 205.728 297.64V292.808ZM208.64 296.568L209.664 295.544L209.68 295.56V301.576H208.64V296.568ZM211.424 291.608L212.448 291.256C212.912 291.848 213.392 292.632 213.6 293.176L212.512 293.592C212.32 293.032 211.872 292.2 211.424 291.608ZM214.24 294.232L215.088 293.848C215.488 294.264 215.904 294.824 216.112 295.208L215.2 295.656C215.024 295.24 214.624 294.648 214.24 294.232ZM221.312 295.064H233.728V296.28H221.312V295.064ZM233.264 295.064H234.512C234.512 295.064 234.496 295.512 234.48 295.704C234.112 302.328 233.776 304.712 233.072 305.512C232.688 305.976 232.304 306.104 231.696 306.152C231.136 306.216 230.112 306.184 229.12 306.12C229.104 305.768 228.944 305.24 228.72 304.888C229.808 304.984 230.832 305 231.232 305C231.584 305 231.776 304.952 231.984 304.76C232.592 304.168 232.944 301.672 233.264 295.32V295.064ZM226.544 291.592H227.808V294.376C227.808 298.024 227.36 302.968 221.76 306.344C221.584 306.056 221.136 305.608 220.848 305.4C226.16 302.232 226.544 297.688 226.544 294.376V291.592ZM241.456 299.336H246.928V304.024H241.456V303.016H245.808V300.344H241.456V299.336ZM240.928 299.336H242.048V304.984H240.928V299.336ZM238.032 294.568H242.48V295.464H238.032V294.568ZM245.408 294.568H249.936V295.464H245.408V294.568ZM249.408 292.248H250.608V304.68C250.608 305.48 250.416 305.864 249.904 306.072C249.36 306.264 248.432 306.28 247.024 306.28C246.976 305.944 246.768 305.384 246.592 305.048C247.648 305.096 248.704 305.08 249.008 305.064C249.312 305.064 249.408 304.968 249.408 304.664V292.248ZM238.128 292.248H243.248V297.896H238.128V296.92H242.112V293.224H238.128V292.248ZM250.032 292.248V293.208H245.84V296.936H250.032V297.896H244.688V292.248H250.032ZM237.456 292.248H238.64V306.296H237.456V292.248ZM256.816 299.816H262.528V300.872H256.816V299.816ZM256.08 299.816H257.248V304.296C257.248 304.872 257.472 305 258.736 305C259.344 305 262.352 305 263.136 305C264.176 305 264.336 304.728 264.464 303C264.736 303.208 265.248 303.384 265.568 303.448C265.376 305.544 264.976 306.088 263.184 306.088C262.704 306.088 259.184 306.088 258.736 306.088C256.688 306.088 256.08 305.752 256.08 304.296V299.816ZM262.144 299.816H263.328C263.328 299.816 263.328 300.12 263.312 300.296C263.184 302.088 263.024 302.856 262.704 303.192C262.448 303.432 262.144 303.528 261.712 303.544C261.296 303.576 260.48 303.576 259.6 303.512C259.584 303.224 259.472 302.824 259.312 302.568C260.112 302.632 260.912 302.648 261.184 302.648C261.456 302.648 261.6 302.616 261.712 302.536C261.92 302.328 262.032 301.656 262.144 299.976V299.816ZM252.992 297.096H267.056V298.184H252.992V297.096ZM253.984 294.296H265.952V295.352H253.984V294.296ZM262.368 297.192C263.36 298.872 265.392 300.28 267.584 300.904C267.312 301.128 266.96 301.592 266.784 301.896C264.528 301.128 262.464 299.512 261.328 297.56L262.368 297.192ZM259.712 291.512L260.944 291.656C260.304 295.56 258.08 299.656 253.28 301.864C253.152 301.56 252.8 301.112 252.528 300.888C257.152 298.872 259.232 295.032 259.712 291.512ZM255.344 292.424L256.272 291.928C256.816 292.52 257.44 293.336 257.696 293.88L256.72 294.44C256.464 293.896 255.888 293.048 255.344 292.424ZM263.712 291.976L264.816 292.344C264.24 293.224 263.552 294.2 262.976 294.84L262.064 294.504C262.624 293.832 263.328 292.728 263.712 291.976ZM268.912 294.664H273.28V295.768H268.912V294.664ZM270.832 291.56H271.808V306.264H270.832V291.56ZM270.736 295.32L271.376 295.592C270.976 298.12 270.096 301.24 269.152 302.84C269.04 302.488 268.784 301.96 268.608 301.656C269.488 300.248 270.368 297.544 270.736 295.32ZM271.712 296.68C272.032 297.112 273.2 299.032 273.472 299.496L272.88 300.392C272.576 299.624 271.616 297.8 271.248 297.176L271.712 296.68ZM275.728 295.176H280.528V296.152H275.728V295.176ZM274.992 298.2V300.312H276.704V298.2H274.992ZM274.064 297.32H277.664V301.192H274.064V297.32ZM279.584 298.2V300.312H281.376V298.2H279.584ZM278.64 297.32H282.336V301.192H278.64V297.32ZM275.424 301.544L276.512 301.768C275.904 303.752 274.672 305.32 273.184 306.328C273.008 306.12 272.608 305.736 272.352 305.544C273.824 304.68 274.912 303.288 275.424 301.544ZM275.248 303.544L275.856 302.84C276.56 303.272 277.44 303.912 277.856 304.36L277.216 305.16C276.8 304.696 275.952 304.008 275.248 303.544ZM279.904 301.528L281.008 301.688C280.576 303.72 279.6 305.272 278.208 306.28C278.048 306.088 277.632 305.688 277.392 305.496C278.688 304.648 279.552 303.272 279.904 301.528ZM279.568 303.608L280.256 302.872C281.328 303.544 282.72 304.552 283.376 305.224L282.64 306.056C281.984 305.368 280.64 304.312 279.568 303.608ZM277.776 291.448L278.944 291.832C277.84 293.608 276.016 295.224 274.016 296.328C273.84 296.104 273.456 295.72 273.2 295.528C275.136 294.52 276.88 292.952 277.776 291.448ZM278.192 291.976C279.312 293.192 281.616 294.488 283.456 295.144C283.248 295.432 283.008 295.928 282.912 296.232C280.976 295.384 278.624 293.912 277.344 292.536L278.192 291.976ZM290.032 296.312V298.312H292.576V296.312H290.032ZM290.032 299.304V301.304H292.576V299.304H290.032ZM290.032 293.352V295.32H292.576V293.352H290.032ZM288.992 292.28H293.664V302.376H288.992V292.28ZM291.824 303.16L292.736 302.648C293.392 303.416 294.208 304.472 294.576 305.128L293.616 305.72C293.264 305.048 292.48 303.944 291.824 303.16ZM289.664 302.712L290.768 303C290.224 304.248 289.312 305.528 288.464 306.344C288.24 306.152 287.776 305.832 287.504 305.672C288.352 304.92 289.184 303.8 289.664 302.712ZM297.648 291.576H298.768V304.776C298.768 305.528 298.576 305.864 298.128 306.056C297.664 306.264 296.912 306.28 295.6 306.28C295.536 305.976 295.392 305.464 295.232 305.144C296.176 305.176 297.024 305.16 297.28 305.144C297.552 305.144 297.648 305.064 297.648 304.792V291.576ZM294.864 293.224H295.92V302.376H294.864V293.224ZM285.296 292.6L285.984 291.736C286.88 292.152 287.984 292.84 288.528 293.352L287.808 294.328C287.296 293.784 286.192 293.048 285.296 292.6ZM284.592 296.904L285.264 296.024C286.208 296.392 287.36 297.016 287.92 297.512L287.232 298.488C286.672 297.992 285.536 297.32 284.592 296.904ZM284.928 305.448C285.584 304.216 286.496 302.12 287.152 300.328L288.112 300.968C287.504 302.632 286.704 304.6 286 306.088L284.928 305.448Z" fill="#4F4F4F"/>
</g>
<defs>
<filter id="filter0_f_1766_39160" x="88" y="72" width="888" height="408" filterUnits="userSpaceOnUse" color-interpolation-filters="sRGB">
<feFlood flood-opacity="0" result="BackgroundImageFix"/>
<feBlend mode="normal" in="SourceGraphic" in2="BackgroundImageFix" result="shape"/>
<feGaussianBlur stdDeviation="50" result="effect1_foregroundBlur_1766_39160"/>
</filter>
<filter id="filter1_d_1766_39160" x="556" y="34" width="160.001" height="278.123" filterUnits="userSpaceOnUse" color-interpolation-filters="sRGB">
<feFlood flood-opacity="0" result="BackgroundImageFix"/>
<feColorMatrix in="SourceAlpha" type="matrix" values="0 0 0 0 0 0 0 0 0 0 0 0 0 0 0 0 0 0 127 0" result="hardAlpha"/>
<feOffset dy="8"/>
<feGaussianBlur stdDeviation="10"/>
<feComposite in2="hardAlpha" operator="out"/>
<feColorMatrix type="matrix" values="0 0 0 0 0 0 0 0 0 0.529412 0 0 0 0 0.690196 0 0 0 0.15 0"/>
<feBlend mode="normal" in2="BackgroundImageFix" result="effect1_dropShadow_1766_39160"/>
<feBlend mode="normal" in="SourceGraphic" in2="effect1_dropShadow_1766_39160" result="shape"/>
</filter>
<filter id="filter2_d_1766_39160" x="456" y="141" width="160.001" height="219.123" filterUnits="userSpaceOnUse" color-interpolation-filters="sRGB">
<feFlood flood-opacity="0" result="BackgroundImageFix"/>
<feColorMatrix in="SourceAlpha" type="matrix" values="0 0 0 0 0 0 0 0 0 0 0 0 0 0 0 0 0 0 127 0" result="hardAlpha"/>
<feOffset dy="8"/>
<feGaussianBlur stdDeviation="10"/>
<feComposite in2="hardAlpha" operator="out"/>
<feColorMatrix type="matrix" values="0 0 0 0 0 0 0 0 0 0.529412 0 0 0 0 0.690196 0 0 0 0.15 0"/>
<feBlend mode="normal" in2="BackgroundImageFix" result="effect1_dropShadow_1766_39160"/>
<feBlend mode="normal" in="SourceGraphic" in2="effect1_dropShadow_1766_39160" result="shape"/>
</filter>
<filter id="filter3_d_1766_39160" x="356" y="248" width="160.001" height="160" filterUnits="userSpaceOnUse" color-interpolation-filters="sRGB">
<feFlood flood-opacity="0" result="BackgroundImageFix"/>
<feColorMatrix in="SourceAlpha" type="matrix" values="0 0 0 0 0 0 0 0 0 0 0 0 0 0 0 0 0 0 127 0" result="hardAlpha"/>
<feOffset dy="8"/>
<feGaussianBlur stdDeviation="10"/>
<feComposite in2="hardAlpha" operator="out"/>
<feColorMatrix type="matrix" values="0 0 0 0 0 0 0 0 0 0.529412 0 0 0 0 0.690196 0 0 0 0.15 0"/>
<feBlend mode="normal" in2="BackgroundImageFix" result="effect1_dropShadow_1766_39160"/>
<feBlend mode="normal" in="SourceGraphic" in2="effect1_dropShadow_1766_39160" result="shape"/>
</filter>
<filter id="filter4_d_1766_39160" x="200" y="0" width="380" height="146" filterUnits="userSpaceOnUse" color-interpolation-filters="sRGB">
<feFlood flood-opacity="0" result="BackgroundImageFix"/>
<feColorMatrix in="SourceAlpha" type="matrix" values="0 0 0 0 0 0 0 0 0 0 0 0 0 0 0 0 0 0 127 0" result="hardAlpha"/>
<feOffset dy="8"/>
<feGaussianBlur stdDeviation="10"/>
<feComposite in2="hardAlpha" operator="out"/>
<feColorMatrix type="matrix" values="0 0 0 0 0 0 0 0 0 0.529412 0 0 0 0 0.690196 0 0 0 0.15 0"/>
<feBlend mode="normal" in2="BackgroundImageFix" result="effect1_dropShadow_1766_39160"/>
<feBlend mode="normal" in="SourceGraphic" in2="effect1_dropShadow_1766_39160" result="shape"/>
</filter>
<filter id="filter5_d_1766_39160" x="571" y="119" width="380" height="146" filterUnits="userSpaceOnUse" color-interpolation-filters="sRGB">
<feFlood flood-opacity="0" result="BackgroundImageFix"/>
<feColorMatrix in="SourceAlpha" type="matrix" values="0 0 0 0 0 0 0 0 0 0 0 0 0 0 0 0 0 0 127 0" result="hardAlpha"/>
<feOffset dy="8"/>
<feGaussianBlur stdDeviation="10"/>
<feComposite in2="hardAlpha" operator="out"/>
<feColorMatrix type="matrix" values="0 0 0 0 0 0 0 0 0 0.529412 0 0 0 0 0.690196 0 0 0 0.15 0"/>
<feBlend mode="normal" in2="BackgroundImageFix" result="effect1_dropShadow_1766_39160"/>
<feBlend mode="normal" in="SourceGraphic" in2="effect1_dropShadow_1766_39160" result="shape"/>
</filter>
<filter id="filter6_d_1766_39160" x="0" y="214" width="380" height="146" filterUnits="userSpaceOnUse" color-interpolation-filters="sRGB">
<feFlood flood-opacity="0" result="BackgroundImageFix"/>
<feColorMatrix in="SourceAlpha" type="matrix" values="0 0 0 0 0 0 0 0 0 0 0 0 0 0 0 0 0 0 127 0" result="hardAlpha"/>
<feOffset dy="8"/>
<feGaussianBlur stdDeviation="10"/>
<feComposite in2="hardAlpha" operator="out"/>
<feColorMatrix type="matrix" values="0 0 0 0 0 0 0 0 0 0.529412 0 0 0 0 0.690196 0 0 0 0.15 0"/>
<feBlend mode="normal" in2="BackgroundImageFix" result="effect1_dropShadow_1766_39160"/>
<feBlend mode="normal" in="SourceGraphic" in2="effect1_dropShadow_1766_39160" result="shape"/>
</filter>
<linearGradient id="paint0_linear_1766_39160" x1="613.281" y1="172" x2="613.281" y2="380" gradientUnits="userSpaceOnUse">
<stop stop-color="white"/>
<stop offset="0.736534" stop-color="#00AED4"/>
<stop offset="1" stop-color="white"/>
</linearGradient>
<linearGradient id="paint1_linear_1766_39160" x1="666.176" y1="76.877" x2="666.176" y2="284.123" gradientUnits="userSpaceOnUse">
<stop stop-color="#3A67A7"/>
<stop offset="1" stop-color="#4985C6"/>
</linearGradient>
<linearGradient id="paint2_linear_1766_39160" x1="606.176" y1="76.877" x2="606.176" y2="284.123" gradientUnits="userSpaceOnUse">
<stop stop-color="#859FD1"/>
<stop offset="1" stop-color="#4985C6"/>
</linearGradient>
<linearGradient id="paint3_linear_1766_39160" x1="636" y1="46" x2="636" y2="106.351" gradientUnits="userSpaceOnUse">
<stop stop-color="#859FD1"/>
<stop offset="1" stop-color="#4985C6"/>
</linearGradient>
<linearGradient id="paint4_linear_1766_39160" x1="566.176" y1="183.877" x2="566.176" y2="332.123" gradientUnits="userSpaceOnUse">
<stop stop-color="#00811F"/>
<stop offset="1" stop-color="#1DA637"/>
</linearGradient>
<linearGradient id="paint5_linear_1766_39160" x1="506.176" y1="183.877" x2="506.176" y2="332.123" gradientUnits="userSpaceOnUse">
<stop stop-color="#1DA637"/>
<stop offset="1" stop-color="#6CCC74"/>
</linearGradient>
<linearGradient id="paint6_linear_1766_39160" x1="536" y1="153" x2="536" y2="213.351" gradientUnits="userSpaceOnUse">
<stop stop-color="#6CCC74"/>
<stop offset="1" stop-color="#1DA637"/>
</linearGradient>
<linearGradient id="paint7_linear_1766_39160" x1="466.176" y1="290.877" x2="466.176" y2="380" gradientUnits="userSpaceOnUse">
<stop stop-color="#0087B0"/>
<stop offset="1" stop-color="#00AED4"/>
</linearGradient>
<linearGradient id="paint8_linear_1766_39160" x1="406.176" y1="290.877" x2="406.176" y2="380" gradientUnits="userSpaceOnUse">
<stop stop-color="#00AED4"/>
<stop offset="1" stop-color="#6FC7E2"/>
</linearGradient>
<linearGradient id="paint9_linear_1766_39160" x1="436" y1="260" x2="436" y2="320.351" gradientUnits="userSpaceOnUse">
<stop stop-color="#6FC7E2"/>
<stop offset="1" stop-color="#00AED4"/>
</linearGradient>
<clipPath id="clip0_1766_39160">
<rect width="1072" height="408" fill="white"/>
</clipPath>
</defs>
</svg>
