<svg width="1200" height="371" viewBox="0 0 1200 371" fill="none" xmlns="http://www.w3.org/2000/svg">
<path d="M1200 0H0V323H1200V0Z" fill="white"/>
<mask id="mask0_2003_64463" style="mask-type:luminance" maskUnits="userSpaceOnUse" x="0" y="287" width="150" height="36">
<path d="M0 287H150V323H0V287Z" fill="white"/>
</mask>
<g mask="url(#mask0_2003_64463)">
<path d="M0 288H150V286H0V288Z" fill="#D1D1D1"/>
</g>
<path d="M57.955 312V311.152C61.635 307.936 63.315 305.584 63.315 303.584C63.315 302.24 62.627 301.248 61.171 301.248C60.211 301.248 59.379 301.84 58.723 302.608L57.875 301.792C58.835 300.752 59.859 300.064 61.347 300.064C63.443 300.064 64.755 301.424 64.755 303.52C64.755 305.872 62.915 308.256 60.147 310.864C60.771 310.8 61.475 310.752 62.067 310.752H65.315V312H57.955ZM70.574 312.224C68.334 312.224 66.91 310.192 66.91 306.096C66.91 302.032 68.334 300.064 70.574 300.064C72.782 300.064 74.206 302.032 74.206 306.096C74.206 310.192 72.782 312.224 70.574 312.224ZM70.574 311.04C71.902 311.04 72.798 309.552 72.798 306.096C72.798 302.688 71.902 301.232 70.574 301.232C69.23 301.232 68.318 302.688 68.318 306.096C68.318 309.552 69.23 311.04 70.574 311.04ZM76.409 312V310.784H79.017V302.048H76.921V301.104C77.977 300.928 78.729 300.656 79.353 300.272H80.473V310.784H82.841V312H76.409ZM88.692 312.224C86.436 312.224 84.756 310.288 84.756 306.416C84.756 301.824 86.82 300.064 89.092 300.064C90.308 300.064 91.204 300.576 91.844 301.264L91.028 302.16C90.58 301.616 89.86 301.28 89.156 301.28C87.508 301.28 86.132 302.576 86.132 306.416C86.132 309.424 87.044 311.072 88.692 311.072C89.812 311.072 90.676 310 90.676 308.416C90.676 306.816 89.972 305.808 88.564 305.808C87.812 305.808 86.868 306.256 86.084 307.424L86.036 306.256C86.756 305.312 87.844 304.736 88.788 304.736C90.772 304.736 92.052 305.952 92.052 308.416C92.052 310.688 90.5 312.224 88.692 312.224Z" fill="#6D6D6D"/>
<mask id="mask1_2003_64463" style="mask-type:luminance" maskUnits="userSpaceOnUse" x="150" y="287" width="150" height="36">
<path d="M150 287H300V323H150V287Z" fill="white"/>
</mask>
<g mask="url(#mask1_2003_64463)">
<path d="M150 288H300V286H150V288Z" fill="#D1D1D1"/>
</g>
<path d="M207.955 312V311.152C211.635 307.936 213.315 305.584 213.315 303.584C213.315 302.24 212.627 301.248 211.171 301.248C210.211 301.248 209.379 301.84 208.723 302.608L207.875 301.792C208.835 300.752 209.859 300.064 211.347 300.064C213.443 300.064 214.755 301.424 214.755 303.52C214.755 305.872 212.915 308.256 210.147 310.864C210.771 310.8 211.475 310.752 212.067 310.752H215.315V312H207.955ZM220.574 312.224C218.334 312.224 216.91 310.192 216.91 306.096C216.91 302.032 218.334 300.064 220.574 300.064C222.782 300.064 224.206 302.032 224.206 306.096C224.206 310.192 222.782 312.224 220.574 312.224ZM220.574 311.04C221.902 311.04 222.798 309.552 222.798 306.096C222.798 302.688 221.902 301.232 220.574 301.232C219.23 301.232 218.318 302.688 218.318 306.096C218.318 309.552 219.23 311.04 220.574 311.04ZM226.409 312V310.784H229.017V302.048H226.921V301.104C227.977 300.928 228.729 300.656 229.353 300.272H230.473V310.784H232.841V312H226.409ZM237.028 312C237.236 307.568 238.036 304.72 240.34 301.52H234.66V300.272H241.988V301.152C239.236 304.688 238.74 307.424 238.548 312H237.028Z" fill="#6D6D6D"/>
<mask id="mask2_2003_64463" style="mask-type:luminance" maskUnits="userSpaceOnUse" x="300" y="287" width="150" height="36">
<path d="M300 287H450V323H300V287Z" fill="white"/>
</mask>
<g mask="url(#mask2_2003_64463)">
<path d="M300 288H450V286H300V288Z" fill="#D1D1D1"/>
</g>
<path d="M357.955 312V311.152C361.635 307.936 363.315 305.584 363.315 303.584C363.315 302.24 362.627 301.248 361.171 301.248C360.211 301.248 359.379 301.84 358.723 302.608L357.875 301.792C358.835 300.752 359.859 300.064 361.347 300.064C363.443 300.064 364.755 301.424 364.755 303.52C364.755 305.872 362.915 308.256 360.147 310.864C360.771 310.8 361.475 310.752 362.067 310.752H365.315V312H357.955ZM370.574 312.224C368.334 312.224 366.91 310.192 366.91 306.096C366.91 302.032 368.334 300.064 370.574 300.064C372.782 300.064 374.206 302.032 374.206 306.096C374.206 310.192 372.782 312.224 370.574 312.224ZM370.574 311.04C371.902 311.04 372.798 309.552 372.798 306.096C372.798 302.688 371.902 301.232 370.574 301.232C369.23 301.232 368.318 302.688 368.318 306.096C368.318 309.552 369.23 311.04 370.574 311.04ZM376.409 312V310.784H379.017V302.048H376.921V301.104C377.977 300.928 378.729 300.656 379.353 300.272H380.473V310.784H382.841V312H376.409ZM388.34 312.224C386.18 312.224 384.596 310.912 384.596 309.104C384.596 307.52 385.684 306.432 386.756 305.856V305.792C385.892 305.2 385.156 304.304 385.156 303.072C385.156 301.296 386.548 300.112 388.388 300.112C390.388 300.112 391.604 301.392 391.604 303.184C391.604 304.432 390.74 305.472 390.036 306.016V306.096C391.06 306.688 392.02 307.584 392.02 309.184C392.02 310.896 390.532 312.224 388.34 312.224ZM389.14 305.648C389.94 304.944 390.356 304.144 390.356 303.264C390.356 302.112 389.62 301.184 388.356 301.184C387.284 301.184 386.5 301.952 386.5 303.072C386.5 304.48 387.764 305.104 389.14 305.648ZM388.372 311.12C389.716 311.12 390.612 310.304 390.612 309.136C390.612 307.568 389.172 306.976 387.524 306.304C386.564 306.912 385.908 307.84 385.908 308.96C385.908 310.208 386.964 311.12 388.372 311.12Z" fill="#6D6D6D"/>
<mask id="mask3_2003_64463" style="mask-type:luminance" maskUnits="userSpaceOnUse" x="450" y="287" width="150" height="36">
<path d="M450 287H600V323H450V287Z" fill="white"/>
</mask>
<g mask="url(#mask3_2003_64463)">
<path d="M450 288H600V286H450V288Z" fill="#D1D1D1"/>
</g>
<path d="M507.955 312V311.152C511.635 307.936 513.315 305.584 513.315 303.584C513.315 302.24 512.627 301.248 511.171 301.248C510.211 301.248 509.379 301.84 508.723 302.608L507.875 301.792C508.835 300.752 509.859 300.064 511.347 300.064C513.443 300.064 514.755 301.424 514.755 303.52C514.755 305.872 512.915 308.256 510.147 310.864C510.771 310.8 511.475 310.752 512.067 310.752H515.315V312H507.955ZM520.574 312.224C518.334 312.224 516.91 310.192 516.91 306.096C516.91 302.032 518.334 300.064 520.574 300.064C522.782 300.064 524.206 302.032 524.206 306.096C524.206 310.192 522.782 312.224 520.574 312.224ZM520.574 311.04C521.902 311.04 522.798 309.552 522.798 306.096C522.798 302.688 521.902 301.232 520.574 301.232C519.23 301.232 518.318 302.688 518.318 306.096C518.318 309.552 519.23 311.04 520.574 311.04ZM526.409 312V310.784H529.017V302.048H526.921V301.104C527.977 300.928 528.729 300.656 529.353 300.272H530.473V310.784H532.841V312H526.409ZM537.62 312.224C536.34 312.224 535.444 311.712 534.788 311.024L535.604 310.096C536.1 310.672 536.82 311.008 537.572 311.008C539.14 311.008 540.5 309.648 540.5 305.632C540.5 302.752 539.588 301.2 537.94 301.2C536.82 301.2 535.956 302.256 535.956 303.872C535.956 305.44 536.66 306.48 538.052 306.48C538.836 306.48 539.748 306.016 540.516 304.848L540.596 306.016C539.86 306.944 538.82 307.552 537.812 307.552C535.844 307.552 534.58 306.304 534.58 303.872C534.58 301.6 536.116 300.064 537.94 300.064C540.196 300.064 541.876 301.904 541.876 305.632C541.876 310.4 539.828 312.224 537.62 312.224Z" fill="#6D6D6D"/>
<mask id="mask4_2003_64463" style="mask-type:luminance" maskUnits="userSpaceOnUse" x="600" y="287" width="150" height="36">
<path d="M600 287H750V323H600V287Z" fill="white"/>
</mask>
<g mask="url(#mask4_2003_64463)">
<path d="M600 288H750V286H600V288Z" fill="#D1D1D1"/>
</g>
<path d="M657.955 312V311.152C661.635 307.936 663.315 305.584 663.315 303.584C663.315 302.24 662.627 301.248 661.171 301.248C660.211 301.248 659.379 301.84 658.723 302.608L657.875 301.792C658.835 300.752 659.859 300.064 661.347 300.064C663.443 300.064 664.755 301.424 664.755 303.52C664.755 305.872 662.915 308.256 660.147 310.864C660.771 310.8 661.475 310.752 662.067 310.752H665.315V312H657.955ZM670.574 312.224C668.334 312.224 666.91 310.192 666.91 306.096C666.91 302.032 668.334 300.064 670.574 300.064C672.782 300.064 674.206 302.032 674.206 306.096C674.206 310.192 672.782 312.224 670.574 312.224ZM670.574 311.04C671.902 311.04 672.798 309.552 672.798 306.096C672.798 302.688 671.902 301.232 670.574 301.232C669.23 301.232 668.318 302.688 668.318 306.096C668.318 309.552 669.23 311.04 670.574 311.04ZM675.705 312V311.152C679.385 307.936 681.065 305.584 681.065 303.584C681.065 302.24 680.377 301.248 678.921 301.248C677.961 301.248 677.129 301.84 676.473 302.608L675.625 301.792C676.585 300.752 677.609 300.064 679.097 300.064C681.193 300.064 682.505 301.424 682.505 303.52C682.505 305.872 680.665 308.256 677.897 310.864C678.521 310.8 679.225 310.752 679.817 310.752H683.065V312H675.705ZM688.324 312.224C686.084 312.224 684.66 310.192 684.66 306.096C684.66 302.032 686.084 300.064 688.324 300.064C690.532 300.064 691.956 302.032 691.956 306.096C691.956 310.192 690.532 312.224 688.324 312.224ZM688.324 311.04C689.652 311.04 690.548 309.552 690.548 306.096C690.548 302.688 689.652 301.232 688.324 301.232C686.98 301.232 686.068 302.688 686.068 306.096C686.068 309.552 686.98 311.04 688.324 311.04Z" fill="#6D6D6D"/>
<mask id="mask5_2003_64463" style="mask-type:luminance" maskUnits="userSpaceOnUse" x="750" y="287" width="150" height="36">
<path d="M750 287H900V323H750V287Z" fill="white"/>
</mask>
<g mask="url(#mask5_2003_64463)">
<path d="M750 288H900V286H750V288Z" fill="#D1D1D1"/>
</g>
<path d="M807.955 312V311.152C811.635 307.936 813.315 305.584 813.315 303.584C813.315 302.24 812.627 301.248 811.171 301.248C810.211 301.248 809.379 301.84 808.723 302.608L807.875 301.792C808.835 300.752 809.859 300.064 811.347 300.064C813.443 300.064 814.755 301.424 814.755 303.52C814.755 305.872 812.915 308.256 810.147 310.864C810.771 310.8 811.475 310.752 812.067 310.752H815.315V312H807.955ZM820.574 312.224C818.334 312.224 816.91 310.192 816.91 306.096C816.91 302.032 818.334 300.064 820.574 300.064C822.782 300.064 824.206 302.032 824.206 306.096C824.206 310.192 822.782 312.224 820.574 312.224ZM820.574 311.04C821.902 311.04 822.798 309.552 822.798 306.096C822.798 302.688 821.902 301.232 820.574 301.232C819.23 301.232 818.318 302.688 818.318 306.096C818.318 309.552 819.23 311.04 820.574 311.04ZM825.705 312V311.152C829.385 307.936 831.065 305.584 831.065 303.584C831.065 302.24 830.377 301.248 828.921 301.248C827.961 301.248 827.129 301.84 826.473 302.608L825.625 301.792C826.585 300.752 827.609 300.064 829.097 300.064C831.193 300.064 832.505 301.424 832.505 303.52C832.505 305.872 830.665 308.256 827.897 310.864C828.521 310.8 829.225 310.752 829.817 310.752H833.065V312H825.705ZM835.284 312V310.784H837.892V302.048H835.796V301.104C836.852 300.928 837.604 300.656 838.228 300.272H839.348V310.784H841.716V312H835.284Z" fill="#6D6D6D"/>
<mask id="mask6_2003_64463" style="mask-type:luminance" maskUnits="userSpaceOnUse" x="900" y="287" width="150" height="36">
<path d="M900 287H1050V323H900V287Z" fill="white"/>
</mask>
<g mask="url(#mask6_2003_64463)">
<path d="M900 288H1050V286H900V288Z" fill="#D1D1D1"/>
</g>
<path d="M957.955 312V311.152C961.635 307.936 963.315 305.584 963.315 303.584C963.315 302.24 962.627 301.248 961.171 301.248C960.211 301.248 959.379 301.84 958.723 302.608L957.875 301.792C958.835 300.752 959.859 300.064 961.347 300.064C963.443 300.064 964.755 301.424 964.755 303.52C964.755 305.872 962.915 308.256 960.147 310.864C960.771 310.8 961.475 310.752 962.067 310.752H965.315V312H957.955ZM970.574 312.224C968.334 312.224 966.91 310.192 966.91 306.096C966.91 302.032 968.334 300.064 970.574 300.064C972.782 300.064 974.206 302.032 974.206 306.096C974.206 310.192 972.782 312.224 970.574 312.224ZM970.574 311.04C971.902 311.04 972.798 309.552 972.798 306.096C972.798 302.688 971.902 301.232 970.574 301.232C969.23 301.232 968.318 302.688 968.318 306.096C968.318 309.552 969.23 311.04 970.574 311.04ZM975.705 312V311.152C979.385 307.936 981.065 305.584 981.065 303.584C981.065 302.24 980.377 301.248 978.921 301.248C977.961 301.248 977.129 301.84 976.473 302.608L975.625 301.792C976.585 300.752 977.609 300.064 979.097 300.064C981.193 300.064 982.505 301.424 982.505 303.52C982.505 305.872 980.665 308.256 977.897 310.864C978.521 310.8 979.225 310.752 979.817 310.752H983.065V312H975.705ZM984.58 312V311.152C988.26 307.936 989.94 305.584 989.94 303.584C989.94 302.24 989.252 301.248 987.796 301.248C986.836 301.248 986.004 301.84 985.348 302.608L984.5 301.792C985.46 300.752 986.484 300.064 987.972 300.064C990.068 300.064 991.38 301.424 991.38 303.52C991.38 305.872 989.54 308.256 986.772 310.864C987.396 310.8 988.1 310.752 988.692 310.752H991.94V312H984.58Z" fill="#6D6D6D"/>
<mask id="mask7_2003_64463" style="mask-type:luminance" maskUnits="userSpaceOnUse" x="1050" y="287" width="150" height="36">
<path d="M1050 287H1200V323H1050V287Z" fill="white"/>
</mask>
<g mask="url(#mask7_2003_64463)">
<path d="M1050 288H1200V286H1050V288Z" fill="#D1D1D1"/>
</g>
<path d="M1107.95 312V311.152C1111.63 307.936 1113.31 305.584 1113.31 303.584C1113.31 302.24 1112.63 301.248 1111.17 301.248C1110.21 301.248 1109.38 301.84 1108.72 302.608L1107.87 301.792C1108.83 300.752 1109.86 300.064 1111.35 300.064C1113.44 300.064 1114.75 301.424 1114.75 303.52C1114.75 305.872 1112.91 308.256 1110.15 310.864C1110.77 310.8 1111.47 310.752 1112.07 310.752H1115.31V312H1107.95ZM1120.57 312.224C1118.33 312.224 1116.91 310.192 1116.91 306.096C1116.91 302.032 1118.33 300.064 1120.57 300.064C1122.78 300.064 1124.2 302.032 1124.2 306.096C1124.2 310.192 1122.78 312.224 1120.57 312.224ZM1120.57 311.04C1121.9 311.04 1122.8 309.552 1122.8 306.096C1122.8 302.688 1121.9 301.232 1120.57 301.232C1119.23 301.232 1118.32 302.688 1118.32 306.096C1118.32 309.552 1119.23 311.04 1120.57 311.04ZM1125.7 312V311.152C1129.38 307.936 1131.06 305.584 1131.06 303.584C1131.06 302.24 1130.38 301.248 1128.92 301.248C1127.96 301.248 1127.13 301.84 1126.47 302.608L1125.62 301.792C1126.58 300.752 1127.61 300.064 1129.1 300.064C1131.19 300.064 1132.5 301.424 1132.5 303.52C1132.5 305.872 1130.66 308.256 1127.9 310.864C1128.52 310.8 1129.22 310.752 1129.82 310.752H1133.06V312H1125.7ZM1138.08 312.224C1136.24 312.224 1135.11 311.456 1134.34 310.608L1135.08 309.648C1135.76 310.368 1136.64 311.008 1137.99 311.008C1139.38 311.008 1140.37 310.16 1140.37 308.816C1140.37 307.408 1139.43 306.48 1136.72 306.48V305.344C1139.14 305.344 1139.96 304.384 1139.96 303.104C1139.96 301.984 1139.2 301.248 1137.99 301.248C1137.04 301.248 1136.21 301.728 1135.56 302.4L1134.77 301.456C1135.65 300.656 1136.69 300.064 1138.04 300.064C1140 300.064 1141.44 301.136 1141.44 303.008C1141.44 304.432 1140.61 305.376 1139.36 305.824V305.888C1140.74 306.224 1141.86 307.264 1141.86 308.88C1141.86 310.96 1140.18 312.224 1138.08 312.224Z" fill="#6D6D6D"/>
<path opacity="0.1" d="M225.451 197.308L75 212.34V288H1125V65.0276L974.549 52L825.15 112.127L674.699 52L525.301 87.0743H381.162L225.451 197.308Z" fill="url(#paint0_linear_2003_64463)"/>
<path fill-rule="evenodd" clip-rule="evenodd" d="M674.779 50.9546L825.15 110.923L974.399 50.9832L1125.09 64.0037L1124.92 65.9963L974.702 53.0168L825.153 113.077L674.622 53.0454L525.418 88H375.829L225.824 197.968L75.1008 212.995L74.9023 211.005L225.082 196.032L375.174 86H525.187L674.779 50.9546Z" fill="#1DA637"/>
<path d="M75.3923 195.252C72.8723 195.252 70.8203 193.128 70.8203 188.628C70.8203 183.552 73.1963 181.518 75.8243 181.518C77.3003 181.518 78.3803 182.13 79.1363 182.94L78.0023 184.2C77.5163 183.624 76.7063 183.21 75.9323 183.21C74.1683 183.21 72.7463 184.578 72.7463 188.628C72.7463 192.048 73.7543 193.65 75.3743 193.65C76.5263 193.65 77.4263 192.606 77.4263 190.896C77.4263 189.186 76.6523 188.232 75.2483 188.232C74.4563 188.232 73.5023 188.7 72.7103 189.906L72.6203 188.394C73.3943 187.35 74.6183 186.738 75.6083 186.738C77.8403 186.738 79.3523 188.088 79.3523 190.896C79.3523 193.524 77.5343 195.252 75.3923 195.252Z" fill="#1DA637"/>
<mask id="mask8_2003_64463" style="mask-type:luminance" maskUnits="userSpaceOnUse" x="70" y="207" width="10" height="10">
<path d="M80 207H70V217H80V207Z" fill="white"/>
</mask>
<g mask="url(#mask8_2003_64463)">
<path d="M79.9063 212.093L74.9062 207.093L69.9063 212.093L74.9063 217.093L79.9063 212.093Z" fill="url(#paint1_linear_2003_64463)"/>
</g>
<path d="M223.324 180C223.558 175.176 224.404 172.08 226.978 168.516H220.75V166.752H229.264V168.012C226.168 171.9 225.682 174.834 225.448 180H223.324Z" fill="#1DA637"/>
<mask id="mask9_2003_64463" style="mask-type:luminance" maskUnits="userSpaceOnUse" x="220" y="192" width="10" height="10">
<path d="M230 192H220V202H230V192Z" fill="white"/>
</mask>
<g mask="url(#mask9_2003_64463)">
<path d="M229.906 197.093L224.906 192.093L219.906 197.093L224.906 202.093L229.906 197.093Z" fill="url(#paint2_linear_2003_64463)"/>
</g>
<path d="M366.266 70V68.29H369.182V59.074H366.788V57.76C368.048 57.544 368.912 57.22 369.686 56.752H371.252V68.29H373.844V70H366.266ZM379.826 70.252C377.738 70.252 376.424 69.406 375.47 68.47L376.478 67.12C377.216 67.876 378.188 68.542 379.574 68.542C381.068 68.542 382.184 67.48 382.184 65.716C382.184 63.97 381.176 62.962 379.664 62.962C378.836 62.962 378.332 63.196 377.558 63.7L376.532 63.052L376.928 56.752H383.66V58.516H378.746L378.44 61.9C378.998 61.612 379.538 61.45 380.258 61.45C382.472 61.45 384.29 62.746 384.29 65.662C384.29 68.578 382.13 70.252 379.826 70.252Z" fill="#1DA637"/>
<mask id="mask10_2003_64463" style="mask-type:luminance" maskUnits="userSpaceOnUse" x="370" y="82" width="10" height="10">
<path d="M380 82H370V92H380V82Z" fill="white"/>
</mask>
<g mask="url(#mask10_2003_64463)">
<path d="M379.906 87.0928L374.906 82.0928L369.906 87.0928L374.906 92.0928L379.906 87.0928Z" fill="url(#paint3_linear_2003_64463)"/>
</g>
<path d="M516.266 70V68.29H519.182V59.074H516.788V57.76C518.048 57.544 518.912 57.22 519.686 56.752H521.252V68.29H523.844V70H516.266ZM529.826 70.252C527.738 70.252 526.424 69.406 525.47 68.47L526.478 67.12C527.216 67.876 528.188 68.542 529.574 68.542C531.068 68.542 532.184 67.48 532.184 65.716C532.184 63.97 531.176 62.962 529.664 62.962C528.836 62.962 528.332 63.196 527.558 63.7L526.532 63.052L526.928 56.752H533.66V58.516H528.746L528.44 61.9C528.998 61.612 529.538 61.45 530.258 61.45C532.472 61.45 534.29 62.746 534.29 65.662C534.29 68.578 532.13 70.252 529.826 70.252Z" fill="#1DA637"/>
<mask id="mask11_2003_64463" style="mask-type:luminance" maskUnits="userSpaceOnUse" x="520" y="82" width="10" height="10">
<path d="M530 82H520V92H530V82Z" fill="white"/>
</mask>
<g mask="url(#mask11_2003_64463)">
<path d="M529.906 87.0928L524.906 82.0928L519.906 87.0928L524.906 92.0928L529.906 87.0928Z" fill="url(#paint4_linear_2003_64463)"/>
</g>
<path d="M666.266 35V33.29H669.182V24.074H666.788V22.76C668.048 22.544 668.912 22.22 669.686 21.752H671.252V33.29H673.844V35H666.266ZM678.458 35C678.692 30.176 679.538 27.08 682.112 23.516H675.884V21.752H684.398V23.012C681.302 26.9 680.816 29.834 680.582 35H678.458Z" fill="#1DA637"/>
<mask id="mask12_2003_64463" style="mask-type:luminance" maskUnits="userSpaceOnUse" x="670" y="47" width="10" height="10">
<path d="M680 47H670V57H680V47Z" fill="white"/>
</mask>
<g mask="url(#mask12_2003_64463)">
<path d="M679.906 52.0928L674.906 47.0928L669.906 52.0928L674.906 57.0928L679.906 52.0928Z" fill="url(#paint5_linear_2003_64463)"/>
</g>
<path d="M816.266 95.0001V93.2901H819.182V84.0741H816.788V82.7601C818.048 82.5441 818.912 82.2201 819.686 81.7521H821.252V93.2901H823.844V95.0001H816.266ZM829.808 95.2521C827.738 95.2521 826.388 94.4241 825.488 93.4161L826.514 92.0841C827.288 92.8761 828.26 93.5421 829.646 93.5421C831.122 93.5421 832.148 92.7141 832.148 91.3461C832.148 89.8701 831.212 88.9341 828.242 88.9341V87.3861C830.834 87.3861 831.698 86.4141 831.698 85.0821C831.698 83.9121 830.942 83.1741 829.664 83.1741C828.656 83.1741 827.792 83.6601 827.036 84.4161L825.938 83.1021C827 82.1661 828.224 81.5181 829.754 81.5181C832.13 81.5181 833.804 82.7421 833.804 84.9201C833.804 86.4501 832.922 87.5121 831.518 88.0341V88.1241C833.048 88.5201 834.254 89.6541 834.254 91.4541C834.254 93.8481 832.256 95.2521 829.808 95.2521Z" fill="#1DA637"/>
<mask id="mask13_2003_64463" style="mask-type:luminance" maskUnits="userSpaceOnUse" x="820" y="107" width="10" height="10">
<path d="M830 107H820V117H830V107Z" fill="white"/>
</mask>
<g mask="url(#mask13_2003_64463)">
<path d="M829.906 112.093L824.906 107.093L819.906 112.093L824.906 117.093L829.906 112.093Z" fill="url(#paint6_linear_2003_64463)"/>
</g>
<path d="M966.266 35V33.29H969.182V24.074H966.788V22.76C968.048 22.544 968.912 22.22 969.686 21.752H971.252V33.29H973.844V35H966.266ZM978.458 35C978.692 30.176 979.538 27.08 982.112 23.516H975.884V21.752H984.398V23.012C981.302 26.9 980.816 29.834 980.582 35H978.458Z" fill="#1DA637"/>
<mask id="mask14_2003_64463" style="mask-type:luminance" maskUnits="userSpaceOnUse" x="970" y="47" width="10" height="10">
<path d="M980 47H970V57H980V47Z" fill="white"/>
</mask>
<g mask="url(#mask14_2003_64463)">
<path d="M979.906 52.0928L974.906 47.0928L969.906 52.0928L974.906 57.0928L979.906 52.0928Z" fill="url(#paint7_linear_2003_64463)"/>
</g>
<path d="M1116.26 48.0001V46.2901H1119.18V37.0741H1116.79V35.7601C1118.05 35.5441 1118.91 35.2201 1119.68 34.7521H1121.25V46.2901H1123.84V48.0001H1116.26ZM1130.53 48.2521C1128.01 48.2521 1125.95 46.1281 1125.95 41.6281C1125.95 36.5521 1128.33 34.5181 1130.96 34.5181C1132.43 34.5181 1133.51 35.1301 1134.27 35.9401L1133.14 37.2001C1132.65 36.6241 1131.84 36.2101 1131.07 36.2101C1129.3 36.2101 1127.88 37.5781 1127.88 41.6281C1127.88 45.0481 1128.89 46.6501 1130.51 46.6501C1131.66 46.6501 1132.56 45.6061 1132.56 43.8961C1132.56 42.1861 1131.79 41.2321 1130.38 41.2321C1129.59 41.2321 1128.64 41.7001 1127.84 42.9061L1127.75 41.3941C1128.53 40.3501 1129.75 39.7381 1130.74 39.7381C1132.97 39.7381 1134.49 41.0881 1134.49 43.8961C1134.49 46.5241 1132.67 48.2521 1130.53 48.2521Z" fill="#1DA637"/>
<mask id="mask15_2003_64463" style="mask-type:luminance" maskUnits="userSpaceOnUse" x="1120" y="60" width="10" height="10">
<path d="M1130 60H1120V70H1130V60Z" fill="white"/>
</mask>
<g mask="url(#mask15_2003_64463)">
<path d="M1129.91 65.0928L1124.91 60.0928L1119.91 65.0928L1124.91 70.0928L1129.91 65.0928Z" fill="url(#paint8_linear_2003_64463)"/>
</g>
<path d="M47 259C47 256.239 49.2386 254 52 254H98C100.761 254 103 256.239 103 259V287H47V259Z" fill="url(#paint9_linear_2003_64463)"/>
<path d="M62.6719 275V273.48H65.2639V265.288H63.1359V264.12C64.2559 263.928 65.0239 263.64 65.7119 263.224H67.1039V273.48H69.4079V275H62.6719ZM71.1249 275V273.928C74.6129 270.856 76.3889 268.568 76.3889 266.632C76.3889 265.368 75.7169 264.488 74.4049 264.488C73.4769 264.488 72.7089 265.064 72.0849 265.784L71.0289 264.776C72.0529 263.672 73.0929 263.016 74.6289 263.016C76.7889 263.016 78.1809 264.408 78.1809 266.552C78.1809 268.808 76.3569 271.16 73.8609 273.56C74.4689 273.496 75.2209 273.432 75.7969 273.432H78.7409V275H71.1249ZM83.4499 275.224C82.0899 275.224 81.1139 274.664 80.4419 273.96L81.4339 272.824C81.9139 273.352 82.6339 273.704 83.3699 273.704C84.8579 273.704 86.1219 272.456 86.1219 268.712C86.1219 265.768 85.2099 264.424 83.7699 264.424C82.7459 264.424 81.9459 265.336 81.9459 266.888C81.9459 268.376 82.6339 269.24 83.8659 269.24C84.6019 269.24 85.4339 268.824 86.1219 267.752L86.2179 269.096C85.5299 270.008 84.4739 270.584 83.5299 270.584C81.5619 270.584 80.2339 269.352 80.2339 266.888C80.2339 264.536 81.8339 263.016 83.7539 263.016C86.0099 263.016 87.8339 264.824 87.8339 268.712C87.8339 273.352 85.7219 275.224 83.4499 275.224Z" fill="white"/>
<path d="M197 255C197 252.239 199.239 250 202 250H248C250.761 250 253 252.239 253 255V287H197V255Z" fill="url(#paint10_linear_2003_64463)"/>
<path d="M212.672 271V269.48H215.264V261.288H213.136V260.12C214.256 259.928 215.024 259.64 215.712 259.224H217.104V269.48H219.408V271H212.672ZM224.709 271.224C222.869 271.224 221.669 270.488 220.869 269.592L221.781 268.408C222.469 269.112 223.333 269.704 224.565 269.704C225.877 269.704 226.789 268.968 226.789 267.752C226.789 266.44 225.957 265.608 223.317 265.608V264.232C225.621 264.232 226.389 263.368 226.389 262.184C226.389 261.144 225.717 260.488 224.581 260.488C223.685 260.488 222.917 260.92 222.245 261.592L221.269 260.424C222.213 259.592 223.301 259.016 224.66 259.016C226.773 259.016 228.261 260.104 228.261 262.04C228.261 263.4 227.477 264.344 226.229 264.808V264.888C227.589 265.24 228.66 266.248 228.66 267.848C228.66 269.976 226.885 271.224 224.709 271.224ZM232.634 271C232.842 266.712 233.594 263.96 235.882 260.792H230.346V259.224H237.914V260.344C235.162 263.8 234.73 266.408 234.522 271H232.634Z" fill="white"/>
<path d="M347 185C347 182.239 349.239 180 352 180H398C400.761 180 403 182.239 403 185V287H347V185Z" fill="url(#paint11_linear_2003_64463)"/>
<path d="M366.721 201V193.32C366.721 192.696 366.769 191.688 366.817 191.048H366.737C366.449 191.64 366.129 192.264 365.793 192.872L363.489 196.408H369.953V197.848H361.633V196.6L366.305 189.224H368.449V201H366.721ZM371.798 201V199.48H374.39V191.288H372.262V190.12C373.382 189.928 374.15 189.64 374.838 189.224H376.23V199.48H378.534V201H371.798ZM380.923 201V199.48H383.515V191.288H381.387V190.12C382.507 189.928 383.275 189.64 383.963 189.224H385.355V199.48H387.659V201H380.923Z" fill="white"/>
<path d="M497 99C497 96.2386 499.239 94 502 94H548C550.761 94 553 96.2386 553 99V287H497V99Z" fill="url(#paint12_linear_2003_64463)"/>
<path d="M514.386 115C514.594 110.712 515.346 107.96 517.634 104.792H512.098V103.224H519.666V104.344C516.914 107.8 516.482 110.408 516.274 115H514.386ZM525.015 115.224C522.79 115.224 521.175 113.912 521.175 112.088C521.175 110.536 522.183 109.48 523.271 108.904V108.84C522.391 108.216 521.687 107.32 521.687 106.088C521.687 104.248 523.127 103.048 525.063 103.048C527.111 103.048 528.375 104.312 528.375 106.152C528.375 107.368 527.559 108.376 526.839 108.936V109.016C527.895 109.608 528.823 110.52 528.823 112.136C528.823 113.88 527.287 115.224 525.015 115.224ZM525.783 108.472C526.487 107.816 526.839 107.064 526.839 106.264C526.839 105.192 526.167 104.376 525.031 104.376C524.071 104.376 523.351 105.032 523.351 106.088C523.351 107.352 524.471 107.944 525.783 108.472ZM525.047 113.88C526.247 113.88 527.079 113.176 527.079 112.072C527.079 110.648 525.783 110.104 524.183 109.432C523.367 110.008 522.79 110.872 522.79 111.896C522.79 113.064 523.767 113.88 525.047 113.88ZM532.636 115C532.844 110.712 533.596 107.96 535.884 104.792H530.348V103.224H537.916V104.344C535.164 107.8 534.732 110.408 534.524 115H532.636Z" fill="white"/>
<path d="M647 176C647 173.239 649.239 171 652 171H698C700.761 171 703 173.239 703 176V287H647V176Z" fill="url(#paint13_linear_2003_64463)"/>
<path d="M666.721 192V184.32C666.721 183.696 666.769 182.688 666.817 182.048H666.737C666.449 182.64 666.129 183.264 665.793 183.872L663.489 187.408H669.953V188.848H661.633V187.6L666.305 180.224H668.449V192H666.721ZM675.014 192.224C672.789 192.224 671.174 190.912 671.174 189.088C671.174 187.536 672.182 186.48 673.27 185.904V185.84C672.39 185.216 671.686 184.32 671.686 183.088C671.686 181.248 673.126 180.048 675.062 180.048C677.11 180.048 678.374 181.312 678.374 183.152C678.374 184.368 677.558 185.376 676.838 185.936V186.016C677.894 186.608 678.822 187.52 678.822 189.136C678.822 190.88 677.286 192.224 675.014 192.224ZM675.782 185.472C676.486 184.816 676.838 184.064 676.838 183.264C676.838 182.192 676.166 181.376 675.03 181.376C674.07 181.376 673.35 182.032 673.35 183.088C673.35 184.352 674.47 184.944 675.782 185.472ZM675.046 190.88C676.246 190.88 677.078 190.176 677.078 189.072C677.078 187.648 675.782 187.104 674.182 186.432C673.366 187.008 672.789 187.872 672.789 188.896C672.789 190.064 673.766 190.88 675.046 190.88ZM683.835 192.224C681.995 192.224 680.795 191.488 679.995 190.592L680.907 189.408C681.595 190.112 682.459 190.704 683.691 190.704C685.003 190.704 685.915 189.968 685.915 188.752C685.915 187.44 685.083 186.608 682.443 186.608V185.232C684.747 185.232 685.515 184.368 685.515 183.184C685.515 182.144 684.843 181.488 683.707 181.488C682.811 181.488 682.043 181.92 681.371 182.592L680.395 181.424C681.339 180.592 682.427 180.016 683.786 180.016C685.899 180.016 687.387 181.104 687.387 183.04C687.387 184.4 686.603 185.344 685.355 185.808V185.888C686.715 186.24 687.786 187.248 687.786 188.848C687.786 190.976 686.011 192.224 683.835 192.224Z" fill="white"/>
<path d="M797 151C797 148.239 799.239 146 802 146H848C850.761 146 853 148.239 853 151V287H797V151Z" fill="url(#paint14_linear_2003_64463)"/>
<path d="M815.602 167.224C813.746 167.224 812.578 166.472 811.73 165.64L812.626 164.44C813.282 165.112 814.146 165.704 815.378 165.704C816.706 165.704 817.698 164.76 817.698 163.192C817.698 161.64 816.802 160.744 815.458 160.744C814.722 160.744 814.274 160.952 813.586 161.4L812.674 160.824L813.026 155.224H819.01V156.792H814.642L814.37 159.8C814.866 159.544 815.346 159.4 815.986 159.4C817.954 159.4 819.57 160.552 819.57 163.144C819.57 165.736 817.65 167.224 815.602 167.224ZM823.511 167C823.719 162.712 824.471 159.96 826.759 156.792H821.223V155.224H828.791V156.344C826.039 159.8 825.607 162.408 825.399 167H823.511ZM834.14 167.224C831.915 167.224 830.3 165.912 830.3 164.088C830.3 162.536 831.308 161.48 832.396 160.904V160.84C831.516 160.216 830.812 159.32 830.812 158.088C830.812 156.248 832.252 155.048 834.188 155.048C836.236 155.048 837.5 156.312 837.5 158.152C837.5 159.368 836.684 160.376 835.964 160.936V161.016C837.02 161.608 837.948 162.52 837.948 164.136C837.948 165.88 836.412 167.224 834.14 167.224ZM834.908 160.472C835.612 159.816 835.964 159.064 835.964 158.264C835.964 157.192 835.292 156.376 834.156 156.376C833.196 156.376 832.476 157.032 832.476 158.088C832.476 159.352 833.596 159.944 834.908 160.472ZM834.172 165.88C835.372 165.88 836.204 165.176 836.204 164.072C836.204 162.648 834.908 162.104 833.308 161.432C832.492 162.008 831.915 162.872 831.915 163.896C831.915 165.064 832.892 165.88 834.172 165.88Z" fill="white"/>
<path d="M947 114C947 111.239 949.239 109 952 109H998C1000.76 109 1003 111.239 1003 114V287H947V114Z" fill="url(#paint15_linear_2003_64463)"/>
<path d="M966.224 130.224C963.984 130.224 962.16 128.336 962.16 124.336C962.16 119.824 964.272 118.016 966.608 118.016C967.92 118.016 968.88 118.56 969.552 119.28L968.544 120.4C968.112 119.888 967.392 119.52 966.704 119.52C965.136 119.52 963.872 120.736 963.872 124.336C963.872 127.376 964.768 128.8 966.208 128.8C967.232 128.8 968.032 127.872 968.032 126.352C968.032 124.832 967.344 123.984 966.096 123.984C965.392 123.984 964.544 124.4 963.84 125.472L963.76 124.128C964.448 123.2 965.535 122.656 966.416 122.656C968.4 122.656 969.744 123.856 969.744 126.352C969.744 128.688 968.128 130.224 966.224 130.224ZM974.325 130.224C972.965 130.224 971.989 129.664 971.317 128.96L972.309 127.824C972.788 128.352 973.509 128.704 974.245 128.704C975.733 128.704 976.997 127.456 976.997 123.712C976.997 120.768 976.085 119.424 974.645 119.424C973.621 119.424 972.821 120.336 972.821 121.888C972.821 123.376 973.509 124.24 974.741 124.24C975.477 124.24 976.309 123.824 976.997 122.752L977.093 124.096C976.405 125.008 975.349 125.584 974.405 125.584C972.437 125.584 971.109 124.352 971.109 121.888C971.109 119.536 972.709 118.016 974.629 118.016C976.885 118.016 978.709 119.824 978.709 123.712C978.709 128.352 976.597 130.224 974.325 130.224ZM980.922 130V128.48H983.514V120.288H981.386V119.12C982.506 118.928 983.274 118.64 983.962 118.224H985.354V128.48H987.658V130H980.922Z" fill="white"/>
<path d="M1097 155C1097 152.239 1099.24 150 1102 150H1148C1150.76 150 1153 152.239 1153 155V287H1097V155Z" fill="url(#paint16_linear_2003_64463)"/>
<path d="M1115.6 171.224C1113.74 171.224 1112.58 170.472 1111.73 169.64L1112.62 168.44C1113.28 169.112 1114.14 169.704 1115.38 169.704C1116.7 169.704 1117.7 168.76 1117.7 167.192C1117.7 165.64 1116.8 164.744 1115.46 164.744C1114.72 164.744 1114.27 164.952 1113.58 165.4L1112.67 164.824L1113.02 159.224H1119.01V160.792H1114.64L1114.37 163.8C1114.86 163.544 1115.34 163.4 1115.98 163.4C1117.95 163.4 1119.57 164.552 1119.57 167.144C1119.57 169.736 1117.65 171.224 1115.6 171.224ZM1125.85 171V163.32C1125.85 162.696 1125.89 161.688 1125.94 161.048H1125.86C1125.57 161.64 1125.25 162.264 1124.92 162.872L1122.61 166.408H1129.08V167.848H1120.76V166.6L1125.43 159.224H1127.57V171H1125.85ZM1134.14 171.224C1131.91 171.224 1130.3 169.912 1130.3 168.088C1130.3 166.536 1131.31 165.48 1132.39 164.904V164.84C1131.51 164.216 1130.81 163.32 1130.81 162.088C1130.81 160.248 1132.25 159.048 1134.19 159.048C1136.23 159.048 1137.5 160.312 1137.5 162.152C1137.5 163.368 1136.68 164.376 1135.96 164.936V165.016C1137.02 165.608 1137.95 166.52 1137.95 168.136C1137.95 169.88 1136.41 171.224 1134.14 171.224ZM1134.91 164.472C1135.61 163.816 1135.96 163.064 1135.96 162.264C1135.96 161.192 1135.29 160.376 1134.15 160.376C1133.19 160.376 1132.47 161.032 1132.47 162.088C1132.47 163.352 1133.59 163.944 1134.91 164.472ZM1134.17 169.88C1135.37 169.88 1136.2 169.176 1136.2 168.072C1136.2 166.648 1134.91 166.104 1133.31 165.432C1132.49 166.008 1131.91 166.872 1131.91 167.896C1131.91 169.064 1132.89 169.88 1134.17 169.88Z" fill="white"/>
<path d="M416 354H396V360H416V354Z" fill="url(#paint17_linear_2003_64463)"/>
<path d="M425.602 364V352.272H427.122L431.394 359.664L432.658 362.096H432.738C432.642 360.912 432.53 359.584 432.53 358.368V352.272H433.954V364H432.418L428.162 356.608L426.898 354.192H426.818C426.898 355.376 427.01 356.608 427.01 357.856V364H425.602ZM439.564 364.224C437.741 364.224 436.909 363.04 436.909 360.816V355.312H438.365V360.64C438.365 362.256 438.861 362.944 440.013 362.944C440.893 362.944 441.533 362.512 442.349 361.488V355.312H443.805V364H442.605L442.477 362.64H442.445C441.629 363.584 440.765 364.224 439.564 364.224ZM446.755 364V355.312H447.939L448.083 356.576H448.131C448.883 355.76 449.795 355.104 450.835 355.104C452.163 355.104 452.883 355.728 453.219 356.752C454.131 355.792 455.043 355.104 456.099 355.104C457.875 355.104 458.739 356.288 458.739 358.496V364H457.283V358.688C457.283 357.056 456.771 356.368 455.651 356.368C454.979 356.368 454.291 356.816 453.475 357.696V364H452.019V358.688C452.019 357.056 451.507 356.368 450.387 356.368C449.731 356.368 448.995 356.816 448.211 357.696V364H446.755ZM465.376 364.224C464.576 364.224 463.664 363.808 462.912 363.104H462.864L462.72 364H461.568V351.28H463.024V354.752L462.96 356.32C463.76 355.632 464.72 355.104 465.696 355.104C467.936 355.104 469.152 356.848 469.152 359.52C469.152 362.496 467.376 364.224 465.376 364.224ZM465.152 362.992C466.576 362.992 467.648 361.696 467.648 359.552C467.648 357.616 466.992 356.32 465.344 356.32C464.608 356.32 463.84 356.736 463.024 357.52V362.096C463.776 362.752 464.576 362.992 465.152 362.992ZM474.962 364.224C472.642 364.224 470.802 362.528 470.802 359.68C470.802 356.848 472.706 355.104 474.706 355.104C476.914 355.104 478.162 356.688 478.162 359.184C478.162 359.488 478.146 359.792 478.098 360.016H472.242C472.354 361.856 473.474 363.056 475.138 363.056C475.97 363.056 476.658 362.784 477.298 362.352L477.826 363.328C477.058 363.824 476.146 364.224 474.962 364.224ZM472.226 358.96H476.882C476.882 357.216 476.098 356.272 474.722 356.272C473.506 356.272 472.418 357.248 472.226 358.96ZM480.318 364V355.312H481.502L481.646 356.896H481.694C482.286 355.792 483.182 355.104 484.158 355.104C484.542 355.104 484.798 355.152 485.086 355.28L484.814 356.56C484.51 356.464 484.318 356.416 483.966 356.416C483.246 356.416 482.35 356.944 481.774 358.432V364H480.318ZM493.475 364.224C491.331 364.224 489.443 362.544 489.443 359.68C489.443 356.768 491.331 355.104 493.475 355.104C495.603 355.104 497.491 356.768 497.491 359.68C497.491 362.544 495.603 364.224 493.475 364.224ZM493.475 363.008C494.979 363.008 495.987 361.664 495.987 359.68C495.987 357.664 494.979 356.32 493.475 356.32C491.955 356.32 490.947 357.664 490.947 359.68C490.947 361.664 491.955 363.008 493.475 363.008ZM499.948 364V353.92C499.948 352.176 500.764 351.056 502.492 351.056C503.02 351.056 503.532 351.184 503.932 351.344L503.628 352.464C503.292 352.32 502.956 352.24 502.636 352.24C501.804 352.24 501.404 352.816 501.404 353.952V364H499.948ZM498.764 356.496V355.408L500.028 355.312H503.26V356.496H498.764ZM508.505 367.664V355.312H509.689L509.833 356.32H509.881C510.665 355.664 511.625 355.104 512.633 355.104C514.889 355.104 516.089 356.848 516.089 359.536C516.089 362.496 514.313 364.224 512.313 364.224C511.529 364.224 510.713 363.856 509.929 363.216L509.961 364.736V367.664H508.505ZM512.089 362.992C513.513 362.992 514.585 361.696 514.585 359.552C514.585 357.616 513.929 356.32 512.281 356.32C511.545 356.32 510.809 356.736 509.961 357.52V362.096C510.745 362.752 511.513 362.992 512.089 362.992ZM520.13 364.224C518.674 364.224 517.586 363.312 517.586 361.744C517.586 359.856 519.218 358.912 522.914 358.496C522.914 357.376 522.562 356.304 521.138 356.304C520.114 356.304 519.202 356.784 518.53 357.248L517.954 356.224C518.754 355.712 519.97 355.104 521.362 355.104C523.49 355.104 524.386 356.512 524.386 358.672V364H523.186L523.058 362.976H522.994C522.178 363.664 521.202 364.224 520.13 364.224ZM520.53 363.04C521.378 363.04 522.082 362.64 522.914 361.888V359.472C519.986 359.808 519.01 360.528 519.01 361.648C519.01 362.64 519.682 363.04 520.53 363.04ZM527.146 364V355.312H528.33L528.474 356.896H528.522C529.114 355.792 530.01 355.104 530.986 355.104C531.37 355.104 531.626 355.152 531.914 355.28L531.642 356.56C531.338 356.464 531.146 356.416 530.794 356.416C530.074 356.416 529.178 356.944 528.602 358.432V364H527.146ZM536.069 364.224C534.213 364.224 533.605 363.056 533.605 361.328V356.496H532.309V355.408L533.669 355.312L533.829 352.864H535.061V355.312H537.413V356.496H535.061V361.36C535.061 362.416 535.397 363.04 536.405 363.04C536.709 363.04 537.109 362.912 537.381 362.8L537.669 363.888C537.189 364.064 536.613 364.224 536.069 364.224ZM539.38 364V355.312H540.836V364H539.38ZM540.116 353.52C539.54 353.52 539.14 353.152 539.14 352.544C539.14 351.984 539.54 351.616 540.116 351.616C540.676 351.616 541.092 351.984 541.092 352.544C541.092 353.152 540.676 353.52 540.116 353.52ZM547.195 364.224C544.891 364.224 543.131 362.544 543.131 359.68C543.131 356.768 545.083 355.104 547.307 355.104C548.443 355.104 549.243 355.568 549.851 356.128L549.115 357.088C548.603 356.624 548.059 356.32 547.387 356.32C545.787 356.32 544.635 357.664 544.635 359.68C544.635 361.664 545.739 363.008 547.339 363.008C548.123 363.008 548.843 362.624 549.387 362.144L550.011 363.12C549.243 363.808 548.235 364.224 547.195 364.224ZM551.943 364V355.312H553.399V364H551.943ZM552.679 353.52C552.103 353.52 551.703 353.152 551.703 352.544C551.703 351.984 552.103 351.616 552.679 351.616C553.239 351.616 553.655 351.984 553.655 352.544C553.655 353.152 553.239 353.52 552.679 353.52ZM556.349 367.664V355.312H557.533L557.677 356.32H557.725C558.509 355.664 559.469 355.104 560.477 355.104C562.733 355.104 563.933 356.848 563.933 359.536C563.933 362.496 562.157 364.224 560.157 364.224C559.373 364.224 558.557 363.856 557.773 363.216L557.805 364.736V367.664H556.349ZM559.933 362.992C561.357 362.992 562.429 361.696 562.429 359.552C562.429 357.616 561.773 356.32 560.125 356.32C559.389 356.32 558.653 356.736 557.805 357.52V362.096C558.589 362.752 559.357 362.992 559.933 362.992ZM567.974 364.224C566.518 364.224 565.43 363.312 565.43 361.744C565.43 359.856 567.062 358.912 570.758 358.496C570.758 357.376 570.406 356.304 568.982 356.304C567.958 356.304 567.046 356.784 566.374 357.248L565.798 356.224C566.598 355.712 567.814 355.104 569.206 355.104C571.334 355.104 572.23 356.512 572.23 358.672V364H571.03L570.902 362.976H570.838C570.022 363.664 569.046 364.224 567.974 364.224ZM568.374 363.04C569.222 363.04 569.926 362.64 570.758 361.888V359.472C567.83 359.808 566.854 360.528 566.854 361.648C566.854 362.64 567.526 363.04 568.374 363.04ZM574.99 364V355.312H576.174L576.318 356.576H576.366C577.182 355.76 578.078 355.104 579.278 355.104C581.102 355.104 581.934 356.288 581.934 358.496V364H580.462V358.688C580.462 357.056 579.966 356.368 578.814 356.368C577.934 356.368 577.31 356.832 576.446 357.696V364H574.99ZM587.475 364.224C585.619 364.224 585.011 363.056 585.011 361.328V356.496H583.715V355.408L585.075 355.312L585.235 352.864H586.467V355.312H588.819V356.496H586.467V361.36C586.467 362.416 586.803 363.04 587.811 363.04C588.115 363.04 588.515 362.912 588.787 362.8L589.075 363.888C588.595 364.064 588.019 364.224 587.475 364.224ZM592.84 364.224C591.608 364.224 590.408 363.696 589.592 363.024L590.312 362.048C591.064 362.656 591.832 363.088 592.872 363.088C594.024 363.088 594.6 362.48 594.6 361.712C594.6 360.832 593.56 360.432 592.6 360.08C591.4 359.616 590.072 359.04 590.072 357.552C590.072 356.176 591.176 355.104 593.064 355.104C594.136 355.104 595.096 355.536 595.768 356.08L595.064 357.008C594.472 356.576 593.848 356.24 593.08 356.24C591.976 356.24 591.48 356.816 591.48 357.488C591.48 358.32 592.36 358.64 593.352 358.992C594.616 359.472 595.992 359.984 595.992 361.632C595.992 363.056 594.888 364.224 592.84 364.224Z" fill="#4F4F4F"/>
<mask id="mask16_2003_64463" style="mask-type:luminance" maskUnits="userSpaceOnUse" x="657" y="352" width="10" height="10">
<path d="M667 352H657V362H667V352Z" fill="white"/>
</mask>
<g mask="url(#mask16_2003_64463)">
<path d="M666.906 357.093L661.906 352.093L656.906 357.093L661.906 362.093L666.906 357.093Z" fill="url(#paint18_linear_2003_64463)"/>
</g>
<path d="M676.602 364V352.272H678.122L682.394 359.664L683.658 362.096H683.738C683.642 360.912 683.53 359.584 683.53 358.368V352.272H684.954V364H683.418L679.162 356.608L677.898 354.192H677.818C677.898 355.376 678.01 356.608 678.01 357.856V364H676.602ZM690.564 364.224C688.741 364.224 687.909 363.04 687.909 360.816V355.312H689.365V360.64C689.365 362.256 689.861 362.944 691.013 362.944C691.893 362.944 692.533 362.512 693.349 361.488V355.312H694.805V364H693.605L693.477 362.64H693.445C692.629 363.584 691.765 364.224 690.564 364.224ZM697.755 364V355.312H698.939L699.083 356.576H699.131C699.883 355.76 700.795 355.104 701.835 355.104C703.163 355.104 703.883 355.728 704.219 356.752C705.131 355.792 706.043 355.104 707.099 355.104C708.875 355.104 709.739 356.288 709.739 358.496V364H708.283V358.688C708.283 357.056 707.771 356.368 706.651 356.368C705.979 356.368 705.291 356.816 704.475 357.696V364H703.019V358.688C703.019 357.056 702.507 356.368 701.387 356.368C700.731 356.368 699.995 356.816 699.211 357.696V364H697.755ZM716.376 364.224C715.576 364.224 714.664 363.808 713.912 363.104H713.864L713.72 364H712.568V351.28H714.024V354.752L713.96 356.32C714.76 355.632 715.72 355.104 716.696 355.104C718.936 355.104 720.152 356.848 720.152 359.52C720.152 362.496 718.376 364.224 716.376 364.224ZM716.152 362.992C717.576 362.992 718.648 361.696 718.648 359.552C718.648 357.616 717.992 356.32 716.344 356.32C715.608 356.32 714.84 356.736 714.024 357.52V362.096C714.776 362.752 715.576 362.992 716.152 362.992ZM725.962 364.224C723.642 364.224 721.802 362.528 721.802 359.68C721.802 356.848 723.706 355.104 725.706 355.104C727.914 355.104 729.162 356.688 729.162 359.184C729.162 359.488 729.146 359.792 729.098 360.016H723.242C723.354 361.856 724.474 363.056 726.138 363.056C726.97 363.056 727.658 362.784 728.298 362.352L728.826 363.328C728.058 363.824 727.146 364.224 725.962 364.224ZM723.226 358.96H727.882C727.882 357.216 727.098 356.272 725.722 356.272C724.506 356.272 723.418 357.248 723.226 358.96ZM731.318 364V355.312H732.502L732.646 356.896H732.694C733.286 355.792 734.182 355.104 735.158 355.104C735.542 355.104 735.798 355.152 736.086 355.28L735.814 356.56C735.51 356.464 735.318 356.416 734.966 356.416C734.246 356.416 733.35 356.944 732.774 358.432V364H731.318ZM744.475 364.224C742.331 364.224 740.443 362.544 740.443 359.68C740.443 356.768 742.331 355.104 744.475 355.104C746.603 355.104 748.491 356.768 748.491 359.68C748.491 362.544 746.603 364.224 744.475 364.224ZM744.475 363.008C745.979 363.008 746.987 361.664 746.987 359.68C746.987 357.664 745.979 356.32 744.475 356.32C742.955 356.32 741.947 357.664 741.947 359.68C741.947 361.664 742.955 363.008 744.475 363.008ZM750.948 364V353.92C750.948 352.176 751.764 351.056 753.492 351.056C754.02 351.056 754.532 351.184 754.932 351.344L754.628 352.464C754.292 352.32 753.956 352.24 753.636 352.24C752.804 352.24 752.404 352.816 752.404 353.952V364H750.948ZM749.764 356.496V355.408L751.028 355.312H754.26V356.496H749.764ZM762.225 364.224C760.369 364.224 759.761 363.056 759.761 361.328V356.496H758.465V355.408L759.825 355.312L759.985 352.864H761.217V355.312H763.569V356.496H761.217V361.36C761.217 362.416 761.553 363.04 762.561 363.04C762.865 363.04 763.265 362.912 763.537 362.8L763.825 363.888C763.345 364.064 762.769 364.224 762.225 364.224ZM768.759 364.224C766.439 364.224 764.599 362.528 764.599 359.68C764.599 356.848 766.503 355.104 768.503 355.104C770.711 355.104 771.959 356.688 771.959 359.184C771.959 359.488 771.943 359.792 771.895 360.016H766.039C766.151 361.856 767.271 363.056 768.935 363.056C769.767 363.056 770.455 362.784 771.095 362.352L771.623 363.328C770.855 363.824 769.943 364.224 768.759 364.224ZM766.023 358.96H770.679C770.679 357.216 769.895 356.272 768.519 356.272C767.303 356.272 766.215 357.248 766.023 358.96ZM775.818 364.224C774.362 364.224 773.274 363.312 773.274 361.744C773.274 359.856 774.906 358.912 778.602 358.496C778.602 357.376 778.25 356.304 776.826 356.304C775.802 356.304 774.89 356.784 774.218 357.248L773.642 356.224C774.442 355.712 775.658 355.104 777.05 355.104C779.178 355.104 780.074 356.512 780.074 358.672V364H778.874L778.746 362.976H778.682C777.866 363.664 776.89 364.224 775.818 364.224ZM776.218 363.04C777.066 363.04 777.77 362.64 778.602 361.888V359.472C775.674 359.808 774.698 360.528 774.698 361.648C774.698 362.64 775.37 363.04 776.218 363.04ZM782.833 364V355.312H784.017L784.161 356.576H784.209C784.961 355.76 785.873 355.104 786.913 355.104C788.241 355.104 788.961 355.728 789.297 356.752C790.209 355.792 791.121 355.104 792.177 355.104C793.953 355.104 794.817 356.288 794.817 358.496V364H793.361V358.688C793.361 357.056 792.849 356.368 791.729 356.368C791.057 356.368 790.369 356.816 789.553 357.696V364H788.097V358.688C788.097 357.056 787.585 356.368 786.465 356.368C785.809 356.368 785.073 356.816 784.289 357.696V364H782.833ZM799.918 364.224C798.686 364.224 797.486 363.696 796.67 363.024L797.39 362.048C798.142 362.656 798.91 363.088 799.95 363.088C801.102 363.088 801.678 362.48 801.678 361.712C801.678 360.832 800.638 360.432 799.678 360.08C798.478 359.616 797.15 359.04 797.15 357.552C797.15 356.176 798.254 355.104 800.142 355.104C801.214 355.104 802.174 355.536 802.846 356.08L802.142 357.008C801.55 356.576 800.926 356.24 800.158 356.24C799.054 356.24 798.558 356.816 798.558 357.488C798.558 358.32 799.438 358.64 800.43 358.992C801.694 359.472 803.07 359.984 803.07 361.632C803.07 363.056 801.966 364.224 799.918 364.224Z" fill="#4F4F4F"/>
<defs>
<linearGradient id="paint0_linear_2003_64463" x1="600" y1="52" x2="600" y2="316.922" gradientUnits="userSpaceOnUse">
<stop stop-color="#1DA637"/>
<stop offset="1" stop-color="white"/>
</linearGradient>
<linearGradient id="paint1_linear_2003_64463" x1="75.0988" y1="207.093" x2="75.0995" y2="217.478" gradientUnits="userSpaceOnUse">
<stop stop-color="#A6CC94"/>
<stop offset="1" stop-color="#1DA637"/>
</linearGradient>
<linearGradient id="paint2_linear_2003_64463" x1="225.099" y1="192.093" x2="225.099" y2="202.478" gradientUnits="userSpaceOnUse">
<stop stop-color="#A6CC94"/>
<stop offset="1" stop-color="#1DA637"/>
</linearGradient>
<linearGradient id="paint3_linear_2003_64463" x1="375.1" y1="82.0933" x2="375.099" y2="92.4786" gradientUnits="userSpaceOnUse">
<stop stop-color="#A6CC94"/>
<stop offset="1" stop-color="#1DA637"/>
</linearGradient>
<linearGradient id="paint4_linear_2003_64463" x1="525.1" y1="82.0933" x2="525.099" y2="92.4785" gradientUnits="userSpaceOnUse">
<stop stop-color="#A6CC94"/>
<stop offset="1" stop-color="#1DA637"/>
</linearGradient>
<linearGradient id="paint5_linear_2003_64463" x1="675.1" y1="47.0933" x2="675.099" y2="57.4785" gradientUnits="userSpaceOnUse">
<stop stop-color="#A6CC94"/>
<stop offset="1" stop-color="#1DA637"/>
</linearGradient>
<linearGradient id="paint6_linear_2003_64463" x1="825.099" y1="107.093" x2="825.099" y2="117.478" gradientUnits="userSpaceOnUse">
<stop stop-color="#A6CC94"/>
<stop offset="1" stop-color="#1DA637"/>
</linearGradient>
<linearGradient id="paint7_linear_2003_64463" x1="975.1" y1="47.0933" x2="975.099" y2="57.4785" gradientUnits="userSpaceOnUse">
<stop stop-color="#A6CC94"/>
<stop offset="1" stop-color="#1DA637"/>
</linearGradient>
<linearGradient id="paint8_linear_2003_64463" x1="1125.1" y1="60.0883" x2="1125.1" y2="70.4785" gradientUnits="userSpaceOnUse">
<stop stop-color="#A6CC94"/>
<stop offset="1" stop-color="#1DA637"/>
</linearGradient>
<linearGradient id="paint9_linear_2003_64463" x1="75" y1="254" x2="75" y2="287" gradientUnits="userSpaceOnUse">
<stop stop-color="#6FC7E2"/>
<stop offset="1" stop-color="#00AED4"/>
</linearGradient>
<linearGradient id="paint10_linear_2003_64463" x1="225" y1="250" x2="225" y2="287" gradientUnits="userSpaceOnUse">
<stop stop-color="#6FC7E2"/>
<stop offset="1" stop-color="#00AED4"/>
</linearGradient>
<linearGradient id="paint11_linear_2003_64463" x1="375" y1="180" x2="375" y2="287" gradientUnits="userSpaceOnUse">
<stop stop-color="#6FC7E2"/>
<stop offset="1" stop-color="#00AED4"/>
</linearGradient>
<linearGradient id="paint12_linear_2003_64463" x1="525" y1="94" x2="525" y2="287" gradientUnits="userSpaceOnUse">
<stop stop-color="#6FC7E2"/>
<stop offset="1" stop-color="#00AED4"/>
</linearGradient>
<linearGradient id="paint13_linear_2003_64463" x1="675" y1="171" x2="675" y2="287" gradientUnits="userSpaceOnUse">
<stop stop-color="#6FC7E2"/>
<stop offset="1" stop-color="#00AED4"/>
</linearGradient>
<linearGradient id="paint14_linear_2003_64463" x1="825" y1="146" x2="825" y2="287" gradientUnits="userSpaceOnUse">
<stop stop-color="#6FC7E2"/>
<stop offset="1" stop-color="#00AED4"/>
</linearGradient>
<linearGradient id="paint15_linear_2003_64463" x1="975" y1="109" x2="975" y2="287" gradientUnits="userSpaceOnUse">
<stop stop-color="#6FC7E2"/>
<stop offset="1" stop-color="#00AED4"/>
</linearGradient>
<linearGradient id="paint16_linear_2003_64463" x1="1125" y1="150" x2="1125" y2="287" gradientUnits="userSpaceOnUse">
<stop stop-color="#6FC7E2"/>
<stop offset="1" stop-color="#00AED4"/>
</linearGradient>
<linearGradient id="paint17_linear_2003_64463" x1="406" y1="354" x2="406" y2="360" gradientUnits="userSpaceOnUse">
<stop stop-color="#6FC7E2"/>
<stop offset="1" stop-color="#00AED4"/>
</linearGradient>
<linearGradient id="paint18_linear_2003_64463" x1="662.099" y1="352.093" x2="662.099" y2="362.478" gradientUnits="userSpaceOnUse">
<stop stop-color="#A6CC94"/>
<stop offset="1" stop-color="#1DA637"/>
</linearGradient>
</defs>
</svg>
