<svg width="975" height="232" viewBox="0 0 975 232" fill="none" xmlns="http://www.w3.org/2000/svg">
<path d="M262.284 24.252C258.972 24.252 256.398 21.768 256.398 17.412C256.398 13.092 259.044 10.518 262.392 10.518C264.048 10.518 265.326 11.31 266.136 12.174L265.02 13.524C264.336 12.822 263.508 12.336 262.428 12.336C260.142 12.336 258.558 14.244 258.558 17.34C258.558 20.49 260.034 22.416 262.374 22.416C263.58 22.416 264.516 21.876 265.29 21.012L266.424 22.326C265.362 23.568 264.012 24.252 262.284 24.252ZM272.552 24.252C270.086 24.252 267.89 22.344 267.89 19.068C267.89 15.756 270.086 13.848 272.552 13.848C275 13.848 277.214 15.756 277.214 19.068C277.214 22.344 275 24.252 272.552 24.252ZM272.552 22.542C274.1 22.542 275.09 21.156 275.09 19.068C275.09 16.962 274.1 15.576 272.552 15.576C270.986 15.576 270.032 16.962 270.032 19.068C270.032 21.156 270.986 22.542 272.552 22.542ZM279.649 28.014V14.1H281.341L281.521 15.198H281.575C282.439 14.46 283.501 13.848 284.617 13.848C287.119 13.848 288.541 15.846 288.541 18.906C288.541 22.29 286.507 24.252 284.275 24.252C283.393 24.252 282.493 23.856 281.665 23.136L281.737 24.81V28.014H279.649ZM283.879 22.524C285.301 22.524 286.399 21.246 286.399 18.924C286.399 16.854 285.715 15.576 284.059 15.576C283.303 15.576 282.565 15.99 281.737 16.782V21.624C282.511 22.29 283.267 22.524 283.879 22.524ZM290.986 28.014V14.1H292.678L292.858 15.198H292.912C293.776 14.46 294.838 13.848 295.954 13.848C298.456 13.848 299.878 15.846 299.878 18.906C299.878 22.29 297.844 24.252 295.612 24.252C294.73 24.252 293.83 23.856 293.002 23.136L293.074 24.81V28.014H290.986ZM295.216 22.524C296.638 22.524 297.736 21.246 297.736 18.924C297.736 16.854 297.052 15.576 295.396 15.576C294.64 15.576 293.902 15.99 293.074 16.782V21.624C293.848 22.29 294.604 22.524 295.216 22.524ZM306.464 24.252C303.764 24.252 301.64 22.326 301.64 19.068C301.64 15.846 303.854 13.848 306.158 13.848C308.768 13.848 310.19 15.738 310.19 18.546C310.19 18.96 310.154 19.356 310.1 19.608H303.674C303.836 21.498 305.024 22.614 306.734 22.614C307.616 22.614 308.354 22.344 309.092 21.876L309.812 23.208C308.894 23.82 307.76 24.252 306.464 24.252ZM303.638 18.168H308.39C308.39 16.458 307.634 15.486 306.194 15.486C304.952 15.486 303.854 16.44 303.638 18.168ZM312.52 24V14.1H314.212L314.392 15.882H314.446C315.148 14.604 316.192 13.848 317.254 13.848C317.74 13.848 318.046 13.92 318.352 14.064L317.992 15.864C317.65 15.756 317.398 15.702 316.984 15.702C316.192 15.702 315.22 16.278 314.608 17.844V24H312.52ZM325.476 24L322.776 10.752H324.936L326.16 17.646C326.412 19.05 326.646 20.472 326.88 21.912H326.952C327.24 20.472 327.546 19.05 327.852 17.646L329.544 10.752H331.398L333.108 17.646C333.432 19.032 333.702 20.472 334.026 21.912H334.116C334.332 20.472 334.566 19.05 334.782 17.646L336.042 10.752H338.04L335.43 24H332.838L331.074 16.638C330.84 15.612 330.642 14.622 330.462 13.614H330.39C330.192 14.622 329.958 15.612 329.76 16.638L328.014 24H325.476ZM341.965 24.252C340.273 24.252 339.067 23.118 339.067 21.372C339.067 19.248 340.867 18.15 344.971 17.7C344.953 16.548 344.539 15.54 343.099 15.54C342.055 15.54 341.065 16.026 340.237 16.566L339.463 15.144C340.471 14.514 341.875 13.848 343.459 13.848C345.925 13.848 347.059 15.414 347.059 18.06V24H345.349L345.187 22.884H345.115C344.215 23.658 343.153 24.252 341.965 24.252ZM342.613 22.596C343.477 22.596 344.161 22.2 344.971 21.444V19.032C342.037 19.374 341.065 20.112 341.065 21.228C341.065 22.2 341.731 22.596 342.613 22.596ZM352.679 24.252C351.311 24.252 349.907 23.676 348.953 22.884L349.925 21.534C350.807 22.218 351.653 22.668 352.733 22.668C353.903 22.668 354.461 22.092 354.461 21.336C354.461 20.454 353.345 20.04 352.283 19.644C350.951 19.14 349.493 18.438 349.493 16.746C349.493 15.09 350.825 13.848 353.039 13.848C354.353 13.848 355.451 14.388 356.243 15.018L355.271 16.296C354.587 15.81 353.885 15.432 353.075 15.432C351.977 15.432 351.473 15.972 351.473 16.656C351.473 17.502 352.427 17.826 353.525 18.222C354.911 18.744 356.423 19.374 356.423 21.228C356.423 22.902 355.109 24.252 352.679 24.252ZM361.465 24.252C359.251 24.252 358.459 22.848 358.459 20.778V15.756H357.019V14.208L358.567 14.1L358.801 11.364H360.529V14.1H363.121V15.756H360.529V20.796C360.529 21.966 360.961 22.596 361.987 22.596C362.329 22.596 362.743 22.47 363.049 22.344L363.427 23.874C362.869 24.054 362.203 24.252 361.465 24.252ZM369.042 24.252C366.342 24.252 364.218 22.326 364.218 19.068C364.218 15.846 366.432 13.848 368.736 13.848C371.346 13.848 372.768 15.738 372.768 18.546C372.768 18.96 372.732 19.356 372.678 19.608H366.252C366.414 21.498 367.602 22.614 369.312 22.614C370.194 22.614 370.932 22.344 371.67 21.876L372.39 23.208C371.472 23.82 370.338 24.252 369.042 24.252ZM366.216 18.168H370.968C370.968 16.458 370.212 15.486 368.772 15.486C367.53 15.486 366.432 16.44 366.216 18.168ZM379.321 24V10.752H381.427V22.236H387.043V24H379.321ZM389.178 24V14.1H391.266V24H389.178ZM390.222 12.246C389.448 12.246 388.944 11.76 388.944 11.004C388.944 10.266 389.448 9.78 390.222 9.78C390.978 9.78 391.518 10.266 391.518 11.004C391.518 11.76 390.978 12.246 390.222 12.246ZM400.519 28.014V24.666L400.609 22.956C399.853 23.694 398.863 24.252 397.783 24.252C395.299 24.252 393.715 22.344 393.715 19.068C393.715 15.846 395.749 13.848 397.945 13.848C399.079 13.848 399.871 14.262 400.717 15.054H400.771L400.969 14.1H402.607V28.014H400.519ZM398.287 22.524C399.097 22.524 399.817 22.146 400.519 21.318V16.494C399.799 15.828 399.097 15.576 398.359 15.576C396.973 15.576 395.857 16.908 395.857 19.032C395.857 21.282 396.739 22.524 398.287 22.524ZM408.617 24.252C406.511 24.252 405.575 22.848 405.575 20.328V14.1H407.645V20.076C407.645 21.786 408.149 22.452 409.319 22.452C410.237 22.452 410.867 22.02 411.695 20.976V14.1H413.765V24H412.055L411.893 22.506H411.839C410.939 23.55 409.985 24.252 408.617 24.252ZM416.863 24V14.1H418.951V24H416.863ZM417.907 12.246C417.133 12.246 416.629 11.76 416.629 11.004C416.629 10.266 417.133 9.78 417.907 9.78C418.663 9.78 419.203 10.266 419.203 11.004C419.203 11.76 418.663 12.246 417.907 12.246ZM425.469 24.252C422.985 24.252 421.401 22.344 421.401 19.068C421.401 15.846 423.435 13.848 425.631 13.848C426.765 13.848 427.503 14.28 428.295 14.964L428.205 13.326V9.672H430.293V24H428.583L428.421 22.902H428.367C427.611 23.658 426.585 24.252 425.469 24.252ZM425.973 22.524C426.783 22.524 427.503 22.146 428.205 21.318V16.494C427.485 15.828 426.783 15.576 426.045 15.576C424.659 15.576 423.543 16.908 423.543 19.032C423.543 21.282 424.425 22.524 425.973 22.524ZM437.61 24V10.752H445.458V12.516H439.716V16.188H444.558V17.97H439.716V22.236H445.656V24H437.61ZM450.293 24.252C448.781 24.252 448.223 23.28 448.223 21.678V9.672H450.311V21.786C450.311 22.344 450.545 22.542 450.797 22.542C450.887 22.542 450.959 22.542 451.139 22.506L451.409 24.072C451.139 24.162 450.815 24.252 450.293 24.252ZM457.724 24.252C455.024 24.252 452.9 22.326 452.9 19.068C452.9 15.846 455.114 13.848 457.418 13.848C460.028 13.848 461.45 15.738 461.45 18.546C461.45 18.96 461.414 19.356 461.36 19.608H454.934C455.096 21.498 456.284 22.614 457.994 22.614C458.876 22.614 459.614 22.344 460.352 21.876L461.072 23.208C460.154 23.82 459.02 24.252 457.724 24.252ZM454.898 18.168H459.65C459.65 16.458 458.894 15.486 457.454 15.486C456.212 15.486 455.114 16.44 454.898 18.168ZM467.811 24.252C465.147 24.252 463.095 22.344 463.095 19.068C463.095 15.756 465.381 13.848 467.991 13.848C469.251 13.848 470.169 14.352 470.871 15L469.863 16.332C469.323 15.864 468.765 15.576 468.099 15.576C466.407 15.576 465.237 16.962 465.237 19.068C465.237 21.156 466.371 22.542 468.027 22.542C468.855 22.542 469.593 22.146 470.187 21.642L471.033 23.028C470.133 23.82 468.963 24.252 467.811 24.252ZM476.127 24.252C473.913 24.252 473.121 22.848 473.121 20.778V15.756H471.681V14.208L473.229 14.1L473.463 11.364H475.191V14.1H477.783V15.756H475.191V20.796C475.191 21.966 475.623 22.596 476.649 22.596C476.991 22.596 477.405 22.47 477.711 22.344L478.089 23.874C477.531 24.054 476.865 24.252 476.127 24.252ZM479.934 24V14.1H481.626L481.806 15.882H481.86C482.562 14.604 483.606 13.848 484.668 13.848C485.154 13.848 485.46 13.92 485.766 14.064L485.406 15.864C485.064 15.756 484.812 15.702 484.398 15.702C483.606 15.702 482.634 16.278 482.022 17.844V24H479.934ZM490.996 24.252C488.53 24.252 486.334 22.344 486.334 19.068C486.334 15.756 488.53 13.848 490.996 13.848C493.444 13.848 495.658 15.756 495.658 19.068C495.658 22.344 493.444 24.252 490.996 24.252ZM490.996 22.542C492.544 22.542 493.534 21.156 493.534 19.068C493.534 16.962 492.544 15.576 490.996 15.576C489.43 15.576 488.476 16.962 488.476 19.068C488.476 21.156 489.43 22.542 490.996 22.542ZM500.162 24.252C498.65 24.252 498.092 23.28 498.092 21.678V9.672H500.18V21.786C500.18 22.344 500.414 22.542 500.666 22.542C500.756 22.542 500.828 22.542 501.008 22.506L501.278 24.072C501.008 24.162 500.684 24.252 500.162 24.252ZM503.921 28.14C503.417 28.14 503.021 28.068 502.679 27.942L503.075 26.322C503.255 26.394 503.543 26.466 503.795 26.466C504.857 26.466 505.505 25.674 505.865 24.612L506.063 23.928L502.139 14.1H504.263L506.081 19.194C506.387 20.076 506.675 21.066 506.999 22.002H507.089C507.323 21.084 507.593 20.112 507.845 19.194L509.447 14.1H511.463L507.827 24.612C507.053 26.718 506.009 28.14 503.921 28.14ZM515.944 24.252C514.576 24.252 513.172 23.676 512.218 22.884L513.19 21.534C514.072 22.218 514.918 22.668 515.998 22.668C517.168 22.668 517.726 22.092 517.726 21.336C517.726 20.454 516.61 20.04 515.548 19.644C514.216 19.14 512.758 18.438 512.758 16.746C512.758 15.09 514.09 13.848 516.304 13.848C517.618 13.848 518.716 14.388 519.508 15.018L518.536 16.296C517.852 15.81 517.15 15.432 516.34 15.432C515.242 15.432 514.738 15.972 514.738 16.656C514.738 17.502 515.692 17.826 516.79 18.222C518.176 18.744 519.688 19.374 519.688 21.228C519.688 22.902 518.374 24.252 515.944 24.252ZM521.893 24V14.1H523.981V24H521.893ZM522.937 12.246C522.163 12.246 521.659 11.76 521.659 11.004C521.659 10.266 522.163 9.78 522.937 9.78C523.693 9.78 524.233 10.266 524.233 11.004C524.233 11.76 523.693 12.246 522.937 12.246ZM529.778 24.252C528.41 24.252 527.006 23.676 526.052 22.884L527.024 21.534C527.906 22.218 528.752 22.668 529.832 22.668C531.002 22.668 531.56 22.092 531.56 21.336C531.56 20.454 530.444 20.04 529.382 19.644C528.05 19.14 526.592 18.438 526.592 16.746C526.592 15.09 527.924 13.848 530.138 13.848C531.452 13.848 532.55 14.388 533.342 15.018L532.37 16.296C531.686 15.81 530.984 15.432 530.174 15.432C529.076 15.432 528.572 15.972 528.572 16.656C528.572 17.502 529.526 17.826 530.624 18.222C532.01 18.744 533.522 19.374 533.522 21.228C533.522 22.902 532.208 24.252 529.778 24.252ZM539.95 24V10.752H544.288C547.024 10.752 549.076 11.724 549.076 14.604C549.076 17.376 547.024 18.654 544.288 18.654H542.056V24H539.95ZM542.056 16.98H544.054C545.962 16.98 547.006 16.188 547.006 14.604C547.006 13.002 545.962 12.444 544.054 12.444H542.056V16.98ZM547.204 24L543.892 18.114L545.44 16.89L549.544 24H547.204ZM555.441 24.252C552.741 24.252 550.617 22.326 550.617 19.068C550.617 15.846 552.831 13.848 555.135 13.848C557.745 13.848 559.167 15.738 559.167 18.546C559.167 18.96 559.131 19.356 559.077 19.608H552.651C552.813 21.498 554.001 22.614 555.711 22.614C556.593 22.614 557.331 22.344 558.069 21.876L558.789 23.208C557.871 23.82 556.737 24.252 555.441 24.252ZM552.615 18.168H557.367C557.367 16.458 556.611 15.486 555.171 15.486C553.929 15.486 552.831 16.44 552.615 18.168ZM564.617 28.446C562.241 28.446 560.513 27.564 560.513 25.854C560.513 25.008 561.035 24.234 561.953 23.694V23.604C561.431 23.28 561.053 22.758 561.053 21.948C561.053 21.174 561.593 20.508 562.151 20.112V20.04C561.485 19.536 560.837 18.582 560.837 17.412C560.837 15.162 562.637 13.848 564.671 13.848C565.247 13.848 565.751 13.956 566.129 14.1H569.621V15.666H567.749C568.127 16.062 568.397 16.71 568.397 17.466C568.397 19.644 566.759 20.868 564.671 20.868C564.239 20.868 563.735 20.778 563.285 20.58C562.979 20.85 562.745 21.138 562.745 21.624C562.745 22.2 563.159 22.578 564.401 22.578H566.237C568.577 22.578 569.801 23.298 569.801 24.99C569.801 26.898 567.785 28.446 564.617 28.446ZM564.671 19.536C565.697 19.536 566.543 18.726 566.543 17.412C566.543 16.08 565.715 15.324 564.671 15.324C563.645 15.324 562.817 16.08 562.817 17.412C562.817 18.726 563.663 19.536 564.671 19.536ZM564.923 27.078C566.651 27.078 567.785 26.232 567.785 25.332C567.785 24.504 567.137 24.234 565.931 24.234H564.437C563.969 24.234 563.537 24.198 563.123 24.09C562.529 24.54 562.277 25.044 562.277 25.548C562.277 26.502 563.285 27.078 564.923 27.078ZM575.392 24.252C572.692 24.252 570.568 22.326 570.568 19.068C570.568 15.846 572.782 13.848 575.086 13.848C577.696 13.848 579.118 15.738 579.118 18.546C579.118 18.96 579.082 19.356 579.028 19.608H572.602C572.764 21.498 573.952 22.614 575.662 22.614C576.544 22.614 577.282 22.344 578.02 21.876L578.74 23.208C577.822 23.82 576.688 24.252 575.392 24.252ZM572.566 18.168H577.318C577.318 16.458 576.562 15.486 575.122 15.486C573.88 15.486 572.782 16.44 572.566 18.168ZM581.447 24V14.1H583.139L583.319 15.486H583.373C584.273 14.586 585.299 13.848 586.649 13.848C588.755 13.848 589.691 15.27 589.691 17.772V24H587.603V18.042C587.603 16.314 587.099 15.648 585.947 15.648C585.029 15.648 584.399 16.116 583.535 16.98V24H581.447ZM596.82 24.252C594.12 24.252 591.996 22.326 591.996 19.068C591.996 15.846 594.21 13.848 596.514 13.848C599.124 13.848 600.546 15.738 600.546 18.546C600.546 18.96 600.51 19.356 600.456 19.608H594.03C594.192 21.498 595.38 22.614 597.09 22.614C597.972 22.614 598.71 22.344 599.448 21.876L600.168 23.208C599.25 23.82 598.116 24.252 596.82 24.252ZM593.994 18.168H598.746C598.746 16.458 597.99 15.486 596.55 15.486C595.308 15.486 594.21 16.44 593.994 18.168ZM602.875 24V14.1H604.567L604.747 15.882H604.801C605.503 14.604 606.547 13.848 607.609 13.848C608.095 13.848 608.401 13.92 608.707 14.064L608.347 15.864C608.005 15.756 607.753 15.702 607.339 15.702C606.547 15.702 605.575 16.278 604.963 17.844V24H602.875ZM612 24.252C610.308 24.252 609.102 23.118 609.102 21.372C609.102 19.248 610.902 18.15 615.006 17.7C614.988 16.548 614.574 15.54 613.134 15.54C612.09 15.54 611.1 16.026 610.272 16.566L609.498 15.144C610.506 14.514 611.91 13.848 613.494 13.848C615.96 13.848 617.094 15.414 617.094 18.06V24H615.384L615.222 22.884H615.15C614.25 23.658 613.188 24.252 612 24.252ZM612.648 22.596C613.512 22.596 614.196 22.2 615.006 21.444V19.032C612.072 19.374 611.1 20.112 611.1 21.228C611.1 22.2 611.766 22.596 612.648 22.596ZM622.975 24.252C620.761 24.252 619.969 22.848 619.969 20.778V15.756H618.529V14.208L620.077 14.1L620.311 11.364H622.039V14.1H624.631V15.756H622.039V20.796C622.039 21.966 622.471 22.596 623.497 22.596C623.839 22.596 624.253 22.47 624.559 22.344L624.937 23.874C624.379 24.054 623.713 24.252 622.975 24.252ZM626.781 24V14.1H628.869V24H626.781ZM627.825 12.246C627.051 12.246 626.547 11.76 626.547 11.004C626.547 10.266 627.051 9.78 627.825 9.78C628.581 9.78 629.121 10.266 629.121 11.004C629.121 11.76 628.581 12.246 627.825 12.246ZM635.945 24.252C633.479 24.252 631.283 22.344 631.283 19.068C631.283 15.756 633.479 13.848 635.945 13.848C638.393 13.848 640.607 15.756 640.607 19.068C640.607 22.344 638.393 24.252 635.945 24.252ZM635.945 22.542C637.493 22.542 638.483 21.156 638.483 19.068C638.483 16.962 637.493 15.576 635.945 15.576C634.379 15.576 633.425 16.962 633.425 19.068C633.425 21.156 634.379 22.542 635.945 22.542ZM643.041 24V14.1H644.733L644.913 15.486H644.967C645.867 14.586 646.893 13.848 648.243 13.848C650.349 13.848 651.285 15.27 651.285 17.772V24H649.197V18.042C649.197 16.314 648.693 15.648 647.541 15.648C646.623 15.648 645.993 16.116 645.129 16.98V24H643.041ZM662.295 24.252C660.459 24.252 658.785 23.532 657.579 22.308L658.803 20.85C659.739 21.804 661.053 22.416 662.331 22.416C663.915 22.416 664.815 21.678 664.815 20.544C664.815 19.338 663.915 18.96 662.691 18.438L660.855 17.628C659.577 17.106 658.173 16.098 658.173 14.172C658.173 12.084 659.991 10.518 662.511 10.518C664.077 10.518 665.535 11.166 666.525 12.192L665.445 13.506C664.617 12.786 663.681 12.336 662.511 12.336C661.161 12.336 660.297 12.984 660.297 14.028C660.297 15.162 661.359 15.594 662.439 16.044L664.257 16.8C665.823 17.466 666.957 18.438 666.957 20.382C666.957 22.506 665.193 24.252 662.295 24.252ZM669.736 28.14C669.232 28.14 668.836 28.068 668.494 27.942L668.89 26.322C669.07 26.394 669.358 26.466 669.61 26.466C670.672 26.466 671.32 25.674 671.68 24.612L671.878 23.928L667.954 14.1H670.078L671.896 19.194C672.202 20.076 672.49 21.066 672.814 22.002H672.904C673.138 21.084 673.408 20.112 673.66 19.194L675.262 14.1H677.278L673.642 24.612C672.868 26.718 671.824 28.14 669.736 28.14ZM681.759 24.252C680.391 24.252 678.987 23.676 678.033 22.884L679.005 21.534C679.887 22.218 680.733 22.668 681.813 22.668C682.983 22.668 683.541 22.092 683.541 21.336C683.541 20.454 682.425 20.04 681.363 19.644C680.031 19.14 678.573 18.438 678.573 16.746C678.573 15.09 679.905 13.848 682.119 13.848C683.433 13.848 684.531 14.388 685.323 15.018L684.351 16.296C683.667 15.81 682.965 15.432 682.155 15.432C681.057 15.432 680.553 15.972 680.553 16.656C680.553 17.502 681.507 17.826 682.605 18.222C683.991 18.744 685.503 19.374 685.503 21.228C685.503 22.902 684.189 24.252 681.759 24.252ZM690.545 24.252C688.331 24.252 687.539 22.848 687.539 20.778V15.756H686.099V14.208L687.647 14.1L687.881 11.364H689.609V14.1H692.201V15.756H689.609V20.796C689.609 21.966 690.041 22.596 691.067 22.596C691.409 22.596 691.823 22.47 692.129 22.344L692.507 23.874C691.949 24.054 691.283 24.252 690.545 24.252ZM698.123 24.252C695.423 24.252 693.299 22.326 693.299 19.068C693.299 15.846 695.513 13.848 697.817 13.848C700.427 13.848 701.849 15.738 701.849 18.546C701.849 18.96 701.813 19.356 701.759 19.608H695.333C695.495 21.498 696.683 22.614 698.393 22.614C699.275 22.614 700.013 22.344 700.751 21.876L701.471 23.208C700.553 23.82 699.419 24.252 698.123 24.252ZM695.297 18.168H700.049C700.049 16.458 699.293 15.486 697.853 15.486C696.611 15.486 695.513 16.44 695.297 18.168ZM704.178 24V14.1H705.87L706.05 15.486H706.104C706.95 14.586 707.94 13.848 709.164 13.848C710.64 13.848 711.468 14.532 711.882 15.666C712.872 14.64 713.88 13.848 715.122 13.848C717.192 13.848 718.146 15.27 718.146 17.772V24H716.076V18.042C716.076 16.314 715.554 15.648 714.438 15.648C713.754 15.648 713.034 16.08 712.206 16.98V24H710.136V18.042C710.136 16.314 709.614 15.648 708.48 15.648C707.814 15.648 707.058 16.08 706.266 16.98V24H704.178Z" fill="black"/>
<g clip-path="url(#clip0_338_40078)">
<g filter="url(#filter0_d_338_40078)">
<path d="M20 84C20 72.9543 28.9543 64 40 64H901C912.046 64 921 72.9543 921 84V188C921 199.046 912.046 208 901 208H40C28.9543 208 20 199.046 20 188V84Z" fill="white" shape-rendering="crispEdges"/>
<path d="M40 64.5H901C911.77 64.5 920.5 73.2304 920.5 84V188C920.5 198.77 911.77 207.5 901 207.5H40C29.2304 207.5 20.5 198.77 20.5 188V84C20.5 73.2304 29.2304 64.5 40 64.5Z" stroke="#F6F6F6" shape-rendering="crispEdges"/>
<path d="M41.552 105V93.208H43.408V105H41.552ZM46.3295 105V96.2H47.8335L47.9775 97.432H48.0255C48.7775 96.632 49.6575 95.976 50.7455 95.976C52.0575 95.976 52.7935 96.584 53.1775 97.592C54.0415 96.664 54.9375 95.976 56.0415 95.976C57.8815 95.976 58.7455 97.224 58.7455 99.464V105H56.9055V99.688C56.9055 98.168 56.4255 97.56 55.4335 97.56C54.8255 97.56 54.1855 97.96 53.4495 98.76V105H51.6095V99.688C51.6095 98.168 51.1455 97.56 50.1375 97.56C49.5455 97.56 48.8895 97.96 48.1695 98.76V105H46.3295ZM61.4076 108.568V96.2H62.9116L63.0556 97.16H63.1036C63.8716 96.52 64.8316 95.976 65.8236 95.976C68.0476 95.976 69.2956 97.752 69.2956 100.456C69.2956 103.48 67.4876 105.208 65.5036 105.208C64.7196 105.208 63.9356 104.856 63.1836 104.216L63.2476 105.72V108.568H61.4076ZM65.1516 103.688C66.4316 103.688 67.3916 102.552 67.3916 100.488C67.3916 98.648 66.7996 97.512 65.3276 97.512C64.6396 97.512 63.9836 97.864 63.2476 98.584V102.888C63.9356 103.48 64.6076 103.688 65.1516 103.688ZM71.4858 105V96.2H72.9898L73.1338 97.784H73.1818C73.8058 96.648 74.7338 95.976 75.6778 95.976C76.1098 95.976 76.3978 96.04 76.6698 96.168L76.3338 97.768C76.0298 97.672 75.8058 97.624 75.4538 97.624C74.7338 97.624 73.8698 98.12 73.3258 99.512V105H71.4858ZM81.3808 105.208C79.2048 105.208 77.2368 103.528 77.2368 100.6C77.2368 97.672 79.2048 95.976 81.3808 95.976C83.5568 95.976 85.5248 97.672 85.5248 100.6C85.5248 103.528 83.5568 105.208 81.3808 105.208ZM81.3808 103.704C82.7728 103.704 83.6368 102.472 83.6368 100.6C83.6368 98.744 82.7728 97.496 81.3808 97.496C80.0048 97.496 79.1408 98.744 79.1408 100.6C79.1408 102.472 80.0048 103.704 81.3808 103.704ZM89.5311 105L86.4111 96.2H88.2991L89.8031 100.936C90.0591 101.8 90.3151 102.696 90.5711 103.56H90.6351C90.8911 102.696 91.1631 101.8 91.4031 100.936L92.9071 96.2H94.6991L91.6591 105H89.5311ZM99.8841 105.208C97.5001 105.208 95.5961 103.512 95.5961 100.6C95.5961 97.752 97.5641 95.976 99.6121 95.976C101.948 95.976 103.212 97.656 103.212 100.136C103.212 100.504 103.164 100.856 103.116 101.08H97.4041C97.5481 102.76 98.6041 103.768 100.124 103.768C100.908 103.768 101.58 103.528 102.22 103.112L102.86 104.28C102.044 104.824 101.036 105.208 99.8841 105.208ZM97.3881 99.8H101.612C101.612 98.296 100.924 97.416 99.6441 97.416C98.5401 97.416 97.5641 98.264 97.3881 99.8ZM105.267 105V96.2H106.771L106.915 97.432H106.963C107.715 96.632 108.595 95.976 109.683 95.976C110.995 95.976 111.731 96.584 112.115 97.592C112.979 96.664 113.875 95.976 114.979 95.976C116.819 95.976 117.683 97.224 117.683 99.464V105H115.843V99.688C115.843 98.168 115.363 97.56 114.371 97.56C113.763 97.56 113.123 97.96 112.387 98.76V105H110.547V99.688C110.547 98.168 110.083 97.56 109.075 97.56C108.483 97.56 107.827 97.96 107.107 98.76V105H105.267ZM124.009 105.208C121.625 105.208 119.721 103.512 119.721 100.6C119.721 97.752 121.689 95.976 123.737 95.976C126.073 95.976 127.337 97.656 127.337 100.136C127.337 100.504 127.289 100.856 127.241 101.08H121.529C121.673 102.76 122.729 103.768 124.249 103.768C125.033 103.768 125.705 103.528 126.345 103.112L126.985 104.28C126.169 104.824 125.161 105.208 124.009 105.208ZM121.513 99.8H125.737C125.737 98.296 125.049 97.416 123.769 97.416C122.665 97.416 121.689 98.264 121.513 99.8ZM129.392 105V96.2H130.896L131.04 97.416H131.088C131.904 96.632 132.8 95.976 134 95.976C135.872 95.976 136.704 97.224 136.704 99.464V105H134.864V99.688C134.864 98.168 134.416 97.56 133.376 97.56C132.56 97.56 132 97.976 131.232 98.76V105H129.392ZM142.336 105.208C140.352 105.208 139.664 103.976 139.664 102.12V97.672H138.384V96.296L139.76 96.2L139.968 93.768H141.504V96.2H143.792V97.672H141.504V102.136C141.504 103.192 141.872 103.736 142.784 103.736C143.088 103.736 143.472 103.64 143.728 103.528L144.064 104.888C143.568 105.048 142.976 105.208 142.336 105.208Z" fill="#A7AC39"/>
<rect x="200" y="84" width="1" height="28" fill="#E7E7E7"/>
<path d="M242.6 105V93.256H244.088V105H242.6ZM247.16 105V96.312H248.36L248.488 97.56H248.536C249.368 96.744 250.264 96.088 251.448 96.088C253.272 96.088 254.104 97.272 254.104 99.496V105H252.648V99.688C252.648 98.056 252.152 97.368 251 97.368C250.104 97.368 249.496 97.816 248.616 98.696V105H247.16ZM259.213 105.208C257.981 105.208 256.797 104.696 255.965 104.008L256.685 103.048C257.437 103.656 258.221 104.072 259.261 104.072C260.413 104.072 260.973 103.464 260.973 102.712C260.973 101.816 259.949 101.432 258.989 101.064C257.773 100.616 256.445 100.024 256.445 98.552C256.445 97.176 257.565 96.088 259.453 96.088C260.525 96.088 261.469 96.536 262.141 97.064L261.437 98.008C260.845 97.56 260.237 97.24 259.469 97.24C258.365 97.24 257.853 97.816 257.853 98.488C257.853 99.32 258.749 99.624 259.725 99.992C260.989 100.472 262.381 100.984 262.381 102.632C262.381 104.04 261.261 105.208 259.213 105.208ZM266.802 105.208C264.946 105.208 264.322 104.04 264.322 102.312V97.496H263.026V96.392L264.386 96.312L264.562 93.864H265.778V96.312H268.13V97.496H265.778V102.344C265.778 103.416 266.114 104.024 267.122 104.024C267.426 104.024 267.826 103.912 268.114 103.8L268.402 104.888C267.906 105.048 267.33 105.208 266.802 105.208ZM271.706 105.208C270.25 105.208 269.162 104.312 269.162 102.744C269.162 100.856 270.81 99.912 274.506 99.496C274.506 98.376 274.138 97.304 272.714 97.304C271.706 97.304 270.794 97.768 270.106 98.232L269.53 97.224C270.33 96.712 271.562 96.088 272.954 96.088C275.066 96.088 275.962 97.512 275.962 99.656V105H274.762L274.634 103.96H274.586C273.754 104.648 272.778 105.208 271.706 105.208ZM272.122 104.04C272.97 104.04 273.658 103.64 274.506 102.888V100.456C271.578 100.808 270.586 101.528 270.586 102.648C270.586 103.64 271.258 104.04 272.122 104.04ZM280.274 105.208C279.186 105.208 278.738 104.504 278.738 103.272V92.264H280.194V103.368C280.194 103.816 280.386 103.992 280.61 103.992C280.69 103.992 280.754 103.992 280.914 103.96L281.122 105.08C280.914 105.16 280.674 105.208 280.274 105.208ZM284.836 105.208C283.748 105.208 283.3 104.504 283.3 103.272V92.264H284.756V103.368C284.756 103.816 284.948 103.992 285.172 103.992C285.252 103.992 285.316 103.992 285.476 103.96L285.684 105.08C285.476 105.16 285.236 105.208 284.836 105.208ZM293.713 105.208C292.481 105.208 291.297 104.696 290.465 104.008L291.185 103.048C291.937 103.656 292.721 104.072 293.761 104.072C294.913 104.072 295.473 103.464 295.473 102.712C295.473 101.816 294.449 101.432 293.489 101.064C292.273 100.616 290.945 100.024 290.945 98.552C290.945 97.176 292.065 96.088 293.953 96.088C295.025 96.088 295.969 96.536 296.641 97.064L295.937 98.008C295.345 97.56 294.737 97.24 293.969 97.24C292.865 97.24 292.353 97.816 292.353 98.488C292.353 99.32 293.249 99.624 294.225 99.992C295.489 100.472 296.881 100.984 296.881 102.632C296.881 104.04 295.761 105.208 293.713 105.208ZM302.301 105.208C300.173 105.208 298.269 103.544 298.269 100.664C298.269 97.768 300.173 96.088 302.301 96.088C304.429 96.088 306.333 97.768 306.333 100.664C306.333 103.544 304.429 105.208 302.301 105.208ZM302.301 103.992C303.805 103.992 304.829 102.664 304.829 100.664C304.829 98.664 303.805 97.304 302.301 97.304C300.797 97.304 299.789 98.664 299.789 100.664C299.789 102.664 300.797 103.992 302.301 103.992ZM310.164 105.208C309.076 105.208 308.628 104.504 308.628 103.272V92.264H310.084V103.368C310.084 103.816 310.276 103.992 310.5 103.992C310.58 103.992 310.644 103.992 310.804 103.96L311.012 105.08C310.804 105.16 310.564 105.208 310.164 105.208ZM315.719 105.208C313.895 105.208 313.079 104.024 313.079 101.816V96.312H314.535V101.64C314.535 103.256 315.015 103.944 316.167 103.944C317.063 103.944 317.687 103.512 318.519 102.472V96.312H319.975V105H318.759L318.647 103.64H318.599C317.783 104.584 316.919 105.208 315.719 105.208ZM325.646 105.208C323.789 105.208 323.166 104.04 323.166 102.312V97.496H321.87V96.392L323.23 96.312L323.406 93.864H324.622V96.312H326.974V97.496H324.622V102.344C324.622 103.416 324.958 104.024 325.966 104.024C326.27 104.024 326.67 103.912 326.958 103.8L327.246 104.888C326.75 105.048 326.174 105.208 325.646 105.208ZM328.941 105V96.312H330.397V105H328.941ZM329.677 94.52C329.101 94.52 328.701 94.136 328.701 93.544C328.701 92.984 329.101 92.6 329.677 92.6C330.253 92.6 330.653 92.984 330.653 93.544C330.653 94.136 330.253 94.52 329.677 94.52ZM336.723 105.208C334.595 105.208 332.691 103.544 332.691 100.664C332.691 97.768 334.595 96.088 336.723 96.088C338.851 96.088 340.755 97.768 340.755 100.664C340.755 103.544 338.851 105.208 336.723 105.208ZM336.723 103.992C338.227 103.992 339.251 102.664 339.251 100.664C339.251 98.664 338.227 97.304 336.723 97.304C335.219 97.304 334.211 98.664 334.211 100.664C334.211 102.664 335.219 103.992 336.723 103.992ZM343.05 105V96.312H344.25L344.378 97.56H344.426C345.258 96.744 346.154 96.088 347.338 96.088C349.162 96.088 349.994 97.272 349.994 99.496V105H348.538V99.688C348.538 98.056 348.042 97.368 346.89 97.368C345.994 97.368 345.386 97.816 344.506 98.696V105H343.05ZM359.914 105.208C357.61 105.208 355.754 103.528 355.754 100.664C355.754 97.848 357.658 96.088 359.674 96.088C361.882 96.088 363.13 97.688 363.13 100.168C363.13 100.488 363.098 100.792 363.066 101H357.21C357.306 102.856 358.442 104.04 360.09 104.04C360.938 104.04 361.626 103.784 362.266 103.352L362.794 104.312C362.026 104.808 361.098 105.208 359.914 105.208ZM357.194 99.944H361.85C361.85 98.2 361.05 97.256 359.69 97.256C358.458 97.256 357.37 98.248 357.194 99.944ZM366.805 105.208C365.717 105.208 365.269 104.504 365.269 103.272V92.264H366.725V103.368C366.725 103.816 366.917 103.992 367.141 103.992C367.221 103.992 367.285 103.992 367.445 103.96L367.653 105.08C367.445 105.16 367.205 105.208 366.805 105.208ZM373.335 105.208C371.031 105.208 369.175 103.528 369.175 100.664C369.175 97.848 371.079 96.088 373.095 96.088C375.303 96.088 376.551 97.688 376.551 100.168C376.551 100.488 376.519 100.792 376.487 101H370.631C370.727 102.856 371.863 104.04 373.511 104.04C374.359 104.04 375.047 103.784 375.687 103.352L376.215 104.312C375.447 104.808 374.519 105.208 373.335 105.208ZM370.615 99.944H375.271C375.271 98.2 374.471 97.256 373.111 97.256C371.879 97.256 370.791 98.248 370.615 99.944ZM382.115 105.208C379.811 105.208 378.035 103.544 378.035 100.664C378.035 97.768 380.003 96.088 382.227 96.088C383.363 96.088 384.147 96.568 384.771 97.112L384.019 98.072C383.507 97.624 382.979 97.304 382.291 97.304C380.707 97.304 379.555 98.664 379.555 100.664C379.555 102.664 380.643 103.992 382.243 103.992C383.043 103.992 383.747 103.624 384.291 103.128L384.931 104.104C384.147 104.808 383.155 105.208 382.115 105.208ZM389.396 105.208C387.539 105.208 386.916 104.04 386.916 102.312V97.496H385.62V96.392L386.98 96.312L387.156 93.864H388.372V96.312H390.724V97.496H388.372V102.344C388.372 103.416 388.708 104.024 389.716 104.024C390.02 104.024 390.42 103.912 390.708 103.8L390.996 104.888C390.5 105.048 389.924 105.208 389.396 105.208ZM392.691 105V96.312H393.891L394.019 97.896H394.067C394.675 96.792 395.555 96.088 396.531 96.088C396.915 96.088 397.187 96.136 397.459 96.28L397.187 97.56C396.899 97.448 396.691 97.416 396.339 97.416C395.619 97.416 394.723 97.928 394.147 99.416V105H392.691ZM402.098 105.208C399.97 105.208 398.066 103.544 398.066 100.664C398.066 97.768 399.97 96.088 402.098 96.088C404.226 96.088 406.13 97.768 406.13 100.664C406.13 103.544 404.226 105.208 402.098 105.208ZM402.098 103.992C403.602 103.992 404.626 102.664 404.626 100.664C404.626 98.664 403.602 97.304 402.098 97.304C400.594 97.304 399.586 98.664 399.586 100.664C399.586 102.664 400.594 103.992 402.098 103.992ZM409.961 105.208C408.873 105.208 408.425 104.504 408.425 103.272V92.264H409.881V103.368C409.881 103.816 410.073 103.992 410.297 103.992C410.377 103.992 410.441 103.992 410.601 103.96L410.809 105.08C410.601 105.16 410.361 105.208 409.961 105.208ZM413.132 108.744C412.716 108.744 412.38 108.68 412.108 108.568L412.396 107.4C412.572 107.464 412.828 107.544 413.052 107.544C414.044 107.544 414.668 106.744 415.02 105.672L415.212 105.016L411.724 96.312H413.244L415.02 101.144C415.276 101.896 415.58 102.792 415.852 103.576H415.932C416.172 102.792 416.428 101.912 416.668 101.144L418.22 96.312H419.644L416.364 105.72C415.772 107.432 414.86 108.744 413.132 108.744ZM423.603 105.208C422.371 105.208 421.187 104.696 420.355 104.008L421.075 103.048C421.827 103.656 422.611 104.072 423.651 104.072C424.803 104.072 425.363 103.464 425.363 102.712C425.363 101.816 424.339 101.432 423.379 101.064C422.163 100.616 420.835 100.024 420.835 98.552C420.835 97.176 421.955 96.088 423.843 96.088C424.915 96.088 425.859 96.536 426.531 97.064L425.827 98.008C425.235 97.56 424.627 97.24 423.859 97.24C422.755 97.24 422.243 97.816 422.243 98.488C422.243 99.32 423.139 99.624 424.115 99.992C425.379 100.472 426.771 100.984 426.771 102.632C426.771 104.04 425.651 105.208 423.603 105.208ZM428.816 105V96.312H430.272V105H428.816ZM429.552 94.52C428.976 94.52 428.576 94.136 428.576 93.544C428.576 92.984 428.976 92.6 429.552 92.6C430.128 92.6 430.528 92.984 430.528 93.544C430.528 94.136 430.128 94.52 429.552 94.52ZM435.494 105.208C434.262 105.208 433.078 104.696 432.246 104.008L432.966 103.048C433.718 103.656 434.502 104.072 435.542 104.072C436.694 104.072 437.254 103.464 437.254 102.712C437.254 101.816 436.23 101.432 435.27 101.064C434.054 100.616 432.726 100.024 432.726 98.552C432.726 97.176 433.846 96.088 435.734 96.088C436.806 96.088 437.75 96.536 438.422 97.064L437.718 98.008C437.126 97.56 436.518 97.24 435.75 97.24C434.646 97.24 434.134 97.816 434.134 98.488C434.134 99.32 435.03 99.624 436.006 99.992C437.27 100.472 438.662 100.984 438.662 102.632C438.662 104.04 437.542 105.208 435.494 105.208ZM446.557 105.208C445.325 105.208 444.141 104.696 443.309 104.008L444.029 103.048C444.781 103.656 445.565 104.072 446.605 104.072C447.757 104.072 448.317 103.464 448.317 102.712C448.317 101.816 447.293 101.432 446.333 101.064C445.117 100.616 443.789 100.024 443.789 98.552C443.789 97.176 444.909 96.088 446.797 96.088C447.869 96.088 448.813 96.536 449.485 97.064L448.781 98.008C448.189 97.56 447.581 97.24 446.812 97.24C445.709 97.24 445.197 97.816 445.197 98.488C445.197 99.32 446.093 99.624 447.069 99.992C448.333 100.472 449.725 100.984 449.725 102.632C449.725 104.04 448.605 105.208 446.557 105.208ZM451.913 108.744C451.497 108.744 451.161 108.68 450.889 108.568L451.177 107.4C451.353 107.464 451.609 107.544 451.833 107.544C452.825 107.544 453.449 106.744 453.801 105.672L453.993 105.016L450.505 96.312H452.025L453.801 101.144C454.057 101.896 454.361 102.792 454.633 103.576H454.713C454.953 102.792 455.209 101.912 455.449 101.144L457.001 96.312H458.425L455.145 105.72C454.553 107.432 453.641 108.744 451.913 108.744ZM462.385 105.208C461.153 105.208 459.969 104.696 459.137 104.008L459.857 103.048C460.609 103.656 461.393 104.072 462.433 104.072C463.585 104.072 464.145 103.464 464.145 102.712C464.145 101.816 463.121 101.432 462.161 101.064C460.945 100.616 459.617 100.024 459.617 98.552C459.617 97.176 460.737 96.088 462.625 96.088C463.697 96.088 464.641 96.536 465.313 97.064L464.609 98.008C464.017 97.56 463.409 97.24 462.641 97.24C461.537 97.24 461.025 97.816 461.025 98.488C461.025 99.32 461.921 99.624 462.897 99.992C464.161 100.472 465.553 100.984 465.553 102.632C465.553 104.04 464.433 105.208 462.385 105.208ZM469.974 105.208C468.118 105.208 467.494 104.04 467.494 102.312V97.496H466.198V96.392L467.558 96.312L467.734 93.864H468.95V96.312H471.302V97.496H468.95V102.344C468.95 103.416 469.286 104.024 470.294 104.024C470.598 104.024 470.998 103.912 471.286 103.8L471.574 104.888C471.078 105.048 470.502 105.208 469.974 105.208ZM476.539 105.208C474.235 105.208 472.379 103.528 472.379 100.664C472.379 97.848 474.283 96.088 476.299 96.088C478.507 96.088 479.755 97.688 479.755 100.168C479.755 100.488 479.723 100.792 479.691 101H473.835C473.931 102.856 475.067 104.04 476.715 104.04C477.563 104.04 478.251 103.784 478.891 103.352L479.419 104.312C478.651 104.808 477.723 105.208 476.539 105.208ZM473.819 99.944H478.475C478.475 98.2 477.675 97.256 476.315 97.256C475.083 97.256 473.995 98.248 473.819 99.944ZM481.894 105V96.312H483.094L483.222 97.576H483.27C484.022 96.744 484.934 96.088 485.974 96.088C487.302 96.088 488.022 96.728 488.374 97.752C489.27 96.776 490.182 96.088 491.238 96.088C493.03 96.088 493.878 97.272 493.878 99.496V105H492.422V99.688C492.422 98.056 491.91 97.368 490.806 97.368C490.134 97.368 489.43 97.8 488.614 98.696V105H487.158V99.688C487.158 98.056 486.646 97.368 485.542 97.368C484.886 97.368 484.15 97.8 483.35 98.696V105H481.894ZM496.434 108.04L496.082 107.176C497.09 106.728 497.682 105.944 497.682 105C497.618 105.016 497.57 105.016 497.506 105.016C496.946 105.016 496.434 104.664 496.434 103.992C496.434 103.368 496.946 102.968 497.538 102.968C498.306 102.968 498.77 103.624 498.77 104.696C498.77 106.232 497.874 107.432 496.434 108.04ZM504.738 108.664V96.312H505.938L506.066 97.304H506.114C506.898 96.664 507.874 96.088 508.882 96.088C511.122 96.088 512.338 97.848 512.338 100.52C512.338 103.496 510.562 105.208 508.562 105.208C507.778 105.208 506.946 104.84 506.162 104.2L506.194 105.72V108.664H504.738ZM508.322 103.992C509.762 103.992 510.818 102.696 510.818 100.536C510.818 98.616 510.178 97.32 508.53 97.32C507.794 97.32 507.042 97.736 506.194 98.52V103.08C506.978 103.752 507.746 103.992 508.322 103.992ZM514.66 105V96.312H515.86L515.988 97.896H516.036C516.644 96.792 517.524 96.088 518.5 96.088C518.884 96.088 519.156 96.136 519.428 96.28L519.156 97.56C518.868 97.448 518.66 97.416 518.308 97.416C517.588 97.416 516.692 97.928 516.116 99.416V105H514.66ZM524.195 105.208C521.891 105.208 520.035 103.528 520.035 100.664C520.035 97.848 521.939 96.088 523.955 96.088C526.163 96.088 527.411 97.688 527.411 100.168C527.411 100.488 527.379 100.792 527.347 101H521.491C521.587 102.856 522.723 104.04 524.371 104.04C525.219 104.04 525.907 103.784 526.547 103.352L527.075 104.312C526.307 104.808 525.379 105.208 524.195 105.208ZM521.475 99.944H526.131C526.131 98.2 525.331 97.256 523.971 97.256C522.739 97.256 521.651 98.248 521.475 99.944ZM532.114 105.208C530.258 105.208 529.634 104.04 529.634 102.312V97.496H528.338V96.392L529.698 96.312L529.874 93.864H531.09V96.312H533.442V97.496H531.09V102.344C531.09 103.416 531.426 104.024 532.434 104.024C532.738 104.024 533.138 103.912 533.426 103.8L533.714 104.888C533.218 105.048 532.642 105.208 532.114 105.208ZM535.41 105V96.312H536.866V105H535.41ZM536.146 94.52C535.57 94.52 535.17 94.136 535.17 93.544C535.17 92.984 535.57 92.6 536.146 92.6C536.722 92.6 537.122 92.984 537.122 93.544C537.122 94.136 536.722 94.52 536.146 94.52ZM543.24 105.208C540.936 105.208 539.16 103.544 539.16 100.664C539.16 97.768 541.128 96.088 543.352 96.088C544.488 96.088 545.272 96.568 545.896 97.112L545.144 98.072C544.632 97.624 544.104 97.304 543.416 97.304C541.832 97.304 540.68 98.664 540.68 100.664C540.68 102.664 541.768 103.992 543.368 103.992C544.168 103.992 544.872 103.624 545.416 103.128L546.056 104.104C545.272 104.808 544.28 105.208 543.24 105.208ZM547.956 105V96.312H549.412V105H547.956ZM548.692 94.52C548.116 94.52 547.716 94.136 547.716 93.544C547.716 92.984 548.116 92.6 548.692 92.6C549.268 92.6 549.668 92.984 549.668 93.544C549.668 94.136 549.268 94.52 548.692 94.52ZM552.363 108.664V96.312H553.563L553.691 97.304H553.739C554.523 96.664 555.499 96.088 556.507 96.088C558.747 96.088 559.963 97.848 559.963 100.52C559.963 103.496 558.187 105.208 556.187 105.208C555.403 105.208 554.571 104.84 553.787 104.2L553.819 105.72V108.664H552.363ZM555.947 103.992C557.387 103.992 558.443 102.696 558.443 100.536C558.443 98.616 557.803 97.32 556.155 97.32C555.419 97.32 554.667 97.736 553.819 98.52V103.08C554.603 103.752 555.371 103.992 555.947 103.992ZM564.035 105.208C562.579 105.208 561.491 104.312 561.491 102.744C561.491 100.856 563.139 99.912 566.835 99.496C566.835 98.376 566.467 97.304 565.043 97.304C564.035 97.304 563.123 97.768 562.435 98.232L561.859 97.224C562.659 96.712 563.891 96.088 565.283 96.088C567.395 96.088 568.291 97.512 568.291 99.656V105H567.091L566.963 103.96H566.915C566.083 104.648 565.107 105.208 564.035 105.208ZM564.451 104.04C565.299 104.04 565.987 103.64 566.835 102.888V100.456C563.907 100.808 562.914 101.528 562.914 102.648C562.914 103.64 563.587 104.04 564.451 104.04ZM573.567 105.208C571.711 105.208 571.087 104.04 571.087 102.312V97.496H569.791V96.392L571.151 96.312L571.327 93.864H572.543V96.312H574.895V97.496H572.543V102.344C572.543 103.416 572.879 104.024 573.887 104.024C574.191 104.024 574.591 103.912 574.879 103.8L575.167 104.888C574.671 105.048 574.095 105.208 573.567 105.208ZM576.863 105V96.312H578.319V105H576.863ZM577.599 94.52C577.023 94.52 576.623 94.136 576.623 93.544C576.623 92.984 577.023 92.6 577.599 92.6C578.175 92.6 578.575 92.984 578.575 93.544C578.575 94.136 578.175 94.52 577.599 94.52ZM584.645 105.208C582.517 105.208 580.613 103.544 580.613 100.664C580.613 97.768 582.517 96.088 584.645 96.088C586.773 96.088 588.677 97.768 588.677 100.664C588.677 103.544 586.773 105.208 584.645 105.208ZM584.645 103.992C586.149 103.992 587.173 102.664 587.173 100.664C587.173 98.664 586.149 97.304 584.645 97.304C583.141 97.304 582.133 98.664 582.133 100.664C582.133 102.664 583.141 103.992 584.645 103.992ZM590.972 105V96.312H592.172L592.3 97.56H592.348C593.18 96.744 594.076 96.088 595.26 96.088C597.084 96.088 597.916 97.272 597.916 99.496V105H596.46V99.688C596.46 98.056 595.964 97.368 594.812 97.368C593.916 97.368 593.308 97.816 592.428 98.696V105H590.972ZM607.755 105.208C605.451 105.208 603.675 103.544 603.675 100.664C603.675 97.768 605.643 96.088 607.867 96.088C609.003 96.088 609.787 96.568 610.411 97.112L609.659 98.072C609.147 97.624 608.619 97.304 607.931 97.304C606.347 97.304 605.195 98.664 605.195 100.664C605.195 102.664 606.283 103.992 607.883 103.992C608.683 103.992 609.387 103.624 609.931 103.128L610.571 104.104C609.787 104.808 608.795 105.208 607.755 105.208ZM615.457 105.208C613.329 105.208 611.425 103.544 611.425 100.664C611.425 97.768 613.329 96.088 615.457 96.088C617.585 96.088 619.489 97.768 619.489 100.664C619.489 103.544 617.585 105.208 615.457 105.208ZM615.457 103.992C616.961 103.992 617.985 102.664 617.985 100.664C617.985 98.664 616.961 97.304 615.457 97.304C613.953 97.304 612.945 98.664 612.945 100.664C612.945 102.664 613.953 103.992 615.457 103.992ZM621.785 108.664V96.312H622.985L623.113 97.304H623.161C623.945 96.664 624.921 96.088 625.929 96.088C628.169 96.088 629.385 97.848 629.385 100.52C629.385 103.496 627.609 105.208 625.609 105.208C624.825 105.208 623.993 104.84 623.209 104.2L623.241 105.72V108.664H621.785ZM625.369 103.992C626.809 103.992 627.865 102.696 627.865 100.536C627.865 98.616 627.225 97.32 625.577 97.32C624.841 97.32 624.089 97.736 623.241 98.52V103.08C624.025 103.752 624.793 103.992 625.369 103.992ZM631.706 108.664V96.312H632.906L633.034 97.304H633.082C633.866 96.664 634.842 96.088 635.85 96.088C638.09 96.088 639.306 97.848 639.306 100.52C639.306 103.496 637.53 105.208 635.53 105.208C634.746 105.208 633.914 104.84 633.13 104.2L633.162 105.72V108.664H631.706ZM635.29 103.992C636.73 103.992 637.786 102.696 637.786 100.536C637.786 98.616 637.146 97.32 635.498 97.32C634.762 97.32 634.01 97.736 633.162 98.52V103.08C633.946 103.752 634.714 103.992 635.29 103.992ZM645.132 105.208C642.828 105.208 640.972 103.528 640.972 100.664C640.972 97.848 642.876 96.088 644.892 96.088C647.1 96.088 648.348 97.688 648.348 100.168C648.348 100.488 648.316 100.792 648.284 101H642.428C642.524 102.856 643.66 104.04 645.308 104.04C646.156 104.04 646.844 103.784 647.484 103.352L648.012 104.312C647.244 104.808 646.316 105.208 645.132 105.208ZM642.412 99.944H647.068C647.068 98.2 646.268 97.256 644.908 97.256C643.676 97.256 642.588 98.248 642.412 99.944ZM650.488 105V96.312H651.688L651.816 97.896H651.864C652.472 96.792 653.352 96.088 654.328 96.088C654.712 96.088 654.984 96.136 655.256 96.28L654.984 97.56C654.696 97.448 654.488 97.416 654.136 97.416C653.416 97.416 652.52 97.928 651.944 99.416V105H650.488ZM663.693 105.208C661.389 105.208 659.613 103.544 659.613 100.664C659.613 97.768 661.581 96.088 663.805 96.088C664.941 96.088 665.725 96.568 666.349 97.112L665.597 98.072C665.085 97.624 664.557 97.304 663.869 97.304C662.285 97.304 661.133 98.664 661.133 100.664C661.133 102.664 662.221 103.992 663.821 103.992C664.621 103.992 665.325 103.624 665.869 103.128L666.509 104.104C665.725 104.808 664.733 105.208 663.693 105.208ZM671.395 105.208C669.267 105.208 667.363 103.544 667.363 100.664C667.363 97.768 669.267 96.088 671.395 96.088C673.523 96.088 675.427 97.768 675.427 100.664C675.427 103.544 673.523 105.208 671.395 105.208ZM671.395 103.992C672.899 103.992 673.923 102.664 673.923 100.664C673.923 98.664 672.899 97.304 671.395 97.304C669.891 97.304 668.883 98.664 668.883 100.664C668.883 102.664 669.891 103.992 671.395 103.992ZM680.25 105.208C678.426 105.208 677.61 104.024 677.61 101.816V96.312H679.066V101.64C679.066 103.256 679.546 103.944 680.698 103.944C681.594 103.944 682.218 103.512 683.05 102.472V96.312H684.506V105H683.29L683.178 103.64H683.13C682.314 104.584 681.45 105.208 680.25 105.208ZM688.977 105.208C687.889 105.208 687.441 104.504 687.441 103.272V92.264H688.897V103.368C688.897 103.816 689.089 103.992 689.313 103.992C689.393 103.992 689.457 103.992 689.617 103.96L689.825 105.08C689.617 105.16 689.377 105.208 688.977 105.208ZM694.963 105.208C692.787 105.208 691.379 103.56 691.379 100.664C691.379 97.848 693.155 96.088 695.139 96.088C696.163 96.088 696.819 96.472 697.587 97.112L697.523 95.608V92.264H698.963V105H697.779L697.651 103.976H697.603C696.915 104.648 696.003 105.208 694.963 105.208ZM695.283 103.992C696.083 103.992 696.787 103.592 697.523 102.792V98.232C696.771 97.576 696.115 97.32 695.395 97.32C693.987 97.32 692.883 98.664 692.883 100.648C692.883 102.744 693.747 103.992 695.283 103.992ZM709.327 105.208C708.527 105.208 707.615 104.792 706.863 104.104H706.799L706.671 105H705.503V92.264H706.959V95.752L706.911 97.32C707.695 96.632 708.671 96.088 709.631 96.088C711.887 96.088 713.103 97.848 713.103 100.504C713.103 103.496 711.327 105.208 709.327 105.208ZM709.087 103.992C710.527 103.992 711.583 102.696 711.583 100.536C711.583 98.616 710.943 97.32 709.295 97.32C708.559 97.32 707.791 97.736 706.959 98.52V103.08C707.727 103.752 708.511 103.992 709.087 103.992ZM718.898 105.208C716.594 105.208 714.738 103.528 714.738 100.664C714.738 97.848 716.642 96.088 718.658 96.088C720.866 96.088 722.114 97.688 722.114 100.168C722.114 100.488 722.082 100.792 722.05 101H716.194C716.29 102.856 717.426 104.04 719.074 104.04C719.922 104.04 720.61 103.784 721.25 103.352L721.778 104.312C721.01 104.808 720.082 105.208 718.898 105.208ZM716.178 99.944H720.834C720.834 98.2 720.034 97.256 718.674 97.256C717.442 97.256 716.354 98.248 716.178 99.944ZM727.831 105V96.312H729.031L729.159 97.896H729.207C729.815 96.792 730.695 96.088 731.671 96.088C732.055 96.088 732.327 96.136 732.599 96.28L732.327 97.56C732.039 97.448 731.831 97.416 731.479 97.416C730.759 97.416 729.863 97.928 729.287 99.416V105H727.831ZM737.367 105.208C735.063 105.208 733.207 103.528 733.207 100.664C733.207 97.848 735.111 96.088 737.127 96.088C739.335 96.088 740.583 97.688 740.583 100.168C740.583 100.488 740.551 100.792 740.519 101H734.663C734.759 102.856 735.895 104.04 737.543 104.04C738.391 104.04 739.079 103.784 739.719 103.352L740.247 104.312C739.479 104.808 738.551 105.208 737.367 105.208ZM734.647 99.944H739.303C739.303 98.2 738.503 97.256 737.143 97.256C735.911 97.256 734.823 98.248 734.647 99.944ZM742.722 105V96.312H743.922L744.05 97.576H744.098C744.85 96.744 745.762 96.088 746.802 96.088C748.13 96.088 748.85 96.728 749.202 97.752C750.098 96.776 751.01 96.088 752.066 96.088C753.858 96.088 754.706 97.272 754.706 99.496V105H753.25V99.688C753.25 98.056 752.738 97.368 751.634 97.368C750.962 97.368 750.258 97.8 749.442 98.696V105H747.986V99.688C747.986 98.056 747.474 97.368 746.37 97.368C745.714 97.368 744.978 97.8 744.178 98.696V105H742.722ZM759.535 105.208C758.079 105.208 756.991 104.312 756.991 102.744C756.991 100.856 758.639 99.912 762.335 99.496C762.335 98.376 761.967 97.304 760.543 97.304C759.535 97.304 758.623 97.768 757.935 98.232L757.359 97.224C758.159 96.712 759.391 96.088 760.783 96.088C762.895 96.088 763.791 97.512 763.791 99.656V105H762.591L762.463 103.96H762.415C761.583 104.648 760.607 105.208 759.535 105.208ZM759.951 104.04C760.799 104.04 761.487 103.64 762.335 102.888V100.456C759.407 100.808 758.414 101.528 758.414 102.648C758.414 103.64 759.087 104.04 759.951 104.04ZM769.526 105.208C767.35 105.208 765.942 103.56 765.942 100.664C765.942 97.848 767.718 96.088 769.702 96.088C770.726 96.088 771.382 96.472 772.15 97.112L772.086 95.608V92.264H773.526V105H772.342L772.214 103.976H772.166C771.478 104.648 770.566 105.208 769.526 105.208ZM769.846 103.992C770.646 103.992 771.35 103.592 772.086 102.792V98.232C771.334 97.576 770.678 97.32 769.958 97.32C768.55 97.32 767.446 98.664 767.446 100.648C767.446 102.744 768.31 103.992 769.846 103.992ZM779.992 105.208C777.688 105.208 775.832 103.528 775.832 100.664C775.832 97.848 777.736 96.088 779.752 96.088C781.96 96.088 783.208 97.688 783.208 100.168C783.208 100.488 783.176 100.792 783.144 101H777.288C777.384 102.856 778.52 104.04 780.168 104.04C781.016 104.04 781.704 103.784 782.344 103.352L782.872 104.312C782.104 104.808 781.176 105.208 779.992 105.208ZM777.272 99.944H781.928C781.928 98.2 781.128 97.256 779.768 97.256C778.536 97.256 777.448 98.248 777.272 99.944ZM788.925 105V96.312H790.381V105H788.925ZM789.661 94.52C789.085 94.52 788.685 94.136 788.685 93.544C788.685 92.984 789.085 92.6 789.661 92.6C790.237 92.6 790.637 92.984 790.637 93.544C790.637 94.136 790.237 94.52 789.661 94.52ZM793.331 105V96.312H794.531L794.659 97.56H794.707C795.539 96.744 796.435 96.088 797.619 96.088C799.443 96.088 800.275 97.272 800.275 99.496V105H798.819V99.688C798.819 98.056 798.323 97.368 797.171 97.368C796.275 97.368 795.667 97.816 794.787 98.696V105H793.331ZM805.849 105.208C803.993 105.208 803.369 104.04 803.369 102.312V97.496H802.073V96.392L803.433 96.312L803.609 93.864H804.825V96.312H807.177V97.496H804.825V102.344C804.825 103.416 805.161 104.024 806.169 104.024C806.473 104.024 806.873 103.912 807.161 103.8L807.449 104.888C806.953 105.048 806.377 105.208 805.849 105.208ZM812.286 105.208C810.158 105.208 808.254 103.544 808.254 100.664C808.254 97.768 810.158 96.088 812.286 96.088C814.414 96.088 816.318 97.768 816.318 100.664C816.318 103.544 814.414 105.208 812.286 105.208ZM812.286 103.992C813.79 103.992 814.814 102.664 814.814 100.664C814.814 98.664 813.79 97.304 812.286 97.304C810.782 97.304 809.774 98.664 809.774 100.664C809.774 102.664 810.782 103.992 812.286 103.992ZM825.615 105.208C823.311 105.208 821.535 103.544 821.535 100.664C821.535 97.768 823.503 96.088 825.727 96.088C826.863 96.088 827.647 96.568 828.271 97.112L827.519 98.072C827.007 97.624 826.479 97.304 825.791 97.304C824.207 97.304 823.055 98.664 823.055 100.664C823.055 102.664 824.143 103.992 825.743 103.992C826.543 103.992 827.247 103.624 827.791 103.128L828.431 104.104C827.647 104.808 826.655 105.208 825.615 105.208ZM833.317 105.208C831.189 105.208 829.285 103.544 829.285 100.664C829.285 97.768 831.189 96.088 833.317 96.088C835.445 96.088 837.349 97.768 837.349 100.664C837.349 103.544 835.445 105.208 833.317 105.208ZM833.317 103.992C834.821 103.992 835.845 102.664 835.845 100.664C835.845 98.664 834.821 97.304 833.317 97.304C831.813 97.304 830.805 98.664 830.805 100.664C830.805 102.664 831.813 103.992 833.317 103.992ZM839.644 108.664V96.312H840.844L840.972 97.304H841.02C841.804 96.664 842.78 96.088 843.788 96.088C846.028 96.088 847.244 97.848 847.244 100.52C847.244 103.496 845.468 105.208 843.468 105.208C842.684 105.208 841.852 104.84 841.068 104.2L841.1 105.72V108.664H839.644ZM843.228 103.992C844.668 103.992 845.724 102.696 845.724 100.536C845.724 98.616 845.084 97.32 843.436 97.32C842.7 97.32 841.948 97.736 841.1 98.52V103.08C841.884 103.752 842.652 103.992 843.228 103.992ZM849.566 108.664V96.312H850.766L850.894 97.304H850.942C851.726 96.664 852.702 96.088 853.71 96.088C855.95 96.088 857.166 97.848 857.166 100.52C857.166 103.496 855.39 105.208 853.39 105.208C852.606 105.208 851.774 104.84 850.99 104.2L851.022 105.72V108.664H849.566ZM853.15 103.992C854.59 103.992 855.646 102.696 855.646 100.536C855.646 98.616 855.006 97.32 853.358 97.32C852.622 97.32 851.87 97.736 851.022 98.52V103.08C851.806 103.752 852.574 103.992 853.15 103.992ZM862.992 105.208C860.688 105.208 858.832 103.528 858.832 100.664C858.832 97.848 860.736 96.088 862.752 96.088C864.96 96.088 866.208 97.688 866.208 100.168C866.208 100.488 866.176 100.792 866.144 101H860.288C860.384 102.856 861.52 104.04 863.168 104.04C864.016 104.04 864.704 103.784 865.344 103.352L865.872 104.312C865.104 104.808 864.176 105.208 862.992 105.208ZM860.272 99.944H864.928C864.928 98.2 864.128 97.256 862.768 97.256C861.536 97.256 860.448 98.248 860.272 99.944ZM868.347 105V96.312H869.547L869.675 97.896H869.723C870.331 96.792 871.211 96.088 872.187 96.088C872.571 96.088 872.843 96.136 873.115 96.28L872.843 97.56C872.555 97.448 872.347 97.416 871.995 97.416C871.275 97.416 870.379 97.928 869.803 99.416V105H868.347ZM878.368 105V97.496H877.184V96.392L878.368 96.312V94.92C878.368 93.16 879.168 92.056 880.896 92.056C881.424 92.056 881.952 92.168 882.352 92.344L882.032 93.448C881.712 93.304 881.36 93.224 881.056 93.224C880.224 93.224 879.824 93.816 879.824 94.936V96.312H881.664V97.496H879.824V105H878.368ZM886.536 105.208C884.408 105.208 882.504 103.544 882.504 100.664C882.504 97.768 884.408 96.088 886.536 96.088C888.664 96.088 890.568 97.768 890.568 100.664C890.568 103.544 888.664 105.208 886.536 105.208ZM886.536 103.992C888.04 103.992 889.064 102.664 889.064 100.664C889.064 98.664 888.04 97.304 886.536 97.304C885.032 97.304 884.024 98.664 884.024 100.664C884.024 102.664 885.032 103.992 886.536 103.992ZM892.863 105V96.312H894.319V105H892.863ZM893.599 94.52C893.023 94.52 892.623 94.136 892.623 93.544C892.623 92.984 893.023 92.6 893.599 92.6C894.175 92.6 894.575 92.984 894.575 93.544C894.575 94.136 894.175 94.52 893.599 94.52ZM898.805 105.208C897.717 105.208 897.269 104.504 897.269 103.272V92.264H898.725V103.368C898.725 103.816 898.917 103.992 899.141 103.992C899.221 103.992 899.285 103.992 899.445 103.96L899.653 105.08C899.445 105.16 899.205 105.208 898.805 105.208Z" fill="#4F4F4F"/>
<path d="M41.552 143V131.208H45.2C47.616 131.208 49.36 131.992 49.36 134.12C49.36 135.24 48.736 136.312 47.68 136.664V136.744C49.024 137.032 50 137.944 50 139.544C50 141.88 48.096 143 45.488 143H41.552ZM43.408 136.136H44.992C46.784 136.136 47.536 135.464 47.536 134.36C47.536 133.128 46.704 132.664 45.04 132.664H43.408V136.136ZM43.408 141.544H45.28C47.12 141.544 48.176 140.888 48.176 139.448C48.176 138.12 47.152 137.528 45.28 137.528H43.408V141.544ZM55.7279 143.208C53.3439 143.208 51.4399 141.512 51.4399 138.6C51.4399 135.752 53.4079 133.976 55.4559 133.976C57.7919 133.976 59.0559 135.656 59.0559 138.136C59.0559 138.504 59.0079 138.856 58.9599 139.08H53.2479C53.3919 140.76 54.4479 141.768 55.9679 141.768C56.7519 141.768 57.4239 141.528 58.0639 141.112L58.7039 142.28C57.8879 142.824 56.8799 143.208 55.7279 143.208ZM53.2319 137.8H57.4559C57.4559 136.296 56.7679 135.416 55.4879 135.416C54.3839 135.416 53.4079 136.264 53.2319 137.8ZM61.1108 143V134.2H62.6148L62.7588 135.416H62.8068C63.6228 134.632 64.5188 133.976 65.7188 133.976C67.5908 133.976 68.4228 135.224 68.4228 137.464V143H66.5828V137.688C66.5828 136.168 66.1348 135.56 65.0948 135.56C64.2788 135.56 63.7188 135.976 62.9508 136.76V143H61.1108ZM74.7591 143.208C72.3751 143.208 70.4711 141.512 70.4711 138.6C70.4711 135.752 72.4391 133.976 74.4871 133.976C76.8231 133.976 78.0871 135.656 78.0871 138.136C78.0871 138.504 78.0391 138.856 77.9911 139.08H72.2791C72.4231 140.76 73.4791 141.768 74.9991 141.768C75.7831 141.768 76.4551 141.528 77.0951 141.112L77.7351 142.28C76.9191 142.824 75.9111 143.208 74.7591 143.208ZM72.2631 137.8H76.4871C76.4871 136.296 75.7991 135.416 74.5191 135.416C73.4151 135.416 72.4391 136.264 72.2631 137.8ZM80.3991 143V135.672H79.1991V134.296L80.3991 134.2V133.096C80.3991 131.288 81.2151 130.04 83.1831 130.04C83.7751 130.04 84.3351 130.168 84.7351 130.328L84.3671 131.72C84.0471 131.576 83.7111 131.496 83.4071 131.496C82.6231 131.496 82.2391 132.008 82.2391 133.08V134.2H84.0151V135.672H82.2391V143H80.3991ZM85.6151 143V134.2H87.4551V143H85.6151ZM86.5431 132.552C85.8711 132.552 85.3911 132.12 85.3911 131.448C85.3911 130.792 85.8711 130.36 86.5431 130.36C87.2151 130.36 87.6951 130.792 87.6951 131.448C87.6951 132.12 87.2151 132.552 86.5431 132.552ZM93.1801 143.208C91.1961 143.208 90.5081 141.976 90.5081 140.12V135.672H89.2281V134.296L90.6041 134.2L90.8121 131.768H92.3481V134.2H94.6361V135.672H92.3481V140.136C92.3481 141.192 92.7161 141.736 93.6281 141.736C93.9321 141.736 94.3161 141.64 94.5721 141.528L94.9081 142.888C94.4121 143.048 93.8201 143.208 93.1801 143.208Z" fill="#A7AC39"/>
<rect x="200" y="122" width="1" height="28" fill="#E7E7E7"/>
<path d="M247.032 143.208C244.12 143.208 241.928 140.952 241.928 137.144C241.928 133.352 244.152 131.048 247.128 131.048C248.552 131.048 249.672 131.752 250.344 132.504L249.544 133.464C248.936 132.808 248.152 132.344 247.144 132.344C244.92 132.344 243.448 134.168 243.448 137.096C243.448 140.056 244.856 141.912 247.096 141.912C248.216 141.912 249.064 141.416 249.816 140.6L250.632 141.528C249.704 142.6 248.552 143.208 247.032 143.208ZM256.051 143.208C253.923 143.208 252.019 141.544 252.019 138.664C252.019 135.768 253.923 134.088 256.051 134.088C258.179 134.088 260.083 135.768 260.083 138.664C260.083 141.544 258.179 143.208 256.051 143.208ZM256.051 141.992C257.555 141.992 258.579 140.664 258.579 138.664C258.579 136.664 257.555 135.304 256.051 135.304C254.547 135.304 253.539 136.664 253.539 138.664C253.539 140.664 254.547 141.992 256.051 141.992ZM262.378 146.664V134.312H263.578L263.706 135.304H263.754C264.538 134.664 265.514 134.088 266.522 134.088C268.762 134.088 269.978 135.848 269.978 138.52C269.978 141.496 268.202 143.208 266.202 143.208C265.418 143.208 264.586 142.84 263.802 142.2L263.834 143.72V146.664H262.378ZM265.962 141.992C267.402 141.992 268.458 140.696 268.458 138.536C268.458 136.616 267.818 135.32 266.17 135.32C265.434 135.32 264.682 135.736 263.834 136.52V141.08C264.618 141.752 265.386 141.992 265.962 141.992ZM272.3 146.664V134.312H273.5L273.628 135.304H273.676C274.46 134.664 275.436 134.088 276.444 134.088C278.684 134.088 279.9 135.848 279.9 138.52C279.9 141.496 278.124 143.208 276.124 143.208C275.34 143.208 274.508 142.84 273.724 142.2L273.756 143.72V146.664H272.3ZM275.884 141.992C277.324 141.992 278.38 140.696 278.38 138.536C278.38 136.616 277.74 135.32 276.092 135.32C275.356 135.32 274.604 135.736 273.756 136.52V141.08C274.54 141.752 275.308 141.992 275.884 141.992ZM285.726 143.208C283.422 143.208 281.566 141.528 281.566 138.664C281.566 135.848 283.47 134.088 285.486 134.088C287.694 134.088 288.942 135.688 288.942 138.168C288.942 138.488 288.91 138.792 288.878 139H283.022C283.118 140.856 284.254 142.04 285.902 142.04C286.75 142.04 287.438 141.784 288.078 141.352L288.606 142.312C287.838 142.808 286.91 143.208 285.726 143.208ZM283.006 137.944H287.662C287.662 136.2 286.862 135.256 285.502 135.256C284.27 135.256 283.182 136.248 283.006 137.944ZM291.081 143V134.312H292.281L292.409 135.896H292.457C293.065 134.792 293.945 134.088 294.921 134.088C295.305 134.088 295.577 134.136 295.849 134.28L295.577 135.56C295.289 135.448 295.081 135.416 294.729 135.416C294.009 135.416 293.113 135.928 292.537 137.416V143H291.081ZM300.799 143V141.784H303.407V133.368H301.327V132.424C302.367 132.248 303.119 131.976 303.759 131.592H304.879V141.784H307.231V143H300.799ZM312.714 143.208C310.442 143.208 309.05 141.08 309.05 137.256C309.05 133.432 310.442 131.384 312.714 131.384C314.986 131.384 316.362 133.448 316.362 137.256C316.362 141.08 314.986 143.208 312.714 143.208ZM312.714 142.04C314.042 142.04 314.938 140.6 314.938 137.256C314.938 133.912 314.042 132.552 312.714 132.552C311.37 132.552 310.474 133.912 310.474 137.256C310.474 140.6 311.37 142.04 312.714 142.04ZM321.589 143.208C319.317 143.208 317.925 141.08 317.925 137.256C317.925 133.432 319.317 131.384 321.589 131.384C323.861 131.384 325.237 133.448 325.237 137.256C325.237 141.08 323.861 143.208 321.589 143.208ZM321.589 142.04C322.917 142.04 323.813 140.6 323.813 137.256C323.813 133.912 322.917 132.552 321.589 132.552C320.245 132.552 319.349 133.912 319.349 137.256C319.349 140.6 320.245 142.04 321.589 142.04ZM329.296 138.456C327.696 138.456 326.64 137.096 326.64 134.728C326.64 132.376 327.696 131.048 329.296 131.048C330.912 131.048 331.968 132.376 331.968 134.728C331.968 137.096 330.912 138.456 329.296 138.456ZM329.296 137.544C330.224 137.544 330.864 136.6 330.864 134.728C330.864 132.856 330.224 131.944 329.296 131.944C328.384 131.944 327.744 132.856 327.744 134.728C327.744 136.6 328.384 137.544 329.296 137.544ZM329.648 143.208L336.112 131.048H337.104L330.624 143.208H329.648ZM337.472 143.208C335.872 143.208 334.8 141.864 334.8 139.496C334.8 137.144 335.872 135.816 337.472 135.816C339.072 135.816 340.128 137.144 340.128 139.496C340.128 141.864 339.072 143.208 337.472 143.208ZM337.472 142.312C338.384 142.312 339.024 141.368 339.024 139.496C339.024 137.624 338.384 136.712 337.472 136.712C336.544 136.712 335.92 137.624 335.92 139.496C335.92 141.368 336.544 142.312 337.472 142.312ZM345.8 143V134.312H347L347.128 135.896H347.176C347.784 134.792 348.664 134.088 349.64 134.088C350.024 134.088 350.296 134.136 350.568 134.28L350.296 135.56C350.008 135.448 349.8 135.416 349.448 135.416C348.728 135.416 347.832 135.928 347.256 137.416V143H345.8ZM355.335 143.208C353.031 143.208 351.175 141.528 351.175 138.664C351.175 135.848 353.079 134.088 355.095 134.088C357.303 134.088 358.551 135.688 358.551 138.168C358.551 138.488 358.519 138.792 358.487 139H352.631C352.727 140.856 353.863 142.04 355.511 142.04C356.359 142.04 357.047 141.784 357.687 141.352L358.215 142.312C357.447 142.808 356.519 143.208 355.335 143.208ZM352.615 137.944H357.271C357.271 136.2 356.471 135.256 355.111 135.256C353.879 135.256 352.791 136.248 352.615 137.944ZM364.115 143.208C361.811 143.208 360.035 141.544 360.035 138.664C360.035 135.768 362.003 134.088 364.227 134.088C365.363 134.088 366.147 134.568 366.771 135.112L366.019 136.072C365.507 135.624 364.979 135.304 364.291 135.304C362.707 135.304 361.555 136.664 361.555 138.664C361.555 140.664 362.643 141.992 364.243 141.992C365.043 141.992 365.747 141.624 366.291 141.128L366.931 142.104C366.147 142.808 365.155 143.208 364.115 143.208ZM369.085 146.744C368.669 146.744 368.333 146.68 368.061 146.568L368.349 145.4C368.525 145.464 368.781 145.544 369.005 145.544C369.997 145.544 370.621 144.744 370.973 143.672L371.165 143.016L367.677 134.312H369.197L370.973 139.144C371.229 139.896 371.533 140.792 371.805 141.576H371.885C372.125 140.792 372.381 139.912 372.621 139.144L374.173 134.312H375.597L372.317 143.72C371.725 145.432 370.813 146.744 369.085 146.744ZM380.646 143.208C378.342 143.208 376.566 141.544 376.566 138.664C376.566 135.768 378.534 134.088 380.758 134.088C381.894 134.088 382.678 134.568 383.302 135.112L382.55 136.072C382.038 135.624 381.51 135.304 380.822 135.304C379.238 135.304 378.086 136.664 378.086 138.664C378.086 140.664 379.174 141.992 380.774 141.992C381.574 141.992 382.278 141.624 382.822 141.128L383.462 142.104C382.678 142.808 381.686 143.208 380.646 143.208ZM386.899 143.208C385.811 143.208 385.363 142.504 385.363 141.272V130.264H386.819V141.368C386.819 141.816 387.011 141.992 387.235 141.992C387.315 141.992 387.379 141.992 387.539 141.96L387.747 143.08C387.539 143.16 387.299 143.208 386.899 143.208ZM393.429 143.208C391.125 143.208 389.269 141.528 389.269 138.664C389.269 135.848 391.173 134.088 393.189 134.088C395.397 134.088 396.645 135.688 396.645 138.168C396.645 138.488 396.613 138.792 396.581 139H390.725C390.821 140.856 391.957 142.04 393.605 142.04C394.453 142.04 395.141 141.784 395.781 141.352L396.309 142.312C395.541 142.808 394.613 143.208 393.429 143.208ZM390.709 137.944H395.365C395.365 136.2 394.565 135.256 393.205 135.256C391.973 135.256 390.885 136.248 390.709 137.944ZM401.745 143.208C399.569 143.208 398.161 141.56 398.161 138.664C398.161 135.848 399.937 134.088 401.921 134.088C402.945 134.088 403.601 134.472 404.369 135.112L404.305 133.608V130.264H405.745V143H404.561L404.433 141.976H404.385C403.697 142.648 402.785 143.208 401.745 143.208ZM402.065 141.992C402.865 141.992 403.569 141.592 404.305 140.792V136.232C403.553 135.576 402.897 135.32 402.177 135.32C400.769 135.32 399.664 136.664 399.664 138.648C399.664 140.744 400.529 141.992 402.065 141.992ZM412.525 143V135.496H411.34V134.392L412.525 134.312V132.92C412.525 131.16 413.325 130.056 415.053 130.056C415.581 130.056 416.109 130.168 416.509 130.344L416.189 131.448C415.869 131.304 415.516 131.224 415.213 131.224C414.381 131.224 413.981 131.816 413.981 132.936V134.312H415.821V135.496H413.981V143H412.525ZM417.488 143V134.312H418.688L418.816 135.896H418.864C419.472 134.792 420.352 134.088 421.328 134.088C421.712 134.088 421.984 134.136 422.256 134.28L421.984 135.56C421.696 135.448 421.488 135.416 421.136 135.416C420.416 135.416 419.52 135.928 418.944 137.416V143H417.488ZM426.895 143.208C424.767 143.208 422.863 141.544 422.863 138.664C422.863 135.768 424.767 134.088 426.895 134.088C429.023 134.088 430.927 135.768 430.927 138.664C430.927 141.544 429.023 143.208 426.895 143.208ZM426.895 141.992C428.399 141.992 429.423 140.664 429.423 138.664C429.423 136.664 428.399 135.304 426.895 135.304C425.391 135.304 424.383 136.664 424.383 138.664C424.383 140.664 425.391 141.992 426.895 141.992ZM433.222 143V134.312H434.422L434.55 135.576H434.598C435.35 134.744 436.262 134.088 437.302 134.088C438.63 134.088 439.35 134.728 439.702 135.752C440.598 134.776 441.51 134.088 442.566 134.088C444.358 134.088 445.206 135.272 445.206 137.496V143H443.75V137.688C443.75 136.056 443.238 135.368 442.134 135.368C441.462 135.368 440.758 135.8 439.942 136.696V143H438.486V137.688C438.486 136.056 437.974 135.368 436.87 135.368C436.214 135.368 435.478 135.8 434.678 136.696V143H433.222ZM452.989 143L450.573 134.312H452.061L453.357 139.336C453.533 140.168 453.709 140.952 453.869 141.768H453.949C454.141 140.952 454.317 140.152 454.541 139.336L455.885 134.312H457.309L458.669 139.336C458.877 140.168 459.069 140.952 459.277 141.768H459.341C459.533 140.952 459.693 140.168 459.885 139.336L461.165 134.312H462.541L460.205 143H458.445L457.181 138.312C456.957 137.496 456.797 136.696 456.589 135.816H456.509C456.317 136.696 456.141 137.512 455.917 138.344L454.701 143H452.989ZM466.269 143.208C464.813 143.208 463.725 142.312 463.725 140.744C463.725 138.856 465.373 137.912 469.069 137.496C469.069 136.376 468.701 135.304 467.277 135.304C466.269 135.304 465.357 135.768 464.669 136.232L464.093 135.224C464.893 134.712 466.125 134.088 467.517 134.088C469.629 134.088 470.525 135.512 470.525 137.656V143H469.325L469.197 141.96H469.149C468.317 142.648 467.341 143.208 466.269 143.208ZM466.685 142.04C467.533 142.04 468.221 141.64 469.069 140.888V138.456C466.141 138.808 465.149 139.528 465.149 140.648C465.149 141.64 465.821 142.04 466.685 142.04ZM475.572 143.208C474.34 143.208 473.156 142.696 472.324 142.008L473.044 141.048C473.796 141.656 474.58 142.072 475.62 142.072C476.772 142.072 477.332 141.464 477.332 140.712C477.332 139.816 476.308 139.432 475.348 139.064C474.132 138.616 472.804 138.024 472.804 136.552C472.804 135.176 473.924 134.088 475.812 134.088C476.884 134.088 477.828 134.536 478.5 135.064L477.796 136.008C477.204 135.56 476.596 135.24 475.828 135.24C474.724 135.24 474.212 135.816 474.212 136.488C474.212 137.32 475.108 137.624 476.084 137.992C477.348 138.472 478.74 138.984 478.74 140.632C478.74 142.04 477.62 143.208 475.572 143.208ZM483.161 143.208C481.305 143.208 480.681 142.04 480.681 140.312V135.496H479.385V134.392L480.745 134.312L480.921 131.864H482.137V134.312H484.489V135.496H482.137V140.344C482.137 141.416 482.473 142.024 483.481 142.024C483.785 142.024 484.185 141.912 484.473 141.8L484.761 142.888C484.265 143.048 483.689 143.208 483.161 143.208ZM489.726 143.208C487.422 143.208 485.566 141.528 485.566 138.664C485.566 135.848 487.47 134.088 489.486 134.088C491.694 134.088 492.942 135.688 492.942 138.168C492.942 138.488 492.91 138.792 492.878 139H487.022C487.118 140.856 488.254 142.04 489.902 142.04C490.75 142.04 491.438 141.784 492.078 141.352L492.606 142.312C491.838 142.808 490.91 143.208 489.726 143.208ZM487.006 137.944H491.662C491.662 136.2 490.862 135.256 489.502 135.256C488.27 135.256 487.182 136.248 487.006 137.944ZM500.932 143.208C499.7 143.208 498.516 142.696 497.684 142.008L498.404 141.048C499.156 141.656 499.94 142.072 500.98 142.072C502.132 142.072 502.692 141.464 502.692 140.712C502.692 139.816 501.668 139.432 500.708 139.064C499.492 138.616 498.164 138.024 498.164 136.552C498.164 135.176 499.284 134.088 501.172 134.088C502.244 134.088 503.188 134.536 503.86 135.064L503.156 136.008C502.564 135.56 501.956 135.24 501.188 135.24C500.084 135.24 499.572 135.816 499.572 136.488C499.572 137.32 500.468 137.624 501.444 137.992C502.708 138.472 504.1 138.984 504.1 140.632C504.1 142.04 502.98 143.208 500.932 143.208ZM509.52 143.208C507.392 143.208 505.488 141.544 505.488 138.664C505.488 135.768 507.392 134.088 509.52 134.088C511.648 134.088 513.552 135.768 513.552 138.664C513.552 141.544 511.648 143.208 509.52 143.208ZM509.52 141.992C511.024 141.992 512.048 140.664 512.048 138.664C512.048 136.664 511.024 135.304 509.52 135.304C508.016 135.304 507.008 136.664 507.008 138.664C507.008 140.664 508.016 141.992 509.52 141.992ZM517.383 143.208C516.295 143.208 515.847 142.504 515.847 141.272V130.264H517.303V141.368C517.303 141.816 517.495 141.992 517.719 141.992C517.799 141.992 517.863 141.992 518.023 141.96L518.231 143.08C518.023 143.16 517.783 143.208 517.383 143.208ZM522.938 143.208C521.114 143.208 520.298 142.024 520.298 139.816V134.312H521.754V139.64C521.754 141.256 522.234 141.944 523.386 141.944C524.282 141.944 524.906 141.512 525.738 140.472V134.312H527.194V143H525.978L525.866 141.64H525.818C525.002 142.584 524.138 143.208 522.938 143.208ZM532.864 143.208C531.008 143.208 530.384 142.04 530.384 140.312V135.496H529.088V134.392L530.448 134.312L530.624 131.864H531.84V134.312H534.192V135.496H531.84V140.344C531.84 141.416 532.176 142.024 533.184 142.024C533.488 142.024 533.888 141.912 534.176 141.8L534.464 142.888C533.968 143.048 533.392 143.208 532.864 143.208ZM536.16 143V134.312H537.616V143H536.16ZM536.896 132.52C536.32 132.52 535.92 132.136 535.92 131.544C535.92 130.984 536.32 130.6 536.896 130.6C537.472 130.6 537.872 130.984 537.872 131.544C537.872 132.136 537.472 132.52 536.896 132.52ZM543.942 143.208C541.814 143.208 539.91 141.544 539.91 138.664C539.91 135.768 541.814 134.088 543.942 134.088C546.07 134.088 547.974 135.768 547.974 138.664C547.974 141.544 546.07 143.208 543.942 143.208ZM543.942 141.992C545.446 141.992 546.47 140.664 546.47 138.664C546.47 136.664 545.446 135.304 543.942 135.304C542.438 135.304 541.43 136.664 541.43 138.664C541.43 140.664 542.438 141.992 543.942 141.992ZM550.269 143V134.312H551.469L551.597 135.56H551.645C552.477 134.744 553.373 134.088 554.557 134.088C556.381 134.088 557.213 135.272 557.213 137.496V143H555.757V137.688C555.757 136.056 555.261 135.368 554.109 135.368C553.213 135.368 552.605 135.816 551.725 136.696V143H550.269ZM565.628 143.208C564.172 143.208 563.084 142.312 563.084 140.744C563.084 138.856 564.732 137.912 568.428 137.496C568.428 136.376 568.06 135.304 566.636 135.304C565.628 135.304 564.716 135.768 564.028 136.232L563.452 135.224C564.252 134.712 565.484 134.088 566.876 134.088C568.988 134.088 569.884 135.512 569.884 137.656V143H568.684L568.556 141.96H568.508C567.676 142.648 566.7 143.208 565.628 143.208ZM566.044 142.04C566.892 142.04 567.58 141.64 568.428 140.888V138.456C565.5 138.808 564.508 139.528 564.508 140.648C564.508 141.64 565.18 142.04 566.044 142.04ZM572.66 143V134.312H573.86L573.988 135.56H574.036C574.868 134.744 575.764 134.088 576.948 134.088C578.772 134.088 579.604 135.272 579.604 137.496V143H578.148V137.688C578.148 136.056 577.652 135.368 576.5 135.368C575.604 135.368 574.996 135.816 574.116 136.696V143H572.66ZM585.401 143.208C583.225 143.208 581.817 141.56 581.817 138.664C581.817 135.848 583.593 134.088 585.577 134.088C586.601 134.088 587.257 134.472 588.025 135.112L587.961 133.608V130.264H589.401V143H588.217L588.089 141.976H588.041C587.353 142.648 586.441 143.208 585.401 143.208ZM585.721 141.992C586.521 141.992 587.225 141.592 587.961 140.792V136.232C587.209 135.576 586.553 135.32 585.833 135.32C584.425 135.32 583.321 136.664 583.321 138.648C583.321 140.744 584.185 141.992 585.721 141.992ZM595.941 143V134.312H597.141L597.269 135.896H597.317C597.925 134.792 598.805 134.088 599.781 134.088C600.165 134.088 600.437 134.136 600.709 134.28L600.437 135.56C600.149 135.448 599.941 135.416 599.589 135.416C598.869 135.416 597.973 135.928 597.397 137.416V143H595.941ZM605.476 143.208C603.172 143.208 601.316 141.528 601.316 138.664C601.316 135.848 603.22 134.088 605.236 134.088C607.444 134.088 608.692 135.688 608.692 138.168C608.692 138.488 608.66 138.792 608.628 139H602.772C602.868 140.856 604.004 142.04 605.652 142.04C606.5 142.04 607.188 141.784 607.828 141.352L608.356 142.312C607.588 142.808 606.66 143.208 605.476 143.208ZM602.756 137.944H607.412C607.412 136.2 606.612 135.256 605.252 135.256C604.02 135.256 602.932 136.248 602.756 137.944ZM613.791 143.208C611.615 143.208 610.207 141.56 610.207 138.664C610.207 135.848 611.983 134.088 613.967 134.088C614.991 134.088 615.647 134.472 616.415 135.112L616.351 133.608V130.264H617.791V143H616.607L616.479 141.976H616.431C615.743 142.648 614.831 143.208 613.791 143.208ZM614.111 141.992C614.911 141.992 615.615 141.592 616.351 140.792V136.232C615.599 135.576 614.943 135.32 614.223 135.32C612.815 135.32 611.711 136.664 611.711 138.648C611.711 140.744 612.575 141.992 614.111 141.992ZM623.281 143.208C621.457 143.208 620.641 142.024 620.641 139.816V134.312H622.097V139.64C622.097 141.256 622.577 141.944 623.729 141.944C624.625 141.944 625.249 141.512 626.081 140.472V134.312H627.537V143H626.321L626.209 141.64H626.161C625.345 142.584 624.481 143.208 623.281 143.208ZM633.896 143.208C631.592 143.208 629.816 141.544 629.816 138.664C629.816 135.768 631.784 134.088 634.008 134.088C635.144 134.088 635.928 134.568 636.552 135.112L635.8 136.072C635.288 135.624 634.76 135.304 634.072 135.304C632.488 135.304 631.336 136.664 631.336 138.664C631.336 140.664 632.424 141.992 634.024 141.992C634.824 141.992 635.528 141.624 636.072 141.128L636.712 142.104C635.928 142.808 634.936 143.208 633.896 143.208ZM641.726 143.208C639.422 143.208 637.566 141.528 637.566 138.664C637.566 135.848 639.47 134.088 641.486 134.088C643.694 134.088 644.942 135.688 644.942 138.168C644.942 138.488 644.91 138.792 644.878 139H639.022C639.118 140.856 640.254 142.04 641.902 142.04C642.75 142.04 643.438 141.784 644.078 141.352L644.606 142.312C643.838 142.808 642.91 143.208 641.726 143.208ZM639.006 137.944H643.662C643.662 136.2 642.862 135.256 641.502 135.256C640.27 135.256 639.182 136.248 639.006 137.944ZM654.164 143.208C651.86 143.208 650.004 141.528 650.004 138.664C650.004 135.848 651.908 134.088 653.924 134.088C656.132 134.088 657.38 135.688 657.38 138.168C657.38 138.488 657.348 138.792 657.316 139H651.46C651.556 140.856 652.692 142.04 654.34 142.04C655.188 142.04 655.876 141.784 656.516 141.352L657.044 142.312C656.276 142.808 655.348 143.208 654.164 143.208ZM651.444 137.944H656.1C656.1 136.2 655.3 135.256 653.94 135.256C652.708 135.256 651.62 136.248 651.444 137.944ZM659.519 143V134.312H660.719L660.847 135.56H660.895C661.727 134.744 662.623 134.088 663.807 134.088C665.631 134.088 666.463 135.272 666.463 137.496V143H665.007V137.688C665.007 136.056 664.511 135.368 663.359 135.368C662.463 135.368 661.855 135.816 660.975 136.696V143H659.519ZM671.172 143L668.036 134.312H669.556L671.188 139.256C671.46 140.104 671.732 141 672.004 141.816H672.068C672.34 141 672.612 140.104 672.868 139.256L674.516 134.312H675.956L672.868 143H671.172ZM677.644 143V134.312H679.1V143H677.644ZM678.38 132.52C677.804 132.52 677.404 132.136 677.404 131.544C677.404 130.984 677.804 130.6 678.38 130.6C678.956 130.6 679.356 130.984 679.356 131.544C679.356 132.136 678.956 132.52 678.38 132.52ZM682.05 143V134.312H683.25L683.378 135.896H683.426C684.034 134.792 684.914 134.088 685.89 134.088C686.274 134.088 686.546 134.136 686.818 134.28L686.546 135.56C686.258 135.448 686.05 135.416 685.698 135.416C684.978 135.416 684.082 135.928 683.506 137.416V143H682.05ZM691.457 143.208C689.329 143.208 687.425 141.544 687.425 138.664C687.425 135.768 689.329 134.088 691.457 134.088C693.585 134.088 695.489 135.768 695.489 138.664C695.489 141.544 693.585 143.208 691.457 143.208ZM691.457 141.992C692.961 141.992 693.985 140.664 693.985 138.664C693.985 136.664 692.961 135.304 691.457 135.304C689.953 135.304 688.945 136.664 688.945 138.664C688.945 140.664 689.953 141.992 691.457 141.992ZM697.785 143V134.312H698.985L699.113 135.56H699.161C699.993 134.744 700.889 134.088 702.073 134.088C703.897 134.088 704.729 135.272 704.729 137.496V143H703.273V137.688C703.273 136.056 702.777 135.368 701.625 135.368C700.729 135.368 700.121 135.816 699.241 136.696V143H697.785ZM707.566 143V134.312H708.766L708.894 135.576H708.942C709.694 134.744 710.606 134.088 711.646 134.088C712.974 134.088 713.694 134.728 714.046 135.752C714.942 134.776 715.854 134.088 716.91 134.088C718.702 134.088 719.55 135.272 719.55 137.496V143H718.094V137.688C718.094 136.056 717.582 135.368 716.478 135.368C715.806 135.368 715.102 135.8 714.286 136.696V143H712.83V137.688C712.83 136.056 712.318 135.368 711.214 135.368C710.558 135.368 709.822 135.8 709.022 136.696V143H707.566ZM725.882 143.208C723.578 143.208 721.722 141.528 721.722 138.664C721.722 135.848 723.626 134.088 725.642 134.088C727.85 134.088 729.098 135.688 729.098 138.168C729.098 138.488 729.066 138.792 729.034 139H723.178C723.274 140.856 724.41 142.04 726.058 142.04C726.906 142.04 727.594 141.784 728.234 141.352L728.762 142.312C727.994 142.808 727.066 143.208 725.882 143.208ZM723.162 137.944H727.818C727.818 136.2 727.018 135.256 725.658 135.256C724.426 135.256 723.338 136.248 723.162 137.944ZM731.238 143V134.312H732.438L732.566 135.56H732.614C733.446 134.744 734.342 134.088 735.526 134.088C737.35 134.088 738.182 135.272 738.182 137.496V143H736.726V137.688C736.726 136.056 736.23 135.368 735.078 135.368C734.182 135.368 733.574 135.816 732.694 136.696V143H731.238ZM743.755 143.208C741.899 143.208 741.275 142.04 741.275 140.312V135.496H739.979V134.392L741.339 134.312L741.515 131.864H742.731V134.312H745.083V135.496H742.731V140.344C742.731 141.416 743.067 142.024 744.075 142.024C744.379 142.024 744.779 141.912 745.067 141.8L745.355 142.888C744.859 143.048 744.283 143.208 743.755 143.208ZM750.628 146.664V134.312H751.828L751.956 135.304H752.004C752.788 134.664 753.764 134.088 754.772 134.088C757.012 134.088 758.228 135.848 758.228 138.52C758.228 141.496 756.452 143.208 754.452 143.208C753.668 143.208 752.836 142.84 752.052 142.2L752.084 143.72V146.664H750.628ZM754.212 141.992C755.652 141.992 756.708 140.696 756.708 138.536C756.708 136.616 756.068 135.32 754.42 135.32C753.684 135.32 752.932 135.736 752.084 136.52V141.08C752.868 141.752 753.636 141.992 754.212 141.992ZM763.926 143.208C761.798 143.208 759.894 141.544 759.894 138.664C759.894 135.768 761.798 134.088 763.926 134.088C766.054 134.088 767.958 135.768 767.958 138.664C767.958 141.544 766.054 143.208 763.926 143.208ZM763.926 141.992C765.43 141.992 766.454 140.664 766.454 138.664C766.454 136.664 765.43 135.304 763.926 135.304C762.422 135.304 761.414 136.664 761.414 138.664C761.414 140.664 762.422 141.992 763.926 141.992ZM771.789 143.208C770.701 143.208 770.253 142.504 770.253 141.272V130.264H771.709V141.368C771.709 141.816 771.901 141.992 772.125 141.992C772.205 141.992 772.269 141.992 772.429 141.96L772.637 143.08C772.429 143.16 772.189 143.208 771.789 143.208ZM777.344 143.208C775.52 143.208 774.704 142.024 774.704 139.816V134.312H776.16V139.64C776.16 141.256 776.64 141.944 777.792 141.944C778.688 141.944 779.312 141.512 780.144 140.472V134.312H781.6V143H780.384L780.272 141.64H780.224C779.408 142.584 778.544 143.208 777.344 143.208ZM787.271 143.208C785.414 143.208 784.791 142.04 784.791 140.312V135.496H783.495V134.392L784.855 134.312L785.031 131.864H786.247V134.312H788.599V135.496H786.247V140.344C786.247 141.416 786.583 142.024 787.591 142.024C787.895 142.024 788.295 141.912 788.583 141.8L788.871 142.888C788.375 143.048 787.799 143.208 787.271 143.208ZM790.566 143V134.312H792.022V143H790.566ZM791.302 132.52C790.726 132.52 790.326 132.136 790.326 131.544C790.326 130.984 790.726 130.6 791.302 130.6C791.878 130.6 792.278 130.984 792.278 131.544C792.278 132.136 791.878 132.52 791.302 132.52ZM798.348 143.208C796.22 143.208 794.316 141.544 794.316 138.664C794.316 135.768 796.22 134.088 798.348 134.088C800.476 134.088 802.38 135.768 802.38 138.664C802.38 141.544 800.476 143.208 798.348 143.208ZM798.348 141.992C799.852 141.992 800.876 140.664 800.876 138.664C800.876 136.664 799.852 135.304 798.348 135.304C796.844 135.304 795.836 136.664 795.836 138.664C795.836 140.664 796.844 141.992 798.348 141.992ZM804.675 143V134.312H805.875L806.003 135.56H806.051C806.883 134.744 807.779 134.088 808.963 134.088C810.787 134.088 811.619 135.272 811.619 137.496V143H810.163V137.688C810.163 136.056 809.667 135.368 808.515 135.368C807.619 135.368 807.011 135.816 806.131 136.696V143H804.675Z" fill="#4F4F4F"/>
<path d="M41.552 181V169.208H43.408V181H41.552ZM46.3295 181V172.2H47.8335L47.9775 173.416H48.0255C48.8415 172.632 49.7375 171.976 50.9375 171.976C52.8095 171.976 53.6415 173.224 53.6415 175.464V181H51.8015V175.688C51.8015 174.168 51.3535 173.56 50.3135 173.56C49.4975 173.56 48.9375 173.976 48.1695 174.76V181H46.3295ZM58.2499 181L55.1299 172.2H57.0179L58.5219 176.936C58.7779 177.8 59.0339 178.696 59.2899 179.56H59.3539C59.6099 178.696 59.8819 177.8 60.1219 176.936L61.6259 172.2H63.4179L60.3779 181H58.2499ZM68.6029 181.208C66.2189 181.208 64.3149 179.512 64.3149 176.6C64.3149 173.752 66.2829 171.976 68.3309 171.976C70.6669 171.976 71.9309 173.656 71.9309 176.136C71.9309 176.504 71.8829 176.856 71.8349 177.08H66.1229C66.2669 178.76 67.3229 179.768 68.8429 179.768C69.6269 179.768 70.2989 179.528 70.9389 179.112L71.5789 180.28C70.7629 180.824 69.7549 181.208 68.6029 181.208ZM66.1069 175.8H70.3309C70.3309 174.296 69.6429 173.416 68.3629 173.416C67.2589 173.416 66.2829 174.264 66.1069 175.8ZM76.3698 181.208C75.1538 181.208 73.9218 180.696 73.0578 179.992L73.9218 178.808C74.7057 179.416 75.4738 179.816 76.4178 179.816C77.4738 179.816 77.9698 179.304 77.9698 178.632C77.9698 177.832 76.9778 177.48 76.0338 177.112C74.8498 176.664 73.5538 176.04 73.5538 174.552C73.5538 173.08 74.7378 171.976 76.6898 171.976C77.8578 171.976 78.8338 172.456 79.5378 173.016L78.6738 174.152C78.0658 173.704 77.4418 173.384 76.7218 173.384C75.7458 173.384 75.2978 173.864 75.2978 174.472C75.2978 175.224 76.1618 175.512 77.1218 175.864C78.3538 176.328 79.7138 176.872 79.7138 178.536C79.7138 180.008 78.5458 181.208 76.3698 181.208ZM84.2739 181.208C82.2899 181.208 81.6019 179.976 81.6019 178.12V173.672H80.3219V172.296L81.6979 172.2L81.9059 169.768H83.4419V172.2H85.7299V173.672H83.4419V178.136C83.4419 179.192 83.8099 179.736 84.7219 179.736C85.0259 179.736 85.4099 179.64 85.6659 179.528L86.0019 180.888C85.5059 181.048 84.9139 181.208 84.2739 181.208ZM87.6576 181V172.2H89.1616L89.3056 173.432H89.3536C90.1056 172.632 90.9856 171.976 92.0736 171.976C93.3856 171.976 94.1216 172.584 94.5056 173.592C95.3696 172.664 96.2656 171.976 97.3696 171.976C99.2096 171.976 100.074 173.224 100.074 175.464V181H98.2336V175.688C98.2336 174.168 97.7536 173.56 96.7616 173.56C96.1536 173.56 95.5136 173.96 94.7776 174.76V181H92.9376V175.688C92.9376 174.168 92.4736 173.56 91.4656 173.56C90.8736 173.56 90.2176 173.96 89.4976 174.76V181H87.6576ZM106.4 181.208C104.016 181.208 102.112 179.512 102.112 176.6C102.112 173.752 104.08 171.976 106.128 171.976C108.464 171.976 109.728 173.656 109.728 176.136C109.728 176.504 109.68 176.856 109.632 177.08H103.92C104.064 178.76 105.12 179.768 106.64 179.768C107.424 179.768 108.096 179.528 108.736 179.112L109.376 180.28C108.56 180.824 107.552 181.208 106.4 181.208ZM103.904 175.8H108.128C108.128 174.296 107.44 173.416 106.16 173.416C105.056 173.416 104.08 174.264 103.904 175.8ZM111.783 181V172.2H113.287L113.431 173.416H113.479C114.295 172.632 115.191 171.976 116.391 171.976C118.263 171.976 119.095 173.224 119.095 175.464V181H117.255V175.688C117.255 174.168 116.807 173.56 115.767 173.56C114.951 173.56 114.391 173.976 113.623 174.76V181H111.783ZM124.727 181.208C122.743 181.208 122.055 179.976 122.055 178.12V173.672H120.775V172.296L122.151 172.2L122.359 169.768H123.895V172.2H126.183V173.672H123.895V178.136C123.895 179.192 124.263 179.736 125.175 179.736C125.479 179.736 125.863 179.64 126.119 179.528L126.455 180.888C125.959 181.048 125.367 181.208 124.727 181.208Z" fill="#A7AC39"/>
<rect x="200" y="160" width="1" height="28" fill="#E7E7E7"/>
<path d="M242.6 181V169.256H244.136L248.408 176.664L249.656 179.08H249.736C249.656 177.896 249.544 176.584 249.544 175.368V169.256H250.952V181H249.432L245.16 173.592L243.896 171.176H243.832C243.896 172.36 244.008 173.608 244.008 174.84V181H242.6ZM256.595 181V170.52H253.043V169.256H261.635V170.52H258.083V181H256.595ZM266.109 182.968V181.192C264.973 181.08 263.821 180.52 263.053 179.816L263.741 178.824C264.493 179.464 265.405 179.992 266.493 179.992C267.821 179.992 268.509 179.272 268.509 178.152C268.509 175.24 263.501 175.88 263.501 172.392C263.501 170.792 264.557 169.656 266.109 169.432V167.624H267.165V169.416C268.317 169.528 269.053 170.072 269.693 170.744L268.909 171.608C268.253 170.968 267.709 170.6 266.733 170.6C265.629 170.6 264.925 171.288 264.925 172.328C264.925 174.936 269.933 174.216 269.933 178.056C269.933 179.752 268.861 180.92 267.165 181.16V182.968H266.109ZM279.042 181.208C276.882 181.208 275.298 179.896 275.298 178.088C275.298 176.6 276.386 175.576 277.458 175V174.936C276.61 174.36 275.874 173.512 275.874 172.296C275.874 170.552 277.266 169.384 279.09 169.384C281.09 169.384 282.306 170.632 282.306 172.408C282.306 173.608 281.426 174.632 280.738 175.16V175.24C281.746 175.848 282.722 176.648 282.722 178.168C282.722 179.88 281.25 181.208 279.042 181.208ZM279.842 174.792C280.626 174.088 281.058 173.336 281.058 172.488C281.058 171.368 280.338 170.472 279.074 170.472C277.986 170.472 277.202 171.192 277.202 172.296C277.202 173.672 278.466 174.248 279.842 174.792ZM279.074 180.12C280.418 180.12 281.33 179.304 281.33 178.136C281.33 176.648 279.89 176.12 278.226 175.464C277.298 176.056 276.626 176.904 276.626 177.96C276.626 179.208 277.666 180.12 279.074 180.12ZM284.653 184.04L284.301 183.176C285.309 182.728 285.901 181.944 285.901 181C285.837 181.016 285.789 181.016 285.725 181.016C285.165 181.016 284.653 180.664 284.653 179.992C284.653 179.368 285.165 178.968 285.757 178.968C286.525 178.968 286.989 179.624 286.989 180.696C286.989 182.232 286.093 183.432 284.653 184.04ZM289.314 181V179.784H291.922V171.368H289.842V170.424C290.882 170.248 291.634 169.976 292.274 169.592H293.394V179.784H295.746V181H289.314ZM298.861 173.032C298.861 174.52 299.565 175.48 300.989 175.48C301.725 175.48 302.653 175.016 303.389 173.928C303.197 171.72 302.301 170.536 300.845 170.536C299.725 170.536 298.861 171.528 298.861 173.032ZM300.445 181.208C299.229 181.208 298.333 180.696 297.709 180.008L298.525 179.096C298.973 179.656 299.677 179.992 300.397 179.992C301.997 179.992 303.357 178.744 303.421 175.096C302.685 176.008 301.677 176.568 300.749 176.568C298.765 176.568 297.485 175.368 297.485 173.032C297.485 170.856 299.021 169.384 300.845 169.384C303.101 169.384 304.781 171.208 304.781 174.872C304.781 179.448 302.717 181.208 300.445 181.208ZM310.104 181.208C307.832 181.208 306.44 179.08 306.44 175.256C306.44 171.432 307.832 169.384 310.104 169.384C312.376 169.384 313.752 171.448 313.752 175.256C313.752 179.08 312.376 181.208 310.104 181.208ZM310.104 180.04C311.432 180.04 312.328 178.6 312.328 175.256C312.328 171.912 311.432 170.552 310.104 170.552C308.76 170.552 307.864 171.912 307.864 175.256C307.864 178.6 308.76 180.04 310.104 180.04ZM315.731 184.04L315.379 183.176C316.387 182.728 316.979 181.944 316.979 181C316.915 181.016 316.867 181.016 316.803 181.016C316.243 181.016 315.731 180.664 315.731 179.992C315.731 179.368 316.243 178.968 316.835 178.968C317.603 178.968 318.067 179.624 318.067 180.696C318.067 182.232 317.171 183.432 315.731 184.04ZM323.432 181.208C321.16 181.208 319.768 179.08 319.768 175.256C319.768 171.432 321.16 169.384 323.432 169.384C325.704 169.384 327.08 171.448 327.08 175.256C327.08 179.08 325.704 181.208 323.432 181.208ZM323.432 180.04C324.76 180.04 325.656 178.6 325.656 175.256C325.656 171.912 324.76 170.552 323.432 170.552C322.088 170.552 321.192 171.912 321.192 175.256C321.192 178.6 322.088 180.04 323.432 180.04ZM332.307 181.208C330.035 181.208 328.643 179.08 328.643 175.256C328.643 171.432 330.035 169.384 332.307 169.384C334.579 169.384 335.955 171.448 335.955 175.256C335.955 179.08 334.579 181.208 332.307 181.208ZM332.307 180.04C333.635 180.04 334.531 178.6 334.531 175.256C334.531 171.912 333.635 170.552 332.307 170.552C330.963 170.552 330.067 171.912 330.067 175.256C330.067 178.6 330.963 180.04 332.307 180.04ZM341.182 181.208C338.91 181.208 337.518 179.08 337.518 175.256C337.518 171.432 338.91 169.384 341.182 169.384C343.454 169.384 344.83 171.448 344.83 175.256C344.83 179.08 343.454 181.208 341.182 181.208ZM341.182 180.04C342.51 180.04 343.406 178.6 343.406 175.256C343.406 171.912 342.51 170.552 341.182 170.552C339.838 170.552 338.942 171.912 338.942 175.256C338.942 178.6 339.838 180.04 341.182 180.04Z" fill="#4F4F4F"/>
</g>
</g>
<defs>
<filter id="filter0_d_338_40078" x="0" y="52" width="941" height="184" filterUnits="userSpaceOnUse" color-interpolation-filters="sRGB">
<feFlood flood-opacity="0" result="BackgroundImageFix"/>
<feColorMatrix in="SourceAlpha" type="matrix" values="0 0 0 0 0 0 0 0 0 0 0 0 0 0 0 0 0 0 127 0" result="hardAlpha"/>
<feOffset dy="8"/>
<feGaussianBlur stdDeviation="10"/>
<feComposite in2="hardAlpha" operator="out"/>
<feColorMatrix type="matrix" values="0 0 0 0 0 0 0 0 0 0.529412 0 0 0 0 0.690196 0 0 0 0.15 0"/>
<feBlend mode="normal" in2="BackgroundImageFix" result="effect1_dropShadow_338_40078"/>
<feBlend mode="normal" in="SourceGraphic" in2="effect1_dropShadow_338_40078" result="shape"/>
</filter>
<clipPath id="clip0_338_40078">
<rect width="975" height="180" fill="white" transform="translate(0 52)"/>
</clipPath>
</defs>
</svg>
