<svg width="620" height="378" viewBox="0 0 620 378" fill="none" xmlns="http://www.w3.org/2000/svg">
<g clip-path="url(#clip0_338_39721)">
<rect width="620" height="378" fill="white"/>
<path d="M474 172.578C474 263.705 400.127 337.578 309 337.578C217.873 337.578 144 263.705 144 172.578C144 81.4511 217.873 7.57812 309 7.57812C400.127 7.57812 474 81.4511 474 172.578Z" fill="url(#paint0_linear_338_39721)"/>
<path d="M330.16 0.696174C354.267 3.56696 377.512 11.4222 398.42 23.7625L309.466 174.468L330.16 0.696174Z" fill="url(#paint1_linear_338_39721)"/>
<path d="M398.261 23.667C410.594 30.9291 421.989 39.6767 432.192 49.7137L309.465 174.466L398.261 23.667Z" fill="url(#paint2_linear_338_39721)"/>
<path d="M404.76 147.541C418.575 200.439 386.938 254.521 334.048 268.338C281.157 282.154 227.083 250.513 213.238 197.615C199.423 144.717 231.091 90.635 283.951 76.8183C336.841 63.0017 390.915 94.6433 404.73 147.541" fill="white"/>
<path d="M204.574 278.208C202.366 278.208 200.734 276.896 200.734 275.072C200.734 273.52 201.758 272.48 202.846 271.904V271.824C201.966 271.2 201.262 270.32 201.262 269.072C201.262 267.232 202.702 266.032 204.622 266.032C206.67 266.032 207.95 267.312 207.95 269.152C207.95 270.352 207.134 271.376 206.398 271.92V272C207.454 272.592 208.382 273.52 208.382 275.12C208.382 276.864 206.846 278.208 204.574 278.208ZM205.342 271.456C206.046 270.8 206.398 270.048 206.398 269.264C206.398 268.176 205.742 267.36 204.59 267.36C203.63 267.36 202.91 268.016 202.91 269.072C202.91 270.352 204.03 270.944 205.342 271.456ZM204.606 276.88C205.822 276.88 206.638 276.176 206.638 275.072C206.638 273.632 205.342 273.088 203.742 272.432C202.926 272.992 202.366 273.872 202.366 274.896C202.366 276.064 203.342 276.88 204.606 276.88ZM211.523 269.872C211.523 271.376 212.195 272.24 213.427 272.24C214.163 272.24 214.995 271.808 215.667 270.8C215.491 268.48 214.611 267.424 213.331 267.424C212.323 267.424 211.523 268.336 211.523 269.872ZM213.011 278.208C211.651 278.208 210.691 277.664 210.003 276.96L211.011 275.824C211.475 276.352 212.195 276.704 212.931 276.704C214.355 276.704 215.587 275.552 215.699 272.192C215.011 273.04 214.003 273.568 213.107 273.568C211.139 273.568 209.811 272.336 209.811 269.872C209.811 267.536 211.411 266 213.315 266C215.571 266 217.395 267.808 217.395 271.712C217.395 276.352 215.283 278.208 213.011 278.208ZM220.632 278.208C219.944 278.208 219.4 277.68 219.4 276.928C219.4 276.16 219.944 275.616 220.632 275.616C221.32 275.616 221.864 276.16 221.864 276.928C221.864 277.68 221.32 278.208 220.632 278.208ZM227.302 278.208C225.446 278.208 224.278 277.456 223.446 276.64L224.326 275.44C224.998 276.112 225.846 276.704 227.078 276.704C228.406 276.704 229.414 275.76 229.414 274.192C229.414 272.624 228.518 271.728 227.174 271.728C226.422 271.728 225.974 271.952 225.286 272.4L224.39 271.808L224.742 266.208H230.71V267.776H226.342L226.07 270.8C226.582 270.544 227.046 270.384 227.686 270.384C229.654 270.384 231.27 271.552 231.27 274.128C231.27 276.736 229.366 278.208 227.302 278.208ZM235.467 273.456C233.819 273.456 232.715 272.08 232.715 269.712C232.715 267.344 233.819 266 235.467 266C237.115 266 238.235 267.344 238.235 269.712C238.235 272.08 237.115 273.456 235.467 273.456ZM235.467 272.368C236.299 272.368 236.891 271.52 236.891 269.712C236.891 267.888 236.299 267.088 235.467 267.088C234.651 267.088 234.059 267.888 234.059 269.712C234.059 271.52 234.651 272.368 235.467 272.368ZM235.835 278.208L242.283 266H243.451L237.003 278.208H235.835ZM243.835 278.208C242.187 278.208 241.067 276.848 241.067 274.48C241.067 272.112 242.187 270.768 243.835 270.768C245.467 270.768 246.587 272.112 246.587 274.48C246.587 276.848 245.467 278.208 243.835 278.208ZM243.835 277.136C244.651 277.136 245.243 276.288 245.243 274.48C245.243 272.656 244.651 271.856 243.835 271.856C243.003 271.856 242.427 272.656 242.427 274.48C242.427 276.288 243.003 277.136 243.835 277.136Z" fill="white"/>
<path d="M421.288 25.208C419.432 25.208 418.232 24.472 417.448 23.592L418.344 22.408C419.032 23.112 419.912 23.704 421.128 23.704C422.456 23.704 423.368 22.968 423.368 21.736C423.368 20.44 422.536 19.592 419.88 19.592V18.232C422.2 18.232 422.968 17.352 422.968 16.168C422.968 15.128 422.28 14.488 421.16 14.472C420.248 14.488 419.48 14.92 418.808 15.576L417.848 14.424C418.776 13.592 419.864 13 421.224 13C423.336 13 424.824 14.104 424.824 16.04C424.824 17.4 424.04 18.344 422.792 18.808V18.888C424.152 19.224 425.224 20.248 425.224 21.832C425.224 23.96 423.448 25.208 421.288 25.208ZM428.509 25.208C427.821 25.208 427.277 24.68 427.277 23.928C427.277 23.16 427.821 22.616 428.509 22.616C429.197 22.616 429.741 23.16 429.741 23.928C429.741 24.68 429.197 25.208 428.509 25.208ZM433.291 16.872C433.291 18.376 433.963 19.24 435.195 19.24C435.931 19.24 436.763 18.808 437.435 17.8C437.259 15.48 436.379 14.424 435.099 14.424C434.091 14.424 433.291 15.336 433.291 16.872ZM434.779 25.208C433.419 25.208 432.459 24.664 431.771 23.96L432.779 22.824C433.243 23.352 433.963 23.704 434.699 23.704C436.123 23.704 437.355 22.552 437.467 19.192C436.779 20.04 435.771 20.568 434.875 20.568C432.907 20.568 431.579 19.336 431.579 16.872C431.579 14.536 433.179 13 435.083 13C437.339 13 439.163 14.808 439.163 18.712C439.163 23.352 437.051 25.208 434.779 25.208ZM443.344 20.456C441.696 20.456 440.592 19.08 440.592 16.712C440.592 14.344 441.696 13 443.344 13C444.992 13 446.112 14.344 446.112 16.712C446.112 19.08 444.992 20.456 443.344 20.456ZM443.344 19.368C444.176 19.368 444.768 18.52 444.768 16.712C444.768 14.888 444.176 14.088 443.344 14.088C442.528 14.088 441.936 14.888 441.936 16.712C441.936 18.52 442.528 19.368 443.344 19.368ZM443.712 25.208L450.16 13H451.328L444.88 25.208H443.712ZM451.712 25.208C450.064 25.208 448.944 23.848 448.944 21.48C448.944 19.112 450.064 17.768 451.712 17.768C453.344 17.768 454.464 19.112 454.464 21.48C454.464 23.848 453.344 25.208 451.712 25.208ZM451.712 24.136C452.528 24.136 453.12 23.288 453.12 21.48C453.12 19.656 452.528 18.856 451.712 18.856C450.88 18.856 450.304 19.656 450.304 21.48C450.304 23.288 450.88 24.136 451.712 24.136Z" fill="#4985C6"/>
<path d="M340.784 39.984C340.112 39.984 339.296 40.352 338.592 41.36C338.784 43.696 339.632 44.8 340.896 44.8C341.92 44.8 342.736 43.872 342.736 42.336C342.736 40.832 342.048 39.984 340.784 39.984ZM340.912 46.208C338.672 46.208 336.848 44.336 336.848 40.336C336.848 35.808 338.976 34 341.296 34C342.608 34 343.568 34.56 344.24 35.264L343.232 36.384C342.8 35.872 342.08 35.504 341.392 35.504C339.888 35.504 338.64 36.64 338.56 40C339.248 39.152 340.272 38.64 341.12 38.64C343.104 38.64 344.432 39.856 344.432 42.336C344.432 44.672 342.832 46.208 340.912 46.208ZM347.509 46.208C346.821 46.208 346.277 45.68 346.277 44.928C346.277 44.16 346.821 43.616 347.509 43.616C348.197 43.616 348.741 44.16 348.741 44.928C348.741 45.68 348.197 46.208 347.509 46.208ZM354.675 39.984C354.003 39.984 353.187 40.352 352.483 41.36C352.675 43.696 353.523 44.8 354.787 44.8C355.811 44.8 356.627 43.872 356.627 42.336C356.627 40.832 355.939 39.984 354.675 39.984ZM354.803 46.208C352.563 46.208 350.739 44.336 350.739 40.336C350.739 35.808 352.867 34 355.187 34C356.499 34 357.459 34.56 358.131 35.264L357.123 36.384C356.691 35.872 355.971 35.504 355.283 35.504C353.779 35.504 352.531 36.64 352.451 40C353.139 39.152 354.163 38.64 355.011 38.64C356.995 38.64 358.323 39.856 358.323 42.336C358.323 44.672 356.723 46.208 354.803 46.208ZM362.344 41.456C360.696 41.456 359.592 40.08 359.592 37.712C359.592 35.344 360.696 34 362.344 34C363.992 34 365.112 35.344 365.112 37.712C365.112 40.08 363.992 41.456 362.344 41.456ZM362.344 40.368C363.176 40.368 363.768 39.52 363.768 37.712C363.768 35.888 363.176 35.088 362.344 35.088C361.528 35.088 360.936 35.888 360.936 37.712C360.936 39.52 361.528 40.368 362.344 40.368ZM362.712 46.208L369.16 34H370.328L363.88 46.208H362.712ZM370.712 46.208C369.064 46.208 367.944 44.848 367.944 42.48C367.944 40.112 369.064 38.768 370.712 38.768C372.344 38.768 373.464 40.112 373.464 42.48C373.464 44.848 372.344 46.208 370.712 46.208ZM370.712 45.136C371.528 45.136 372.12 44.288 372.12 42.48C372.12 40.656 371.528 39.856 370.712 39.856C369.88 39.856 369.304 40.656 369.304 42.48C369.304 44.288 369.88 45.136 370.712 45.136Z" fill="white"/>
<mask id="mask0_338_39721" style="mask-type:luminance" maskUnits="userSpaceOnUse" x="79" y="359" width="10" height="10">
<path d="M89 359H79V369H89V359Z" fill="white"/>
</mask>
<g mask="url(#mask0_338_39721)">
<path d="M88.9063 364.094L83.9062 359.094L78.9062 364.094L83.9062 369.094L88.9063 364.094Z" fill="url(#paint3_linear_338_39721)"/>
</g>
<path d="M98.6172 370.002V358.274H101.961C102.836 358.274 103.604 358.386 104.265 358.61C104.926 358.823 105.438 359.181 105.801 359.682C106.164 360.183 106.345 360.861 106.345 361.714C106.345 362.535 106.164 363.213 105.801 363.746C105.438 364.279 104.932 364.679 104.281 364.946C103.63 365.202 102.878 365.33 102.025 365.33H100.089V370.002H98.6172ZM100.089 364.13H101.833C102.857 364.13 103.62 363.938 104.121 363.554C104.622 363.17 104.873 362.557 104.873 361.714C104.873 360.861 104.612 360.274 104.089 359.954C103.577 359.634 102.804 359.474 101.769 359.474H100.089V364.13ZM111.142 370.21C110.225 370.21 109.547 369.922 109.11 369.346C108.683 368.77 108.47 367.927 108.47 366.818V361.314H109.942V366.642C109.942 367.442 110.07 368.029 110.326 368.402C110.582 368.765 110.998 368.946 111.574 368.946C112.022 368.946 112.422 368.829 112.774 368.594C113.126 368.359 113.51 367.986 113.926 367.474V361.314H115.382V370.002H114.166L114.054 368.642H114.006C113.601 369.111 113.169 369.49 112.71 369.778C112.262 370.066 111.739 370.21 111.142 370.21ZM118.317 370.002V361.314H119.517L119.661 362.898H119.693C119.992 362.343 120.354 361.906 120.781 361.586C121.218 361.255 121.677 361.09 122.157 361.09C122.36 361.09 122.53 361.106 122.669 361.138C122.818 361.159 122.957 361.207 123.085 361.282L122.813 362.546C122.664 362.503 122.53 362.471 122.413 362.45C122.296 362.418 122.146 362.402 121.965 362.402C121.613 362.402 121.234 362.557 120.829 362.866C120.424 363.165 120.077 363.682 119.789 364.418V370.002H118.317ZM127.725 370.21C126.957 370.21 126.264 370.034 125.645 369.682C125.037 369.319 124.552 368.802 124.189 368.13C123.837 367.447 123.661 366.626 123.661 365.666C123.661 364.695 123.853 363.874 124.237 363.202C124.621 362.519 125.133 361.997 125.773 361.634C126.413 361.271 127.101 361.09 127.837 361.09C128.403 361.09 128.888 361.191 129.293 361.394C129.709 361.597 130.067 361.837 130.365 362.114L129.629 363.074C129.384 362.85 129.117 362.669 128.829 362.53C128.552 362.391 128.243 362.322 127.901 362.322C127.379 362.322 126.909 362.461 126.493 362.738C126.077 363.015 125.752 363.405 125.517 363.906C125.283 364.407 125.165 364.994 125.165 365.666C125.165 366.327 125.277 366.909 125.501 367.41C125.736 367.911 126.051 368.301 126.445 368.578C126.851 368.855 127.32 368.994 127.853 368.994C128.259 368.994 128.632 368.914 128.973 368.754C129.315 368.583 129.624 368.375 129.901 368.13L130.541 369.122C130.147 369.463 129.709 369.73 129.229 369.922C128.749 370.114 128.248 370.21 127.725 370.21ZM132.458 370.002V357.266H133.93V360.754L133.866 362.546C134.271 362.141 134.703 361.799 135.162 361.522C135.62 361.234 136.148 361.09 136.746 361.09C137.663 361.09 138.335 361.383 138.762 361.97C139.188 362.546 139.402 363.389 139.402 364.498V370.002H137.946V364.69C137.946 363.869 137.812 363.277 137.546 362.914C137.29 362.551 136.874 362.37 136.298 362.37C135.85 362.37 135.45 362.482 135.098 362.706C134.746 362.93 134.356 363.261 133.93 363.698V370.002H132.458ZM144.176 370.21C143.696 370.21 143.264 370.114 142.88 369.922C142.496 369.73 142.192 369.453 141.968 369.09C141.755 368.717 141.648 368.269 141.648 367.746C141.648 366.797 142.07 366.071 142.912 365.57C143.766 365.058 145.12 364.701 146.976 364.498C146.976 364.125 146.923 363.773 146.816 363.442C146.72 363.101 146.544 362.829 146.288 362.626C146.032 362.413 145.664 362.306 145.184 362.306C144.683 362.306 144.208 362.407 143.76 362.61C143.323 362.802 142.928 363.01 142.576 363.234L142.016 362.226C142.283 362.055 142.592 361.885 142.944 361.714C143.296 361.533 143.68 361.383 144.096 361.266C144.512 361.149 144.955 361.09 145.424 361.09C146.128 361.09 146.699 361.239 147.136 361.538C147.584 361.837 147.91 362.253 148.112 362.786C148.326 363.309 148.432 363.933 148.432 364.658V370.002H147.232L147.104 368.962H147.056C146.651 369.303 146.203 369.597 145.712 369.842C145.232 370.087 144.72 370.21 144.176 370.21ZM144.592 369.026C145.008 369.026 145.403 368.93 145.776 368.738C146.16 368.546 146.56 368.263 146.976 367.89V365.474C146.006 365.581 145.232 365.735 144.656 365.938C144.08 366.13 143.67 366.37 143.424 366.658C143.179 366.935 143.056 367.266 143.056 367.65C143.056 368.151 143.206 368.509 143.504 368.722C143.803 368.925 144.166 369.026 144.592 369.026ZM153.464 370.21C152.856 370.21 152.264 370.098 151.688 369.874C151.123 369.639 150.637 369.351 150.232 369.01L150.936 368.034C151.32 368.343 151.715 368.594 152.12 368.786C152.525 368.978 152.989 369.074 153.512 369.074C154.088 369.074 154.515 368.946 154.792 368.69C155.08 368.423 155.224 368.098 155.224 367.714C155.224 367.415 155.123 367.17 154.92 366.978C154.728 366.775 154.477 366.605 154.168 366.466C153.869 366.317 153.56 366.183 153.24 366.066C152.835 365.906 152.435 365.73 152.04 365.538C151.656 365.335 151.336 365.079 151.08 364.77C150.835 364.45 150.712 364.045 150.712 363.554C150.712 363.085 150.829 362.669 151.064 362.306C151.299 361.933 151.64 361.639 152.088 361.426C152.536 361.202 153.075 361.09 153.704 361.09C154.237 361.09 154.733 361.186 155.192 361.378C155.661 361.57 156.061 361.805 156.392 362.082L155.688 362.994C155.389 362.781 155.08 362.599 154.76 362.45C154.451 362.301 154.104 362.226 153.72 362.226C153.165 362.226 152.755 362.354 152.488 362.61C152.232 362.855 152.104 363.149 152.104 363.49C152.104 363.757 152.189 363.981 152.36 364.162C152.541 364.343 152.776 364.498 153.064 364.626C153.352 364.743 153.656 364.866 153.976 364.994C154.296 365.111 154.611 365.239 154.92 365.378C155.24 365.517 155.523 365.682 155.768 365.874C156.024 366.066 156.227 366.306 156.376 366.594C156.536 366.871 156.616 367.218 156.616 367.634C156.616 368.103 156.493 368.535 156.248 368.93C156.013 369.325 155.661 369.639 155.192 369.874C154.733 370.098 154.157 370.21 153.464 370.21ZM162.196 370.21C161.418 370.21 160.714 370.029 160.084 369.666C159.455 369.303 158.954 368.786 158.58 368.114C158.218 367.431 158.036 366.615 158.036 365.666C158.036 364.951 158.143 364.317 158.356 363.762C158.57 363.197 158.858 362.717 159.22 362.322C159.594 361.917 160.015 361.613 160.484 361.41C160.954 361.197 161.434 361.09 161.924 361.09C162.671 361.09 163.3 361.255 163.812 361.586C164.324 361.917 164.714 362.391 164.98 363.01C165.258 363.618 165.396 364.338 165.396 365.17C165.396 365.33 165.391 365.479 165.38 365.618C165.37 365.757 165.354 365.885 165.332 366.002H159.476C159.508 366.621 159.647 367.159 159.892 367.618C160.148 368.066 160.484 368.418 160.9 368.674C161.316 368.919 161.802 369.042 162.356 369.042C162.783 369.042 163.167 368.983 163.508 368.866C163.86 368.738 164.202 368.567 164.532 368.354L165.044 369.33C164.671 369.575 164.25 369.783 163.78 369.954C163.311 370.125 162.783 370.21 162.196 370.21ZM159.46 364.962H164.116C164.116 364.087 163.924 363.421 163.54 362.962C163.167 362.493 162.639 362.258 161.956 362.258C161.551 362.258 161.167 362.365 160.804 362.578C160.452 362.791 160.154 363.095 159.908 363.49C159.674 363.885 159.524 364.375 159.46 364.962ZM170.496 370.21C169.77 370.21 169.136 370.034 168.592 369.682C168.058 369.33 167.642 368.818 167.344 368.146C167.056 367.463 166.912 366.637 166.912 365.666C166.912 364.727 167.088 363.917 167.44 363.234C167.792 362.551 168.25 362.023 168.816 361.65C169.392 361.277 170.01 361.09 170.672 361.09C171.184 361.09 171.621 361.181 171.984 361.362C172.357 361.533 172.736 361.778 173.12 362.098L173.04 360.61V357.266H174.512V370.002H173.312L173.184 368.978H173.136C172.794 369.319 172.4 369.613 171.952 369.858C171.504 370.093 171.018 370.21 170.496 370.21ZM170.816 368.978C171.221 368.978 171.605 368.882 171.968 368.69C172.33 368.487 172.688 368.189 173.04 367.794V363.234C172.677 362.903 172.325 362.669 171.984 362.53C171.642 362.391 171.29 362.322 170.928 362.322C170.469 362.322 170.048 362.466 169.664 362.754C169.29 363.031 168.986 363.421 168.752 363.922C168.528 364.413 168.416 364.989 168.416 365.65C168.416 366.343 168.512 366.941 168.704 367.442C168.896 367.943 169.168 368.327 169.52 368.594C169.882 368.85 170.314 368.978 170.816 368.978ZM184.556 370.21C183.777 370.21 183.073 370.029 182.444 369.666C181.814 369.303 181.313 368.786 180.94 368.114C180.577 367.431 180.396 366.615 180.396 365.666C180.396 364.951 180.502 364.317 180.716 363.762C180.929 363.197 181.217 362.717 181.58 362.322C181.953 361.917 182.374 361.613 182.844 361.41C183.313 361.197 183.793 361.09 184.284 361.09C185.03 361.09 185.66 361.255 186.172 361.586C186.684 361.917 187.073 362.391 187.34 363.01C187.617 363.618 187.756 364.338 187.756 365.17C187.756 365.33 187.75 365.479 187.74 365.618C187.729 365.757 187.713 365.885 187.692 366.002H181.836C181.868 366.621 182.006 367.159 182.252 367.618C182.508 368.066 182.844 368.418 183.26 368.674C183.676 368.919 184.161 369.042 184.716 369.042C185.142 369.042 185.526 368.983 185.868 368.866C186.22 368.738 186.561 368.567 186.892 368.354L187.404 369.33C187.03 369.575 186.609 369.783 186.14 369.954C185.67 370.125 185.142 370.21 184.556 370.21ZM181.82 364.962H186.476C186.476 364.087 186.284 363.421 185.9 362.962C185.526 362.493 184.998 362.258 184.316 362.258C183.91 362.258 183.526 362.365 183.164 362.578C182.812 362.791 182.513 363.095 182.268 363.49C182.033 363.885 181.884 364.375 181.82 364.962ZM191.431 370.21C191.068 370.21 190.775 370.135 190.551 369.986C190.327 369.837 190.162 369.618 190.055 369.33C189.948 369.031 189.895 368.679 189.895 368.274V357.266H191.367V368.37C191.367 368.594 191.404 368.754 191.479 368.85C191.564 368.946 191.66 368.994 191.767 368.994C191.81 368.994 191.852 368.994 191.895 368.994C191.938 368.983 191.996 368.973 192.071 368.962L192.279 370.082C192.172 370.114 192.055 370.141 191.927 370.162C191.799 370.194 191.634 370.21 191.431 370.21ZM197.962 370.21C197.183 370.21 196.479 370.029 195.85 369.666C195.22 369.303 194.719 368.786 194.346 368.114C193.983 367.431 193.802 366.615 193.802 365.666C193.802 364.951 193.908 364.317 194.122 363.762C194.335 363.197 194.623 362.717 194.986 362.322C195.359 361.917 195.78 361.613 196.25 361.41C196.719 361.197 197.199 361.09 197.69 361.09C198.436 361.09 199.066 361.255 199.578 361.586C200.09 361.917 200.479 362.391 200.746 363.01C201.023 363.618 201.162 364.338 201.162 365.17C201.162 365.33 201.156 365.479 201.146 365.618C201.135 365.757 201.119 365.885 201.098 366.002H195.242C195.274 366.621 195.412 367.159 195.658 367.618C195.914 368.066 196.25 368.418 196.666 368.674C197.082 368.919 197.567 369.042 198.122 369.042C198.548 369.042 198.932 368.983 199.274 368.866C199.626 368.738 199.967 368.567 200.298 368.354L200.81 369.33C200.436 369.575 200.015 369.783 199.546 369.954C199.076 370.125 198.548 370.21 197.962 370.21ZM195.226 364.962H199.882C199.882 364.087 199.69 363.421 199.306 362.962C198.932 362.493 198.404 362.258 197.722 362.258C197.316 362.258 196.932 362.365 196.57 362.578C196.218 362.791 195.919 363.095 195.674 363.49C195.439 363.885 195.29 364.375 195.226 364.962ZM206.725 370.21C205.957 370.21 205.264 370.034 204.645 369.682C204.037 369.319 203.552 368.802 203.189 368.13C202.837 367.447 202.661 366.626 202.661 365.666C202.661 364.695 202.853 363.874 203.237 363.202C203.621 362.519 204.133 361.997 204.773 361.634C205.413 361.271 206.101 361.09 206.837 361.09C207.402 361.09 207.888 361.191 208.293 361.394C208.709 361.597 209.066 361.837 209.365 362.114L208.629 363.074C208.384 362.85 208.117 362.669 207.829 362.53C207.552 362.391 207.242 362.322 206.901 362.322C206.378 362.322 205.909 362.461 205.493 362.738C205.077 363.015 204.752 363.405 204.517 363.906C204.282 364.407 204.165 364.994 204.165 365.666C204.165 366.327 204.277 366.909 204.501 367.41C204.736 367.911 205.05 368.301 205.445 368.578C205.85 368.855 206.32 368.994 206.853 368.994C207.258 368.994 207.632 368.914 207.973 368.754C208.314 368.583 208.624 368.375 208.901 368.13L209.541 369.122C209.146 369.463 208.709 369.73 208.229 369.922C207.749 370.114 207.248 370.21 206.725 370.21ZM213.959 370.21C213.351 370.21 212.865 370.093 212.503 369.858C212.14 369.613 211.879 369.271 211.719 368.834C211.569 368.397 211.495 367.89 211.495 367.314V362.498H210.199V361.394L211.575 361.314L211.735 358.866H212.951V361.314H215.319V362.498H212.951V367.362C212.951 367.885 213.047 368.295 213.239 368.594C213.441 368.882 213.793 369.026 214.295 369.026C214.455 369.026 214.625 369.005 214.807 368.962C214.988 368.909 215.148 368.85 215.287 368.786L215.575 369.89C215.329 369.975 215.068 370.05 214.791 370.114C214.513 370.178 214.236 370.21 213.959 370.21ZM217.27 370.002V361.314H218.47L218.614 362.898H218.646C218.945 362.343 219.307 361.906 219.734 361.586C220.171 361.255 220.63 361.09 221.11 361.09C221.313 361.09 221.483 361.106 221.622 361.138C221.771 361.159 221.91 361.207 222.038 361.282L221.766 362.546C221.617 362.503 221.483 362.471 221.366 362.45C221.249 362.418 221.099 362.402 220.918 362.402C220.566 362.402 220.187 362.557 219.782 362.866C219.377 363.165 219.03 363.682 218.742 364.418V370.002H217.27ZM223.473 370.002V361.314H224.945V370.002H223.473ZM224.209 359.522C223.921 359.522 223.686 359.437 223.505 359.266C223.334 359.085 223.249 358.845 223.249 358.546C223.249 358.258 223.334 358.029 223.505 357.858C223.686 357.687 223.921 357.602 224.209 357.602C224.497 357.602 224.732 357.687 224.913 357.858C225.094 358.029 225.185 358.258 225.185 358.546C225.185 358.845 225.094 359.085 224.913 359.266C224.732 359.437 224.497 359.522 224.209 359.522ZM231.303 370.21C230.535 370.21 229.842 370.034 229.223 369.682C228.615 369.319 228.13 368.802 227.767 368.13C227.415 367.447 227.239 366.626 227.239 365.666C227.239 364.695 227.431 363.874 227.815 363.202C228.199 362.519 228.711 361.997 229.351 361.634C229.991 361.271 230.679 361.09 231.415 361.09C231.981 361.09 232.466 361.191 232.871 361.394C233.287 361.597 233.645 361.837 233.943 362.114L233.207 363.074C232.962 362.85 232.695 362.669 232.407 362.53C232.13 362.391 231.821 362.322 231.479 362.322C230.957 362.322 230.487 362.461 230.071 362.738C229.655 363.015 229.33 363.405 229.095 363.906C228.861 364.407 228.743 364.994 228.743 365.666C228.743 366.327 228.855 366.909 229.079 367.41C229.314 367.911 229.629 368.301 230.023 368.578C230.429 368.855 230.898 368.994 231.431 368.994C231.837 368.994 232.21 368.914 232.551 368.754C232.893 368.583 233.202 368.375 233.479 368.13L234.119 369.122C233.725 369.463 233.287 369.73 232.807 369.922C232.327 370.114 231.826 370.21 231.303 370.21ZM236.036 370.002V361.314H237.508V370.002H236.036ZM236.772 359.522C236.484 359.522 236.249 359.437 236.068 359.266C235.897 359.085 235.812 358.845 235.812 358.546C235.812 358.258 235.897 358.029 236.068 357.858C236.249 357.687 236.484 357.602 236.772 357.602C237.06 357.602 237.294 357.687 237.476 357.858C237.657 358.029 237.748 358.258 237.748 358.546C237.748 358.845 237.657 359.085 237.476 359.266C237.294 359.437 237.06 359.522 236.772 359.522ZM243.162 370.21C242.554 370.21 242.068 370.093 241.706 369.858C241.343 369.613 241.082 369.271 240.922 368.834C240.772 368.397 240.698 367.89 240.698 367.314V362.498H239.402V361.394L240.778 361.314L240.938 358.866H242.154V361.314H244.522V362.498H242.154V367.362C242.154 367.885 242.25 368.295 242.442 368.594C242.644 368.882 242.996 369.026 243.498 369.026C243.658 369.026 243.828 369.005 244.01 368.962C244.191 368.909 244.351 368.85 244.49 368.786L244.778 369.89C244.532 369.975 244.271 370.05 243.994 370.114C243.716 370.178 243.439 370.21 243.162 370.21ZM246.617 373.746C246.414 373.746 246.228 373.73 246.057 373.698C245.886 373.666 245.732 373.623 245.593 373.57L245.881 372.402C245.966 372.434 246.068 372.466 246.185 372.498C246.302 372.53 246.425 372.546 246.553 372.546C247.044 372.546 247.444 372.365 247.753 372.002C248.073 371.65 248.324 371.207 248.505 370.674L248.697 370.018L245.209 361.314H246.729L248.489 366.13C248.628 366.514 248.766 366.919 248.905 367.346C249.054 367.773 249.204 368.189 249.353 368.594H249.433C249.55 368.189 249.668 367.778 249.785 367.362C249.913 366.935 250.03 366.525 250.137 366.13L251.705 361.314H253.129L249.865 370.738C249.662 371.303 249.417 371.81 249.129 372.258C248.841 372.717 248.494 373.079 248.089 373.346C247.684 373.613 247.193 373.746 246.617 373.746Z" fill="#4F4F4F"/>
<mask id="mask1_338_39721" style="mask-type:luminance" maskUnits="userSpaceOnUse" x="314" y="359" width="10" height="10">
<path d="M324 359H314V369H324V359Z" fill="white"/>
</mask>
<g mask="url(#mask1_338_39721)">
<path d="M323.908 364.094L318.908 359.094L313.908 364.094L318.908 369.094L323.908 364.094Z" fill="url(#paint4_linear_338_39721)"/>
</g>
<path d="M333.617 370.002V358.274H335.121L339.409 365.666L340.673 368.082H340.753C340.7 367.495 340.652 366.882 340.609 366.242C340.566 365.602 340.545 364.978 340.545 364.37V358.274H341.953V370.002H340.433L336.161 362.594L334.897 360.194H334.833C334.865 360.781 334.902 361.383 334.945 362.002C334.988 362.61 335.009 363.223 335.009 363.842V370.002H333.617ZM347.036 370.21C346.556 370.21 346.124 370.114 345.74 369.922C345.356 369.73 345.052 369.453 344.828 369.09C344.614 368.717 344.508 368.269 344.508 367.746C344.508 366.797 344.929 366.071 345.772 365.57C346.625 365.058 347.98 364.701 349.836 364.498C349.836 364.125 349.782 363.773 349.676 363.442C349.58 363.101 349.404 362.829 349.148 362.626C348.892 362.413 348.524 362.306 348.044 362.306C347.542 362.306 347.068 362.407 346.62 362.61C346.182 362.802 345.788 363.01 345.436 363.234L344.876 362.226C345.142 362.055 345.452 361.885 345.804 361.714C346.156 361.533 346.54 361.383 346.956 361.266C347.372 361.149 347.814 361.09 348.284 361.09C348.988 361.09 349.558 361.239 349.996 361.538C350.444 361.837 350.769 362.253 350.972 362.786C351.185 363.309 351.292 363.933 351.292 364.658V370.002H350.092L349.964 368.962H349.916C349.51 369.303 349.062 369.597 348.572 369.842C348.092 370.087 347.58 370.21 347.036 370.21ZM347.452 369.026C347.868 369.026 348.262 368.93 348.636 368.738C349.02 368.546 349.42 368.263 349.836 367.89V365.474C348.865 365.581 348.092 365.735 347.516 365.938C346.94 366.13 346.529 366.37 346.284 366.658C346.038 366.935 345.915 367.266 345.915 367.65C345.915 368.151 346.065 368.509 346.364 368.722C346.662 368.925 347.025 369.026 347.452 369.026ZM356.49 370.21C355.882 370.21 355.397 370.093 355.034 369.858C354.671 369.613 354.41 369.271 354.25 368.834C354.101 368.397 354.026 367.89 354.026 367.314V362.498H352.73V361.394L354.106 361.314L354.266 358.866H355.482V361.314H357.85V362.498H355.482V367.362C355.482 367.885 355.578 368.295 355.77 368.594C355.973 368.882 356.325 369.026 356.826 369.026C356.986 369.026 357.157 369.005 357.338 368.962C357.519 368.909 357.679 368.85 357.818 368.786L358.106 369.89C357.861 369.975 357.599 370.05 357.322 370.114C357.045 370.178 356.767 370.21 356.49 370.21ZM362.345 370.21C361.428 370.21 360.75 369.922 360.313 369.346C359.886 368.77 359.673 367.927 359.673 366.818V361.314H361.145V366.642C361.145 367.442 361.273 368.029 361.529 368.402C361.785 368.765 362.201 368.946 362.777 368.946C363.225 368.946 363.625 368.829 363.977 368.594C364.329 368.359 364.713 367.986 365.129 367.474V361.314H366.585V370.002H365.369L365.257 368.642H365.209C364.804 369.111 364.372 369.49 363.913 369.778C363.465 370.066 362.942 370.21 362.345 370.21ZM369.52 370.002V361.314H370.72L370.864 362.898H370.896C371.195 362.343 371.557 361.906 371.984 361.586C372.421 361.255 372.88 361.09 373.36 361.09C373.563 361.09 373.733 361.106 373.872 361.138C374.021 361.159 374.16 361.207 374.288 361.282L374.016 362.546C373.867 362.503 373.733 362.471 373.616 362.45C373.499 362.418 373.349 362.402 373.168 362.402C372.816 362.402 372.437 362.557 372.032 362.866C371.627 363.165 371.28 363.682 370.992 364.418V370.002H369.52ZM377.254 370.21C376.774 370.21 376.342 370.114 375.958 369.922C375.574 369.73 375.27 369.453 375.046 369.09C374.833 368.717 374.726 368.269 374.726 367.746C374.726 366.797 375.148 366.071 375.99 365.57C376.844 365.058 378.198 364.701 380.054 364.498C380.054 364.125 380.001 363.773 379.894 363.442C379.798 363.101 379.622 362.829 379.366 362.626C379.11 362.413 378.742 362.306 378.262 362.306C377.761 362.306 377.286 362.407 376.838 362.61C376.401 362.802 376.006 363.01 375.654 363.234L375.094 362.226C375.361 362.055 375.67 361.885 376.022 361.714C376.374 361.533 376.758 361.383 377.174 361.266C377.59 361.149 378.033 361.09 378.502 361.09C379.206 361.09 379.777 361.239 380.214 361.538C380.662 361.837 380.988 362.253 381.19 362.786C381.404 363.309 381.51 363.933 381.51 364.658V370.002H380.31L380.182 368.962H380.134C379.729 369.303 379.281 369.597 378.79 369.842C378.31 370.087 377.798 370.21 377.254 370.21ZM377.67 369.026C378.086 369.026 378.481 368.93 378.854 368.738C379.238 368.546 379.638 368.263 380.054 367.89V365.474C379.084 365.581 378.31 365.735 377.734 365.938C377.158 366.13 376.748 366.37 376.502 366.658C376.257 366.935 376.134 367.266 376.134 367.65C376.134 368.151 376.284 368.509 376.582 368.722C376.881 368.925 377.244 369.026 377.67 369.026ZM385.806 370.21C385.443 370.21 385.15 370.135 384.926 369.986C384.702 369.837 384.537 369.618 384.43 369.33C384.323 369.031 384.27 368.679 384.27 368.274V357.266H385.742V368.37C385.742 368.594 385.779 368.754 385.854 368.85C385.939 368.946 386.035 368.994 386.142 368.994C386.185 368.994 386.227 368.994 386.27 368.994C386.313 368.983 386.371 368.973 386.446 368.962L386.654 370.082C386.547 370.114 386.43 370.141 386.302 370.162C386.174 370.194 386.009 370.21 385.806 370.21ZM395.323 374.002C394.619 374.002 393.995 373.911 393.451 373.73C392.907 373.549 392.486 373.282 392.187 372.93C391.888 372.589 391.739 372.173 391.739 371.682C391.739 371.309 391.851 370.946 392.075 370.594C392.299 370.253 392.614 369.959 393.019 369.714V369.634C392.795 369.495 392.608 369.309 392.459 369.074C392.31 368.839 392.235 368.551 392.235 368.21C392.235 367.847 392.336 367.527 392.539 367.25C392.752 366.973 392.971 366.754 393.195 366.594V366.53C392.907 366.306 392.646 365.991 392.411 365.586C392.176 365.181 392.059 364.717 392.059 364.194C392.059 363.554 392.208 363.005 392.507 362.546C392.806 362.077 393.2 361.719 393.691 361.474C394.192 361.218 394.731 361.09 395.307 361.09C395.563 361.09 395.792 361.111 395.995 361.154C396.208 361.197 396.39 361.25 396.539 361.314H399.563V362.434H397.787C398 362.637 398.171 362.893 398.299 363.202C398.427 363.511 398.491 363.853 398.491 364.226C398.491 364.845 398.347 365.383 398.059 365.842C397.782 366.29 397.403 366.637 396.923 366.882C396.443 367.127 395.904 367.25 395.307 367.25C395.104 367.25 394.886 367.223 394.651 367.17C394.427 367.117 394.219 367.042 394.027 366.946C393.867 367.074 393.734 367.218 393.627 367.378C393.52 367.538 393.467 367.741 393.467 367.986C393.467 368.253 393.574 368.477 393.787 368.658C394 368.839 394.4 368.93 394.987 368.93H396.699C397.702 368.93 398.454 369.095 398.955 369.426C399.467 369.757 399.723 370.279 399.723 370.994C399.723 371.527 399.542 372.023 399.179 372.482C398.816 372.941 398.304 373.309 397.643 373.586C396.992 373.863 396.219 374.002 395.323 374.002ZM395.307 366.258C395.648 366.258 395.958 366.173 396.235 366.002C396.523 365.831 396.747 365.591 396.907 365.282C397.078 364.973 397.163 364.61 397.163 364.194C397.163 363.767 397.078 363.405 396.907 363.106C396.747 362.797 396.528 362.562 396.251 362.402C395.974 362.242 395.659 362.162 395.307 362.162C394.976 362.162 394.667 362.242 394.379 362.402C394.102 362.562 393.878 362.791 393.707 363.09C393.547 363.389 393.467 363.757 393.467 364.194C393.467 364.61 393.552 364.973 393.723 365.282C393.894 365.591 394.118 365.831 394.395 366.002C394.672 366.173 394.976 366.258 395.307 366.258ZM395.531 372.994C396.086 372.994 396.566 372.909 396.971 372.738C397.387 372.567 397.707 372.343 397.931 372.066C398.166 371.799 398.283 371.522 398.283 371.234C398.283 370.818 398.134 370.53 397.835 370.37C397.536 370.21 397.099 370.13 396.523 370.13H395.019C394.859 370.13 394.678 370.119 394.475 370.098C394.283 370.087 394.091 370.055 393.899 370.002C393.59 370.215 393.366 370.45 393.227 370.706C393.088 370.973 393.019 371.229 393.019 371.474C393.019 371.933 393.238 372.301 393.675 372.578C394.123 372.855 394.742 372.994 395.531 372.994ZM403.114 370.21C402.634 370.21 402.202 370.114 401.818 369.922C401.434 369.73 401.13 369.453 400.906 369.09C400.692 368.717 400.586 368.269 400.586 367.746C400.586 366.797 401.007 366.071 401.85 365.57C402.703 365.058 404.058 364.701 405.914 364.498C405.914 364.125 405.86 363.773 405.754 363.442C405.658 363.101 405.482 362.829 405.226 362.626C404.97 362.413 404.602 362.306 404.122 362.306C403.62 362.306 403.146 362.407 402.698 362.61C402.26 362.802 401.866 363.01 401.514 363.234L400.954 362.226C401.22 362.055 401.53 361.885 401.882 361.714C402.234 361.533 402.618 361.383 403.034 361.266C403.45 361.149 403.892 361.09 404.362 361.09C405.066 361.09 405.636 361.239 406.074 361.538C406.522 361.837 406.847 362.253 407.05 362.786C407.263 363.309 407.37 363.933 407.37 364.658V370.002H406.17L406.042 368.962H405.994C405.588 369.303 405.14 369.597 404.65 369.842C404.17 370.087 403.658 370.21 403.114 370.21ZM403.53 369.026C403.946 369.026 404.34 368.93 404.714 368.738C405.098 368.546 405.498 368.263 405.914 367.89V365.474C404.943 365.581 404.17 365.735 403.594 365.938C403.018 366.13 402.607 366.37 402.362 366.658C402.116 366.935 401.994 367.266 401.994 367.65C401.994 368.151 402.143 368.509 402.442 368.722C402.74 368.925 403.103 369.026 403.53 369.026ZM412.401 370.21C411.793 370.21 411.201 370.098 410.625 369.874C410.06 369.639 409.575 369.351 409.169 369.01L409.873 368.034C410.257 368.343 410.652 368.594 411.057 368.786C411.463 368.978 411.927 369.074 412.449 369.074C413.025 369.074 413.452 368.946 413.729 368.69C414.017 368.423 414.161 368.098 414.161 367.714C414.161 367.415 414.06 367.17 413.857 366.978C413.665 366.775 413.415 366.605 413.105 366.466C412.807 366.317 412.497 366.183 412.177 366.066C411.772 365.906 411.372 365.73 410.977 365.538C410.593 365.335 410.273 365.079 410.017 364.77C409.772 364.45 409.649 364.045 409.649 363.554C409.649 363.085 409.767 362.669 410.001 362.306C410.236 361.933 410.577 361.639 411.025 361.426C411.473 361.202 412.012 361.09 412.641 361.09C413.175 361.09 413.671 361.186 414.129 361.378C414.599 361.57 414.999 361.805 415.329 362.082L414.625 362.994C414.327 362.781 414.017 362.599 413.697 362.45C413.388 362.301 413.041 362.226 412.657 362.226C412.103 362.226 411.692 362.354 411.425 362.61C411.169 362.855 411.041 363.149 411.041 363.49C411.041 363.757 411.127 363.981 411.297 364.162C411.479 364.343 411.713 364.498 412.001 364.626C412.289 364.743 412.593 364.866 412.913 364.994C413.233 365.111 413.548 365.239 413.857 365.378C414.177 365.517 414.46 365.682 414.705 365.874C414.961 366.066 415.164 366.306 415.313 366.594C415.473 366.871 415.553 367.218 415.553 367.634C415.553 368.103 415.431 368.535 415.185 368.93C414.951 369.325 414.599 369.639 414.129 369.874C413.671 370.098 413.095 370.21 412.401 370.21Z" fill="#4F4F4F"/>
<mask id="mask2_338_39721" style="mask-type:luminance" maskUnits="userSpaceOnUse" x="477" y="359" width="10" height="10">
<path d="M487 359H477V369H487V359Z" fill="white"/>
</mask>
<g mask="url(#mask2_338_39721)">
<path d="M486.908 364.094L481.908 359.094L476.908 364.094L481.908 369.094L486.908 364.094Z" fill="url(#paint5_linear_338_39721)"/>
</g>
<path d="M499.864 370.207C499.032 370.207 498.264 370.051 497.56 369.742C496.867 369.433 496.269 369.012 495.768 368.479L496.648 367.454C497.064 367.891 497.555 368.243 498.12 368.51C498.685 368.777 499.272 368.91 499.88 368.91C500.659 368.91 501.261 368.735 501.688 368.383C502.125 368.031 502.344 367.571 502.344 367.007C502.344 366.59 502.253 366.259 502.072 366.014C501.901 365.769 501.667 365.566 501.368 365.406C501.08 365.235 500.749 365.07 500.376 364.91L498.696 364.174C498.333 364.014 497.965 363.811 497.592 363.566C497.229 363.321 496.925 363.002 496.68 362.607C496.435 362.212 496.312 361.732 496.312 361.167C496.312 360.559 496.472 360.025 496.792 359.566C497.112 359.097 497.549 358.729 498.104 358.462C498.659 358.195 499.293 358.062 500.008 358.062C500.712 358.062 501.357 358.195 501.944 358.462C502.541 358.729 503.043 359.076 503.448 359.503L502.68 360.447C502.317 360.116 501.917 359.855 501.48 359.663C501.053 359.46 500.563 359.358 500.008 359.358C499.347 359.358 498.813 359.514 498.408 359.823C498.013 360.122 497.816 360.532 497.816 361.055C497.816 361.439 497.912 361.754 498.104 361.999C498.307 362.244 498.557 362.442 498.856 362.591C499.155 362.74 499.459 362.883 499.768 363.022L501.432 363.742C501.88 363.934 502.285 364.164 502.648 364.431C503.021 364.698 503.315 365.028 503.528 365.423C503.741 365.818 503.848 366.303 503.848 366.879C503.848 367.498 503.688 368.062 503.368 368.574C503.048 369.075 502.589 369.476 501.992 369.775C501.395 370.063 500.685 370.207 499.864 370.207ZM508.255 370.207C507.647 370.207 507.161 370.089 506.799 369.854C506.436 369.609 506.175 369.268 506.015 368.831C505.865 368.394 505.791 367.887 505.791 367.311V362.495H504.495V361.391L505.871 361.311L506.031 358.863H507.247V361.311H509.615V362.495H507.247V367.358C507.247 367.881 507.343 368.292 507.535 368.591C507.737 368.879 508.089 369.022 508.591 369.022C508.751 369.022 508.921 369.001 509.103 368.958C509.284 368.905 509.444 368.847 509.583 368.783L509.871 369.887C509.625 369.972 509.364 370.047 509.087 370.111C508.809 370.175 508.532 370.207 508.255 370.207ZM514.805 370.207C514.026 370.207 513.322 370.026 512.693 369.663C512.063 369.3 511.562 368.783 511.189 368.111C510.826 367.428 510.645 366.612 510.645 365.663C510.645 364.948 510.751 364.314 510.965 363.759C511.178 363.194 511.466 362.714 511.829 362.319C512.202 361.914 512.623 361.609 513.093 361.406C513.562 361.193 514.042 361.087 514.533 361.087C515.279 361.087 515.909 361.252 516.421 361.583C516.933 361.914 517.322 362.388 517.589 363.007C517.866 363.615 518.005 364.335 518.005 365.167C518.005 365.327 517.999 365.476 517.989 365.615C517.978 365.754 517.962 365.882 517.941 365.999H512.085C512.117 366.618 512.255 367.156 512.501 367.615C512.757 368.063 513.093 368.415 513.509 368.671C513.925 368.916 514.41 369.039 514.965 369.039C515.391 369.039 515.775 368.98 516.117 368.863C516.469 368.735 516.81 368.563 517.141 368.35L517.653 369.327C517.279 369.572 516.858 369.78 516.389 369.951C515.919 370.122 515.391 370.207 514.805 370.207ZM512.069 364.958H516.725C516.725 364.083 516.533 363.417 516.149 362.958C515.775 362.489 515.247 362.255 514.565 362.255C514.159 362.255 513.775 362.361 513.413 362.574C513.061 362.787 512.762 363.092 512.517 363.487C512.282 363.882 512.133 364.371 512.069 364.958ZM521.847 370.207C521.367 370.207 520.935 370.111 520.551 369.919C520.167 369.727 519.863 369.45 519.639 369.087C519.426 368.714 519.319 368.265 519.319 367.742C519.319 366.793 519.74 366.067 520.583 365.566C521.436 365.054 522.791 364.698 524.647 364.495C524.647 364.122 524.594 363.77 524.487 363.439C524.391 363.098 524.215 362.825 523.959 362.622C523.703 362.409 523.335 362.302 522.855 362.302C522.354 362.302 521.879 362.404 521.431 362.607C520.994 362.799 520.599 363.006 520.247 363.23L519.687 362.223C519.954 362.052 520.263 361.882 520.615 361.711C520.967 361.53 521.351 361.38 521.767 361.263C522.183 361.146 522.626 361.087 523.095 361.087C523.799 361.087 524.37 361.236 524.807 361.535C525.255 361.834 525.58 362.25 525.783 362.783C525.996 363.306 526.103 363.93 526.103 364.655V369.999H524.903L524.775 368.958H524.727C524.322 369.299 523.874 369.594 523.383 369.839C522.903 370.084 522.391 370.207 521.847 370.207ZM522.263 369.022C522.679 369.022 523.074 368.926 523.447 368.734C523.831 368.542 524.231 368.26 524.647 367.887V365.47C523.676 365.577 522.903 365.732 522.327 365.935C521.751 366.127 521.34 366.367 521.095 366.655C520.85 366.932 520.727 367.263 520.727 367.647C520.727 368.148 520.876 368.506 521.175 368.719C521.474 368.922 521.836 369.022 522.263 369.022ZM528.863 369.999V361.311H530.063L530.207 362.574H530.239C530.623 362.158 531.039 361.806 531.487 361.518C531.945 361.23 532.431 361.087 532.943 361.087C533.615 361.087 534.137 361.236 534.511 361.535C534.884 361.834 535.161 362.239 535.343 362.751C535.801 362.26 536.26 361.86 536.719 361.551C537.188 361.242 537.689 361.087 538.223 361.087C539.108 361.087 539.764 361.379 540.191 361.966C540.628 362.542 540.847 363.386 540.847 364.495V369.999H539.391V364.686C539.391 363.865 539.257 363.273 538.991 362.91C538.735 362.547 538.329 362.367 537.775 362.367C537.444 362.367 537.097 362.479 536.735 362.703C536.383 362.916 535.999 363.247 535.583 363.695V369.999H534.127V364.686C534.127 363.865 533.993 363.273 533.727 362.91C533.471 362.547 533.065 362.367 532.511 362.367C532.18 362.367 531.833 362.479 531.471 362.703C531.108 362.916 530.729 363.247 530.335 363.695V369.999H528.863Z" fill="#4F4F4F"/>
</g>
<defs>
<linearGradient id="paint0_linear_338_39721" x1="309" y1="7.57812" x2="309" y2="337.578" gradientUnits="userSpaceOnUse">
<stop stop-color="#C2C559"/>
<stop offset="1" stop-color="#A7AC39"/>
</linearGradient>
<linearGradient id="paint1_linear_338_39721" x1="330" y1="1.00294" x2="330" y2="98.5029" gradientUnits="userSpaceOnUse">
<stop stop-color="#FF9E45"/>
<stop offset="1" stop-color="#FF7A00"/>
</linearGradient>
<linearGradient id="paint2_linear_338_39721" x1="414.903" y1="9.7973" x2="414.903" y2="120" gradientUnits="userSpaceOnUse">
<stop stop-color="#6FC7E2"/>
<stop offset="1" stop-color="#00AED4"/>
</linearGradient>
<linearGradient id="paint3_linear_338_39721" x1="83.5" y1="359" x2="83.5" y2="369" gradientUnits="userSpaceOnUse">
<stop stop-color="#C2C559"/>
<stop offset="1" stop-color="#A7AC39"/>
</linearGradient>
<linearGradient id="paint4_linear_338_39721" x1="319.002" y1="359" x2="319.002" y2="369" gradientUnits="userSpaceOnUse">
<stop stop-color="#FF9E45"/>
<stop offset="1" stop-color="#FF7A00"/>
</linearGradient>
<linearGradient id="paint5_linear_338_39721" x1="482.002" y1="359" x2="482.002" y2="369" gradientUnits="userSpaceOnUse">
<stop stop-color="#6FC7E2"/>
<stop offset="1" stop-color="#00AED4"/>
</linearGradient>
<clipPath id="clip0_338_39721">
<rect width="620" height="378" fill="white"/>
</clipPath>
</defs>
</svg>
