<svg width="876" height="350" viewBox="0 0 876 350" fill="none" xmlns="http://www.w3.org/2000/svg">
<g clip-path="url(#clip0_338_34921)">
<path d="M876 0H0V350H876V0Z" fill="white"/>
<path d="M393 92H78V93H393V92Z" fill="#E7E7E7"/>
<mask id="mask0_338_34921" style="mask-type:luminance" maskUnits="userSpaceOnUse" x="78" y="163" width="10" height="10">
<path d="M88 163H78V173H88V163Z" fill="white"/>
</mask>
<g mask="url(#mask0_338_34921)">
<path d="M87.9063 168.094L82.9062 163.094L77.9063 168.094L82.9063 173.094L87.9063 168.094Z" fill="url(#paint0_linear_338_34921)"/>
</g>
<path d="M100.095 175.208C97.1825 175.208 94.9905 172.952 94.9905 169.144C94.9905 165.352 97.2145 163.048 100.191 163.048C101.615 163.048 102.735 163.752 103.407 164.504L102.607 165.464C101.999 164.808 101.215 164.344 100.207 164.344C97.9825 164.344 96.5105 166.168 96.5105 169.096C96.5105 172.056 97.9185 173.912 100.159 173.912C101.279 173.912 102.127 173.416 102.878 172.6L103.695 173.528C102.767 174.6 101.615 175.208 100.095 175.208ZM107.738 175.208C106.282 175.208 105.194 174.312 105.194 172.744C105.194 170.856 106.842 169.912 110.538 169.496C110.538 168.376 110.17 167.304 108.746 167.304C107.738 167.304 106.826 167.768 106.138 168.232L105.562 167.224C106.362 166.712 107.594 166.088 108.986 166.088C111.098 166.088 111.994 167.512 111.994 169.656V175H110.794L110.666 173.96H110.618C109.786 174.648 108.81 175.208 107.738 175.208ZM108.154 174.04C109.002 174.04 109.69 173.64 110.538 172.888V170.456C107.61 170.808 106.618 171.528 106.618 172.648C106.618 173.64 107.29 174.04 108.154 174.04ZM117.041 175.208C115.809 175.208 114.625 174.696 113.793 174.008L114.513 173.048C115.265 173.656 116.049 174.072 117.089 174.072C118.241 174.072 118.801 173.464 118.801 172.712C118.801 171.832 117.777 171.432 116.817 171.064C115.601 170.616 114.225 170.024 114.225 168.552C114.225 167.176 115.329 166.088 117.217 166.088C118.289 166.088 119.233 166.536 119.921 167.064L119.217 168.008C118.609 167.56 118.001 167.24 117.217 167.24C116.129 167.24 115.633 167.816 115.633 168.488C115.633 169.32 116.577 169.624 117.553 169.992C118.817 170.472 120.209 170.984 120.209 172.632C120.209 174.04 119.089 175.208 117.041 175.208ZM122.253 175V162.264H123.709V165.752L123.661 167.544C124.461 166.744 125.357 166.088 126.541 166.088C128.365 166.088 129.197 167.272 129.197 169.496V175H127.741V169.688C127.741 168.056 127.245 167.368 126.093 167.368C125.197 167.368 124.589 167.816 123.709 168.696V175H122.253ZM135.678 175V163.272H138.622C142.222 163.272 144.158 165.368 144.158 169.096C144.158 172.808 142.222 175 138.686 175H135.678ZM137.166 173.784H138.494C141.262 173.784 142.622 172.056 142.622 169.096C142.622 166.12 141.262 164.472 138.494 164.472H137.166V173.784ZM149.911 175.208C147.783 175.208 145.879 173.544 145.879 170.664C145.879 167.768 147.783 166.088 149.911 166.088C152.039 166.088 153.943 167.768 153.943 170.664C153.943 173.544 152.039 175.208 149.911 175.208ZM149.911 173.992C151.415 173.992 152.439 172.664 152.439 170.664C152.439 168.664 151.415 167.304 149.911 167.304C148.407 167.304 147.399 168.664 147.399 170.664C147.399 172.664 148.407 173.992 149.911 173.992ZM156.238 175V166.312H157.438L157.566 167.56H157.614C158.446 166.744 159.342 166.088 160.526 166.088C162.35 166.088 163.182 167.272 163.182 169.496V175H161.726V169.688C161.726 168.056 161.23 167.368 160.078 167.368C159.182 167.368 158.574 167.816 157.694 168.696V175H156.238ZM168.019 175.208C166.563 175.208 165.475 174.312 165.475 172.744C165.475 170.856 167.123 169.912 170.819 169.496C170.819 168.376 170.451 167.304 169.027 167.304C168.019 167.304 167.107 167.768 166.419 168.232L165.843 167.224C166.643 166.712 167.875 166.088 169.267 166.088C171.379 166.088 172.275 167.512 172.275 169.656V175H171.075L170.947 173.96H170.899C170.067 174.648 169.091 175.208 168.019 175.208ZM168.435 174.04C169.283 174.04 169.971 173.64 170.819 172.888V170.456C167.891 170.808 166.899 171.528 166.899 172.648C166.899 173.64 167.571 174.04 168.435 174.04ZM177.552 175.208C175.696 175.208 175.072 174.056 175.072 172.312V167.496H173.776V166.392L175.136 166.312L175.312 163.88H176.528V166.312H178.88V167.496H176.528V172.344C176.528 173.416 176.864 174.024 177.872 174.024C178.176 174.024 178.576 173.912 178.864 173.8L179.152 174.888C178.656 175.048 178.08 175.208 177.552 175.208ZM180.847 175V166.312H182.303V175H180.847ZM181.583 164.52C181.007 164.52 180.575 164.12 180.575 163.576C180.575 162.984 181.007 162.632 181.583 162.632C182.159 162.632 182.591 162.984 182.591 163.576C182.591 164.12 182.159 164.52 181.583 164.52ZM188.629 175.208C186.501 175.208 184.597 173.544 184.597 170.664C184.597 167.768 186.501 166.088 188.629 166.088C190.757 166.088 192.661 167.768 192.661 170.664C192.661 173.544 190.757 175.208 188.629 175.208ZM188.629 173.992C190.133 173.992 191.157 172.664 191.157 170.664C191.157 168.664 190.133 167.304 188.629 167.304C187.125 167.304 186.117 168.664 186.117 170.664C186.117 172.664 187.125 173.992 188.629 173.992ZM194.956 175V166.312H196.156L196.284 167.56H196.332C197.164 166.744 198.06 166.088 199.244 166.088C201.068 166.088 201.9 167.272 201.9 169.496V175H200.444V169.688C200.444 168.056 199.948 167.368 198.796 167.368C197.9 167.368 197.292 167.816 196.412 168.696V175H194.956ZM207.01 175.208C205.778 175.208 204.594 174.696 203.762 174.008L204.482 173.048C205.234 173.656 206.018 174.072 207.058 174.072C208.21 174.072 208.77 173.464 208.77 172.712C208.77 171.832 207.746 171.432 206.786 171.064C205.57 170.616 204.194 170.024 204.194 168.552C204.194 167.176 205.298 166.088 207.186 166.088C208.258 166.088 209.202 166.536 209.89 167.064L209.186 168.008C208.578 167.56 207.97 167.24 207.186 167.24C206.098 167.24 205.602 167.816 205.602 168.488C205.602 169.32 206.546 169.624 207.522 169.992C208.786 170.472 210.178 170.984 210.178 172.632C210.178 174.04 209.058 175.208 207.01 175.208ZM215.064 171.08V169.96H219.16V171.08H215.064ZM225.053 175V163.272H226.589L230.861 170.664L232.109 173.08H232.189C232.109 171.896 231.997 170.584 231.997 169.368V163.272H233.405V175H231.885L227.613 167.592L226.349 165.176H226.285C226.349 166.36 226.461 167.608 226.461 168.84V175H225.053ZM239.048 175V164.52H235.496V163.272H244.088V164.52H240.536V175H239.048ZM252.146 164.744L251.362 165.608C250.706 164.968 250.162 164.6 249.186 164.6C248.082 164.6 247.378 165.288 247.378 166.328C247.378 168.936 252.386 168.216 252.386 172.056C252.386 173.752 251.314 174.92 249.618 175.16V176.968H248.562V175.192C247.426 175.08 246.274 174.52 245.506 173.816L246.194 172.824C246.946 173.464 247.858 173.992 248.946 173.992C250.274 173.992 250.962 173.272 250.962 172.152C250.962 169.24 245.954 169.88 245.954 166.392C245.954 164.792 247.01 163.656 248.562 163.432V161.624H249.618V163.4C250.77 163.528 251.506 164.072 252.146 164.744ZM258.439 175V173.784H261.047V165.032H258.967V164.104C260.007 163.912 260.759 163.64 261.399 163.272H262.519V173.784H264.871V175H258.439ZM269.074 175C269.266 170.552 270.082 167.72 272.37 164.52H266.69V163.272H274.034V164.152C271.282 167.688 270.77 170.408 270.594 175H269.074ZM275.981 178.04L275.629 177.176C276.621 176.744 277.213 175.976 277.229 175C277.165 175.016 277.117 175.016 277.053 175.016C276.493 175.016 275.981 174.664 275.981 173.992C275.981 173.368 276.493 172.968 277.085 172.968C277.853 172.968 278.317 173.624 278.317 174.696C278.317 176.232 277.421 177.432 275.981 178.04ZM283.41 169.464C284.194 169.464 285.074 169.016 285.858 167.896C285.698 165.48 284.802 164.2 283.298 164.2C282.178 164.2 281.314 165.256 281.314 166.856C281.314 168.44 282.018 169.464 283.41 169.464ZM280.162 174.008L280.962 173.096C281.458 173.656 282.178 173.992 282.93 173.992C284.45 173.992 285.762 172.744 285.874 169.096C285.17 169.976 284.162 170.552 283.17 170.552C281.218 170.552 279.938 169.288 279.938 166.856C279.938 164.584 281.474 163.048 283.298 163.048C285.554 163.048 287.234 164.904 287.234 168.632C287.234 173.384 285.186 175.208 282.978 175.208C281.714 175.208 280.818 174.696 280.162 174.008ZM292.333 175.208C290.493 175.208 289.341 174.44 288.573 173.608L289.309 172.648C289.997 173.368 290.893 173.992 292.221 173.992C293.613 173.992 294.605 173.16 294.605 171.816C294.605 170.408 293.661 169.464 290.957 169.464V168.344C293.373 168.344 294.205 167.368 294.205 166.104C294.205 164.968 293.437 164.248 292.221 164.216C291.277 164.248 290.445 164.728 289.789 165.384L289.005 164.456C289.885 163.64 290.925 163.048 292.285 163.048C294.253 163.048 295.693 164.104 295.693 165.992C295.693 167.416 294.845 168.36 293.597 168.824V168.888C294.989 169.208 296.093 170.264 296.093 171.864C296.093 173.96 294.413 175.208 292.333 175.208ZM297.688 175V174.136C301.368 170.92 303.064 168.584 303.064 166.568C303.064 165.224 302.36 164.248 300.904 164.248C299.944 164.248 299.112 164.84 298.472 165.608L297.624 164.776C298.584 163.736 299.592 163.048 301.08 163.048C303.176 163.048 304.488 164.424 304.488 166.52C304.488 168.856 302.648 171.24 299.896 173.848C300.504 173.8 301.224 173.736 301.816 173.736H305.064V175H297.688ZM307.059 178.04L306.707 177.176C307.699 176.744 308.291 175.976 308.307 175C308.243 175.016 308.195 175.016 308.131 175.016C307.571 175.016 307.059 174.664 307.059 173.992C307.059 173.368 307.571 172.968 308.163 172.968C308.931 172.968 309.395 173.624 309.395 174.696C309.395 176.232 308.499 177.432 307.059 178.04ZM314.761 175.208C312.521 175.208 311.097 173.176 311.097 169.096C311.097 165.016 312.521 163.048 314.761 163.048C316.985 163.048 318.409 165.032 318.409 169.096C318.409 173.176 316.985 175.208 314.761 175.208ZM314.761 174.04C316.089 174.04 316.985 172.552 316.985 169.096C316.985 165.672 316.089 164.232 314.761 164.232C313.417 164.232 312.521 165.672 312.521 169.096C312.521 172.552 313.417 174.04 314.761 174.04ZM322.356 175C322.548 170.552 323.364 167.72 325.652 164.52H319.972V163.272H327.316V164.152C324.564 167.688 324.052 170.408 323.876 175H322.356ZM332.286 175.208C330.447 175.208 329.295 174.44 328.527 173.608L329.263 172.648C329.951 173.368 330.847 173.992 332.174 173.992C333.567 173.992 334.559 173.16 334.559 171.816C334.559 170.408 333.615 169.464 330.911 169.464V168.344C333.327 168.344 334.159 167.368 334.159 166.104C334.159 164.968 333.391 164.248 332.174 164.216C331.231 164.248 330.399 164.728 329.743 165.384L328.959 164.456C329.839 163.64 330.879 163.048 332.239 163.048C334.207 163.048 335.647 164.104 335.647 165.992C335.647 167.416 334.799 168.36 333.551 168.824V168.888C334.943 169.208 336.047 170.264 336.047 171.864C336.047 173.96 334.367 175.208 332.286 175.208Z" fill="#4F4F4F"/>
<mask id="mask1_338_34921" style="mask-type:luminance" maskUnits="userSpaceOnUse" x="78" y="197" width="11" height="10">
<path d="M88.5 197H78.5V207H88.5V197Z" fill="white"/>
</mask>
<g mask="url(#mask1_338_34921)">
<path d="M88.4063 202.094L83.4062 197.094L78.4062 202.094L83.4062 207.094L88.4063 202.094Z" fill="url(#paint1_linear_338_34921)"/>
</g>
<path d="M98.4944 209L94.7504 197.272H96.3024L98.2064 203.624C98.6224 205 98.8944 206.12 99.3424 207.496H99.4064C99.8384 206.12 100.126 205 100.542 203.624L102.43 197.272H103.934L100.206 209H98.4944ZM108.52 209.208C106.392 209.208 104.488 207.544 104.488 204.664C104.488 201.768 106.392 200.088 108.52 200.088C110.648 200.088 112.552 201.768 112.552 204.664C112.552 207.544 110.648 209.208 108.52 209.208ZM108.52 207.992C110.024 207.992 111.048 206.664 111.048 204.664C111.048 202.664 110.024 201.304 108.52 201.304C107.016 201.304 106.008 202.664 106.008 204.664C106.008 206.664 107.016 207.992 108.52 207.992ZM116.383 209.208C115.295 209.208 114.847 208.504 114.847 207.272V196.264H116.303V207.368C116.303 207.816 116.495 207.992 116.719 207.992C116.799 207.992 116.863 207.992 117.023 207.96L117.231 209.08C117.023 209.16 116.767 209.208 116.383 209.208ZM121.938 209.208C120.114 209.208 119.298 208.024 119.298 205.816V200.312H120.754V205.64C120.754 207.256 121.234 207.944 122.386 207.944C123.282 207.944 123.906 207.512 124.738 206.472V200.312H126.194V209H124.978L124.866 207.64H124.818C124.002 208.584 123.138 209.208 121.938 209.208ZM129.128 209V200.312H130.328L130.456 201.56H130.504C131.336 200.744 132.232 200.088 133.416 200.088C135.24 200.088 136.072 201.272 136.072 203.496V209H134.616V203.688C134.616 202.056 134.12 201.368 132.968 201.368C132.072 201.368 131.464 201.816 130.584 202.696V209H129.128ZM141.646 209.208C139.789 209.208 139.166 208.056 139.166 206.312V201.496H137.87V200.392L139.23 200.312L139.406 197.88H140.622V200.312H142.974V201.496H140.622V206.344C140.622 207.416 140.958 208.024 141.966 208.024C142.27 208.024 142.67 207.912 142.958 207.8L143.246 208.888C142.75 209.048 142.174 209.208 141.646 209.208ZM148.21 209.208C145.906 209.208 144.05 207.528 144.05 204.664C144.05 201.848 145.954 200.088 147.97 200.088C150.178 200.088 151.426 201.688 151.426 204.168C151.426 204.488 151.394 204.792 151.362 205H145.506C145.602 206.856 146.738 208.04 148.386 208.04C149.234 208.04 149.922 207.784 150.562 207.352L151.09 208.312C150.322 208.808 149.394 209.208 148.21 209.208ZM145.49 203.96H150.146C150.146 202.2 149.346 201.256 147.986 201.256C146.754 201.256 145.666 202.248 145.49 203.96ZM157.07 209.208C154.766 209.208 152.91 207.528 152.91 204.664C152.91 201.848 154.814 200.088 156.83 200.088C159.038 200.088 160.286 201.688 160.286 204.168C160.286 204.488 160.254 204.792 160.222 205H154.366C154.462 206.856 155.598 208.04 157.246 208.04C158.094 208.04 158.782 207.784 159.422 207.352L159.95 208.312C159.182 208.808 158.254 209.208 157.07 209.208ZM154.35 203.96H159.006C159.006 202.2 158.206 201.256 156.846 201.256C155.614 201.256 154.526 202.248 154.35 203.96ZM162.425 209V200.312H163.625L163.753 201.896H163.801C164.409 200.792 165.289 200.088 166.265 200.088C166.649 200.088 166.921 200.136 167.193 200.28L166.921 201.56C166.633 201.448 166.425 201.416 166.073 201.416C165.353 201.416 164.457 201.928 163.881 203.416V209H162.425ZM172.334 209V197.272H173.822V209H172.334ZM176.894 209V200.312H178.094L178.222 201.56H178.27C179.102 200.744 179.998 200.088 181.182 200.088C183.006 200.088 183.838 201.272 183.838 203.496V209H182.382V203.688C182.382 202.056 181.886 201.368 180.734 201.368C179.838 201.368 179.23 201.816 178.35 202.696V209H176.894ZM188.547 209L185.411 200.312H186.931L188.563 205.256C188.835 206.104 189.107 207 189.379 207.816H189.443C189.699 207 189.987 206.104 190.243 205.256L191.891 200.312H193.331L190.243 209H188.547ZM198.332 209.208C196.204 209.208 194.3 207.544 194.3 204.664C194.3 201.768 196.204 200.088 198.332 200.088C200.46 200.088 202.364 201.768 202.364 204.664C202.364 207.544 200.46 209.208 198.332 209.208ZM198.332 207.992C199.836 207.992 200.86 206.664 200.86 204.664C200.86 202.664 199.836 201.304 198.332 201.304C196.828 201.304 195.82 202.664 195.82 204.664C195.82 206.664 196.828 207.992 198.332 207.992ZM206.196 209.208C205.108 209.208 204.66 208.504 204.66 207.272V196.264H206.116V207.368C206.116 207.816 206.308 207.992 206.532 207.992C206.612 207.992 206.676 207.992 206.836 207.96L207.044 209.08C206.836 209.16 206.58 209.208 206.196 209.208ZM211.094 209L207.958 200.312H209.478L211.11 205.256C211.382 206.104 211.654 207 211.926 207.816H211.99C212.246 207 212.534 206.104 212.79 205.256L214.438 200.312H215.878L212.79 209H211.094ZM221.007 209.208C218.703 209.208 216.847 207.528 216.847 204.664C216.847 201.848 218.751 200.088 220.767 200.088C222.975 200.088 224.223 201.688 224.223 204.168C224.223 204.488 224.191 204.792 224.159 205H218.303C218.399 206.856 219.535 208.04 221.183 208.04C222.031 208.04 222.719 207.784 223.359 207.352L223.887 208.312C223.119 208.808 222.191 209.208 221.007 209.208ZM218.287 203.96H222.943C222.943 202.2 222.143 201.256 220.783 201.256C219.551 201.256 218.463 202.248 218.287 203.96ZM226.363 209V200.312H227.563L227.691 201.576H227.739C228.491 200.744 229.403 200.088 230.443 200.088C231.771 200.088 232.491 200.728 232.843 201.752C233.739 200.776 234.651 200.088 235.707 200.088C237.499 200.088 238.347 201.272 238.347 203.496V209H236.891V203.688C236.891 202.056 236.379 201.368 235.275 201.368C234.603 201.368 233.899 201.8 233.083 202.696V209H231.627V203.688C231.627 202.056 231.115 201.368 230.011 201.368C229.355 201.368 228.619 201.8 227.819 202.696V209H226.363ZM244.679 209.208C242.375 209.208 240.519 207.528 240.519 204.664C240.519 201.848 242.423 200.088 244.439 200.088C246.647 200.088 247.895 201.688 247.895 204.168C247.895 204.488 247.863 204.792 247.831 205H241.975C242.071 206.856 243.207 208.04 244.855 208.04C245.703 208.04 246.391 207.784 247.031 207.352L247.559 208.312C246.791 208.808 245.863 209.208 244.679 209.208ZM241.959 203.96H246.615C246.615 202.2 245.815 201.256 244.455 201.256C243.223 201.256 242.135 202.248 241.959 203.96ZM250.035 209V200.312H251.235L251.363 201.56H251.411C252.243 200.744 253.139 200.088 254.323 200.088C256.147 200.088 256.979 201.272 256.979 203.496V209H255.523V203.688C255.523 202.056 255.027 201.368 253.875 201.368C252.979 201.368 252.371 201.816 251.491 202.696V209H250.035ZM262.552 209.208C260.696 209.208 260.072 208.056 260.072 206.312V201.496H258.776V200.392L260.136 200.312L260.312 197.88H261.528V200.312H263.88V201.496H261.528V206.344C261.528 207.416 261.864 208.024 262.872 208.024C263.176 208.024 263.576 207.912 263.864 207.8L264.152 208.888C263.656 209.048 263.08 209.208 262.552 209.208ZM268.689 205.08V203.96H272.785V205.08H268.689ZM282.256 209V197.272H283.792L288.064 204.664L289.312 207.08H289.392C289.312 205.896 289.2 204.584 289.2 203.368V197.272H290.608V209H289.088L284.816 201.592L283.552 199.176H283.488C283.552 200.36 283.664 201.608 283.664 202.84V209H282.256ZM296.251 209V198.52H292.699V197.272H301.291V198.52H297.739V209H296.251ZM309.349 198.744L308.565 199.608C307.909 198.968 307.365 198.6 306.389 198.6C305.285 198.6 304.581 199.288 304.581 200.328C304.581 202.936 309.589 202.216 309.589 206.056C309.589 207.752 308.517 208.92 306.821 209.16V210.968H305.765V209.192C304.629 209.08 303.477 208.52 302.709 207.816L303.397 206.824C304.149 207.464 305.061 207.992 306.149 207.992C307.477 207.992 308.165 207.272 308.165 206.152C308.165 203.24 303.157 203.88 303.157 200.392C303.157 198.792 304.213 197.656 305.765 197.432V195.624H306.821V197.4C307.973 197.528 308.709 198.072 309.349 198.744ZM315.642 209V207.784H318.25V199.032H316.17V198.104C317.21 197.912 317.962 197.64 318.602 197.272H319.722V207.784H322.074V209H315.642ZM324.309 212.04L323.957 211.176C324.949 210.744 325.541 209.976 325.557 209C325.493 209.016 325.445 209.016 325.381 209.016C324.821 209.016 324.309 208.664 324.309 207.992C324.309 207.368 324.821 206.968 325.413 206.968C326.181 206.968 326.645 207.624 326.645 208.696C326.645 210.232 325.749 211.432 324.309 212.04ZM332.027 209.208C329.867 209.208 328.283 207.896 328.283 206.088C328.283 204.52 329.371 203.432 330.443 202.856V202.776C329.579 202.184 328.859 201.304 328.859 200.072C328.859 198.28 330.235 197.096 332.075 197.096C334.075 197.096 335.291 198.376 335.291 200.184C335.291 201.416 334.427 202.472 333.723 203.016V203.096C334.747 203.688 335.707 204.568 335.707 206.168C335.707 207.88 334.235 209.208 332.027 209.208ZM332.827 202.632C333.627 201.928 334.043 201.128 334.043 200.264C334.043 199.112 333.307 198.168 332.043 198.168C330.971 198.168 330.187 198.936 330.187 200.072C330.187 201.48 331.451 202.088 332.827 202.632ZM332.059 208.12C333.403 208.12 334.315 207.304 334.315 206.136C334.315 204.568 332.875 203.976 331.211 203.304C330.267 203.912 329.611 204.84 329.611 205.96C329.611 207.208 330.651 208.12 332.059 208.12ZM337.846 209V207.784H340.454V199.032H338.374V198.104C339.414 197.912 340.166 197.64 340.806 197.272H341.926V207.784H344.278V209H337.846ZM349.536 209.208C347.697 209.208 346.545 208.44 345.777 207.608L346.513 206.648C347.201 207.368 348.097 207.992 349.424 207.992C350.817 207.992 351.809 207.16 351.809 205.816C351.809 204.408 350.865 203.464 348.161 203.464V202.344C350.577 202.344 351.409 201.368 351.409 200.104C351.409 198.968 350.641 198.248 349.424 198.216C348.481 198.248 347.649 198.728 346.993 199.384L346.209 198.456C347.089 197.64 348.129 197.048 349.489 197.048C351.457 197.048 352.897 198.104 352.897 199.992C352.897 201.416 352.049 202.36 350.801 202.824V202.888C352.193 203.208 353.297 204.264 353.297 205.864C353.297 207.96 351.617 209.208 349.536 209.208ZM355.388 212.04L355.036 211.176C356.028 210.744 356.62 209.976 356.636 209C356.572 209.016 356.524 209.016 356.46 209.016C355.9 209.016 355.388 208.664 355.388 207.992C355.388 207.368 355.9 206.968 356.492 206.968C357.26 206.968 357.724 207.624 357.724 208.696C357.724 210.232 356.828 211.432 355.388 212.04ZM360.481 204.6H364.065V201C364.065 200.424 364.129 199.48 364.161 198.872H364.097C363.809 199.448 363.489 200.024 363.153 200.6L360.481 204.6ZM367.009 204.6V205.768H365.457V209H364.065V205.768H358.961V204.808L363.841 197.272H365.457V204.6H367.009ZM371.964 209.208C369.724 209.208 368.3 207.176 368.3 203.096C368.3 199.016 369.724 197.048 371.964 197.048C374.188 197.048 375.612 199.032 375.612 203.096C375.612 207.176 374.188 209.208 371.964 209.208ZM371.964 208.04C373.292 208.04 374.188 206.552 374.188 203.096C374.188 199.672 373.292 198.232 371.964 198.232C370.62 198.232 369.724 199.672 369.724 203.096C369.724 206.552 370.62 208.04 371.964 208.04ZM380.567 203.464C381.351 203.464 382.231 203.016 383.015 201.896C382.855 199.48 381.959 198.2 380.455 198.2C379.335 198.2 378.471 199.256 378.471 200.856C378.471 202.44 379.175 203.464 380.567 203.464ZM377.319 208.008L378.119 207.096C378.615 207.656 379.335 207.992 380.087 207.992C381.607 207.992 382.919 206.744 383.031 203.096C382.327 203.976 381.319 204.552 380.327 204.552C378.375 204.552 377.095 203.288 377.095 200.856C377.095 198.584 378.631 197.048 380.455 197.048C382.711 197.048 384.391 198.904 384.391 202.632C384.391 207.384 382.343 209.208 380.135 209.208C378.871 209.208 377.975 208.696 377.319 208.008Z" fill="#4F4F4F"/>
<mask id="mask2_338_34921" style="mask-type:luminance" maskUnits="userSpaceOnUse" x="78" y="231" width="11" height="10">
<path d="M88.5 231H78.5V241H88.5V231Z" fill="white"/>
</mask>
<g mask="url(#mask2_338_34921)">
<path d="M88.4063 236.094L83.4062 231.094L78.4063 236.094L83.4063 241.094L88.4063 236.094Z" fill="url(#paint2_linear_338_34921)"/>
</g>
<path d="M96.4516 243V231.272H97.9396V243H96.4516ZM101.011 243V234.312H102.211L102.339 235.56H102.387C103.219 234.744 104.115 234.088 105.299 234.088C107.123 234.088 107.955 235.272 107.955 237.496V243H106.499V237.688C106.499 236.056 106.003 235.368 104.851 235.368C103.955 235.368 103.347 235.816 102.467 236.696V243H101.011ZM110.056 239.08V237.96H114.152V239.08H110.056ZM116.467 243V231.272H117.955V237.16H118.003L122.899 231.272H124.563L120.899 235.736L125.139 243H123.475L119.971 236.888L117.955 239.288V243H116.467ZM126.683 243V234.312H128.139V243H126.683ZM127.419 232.52C126.843 232.52 126.411 232.12 126.411 231.576C126.411 230.984 126.843 230.632 127.419 230.632C127.995 230.632 128.427 230.984 128.427 231.576C128.427 232.12 127.995 232.52 127.419 232.52ZM131.089 243V234.312H132.289L132.417 235.56H132.465C133.297 234.744 134.193 234.088 135.377 234.088C137.201 234.088 138.033 235.272 138.033 237.496V243H136.577V237.688C136.577 236.056 136.081 235.368 134.929 235.368C134.033 235.368 133.425 235.816 132.545 236.696V243H131.089ZM143.83 243.208C141.654 243.208 140.246 241.56 140.246 238.664C140.246 235.848 142.022 234.088 144.006 234.088C145.03 234.088 145.686 234.472 146.454 235.112L146.374 233.608V230.264H147.83V243H146.646L146.502 241.976H146.47C145.782 242.648 144.87 243.208 143.83 243.208ZM144.15 241.992C144.95 241.992 145.654 241.592 146.374 240.792V236.232C145.638 235.576 144.982 235.32 144.262 235.32C142.854 235.32 141.75 236.664 141.75 238.648C141.75 240.744 142.614 241.992 144.15 241.992ZM154.498 243V231.272H157.442C161.042 231.272 162.978 233.368 162.978 237.096C162.978 240.808 161.042 243 157.506 243H154.498ZM155.986 241.784H157.314C160.082 241.784 161.442 240.056 161.442 237.096C161.442 234.12 160.082 232.472 157.314 232.472H155.986V241.784ZM168.731 243.208C166.603 243.208 164.699 241.544 164.699 238.664C164.699 235.768 166.603 234.088 168.731 234.088C170.859 234.088 172.763 235.768 172.763 238.664C172.763 241.544 170.859 243.208 168.731 243.208ZM168.731 241.992C170.235 241.992 171.259 240.664 171.259 238.664C171.259 236.664 170.235 235.304 168.731 235.304C167.227 235.304 166.219 236.664 166.219 238.664C166.219 240.664 167.227 241.992 168.731 241.992ZM175.058 243V234.312H176.258L176.386 235.56H176.434C177.266 234.744 178.162 234.088 179.346 234.088C181.17 234.088 182.002 235.272 182.002 237.496V243H180.546V237.688C180.546 236.056 180.05 235.368 178.898 235.368C178.002 235.368 177.394 235.816 176.514 236.696V243H175.058ZM186.839 243.208C185.383 243.208 184.295 242.312 184.295 240.744C184.295 238.856 185.943 237.912 189.639 237.496C189.639 236.376 189.271 235.304 187.847 235.304C186.839 235.304 185.927 235.768 185.239 236.232L184.663 235.224C185.463 234.712 186.695 234.088 188.087 234.088C190.199 234.088 191.095 235.512 191.095 237.656V243H189.895L189.767 241.96H189.719C188.887 242.648 187.911 243.208 186.839 243.208ZM187.255 242.04C188.103 242.04 188.791 241.64 189.639 240.888V238.456C186.711 238.808 185.719 239.528 185.719 240.648C185.719 241.64 186.391 242.04 187.255 242.04ZM196.372 243.208C194.516 243.208 193.892 242.056 193.892 240.312V235.496H192.596V234.392L193.956 234.312L194.132 231.88H195.348V234.312H197.7V235.496H195.348V240.344C195.348 241.416 195.684 242.024 196.692 242.024C196.996 242.024 197.396 241.912 197.684 241.8L197.972 242.888C197.476 243.048 196.9 243.208 196.372 243.208ZM199.667 243V234.312H201.123V243H199.667ZM200.403 232.52C199.827 232.52 199.395 232.12 199.395 231.576C199.395 230.984 199.827 230.632 200.403 230.632C200.979 230.632 201.411 230.984 201.411 231.576C201.411 232.12 200.979 232.52 200.403 232.52ZM207.45 243.208C205.322 243.208 203.418 241.544 203.418 238.664C203.418 235.768 205.322 234.088 207.45 234.088C209.578 234.088 211.482 235.768 211.482 238.664C211.482 241.544 209.578 243.208 207.45 243.208ZM207.45 241.992C208.954 241.992 209.978 240.664 209.978 238.664C209.978 236.664 208.954 235.304 207.45 235.304C205.946 235.304 204.938 236.664 204.938 238.664C204.938 240.664 205.946 241.992 207.45 241.992ZM213.777 243V234.312H214.977L215.105 235.56H215.153C215.985 234.744 216.881 234.088 218.065 234.088C219.889 234.088 220.721 235.272 220.721 237.496V243H219.265V237.688C219.265 236.056 218.769 235.368 217.617 235.368C216.721 235.368 216.113 235.816 215.233 236.696V243H213.777ZM225.83 243.208C224.598 243.208 223.414 242.696 222.582 242.008L223.302 241.048C224.054 241.656 224.838 242.072 225.878 242.072C227.03 242.072 227.59 241.464 227.59 240.712C227.59 239.832 226.566 239.432 225.606 239.064C224.39 238.616 223.014 238.024 223.014 236.552C223.014 235.176 224.118 234.088 226.006 234.088C227.078 234.088 228.022 234.536 228.71 235.064L228.006 236.008C227.398 235.56 226.79 235.24 226.006 235.24C224.918 235.24 224.422 235.816 224.422 236.488C224.422 237.32 225.366 237.624 226.342 237.992C227.606 238.472 228.998 238.984 228.998 240.632C228.998 242.04 227.878 243.208 225.83 243.208ZM230.478 239.08V237.96H234.574V239.08H230.478ZM240.467 243V231.272H242.003L246.275 238.664L247.523 241.08H247.603C247.523 239.896 247.411 238.584 247.411 237.368V231.272H248.819V243H247.299L243.027 235.592L241.763 233.176H241.699C241.763 234.36 241.875 235.608 241.875 236.84V243H240.467ZM254.462 243V232.52H250.91V231.272H259.502V232.52H255.95V243H254.462ZM267.56 232.744L266.776 233.608C266.12 232.968 265.576 232.6 264.6 232.6C263.496 232.6 262.792 233.288 262.792 234.328C262.792 236.936 267.8 236.216 267.8 240.056C267.8 241.752 266.728 242.92 265.032 243.16V244.968H263.976V243.192C262.84 243.08 261.688 242.52 260.92 241.816L261.608 240.824C262.36 241.464 263.272 241.992 264.36 241.992C265.688 241.992 266.376 241.272 266.376 240.152C266.376 237.24 261.368 237.88 261.368 234.392C261.368 232.792 262.424 231.656 263.976 231.432V229.624H265.032V231.4C266.184 231.528 266.92 232.072 267.56 232.744ZM276.669 243.208C274.829 243.208 273.677 242.44 272.909 241.608L273.645 240.648C274.333 241.368 275.229 241.992 276.557 241.992C277.949 241.992 278.941 241.16 278.941 239.816C278.941 238.408 277.997 237.464 275.293 237.464V236.344C277.709 236.344 278.541 235.368 278.541 234.104C278.541 232.968 277.773 232.248 276.557 232.216C275.613 232.248 274.781 232.728 274.125 233.384L273.341 232.456C274.221 231.64 275.261 231.048 276.621 231.048C278.589 231.048 280.029 232.104 280.029 233.992C280.029 235.416 279.181 236.36 277.933 236.824V236.888C279.325 237.208 280.429 238.264 280.429 239.864C280.429 241.96 278.749 243.208 276.669 243.208ZM285.768 243.208C283.528 243.208 282.104 241.176 282.104 237.096C282.104 233.016 283.528 231.048 285.768 231.048C287.992 231.048 289.416 233.032 289.416 237.096C289.416 241.176 287.992 243.208 285.768 243.208ZM285.768 242.04C287.096 242.04 287.992 240.552 287.992 237.096C287.992 233.672 287.096 232.232 285.768 232.232C284.424 232.232 283.528 233.672 283.528 237.096C283.528 240.552 284.424 242.04 285.768 242.04ZM291.603 243V241.784H294.211V233.032H292.131V232.104C293.171 231.912 293.923 231.64 294.563 231.272H295.683V241.784H298.035V243H291.603ZM300.27 246.04L299.918 245.176C300.91 244.744 301.502 243.976 301.518 243C301.454 243.016 301.406 243.016 301.342 243.016C300.782 243.016 300.27 242.664 300.27 241.992C300.27 241.368 300.782 240.968 301.374 240.968C302.142 240.968 302.606 241.624 302.606 242.696C302.606 244.232 301.71 245.432 300.27 246.04ZM307.987 243.208C305.827 243.208 304.243 241.896 304.243 240.088C304.243 238.52 305.331 237.432 306.403 236.856V236.776C305.539 236.184 304.819 235.304 304.819 234.072C304.819 232.28 306.195 231.096 308.035 231.096C310.035 231.096 311.251 232.376 311.251 234.184C311.251 235.416 310.387 236.472 309.683 237.016V237.096C310.707 237.688 311.667 238.568 311.667 240.168C311.667 241.88 310.195 243.208 307.987 243.208ZM308.787 236.632C309.587 235.928 310.003 235.128 310.003 234.264C310.003 233.112 309.267 232.168 308.003 232.168C306.931 232.168 306.147 232.936 306.147 234.072C306.147 235.48 307.411 236.088 308.787 236.632ZM308.019 242.12C309.363 242.12 310.275 241.304 310.275 240.136C310.275 238.568 308.835 237.976 307.171 237.304C306.227 237.912 305.571 238.84 305.571 239.96C305.571 241.208 306.611 242.12 308.019 242.12ZM316.862 243.208C314.702 243.208 313.118 241.896 313.118 240.088C313.118 238.52 314.206 237.432 315.278 236.856V236.776C314.414 236.184 313.694 235.304 313.694 234.072C313.694 232.28 315.07 231.096 316.91 231.096C318.91 231.096 320.126 232.376 320.126 234.184C320.126 235.416 319.262 236.472 318.558 237.016V237.096C319.582 237.688 320.542 238.568 320.542 240.168C320.542 241.88 319.07 243.208 316.862 243.208ZM317.662 236.632C318.462 235.928 318.878 235.128 318.878 234.264C318.878 233.112 318.142 232.168 316.878 232.168C315.806 232.168 315.022 232.936 315.022 234.072C315.022 235.48 316.286 236.088 317.662 236.632ZM316.894 242.12C318.238 242.12 319.15 241.304 319.15 240.136C319.15 238.568 317.71 237.976 316.046 237.304C315.102 237.912 314.446 238.84 314.446 239.96C314.446 241.208 315.486 242.12 316.894 242.12ZM321.977 243V242.136C325.657 238.92 327.353 236.584 327.353 234.568C327.353 233.224 326.649 232.248 325.193 232.248C324.233 232.248 323.401 232.84 322.761 233.608L321.913 232.776C322.873 231.736 323.881 231.048 325.369 231.048C327.465 231.048 328.777 232.424 328.777 234.52C328.777 236.856 326.937 239.24 324.185 241.848C324.793 241.8 325.513 241.736 326.105 241.736H329.353V243H321.977Z" fill="#4F4F4F"/>
<mask id="mask3_338_34921" style="mask-type:luminance" maskUnits="userSpaceOnUse" x="78" y="265" width="11" height="10">
<path d="M88.5 265H78.5V275H88.5V265Z" fill="white"/>
</mask>
<g mask="url(#mask3_338_34921)">
<path d="M88.4063 270.094L83.4062 265.094L78.4063 270.094L83.4063 275.094L88.4063 270.094Z" fill="url(#paint3_linear_338_34921)"/>
</g>
<path d="M96.2328 277V265.272H98.0248L100.281 271.544C100.553 272.36 100.825 273.176 101.113 273.992H101.193C101.465 273.176 101.721 272.36 101.993 271.544L104.233 265.272H106.025V277H104.633V270.504C104.633 269.496 104.745 268.072 104.825 267.048H104.761L103.833 269.72L101.609 275.816H100.617L98.3928 269.72L97.4648 267.048H97.4008C97.4648 268.072 97.5768 269.496 97.5768 270.504V277H96.2328ZM111.089 277.208C109.633 277.208 108.545 276.312 108.545 274.744C108.545 272.856 110.193 271.912 113.889 271.496C113.889 270.376 113.521 269.304 112.097 269.304C111.089 269.304 110.177 269.768 109.489 270.232L108.913 269.224C109.713 268.712 110.945 268.088 112.337 268.088C114.449 268.088 115.345 269.512 115.345 271.656V277H114.145L114.017 275.96H113.969C113.137 276.648 112.161 277.208 111.089 277.208ZM111.505 276.04C112.353 276.04 113.041 275.64 113.889 274.888V272.456C110.961 272.808 109.969 273.528 109.969 274.648C109.969 275.64 110.641 276.04 111.505 276.04ZM118.12 277V268.312H119.32L119.448 269.56H119.496C120.328 268.744 121.224 268.088 122.408 268.088C124.232 268.088 125.064 269.272 125.064 271.496V277H123.608V271.688C123.608 270.056 123.112 269.368 121.96 269.368C121.064 269.368 120.456 269.816 119.576 270.696V277H118.12ZM129.902 277.208C128.446 277.208 127.358 276.312 127.358 274.744C127.358 272.856 129.006 271.912 132.702 271.496C132.702 270.376 132.334 269.304 130.91 269.304C129.902 269.304 128.99 269.768 128.302 270.232L127.726 269.224C128.526 268.712 129.758 268.088 131.15 268.088C133.262 268.088 134.158 269.512 134.158 271.656V277H132.958L132.83 275.96H132.782C131.95 276.648 130.974 277.208 129.902 277.208ZM130.318 276.04C131.166 276.04 131.854 275.64 132.702 274.888V272.456C129.774 272.808 128.782 273.528 128.782 274.648C128.782 275.64 129.454 276.04 130.318 276.04ZM139.861 281C137.733 281 136.261 280.168 136.261 278.664C136.261 277.928 136.741 277.224 137.557 276.696V276.632C137.093 276.36 136.757 275.896 136.757 275.208C136.757 274.488 137.285 273.912 137.733 273.592V273.528C137.157 273.064 136.597 272.232 136.597 271.192C136.597 269.288 138.101 268.088 139.861 268.088C140.341 268.088 140.773 268.2 141.077 268.312H144.101V269.432H142.325C142.741 269.832 143.029 270.472 143.029 271.224C143.029 273.08 141.621 274.248 139.861 274.248C139.429 274.248 138.949 274.136 138.565 273.944C138.245 274.216 138.005 274.504 138.005 274.984C138.005 275.544 138.357 275.928 139.525 275.928H141.221C143.237 275.928 144.245 276.568 144.245 277.992C144.245 279.608 142.549 281 139.861 281ZM139.861 273.256C140.853 273.256 141.701 272.456 141.701 271.192C141.701 269.928 140.885 269.16 139.861 269.16C138.837 269.16 138.005 269.912 138.005 271.192C138.005 272.456 138.853 273.256 139.861 273.256ZM140.069 280.008C141.733 280.008 142.837 279.128 142.837 278.216C142.837 277.416 142.213 277.144 141.061 277.144H139.557C139.237 277.144 138.821 277.096 138.437 277C137.813 277.448 137.541 277.96 137.541 278.472C137.541 279.4 138.485 280.008 140.069 280.008ZM149.218 277.208C146.914 277.208 145.058 275.528 145.058 272.664C145.058 269.848 146.962 268.088 148.978 268.088C151.186 268.088 152.434 269.688 152.434 272.168C152.434 272.488 152.402 272.792 152.37 273H146.514C146.61 274.856 147.746 276.04 149.394 276.04C150.242 276.04 150.93 275.784 151.57 275.352L152.098 276.312C151.33 276.808 150.402 277.208 149.218 277.208ZM146.498 271.96H151.154C151.154 270.2 150.354 269.256 148.994 269.256C147.762 269.256 146.674 270.248 146.498 271.96ZM154.574 277V268.312H155.774L155.902 269.576H155.95C156.702 268.744 157.614 268.088 158.654 268.088C159.982 268.088 160.702 268.728 161.054 269.752C161.95 268.776 162.862 268.088 163.918 268.088C165.71 268.088 166.558 269.272 166.558 271.496V277H165.102V271.688C165.102 270.056 164.59 269.368 163.486 269.368C162.814 269.368 162.11 269.8 161.294 270.696V277H159.838V271.688C159.838 270.056 159.326 269.368 158.222 269.368C157.566 269.368 156.83 269.8 156.03 270.696V277H154.574ZM172.89 277.208C170.586 277.208 168.73 275.528 168.73 272.664C168.73 269.848 170.634 268.088 172.65 268.088C174.858 268.088 176.106 269.688 176.106 272.168C176.106 272.488 176.074 272.792 176.042 273H170.186C170.282 274.856 171.418 276.04 173.066 276.04C173.914 276.04 174.602 275.784 175.242 275.352L175.77 276.312C175.002 276.808 174.074 277.208 172.89 277.208ZM170.17 271.96H174.826C174.826 270.2 174.026 269.256 172.666 269.256C171.434 269.256 170.346 270.248 170.17 271.96ZM178.245 277V268.312H179.445L179.573 269.56H179.621C180.453 268.744 181.349 268.088 182.533 268.088C184.357 268.088 185.189 269.272 185.189 271.496V277H183.733V271.688C183.733 270.056 183.237 269.368 182.085 269.368C181.189 269.368 180.581 269.816 179.701 270.696V277H178.245ZM190.763 277.208C188.907 277.208 188.283 276.056 188.283 274.312V269.496H186.987V268.392L188.347 268.312L188.523 265.88H189.739V268.312H192.091V269.496H189.739V274.344C189.739 275.416 190.075 276.024 191.083 276.024C191.387 276.024 191.787 275.912 192.075 275.8L192.363 276.888C191.867 277.048 191.291 277.208 190.763 277.208ZM197.764 277V265.272H204.532V266.52H199.252V270.2H203.7V271.464H199.252V275.736H204.708V277H197.764ZM205.263 277L208.127 272.472L205.487 268.312H207.055L208.223 270.232C208.495 270.712 208.799 271.192 209.087 271.672H209.151C209.423 271.192 209.679 270.712 209.935 270.232L211.007 268.312H212.527L209.887 272.616L212.751 277H211.151L209.871 274.968C209.583 274.44 209.263 273.912 208.943 273.416H208.863C208.559 273.912 208.271 274.44 207.967 274.968L206.799 277H205.263ZM214.464 280.664V268.312H215.664L215.792 269.304H215.84C216.624 268.664 217.6 268.088 218.608 268.088C220.848 268.088 222.064 269.848 222.064 272.52C222.064 275.496 220.288 277.208 218.288 277.208C217.504 277.208 216.672 276.84 215.888 276.2L215.92 277.72V280.664H214.464ZM218.048 275.992C219.488 275.992 220.544 274.696 220.544 272.536C220.544 270.616 219.904 269.32 218.256 269.32C217.52 269.32 216.768 269.736 215.92 270.52V275.08C216.704 275.752 217.472 275.992 218.048 275.992ZM227.89 277.208C225.586 277.208 223.73 275.528 223.73 272.664C223.73 269.848 225.634 268.088 227.65 268.088C229.858 268.088 231.106 269.688 231.106 272.168C231.106 272.488 231.074 272.792 231.042 273H225.186C225.282 274.856 226.418 276.04 228.066 276.04C228.914 276.04 229.602 275.784 230.242 275.352L230.77 276.312C230.002 276.808 229.074 277.208 227.89 277.208ZM225.17 271.96H229.826C229.826 270.2 229.026 269.256 227.666 269.256C226.434 269.256 225.346 270.248 225.17 271.96ZM233.245 277V268.312H234.445L234.573 269.56H234.621C235.453 268.744 236.349 268.088 237.533 268.088C239.357 268.088 240.189 269.272 240.189 271.496V277H238.733V271.688C238.733 270.056 238.237 269.368 237.085 269.368C236.189 269.368 235.581 269.816 234.701 270.696V277H233.245ZM245.299 277.208C244.067 277.208 242.883 276.696 242.051 276.008L242.771 275.048C243.523 275.656 244.307 276.072 245.347 276.072C246.499 276.072 247.059 275.464 247.059 274.712C247.059 273.832 246.035 273.432 245.075 273.064C243.859 272.616 242.483 272.024 242.483 270.552C242.483 269.176 243.587 268.088 245.475 268.088C246.547 268.088 247.491 268.536 248.179 269.064L247.475 270.008C246.867 269.56 246.259 269.24 245.475 269.24C244.387 269.24 243.891 269.816 243.891 270.488C243.891 271.32 244.835 271.624 245.811 271.992C247.075 272.472 248.467 272.984 248.467 274.632C248.467 276.04 247.347 277.208 245.299 277.208ZM254.015 277.208C251.711 277.208 249.855 275.528 249.855 272.664C249.855 269.848 251.759 268.088 253.775 268.088C255.983 268.088 257.231 269.688 257.231 272.168C257.231 272.488 257.199 272.792 257.167 273H251.311C251.407 274.856 252.543 276.04 254.191 276.04C255.039 276.04 255.727 275.784 256.367 275.352L256.895 276.312C256.127 276.808 255.199 277.208 254.015 277.208ZM251.295 271.96H255.951C255.951 270.2 255.151 269.256 253.791 269.256C252.559 269.256 251.471 270.248 251.295 271.96ZM261.642 277.208C260.41 277.208 259.226 276.696 258.394 276.008L259.114 275.048C259.866 275.656 260.65 276.072 261.69 276.072C262.842 276.072 263.402 275.464 263.402 274.712C263.402 273.832 262.378 273.432 261.418 273.064C260.202 272.616 258.826 272.024 258.826 270.552C258.826 269.176 259.93 268.088 261.818 268.088C262.89 268.088 263.834 268.536 264.522 269.064L263.818 270.008C263.21 269.56 262.602 269.24 261.818 269.24C260.73 269.24 260.234 269.816 260.234 270.488C260.234 271.32 261.178 271.624 262.154 271.992C263.418 272.472 264.81 272.984 264.81 274.632C264.81 276.04 263.69 277.208 261.642 277.208ZM269.697 273.08V271.96H273.793V273.08H269.697ZM279.686 277V265.272H281.222L285.494 272.664L286.742 275.08H286.822C286.742 273.896 286.63 272.584 286.63 271.368V265.272H288.038V277H286.518L282.246 269.592L280.982 267.176H280.918C280.982 268.36 281.094 269.608 281.094 270.84V277H279.686ZM293.681 277V266.52H290.129V265.272H298.721V266.52H295.169V277H293.681ZM306.779 266.744L305.995 267.608C305.339 266.968 304.795 266.6 303.819 266.6C302.715 266.6 302.011 267.288 302.011 268.328C302.011 270.936 307.019 270.216 307.019 274.056C307.019 275.752 305.947 276.92 304.251 277.16V278.968H303.195V277.192C302.059 277.08 300.907 276.52 300.139 275.816L300.827 274.824C301.579 275.464 302.491 275.992 303.579 275.992C304.907 275.992 305.595 275.272 305.595 274.152C305.595 271.24 300.587 271.88 300.587 268.392C300.587 266.792 301.643 265.656 303.195 265.432V263.624H304.251V265.4C305.403 265.528 306.139 266.072 306.779 266.744ZM313.504 272.6H317.088V269C317.088 268.424 317.152 267.48 317.184 266.872H317.12C316.832 267.448 316.512 268.024 316.176 268.6L313.504 272.6ZM320.032 272.6V273.768H318.48V277H317.088V273.768H311.984V272.808L316.864 265.272H318.48V272.6H320.032ZM324.715 271.464C325.499 271.464 326.379 271.016 327.163 269.896C327.003 267.48 326.107 266.2 324.603 266.2C323.483 266.2 322.619 267.256 322.619 268.856C322.619 270.44 323.323 271.464 324.715 271.464ZM321.467 276.008L322.267 275.096C322.763 275.656 323.483 275.992 324.235 275.992C325.755 275.992 327.067 274.744 327.179 271.096C326.475 271.976 325.467 272.552 324.475 272.552C322.523 272.552 321.243 271.288 321.243 268.856C321.243 266.584 322.779 265.048 324.603 265.048C326.859 265.048 328.539 266.904 328.539 270.632C328.539 275.384 326.491 277.208 324.283 277.208C323.019 277.208 322.123 276.696 321.467 276.008ZM333.878 277.208C331.718 277.208 330.134 275.896 330.134 274.088C330.134 272.52 331.222 271.432 332.294 270.856V270.776C331.43 270.184 330.71 269.304 330.71 268.072C330.71 266.28 332.086 265.096 333.926 265.096C335.926 265.096 337.142 266.376 337.142 268.184C337.142 269.416 336.278 270.472 335.574 271.016V271.096C336.598 271.688 337.558 272.568 337.558 274.168C337.558 275.88 336.086 277.208 333.878 277.208ZM334.678 270.632C335.478 269.928 335.894 269.128 335.894 268.264C335.894 267.112 335.158 266.168 333.894 266.168C332.822 266.168 332.038 266.936 332.038 268.072C332.038 269.48 333.302 270.088 334.678 270.632ZM333.91 276.12C335.254 276.12 336.166 275.304 336.166 274.136C336.166 272.568 334.726 271.976 333.062 271.304C332.118 271.912 331.462 272.84 331.462 273.96C331.462 275.208 332.502 276.12 333.91 276.12ZM339.489 280.04L339.137 279.176C340.129 278.744 340.721 277.976 340.737 277C340.673 277.016 340.625 277.016 340.561 277.016C340.001 277.016 339.489 276.664 339.489 275.992C339.489 275.368 340.001 274.968 340.593 274.968C341.361 274.968 341.825 275.624 341.825 276.696C341.825 278.232 340.929 279.432 339.489 280.04ZM346.966 277.208C345.126 277.208 343.974 276.44 343.206 275.608L343.942 274.648C344.63 275.368 345.526 275.992 346.854 275.992C348.246 275.992 349.238 275.16 349.238 273.816C349.238 272.408 348.294 271.464 345.59 271.464V270.344C348.006 270.344 348.838 269.368 348.838 268.104C348.838 266.968 348.07 266.248 346.854 266.216C345.91 266.248 345.078 266.728 344.422 267.384L343.638 266.456C344.518 265.64 345.558 265.048 346.918 265.048C348.886 265.048 350.326 266.104 350.326 267.992C350.326 269.416 349.478 270.36 348.23 270.824V270.888C349.622 271.208 350.726 272.264 350.726 273.864C350.726 275.96 349.046 277.208 346.966 277.208ZM356.433 276.072C357.553 276.072 358.417 275 358.417 273.4C358.417 271.816 357.729 270.808 356.305 270.808C355.569 270.808 354.673 271.224 353.905 272.312C354.081 274.744 354.961 276.072 356.433 276.072ZM359.585 266.248L358.785 267.16C358.321 266.6 357.617 266.264 356.897 266.264C355.297 266.264 353.937 267.496 353.873 271.144C354.593 270.264 355.617 269.72 356.545 269.72C358.529 269.72 359.793 270.952 359.793 273.4C359.793 275.672 358.257 277.208 356.433 277.208C354.177 277.208 352.513 275.272 352.513 271.4C352.513 266.808 354.577 265.048 356.849 265.048C358.065 265.048 358.945 265.56 359.585 266.248ZM364.668 271.464C365.452 271.464 366.332 271.016 367.116 269.896C366.956 267.48 366.06 266.2 364.556 266.2C363.436 266.2 362.572 267.256 362.572 268.856C362.572 270.44 363.276 271.464 364.668 271.464ZM361.42 276.008L362.22 275.096C362.716 275.656 363.436 275.992 364.188 275.992C365.708 275.992 367.02 274.744 367.132 271.096C366.428 271.976 365.42 272.552 364.428 272.552C362.476 272.552 361.196 271.288 361.196 268.856C361.196 266.584 362.732 265.048 364.556 265.048C366.812 265.048 368.492 266.904 368.492 270.632C368.492 275.384 366.444 277.208 364.236 277.208C362.972 277.208 362.076 276.696 361.42 276.008Z" fill="#4F4F4F"/>
<path d="M731.365 224.757C713.289 273.146 657.051 298.54 605.763 281.486C554.474 264.432 527.537 211.372 545.635 162.983C563.711 114.593 619.949 89.1998 671.237 106.254C722.526 123.308 749.463 176.368 731.365 224.757Z" fill="white"/>
<g clip-path="url(#clip1_338_34921)">
<rect width="373" height="350" transform="translate(475)" fill="white"/>
<path d="M805 177C805 268.127 731.127 342 640 342C548.873 342 475 268.127 475 177C475 85.873 548.873 12 640 12C731.127 12 805 85.873 805 177Z" fill="url(#paint4_linear_338_34921)"/>
<path d="M741.563 32.4899C747.534 36.7456 753.232 41.3723 758.624 46.3429L640 175.003L741.563 32.4899Z" fill="url(#paint5_linear_338_34921)"/>
<path d="M758.624 46.3429C764.015 51.3134 769.088 56.6179 773.813 62.2249L640 175.003L758.624 46.3429Z" fill="url(#paint6_linear_338_34921)"/>
<path d="M773.814 62.2198C795.215 87.6125 808.949 118.57 813.412 151.477L640 174.998L773.814 62.2198Z" fill="url(#paint7_linear_338_34921)"/>
<path d="M735.76 151.963C749.575 204.861 717.938 258.943 665.048 272.76C612.157 286.576 558.083 254.935 544.238 202.037C530.423 149.139 562.091 95.0568 614.951 81.2401C667.841 67.4235 721.915 99.0651 735.73 151.963" fill="white"/>
<path d="M527.48 262.208C526.755 262.208 526.109 262.075 525.544 261.808C524.979 261.541 524.536 261.173 524.216 260.704C523.896 260.235 523.736 259.696 523.736 259.088C523.736 258.565 523.837 258.096 524.04 257.68C524.253 257.253 524.525 256.891 524.856 256.592C525.187 256.283 525.528 256.032 525.88 255.84V255.776C525.453 255.477 525.08 255.109 524.76 254.672C524.451 254.224 524.296 253.691 524.296 253.072C524.296 252.475 524.435 251.957 524.712 251.52C525 251.072 525.384 250.725 525.864 250.48C526.355 250.224 526.904 250.096 527.512 250.096C528.184 250.096 528.76 250.229 529.24 250.496C529.72 250.763 530.088 251.125 530.344 251.584C530.6 252.043 530.728 252.576 530.728 253.184C530.728 253.589 530.643 253.973 530.472 254.336C530.312 254.699 530.115 255.024 529.88 255.312C529.645 255.589 529.411 255.824 529.176 256.016V256.096C529.517 256.288 529.837 256.523 530.136 256.8C530.435 257.067 530.675 257.397 530.856 257.792C531.048 258.176 531.144 258.64 531.144 259.184C531.144 259.739 530.989 260.251 530.68 260.72C530.381 261.179 529.955 261.541 529.4 261.808C528.856 262.075 528.216 262.208 527.48 262.208ZM528.28 255.632C528.675 255.28 528.973 254.907 529.176 254.512C529.379 254.107 529.48 253.691 529.48 253.264C529.48 252.869 529.4 252.517 529.24 252.208C529.091 251.899 528.867 251.653 528.568 251.472C528.269 251.28 527.912 251.184 527.496 251.184C526.952 251.184 526.504 251.355 526.152 251.696C525.8 252.037 525.624 252.496 525.624 253.072C525.624 253.531 525.747 253.92 525.992 254.24C526.248 254.549 526.579 254.816 526.984 255.04C527.389 255.253 527.821 255.451 528.28 255.632ZM527.496 261.12C527.955 261.12 528.349 261.035 528.68 260.864C529.021 260.693 529.283 260.459 529.464 260.16C529.656 259.861 529.752 259.52 529.752 259.136C529.752 258.741 529.667 258.405 529.496 258.128C529.325 257.84 529.096 257.589 528.808 257.376C528.531 257.163 528.205 256.971 527.832 256.8C527.459 256.629 527.064 256.464 526.648 256.304C526.179 256.603 525.789 256.981 525.48 257.44C525.181 257.888 525.032 258.395 525.032 258.96C525.032 259.365 525.139 259.733 525.352 260.064C525.565 260.395 525.859 260.656 526.232 260.848C526.616 261.029 527.037 261.12 527.496 261.12ZM535.043 262C535.096 260.891 535.187 259.872 535.315 258.944C535.454 258.005 535.651 257.125 535.907 256.304C536.163 255.472 536.488 254.667 536.883 253.888C537.288 253.109 537.779 252.32 538.355 251.52H532.659V250.272H540.003V251.152C539.32 252.037 538.76 252.885 538.323 253.696C537.896 254.507 537.56 255.333 537.315 256.176C537.08 257.019 536.904 257.915 536.787 258.864C536.68 259.803 536.606 260.848 536.563 262H535.043ZM544.03 257.456C543.497 257.456 543.027 257.312 542.622 257.024C542.227 256.725 541.918 256.299 541.694 255.744C541.481 255.189 541.374 254.517 541.374 253.728C541.374 252.939 541.481 252.272 541.694 251.728C541.918 251.184 542.227 250.773 542.622 250.496C543.027 250.208 543.497 250.064 544.03 250.064C544.574 250.064 545.043 250.208 545.438 250.496C545.843 250.773 546.153 251.184 546.366 251.728C546.59 252.272 546.702 252.939 546.702 253.728C546.702 254.517 546.59 255.189 546.366 255.744C546.153 256.299 545.843 256.725 545.438 257.024C545.043 257.312 544.574 257.456 544.03 257.456ZM544.03 256.56C544.499 256.56 544.873 256.325 545.15 255.856C545.438 255.376 545.582 254.667 545.582 253.728C545.582 252.789 545.438 252.096 545.15 251.648C544.873 251.189 544.499 250.96 544.03 250.96C543.571 250.96 543.198 251.189 542.91 251.648C542.622 252.096 542.478 252.789 542.478 253.728C542.478 254.667 542.622 255.376 542.91 255.856C543.198 256.325 543.571 256.56 544.03 256.56ZM544.366 262.208L550.846 250.064H551.838L545.358 262.208H544.366ZM552.206 262.208C551.673 262.208 551.203 262.064 550.798 261.776C550.403 261.488 550.094 261.067 549.87 260.512C549.657 259.957 549.55 259.285 549.55 258.496C549.55 257.707 549.657 257.04 549.87 256.496C550.094 255.952 550.403 255.536 550.798 255.248C551.203 254.96 551.673 254.816 552.206 254.816C552.739 254.816 553.203 254.96 553.598 255.248C554.003 255.536 554.313 255.952 554.526 256.496C554.75 257.04 554.862 257.707 554.862 258.496C554.862 259.285 554.75 259.957 554.526 260.512C554.313 261.067 554.003 261.488 553.598 261.776C553.203 262.064 552.739 262.208 552.206 262.208ZM552.206 261.312C552.665 261.312 553.038 261.077 553.326 260.608C553.625 260.139 553.774 259.435 553.774 258.496C553.774 257.557 553.625 256.859 553.326 256.4C553.038 255.941 552.665 255.712 552.206 255.712C551.747 255.712 551.369 255.941 551.07 256.4C550.782 256.859 550.638 257.557 550.638 258.496C550.638 259.435 550.782 260.139 551.07 260.608C551.369 261.077 551.747 261.312 552.206 261.312Z" fill="white"/>
<path d="M755.658 118.856C755.658 120.44 756.362 121.464 757.754 121.464C758.554 121.464 759.45 121 760.202 119.896C760.042 117.48 759.146 116.2 757.642 116.2C756.522 116.2 755.658 117.256 755.658 118.856ZM757.322 127.208C756.058 127.208 755.162 126.696 754.506 126.008L755.322 125.096C755.802 125.656 756.522 125.992 757.274 125.992C758.794 125.992 760.106 124.744 760.218 121.112C759.498 121.992 758.49 122.552 757.514 122.552C755.562 122.552 754.282 121.288 754.282 118.856C754.282 116.584 755.818 115.048 757.642 115.048C759.898 115.048 761.578 116.904 761.578 120.632C761.578 125.384 759.53 127.208 757.322 127.208ZM765.733 122.456C764.133 122.456 763.077 121.096 763.077 118.728C763.077 116.376 764.133 115.048 765.733 115.048C767.349 115.048 768.405 116.376 768.405 118.728C768.405 121.096 767.349 122.456 765.733 122.456ZM765.733 121.544C766.661 121.544 767.301 120.6 767.301 118.728C767.301 116.856 766.661 115.944 765.733 115.944C764.821 115.944 764.181 116.856 764.181 118.728C764.181 120.6 764.821 121.544 765.733 121.544ZM766.085 127.208L772.549 115.048H773.541L767.061 127.208H766.085ZM773.909 127.208C772.309 127.208 771.237 125.864 771.237 123.496C771.237 121.144 772.309 119.816 773.909 119.816C775.509 119.816 776.565 121.144 776.565 123.496C776.565 125.864 775.509 127.208 773.909 127.208ZM773.909 126.312C774.821 126.312 775.461 125.368 775.461 123.496C775.461 121.624 774.821 120.712 773.909 120.712C772.981 120.712 772.357 121.624 772.357 123.496C772.357 125.368 772.981 126.312 773.909 126.312Z" fill="white"/>
<path d="M757.704 28V27.136C761.384 23.92 763.08 21.584 763.08 19.568C763.08 18.224 762.376 17.248 760.92 17.248C759.96 17.248 759.128 17.84 758.488 18.608L757.64 17.776C758.6 16.736 759.608 16.048 761.096 16.048C763.192 16.048 764.504 17.424 764.504 19.52C764.504 21.856 762.664 24.24 759.912 26.848C760.52 26.8 761.24 26.736 761.832 26.736H765.08V28H757.704ZM769.155 23.456C767.555 23.456 766.499 22.096 766.499 19.728C766.499 17.376 767.555 16.048 769.155 16.048C770.771 16.048 771.827 17.376 771.827 19.728C771.827 22.096 770.771 23.456 769.155 23.456ZM769.155 22.544C770.083 22.544 770.723 21.6 770.723 19.728C770.723 17.856 770.083 16.944 769.155 16.944C768.243 16.944 767.603 17.856 767.603 19.728C767.603 21.6 768.243 22.544 769.155 22.544ZM769.507 28.208L775.971 16.048H776.963L770.483 28.208H769.507ZM777.331 28.208C775.731 28.208 774.659 26.864 774.659 24.496C774.659 22.144 775.731 20.816 777.331 20.816C778.931 20.816 779.987 22.144 779.987 24.496C779.987 26.864 778.931 28.208 777.331 28.208ZM777.331 27.312C778.243 27.312 778.883 26.368 778.883 24.496C778.883 22.624 778.243 21.712 777.331 21.712C776.403 21.712 775.779 22.624 775.779 24.496C775.779 26.368 776.403 27.312 777.331 27.312Z" fill="#E0532E"/>
<path d="M780.704 55V54.136C784.384 50.92 786.08 48.584 786.08 46.568C786.08 45.224 785.376 44.248 783.92 44.248C782.96 44.248 782.128 44.84 781.488 45.608L780.64 44.776C781.6 43.736 782.608 43.048 784.096 43.048C786.192 43.048 787.504 44.424 787.504 46.52C787.504 48.856 785.664 51.24 782.912 53.848C783.52 53.8 784.24 53.736 784.832 53.736H788.08V55H780.704ZM792.155 50.456C790.555 50.456 789.499 49.096 789.499 46.728C789.499 44.376 790.555 43.048 792.155 43.048C793.771 43.048 794.827 44.376 794.827 46.728C794.827 49.096 793.771 50.456 792.155 50.456ZM792.155 49.544C793.083 49.544 793.723 48.6 793.723 46.728C793.723 44.856 793.083 43.944 792.155 43.944C791.243 43.944 790.603 44.856 790.603 46.728C790.603 48.6 791.243 49.544 792.155 49.544ZM792.507 55.208L798.971 43.048H799.963L793.483 55.208H792.507ZM800.331 55.208C798.731 55.208 797.659 53.864 797.659 51.496C797.659 49.144 798.731 47.816 800.331 47.816C801.931 47.816 802.987 49.144 802.987 51.496C802.987 53.864 801.931 55.208 800.331 55.208ZM800.331 54.312C801.243 54.312 801.883 53.368 801.883 51.496C801.883 49.624 801.243 48.712 800.331 48.712C799.403 48.712 798.779 49.624 798.779 51.496C798.779 53.368 799.403 54.312 800.331 54.312Z" fill="#A7AC39"/>
</g>
<path d="M79.953 73V59.734H84.291C87.027 59.734 89.079 60.724 89.079 63.586C89.079 65.638 87.981 66.862 86.307 67.384L89.547 73H87.189L84.183 67.654H82.041V73H79.953ZM82.041 65.98H84.039C85.965 65.98 87.009 65.188 87.009 63.586C87.009 61.984 85.965 61.426 84.039 61.426H82.041V65.98ZM95.5142 73.234C92.8322 73.234 90.6902 71.326 90.6902 68.05C90.6902 64.846 92.9042 62.848 95.2082 62.848C97.8362 62.848 99.2582 64.738 99.2582 67.528C99.2582 67.942 99.2042 68.338 99.1502 68.59H92.7242C92.8862 70.48 94.0742 71.614 95.7842 71.614C96.6662 71.614 97.4222 71.344 98.1422 70.876L98.8622 72.19C97.9442 72.802 96.8102 73.234 95.5142 73.234ZM92.7062 67.15H97.4582C97.4582 65.458 96.6842 64.468 95.2442 64.468C94.0022 64.468 92.9042 65.422 92.7062 67.15ZM104.252 73.234C102.884 73.234 101.498 72.658 100.526 71.866L101.498 70.534C102.38 71.218 103.244 71.668 104.306 71.668C105.494 71.668 106.052 71.092 106.052 70.336C106.052 69.436 104.936 69.04 103.874 68.626C102.542 68.122 101.084 67.42 101.084 65.746C101.084 64.09 102.416 62.848 104.612 62.848C105.926 62.848 107.024 63.388 107.816 64.018L106.844 65.296C106.16 64.792 105.458 64.432 104.648 64.432C103.55 64.432 103.046 64.972 103.046 65.656C103.046 66.502 104.018 66.826 105.098 67.222C106.484 67.744 108.014 68.356 108.014 70.228C108.014 71.884 106.7 73.234 104.252 73.234ZM114.178 73.234C111.73 73.234 109.516 71.344 109.516 68.05C109.516 64.756 111.73 62.848 114.178 62.848C116.626 62.848 118.84 64.756 118.84 68.05C118.84 71.344 116.626 73.234 114.178 73.234ZM114.178 71.542C115.744 71.542 116.716 70.156 116.716 68.05C116.716 65.962 115.744 64.558 114.178 64.558C112.63 64.558 111.658 65.962 111.658 68.05C111.658 70.156 112.63 71.542 114.178 71.542ZM124.191 73.234C122.067 73.234 121.149 71.848 121.149 69.328V63.1H123.219V69.076C123.219 70.768 123.705 71.452 124.875 71.452C125.793 71.452 126.423 71.02 127.251 69.976V63.1H129.321V73H127.629L127.467 71.506H127.413C126.513 72.55 125.541 73.234 124.191 73.234ZM132.437 73V63.1H134.129L134.291 64.882H134.345C135.047 63.604 136.091 62.848 137.153 62.848C137.639 62.848 137.963 62.92 138.269 63.064L137.891 64.864C137.549 64.756 137.297 64.702 136.901 64.702C136.091 64.702 135.119 65.26 134.507 66.826V73H132.437ZM143.641 73.234C140.959 73.234 138.907 71.344 138.907 68.05C138.907 64.756 141.193 62.848 143.803 62.848C145.063 62.848 145.981 63.352 146.701 63.982L145.675 65.332C145.135 64.846 144.577 64.558 143.911 64.558C142.237 64.558 141.049 65.962 141.049 68.05C141.049 70.156 142.201 71.542 143.839 71.542C144.667 71.542 145.405 71.146 145.999 70.642L146.863 72.01C145.945 72.82 144.775 73.234 143.641 73.234ZM152.555 73.234C149.873 73.234 147.731 71.326 147.731 68.05C147.731 64.846 149.945 62.848 152.249 62.848C154.877 62.848 156.299 64.738 156.299 67.528C156.299 67.942 156.245 68.338 156.191 68.59H149.765C149.927 70.48 151.115 71.614 152.825 71.614C153.707 71.614 154.463 71.344 155.183 70.876L155.903 72.19C154.985 72.802 153.851 73.234 152.555 73.234ZM149.747 67.15H154.499C154.499 65.458 153.725 64.468 152.285 64.468C151.043 64.468 149.945 65.422 149.747 67.15ZM161.293 73.234C159.925 73.234 158.539 72.658 157.567 71.866L158.539 70.534C159.421 71.218 160.285 71.668 161.347 71.668C162.535 71.668 163.093 71.092 163.093 70.336C163.093 69.436 161.977 69.04 160.915 68.626C159.583 68.122 158.125 67.42 158.125 65.746C158.125 64.09 159.457 62.848 161.653 62.848C162.967 62.848 164.065 63.388 164.857 64.018L163.885 65.296C163.201 64.792 162.499 64.432 161.689 64.432C160.591 64.432 160.087 64.972 160.087 65.656C160.087 66.502 161.059 66.826 162.139 67.222C163.525 67.744 165.055 68.356 165.055 70.228C165.055 71.884 163.741 73.234 161.293 73.234ZM171.482 73V59.734H173.57V73H171.482ZM176.857 73V63.1H178.549L178.711 64.468H178.765C179.683 63.586 180.691 62.848 182.041 62.848C184.147 62.848 185.083 64.252 185.083 66.772V73H183.013V67.024C183.013 65.314 182.509 64.63 181.339 64.63C180.421 64.63 179.791 65.098 178.927 65.98V73H176.857ZM190.267 73L186.757 63.1H188.881L190.573 68.428C190.861 69.4 191.149 70.408 191.437 71.38H191.509C191.797 70.408 192.103 69.4 192.373 68.428L194.065 63.1H196.081L192.661 73H190.267ZM201.915 73.234C199.233 73.234 197.091 71.326 197.091 68.05C197.091 64.846 199.305 62.848 201.609 62.848C204.237 62.848 205.659 64.738 205.659 67.528C205.659 67.942 205.605 68.338 205.551 68.59H199.125C199.287 70.48 200.475 71.614 202.185 71.614C203.067 71.614 203.823 71.344 204.543 70.876L205.263 72.19C204.345 72.802 203.211 73.234 201.915 73.234ZM199.107 67.15H203.859C203.859 65.458 203.085 64.468 201.645 64.468C200.403 64.468 199.305 65.422 199.107 67.15ZM210.652 73.234C209.284 73.234 207.898 72.658 206.926 71.866L207.898 70.534C208.78 71.218 209.644 71.668 210.706 71.668C211.894 71.668 212.452 71.092 212.452 70.336C212.452 69.436 211.336 69.04 210.274 68.626C208.942 68.122 207.484 67.42 207.484 65.746C207.484 64.09 208.816 62.848 211.012 62.848C212.326 62.848 213.424 63.388 214.216 64.018L213.244 65.296C212.56 64.792 211.858 64.432 211.048 64.432C209.95 64.432 209.446 64.972 209.446 65.656C209.446 66.502 210.418 66.826 211.498 67.222C212.884 67.744 214.414 68.356 214.414 70.228C214.414 71.884 213.1 73.234 210.652 73.234ZM219.544 73.234C217.312 73.234 216.538 71.848 216.538 69.76V64.756H215.098V63.208L216.646 63.1L216.88 60.364H218.608V63.1H221.182V64.756H218.608V69.778C218.608 70.966 219.022 71.578 220.048 71.578C220.39 71.578 220.822 71.47 221.11 71.344L221.488 72.874C220.93 73.054 220.264 73.234 219.544 73.234ZM227.174 73.234C224.492 73.234 222.35 71.326 222.35 68.05C222.35 64.846 224.564 62.848 226.868 62.848C229.496 62.848 230.918 64.738 230.918 67.528C230.918 67.942 230.864 68.338 230.81 68.59H224.384C224.546 70.48 225.734 71.614 227.444 71.614C228.326 71.614 229.082 71.344 229.802 70.876L230.522 72.19C229.604 72.802 228.47 73.234 227.174 73.234ZM224.366 67.15H229.118C229.118 65.458 228.344 64.468 226.904 64.468C225.662 64.468 224.564 65.422 224.366 67.15ZM236.65 73.234C234.166 73.234 232.564 71.344 232.564 68.05C232.564 64.846 234.598 62.848 236.812 62.848C237.946 62.848 238.666 63.28 239.476 63.964L239.386 62.326V58.654H241.456V73H239.764L239.602 71.884H239.53C238.792 72.64 237.766 73.234 236.65 73.234ZM237.136 71.524C237.964 71.524 238.666 71.146 239.386 70.318V65.476C238.648 64.81 237.946 64.576 237.208 64.576C235.822 64.576 234.706 65.89 234.706 68.032C234.706 70.282 235.588 71.524 237.136 71.524ZM248.611 73V63.1H250.681V73H248.611ZM249.637 61.246C248.881 61.246 248.359 60.76 248.359 60.004C248.359 59.266 248.881 58.78 249.637 58.78C250.393 58.78 250.933 59.266 250.933 60.004C250.933 60.76 250.393 61.246 249.637 61.246ZM253.779 73V63.1H255.471L255.633 64.468H255.687C256.605 63.586 257.613 62.848 258.963 62.848C261.069 62.848 262.005 64.252 262.005 66.772V73H259.935V67.024C259.935 65.314 259.431 64.63 258.261 64.63C257.343 64.63 256.713 65.098 255.849 65.98V73H253.779ZM273.014 73.234C271.196 73.234 269.504 72.514 268.298 71.29L269.522 69.85C270.476 70.804 271.772 71.416 273.05 71.416C274.652 71.416 275.552 70.66 275.552 69.544C275.552 68.338 274.652 67.96 273.428 67.42L271.592 66.628C270.314 66.088 268.892 65.08 268.892 63.154C268.892 61.066 270.728 59.5 273.248 59.5C274.796 59.5 276.254 60.148 277.262 61.174L276.164 62.506C275.336 61.768 274.418 61.318 273.248 61.318C271.898 61.318 271.016 61.966 271.016 63.01C271.016 64.162 272.078 64.594 273.158 65.026L274.976 65.8C276.542 66.466 277.676 67.438 277.676 69.382C277.676 71.506 275.912 73.234 273.014 73.234ZM283.965 73.234C281.517 73.234 279.303 71.344 279.303 68.05C279.303 64.756 281.517 62.848 283.965 62.848C286.413 62.848 288.627 64.756 288.627 68.05C288.627 71.344 286.413 73.234 283.965 73.234ZM283.965 71.542C285.531 71.542 286.503 70.156 286.503 68.05C286.503 65.962 285.531 64.558 283.965 64.558C282.417 64.558 281.445 65.962 281.445 68.05C281.445 70.156 282.417 71.542 283.965 71.542ZM295.094 73.234C292.412 73.234 290.36 71.344 290.36 68.05C290.36 64.756 292.646 62.848 295.256 62.848C296.516 62.848 297.434 63.352 298.154 63.982L297.128 65.332C296.588 64.846 296.03 64.558 295.364 64.558C293.69 64.558 292.502 65.962 292.502 68.05C292.502 70.156 293.654 71.542 295.292 71.542C296.12 71.542 296.858 71.146 297.452 70.642L298.316 72.01C297.398 72.82 296.228 73.234 295.094 73.234ZM300.361 73V63.1H302.431V73H300.361ZM301.387 61.246C300.631 61.246 300.109 60.76 300.109 60.004C300.109 59.266 300.631 58.78 301.387 58.78C302.143 58.78 302.683 59.266 302.683 60.004C302.683 60.76 302.143 61.246 301.387 61.246ZM307.869 73.234C306.159 73.234 304.953 72.118 304.953 70.372C304.953 68.248 306.753 67.15 310.875 66.7C310.857 65.548 310.443 64.54 308.985 64.54C307.941 64.54 306.969 65.008 306.123 65.548L305.349 64.144C306.375 63.496 307.761 62.848 309.345 62.848C311.811 62.848 312.945 64.414 312.945 67.042V73H311.253L311.091 71.866H311.019C310.119 72.64 309.057 73.234 307.869 73.234ZM308.499 71.596C309.363 71.596 310.065 71.182 310.875 70.444V68.014C307.941 68.356 306.951 69.112 306.951 70.228C306.951 71.2 307.617 71.596 308.499 71.596ZM317.934 73.234C316.44 73.234 315.882 72.28 315.882 70.678V58.654H317.952V70.786C317.952 71.344 318.186 71.542 318.438 71.542C318.528 71.542 318.6 71.542 318.78 71.506L319.05 73.072C318.798 73.162 318.456 73.234 317.934 73.234ZM330.867 73.234C327.339 73.234 324.747 70.75 324.747 66.412C324.747 62.092 327.411 59.5 330.921 59.5C332.793 59.5 334.053 60.328 334.863 61.174L333.747 62.506C333.081 61.84 332.271 61.318 330.993 61.318C328.527 61.318 326.889 63.226 326.889 66.34C326.889 69.49 328.347 71.416 331.083 71.416C331.893 71.416 332.703 71.182 333.171 70.768V67.654H330.543V65.944H335.061V71.686C334.179 72.568 332.685 73.234 330.867 73.234ZM341.868 73.234C339.42 73.234 337.206 71.344 337.206 68.05C337.206 64.756 339.42 62.848 341.868 62.848C344.316 62.848 346.53 64.756 346.53 68.05C346.53 71.344 344.316 73.234 341.868 73.234ZM341.868 71.542C343.434 71.542 344.406 70.156 344.406 68.05C344.406 65.962 343.434 64.558 341.868 64.558C340.32 64.558 339.348 65.962 339.348 68.05C339.348 70.156 340.32 71.542 341.868 71.542ZM352.924 73.234C350.476 73.234 348.262 71.344 348.262 68.05C348.262 64.756 350.476 62.848 352.924 62.848C355.372 62.848 357.586 64.756 357.586 68.05C357.586 71.344 355.372 73.234 352.924 73.234ZM352.924 71.542C354.49 71.542 355.462 70.156 355.462 68.05C355.462 65.962 354.49 64.558 352.924 64.558C351.376 64.558 350.404 65.962 350.404 68.05C350.404 70.156 351.376 71.542 352.924 71.542ZM363.441 73.234C360.957 73.234 359.355 71.344 359.355 68.05C359.355 64.846 361.389 62.848 363.603 62.848C364.737 62.848 365.457 63.28 366.267 63.964L366.177 62.326V58.654H368.247V73H366.555L366.393 71.884H366.321C365.583 72.64 364.557 73.234 363.441 73.234ZM363.927 71.524C364.755 71.524 365.457 71.146 366.177 70.318V65.476C365.439 64.81 364.737 64.576 363.999 64.576C362.613 64.576 361.497 65.89 361.497 68.032C361.497 70.282 362.379 71.524 363.927 71.524Z" fill="black"/>
<path d="M81.4137 123.786C80.1117 121.658 79.3417 119.404 79.3417 116.618C79.3417 113.86 80.1117 111.578 81.4137 109.464L82.4217 109.898C81.2177 111.914 80.6577 114.28 80.6577 116.618C80.6577 118.97 81.2177 121.336 82.4217 123.338L81.4137 123.786ZM84.2903 121V113.3H85.9003V121H84.2903ZM85.0883 111.858C84.5003 111.858 84.0943 111.48 84.0943 110.892C84.0943 110.318 84.5003 109.94 85.0883 109.94C85.6763 109.94 86.0963 110.318 86.0963 110.892C86.0963 111.48 85.6763 111.858 85.0883 111.858ZM88.3098 121V113.3H89.6258L89.7518 114.364H89.7938C90.5078 113.678 91.2918 113.104 92.3418 113.104C93.9798 113.104 94.7078 114.196 94.7078 116.156V121H93.0978V116.352C93.0978 115.022 92.7058 114.49 91.7958 114.49C91.0818 114.49 90.5918 114.854 89.9198 115.54V121H88.3098ZM100.331 121V110.682H101.997L105.413 116.744L106.491 118.928H106.561C106.477 117.864 106.351 116.618 106.351 115.498V110.682H107.891V121H106.225L102.809 114.924L101.731 112.768H101.661C101.745 113.832 101.871 115.022 101.871 116.142V121H100.331ZM112.712 121V112.054H109.688V110.682H117.374V112.054H114.336V121H112.712ZM124.415 122.722V121.168C123.435 121.07 122.399 120.594 121.699 119.964L122.427 118.858C123.141 119.446 123.911 119.866 124.793 119.866C125.885 119.866 126.417 119.32 126.417 118.41C126.417 116.142 122.091 116.534 122.091 113.538C122.091 112.082 123.001 111.06 124.415 110.822V109.24H125.535V110.808C126.543 110.934 127.215 111.41 127.789 112.026L126.963 112.964C126.375 112.418 125.899 112.11 125.101 112.11C124.205 112.11 123.645 112.614 123.645 113.468C123.645 115.512 127.971 115.036 127.971 118.298C127.971 119.796 127.075 120.86 125.535 121.126V122.722H124.415ZM130.58 123.786L129.572 123.338C130.776 121.336 131.336 118.97 131.336 116.618C131.336 114.28 130.776 111.914 129.572 109.898L130.58 109.464C131.896 111.578 132.666 113.86 132.666 116.618C132.666 119.404 131.896 121.658 130.58 123.786Z" fill="#4F4F4F"/>
</g>
<defs>
<linearGradient id="paint0_linear_338_34921" x1="83.0003" y1="163" x2="83.0004" y2="173" gradientUnits="userSpaceOnUse">
<stop stop-color="#FF9E45"/>
<stop offset="1" stop-color="#FF7A00"/>
</linearGradient>
<linearGradient id="paint1_linear_338_34921" x1="83.5003" y1="197" x2="83.5004" y2="207" gradientUnits="userSpaceOnUse">
<stop stop-color="#6FC7E2"/>
<stop offset="1" stop-color="#00AED4"/>
</linearGradient>
<linearGradient id="paint2_linear_338_34921" x1="83.0004" y1="231" x2="83.0004" y2="241" gradientUnits="userSpaceOnUse">
<stop stop-color="#C2C559"/>
<stop offset="1" stop-color="#A7AC39"/>
</linearGradient>
<linearGradient id="paint3_linear_338_34921" x1="83.0004" y1="265" x2="83.0004" y2="275" gradientUnits="userSpaceOnUse">
<stop stop-color="#DF6F2A"/>
<stop offset="1" stop-color="#E0532E"/>
</linearGradient>
<linearGradient id="paint4_linear_338_34921" x1="640" y1="12" x2="640" y2="342" gradientUnits="userSpaceOnUse">
<stop stop-color="#FF9E45"/>
<stop offset="1" stop-color="#FF7A00"/>
</linearGradient>
<linearGradient id="paint5_linear_338_34921" x1="741.563" y1="32.4899" x2="741.563" y2="128.504" gradientUnits="userSpaceOnUse">
<stop stop-color="#DF6F2A"/>
<stop offset="1" stop-color="#E0532E"/>
</linearGradient>
<linearGradient id="paint6_linear_338_34921" x1="745.5" y1="48.0039" x2="745.5" y2="126.004" gradientUnits="userSpaceOnUse">
<stop stop-color="#C2C559"/>
<stop offset="1" stop-color="#A7AC39"/>
</linearGradient>
<linearGradient id="paint7_linear_338_34921" x1="760.5" y1="80.998" x2="764" y2="164.498" gradientUnits="userSpaceOnUse">
<stop stop-color="#6FC7E2"/>
<stop offset="1" stop-color="#00AED4"/>
</linearGradient>
<clipPath id="clip0_338_34921">
<rect width="876" height="350" fill="white"/>
</clipPath>
<clipPath id="clip1_338_34921">
<rect width="373" height="350" fill="white" transform="translate(475)"/>
</clipPath>
</defs>
</svg>
