<svg width="820" height="300" viewBox="0 0 820 300" fill="none" xmlns="http://www.w3.org/2000/svg">
<circle cx="150" cy="150" r="150" fill="url(#paint0_radial_386_35012)"/>
<path d="M177.557 84H122.754V113.69H177.557V84Z" fill="url(#paint1_linear_386_35012)"/>
<path d="M143.861 157.407L141.024 129.117H158.8L155.963 157.407H143.861Z" fill="url(#paint2_linear_386_35012)"/>
<path d="M154.333 121.519C154.333 123.977 152.366 125.944 149.908 125.944C147.45 125.944 145.483 123.977 145.483 121.519C145.483 119.06 147.487 117.094 149.908 117.094C152.329 117.094 154.333 119.06 154.333 121.519Z" fill="url(#paint3_linear_386_35012)"/>
<path d="M122.828 157.407L119.992 129.117H137.768L134.931 157.407H122.828Z" fill="url(#paint4_linear_386_35012)"/>
<path d="M133.303 121.519C133.303 123.977 131.337 125.944 128.878 125.944C126.42 125.944 124.453 123.977 124.453 121.519C124.453 119.06 126.458 117.094 128.878 117.094C131.299 117.094 133.303 119.06 133.303 121.519Z" fill="url(#paint5_linear_386_35012)"/>
<path d="M164.889 157.407L162.09 129.117H179.828L177.029 157.407H164.889Z" fill="url(#paint6_linear_386_35012)"/>
<path d="M175.209 121.519C175.209 123.977 173.242 125.944 170.783 125.944C168.325 125.944 166.358 123.977 166.358 121.519C166.358 119.06 168.363 117.094 170.783 117.094C173.204 117.094 175.209 119.06 175.209 121.519Z" fill="url(#paint7_linear_386_35012)"/>
<path d="M137.481 95.7929L133.657 99.6172L137.481 103.442L141.305 99.6172L137.481 95.7929Z" fill="white"/>
<path d="M149.906 95.7694L146.082 99.5938L149.906 103.418L153.73 99.5938L149.906 95.7694Z" fill="white"/>
<path d="M162.31 95.7772L158.486 99.6016L162.31 103.426L166.135 99.6016L162.31 95.7772Z" fill="white"/>
<path d="M73.2586 190.208C70.2346 190.208 68.1386 187.856 68.1386 184.064C68.1386 180.272 70.2346 178 73.2586 178C76.2826 178 78.3946 180.272 78.3946 184.064C78.3946 187.856 76.2826 190.208 73.2586 190.208ZM73.2586 188.592C75.2106 188.592 76.4906 186.832 76.4906 184.064C76.4906 181.296 75.2106 179.616 73.2586 179.616C71.3066 179.616 70.0426 181.296 70.0426 184.064C70.0426 186.832 71.3066 188.592 73.2586 188.592ZM80.6811 190V181.2H82.1851L82.3291 182.416H82.3771C83.1931 181.632 84.0891 180.976 85.2891 180.976C87.1611 180.976 87.9931 182.224 87.9931 184.464V190H86.1531V184.688C86.1531 183.168 85.7051 182.56 84.6651 182.56C83.8491 182.56 83.2891 182.976 82.5051 183.76V190H80.6811ZM92.4894 190.208C91.1614 190.208 90.6654 189.36 90.6654 187.936V177.248H92.4894V188.032C92.4894 188.528 92.7134 188.704 92.9374 188.704C93.0174 188.704 93.0814 188.704 93.2414 188.672L93.4814 190.064C93.2574 190.144 92.9374 190.208 92.4894 190.208ZM102.535 181.2L99.3031 190.528C98.6151 192.416 97.6871 193.68 95.8311 193.68C95.3831 193.68 95.0311 193.616 94.7271 193.504L95.0791 192.064C95.2391 192.112 95.4951 192.192 95.7191 192.192C96.6791 192.192 97.2391 191.488 97.5591 190.544L97.7351 189.936L94.2471 181.2H96.1351L97.7671 185.728C98.0231 186.512 98.2951 187.392 98.5671 188.208H98.6471L99.3351 185.728L100.743 181.2H102.535ZM110.624 190.208C108.768 190.208 107.568 189.472 106.784 188.592L107.68 187.408C108.368 188.112 109.248 188.704 110.464 188.704C111.792 188.704 112.704 187.968 112.704 186.752C112.704 185.44 111.872 184.592 109.216 184.592V183.232C111.536 183.232 112.304 182.352 112.304 181.168C112.304 180.128 111.616 179.472 110.496 179.456C109.584 179.472 108.816 179.92 108.144 180.576L107.184 179.424C108.112 178.592 109.2 178 110.56 178C112.672 178 114.16 179.088 114.16 181.04C114.16 182.4 113.376 183.344 112.128 183.808V183.888C113.488 184.224 114.56 185.248 114.56 186.832C114.56 188.96 112.784 190.208 110.624 190.208ZM120.447 193.568V181.2H121.951L122.095 182.16H122.143C122.911 181.52 123.871 180.976 124.847 180.976C127.087 180.976 128.335 182.752 128.335 185.456C128.335 188.48 126.527 190.208 124.543 190.208C123.759 190.208 122.975 189.856 122.223 189.216L122.271 190.72V193.568H120.447ZM124.191 188.688C125.471 188.688 126.431 187.552 126.431 185.488C126.431 183.648 125.839 182.512 124.367 182.512C123.679 182.512 123.023 182.864 122.271 183.584V187.888C122.959 188.48 123.647 188.688 124.191 188.688ZM134.189 190.208C131.805 190.208 129.901 188.512 129.901 185.616C129.901 182.752 131.853 180.976 133.917 180.976C136.253 180.976 137.501 182.656 137.501 185.152C137.501 185.504 137.469 185.872 137.421 186.08H131.709C131.853 187.76 132.909 188.768 134.429 188.768C135.213 188.768 135.885 188.528 136.525 188.112L137.165 189.28C136.349 189.824 135.341 190.208 134.189 190.208ZM131.693 184.816H135.917C135.917 183.296 135.229 182.416 133.949 182.416C132.845 182.416 131.869 183.264 131.693 184.816ZM143.092 190.208C140.916 190.208 138.948 188.528 138.948 185.616C138.948 182.672 140.916 180.976 143.092 180.976C145.268 180.976 147.236 182.672 147.236 185.616C147.236 188.528 145.268 190.208 143.092 190.208ZM143.092 188.704C144.484 188.704 145.348 187.472 145.348 185.616C145.348 183.744 144.484 182.496 143.092 182.496C141.716 182.496 140.852 183.744 140.852 185.616C140.852 187.472 141.716 188.704 143.092 188.704ZM149.4 193.568V181.2H150.904L151.048 182.16H151.096C151.864 181.52 152.824 180.976 153.8 180.976C156.04 180.976 157.288 182.752 157.288 185.456C157.288 188.48 155.48 190.208 153.496 190.208C152.712 190.208 151.928 189.856 151.176 189.216L151.224 190.72V193.568H149.4ZM153.144 188.688C154.424 188.688 155.384 187.552 155.384 185.488C155.384 183.648 154.792 182.512 153.32 182.512C152.632 182.512 151.976 182.864 151.224 183.584V187.888C151.912 188.48 152.6 188.688 153.144 188.688ZM161.302 190.208C159.974 190.208 159.478 189.36 159.478 187.936V177.248H161.302V188.032C161.302 188.528 161.526 188.704 161.75 188.704C161.83 188.704 161.894 188.704 162.054 188.672L162.294 190.064C162.07 190.144 161.75 190.208 161.302 190.208ZM167.908 190.208C165.524 190.208 163.62 188.512 163.62 185.616C163.62 182.752 165.572 180.976 167.636 180.976C169.972 180.976 171.22 182.656 171.22 185.152C171.22 185.504 171.188 185.872 171.14 186.08H165.428C165.572 187.76 166.628 188.768 168.148 188.768C168.932 188.768 169.604 188.528 170.244 188.112L170.884 189.28C170.068 189.824 169.06 190.208 167.908 190.208ZM165.412 184.816H169.636C169.636 183.296 168.948 182.416 167.668 182.416C166.564 182.416 165.588 183.264 165.412 184.816ZM176.884 190V181.2H178.388L178.532 182.416H178.58C179.396 181.632 180.292 180.976 181.492 180.976C183.364 180.976 184.196 182.224 184.196 184.464V190H182.356V184.688C182.356 183.168 181.908 182.56 180.868 182.56C180.052 182.56 179.492 182.976 178.708 183.76V190H176.884ZM190.533 190.208C188.149 190.208 186.245 188.512 186.245 185.616C186.245 182.752 188.197 180.976 190.261 180.976C192.597 180.976 193.845 182.656 193.845 185.152C193.845 185.504 193.813 185.872 193.765 186.08H188.053C188.197 187.76 189.253 188.768 190.773 188.768C191.557 188.768 192.229 188.528 192.869 188.112L193.509 189.28C192.693 189.824 191.685 190.208 190.533 190.208ZM188.037 184.816H192.261C192.261 183.296 191.573 182.416 190.293 182.416C189.189 182.416 188.213 183.264 188.037 184.816ZM199.579 190.208C197.195 190.208 195.291 188.512 195.291 185.616C195.291 182.752 197.243 180.976 199.307 180.976C201.643 180.976 202.891 182.656 202.891 185.152C202.891 185.504 202.859 185.872 202.811 186.08H197.099C197.243 187.76 198.299 188.768 199.819 188.768C200.603 188.768 201.275 188.528 201.915 188.112L202.555 189.28C201.739 189.824 200.731 190.208 199.579 190.208ZM197.083 184.816H201.307C201.307 183.296 200.619 182.416 199.339 182.416C198.235 182.416 197.259 183.264 197.083 184.816ZM208.002 190.208C205.794 190.208 204.37 188.528 204.37 185.616C204.37 182.752 206.178 180.976 208.146 180.976C209.154 180.976 209.794 181.36 210.514 181.968L210.434 180.512V177.248H212.274V190H210.77L210.61 189.008H210.562C209.906 189.68 208.994 190.208 208.002 190.208ZM208.434 188.688C209.17 188.688 209.794 188.352 210.434 187.616V183.312C209.778 182.72 209.154 182.512 208.498 182.512C207.266 182.512 206.274 183.68 206.274 185.584C206.274 187.584 207.058 188.688 208.434 188.688ZM218.704 190.208C216.32 190.208 214.416 188.512 214.416 185.616C214.416 182.752 216.368 180.976 218.432 180.976C220.768 180.976 222.016 182.656 222.016 185.152C222.016 185.504 221.984 185.872 221.936 186.08H216.224C216.368 187.76 217.424 188.768 218.944 188.768C219.728 188.768 220.4 188.528 221.04 188.112L221.68 189.28C220.864 189.824 219.856 190.208 218.704 190.208ZM216.208 184.816H220.432C220.432 183.296 219.744 182.416 218.464 182.416C217.36 182.416 216.384 183.264 216.208 184.816ZM227.127 190.208C224.919 190.208 223.495 188.528 223.495 185.616C223.495 182.752 225.303 180.976 227.271 180.976C228.279 180.976 228.919 181.36 229.639 181.968L229.559 180.512V177.248H231.399V190H229.895L229.735 189.008H229.687C229.031 189.68 228.119 190.208 227.127 190.208ZM227.559 188.688C228.295 188.688 228.919 188.352 229.559 187.616V183.312C228.903 182.72 228.279 182.512 227.623 182.512C226.391 182.512 225.399 183.68 225.399 185.584C225.399 187.584 226.183 188.688 227.559 188.688ZM86.157 201.344L85.789 202.72C85.469 202.576 85.133 202.496 84.829 202.496C84.045 202.496 83.661 203.008 83.661 204.08V205.2H85.437V206.672H83.661V214H81.821V206.672H80.621V205.296L81.821 205.2V204.096C81.821 202.288 82.637 201.04 84.605 201.04C85.197 201.04 85.757 201.168 86.157 201.344ZM90.3808 214.208C88.2048 214.208 86.2368 212.528 86.2368 209.616C86.2368 206.672 88.2048 204.976 90.3808 204.976C92.5568 204.976 94.5248 206.672 94.5248 209.616C94.5248 212.528 92.5568 214.208 90.3808 214.208ZM90.3808 212.704C91.7728 212.704 92.6368 211.472 92.6368 209.616C92.6368 207.744 91.7728 206.496 90.3808 206.496C89.0048 206.496 88.1408 207.744 88.1408 209.616C88.1408 211.472 89.0048 212.704 90.3808 212.704ZM96.6889 214V205.2H98.1929L98.3369 206.784H98.3849C99.0089 205.648 99.9369 204.976 100.881 204.976C101.313 204.976 101.601 205.04 101.873 205.168L101.537 206.768C101.233 206.672 101.009 206.624 100.657 206.624C99.9369 206.624 99.0729 207.12 98.5129 208.512V214H96.6889ZM106.03 217.792C105.438 217.792 104.989 217.68 104.669 217.552L105.005 216.176C105.245 216.24 105.518 216.32 105.79 216.32C106.622 216.32 106.846 215.728 106.846 214.688V205.2H108.686V214.656C108.686 216.496 107.982 217.792 106.03 217.792ZM107.758 203.552C107.086 203.552 106.59 203.104 106.59 202.464C106.59 201.808 107.086 201.376 107.758 201.376C108.43 201.376 108.942 201.808 108.942 202.464C108.942 203.104 108.43 203.552 107.758 203.552ZM114.959 214.208C112.783 214.208 110.815 212.528 110.815 209.616C110.815 206.672 112.783 204.976 114.959 204.976C117.135 204.976 119.103 206.672 119.103 209.616C119.103 212.528 117.135 214.208 114.959 214.208ZM114.959 212.704C116.351 212.704 117.215 211.472 117.215 209.616C117.215 207.744 116.351 206.496 114.959 206.496C113.583 206.496 112.719 207.744 112.719 209.616C112.719 211.472 113.583 212.704 114.959 212.704ZM121.267 214V205.2H123.091V214H121.267ZM122.179 203.552C121.507 203.552 121.011 203.104 121.011 202.464C121.011 201.808 121.507 201.376 122.179 201.376C122.851 201.376 123.363 201.808 123.363 202.464C123.363 203.104 122.851 203.552 122.179 203.552ZM125.861 214V205.2H127.365L127.509 206.416H127.557C128.373 205.632 129.269 204.976 130.469 204.976C132.341 204.976 133.173 206.224 133.173 208.464V214H131.333V208.688C131.333 207.168 130.885 206.56 129.845 206.56C129.029 206.56 128.469 206.976 127.685 207.76V214H125.861ZM138.805 214.208C136.821 214.208 136.133 212.976 136.133 211.12V206.672H134.853V205.296L136.213 205.2L136.421 202.768H137.973V205.2H140.261V206.672H137.973V211.136C137.973 212.192 138.341 212.736 139.253 212.736C139.557 212.736 139.941 212.64 140.197 212.528L140.533 213.888C140.037 214.048 139.445 214.208 138.805 214.208ZM145.783 217.568V205.2H147.287L147.431 206.16H147.479C148.247 205.52 149.207 204.976 150.183 204.976C152.423 204.976 153.671 206.752 153.671 209.456C153.671 212.48 151.863 214.208 149.879 214.208C149.095 214.208 148.311 213.856 147.559 213.216L147.607 214.72V217.568H145.783ZM149.527 212.688C150.807 212.688 151.767 211.552 151.767 209.488C151.767 207.648 151.175 206.512 149.703 206.512C149.015 206.512 148.359 206.864 147.607 207.584V211.888C148.295 212.48 148.983 212.688 149.527 212.688ZM155.861 214V205.2H157.365L157.509 206.784H157.557C158.181 205.648 159.109 204.976 160.053 204.976C160.485 204.976 160.773 205.04 161.045 205.168L160.709 206.768C160.405 206.672 160.181 206.624 159.829 206.624C159.109 206.624 158.245 207.12 157.685 208.512V214H155.861ZM165.756 214.208C163.58 214.208 161.612 212.528 161.612 209.616C161.612 206.672 163.58 204.976 165.756 204.976C167.932 204.976 169.9 206.672 169.9 209.616C169.9 212.528 167.932 214.208 165.756 214.208ZM165.756 212.704C167.148 212.704 168.012 211.472 168.012 209.616C168.012 207.744 167.148 206.496 165.756 206.496C164.38 206.496 163.516 207.744 163.516 209.616C163.516 211.472 164.38 212.704 165.756 212.704ZM172.064 217.568V205.2H173.568L173.712 206.16H173.76C174.528 205.52 175.488 204.976 176.464 204.976C178.704 204.976 179.952 206.752 179.952 209.456C179.952 212.48 178.144 214.208 176.16 214.208C175.376 214.208 174.592 213.856 173.84 213.216L173.888 214.72V217.568H172.064ZM175.808 212.688C177.088 212.688 178.048 211.552 178.048 209.488C178.048 207.648 177.456 206.512 175.984 206.512C175.296 206.512 174.64 206.864 173.888 207.584V211.888C174.576 212.48 175.264 212.688 175.808 212.688ZM185.662 214.208C183.486 214.208 181.518 212.528 181.518 209.616C181.518 206.672 183.486 204.976 185.662 204.976C187.838 204.976 189.806 206.672 189.806 209.616C189.806 212.528 187.838 214.208 185.662 214.208ZM185.662 212.704C187.054 212.704 187.918 211.472 187.918 209.616C187.918 207.744 187.054 206.496 185.662 206.496C184.286 206.496 183.422 207.744 183.422 209.616C183.422 211.472 184.286 212.704 185.662 212.704ZM194.307 214.208C193.091 214.208 191.843 213.696 190.995 212.992L191.859 211.808C192.643 212.432 193.411 212.816 194.355 212.816C195.411 212.816 195.907 212.304 195.907 211.632C195.907 210.832 194.915 210.48 193.955 210.112C192.787 209.664 191.443 209.04 191.443 207.552C191.443 206.08 192.627 204.976 194.563 204.976C195.747 204.976 196.707 205.456 197.427 206.016L196.563 207.152C195.955 206.704 195.331 206.384 194.595 206.384C193.635 206.384 193.187 206.864 193.187 207.472C193.187 208.224 194.099 208.512 195.059 208.864C196.291 209.328 197.651 209.872 197.651 211.536C197.651 213.008 196.483 214.208 194.307 214.208ZM201.691 214.208C200.171 214.208 199.099 213.216 199.099 211.664C199.099 209.776 200.699 208.8 204.363 208.4C204.347 207.376 203.979 206.48 202.683 206.48C201.755 206.48 200.891 206.896 200.139 207.376L199.451 206.128C200.363 205.552 201.595 204.976 203.003 204.976C205.195 204.976 206.203 206.368 206.203 208.704V214H204.699L204.539 212.992H204.491C203.691 213.68 202.747 214.208 201.691 214.208ZM202.251 212.752C203.019 212.752 203.643 212.384 204.363 211.728V209.568C201.755 209.888 200.875 210.544 200.875 211.536C200.875 212.4 201.467 212.752 202.251 212.752ZM210.638 214.208C209.31 214.208 208.814 213.36 208.814 211.936V201.248H210.638V212.032C210.638 212.528 210.862 212.704 211.086 212.704C211.166 212.704 211.23 212.704 211.39 212.672L211.63 214.064C211.406 214.144 211.086 214.208 210.638 214.208ZM215.964 214.208C214.748 214.208 213.5 213.696 212.652 212.992L213.516 211.808C214.299 212.432 215.068 212.816 216.012 212.816C217.068 212.816 217.564 212.304 217.564 211.632C217.564 210.832 216.572 210.48 215.612 210.112C214.444 209.664 213.1 209.04 213.1 207.552C213.1 206.08 214.284 204.976 216.22 204.976C217.404 204.976 218.364 205.456 219.084 206.016L218.22 207.152C217.612 206.704 216.988 206.384 216.252 206.384C215.292 206.384 214.844 206.864 214.844 207.472C214.844 208.224 215.756 208.512 216.716 208.864C217.948 209.328 219.308 209.872 219.308 211.536C219.308 213.008 218.14 214.208 215.964 214.208Z" fill="#F38733"/>
<circle cx="410" cy="150" r="150" fill="url(#paint8_radial_386_35012)"/>
<path d="M444.695 85H393.078V111.212H444.695V85Z" fill="url(#paint9_linear_386_35012)"/>
<path d="M439.489 89.5469H384.536V117.481H439.489V89.5469Z" fill="url(#paint10_linear_386_35012)"/>
<path d="M390.404 128.953L403.345 141.454L392.237 156.998L376.144 141.564L390.404 128.953Z" fill="url(#paint11_linear_386_35012)"/>
<path d="M390.406 128.953L425.379 122.281V128.953L411.815 131.739L428.055 135.405L443.965 128.22V135.369L427.578 144.863L401.88 143.544L399.717 146.55L385.273 133.499L390.406 128.953Z" fill="url(#paint12_linear_386_35012)"/>
<path d="M394.366 145.014L392.741 146.953L394.68 148.578L396.305 146.639L394.366 145.014Z" fill="white"/>
<path d="M391.108 148.905L389.483 150.844L391.422 152.468L393.047 150.529L391.108 148.905Z" fill="white"/>
<path d="M412.579 107.75C410.757 107.75 410.041 106.983 409.944 106H407.999C408.105 107.825 409.555 108.85 411.252 109.192V111H413.905V109.208C415.629 108.9 416.999 107.958 416.999 106.25C416.999 103.883 414.851 103.075 412.844 102.583C410.837 102.092 410.192 101.583 410.192 100.792C410.192 99.8833 411.084 99.25 412.579 99.25C414.152 99.25 414.736 99.9583 414.789 101H416.743C416.681 99.5667 415.752 98.25 413.905 97.825V96H411.252V97.8C409.537 98.15 408.158 99.2 408.158 100.808C408.158 102.733 409.847 103.692 412.313 104.25C414.524 104.75 414.966 105.483 414.966 106.258C414.966 106.833 414.532 107.75 412.579 107.75Z" fill="white"/>
<path d="M342.622 190V178.224H344.75L346.91 184.176C347.182 184.96 347.422 185.76 347.694 186.56H347.774C348.046 185.76 348.27 184.96 348.542 184.176L350.67 178.224H352.814V190H351.086V184.176C351.086 183.12 351.23 181.6 351.326 180.528H351.262L350.318 183.248L348.27 188.864H347.118L345.054 183.248L344.126 180.528H344.062C344.142 181.6 344.286 183.12 344.286 184.176V190H342.622ZM357.824 190.208C356.304 190.208 355.232 189.216 355.232 187.664C355.232 185.776 356.832 184.8 360.496 184.4C360.48 183.376 360.112 182.48 358.816 182.48C357.888 182.48 357.024 182.896 356.272 183.376L355.584 182.128C356.496 181.552 357.728 180.976 359.136 180.976C361.328 180.976 362.336 182.368 362.336 184.704V190H360.832L360.672 188.992H360.624C359.824 189.68 358.88 190.208 357.824 190.208ZM358.384 188.752C359.152 188.752 359.776 188.384 360.496 187.728V185.568C357.888 185.888 357.008 186.544 357.008 187.536C357.008 188.4 357.6 188.752 358.384 188.752ZM363.795 190L366.643 185.408L364.003 181.2H365.987L367.043 182.976C367.299 183.456 367.587 183.952 367.875 184.448H367.939C368.179 183.952 368.435 183.456 368.675 182.976L369.603 181.2H371.523L368.883 185.616L371.715 190H369.715L368.563 188.144C368.275 187.616 367.971 187.072 367.651 186.576H367.571C367.299 187.072 367.027 187.6 366.755 188.144L365.731 190H363.795ZM373.369 190V181.2H375.193V190H373.369ZM374.281 179.552C373.609 179.552 373.113 179.104 373.113 178.464C373.113 177.808 373.609 177.376 374.281 177.376C374.953 177.376 375.465 177.808 375.465 178.464C375.465 179.104 374.953 179.552 374.281 179.552ZM377.962 190V181.2H379.466L379.61 182.432H379.658C380.41 181.632 381.29 180.976 382.378 180.976C383.69 180.976 384.426 181.584 384.81 182.592C385.674 181.664 386.57 180.976 387.674 180.976C389.514 180.976 390.378 182.224 390.378 184.464V190H388.538V184.688C388.538 183.168 388.058 182.56 387.066 182.56C386.458 182.56 385.818 182.96 385.082 183.76V190H383.242V184.688C383.242 183.168 382.778 182.56 381.77 182.56C381.178 182.56 380.522 182.96 379.786 183.76V190H377.962ZM395.616 190.208C393.744 190.208 392.928 188.976 392.928 186.736V181.2H394.768V186.512C394.768 188.032 395.2 188.624 396.24 188.624C397.056 188.624 397.616 188.24 398.352 187.312V181.2H400.192V190H398.688L398.544 188.672H398.496C397.696 189.6 396.832 190.208 395.616 190.208ZM402.962 190V181.2H404.466L404.61 182.432H404.658C405.41 181.632 406.29 180.976 407.378 180.976C408.69 180.976 409.426 181.584 409.81 182.592C410.674 181.664 411.57 180.976 412.674 180.976C414.514 180.976 415.378 182.224 415.378 184.464V190H413.538V184.688C413.538 183.168 413.058 182.56 412.066 182.56C411.458 182.56 410.818 182.96 410.082 183.76V190H408.242V184.688C408.242 183.168 407.778 182.56 406.77 182.56C406.178 182.56 405.522 182.96 404.786 183.76V190H402.962ZM424.018 190.208C422.802 190.208 421.554 189.696 420.706 188.992L421.57 187.808C422.354 188.432 423.122 188.816 424.066 188.816C425.122 188.816 425.618 188.304 425.618 187.632C425.618 186.832 424.626 186.48 423.666 186.112C422.498 185.664 421.154 185.04 421.154 183.552C421.154 182.08 422.338 180.976 424.274 180.976C425.458 180.976 426.418 181.456 427.138 182.016L426.274 183.152C425.666 182.704 425.042 182.384 424.306 182.384C423.346 182.384 422.898 182.864 422.898 183.472C422.898 184.224 423.81 184.512 424.77 184.864C426.002 185.328 427.362 185.872 427.362 187.536C427.362 189.008 426.194 190.208 424.018 190.208ZM431.898 190.208C430.026 190.208 429.21 188.976 429.21 186.736V181.2H431.05V186.512C431.05 188.032 431.482 188.624 432.522 188.624C433.338 188.624 433.898 188.24 434.634 187.312V181.2H436.474V190H434.97L434.826 188.672H434.778C433.978 189.6 433.114 190.208 431.898 190.208ZM443.34 190.208C442.54 190.208 441.66 189.808 440.908 189.088H440.86L440.684 190H439.244V177.248H441.068V180.624L441.02 182.128C441.772 181.472 442.716 180.976 443.644 180.976C445.868 180.976 447.132 182.752 447.132 185.456C447.132 188.48 445.324 190.208 443.34 190.208ZM442.988 188.688C444.268 188.688 445.228 187.552 445.228 185.488C445.228 183.648 444.636 182.512 443.164 182.512C442.476 182.512 441.804 182.864 441.068 183.584V187.888C441.74 188.48 442.444 188.688 442.988 188.688ZM451.643 190.208C450.427 190.208 449.179 189.696 448.331 188.992L449.195 187.808C449.979 188.432 450.747 188.816 451.691 188.816C452.747 188.816 453.243 188.304 453.243 187.632C453.243 186.832 452.251 186.48 451.291 186.112C450.123 185.664 448.779 185.04 448.779 183.552C448.779 182.08 449.963 180.976 451.899 180.976C453.083 180.976 454.043 181.456 454.763 182.016L453.899 183.152C453.291 182.704 452.667 182.384 451.931 182.384C450.971 182.384 450.523 182.864 450.523 183.472C450.523 184.224 451.435 184.512 452.395 184.864C453.627 185.328 454.987 185.872 454.987 187.536C454.987 189.008 453.819 190.208 451.643 190.208ZM456.947 190V181.2H458.771V190H456.947ZM457.859 179.552C457.187 179.552 456.691 179.104 456.691 178.464C456.691 177.808 457.187 177.376 457.859 177.376C458.531 177.376 459.043 177.808 459.043 178.464C459.043 179.104 458.531 179.552 457.859 179.552ZM464.58 190.208C462.372 190.208 460.948 188.528 460.948 185.616C460.948 182.752 462.756 180.976 464.724 180.976C465.732 180.976 466.372 181.36 467.092 181.968L467.012 180.512V177.248H468.852V190H467.348L467.188 189.008H467.14C466.484 189.68 465.572 190.208 464.58 190.208ZM465.012 188.688C465.748 188.688 466.372 188.352 467.012 187.616V183.312C466.356 182.72 465.732 182.512 465.076 182.512C463.844 182.512 462.852 183.68 462.852 185.584C462.852 187.584 463.636 188.688 465.012 188.688ZM478.723 181.2L475.491 190.528C474.803 192.416 473.875 193.68 472.019 193.68C471.571 193.68 471.219 193.616 470.915 193.504L471.267 192.064C471.427 192.112 471.683 192.192 471.907 192.192C472.867 192.192 473.427 191.488 473.747 190.544L473.923 189.936L470.435 181.2H472.323L473.955 185.728C474.211 186.512 474.483 187.392 474.755 188.208H474.835L475.523 185.728L476.931 181.2H478.723ZM331.535 214.208C330.015 214.208 328.943 213.216 328.943 211.664C328.943 209.776 330.543 208.8 334.207 208.4C334.191 207.376 333.823 206.48 332.527 206.48C331.599 206.48 330.735 206.896 329.983 207.376L329.295 206.128C330.207 205.552 331.439 204.976 332.847 204.976C335.039 204.976 336.047 206.368 336.047 208.704V214H334.543L334.383 212.992H334.335C333.535 213.68 332.591 214.208 331.535 214.208ZM332.095 212.752C332.863 212.752 333.487 212.384 334.207 211.728V209.568C331.599 209.888 330.719 210.544 330.719 211.536C330.719 212.4 331.311 212.752 332.095 212.752ZM338.658 214V205.2H340.162L340.306 206.432H340.354C341.106 205.632 341.986 204.976 343.074 204.976C344.386 204.976 345.122 205.584 345.506 206.592C346.37 205.664 347.266 204.976 348.37 204.976C350.21 204.976 351.074 206.224 351.074 208.464V214H349.234V208.688C349.234 207.168 348.754 206.56 347.762 206.56C347.154 206.56 346.514 206.96 345.778 207.76V214H343.938V208.688C343.938 207.168 343.474 206.56 342.466 206.56C341.874 206.56 341.218 206.96 340.482 207.76V214H338.658ZM357.256 214.208C355.08 214.208 353.112 212.528 353.112 209.616C353.112 206.672 355.08 204.976 357.256 204.976C359.432 204.976 361.4 206.672 361.4 209.616C361.4 212.528 359.432 214.208 357.256 214.208ZM357.256 212.704C358.648 212.704 359.512 211.472 359.512 209.616C359.512 207.744 358.648 206.496 357.256 206.496C355.88 206.496 355.016 207.744 355.016 209.616C355.016 211.472 355.88 212.704 357.256 212.704ZM366.14 214.208C364.268 214.208 363.452 212.976 363.452 210.736V205.2H365.292V210.512C365.292 212.032 365.724 212.624 366.764 212.624C367.58 212.624 368.14 212.24 368.876 211.312V205.2H370.716V214H369.212L369.068 212.672H369.02C368.22 213.6 367.356 214.208 366.14 214.208ZM373.486 214V205.2H374.99L375.134 206.416H375.182C375.998 205.632 376.894 204.976 378.094 204.976C379.966 204.976 380.798 206.224 380.798 208.464V214H378.958V208.688C378.958 207.168 378.51 206.56 377.47 206.56C376.654 206.56 376.094 206.976 375.31 207.76V214H373.486ZM386.43 214.208C384.446 214.208 383.758 212.976 383.758 211.12V206.672H382.478V205.296L383.838 205.2L384.046 202.768H385.598V205.2H387.886V206.672H385.598V211.136C385.598 212.192 385.966 212.736 386.878 212.736C387.182 212.736 387.566 212.64 387.822 212.528L388.158 213.888C387.662 214.048 387.07 214.208 386.43 214.208ZM396.928 214.208C394.752 214.208 392.784 212.528 392.784 209.616C392.784 206.672 394.752 204.976 396.928 204.976C399.104 204.976 401.072 206.672 401.072 209.616C401.072 212.528 399.104 214.208 396.928 214.208ZM396.928 212.704C398.32 212.704 399.184 211.472 399.184 209.616C399.184 207.744 398.32 206.496 396.928 206.496C395.552 206.496 394.688 207.744 394.688 209.616C394.688 211.472 395.552 212.704 396.928 212.704ZM407.829 201.344L407.461 202.72C407.141 202.576 406.805 202.496 406.501 202.496C405.717 202.496 405.333 203.008 405.333 204.08V205.2H407.109V206.672H405.333V214H403.493V206.672H402.293V205.296L403.493 205.2V204.096C403.493 202.288 404.309 201.04 406.277 201.04C406.869 201.04 407.429 201.168 407.829 201.344ZM412.458 214V202.224H414.362L418.266 209.136L419.498 211.632H419.578C419.482 210.416 419.338 208.992 419.338 207.712V202.224H421.098V214H419.194L415.29 207.056L414.058 204.592H413.978C414.074 205.808 414.218 207.168 414.218 208.448V214H412.458ZM426.608 214V203.776H423.152V202.224H431.936V203.776H428.464V214H426.608ZM440.246 203.744L439.286 204.816C438.63 204.192 438.086 203.84 437.174 203.84C436.15 203.84 435.51 204.416 435.51 205.392C435.51 207.728 440.454 207.184 440.454 210.912C440.454 212.624 439.43 213.84 437.67 214.144V215.968H436.39V214.192C435.27 214.08 434.086 213.536 433.286 212.816L434.118 211.552C434.934 212.224 435.814 212.704 436.822 212.704C438.07 212.704 438.678 212.08 438.678 211.04C438.678 208.448 433.734 208.896 433.734 205.472C433.734 203.808 434.774 202.64 436.39 202.368V200.56H437.67V202.352C438.822 202.496 439.59 203.056 440.246 203.744ZM445.835 214.208C443.979 214.208 442.811 213.456 441.979 212.64L442.859 211.44C443.531 212.112 444.379 212.704 445.611 212.704C446.939 212.704 447.947 211.76 447.947 210.192C447.947 208.624 447.051 207.728 445.707 207.728C444.955 207.728 444.507 207.952 443.819 208.4L442.923 207.808L443.275 202.224H449.243V203.776H444.875L444.603 206.8C445.099 206.544 445.579 206.384 446.219 206.384C448.187 206.384 449.803 207.552 449.803 210.128C449.803 212.736 447.899 214.208 445.835 214.208ZM455.232 214.208C452.912 214.208 451.424 212.16 451.424 208.064C451.424 203.984 452.912 202 455.232 202C457.536 202 459.04 204 459.04 208.064C459.04 212.16 457.536 214.208 455.232 214.208ZM455.232 212.752C456.432 212.752 457.28 211.472 457.28 208.064C457.28 204.688 456.432 203.456 455.232 203.456C454.032 203.456 453.184 204.688 453.184 208.064C453.184 211.472 454.032 212.752 455.232 212.752ZM461.061 217.2L460.645 216.16C461.733 215.712 462.373 214.912 462.389 213.968C462.325 213.984 462.277 213.984 462.213 213.984C461.557 213.984 460.981 213.568 460.981 212.8C460.981 212.08 461.557 211.616 462.261 211.616C463.157 211.616 463.685 212.368 463.685 213.6C463.685 215.28 462.709 216.576 461.061 217.2ZM469.123 214.208C466.803 214.208 465.315 212.16 465.315 208.064C465.315 203.984 466.803 202 469.123 202C471.427 202 472.931 204 472.931 208.064C472.931 212.16 471.427 214.208 469.123 214.208ZM469.123 212.752C470.323 212.752 471.171 211.472 471.171 208.064C471.171 204.688 470.323 203.456 469.123 203.456C467.923 203.456 467.075 204.688 467.075 208.064C467.075 211.472 467.923 212.752 469.123 212.752ZM478.248 214.208C475.928 214.208 474.44 212.16 474.44 208.064C474.44 203.984 475.928 202 478.248 202C480.552 202 482.056 204 482.056 208.064C482.056 212.16 480.552 214.208 478.248 214.208ZM478.248 212.752C479.448 212.752 480.296 211.472 480.296 208.064C480.296 204.688 479.448 203.456 478.248 203.456C477.048 203.456 476.2 204.688 476.2 208.064C476.2 211.472 477.048 212.752 478.248 212.752ZM487.373 214.208C485.053 214.208 483.565 212.16 483.565 208.064C483.565 203.984 485.053 202 487.373 202C489.677 202 491.181 204 491.181 208.064C491.181 212.16 489.677 214.208 487.373 214.208ZM487.373 212.752C488.573 212.752 489.421 211.472 489.421 208.064C489.421 204.688 488.573 203.456 487.373 203.456C486.173 203.456 485.325 204.688 485.325 208.064C485.325 211.472 486.173 212.752 487.373 212.752Z" fill="#F38733"/>
<circle cx="670" cy="150" r="150" fill="url(#paint13_radial_386_35012)"/>
<path d="M684.384 126.848H655.301V86H676.471L684.384 91.7958V126.848Z" fill="url(#paint14_linear_386_35012)"/>
<path d="M708.086 108.378L704.685 124.724L688.65 140.758V153.423H671.472V136.244H671.473L687.991 110.668L692.503 115.215L686.256 125.279L698.507 117.991L703.227 103.484L708.086 108.378Z" fill="url(#paint15_linear_386_35012)"/>
<path d="M641.453 117.991L653.704 125.279L647.457 115.215L652.003 110.668L668.522 136.246H668.52V153.423H651.341V140.755L635.31 124.724L631.874 108.378L636.768 103.484L641.453 117.991Z" fill="url(#paint16_linear_386_35012)"/>
<path d="M668.518 156.243H648.806L651.339 144.859H668.518V156.243Z" fill="url(#paint17_linear_386_35012)"/>
<path d="M691.149 156.243H671.472V144.859H688.616L691.149 156.243Z" fill="url(#paint18_linear_386_35012)"/>
<path d="M669.98 115.778L661.407 107.205C659.221 105.019 659.221 101.479 661.407 99.3273C663.594 97.1409 667.099 97.1409 669.285 99.3273L669.98 99.9867L670.674 99.3273C672.86 97.1409 676.365 97.1409 678.552 99.3273C680.738 101.514 680.738 105.019 678.552 107.205L669.98 115.778Z" fill="white"/>
<path d="M664.929 100.417L663.089 102.258L664.929 104.098L666.77 102.258L664.929 100.417Z" fill="url(#paint19_linear_386_35012)"/>
<path d="M666.506 149.336H664.111V151.731H666.506V149.336Z" fill="white"/>
<path d="M675.806 149.336H673.411V151.731H675.806V149.336Z" fill="white"/>
<path d="M676.467 86L684.38 91.7958L677.439 93.2534L676.467 86Z" fill="url(#paint20_linear_386_35012)"/>
<path d="M596.341 190V178.224H603.317V179.776H598.197V183.376H602.549V184.928H598.197V190H596.341ZM608.498 190.208C606.322 190.208 604.354 188.528 604.354 185.616C604.354 182.672 606.322 180.976 608.498 180.976C610.674 180.976 612.642 182.672 612.642 185.616C612.642 188.528 610.674 190.208 608.498 190.208ZM608.498 188.704C609.89 188.704 610.754 187.472 610.754 185.616C610.754 183.744 609.89 182.496 608.498 182.496C607.122 182.496 606.258 183.744 606.258 185.616C606.258 187.472 607.122 188.704 608.498 188.704ZM614.806 190V181.2H616.31L616.454 182.784H616.502C617.126 181.648 618.054 180.976 618.998 180.976C619.43 180.976 619.718 181.04 619.99 181.168L619.654 182.768C619.35 182.672 619.126 182.624 618.774 182.624C618.054 182.624 617.19 183.12 616.63 184.512V190H614.806ZM624.947 190V181.2H626.451L626.595 182.432H626.643C627.395 181.632 628.275 180.976 629.363 180.976C630.675 180.976 631.411 181.584 631.795 182.592C632.659 181.664 633.555 180.976 634.659 180.976C636.499 180.976 637.363 182.224 637.363 184.464V190H635.523V184.688C635.523 183.168 635.043 182.56 634.051 182.56C633.443 182.56 632.803 182.96 632.067 183.76V190H630.227V184.688C630.227 183.168 629.763 182.56 628.755 182.56C628.163 182.56 627.507 182.96 626.771 183.76V190H624.947ZM642.105 190.208C640.585 190.208 639.513 189.216 639.513 187.664C639.513 185.776 641.113 184.8 644.777 184.4C644.761 183.376 644.393 182.48 643.097 182.48C642.169 182.48 641.305 182.896 640.553 183.376L639.865 182.128C640.777 181.552 642.009 180.976 643.417 180.976C645.609 180.976 646.617 182.368 646.617 184.704V190H645.113L644.953 188.992H644.905C644.105 189.68 643.161 190.208 642.105 190.208ZM642.665 188.752C643.433 188.752 644.057 188.384 644.777 187.728V185.568C642.169 185.888 641.289 186.544 641.289 187.536C641.289 188.4 641.881 188.752 642.665 188.752ZM649.228 190V177.248H651.02V185.472H651.068L654.524 181.2H656.556L653.564 184.768L656.892 190H654.892L652.508 186.016L651.02 187.728V190H649.228ZM658.431 190V181.2H660.255V190H658.431ZM659.343 179.552C658.671 179.552 658.175 179.104 658.175 178.464C658.175 177.808 658.671 177.376 659.343 177.376C660.015 177.376 660.527 177.808 660.527 178.464C660.527 179.104 660.015 179.552 659.343 179.552ZM663.025 190V181.2H664.529L664.673 182.416H664.721C665.537 181.632 666.433 180.976 667.633 180.976C669.505 180.976 670.337 182.224 670.337 184.464V190H668.497V184.688C668.497 183.168 668.049 182.56 667.009 182.56C666.193 182.56 665.633 182.976 664.849 183.76V190H663.025ZM676.017 193.952C673.905 193.952 672.369 193.168 672.369 191.632C672.369 190.896 672.833 190.208 673.649 189.712V189.632C673.201 189.36 672.849 188.896 672.849 188.176C672.849 187.488 673.345 186.896 673.825 186.544V186.48C673.233 186.016 672.673 185.184 672.673 184.144C672.673 182.144 674.257 180.976 676.081 180.976C676.577 180.976 677.025 181.072 677.361 181.2H680.481V182.576H678.801C679.137 182.928 679.377 183.52 679.377 184.192C679.377 186.112 677.921 187.216 676.081 187.216C675.681 187.216 675.233 187.12 674.849 186.944C674.561 187.2 674.369 187.456 674.369 187.872C674.369 188.4 674.721 188.736 675.841 188.736H677.457C679.537 188.736 680.625 189.376 680.625 190.88C680.625 192.576 678.833 193.952 676.017 193.952ZM676.081 186.032C676.993 186.032 677.745 185.312 677.745 184.144C677.745 182.96 677.009 182.272 676.081 182.272C675.153 182.272 674.417 182.944 674.417 184.144C674.417 185.312 675.169 186.032 676.081 186.032ZM676.289 192.736C677.825 192.736 678.849 191.984 678.849 191.168C678.849 190.432 678.273 190.208 677.201 190.208H675.873C675.457 190.208 675.057 190.16 674.689 190.08C674.161 190.464 673.937 190.912 673.937 191.36C673.937 192.224 674.833 192.736 676.289 192.736ZM685.853 193.568V181.2H687.357L687.501 182.16H687.549C688.317 181.52 689.277 180.976 690.253 180.976C692.493 180.976 693.741 182.752 693.741 185.456C693.741 188.48 691.933 190.208 689.949 190.208C689.165 190.208 688.381 189.856 687.629 189.216L687.677 190.72V193.568H685.853ZM689.597 188.688C690.877 188.688 691.837 187.552 691.837 185.488C691.837 183.648 691.245 182.512 689.773 182.512C689.085 182.512 688.429 182.864 687.677 183.584V187.888C688.365 188.48 689.053 188.688 689.597 188.688ZM699.451 190.208C697.275 190.208 695.307 188.528 695.307 185.616C695.307 182.672 697.275 180.976 699.451 180.976C701.627 180.976 703.595 182.672 703.595 185.616C703.595 188.528 701.627 190.208 699.451 190.208ZM699.451 188.704C700.843 188.704 701.707 187.472 701.707 185.616C701.707 183.744 700.843 182.496 699.451 182.496C698.075 182.496 697.211 183.744 697.211 185.616C697.211 187.472 698.075 188.704 699.451 188.704ZM708.096 190.208C706.88 190.208 705.632 189.696 704.784 188.992L705.648 187.808C706.432 188.432 707.2 188.816 708.144 188.816C709.2 188.816 709.696 188.304 709.696 187.632C709.696 186.832 708.704 186.48 707.744 186.112C706.576 185.664 705.232 185.04 705.232 183.552C705.232 182.08 706.416 180.976 708.352 180.976C709.536 180.976 710.496 181.456 711.216 182.016L710.352 183.152C709.744 182.704 709.12 182.384 708.384 182.384C707.424 182.384 706.976 182.864 706.976 183.472C706.976 184.224 707.888 184.512 708.848 184.864C710.08 185.328 711.44 185.872 711.44 187.536C711.44 189.008 710.272 190.208 708.096 190.208ZM713.4 190V181.2H715.224V190H713.4ZM714.312 179.552C713.64 179.552 713.144 179.104 713.144 178.464C713.144 177.808 713.64 177.376 714.312 177.376C714.984 177.376 715.496 177.808 715.496 178.464C715.496 179.104 714.984 179.552 714.312 179.552ZM720.954 190.208C718.97 190.208 718.282 188.976 718.282 187.12V182.672H717.002V181.296L718.362 181.2L718.57 178.768H720.122V181.2H722.41V182.672H720.122V187.136C720.122 188.192 720.49 188.736 721.402 188.736C721.706 188.736 722.09 188.64 722.346 188.528L722.682 189.888C722.186 190.048 721.594 190.208 720.954 190.208ZM724.337 190V181.2H726.161V190H724.337ZM725.249 179.552C724.577 179.552 724.081 179.104 724.081 178.464C724.081 177.808 724.577 177.376 725.249 177.376C725.921 177.376 726.433 177.808 726.433 178.464C726.433 179.104 725.921 179.552 725.249 179.552ZM730.867 190L727.747 181.2H729.635L731.139 185.936C731.379 186.8 731.651 187.696 731.907 188.56H731.971C732.227 187.696 732.499 186.8 732.739 185.936L734.243 181.2H736.035L732.995 190H730.867ZM741.22 190.208C738.836 190.208 736.932 188.512 736.932 185.616C736.932 182.752 738.884 180.976 740.948 180.976C743.284 180.976 744.532 182.656 744.532 185.152C744.532 185.504 744.5 185.872 744.452 186.08H738.74C738.884 187.76 739.94 188.768 741.46 188.768C742.244 188.768 742.916 188.528 743.556 188.112L744.196 189.28C743.38 189.824 742.372 190.208 741.22 190.208ZM738.724 184.816H742.948C742.948 183.296 742.26 182.416 740.98 182.416C739.876 182.416 738.9 183.264 738.724 184.816ZM641.056 214V205.2H642.88V214H641.056ZM641.968 203.552C641.296 203.552 640.8 203.104 640.8 202.464C640.8 201.808 641.296 201.376 641.968 201.376C642.64 201.376 643.152 201.808 643.152 202.464C643.152 203.104 642.64 203.552 641.968 203.552ZM645.65 214V205.2H647.154L647.298 206.432H647.346C648.098 205.632 648.978 204.976 650.066 204.976C651.378 204.976 652.114 205.584 652.498 206.592C653.362 205.664 654.258 204.976 655.362 204.976C657.202 204.976 658.066 206.224 658.066 208.464V214H656.226V208.688C656.226 207.168 655.746 206.56 654.754 206.56C654.146 206.56 653.506 206.96 652.77 207.76V214H650.93V208.688C650.93 207.168 650.466 206.56 649.458 206.56C648.866 206.56 648.21 206.96 647.474 207.76V214H645.65ZM660.728 217.568V205.2H662.232L662.376 206.16H662.424C663.192 205.52 664.152 204.976 665.128 204.976C667.368 204.976 668.616 206.752 668.616 209.456C668.616 212.48 666.808 214.208 664.824 214.208C664.04 214.208 663.256 213.856 662.504 213.216L662.552 214.72V217.568H660.728ZM664.472 212.688C665.752 212.688 666.712 211.552 666.712 209.488C666.712 207.648 666.12 206.512 664.648 206.512C663.96 206.512 663.304 206.864 662.552 207.584V211.888C663.24 212.48 663.928 212.688 664.472 212.688ZM672.652 214.208C671.132 214.208 670.06 213.216 670.06 211.664C670.06 209.776 671.66 208.8 675.324 208.4C675.308 207.376 674.94 206.48 673.644 206.48C672.716 206.48 671.852 206.896 671.1 207.376L670.412 206.128C671.324 205.552 672.556 204.976 673.964 204.976C676.156 204.976 677.164 206.368 677.164 208.704V214H675.66L675.5 212.992H675.452C674.652 213.68 673.708 214.208 672.652 214.208ZM673.212 212.752C673.98 212.752 674.604 212.384 675.324 211.728V209.568C672.716 209.888 671.836 210.544 671.836 211.536C671.836 212.4 672.428 212.752 673.212 212.752ZM683.359 214.208C680.975 214.208 679.151 212.528 679.151 209.616C679.151 206.672 681.183 204.976 683.503 204.976C684.623 204.976 685.439 205.424 686.079 205.984L685.167 207.184C684.687 206.752 684.191 206.496 683.583 206.496C682.111 206.496 681.055 207.744 681.055 209.616C681.055 211.472 682.063 212.704 683.535 212.704C684.271 212.704 684.927 212.352 685.455 211.904L686.207 213.12C685.407 213.84 684.367 214.208 683.359 214.208ZM690.829 214.208C688.845 214.208 688.157 212.976 688.157 211.12V206.672H686.877V205.296L688.237 205.2L688.445 202.768H689.997V205.2H692.285V206.672H689.997V211.136C689.997 212.192 690.365 212.736 691.277 212.736C691.581 212.736 691.965 212.64 692.221 212.528L692.557 213.888C692.061 214.048 691.469 214.208 690.829 214.208ZM696.424 214.208C695.208 214.208 693.96 213.696 693.112 212.992L693.976 211.808C694.76 212.432 695.528 212.816 696.472 212.816C697.528 212.816 698.024 212.304 698.024 211.632C698.024 210.832 697.032 210.48 696.072 210.112C694.904 209.664 693.56 209.04 693.56 207.552C693.56 206.08 694.744 204.976 696.68 204.976C697.864 204.976 698.824 205.456 699.544 206.016L698.68 207.152C698.072 206.704 697.448 206.384 696.712 206.384C695.752 206.384 695.304 206.864 695.304 207.472C695.304 208.224 696.216 208.512 697.176 208.864C698.408 209.328 699.768 209.872 699.768 211.536C699.768 213.008 698.6 214.208 696.424 214.208Z" fill="#F38733"/>
<defs>
<radialGradient id="paint0_radial_386_35012" cx="0" cy="0" r="1" gradientUnits="userSpaceOnUse" gradientTransform="translate(150 150) rotate(90) scale(1063.75)">
<stop offset="0.0645686" stop-color="white" stop-opacity="0.5"/>
<stop offset="0.287905" stop-color="#F38733"/>
</radialGradient>
<linearGradient id="paint1_linear_386_35012" x1="143.305" y1="72.8355" x2="143.305" y2="113.69" gradientUnits="userSpaceOnUse">
<stop stop-color="#FFC56D"/>
<stop offset="1" stop-color="#F56700"/>
</linearGradient>
<linearGradient id="paint2_linear_386_35012" x1="151.781" y1="129.117" x2="151.781" y2="187.075" gradientUnits="userSpaceOnUse">
<stop stop-color="#FBEABE"/>
<stop offset="0.505668" stop-color="#FEA03D"/>
</linearGradient>
<linearGradient id="paint3_linear_386_35012" x1="150.838" y1="117.094" x2="150.838" y2="135.225" gradientUnits="userSpaceOnUse">
<stop stop-color="#FBEABE"/>
<stop offset="0.505668" stop-color="#FEA03D"/>
</linearGradient>
<linearGradient id="paint4_linear_386_35012" x1="130.748" y1="129.117" x2="130.748" y2="187.075" gradientUnits="userSpaceOnUse">
<stop stop-color="#FBEABE"/>
<stop offset="0.505668" stop-color="#FEA03D"/>
</linearGradient>
<linearGradient id="paint5_linear_386_35012" x1="129.809" y1="117.094" x2="129.809" y2="135.225" gradientUnits="userSpaceOnUse">
<stop stop-color="#FBEABE"/>
<stop offset="0.505668" stop-color="#FEA03D"/>
</linearGradient>
<linearGradient id="paint6_linear_386_35012" x1="172.824" y1="129.117" x2="172.824" y2="187.075" gradientUnits="userSpaceOnUse">
<stop stop-color="#FBEABE"/>
<stop offset="0.505668" stop-color="#FEA03D"/>
</linearGradient>
<linearGradient id="paint7_linear_386_35012" x1="171.714" y1="117.094" x2="171.714" y2="135.225" gradientUnits="userSpaceOnUse">
<stop stop-color="#FBEABE"/>
<stop offset="0.505668" stop-color="#FEA03D"/>
</linearGradient>
<radialGradient id="paint8_radial_386_35012" cx="0" cy="0" r="1" gradientUnits="userSpaceOnUse" gradientTransform="translate(410 150) rotate(90) scale(1063.75)">
<stop offset="0.0645686" stop-color="white" stop-opacity="0.5"/>
<stop offset="0.287905" stop-color="#F38733"/>
</radialGradient>
<linearGradient id="paint9_linear_386_35012" x1="424.313" y1="85" x2="424.313" y2="138.699" gradientUnits="userSpaceOnUse">
<stop stop-color="#FBEABE"/>
<stop offset="0.64627" stop-color="#FEA03D"/>
</linearGradient>
<linearGradient id="paint10_linear_386_35012" x1="405.143" y1="79.0423" x2="405.143" y2="117.481" gradientUnits="userSpaceOnUse">
<stop stop-color="#FFC56D"/>
<stop offset="1" stop-color="#F56700"/>
</linearGradient>
<linearGradient id="paint11_linear_386_35012" x1="386.344" y1="118.407" x2="386.344" y2="156.998" gradientUnits="userSpaceOnUse">
<stop stop-color="#FFC56D"/>
<stop offset="1" stop-color="#F56700"/>
</linearGradient>
<linearGradient id="paint12_linear_386_35012" x1="420.79" y1="122.281" x2="420.79" y2="172" gradientUnits="userSpaceOnUse">
<stop stop-color="#FBEABE"/>
<stop offset="0.64627" stop-color="#FEA03D"/>
</linearGradient>
<radialGradient id="paint13_radial_386_35012" cx="0" cy="0" r="1" gradientUnits="userSpaceOnUse" gradientTransform="translate(670 150) rotate(90) scale(1063.75)">
<stop offset="0.0645686" stop-color="white" stop-opacity="0.5"/>
<stop offset="0.287905" stop-color="#F38733"/>
</radialGradient>
<linearGradient id="paint14_linear_386_35012" x1="666.207" y1="70.6394" x2="666.207" y2="126.848" gradientUnits="userSpaceOnUse">
<stop stop-color="#FFC56D"/>
<stop offset="1" stop-color="#F56700"/>
</linearGradient>
<linearGradient id="paint15_linear_386_35012" x1="693.628" y1="103.484" x2="693.628" y2="168.998" gradientUnits="userSpaceOnUse">
<stop offset="0.213402" stop-color="#FBEABE"/>
<stop offset="1" stop-color="#FEA03D"/>
</linearGradient>
<linearGradient id="paint16_linear_386_35012" x1="654.051" y1="103.484" x2="654.051" y2="168.998" gradientUnits="userSpaceOnUse">
<stop offset="0.213402" stop-color="#FBEABE"/>
<stop offset="1" stop-color="#FEA03D"/>
</linearGradient>
<linearGradient id="paint17_linear_386_35012" x1="656.198" y1="140.579" x2="656.198" y2="156.243" gradientUnits="userSpaceOnUse">
<stop stop-color="#FFC56D"/>
<stop offset="1" stop-color="#F56700"/>
</linearGradient>
<linearGradient id="paint18_linear_386_35012" x1="678.851" y1="140.579" x2="678.851" y2="156.243" gradientUnits="userSpaceOnUse">
<stop stop-color="#FFC56D"/>
<stop offset="1" stop-color="#F56700"/>
</linearGradient>
<linearGradient id="paint19_linear_386_35012" x1="664.203" y1="101.144" x2="664.203" y2="107.002" gradientUnits="userSpaceOnUse">
<stop stop-color="#FBEABE"/>
<stop offset="1" stop-color="#FEA03D"/>
</linearGradient>
<linearGradient id="paint20_linear_386_35012" x1="681.255" y1="86" x2="681.255" y2="100.86" gradientUnits="userSpaceOnUse">
<stop stop-color="#FBEABE"/>
<stop offset="1" stop-color="#FEA03D"/>
</linearGradient>
</defs>
</svg>
