<svg width="568" height="424" viewBox="0 0 568 424" fill="none" xmlns="http://www.w3.org/2000/svg">
<g clip-path="url(#clip0_338_33900)">
<rect width="568" height="424" fill="white"/>
<mask id="path-1-inside-1_338_33900" fill="white">
<path d="M0 366H186.667V402H0V366Z"/>
</mask>
<path d="M0 366V367H186.667V366V365H0V366Z" fill="#D1D1D1" mask="url(#path-1-inside-1_338_33900)"/>
<path d="M70.96 391V389.784H73.568V381.368H71.488V380.424C72.528 380.248 73.28 379.976 73.92 379.592H75.04V389.784H77.392V391H70.96ZM80.027 391V379.256H83.515C85.899 379.256 87.547 380.072 87.547 382.136C87.547 383.304 86.923 384.328 85.835 384.68V384.76C87.227 385.032 88.219 385.96 88.219 387.56C88.219 389.864 86.395 391 83.771 391H80.027ZM81.515 384.264H83.259C85.275 384.264 86.091 383.512 86.091 382.328C86.091 380.952 85.147 380.44 83.323 380.44H81.515V384.264ZM81.515 389.816H83.563C85.579 389.816 86.763 389.096 86.763 387.512C86.763 386.056 85.611 385.384 83.563 385.384H81.515V389.816ZM93.9928 391V382.312H95.1928L95.3208 383.56H95.3688C96.2008 382.744 97.0968 382.088 98.2808 382.088C100.105 382.088 100.937 383.272 100.937 385.496V391H99.4808V385.688C99.4808 384.056 98.9848 383.368 97.8328 383.368C96.9368 383.368 96.3288 383.816 95.4488 384.696V391H93.9928ZM103.774 391V382.312H104.974L105.102 383.576H105.15C105.902 382.744 106.814 382.088 107.854 382.088C109.182 382.088 109.902 382.728 110.254 383.752C111.15 382.776 112.062 382.088 113.118 382.088C114.91 382.088 115.758 383.272 115.758 385.496V391H114.302V385.688C114.302 384.056 113.79 383.368 112.686 383.368C112.014 383.368 111.31 383.8 110.494 384.696V391H109.038V385.688C109.038 384.056 108.526 383.368 107.422 383.368C106.766 383.368 106.03 383.8 105.23 384.696V391H103.774Z" fill="#6D6D6D"/>
<mask id="path-4-inside-2_338_33900" fill="white">
<path d="M186.667 366H373.333V402H186.667V366Z"/>
</mask>
<path d="M186.667 366V367H373.333V366V365H186.667V366Z" fill="#D1D1D1" mask="url(#path-4-inside-2_338_33900)"/>
<path d="M259.572 391V389.784H262.18V381.368H260.1V380.424C261.14 380.248 261.892 379.976 262.532 379.592H263.652V389.784H266.004V391H259.572ZM273.071 391.208C270.159 391.208 267.967 388.952 267.967 385.144C267.967 381.352 270.191 379.048 273.167 379.048C274.591 379.048 275.711 379.752 276.383 380.504L275.583 381.464C274.975 380.808 274.191 380.344 273.183 380.344C270.959 380.344 269.487 382.168 269.487 385.096C269.487 388.056 270.895 389.912 273.135 389.912C274.255 389.912 275.103 389.416 275.855 388.6L276.671 389.528C275.743 390.6 274.591 391.208 273.071 391.208ZM282.292 391V382.312H283.492L283.62 383.56H283.668C284.5 382.744 285.396 382.088 286.58 382.088C288.404 382.088 289.236 383.272 289.236 385.496V391H287.78V385.688C287.78 384.056 287.284 383.368 286.132 383.368C285.236 383.368 284.628 383.816 283.748 384.696V391H282.292ZM292.074 391V382.312H293.274L293.402 383.576H293.45C294.202 382.744 295.114 382.088 296.154 382.088C297.482 382.088 298.202 382.728 298.554 383.752C299.45 382.776 300.362 382.088 301.418 382.088C303.21 382.088 304.058 383.272 304.058 385.496V391H302.602V385.688C302.602 384.056 302.09 383.368 300.986 383.368C300.314 383.368 299.61 383.8 298.794 384.696V391H297.338V385.688C297.338 384.056 296.826 383.368 295.722 383.368C295.066 383.368 294.33 383.8 293.53 384.696V391H292.074Z" fill="#6D6D6D"/>
<mask id="path-7-inside-3_338_33900" fill="white">
<path d="M373.333 366H560V402H373.333V366Z"/>
</mask>
<path d="M373.333 366V367H560V366V365H373.333V366Z" fill="#D1D1D1" mask="url(#path-7-inside-3_338_33900)"/>
<path d="M444.059 391V389.784H446.667V381.368H444.587V380.424C445.627 380.248 446.379 379.976 447.019 379.592H448.139V389.784H450.491V391H444.059ZM453.126 391V379.256H456.07C459.67 379.256 461.606 381.368 461.606 385.096C461.606 388.808 459.67 391 456.134 391H453.126ZM454.614 389.784H455.942C458.71 389.784 460.07 388.056 460.07 385.096C460.07 382.12 458.71 380.472 455.942 380.472H454.614V389.784ZM467.56 391V382.312H468.76L468.888 383.56H468.936C469.768 382.744 470.664 382.088 471.848 382.088C473.672 382.088 474.504 383.272 474.504 385.496V391H473.048V385.688C473.048 384.056 472.552 383.368 471.4 383.368C470.504 383.368 469.896 383.816 469.016 384.696V391H467.56ZM477.342 391V382.312H478.542L478.67 383.576H478.718C479.47 382.744 480.382 382.088 481.422 382.088C482.75 382.088 483.47 382.728 483.822 383.752C484.718 382.776 485.63 382.088 486.686 382.088C488.478 382.088 489.326 383.272 489.326 385.496V391H487.87V385.688C487.87 384.056 487.358 383.368 486.254 383.368C485.582 383.368 484.878 383.8 484.062 384.696V391H482.606V385.688C482.606 384.056 482.094 383.368 480.99 383.368C480.334 383.368 479.598 383.8 478.798 384.696V391H477.342Z" fill="#6D6D6D"/>
<rect x="121" y="229" width="131" height="2" fill="#E7E7E7"/>
<rect x="200" y="192" width="239" height="2" fill="#E7E7E7"/>
<rect x="386" y="155" width="53" height="2" fill="#E7E7E7"/>
<path d="M65 235C65 232.239 67.2386 230 70 230H116C118.761 230 121 232.239 121 235V366H65V235Z" fill="url(#paint0_linear_338_33900)"/>
<rect x="252" y="230" width="56" height="136" fill="url(#paint1_linear_338_33900)"/>
<path d="M252 198C252 195.239 254.239 193 257 193H303C305.761 193 308 195.239 308 198V230H252V198Z" fill="url(#paint2_linear_338_33900)"/>
<path d="M439 161C439 158.239 441.239 156 444 156H490C492.761 156 495 158.239 495 161V193H439V161Z" fill="url(#paint3_linear_338_33900)"/>
<rect x="439" y="193" width="56" height="173" fill="url(#paint4_linear_338_33900)"/>
<path d="M155.754 124.027H158.957C159.777 124.027 160.448 123.884 160.969 123.598C161.503 123.298 161.9 122.882 162.16 122.348C162.421 121.801 162.551 121.156 162.551 120.414C162.551 119.841 162.427 119.314 162.18 118.832C161.945 118.35 161.581 117.966 161.086 117.68C160.591 117.38 159.96 117.23 159.191 117.23C158.671 117.23 158.163 117.341 157.668 117.562C157.173 117.771 156.763 118.07 156.438 118.461C156.125 118.852 155.969 119.327 155.969 119.887H149.367C149.367 118.272 149.81 116.892 150.695 115.746C151.594 114.587 152.772 113.702 154.23 113.09C155.702 112.465 157.284 112.152 158.977 112.152C160.995 112.152 162.766 112.465 164.289 113.09C165.812 113.702 166.997 114.613 167.844 115.824C168.703 117.022 169.133 118.507 169.133 120.277C169.133 121.254 168.905 122.172 168.449 123.031C167.993 123.891 167.355 124.646 166.535 125.297C165.715 125.948 164.751 126.462 163.645 126.84C162.551 127.204 161.353 127.387 160.051 127.387H155.754V124.027ZM155.754 128.93V125.648H160.051C161.47 125.648 162.766 125.811 163.938 126.137C165.109 126.449 166.118 126.918 166.965 127.543C167.811 128.168 168.462 128.943 168.918 129.867C169.374 130.779 169.602 131.827 169.602 133.012C169.602 134.34 169.335 135.525 168.801 136.566C168.267 137.608 167.518 138.487 166.555 139.203C165.591 139.919 164.465 140.466 163.176 140.844C161.887 141.208 160.487 141.391 158.977 141.391C157.792 141.391 156.607 141.234 155.422 140.922C154.237 140.596 153.156 140.102 152.18 139.438C151.203 138.76 150.415 137.901 149.816 136.859C149.23 135.805 148.938 134.548 148.938 133.09H155.539C155.539 133.689 155.702 134.236 156.027 134.73C156.366 135.212 156.815 135.596 157.375 135.883C157.935 136.169 158.54 136.312 159.191 136.312C159.999 136.312 160.682 136.163 161.242 135.863C161.815 135.551 162.251 135.134 162.551 134.613C162.85 134.092 163 133.513 163 132.875C163 131.911 162.837 131.143 162.512 130.57C162.199 129.997 161.737 129.581 161.125 129.32C160.526 129.06 159.803 128.93 158.957 128.93H155.754ZM192.707 124.184V129.379C192.707 131.423 192.466 133.201 191.984 134.711C191.516 136.221 190.839 137.471 189.953 138.461C189.081 139.451 188.039 140.186 186.828 140.668C185.617 141.15 184.283 141.391 182.824 141.391C181.652 141.391 180.559 141.241 179.543 140.941C178.527 140.629 177.609 140.16 176.789 139.535C175.982 138.897 175.285 138.103 174.699 137.152C174.113 136.202 173.664 135.082 173.352 133.793C173.039 132.491 172.883 131.02 172.883 129.379V124.184C172.883 122.126 173.117 120.349 173.586 118.852C174.068 117.341 174.751 116.091 175.637 115.102C176.522 114.112 177.57 113.376 178.781 112.895C179.992 112.413 181.327 112.172 182.785 112.172C183.957 112.172 185.044 112.328 186.047 112.641C187.062 112.94 187.98 113.409 188.801 114.047C189.621 114.672 190.318 115.46 190.891 116.41C191.477 117.361 191.926 118.487 192.238 119.789C192.551 121.078 192.707 122.543 192.707 124.184ZM186.125 130.18V123.344C186.125 122.432 186.073 121.638 185.969 120.961C185.878 120.284 185.734 119.711 185.539 119.242C185.357 118.773 185.129 118.396 184.855 118.109C184.582 117.81 184.27 117.595 183.918 117.465C183.579 117.322 183.202 117.25 182.785 117.25C182.264 117.25 181.796 117.361 181.379 117.582C180.975 117.79 180.63 118.129 180.344 118.598C180.057 119.066 179.836 119.691 179.68 120.473C179.536 121.254 179.465 122.211 179.465 123.344V130.18C179.465 131.104 179.51 131.911 179.602 132.602C179.706 133.279 179.849 133.858 180.031 134.34C180.227 134.809 180.461 135.193 180.734 135.492C181.008 135.779 181.32 135.987 181.672 136.117C182.023 136.247 182.408 136.312 182.824 136.312C183.332 136.312 183.788 136.208 184.191 136C184.595 135.792 184.94 135.453 185.227 134.984C185.526 134.503 185.747 133.871 185.891 133.09C186.047 132.296 186.125 131.326 186.125 130.18ZM196.184 119.535V118.031C196.184 116.951 196.418 115.967 196.887 115.082C197.355 114.197 198.059 113.487 198.996 112.953C199.934 112.419 201.099 112.152 202.492 112.152C203.924 112.152 205.109 112.419 206.047 112.953C206.984 113.487 207.681 114.197 208.137 115.082C208.605 115.967 208.84 116.951 208.84 118.031V119.535C208.84 120.59 208.605 121.56 208.137 122.445C207.681 123.331 206.984 124.04 206.047 124.574C205.122 125.108 203.951 125.375 202.531 125.375C201.125 125.375 199.953 125.108 199.016 124.574C198.078 124.04 197.368 123.331 196.887 122.445C196.418 121.56 196.184 120.59 196.184 119.535ZM200.402 118.031V119.535C200.402 119.926 200.48 120.297 200.637 120.648C200.793 121 201.027 121.286 201.34 121.508C201.665 121.716 202.062 121.82 202.531 121.82C203.013 121.82 203.404 121.716 203.703 121.508C204.003 121.286 204.224 121 204.367 120.648C204.523 120.297 204.602 119.926 204.602 119.535V118.031C204.602 117.615 204.523 117.23 204.367 116.879C204.224 116.527 203.996 116.247 203.684 116.039C203.371 115.818 202.974 115.707 202.492 115.707C202.036 115.707 201.652 115.818 201.34 116.039C201.027 116.247 200.793 116.527 200.637 116.879C200.48 117.23 200.402 117.615 200.402 118.031ZM209.68 135.531V134.027C209.68 132.96 209.914 131.983 210.383 131.098C210.865 130.212 211.574 129.503 212.512 128.969C213.462 128.435 214.634 128.168 216.027 128.168C217.46 128.168 218.638 128.435 219.562 128.969C220.5 129.503 221.197 130.212 221.652 131.098C222.121 131.983 222.355 132.96 222.355 134.027V135.531C222.355 136.599 222.121 137.576 221.652 138.461C221.197 139.346 220.507 140.056 219.582 140.59C218.658 141.124 217.486 141.391 216.066 141.391C214.66 141.391 213.482 141.124 212.531 140.59C211.581 140.056 210.865 139.346 210.383 138.461C209.914 137.576 209.68 136.599 209.68 135.531ZM213.918 134.027V135.531C213.918 135.935 214.016 136.312 214.211 136.664C214.406 137.016 214.667 137.302 214.992 137.523C215.318 137.732 215.676 137.836 216.066 137.836C216.665 137.836 217.108 137.732 217.395 137.523C217.694 137.302 217.889 137.016 217.98 136.664C218.085 136.312 218.137 135.935 218.137 135.531V134.027C218.137 133.624 218.059 133.246 217.902 132.895C217.746 132.543 217.512 132.263 217.199 132.055C216.887 131.833 216.496 131.723 216.027 131.723C215.559 131.723 215.168 131.833 214.855 132.055C214.543 132.263 214.309 132.543 214.152 132.895C213.996 133.246 213.918 133.624 213.918 134.027ZM217.668 116.645L203.781 138.871L200.715 137.328L214.602 115.102L217.668 116.645Z" fill="#00AED4"/>
<path d="M174.501 228.539C173.949 228.539 173.501 228.091 173.501 227.539V191.542H155.818C154.941 191.542 154.489 190.494 155.09 189.856L185.773 157.313C186.167 156.895 186.833 156.895 187.228 157.313L217.91 189.856C218.512 190.494 218.059 191.542 217.183 191.542H199.501V227.539C199.501 228.091 199.053 228.539 198.501 228.539H174.501Z" fill="#6FC7E2"/>
<path d="M341.754 87.0273H344.957C345.777 87.0273 346.448 86.8841 346.969 86.5977C347.503 86.2982 347.9 85.8815 348.16 85.3477C348.421 84.8008 348.551 84.1562 348.551 83.4141C348.551 82.8411 348.427 82.3138 348.18 81.832C347.945 81.3503 347.581 80.9661 347.086 80.6797C346.591 80.3802 345.96 80.2305 345.191 80.2305C344.671 80.2305 344.163 80.3411 343.668 80.5625C343.173 80.7708 342.763 81.0703 342.438 81.4609C342.125 81.8516 341.969 82.3268 341.969 82.8867H335.367C335.367 81.2721 335.81 79.8919 336.695 78.7461C337.594 77.5872 338.772 76.7018 340.23 76.0898C341.702 75.4648 343.284 75.1523 344.977 75.1523C346.995 75.1523 348.766 75.4648 350.289 76.0898C351.812 76.7018 352.997 77.6133 353.844 78.8242C354.703 80.0221 355.133 81.5065 355.133 83.2773C355.133 84.2539 354.905 85.1719 354.449 86.0312C353.993 86.8906 353.355 87.6458 352.535 88.2969C351.715 88.9479 350.751 89.4622 349.645 89.8398C348.551 90.2044 347.353 90.3867 346.051 90.3867H341.754V87.0273ZM341.754 91.9297V88.6484H346.051C347.47 88.6484 348.766 88.8112 349.938 89.1367C351.109 89.4492 352.118 89.918 352.965 90.543C353.811 91.168 354.462 91.9427 354.918 92.8672C355.374 93.7786 355.602 94.8268 355.602 96.0117C355.602 97.3398 355.335 98.5247 354.801 99.5664C354.267 100.608 353.518 101.487 352.555 102.203C351.591 102.919 350.465 103.466 349.176 103.844C347.887 104.208 346.487 104.391 344.977 104.391C343.792 104.391 342.607 104.234 341.422 103.922C340.237 103.596 339.156 103.102 338.18 102.438C337.203 101.76 336.415 100.901 335.816 99.8594C335.23 98.8047 334.938 97.5482 334.938 96.0898H341.539C341.539 96.6888 341.702 97.2357 342.027 97.7305C342.366 98.2122 342.815 98.5964 343.375 98.8828C343.935 99.1693 344.54 99.3125 345.191 99.3125C345.999 99.3125 346.682 99.1628 347.242 98.8633C347.815 98.5508 348.251 98.1341 348.551 97.6133C348.85 97.0924 349 96.513 349 95.875C349 94.9115 348.837 94.1432 348.512 93.5703C348.199 92.9974 347.737 92.5807 347.125 92.3203C346.526 92.0599 345.803 91.9297 344.957 91.9297H341.754ZM378.707 87.1836V92.3789C378.707 94.4232 378.466 96.2005 377.984 97.7109C377.516 99.2214 376.839 100.471 375.953 101.461C375.081 102.451 374.039 103.186 372.828 103.668C371.617 104.15 370.283 104.391 368.824 104.391C367.652 104.391 366.559 104.241 365.543 103.941C364.527 103.629 363.609 103.16 362.789 102.535C361.982 101.897 361.285 101.103 360.699 100.152C360.113 99.2018 359.664 98.082 359.352 96.793C359.039 95.4909 358.883 94.0195 358.883 92.3789V87.1836C358.883 85.1263 359.117 83.349 359.586 81.8516C360.068 80.3411 360.751 79.0911 361.637 78.1016C362.522 77.112 363.57 76.3763 364.781 75.8945C365.992 75.4128 367.327 75.1719 368.785 75.1719C369.957 75.1719 371.044 75.3281 372.047 75.6406C373.062 75.9401 373.98 76.4089 374.801 77.0469C375.621 77.6719 376.318 78.4596 376.891 79.4102C377.477 80.3607 377.926 81.487 378.238 82.7891C378.551 84.0781 378.707 85.543 378.707 87.1836ZM372.125 93.1797V86.3438C372.125 85.4323 372.073 84.638 371.969 83.9609C371.878 83.2839 371.734 82.7109 371.539 82.2422C371.357 81.7734 371.129 81.3958 370.855 81.1094C370.582 80.8099 370.27 80.5951 369.918 80.4648C369.579 80.3216 369.202 80.25 368.785 80.25C368.264 80.25 367.796 80.3607 367.379 80.582C366.975 80.7904 366.63 81.1289 366.344 81.5977C366.057 82.0664 365.836 82.6914 365.68 83.4727C365.536 84.2539 365.465 85.2109 365.465 86.3438V93.1797C365.465 94.1042 365.51 94.9115 365.602 95.6016C365.706 96.2786 365.849 96.8581 366.031 97.3398C366.227 97.8086 366.461 98.1927 366.734 98.4922C367.008 98.7786 367.32 98.987 367.672 99.1172C368.023 99.2474 368.408 99.3125 368.824 99.3125C369.332 99.3125 369.788 99.2083 370.191 99C370.595 98.7917 370.94 98.4531 371.227 97.9844C371.526 97.5026 371.747 96.8711 371.891 96.0898C372.047 95.2956 372.125 94.3255 372.125 93.1797ZM382.184 82.5352V81.0312C382.184 79.9505 382.418 78.9674 382.887 78.082C383.355 77.1966 384.059 76.487 384.996 75.9531C385.934 75.4193 387.099 75.1523 388.492 75.1523C389.924 75.1523 391.109 75.4193 392.047 75.9531C392.984 76.487 393.681 77.1966 394.137 78.082C394.605 78.9674 394.84 79.9505 394.84 81.0312V82.5352C394.84 83.5898 394.605 84.5599 394.137 85.4453C393.681 86.3307 392.984 87.0404 392.047 87.5742C391.122 88.1081 389.951 88.375 388.531 88.375C387.125 88.375 385.953 88.1081 385.016 87.5742C384.078 87.0404 383.368 86.3307 382.887 85.4453C382.418 84.5599 382.184 83.5898 382.184 82.5352ZM386.402 81.0312V82.5352C386.402 82.9258 386.48 83.2969 386.637 83.6484C386.793 84 387.027 84.2865 387.34 84.5078C387.665 84.7161 388.062 84.8203 388.531 84.8203C389.013 84.8203 389.404 84.7161 389.703 84.5078C390.003 84.2865 390.224 84 390.367 83.6484C390.523 83.2969 390.602 82.9258 390.602 82.5352V81.0312C390.602 80.6146 390.523 80.2305 390.367 79.8789C390.224 79.5273 389.996 79.2474 389.684 79.0391C389.371 78.8177 388.974 78.707 388.492 78.707C388.036 78.707 387.652 78.8177 387.34 79.0391C387.027 79.2474 386.793 79.5273 386.637 79.8789C386.48 80.2305 386.402 80.6146 386.402 81.0312ZM395.68 98.5312V97.0273C395.68 95.9596 395.914 94.9831 396.383 94.0977C396.865 93.2122 397.574 92.5026 398.512 91.9688C399.462 91.4349 400.634 91.168 402.027 91.168C403.46 91.168 404.638 91.4349 405.562 91.9688C406.5 92.5026 407.197 93.2122 407.652 94.0977C408.121 94.9831 408.355 95.9596 408.355 97.0273V98.5312C408.355 99.599 408.121 100.576 407.652 101.461C407.197 102.346 406.507 103.056 405.582 103.59C404.658 104.124 403.486 104.391 402.066 104.391C400.66 104.391 399.482 104.124 398.531 103.59C397.581 103.056 396.865 102.346 396.383 101.461C395.914 100.576 395.68 99.599 395.68 98.5312ZM399.918 97.0273V98.5312C399.918 98.9349 400.016 99.3125 400.211 99.6641C400.406 100.016 400.667 100.302 400.992 100.523C401.318 100.732 401.676 100.836 402.066 100.836C402.665 100.836 403.108 100.732 403.395 100.523C403.694 100.302 403.889 100.016 403.98 99.6641C404.085 99.3125 404.137 98.9349 404.137 98.5312V97.0273C404.137 96.6237 404.059 96.2461 403.902 95.8945C403.746 95.543 403.512 95.263 403.199 95.0547C402.887 94.8333 402.496 94.7227 402.027 94.7227C401.559 94.7227 401.168 94.8333 400.855 95.0547C400.543 95.263 400.309 95.543 400.152 95.8945C399.996 96.2461 399.918 96.6237 399.918 97.0273ZM403.668 79.6445L389.781 101.871L386.715 100.328L400.602 78.1016L403.668 79.6445Z" fill="#00AED4"/>
<path d="M360.501 191.539C359.949 191.539 359.501 191.091 359.501 190.539V154.541H341.818C340.941 154.541 340.489 153.493 341.09 152.855L371.773 120.312C372.167 119.894 372.833 119.894 373.228 120.312L403.91 152.855C404.512 153.493 404.059 154.541 403.183 154.541H385.501V190.539C385.501 191.091 385.053 191.539 384.501 191.539H360.501Z" fill="#6FC7E2"/>
<path d="M462.416 421V410.738H465.342C466.107 410.738 466.779 410.836 467.358 411.032C467.937 411.219 468.385 411.531 468.702 411.97C469.019 412.409 469.178 413.001 469.178 413.748C469.178 414.467 469.019 415.059 468.702 415.526C468.385 415.993 467.941 416.343 467.372 416.576C466.803 416.8 466.145 416.912 465.398 416.912H463.704V421H462.416ZM463.704 415.862H465.23C466.126 415.862 466.793 415.694 467.232 415.358C467.671 415.022 467.89 414.485 467.89 413.748C467.89 413.001 467.661 412.488 467.204 412.208C466.756 411.928 466.079 411.788 465.174 411.788H463.704V415.862ZM471.149 421V413.398H472.437V421H471.149ZM471.793 411.83C471.541 411.83 471.336 411.755 471.177 411.606C471.028 411.447 470.953 411.237 470.953 410.976C470.953 410.724 471.028 410.523 471.177 410.374C471.336 410.225 471.541 410.15 471.793 410.15C472.045 410.15 472.251 410.225 472.409 410.374C472.568 410.523 472.647 410.724 472.647 410.976C472.647 411.237 472.568 411.447 472.409 411.606C472.251 411.755 472.045 411.83 471.793 411.83ZM478.085 421.182C477.403 421.182 476.787 421.023 476.237 420.706C475.686 420.389 475.247 419.936 474.921 419.348C474.603 418.751 474.445 418.037 474.445 417.206C474.445 416.581 474.538 416.025 474.725 415.54C474.911 415.045 475.163 414.625 475.481 414.28C475.807 413.925 476.176 413.659 476.587 413.482C476.997 413.295 477.417 413.202 477.847 413.202C478.5 413.202 479.051 413.347 479.499 413.636C479.947 413.925 480.287 414.341 480.521 414.882C480.763 415.414 480.885 416.044 480.885 416.772C480.885 416.912 480.88 417.043 480.871 417.164C480.861 417.285 480.847 417.397 480.829 417.5H475.705C475.733 418.041 475.854 418.513 476.069 418.914C476.293 419.306 476.587 419.614 476.951 419.838C477.315 420.053 477.739 420.16 478.225 420.16C478.598 420.16 478.934 420.109 479.233 420.006C479.541 419.894 479.839 419.745 480.129 419.558L480.577 420.412C480.25 420.627 479.881 420.809 479.471 420.958C479.06 421.107 478.598 421.182 478.085 421.182ZM475.691 416.59H479.765C479.765 415.825 479.597 415.241 479.261 414.84C478.934 414.429 478.472 414.224 477.875 414.224C477.52 414.224 477.184 414.317 476.867 414.504C476.559 414.691 476.297 414.957 476.083 415.302C475.877 415.647 475.747 416.077 475.691 416.59ZM485.753 421.182C485.081 421.182 484.474 421.028 483.933 420.72C483.401 420.403 482.976 419.95 482.659 419.362C482.351 418.765 482.197 418.046 482.197 417.206C482.197 416.357 482.365 415.638 482.701 415.05C483.037 414.453 483.485 413.995 484.045 413.678C484.605 413.361 485.207 413.202 485.851 413.202C486.345 413.202 486.77 413.291 487.125 413.468C487.489 413.645 487.801 413.855 488.063 414.098L487.419 414.938C487.204 414.742 486.971 414.583 486.719 414.462C486.476 414.341 486.205 414.28 485.907 414.28C485.449 414.28 485.039 414.401 484.675 414.644C484.311 414.887 484.026 415.227 483.821 415.666C483.615 416.105 483.513 416.618 483.513 417.206C483.513 417.785 483.611 418.293 483.807 418.732C484.012 419.171 484.287 419.511 484.633 419.754C484.987 419.997 485.398 420.118 485.865 420.118C486.219 420.118 486.546 420.048 486.845 419.908C487.143 419.759 487.414 419.577 487.657 419.362L488.217 420.23C487.871 420.529 487.489 420.762 487.069 420.93C486.649 421.098 486.21 421.182 485.753 421.182ZM492.604 421.182C491.923 421.182 491.307 421.023 490.756 420.706C490.206 420.389 489.767 419.936 489.44 419.348C489.123 418.751 488.964 418.037 488.964 417.206C488.964 416.581 489.058 416.025 489.244 415.54C489.431 415.045 489.683 414.625 490 414.28C490.327 413.925 490.696 413.659 491.106 413.482C491.517 413.295 491.937 413.202 492.366 413.202C493.02 413.202 493.57 413.347 494.018 413.636C494.466 413.925 494.807 414.341 495.04 414.882C495.283 415.414 495.404 416.044 495.404 416.772C495.404 416.912 495.4 417.043 495.39 417.164C495.381 417.285 495.367 417.397 495.348 417.5H490.224C490.252 418.041 490.374 418.513 490.588 418.914C490.812 419.306 491.106 419.614 491.47 419.838C491.834 420.053 492.259 420.16 492.744 420.16C493.118 420.16 493.454 420.109 493.752 420.006C494.06 419.894 494.359 419.745 494.648 419.558L495.096 420.412C494.77 420.627 494.401 420.809 493.99 420.958C493.58 421.107 493.118 421.182 492.604 421.182ZM490.21 416.59H494.284C494.284 415.825 494.116 415.241 493.78 414.84C493.454 414.429 492.992 414.224 492.394 414.224C492.04 414.224 491.704 414.317 491.386 414.504C491.078 414.691 490.817 414.957 490.602 415.302C490.397 415.647 490.266 416.077 490.21 416.59ZM499.264 421.182C498.732 421.182 498.214 421.084 497.71 420.888C497.216 420.683 496.791 420.431 496.436 420.132L497.052 419.278C497.388 419.549 497.734 419.768 498.088 419.936C498.443 420.104 498.849 420.188 499.306 420.188C499.81 420.188 500.184 420.076 500.426 419.852C500.678 419.619 500.804 419.334 500.804 418.998C500.804 418.737 500.716 418.522 500.538 418.354C500.37 418.177 500.151 418.027 499.88 417.906C499.619 417.775 499.348 417.659 499.068 417.556C498.714 417.416 498.364 417.262 498.018 417.094C497.682 416.917 497.402 416.693 497.178 416.422C496.964 416.142 496.856 415.787 496.856 415.358C496.856 414.947 496.959 414.583 497.164 414.266C497.37 413.939 497.668 413.683 498.06 413.496C498.452 413.3 498.924 413.202 499.474 413.202C499.941 413.202 500.375 413.286 500.776 413.454C501.187 413.622 501.537 413.827 501.826 414.07L501.21 414.868C500.949 414.681 500.678 414.523 500.398 414.392C500.128 414.261 499.824 414.196 499.488 414.196C499.003 414.196 498.644 414.308 498.41 414.532C498.186 414.747 498.074 415.003 498.074 415.302C498.074 415.535 498.149 415.731 498.298 415.89C498.457 416.049 498.662 416.184 498.914 416.296C499.166 416.399 499.432 416.506 499.712 416.618C499.992 416.721 500.268 416.833 500.538 416.954C500.818 417.075 501.066 417.22 501.28 417.388C501.504 417.556 501.682 417.766 501.812 418.018C501.952 418.261 502.022 418.564 502.022 418.928C502.022 419.339 501.915 419.717 501.7 420.062C501.495 420.407 501.187 420.683 500.776 420.888C500.375 421.084 499.871 421.182 499.264 421.182ZM506.956 424.206V413.398H508.006L508.132 414.28H508.16C508.505 413.991 508.883 413.739 509.294 413.524C509.714 413.309 510.143 413.202 510.582 413.202C511.235 413.202 511.786 413.365 512.234 413.692C512.691 414.009 513.032 414.457 513.256 415.036C513.489 415.615 513.606 416.296 513.606 417.08C513.606 417.948 513.447 418.69 513.13 419.306C512.822 419.913 512.416 420.379 511.912 420.706C511.417 421.023 510.881 421.182 510.302 421.182C509.957 421.182 509.607 421.107 509.252 420.958C508.897 420.799 508.547 420.58 508.202 420.3L508.244 421.63V424.206H506.956ZM510.092 420.104C510.512 420.104 510.885 419.987 511.212 419.754C511.548 419.511 511.809 419.166 511.996 418.718C512.183 418.261 512.276 417.719 512.276 417.094C512.276 416.534 512.206 416.044 512.066 415.624C511.935 415.195 511.725 414.863 511.436 414.63C511.147 414.397 510.755 414.28 510.26 414.28C509.943 414.28 509.616 414.369 509.28 414.546C508.953 414.723 508.608 414.98 508.244 415.316V419.32C508.58 419.609 508.911 419.815 509.238 419.936C509.565 420.048 509.849 420.104 510.092 420.104ZM518.718 421.182C518.036 421.182 517.42 421.023 516.87 420.706C516.319 420.389 515.88 419.936 515.554 419.348C515.236 418.751 515.078 418.037 515.078 417.206C515.078 416.581 515.171 416.025 515.358 415.54C515.544 415.045 515.796 414.625 516.114 414.28C516.44 413.925 516.809 413.659 517.22 413.482C517.63 413.295 518.05 413.202 518.48 413.202C519.133 413.202 519.684 413.347 520.132 413.636C520.58 413.925 520.92 414.341 521.154 414.882C521.396 415.414 521.518 416.044 521.518 416.772C521.518 416.912 521.513 417.043 521.504 417.164C521.494 417.285 521.48 417.397 521.462 417.5H516.338C516.366 418.041 516.487 418.513 516.702 418.914C516.926 419.306 517.22 419.614 517.584 419.838C517.948 420.053 518.372 420.16 518.858 420.16C519.231 420.16 519.567 420.109 519.866 420.006C520.174 419.894 520.472 419.745 520.762 419.558L521.21 420.412C520.883 420.627 520.514 420.809 520.104 420.958C519.693 421.107 519.231 421.182 518.718 421.182ZM516.324 416.59H520.398C520.398 415.825 520.23 415.241 519.894 414.84C519.567 414.429 519.105 414.224 518.508 414.224C518.153 414.224 517.817 414.317 517.5 414.504C517.192 414.691 516.93 414.957 516.716 415.302C516.51 415.647 516.38 416.077 516.324 416.59ZM523.39 421V413.398H524.44L524.566 414.784H524.594C524.855 414.299 525.172 413.916 525.546 413.636C525.928 413.347 526.33 413.202 526.75 413.202C526.927 413.202 527.076 413.216 527.198 413.244C527.328 413.263 527.45 413.305 527.562 413.37L527.324 414.476C527.193 414.439 527.076 414.411 526.974 414.392C526.871 414.364 526.74 414.35 526.582 414.35C526.274 414.35 525.942 414.485 525.588 414.756C525.233 415.017 524.93 415.47 524.678 416.114V421H523.39ZM533.152 421L531.038 413.398H532.34L533.474 417.794C533.558 418.158 533.633 418.513 533.698 418.858C533.773 419.203 533.847 419.553 533.922 419.908H533.992C534.076 419.553 534.155 419.203 534.23 418.858C534.314 418.513 534.403 418.158 534.496 417.794L535.686 413.398H536.932L538.122 417.794C538.215 418.158 538.304 418.513 538.388 418.858C538.481 419.203 538.57 419.553 538.654 419.908H538.724C538.799 419.553 538.873 419.203 538.948 418.858C539.023 418.513 539.102 418.158 539.186 417.794L540.292 413.398H541.524L539.466 421H537.912L536.82 416.898C536.727 416.543 536.638 416.189 536.554 415.834C536.47 415.47 536.386 415.097 536.302 414.714H536.232C536.148 415.097 536.064 415.47 535.98 415.834C535.905 416.198 535.817 416.562 535.714 416.926L534.636 421H533.152ZM544.731 421.182C544.311 421.182 543.933 421.098 543.597 420.93C543.261 420.762 542.995 420.519 542.799 420.202C542.613 419.875 542.519 419.483 542.519 419.026C542.519 418.195 542.888 417.561 543.625 417.122C544.372 416.674 545.557 416.361 547.181 416.184C547.181 415.857 547.135 415.549 547.041 415.26C546.957 414.961 546.803 414.723 546.579 414.546C546.355 414.359 546.033 414.266 545.613 414.266C545.175 414.266 544.759 414.355 544.367 414.532C543.985 414.7 543.639 414.882 543.331 415.078L542.841 414.196C543.075 414.047 543.345 413.897 543.653 413.748C543.961 413.589 544.297 413.459 544.661 413.356C545.025 413.253 545.413 413.202 545.823 413.202C546.439 413.202 546.939 413.333 547.321 413.594C547.713 413.855 547.998 414.219 548.175 414.686C548.362 415.143 548.455 415.689 548.455 416.324V421H547.405L547.293 420.09H547.251C546.897 420.389 546.505 420.645 546.075 420.86C545.655 421.075 545.207 421.182 544.731 421.182ZM545.095 420.146C545.459 420.146 545.805 420.062 546.131 419.894C546.467 419.726 546.817 419.479 547.181 419.152V417.038C546.332 417.131 545.655 417.267 545.151 417.444C544.647 417.612 544.288 417.822 544.073 418.074C543.859 418.317 543.751 418.606 543.751 418.942C543.751 419.381 543.882 419.693 544.143 419.88C544.405 420.057 544.722 420.146 545.095 420.146ZM551.08 421V412.18C551.08 411.667 551.159 411.223 551.318 410.85C551.477 410.477 551.719 410.187 552.046 409.982C552.373 409.777 552.788 409.674 553.292 409.674C553.525 409.674 553.749 409.697 553.964 409.744C554.188 409.791 554.389 409.847 554.566 409.912L554.286 410.906C554.006 410.766 553.721 410.696 553.432 410.696C553.068 410.696 552.797 410.822 552.62 411.074C552.443 411.326 552.354 411.699 552.354 412.194V421H551.08ZM550.044 414.434V413.468L551.136 413.398H553.964V414.434H550.044ZM558.311 421.182C557.63 421.182 557.014 421.023 556.463 420.706C555.913 420.389 555.474 419.936 555.147 419.348C554.83 418.751 554.671 418.037 554.671 417.206C554.671 416.581 554.765 416.025 554.951 415.54C555.138 415.045 555.39 414.625 555.707 414.28C556.034 413.925 556.403 413.659 556.813 413.482C557.224 413.295 557.644 413.202 558.073 413.202C558.727 413.202 559.277 413.347 559.725 413.636C560.173 413.925 560.514 414.341 560.747 414.882C560.99 415.414 561.111 416.044 561.111 416.772C561.111 416.912 561.107 417.043 561.097 417.164C561.088 417.285 561.074 417.397 561.055 417.5H555.931C555.959 418.041 556.081 418.513 556.295 418.914C556.519 419.306 556.813 419.614 557.177 419.838C557.541 420.053 557.966 420.16 558.451 420.16C558.825 420.16 559.161 420.109 559.459 420.006C559.767 419.894 560.066 419.745 560.355 419.558L560.803 420.412C560.477 420.627 560.108 420.809 559.697 420.958C559.287 421.107 558.825 421.182 558.311 421.182ZM555.917 416.59H559.991C559.991 415.825 559.823 415.241 559.487 414.84C559.161 414.429 558.699 414.224 558.101 414.224C557.747 414.224 557.411 414.317 557.093 414.504C556.785 414.691 556.524 414.957 556.309 415.302C556.104 415.647 555.973 416.077 555.917 416.59ZM562.983 421V413.398H564.033L564.159 414.784H564.187C564.449 414.299 564.766 413.916 565.139 413.636C565.522 413.347 565.923 413.202 566.343 413.202C566.521 413.202 566.67 413.216 566.791 413.244C566.922 413.263 567.043 413.305 567.155 413.37L566.917 414.476C566.787 414.439 566.67 414.411 566.567 414.392C566.465 414.364 566.334 414.35 566.175 414.35C565.867 414.35 565.536 414.485 565.181 414.756C564.827 415.017 564.523 415.47 564.271 416.114V421H562.983Z" fill="#B0B0B0"/>
<path d="M28.9576 21V7.806H32.7196C33.7036 7.806 34.5676 7.932 35.3116 8.184C36.0556 8.424 36.6316 8.826 37.0396 9.39C37.4476 9.954 37.6516 10.716 37.6516 11.676C37.6516 12.6 37.4476 13.362 37.0396 13.962C36.6316 14.562 36.0616 15.012 35.3296 15.312C34.5976 15.6 33.7516 15.744 32.7916 15.744H30.6136V21H28.9576ZM30.6136 14.394H32.5756C33.7276 14.394 34.5856 14.178 35.1496 13.746C35.7136 13.314 35.9956 12.624 35.9956 11.676C35.9956 10.716 35.7016 10.056 35.1136 9.696C34.5376 9.336 33.6676 9.156 32.5036 9.156H30.6136V14.394ZM40.1863 21V11.226H41.5363L41.6983 13.008H41.7343C42.0703 12.384 42.4783 11.892 42.9583 11.532C43.4503 11.16 43.9663 10.974 44.5063 10.974C44.7343 10.974 44.9263 10.992 45.0823 11.028C45.2503 11.052 45.4063 11.106 45.5503 11.19L45.2443 12.612C45.0763 12.564 44.9263 12.528 44.7943 12.504C44.6623 12.468 44.4943 12.45 44.2903 12.45C43.8943 12.45 43.4683 12.624 43.0123 12.972C42.5563 13.308 42.1663 13.89 41.8423 14.718V21H40.1863ZM50.7167 21.234C49.9247 21.234 49.1807 21.036 48.4847 20.64C47.7887 20.232 47.2307 19.65 46.8107 18.894C46.4027 18.126 46.1987 17.202 46.1987 16.122C46.1987 15.03 46.4027 14.106 46.8107 13.35C47.2307 12.582 47.7887 11.994 48.4847 11.586C49.1807 11.178 49.9247 10.974 50.7167 10.974C51.3167 10.974 51.8867 11.088 52.4267 11.316C52.9787 11.544 53.4647 11.88 53.8847 12.324C54.3047 12.768 54.6347 13.308 54.8747 13.944C55.1147 14.58 55.2347 15.306 55.2347 16.122C55.2347 17.202 55.0247 18.126 54.6047 18.894C54.1847 19.65 53.6327 20.232 52.9487 20.64C52.2647 21.036 51.5207 21.234 50.7167 21.234ZM50.7167 19.866C51.2807 19.866 51.7727 19.71 52.1927 19.398C52.6247 19.086 52.9607 18.648 53.2007 18.084C53.4407 17.52 53.5607 16.866 53.5607 16.122C53.5607 15.366 53.4407 14.706 53.2007 14.142C52.9607 13.578 52.6247 13.14 52.1927 12.828C51.7727 12.516 51.2807 12.36 50.7167 12.36C50.1527 12.36 49.6547 12.516 49.2227 12.828C48.8027 13.14 48.4727 13.578 48.2327 14.142C48.0047 14.706 47.8907 15.366 47.8907 16.122C47.8907 16.866 48.0047 17.52 48.2327 18.084C48.4727 18.648 48.8027 19.086 49.2227 19.398C49.6547 19.71 50.1527 19.866 50.7167 19.866ZM61.1647 21.234C60.3487 21.234 59.6347 21.036 59.0227 20.64C58.4227 20.244 57.9547 19.668 57.6187 18.912C57.2947 18.144 57.1327 17.214 57.1327 16.122C57.1327 15.066 57.3307 14.154 57.7267 13.386C58.1227 12.618 58.6387 12.024 59.2747 11.604C59.9227 11.184 60.6187 10.974 61.3627 10.974C61.9387 10.974 62.4307 11.076 62.8387 11.28C63.2587 11.472 63.6847 11.748 64.1167 12.108L64.0267 10.434V6.672H65.6827V21H64.3327L64.1887 19.848H64.1347C63.7507 20.232 63.3067 20.562 62.8027 20.838C62.2987 21.102 61.7527 21.234 61.1647 21.234ZM61.5247 19.848C61.9807 19.848 62.4127 19.74 62.8207 19.524C63.2287 19.296 63.6307 18.96 64.0267 18.516V13.386C63.6187 13.014 63.2227 12.75 62.8387 12.594C62.4547 12.438 62.0587 12.36 61.6507 12.36C61.1347 12.36 60.6607 12.522 60.2287 12.846C59.8087 13.158 59.4667 13.596 59.2027 14.16C58.9507 14.712 58.8247 15.36 58.8247 16.104C58.8247 16.884 58.9327 17.556 59.1487 18.12C59.3647 18.684 59.6707 19.116 60.0667 19.416C60.4747 19.704 60.9607 19.848 61.5247 19.848ZM71.8588 21.234C70.8268 21.234 70.0648 20.91 69.5728 20.262C69.0928 19.614 68.8528 18.666 68.8528 17.418V11.226H70.5088V17.22C70.5088 18.12 70.6528 18.78 70.9408 19.2C71.2288 19.608 71.6968 19.812 72.3448 19.812C72.8488 19.812 73.2988 19.68 73.6948 19.416C74.0908 19.152 74.5228 18.732 74.9908 18.156V11.226H76.6288V21H75.2608L75.1348 19.47H75.0808C74.6248 19.998 74.1388 20.424 73.6228 20.748C73.1188 21.072 72.5308 21.234 71.8588 21.234ZM83.7824 21.234C82.9184 21.234 82.1384 21.036 81.4424 20.64C80.7584 20.232 80.2124 19.65 79.8044 18.894C79.4084 18.126 79.2104 17.202 79.2104 16.122C79.2104 15.03 79.4264 14.106 79.8584 13.35C80.2904 12.582 80.8664 11.994 81.5864 11.586C82.3064 11.178 83.0804 10.974 83.9084 10.974C84.5444 10.974 85.0904 11.088 85.5464 11.316C86.0144 11.544 86.4164 11.814 86.7524 12.126L85.9244 13.206C85.6484 12.954 85.3484 12.75 85.0244 12.594C84.7124 12.438 84.3644 12.36 83.9804 12.36C83.3924 12.36 82.8644 12.516 82.3964 12.828C81.9284 13.14 81.5624 13.578 81.2984 14.142C81.0344 14.706 80.9024 15.366 80.9024 16.122C80.9024 16.866 81.0284 17.52 81.2804 18.084C81.5444 18.648 81.8984 19.086 82.3424 19.398C82.7984 19.71 83.3264 19.866 83.9264 19.866C84.3824 19.866 84.8024 19.776 85.1864 19.596C85.5704 19.404 85.9184 19.17 86.2304 18.894L86.9504 20.01C86.5064 20.394 86.0144 20.694 85.4744 20.91C84.9344 21.126 84.3704 21.234 83.7824 21.234ZM91.9201 21.234C91.2361 21.234 90.6901 21.102 90.2821 20.838C89.8741 20.562 89.5801 20.178 89.4001 19.686C89.2321 19.194 89.1481 18.624 89.1481 17.976V12.558H87.6901V11.316L89.2381 11.226L89.4181 8.472H90.7861V11.226H93.4501V12.558H90.7861V18.03C90.7861 18.618 90.8941 19.08 91.1101 19.416C91.3381 19.74 91.7341 19.902 92.2981 19.902C92.4781 19.902 92.6701 19.878 92.8741 19.83C93.0781 19.77 93.2581 19.704 93.4141 19.632L93.7381 20.874C93.4621 20.97 93.1681 21.054 92.8561 21.126C92.5441 21.198 92.2321 21.234 91.9201 21.234ZM95.6453 21V11.226H97.3013V21H95.6453ZM96.4733 9.21C96.1493 9.21 95.8853 9.114 95.6813 8.922C95.4893 8.718 95.3933 8.448 95.3933 8.112C95.3933 7.788 95.4893 7.53 95.6813 7.338C95.8853 7.146 96.1493 7.05 96.4733 7.05C96.7973 7.05 97.0613 7.146 97.2653 7.338C97.4693 7.53 97.5713 7.788 97.5713 8.112C97.5713 8.448 97.4693 8.718 97.2653 8.922C97.0613 9.114 96.7973 9.21 96.4733 9.21ZM102.708 21L99.1803 11.226H100.89L102.726 16.788C102.882 17.268 103.032 17.754 103.176 18.246C103.332 18.726 103.482 19.2 103.626 19.668H103.716C103.872 19.2 104.022 18.726 104.166 18.246C104.322 17.754 104.472 17.268 104.616 16.788L106.47 11.226H108.09L104.634 21H102.708ZM109.989 21V11.226H111.645V21H109.989ZM110.817 9.21C110.493 9.21 110.229 9.114 110.025 8.922C109.833 8.718 109.737 8.448 109.737 8.112C109.737 7.788 109.833 7.53 110.025 7.338C110.229 7.146 110.493 7.05 110.817 7.05C111.141 7.05 111.405 7.146 111.609 7.338C111.813 7.53 111.915 7.788 111.915 8.112C111.915 8.448 111.813 8.718 111.609 8.922C111.405 9.114 111.141 9.21 110.817 9.21ZM118.006 21.234C117.322 21.234 116.776 21.102 116.368 20.838C115.96 20.562 115.666 20.178 115.486 19.686C115.318 19.194 115.234 18.624 115.234 17.976V12.558H113.776V11.316L115.324 11.226L115.504 8.472H116.872V11.226H119.536V12.558H116.872V18.03C116.872 18.618 116.98 19.08 117.196 19.416C117.424 19.74 117.82 19.902 118.384 19.902C118.564 19.902 118.756 19.878 118.96 19.83C119.164 19.77 119.344 19.704 119.5 19.632L119.824 20.874C119.548 20.97 119.254 21.054 118.942 21.126C118.63 21.198 118.318 21.234 118.006 21.234ZM121.893 25.212C121.665 25.212 121.455 25.194 121.263 25.158C121.071 25.122 120.897 25.074 120.741 25.014L121.065 23.7C121.161 23.736 121.275 23.772 121.407 23.808C121.539 23.844 121.677 23.862 121.821 23.862C122.373 23.862 122.823 23.658 123.171 23.25C123.531 22.854 123.813 22.356 124.017 21.756L124.233 21.018L120.309 11.226H122.019L123.999 16.644C124.155 17.076 124.311 17.532 124.467 18.012C124.635 18.492 124.803 18.96 124.971 19.416H125.061C125.193 18.96 125.325 18.498 125.457 18.03C125.601 17.55 125.733 17.088 125.853 16.644L127.617 11.226H129.219L125.547 21.828C125.319 22.464 125.043 23.034 124.719 23.538C124.395 24.054 124.005 24.462 123.549 24.762C123.093 25.062 122.541 25.212 121.893 25.212ZM138.941 21.234C138.149 21.234 137.405 21.036 136.709 20.64C136.013 20.232 135.455 19.65 135.035 18.894C134.627 18.126 134.423 17.202 134.423 16.122C134.423 15.03 134.627 14.106 135.035 13.35C135.455 12.582 136.013 11.994 136.709 11.586C137.405 11.178 138.149 10.974 138.941 10.974C139.541 10.974 140.111 11.088 140.651 11.316C141.203 11.544 141.689 11.88 142.109 12.324C142.529 12.768 142.859 13.308 143.099 13.944C143.339 14.58 143.459 15.306 143.459 16.122C143.459 17.202 143.249 18.126 142.829 18.894C142.409 19.65 141.857 20.232 141.173 20.64C140.489 21.036 139.745 21.234 138.941 21.234ZM138.941 19.866C139.505 19.866 139.997 19.71 140.417 19.398C140.849 19.086 141.185 18.648 141.425 18.084C141.665 17.52 141.785 16.866 141.785 16.122C141.785 15.366 141.665 14.706 141.425 14.142C141.185 13.578 140.849 13.14 140.417 12.828C139.997 12.516 139.505 12.36 138.941 12.36C138.377 12.36 137.879 12.516 137.447 12.828C137.027 13.14 136.697 13.578 136.457 14.142C136.229 14.706 136.115 15.366 136.115 16.122C136.115 16.866 136.229 17.52 136.457 18.084C136.697 18.648 137.027 19.086 137.447 19.398C137.879 19.71 138.377 19.866 138.941 19.866ZM146.241 21V9.66C146.241 9 146.343 8.43 146.547 7.95C146.751 7.47 147.063 7.098 147.483 6.834C147.903 6.57 148.437 6.438 149.085 6.438C149.385 6.438 149.673 6.468 149.949 6.528C150.237 6.588 150.495 6.66 150.723 6.744L150.363 8.022C150.003 7.842 149.637 7.752 149.265 7.752C148.797 7.752 148.449 7.914 148.221 8.238C147.993 8.562 147.879 9.042 147.879 9.678V21H146.241ZM144.909 12.558V11.316L146.313 11.226H149.949V12.558H144.909ZM159.81 21.234C158.934 21.234 158.142 21.03 157.434 20.622C156.726 20.214 156.162 19.632 155.742 18.876C155.334 18.108 155.13 17.19 155.13 16.122C155.13 15.318 155.25 14.604 155.49 13.98C155.73 13.344 156.054 12.804 156.462 12.36C156.882 11.904 157.356 11.562 157.884 11.334C158.412 11.094 158.952 10.974 159.504 10.974C160.344 10.974 161.052 11.16 161.628 11.532C162.204 11.904 162.642 12.438 162.942 13.134C163.254 13.818 163.41 14.628 163.41 15.564C163.41 15.744 163.404 15.912 163.392 16.068C163.38 16.224 163.362 16.368 163.338 16.5H156.75C156.786 17.196 156.942 17.802 157.218 18.318C157.506 18.822 157.884 19.218 158.352 19.506C158.82 19.782 159.366 19.92 159.99 19.92C160.47 19.92 160.902 19.854 161.286 19.722C161.682 19.578 162.066 19.386 162.438 19.146L163.014 20.244C162.594 20.52 162.12 20.754 161.592 20.946C161.064 21.138 160.47 21.234 159.81 21.234ZM156.732 15.33H161.97C161.97 14.346 161.754 13.596 161.322 13.08C160.902 12.552 160.308 12.288 159.54 12.288C159.084 12.288 158.652 12.408 158.244 12.648C157.848 12.888 157.512 13.23 157.236 13.674C156.972 14.118 156.804 14.67 156.732 15.33ZM167.733 21.234C167.193 21.234 166.707 21.126 166.275 20.91C165.843 20.694 165.501 20.382 165.249 19.974C165.009 19.554 164.889 19.05 164.889 18.462C164.889 17.394 165.363 16.578 166.311 16.014C167.271 15.438 168.795 15.036 170.883 14.808C170.883 14.388 170.823 13.992 170.703 13.62C170.595 13.236 170.397 12.93 170.109 12.702C169.821 12.462 169.407 12.342 168.867 12.342C168.303 12.342 167.769 12.456 167.265 12.684C166.773 12.9 166.329 13.134 165.933 13.386L165.303 12.252C165.603 12.06 165.951 11.868 166.347 11.676C166.743 11.472 167.175 11.304 167.643 11.172C168.111 11.04 168.609 10.974 169.137 10.974C169.929 10.974 170.571 11.142 171.063 11.478C171.567 11.814 171.933 12.282 172.161 12.882C172.401 13.47 172.521 14.172 172.521 14.988V21H171.171L171.027 19.83H170.973C170.517 20.214 170.013 20.544 169.461 20.82C168.921 21.096 168.345 21.234 167.733 21.234ZM168.201 19.902C168.669 19.902 169.113 19.794 169.533 19.578C169.965 19.362 170.415 19.044 170.883 18.624V15.906C169.791 16.026 168.921 16.2 168.273 16.428C167.625 16.644 167.163 16.914 166.887 17.238C166.611 17.55 166.473 17.922 166.473 18.354C166.473 18.918 166.641 19.32 166.977 19.56C167.313 19.788 167.721 19.902 168.201 19.902ZM179.478 21.234C178.614 21.234 177.834 21.036 177.138 20.64C176.454 20.232 175.908 19.65 175.5 18.894C175.104 18.126 174.906 17.202 174.906 16.122C174.906 15.03 175.122 14.106 175.554 13.35C175.986 12.582 176.562 11.994 177.282 11.586C178.002 11.178 178.776 10.974 179.604 10.974C180.24 10.974 180.786 11.088 181.242 11.316C181.71 11.544 182.112 11.814 182.448 12.126L181.62 13.206C181.344 12.954 181.044 12.75 180.72 12.594C180.408 12.438 180.06 12.36 179.676 12.36C179.088 12.36 178.56 12.516 178.092 12.828C177.624 13.14 177.258 13.578 176.994 14.142C176.73 14.706 176.598 15.366 176.598 16.122C176.598 16.866 176.724 17.52 176.976 18.084C177.24 18.648 177.594 19.086 178.038 19.398C178.494 19.71 179.022 19.866 179.622 19.866C180.078 19.866 180.498 19.776 180.882 19.596C181.266 19.404 181.614 19.17 181.926 18.894L182.646 20.01C182.202 20.394 181.71 20.694 181.17 20.91C180.63 21.126 180.066 21.234 179.478 21.234ZM184.802 21V6.672H186.458V10.596L186.386 12.612C186.842 12.156 187.328 11.772 187.844 11.46C188.36 11.136 188.954 10.974 189.626 10.974C190.658 10.974 191.414 11.304 191.894 11.964C192.374 12.612 192.614 13.56 192.614 14.808V21H190.976V15.024C190.976 14.1 190.826 13.434 190.526 13.026C190.238 12.618 189.77 12.414 189.122 12.414C188.618 12.414 188.168 12.54 187.772 12.792C187.376 13.044 186.938 13.416 186.458 13.908V21H184.802ZM202.82 21.234C202.136 21.234 201.59 21.102 201.182 20.838C200.774 20.562 200.48 20.178 200.3 19.686C200.132 19.194 200.048 18.624 200.048 17.976V12.558H198.59V11.316L200.138 11.226L200.318 8.472H201.686V11.226H204.35V12.558H201.686V18.03C201.686 18.618 201.794 19.08 202.01 19.416C202.238 19.74 202.634 19.902 203.198 19.902C203.378 19.902 203.57 19.878 203.774 19.83C203.978 19.77 204.158 19.704 204.314 19.632L204.638 20.874C204.362 20.97 204.068 21.054 203.756 21.126C203.444 21.198 203.132 21.234 202.82 21.234ZM210.189 21.234C209.313 21.234 208.521 21.03 207.813 20.622C207.105 20.214 206.541 19.632 206.121 18.876C205.713 18.108 205.509 17.19 205.509 16.122C205.509 15.318 205.629 14.604 205.869 13.98C206.109 13.344 206.433 12.804 206.841 12.36C207.261 11.904 207.735 11.562 208.263 11.334C208.791 11.094 209.331 10.974 209.883 10.974C210.723 10.974 211.431 11.16 212.007 11.532C212.583 11.904 213.021 12.438 213.321 13.134C213.633 13.818 213.789 14.628 213.789 15.564C213.789 15.744 213.783 15.912 213.771 16.068C213.759 16.224 213.741 16.368 213.717 16.5H207.129C207.165 17.196 207.321 17.802 207.597 18.318C207.885 18.822 208.263 19.218 208.731 19.506C209.199 19.782 209.745 19.92 210.369 19.92C210.849 19.92 211.281 19.854 211.665 19.722C212.061 19.578 212.445 19.386 212.817 19.146L213.393 20.244C212.973 20.52 212.499 20.754 211.971 20.946C211.443 21.138 210.849 21.234 210.189 21.234ZM207.111 15.33H212.349C212.349 14.346 212.133 13.596 211.701 13.08C211.281 12.552 210.687 12.288 209.919 12.288C209.463 12.288 209.031 12.408 208.623 12.648C208.227 12.888 207.891 13.23 207.615 13.674C207.351 14.118 207.183 14.67 207.111 15.33ZM220.048 21.234C219.184 21.234 218.404 21.036 217.708 20.64C217.024 20.232 216.478 19.65 216.07 18.894C215.674 18.126 215.476 17.202 215.476 16.122C215.476 15.03 215.692 14.106 216.124 13.35C216.556 12.582 217.132 11.994 217.852 11.586C218.572 11.178 219.346 10.974 220.174 10.974C220.81 10.974 221.356 11.088 221.812 11.316C222.28 11.544 222.682 11.814 223.018 12.126L222.19 13.206C221.914 12.954 221.614 12.75 221.29 12.594C220.978 12.438 220.63 12.36 220.246 12.36C219.658 12.36 219.13 12.516 218.662 12.828C218.194 13.14 217.828 13.578 217.564 14.142C217.3 14.706 217.168 15.366 217.168 16.122C217.168 16.866 217.294 17.52 217.546 18.084C217.81 18.648 218.164 19.086 218.608 19.398C219.064 19.71 219.592 19.866 220.192 19.866C220.648 19.866 221.068 19.776 221.452 19.596C221.836 19.404 222.184 19.17 222.496 18.894L223.216 20.01C222.772 20.394 222.28 20.694 221.74 20.91C221.2 21.126 220.636 21.234 220.048 21.234ZM225.372 21V6.672H227.028V10.596L226.956 12.612C227.412 12.156 227.898 11.772 228.414 11.46C228.93 11.136 229.524 10.974 230.196 10.974C231.228 10.974 231.984 11.304 232.464 11.964C232.944 12.612 233.184 13.56 233.184 14.808V21H231.546V15.024C231.546 14.1 231.396 13.434 231.096 13.026C230.808 12.618 230.34 12.414 229.692 12.414C229.188 12.414 228.738 12.54 228.342 12.792C227.946 13.044 227.508 13.416 227.028 13.908V21H225.372ZM236.305 21V11.226H237.655L237.817 12.648H237.853C238.321 12.18 238.813 11.784 239.329 11.46C239.857 11.136 240.457 10.974 241.129 10.974C242.161 10.974 242.917 11.304 243.397 11.964C243.877 12.612 244.117 13.56 244.117 14.808V21H242.479V15.024C242.479 14.1 242.329 13.434 242.029 13.026C241.741 12.618 241.273 12.414 240.625 12.414C240.121 12.414 239.671 12.54 239.275 12.792C238.879 13.044 238.441 13.416 237.961 13.908V21H236.305ZM251.09 21.234C250.298 21.234 249.554 21.036 248.858 20.64C248.162 20.232 247.604 19.65 247.184 18.894C246.776 18.126 246.572 17.202 246.572 16.122C246.572 15.03 246.776 14.106 247.184 13.35C247.604 12.582 248.162 11.994 248.858 11.586C249.554 11.178 250.298 10.974 251.09 10.974C251.69 10.974 252.26 11.088 252.8 11.316C253.352 11.544 253.838 11.88 254.258 12.324C254.678 12.768 255.008 13.308 255.248 13.944C255.488 14.58 255.608 15.306 255.608 16.122C255.608 17.202 255.398 18.126 254.978 18.894C254.558 19.65 254.006 20.232 253.322 20.64C252.638 21.036 251.894 21.234 251.09 21.234ZM251.09 19.866C251.654 19.866 252.146 19.71 252.566 19.398C252.998 19.086 253.334 18.648 253.574 18.084C253.814 17.52 253.934 16.866 253.934 16.122C253.934 15.366 253.814 14.706 253.574 14.142C253.334 13.578 252.998 13.14 252.566 12.828C252.146 12.516 251.654 12.36 251.09 12.36C250.526 12.36 250.028 12.516 249.596 12.828C249.176 13.14 248.846 13.578 248.606 14.142C248.378 14.706 248.264 15.366 248.264 16.122C248.264 16.866 248.378 17.52 248.606 18.084C248.846 18.648 249.176 19.086 249.596 19.398C250.028 19.71 250.526 19.866 251.09 19.866ZM259.936 21.234C259.528 21.234 259.198 21.15 258.946 20.982C258.694 20.814 258.508 20.568 258.388 20.244C258.268 19.908 258.208 19.512 258.208 19.056V6.672H259.864V19.164C259.864 19.416 259.906 19.596 259.99 19.704C260.086 19.812 260.194 19.866 260.314 19.866C260.362 19.866 260.41 19.866 260.458 19.866C260.506 19.854 260.572 19.842 260.656 19.83L260.89 21.09C260.77 21.126 260.638 21.156 260.494 21.18C260.35 21.216 260.164 21.234 259.936 21.234ZM267.121 21.234C266.329 21.234 265.585 21.036 264.889 20.64C264.193 20.232 263.635 19.65 263.215 18.894C262.807 18.126 262.603 17.202 262.603 16.122C262.603 15.03 262.807 14.106 263.215 13.35C263.635 12.582 264.193 11.994 264.889 11.586C265.585 11.178 266.329 10.974 267.121 10.974C267.721 10.974 268.291 11.088 268.831 11.316C269.383 11.544 269.869 11.88 270.289 12.324C270.709 12.768 271.039 13.308 271.279 13.944C271.519 14.58 271.639 15.306 271.639 16.122C271.639 17.202 271.429 18.126 271.009 18.894C270.589 19.65 270.037 20.232 269.353 20.64C268.669 21.036 267.925 21.234 267.121 21.234ZM267.121 19.866C267.685 19.866 268.177 19.71 268.597 19.398C269.029 19.086 269.365 18.648 269.605 18.084C269.845 17.52 269.965 16.866 269.965 16.122C269.965 15.366 269.845 14.706 269.605 14.142C269.365 13.578 269.029 13.14 268.597 12.828C268.177 12.516 267.685 12.36 267.121 12.36C266.557 12.36 266.059 12.516 265.627 12.828C265.207 13.14 264.877 13.578 264.637 14.142C264.409 14.706 264.295 15.366 264.295 16.122C264.295 16.866 264.409 17.52 264.637 18.084C264.877 18.648 265.207 19.086 265.627 19.398C266.059 19.71 266.557 19.866 267.121 19.866ZM277.533 25.5C276.741 25.5 276.039 25.398 275.427 25.194C274.815 24.99 274.341 24.69 274.005 24.294C273.669 23.91 273.501 23.442 273.501 22.89C273.501 22.47 273.627 22.062 273.879 21.666C274.131 21.282 274.485 20.952 274.941 20.676V20.586C274.689 20.43 274.479 20.22 274.311 19.956C274.143 19.692 274.059 19.368 274.059 18.984C274.059 18.576 274.173 18.216 274.401 17.904C274.641 17.592 274.887 17.346 275.139 17.166V17.094C274.815 16.842 274.521 16.488 274.257 16.032C273.993 15.576 273.861 15.054 273.861 14.466C273.861 13.746 274.029 13.128 274.365 12.612C274.701 12.084 275.145 11.682 275.697 11.406C276.261 11.118 276.867 10.974 277.515 10.974C277.803 10.974 278.061 10.998 278.289 11.046C278.529 11.094 278.733 11.154 278.901 11.226H282.303V12.486H280.305C280.545 12.714 280.737 13.002 280.881 13.35C281.025 13.698 281.097 14.082 281.097 14.502C281.097 15.198 280.935 15.804 280.611 16.32C280.299 16.824 279.873 17.214 279.333 17.49C278.793 17.766 278.187 17.904 277.515 17.904C277.287 17.904 277.041 17.874 276.777 17.814C276.525 17.754 276.291 17.67 276.075 17.562C275.895 17.706 275.745 17.868 275.625 18.048C275.505 18.228 275.445 18.456 275.445 18.732C275.445 19.032 275.565 19.284 275.805 19.488C276.045 19.692 276.495 19.794 277.155 19.794H279.081C280.209 19.794 281.055 19.98 281.619 20.352C282.195 20.724 282.483 21.312 282.483 22.116C282.483 22.716 282.279 23.274 281.871 23.79C281.463 24.306 280.887 24.72 280.143 25.032C279.411 25.344 278.541 25.5 277.533 25.5ZM277.515 16.788C277.899 16.788 278.247 16.692 278.559 16.5C278.883 16.308 279.135 16.038 279.315 15.69C279.507 15.342 279.603 14.934 279.603 14.466C279.603 13.986 279.507 13.578 279.315 13.242C279.135 12.894 278.889 12.63 278.577 12.45C278.265 12.27 277.911 12.18 277.515 12.18C277.143 12.18 276.795 12.27 276.471 12.45C276.159 12.63 275.907 12.888 275.715 13.224C275.535 13.56 275.445 13.974 275.445 14.466C275.445 14.934 275.541 15.342 275.733 15.69C275.925 16.038 276.177 16.308 276.489 16.5C276.801 16.692 277.143 16.788 277.515 16.788ZM277.767 24.366C278.391 24.366 278.931 24.27 279.387 24.078C279.855 23.886 280.215 23.634 280.467 23.322C280.731 23.022 280.863 22.71 280.863 22.386C280.863 21.918 280.695 21.594 280.359 21.414C280.023 21.234 279.531 21.144 278.883 21.144H277.191C277.011 21.144 276.807 21.132 276.579 21.108C276.363 21.096 276.147 21.06 275.931 21C275.583 21.24 275.331 21.504 275.175 21.792C275.019 22.092 274.941 22.38 274.941 22.656C274.941 23.172 275.187 23.586 275.679 23.898C276.183 24.21 276.879 24.366 277.767 24.366ZM284.825 25.212C284.597 25.212 284.387 25.194 284.195 25.158C284.003 25.122 283.829 25.074 283.673 25.014L283.997 23.7C284.093 23.736 284.207 23.772 284.339 23.808C284.471 23.844 284.609 23.862 284.753 23.862C285.305 23.862 285.755 23.658 286.103 23.25C286.463 22.854 286.745 22.356 286.949 21.756L287.165 21.018L283.241 11.226H284.951L286.931 16.644C287.087 17.076 287.243 17.532 287.399 18.012C287.567 18.492 287.735 18.96 287.903 19.416H287.993C288.125 18.96 288.257 18.498 288.389 18.03C288.533 17.55 288.665 17.088 288.785 16.644L290.549 11.226H292.151L288.479 21.828C288.251 22.464 287.975 23.034 287.651 23.538C287.327 24.054 286.937 24.462 286.481 24.762C286.025 25.062 285.473 25.212 284.825 25.212ZM298.075 21V11.226H299.425L299.587 12.648H299.623C300.091 12.18 300.583 11.784 301.099 11.46C301.627 11.136 302.227 10.974 302.899 10.974C303.931 10.974 304.687 11.304 305.167 11.964C305.647 12.612 305.887 13.56 305.887 14.808V21H304.249V15.024C304.249 14.1 304.099 13.434 303.799 13.026C303.511 12.618 303.043 12.414 302.395 12.414C301.891 12.414 301.441 12.54 301.045 12.792C300.649 13.044 300.211 13.416 299.731 13.908V21H298.075ZM312.859 21.234C312.067 21.234 311.323 21.036 310.627 20.64C309.931 20.232 309.373 19.65 308.953 18.894C308.545 18.126 308.341 17.202 308.341 16.122C308.341 15.03 308.545 14.106 308.953 13.35C309.373 12.582 309.931 11.994 310.627 11.586C311.323 11.178 312.067 10.974 312.859 10.974C313.459 10.974 314.029 11.088 314.569 11.316C315.121 11.544 315.607 11.88 316.027 12.324C316.447 12.768 316.777 13.308 317.017 13.944C317.257 14.58 317.377 15.306 317.377 16.122C317.377 17.202 317.167 18.126 316.747 18.894C316.327 19.65 315.775 20.232 315.091 20.64C314.407 21.036 313.663 21.234 312.859 21.234ZM312.859 19.866C313.423 19.866 313.915 19.71 314.335 19.398C314.767 19.086 315.103 18.648 315.343 18.084C315.583 17.52 315.703 16.866 315.703 16.122C315.703 15.366 315.583 14.706 315.343 14.142C315.103 13.578 314.767 13.14 314.335 12.828C313.915 12.516 313.423 12.36 312.859 12.36C312.295 12.36 311.797 12.516 311.365 12.828C310.945 13.14 310.615 13.578 310.375 14.142C310.147 14.706 310.033 15.366 310.033 16.122C310.033 16.866 310.147 17.52 310.375 18.084C310.615 18.648 310.945 19.086 311.365 19.398C311.797 19.71 312.295 19.866 312.859 19.866ZM323.307 21.234C322.491 21.234 321.777 21.036 321.165 20.64C320.565 20.244 320.097 19.668 319.761 18.912C319.437 18.144 319.275 17.214 319.275 16.122C319.275 15.066 319.473 14.154 319.869 13.386C320.265 12.618 320.781 12.024 321.417 11.604C322.065 11.184 322.761 10.974 323.505 10.974C324.081 10.974 324.573 11.076 324.981 11.28C325.401 11.472 325.827 11.748 326.259 12.108L326.169 10.434V6.672H327.825V21H326.475L326.331 19.848H326.277C325.893 20.232 325.449 20.562 324.945 20.838C324.441 21.102 323.895 21.234 323.307 21.234ZM323.667 19.848C324.123 19.848 324.555 19.74 324.963 19.524C325.371 19.296 325.773 18.96 326.169 18.516V13.386C325.761 13.014 325.365 12.75 324.981 12.594C324.597 12.438 324.201 12.36 323.793 12.36C323.277 12.36 322.803 12.522 322.371 12.846C321.951 13.158 321.609 13.596 321.345 14.16C321.093 14.712 320.967 15.36 320.967 16.104C320.967 16.884 321.075 17.556 321.291 18.12C321.507 18.684 321.813 19.116 322.209 19.416C322.617 19.704 323.103 19.848 323.667 19.848ZM335.099 21.234C334.223 21.234 333.431 21.03 332.723 20.622C332.015 20.214 331.451 19.632 331.031 18.876C330.623 18.108 330.419 17.19 330.419 16.122C330.419 15.318 330.539 14.604 330.779 13.98C331.019 13.344 331.343 12.804 331.751 12.36C332.171 11.904 332.645 11.562 333.173 11.334C333.701 11.094 334.241 10.974 334.793 10.974C335.633 10.974 336.341 11.16 336.917 11.532C337.493 11.904 337.931 12.438 338.231 13.134C338.543 13.818 338.699 14.628 338.699 15.564C338.699 15.744 338.693 15.912 338.681 16.068C338.669 16.224 338.651 16.368 338.627 16.5H332.039C332.075 17.196 332.231 17.802 332.507 18.318C332.795 18.822 333.173 19.218 333.641 19.506C334.109 19.782 334.655 19.92 335.279 19.92C335.759 19.92 336.191 19.854 336.575 19.722C336.971 19.578 337.355 19.386 337.727 19.146L338.303 20.244C337.883 20.52 337.409 20.754 336.881 20.946C336.353 21.138 335.759 21.234 335.099 21.234ZM332.021 15.33H337.259C337.259 14.346 337.043 13.596 336.611 13.08C336.191 12.552 335.597 12.288 334.829 12.288C334.373 12.288 333.941 12.408 333.533 12.648C333.137 12.888 332.801 13.23 332.525 13.674C332.261 14.118 332.093 14.67 332.021 15.33ZM340.8 24.42L340.404 23.448C340.968 23.196 341.412 22.854 341.736 22.422C342.06 21.99 342.216 21.498 342.204 20.946L342.024 19.47L342.834 20.676C342.714 20.808 342.582 20.904 342.438 20.964C342.306 21.012 342.162 21.036 342.006 21.036C341.682 21.036 341.4 20.934 341.16 20.73C340.92 20.526 340.8 20.244 340.8 19.884C340.8 19.524 340.92 19.242 341.16 19.038C341.412 18.834 341.706 18.732 342.042 18.732C342.474 18.732 342.81 18.906 343.05 19.254C343.302 19.59 343.428 20.058 343.428 20.658C343.428 21.522 343.188 22.278 342.708 22.926C342.24 23.574 341.604 24.072 340.8 24.42ZM353.939 21.234C353.147 21.234 352.403 21.036 351.707 20.64C351.011 20.232 350.453 19.65 350.033 18.894C349.625 18.126 349.421 17.202 349.421 16.122C349.421 15.03 349.625 14.106 350.033 13.35C350.453 12.582 351.011 11.994 351.707 11.586C352.403 11.178 353.147 10.974 353.939 10.974C354.539 10.974 355.109 11.088 355.649 11.316C356.201 11.544 356.687 11.88 357.107 12.324C357.527 12.768 357.857 13.308 358.097 13.944C358.337 14.58 358.457 15.306 358.457 16.122C358.457 17.202 358.247 18.126 357.827 18.894C357.407 19.65 356.855 20.232 356.171 20.64C355.487 21.036 354.743 21.234 353.939 21.234ZM353.939 19.866C354.503 19.866 354.995 19.71 355.415 19.398C355.847 19.086 356.183 18.648 356.423 18.084C356.663 17.52 356.783 16.866 356.783 16.122C356.783 15.366 356.663 14.706 356.423 14.142C356.183 13.578 355.847 13.14 355.415 12.828C354.995 12.516 354.503 12.36 353.939 12.36C353.375 12.36 352.877 12.516 352.445 12.828C352.025 13.14 351.695 13.578 351.455 14.142C351.227 14.706 351.113 15.366 351.113 16.122C351.113 16.866 351.227 17.52 351.455 18.084C351.695 18.648 352.025 19.086 352.445 19.398C352.877 19.71 353.375 19.866 353.939 19.866ZM361.057 21V11.226H362.407L362.569 12.648H362.605C363.073 12.18 363.565 11.784 364.081 11.46C364.609 11.136 365.209 10.974 365.881 10.974C366.913 10.974 367.669 11.304 368.149 11.964C368.629 12.612 368.869 13.56 368.869 14.808V21H367.231V15.024C367.231 14.1 367.081 13.434 366.781 13.026C366.493 12.618 366.025 12.414 365.377 12.414C364.873 12.414 364.423 12.54 364.027 12.792C363.631 13.044 363.193 13.416 362.713 13.908V21H361.057ZM378.319 21.234C377.779 21.234 377.293 21.126 376.861 20.91C376.429 20.694 376.087 20.382 375.835 19.974C375.595 19.554 375.475 19.05 375.475 18.462C375.475 17.394 375.949 16.578 376.897 16.014C377.857 15.438 379.381 15.036 381.469 14.808C381.469 14.388 381.409 13.992 381.289 13.62C381.181 13.236 380.983 12.93 380.695 12.702C380.407 12.462 379.993 12.342 379.453 12.342C378.889 12.342 378.355 12.456 377.851 12.684C377.359 12.9 376.915 13.134 376.519 13.386L375.889 12.252C376.189 12.06 376.537 11.868 376.933 11.676C377.329 11.472 377.761 11.304 378.229 11.172C378.697 11.04 379.195 10.974 379.723 10.974C380.515 10.974 381.157 11.142 381.649 11.478C382.153 11.814 382.519 12.282 382.747 12.882C382.987 13.47 383.107 14.172 383.107 14.988V21H381.757L381.613 19.83H381.559C381.103 20.214 380.599 20.544 380.047 20.82C379.507 21.096 378.931 21.234 378.319 21.234ZM378.787 19.902C379.255 19.902 379.699 19.794 380.119 19.578C380.551 19.362 381.001 19.044 381.469 18.624V15.906C380.377 16.026 379.507 16.2 378.859 16.428C378.211 16.644 377.749 16.914 377.473 17.238C377.197 17.55 377.059 17.922 377.059 18.354C377.059 18.918 377.227 19.32 377.563 19.56C377.899 19.788 378.307 19.902 378.787 19.902ZM392.793 21.234C392.109 21.234 391.443 21.108 390.795 20.856C390.159 20.592 389.613 20.268 389.157 19.884L389.949 18.786C390.381 19.134 390.825 19.416 391.281 19.632C391.737 19.848 392.259 19.956 392.847 19.956C393.495 19.956 393.975 19.812 394.287 19.524C394.611 19.224 394.773 18.858 394.773 18.426C394.773 18.09 394.659 17.814 394.431 17.598C394.215 17.37 393.933 17.178 393.585 17.022C393.249 16.854 392.901 16.704 392.541 16.572C392.085 16.392 391.635 16.194 391.191 15.978C390.759 15.75 390.399 15.462 390.111 15.114C389.835 14.754 389.697 14.298 389.697 13.746C389.697 13.218 389.829 12.75 390.093 12.342C390.357 11.922 390.741 11.592 391.245 11.352C391.749 11.1 392.355 10.974 393.063 10.974C393.663 10.974 394.221 11.082 394.737 11.298C395.265 11.514 395.715 11.778 396.087 12.09L395.295 13.116C394.959 12.876 394.611 12.672 394.251 12.504C393.903 12.336 393.513 12.252 393.081 12.252C392.457 12.252 391.995 12.396 391.695 12.684C391.407 12.96 391.263 13.29 391.263 13.674C391.263 13.974 391.359 14.226 391.551 14.43C391.755 14.634 392.019 14.808 392.343 14.952C392.667 15.084 393.009 15.222 393.369 15.366C393.729 15.498 394.083 15.642 394.431 15.798C394.791 15.954 395.109 16.14 395.385 16.356C395.673 16.572 395.901 16.842 396.069 17.166C396.249 17.478 396.339 17.868 396.339 18.336C396.339 18.864 396.201 19.35 395.925 19.794C395.661 20.238 395.265 20.592 394.737 20.856C394.221 21.108 393.573 21.234 392.793 21.234ZM398.657 21V11.226H400.313V21H398.657ZM399.485 9.21C399.161 9.21 398.897 9.114 398.693 8.922C398.501 8.718 398.405 8.448 398.405 8.112C398.405 7.788 398.501 7.53 398.693 7.338C398.897 7.146 399.161 7.05 399.485 7.05C399.809 7.05 400.073 7.146 400.277 7.338C400.481 7.53 400.583 7.788 400.583 8.112C400.583 8.448 400.481 8.718 400.277 8.922C400.073 9.114 399.809 9.21 399.485 9.21ZM403.614 21V11.226H404.964L405.126 12.648H405.162C405.63 12.18 406.122 11.784 406.638 11.46C407.166 11.136 407.766 10.974 408.438 10.974C409.47 10.974 410.226 11.304 410.706 11.964C411.186 12.612 411.426 13.56 411.426 14.808V21H409.788V15.024C409.788 14.1 409.638 13.434 409.338 13.026C409.05 12.618 408.582 12.414 407.934 12.414C407.43 12.414 406.98 12.54 406.584 12.792C406.188 13.044 405.75 13.416 405.27 13.908V21H403.614ZM417.894 25.5C417.102 25.5 416.4 25.398 415.788 25.194C415.176 24.99 414.702 24.69 414.366 24.294C414.03 23.91 413.862 23.442 413.862 22.89C413.862 22.47 413.988 22.062 414.24 21.666C414.492 21.282 414.846 20.952 415.302 20.676V20.586C415.05 20.43 414.84 20.22 414.672 19.956C414.504 19.692 414.42 19.368 414.42 18.984C414.42 18.576 414.534 18.216 414.762 17.904C415.002 17.592 415.248 17.346 415.5 17.166V17.094C415.176 16.842 414.882 16.488 414.618 16.032C414.354 15.576 414.222 15.054 414.222 14.466C414.222 13.746 414.39 13.128 414.726 12.612C415.062 12.084 415.506 11.682 416.058 11.406C416.622 11.118 417.228 10.974 417.876 10.974C418.164 10.974 418.422 10.998 418.65 11.046C418.89 11.094 419.094 11.154 419.262 11.226H422.664V12.486H420.666C420.906 12.714 421.098 13.002 421.242 13.35C421.386 13.698 421.458 14.082 421.458 14.502C421.458 15.198 421.296 15.804 420.972 16.32C420.66 16.824 420.234 17.214 419.694 17.49C419.154 17.766 418.548 17.904 417.876 17.904C417.648 17.904 417.402 17.874 417.138 17.814C416.886 17.754 416.652 17.67 416.436 17.562C416.256 17.706 416.106 17.868 415.986 18.048C415.866 18.228 415.806 18.456 415.806 18.732C415.806 19.032 415.926 19.284 416.166 19.488C416.406 19.692 416.856 19.794 417.516 19.794H419.442C420.57 19.794 421.416 19.98 421.98 20.352C422.556 20.724 422.844 21.312 422.844 22.116C422.844 22.716 422.64 23.274 422.232 23.79C421.824 24.306 421.248 24.72 420.504 25.032C419.772 25.344 418.902 25.5 417.894 25.5ZM417.876 16.788C418.26 16.788 418.608 16.692 418.92 16.5C419.244 16.308 419.496 16.038 419.676 15.69C419.868 15.342 419.964 14.934 419.964 14.466C419.964 13.986 419.868 13.578 419.676 13.242C419.496 12.894 419.25 12.63 418.938 12.45C418.626 12.27 418.272 12.18 417.876 12.18C417.504 12.18 417.156 12.27 416.832 12.45C416.52 12.63 416.268 12.888 416.076 13.224C415.896 13.56 415.806 13.974 415.806 14.466C415.806 14.934 415.902 15.342 416.094 15.69C416.286 16.038 416.538 16.308 416.85 16.5C417.162 16.692 417.504 16.788 417.876 16.788ZM418.128 24.366C418.752 24.366 419.292 24.27 419.748 24.078C420.216 23.886 420.576 23.634 420.828 23.322C421.092 23.022 421.224 22.71 421.224 22.386C421.224 21.918 421.056 21.594 420.72 21.414C420.384 21.234 419.892 21.144 419.244 21.144H417.552C417.372 21.144 417.168 21.132 416.94 21.108C416.724 21.096 416.508 21.06 416.292 21C415.944 21.24 415.692 21.504 415.536 21.792C415.38 22.092 415.302 22.38 415.302 22.656C415.302 23.172 415.548 23.586 416.04 23.898C416.544 24.21 417.24 24.366 418.128 24.366ZM426.488 21.234C426.08 21.234 425.75 21.15 425.498 20.982C425.246 20.814 425.06 20.568 424.94 20.244C424.82 19.908 424.76 19.512 424.76 19.056V6.672H426.416V19.164C426.416 19.416 426.458 19.596 426.542 19.704C426.638 19.812 426.746 19.866 426.866 19.866C426.914 19.866 426.962 19.866 427.01 19.866C427.058 19.854 427.124 19.842 427.208 19.83L427.442 21.09C427.322 21.126 427.19 21.156 427.046 21.18C426.902 21.216 426.716 21.234 426.488 21.234ZM433.836 21.234C432.96 21.234 432.168 21.03 431.46 20.622C430.752 20.214 430.188 19.632 429.768 18.876C429.36 18.108 429.156 17.19 429.156 16.122C429.156 15.318 429.276 14.604 429.516 13.98C429.756 13.344 430.08 12.804 430.488 12.36C430.908 11.904 431.382 11.562 431.91 11.334C432.438 11.094 432.978 10.974 433.53 10.974C434.37 10.974 435.078 11.16 435.654 11.532C436.23 11.904 436.668 12.438 436.968 13.134C437.28 13.818 437.436 14.628 437.436 15.564C437.436 15.744 437.43 15.912 437.418 16.068C437.406 16.224 437.388 16.368 437.364 16.5H430.776C430.812 17.196 430.968 17.802 431.244 18.318C431.532 18.822 431.91 19.218 432.378 19.506C432.846 19.782 433.392 19.92 434.016 19.92C434.496 19.92 434.928 19.854 435.312 19.722C435.708 19.578 436.092 19.386 436.464 19.146L437.04 20.244C436.62 20.52 436.146 20.754 435.618 20.946C435.09 21.138 434.496 21.234 433.836 21.234ZM430.758 15.33H435.996C435.996 14.346 435.78 13.596 435.348 13.08C434.928 12.552 434.334 12.288 433.566 12.288C433.11 12.288 432.678 12.408 432.27 12.648C431.874 12.888 431.538 13.23 431.262 13.674C430.998 14.118 430.83 14.67 430.758 15.33ZM445.416 21L442.698 11.226H444.372L445.83 16.878C445.938 17.346 446.034 17.802 446.118 18.246C446.214 18.69 446.31 19.14 446.406 19.596H446.496C446.604 19.14 446.706 18.69 446.802 18.246C446.91 17.802 447.024 17.346 447.144 16.878L448.674 11.226H450.276L451.806 16.878C451.926 17.346 452.04 17.802 452.148 18.246C452.268 18.69 452.382 19.14 452.49 19.596H452.58C452.676 19.14 452.772 18.69 452.868 18.246C452.964 17.802 453.066 17.346 453.174 16.878L454.596 11.226H456.18L453.534 21H451.536L450.132 15.726C450.012 15.27 449.898 14.814 449.79 14.358C449.682 13.89 449.574 13.41 449.466 12.918H449.376C449.268 13.41 449.16 13.89 449.052 14.358C448.956 14.826 448.842 15.294 448.71 15.762L447.324 21H445.416ZM460.303 21.234C459.763 21.234 459.277 21.126 458.845 20.91C458.413 20.694 458.071 20.382 457.819 19.974C457.579 19.554 457.459 19.05 457.459 18.462C457.459 17.394 457.933 16.578 458.881 16.014C459.841 15.438 461.365 15.036 463.453 14.808C463.453 14.388 463.393 13.992 463.273 13.62C463.165 13.236 462.967 12.93 462.679 12.702C462.391 12.462 461.977 12.342 461.437 12.342C460.873 12.342 460.339 12.456 459.835 12.684C459.343 12.9 458.899 13.134 458.503 13.386L457.873 12.252C458.173 12.06 458.521 11.868 458.917 11.676C459.313 11.472 459.745 11.304 460.213 11.172C460.681 11.04 461.179 10.974 461.707 10.974C462.499 10.974 463.141 11.142 463.633 11.478C464.137 11.814 464.503 12.282 464.731 12.882C464.971 13.47 465.091 14.172 465.091 14.988V21H463.741L463.597 19.83H463.543C463.087 20.214 462.583 20.544 462.031 20.82C461.491 21.096 460.915 21.234 460.303 21.234ZM460.771 19.902C461.239 19.902 461.683 19.794 462.103 19.578C462.535 19.362 462.985 19.044 463.453 18.624V15.906C462.361 16.026 461.491 16.2 460.843 16.428C460.195 16.644 459.733 16.914 459.457 17.238C459.181 17.55 459.043 17.922 459.043 18.354C459.043 18.918 459.211 19.32 459.547 19.56C459.883 19.788 460.291 19.902 460.771 19.902ZM468.466 21V9.66C468.466 9 468.568 8.43 468.772 7.95C468.976 7.47 469.288 7.098 469.708 6.834C470.128 6.57 470.662 6.438 471.31 6.438C471.61 6.438 471.898 6.468 472.174 6.528C472.462 6.588 472.72 6.66 472.948 6.744L472.588 8.022C472.228 7.842 471.862 7.752 471.49 7.752C471.022 7.752 470.674 7.914 470.446 8.238C470.218 8.562 470.104 9.042 470.104 9.678V21H468.466ZM467.134 12.558V11.316L468.538 11.226H472.174V12.558H467.134ZM477.763 21.234C476.887 21.234 476.095 21.03 475.387 20.622C474.679 20.214 474.115 19.632 473.695 18.876C473.287 18.108 473.083 17.19 473.083 16.122C473.083 15.318 473.203 14.604 473.443 13.98C473.683 13.344 474.007 12.804 474.415 12.36C474.835 11.904 475.309 11.562 475.837 11.334C476.365 11.094 476.905 10.974 477.457 10.974C478.297 10.974 479.005 11.16 479.581 11.532C480.157 11.904 480.595 12.438 480.895 13.134C481.207 13.818 481.363 14.628 481.363 15.564C481.363 15.744 481.357 15.912 481.345 16.068C481.333 16.224 481.315 16.368 481.291 16.5H474.703C474.739 17.196 474.895 17.802 475.171 18.318C475.459 18.822 475.837 19.218 476.305 19.506C476.773 19.782 477.319 19.92 477.943 19.92C478.423 19.92 478.855 19.854 479.239 19.722C479.635 19.578 480.019 19.386 480.391 19.146L480.967 20.244C480.547 20.52 480.073 20.754 479.545 20.946C479.017 21.138 478.423 21.234 477.763 21.234ZM474.685 15.33H479.923C479.923 14.346 479.707 13.596 479.275 13.08C478.855 12.552 478.261 12.288 477.493 12.288C477.037 12.288 476.605 12.408 476.197 12.648C475.801 12.888 475.465 13.23 475.189 13.674C474.925 14.118 474.757 14.67 474.685 15.33ZM483.77 21V11.226H485.12L485.282 13.008H485.318C485.654 12.384 486.062 11.892 486.542 11.532C487.034 11.16 487.55 10.974 488.09 10.974C488.318 10.974 488.51 10.992 488.666 11.028C488.834 11.052 488.99 11.106 489.134 11.19L488.828 12.612C488.66 12.564 488.51 12.528 488.378 12.504C488.246 12.468 488.078 12.45 487.874 12.45C487.478 12.45 487.052 12.624 486.596 12.972C486.14 13.308 485.75 13.89 485.426 14.718V21H483.77ZM499.076 21.234C498.632 21.234 498.164 21.126 497.672 20.91C497.18 20.694 496.724 20.388 496.304 19.992H496.232L496.088 21H494.774V6.672H496.43V10.596L496.358 12.342C496.802 11.958 497.288 11.634 497.816 11.37C498.344 11.106 498.884 10.974 499.436 10.974C500.276 10.974 500.984 11.184 501.56 11.604C502.136 12.012 502.574 12.588 502.874 13.332C503.174 14.076 503.324 14.952 503.324 15.96C503.324 17.064 503.12 18.012 502.712 18.804C502.316 19.596 501.794 20.202 501.146 20.622C500.51 21.03 499.82 21.234 499.076 21.234ZM498.806 19.848C499.346 19.848 499.826 19.698 500.246 19.398C500.678 19.086 501.014 18.642 501.254 18.066C501.494 17.478 501.614 16.782 501.614 15.978C501.614 15.258 501.524 14.628 501.344 14.088C501.176 13.536 500.906 13.11 500.534 12.81C500.162 12.51 499.658 12.36 499.022 12.36C498.614 12.36 498.194 12.474 497.762 12.702C497.33 12.93 496.886 13.26 496.43 13.692V18.84C496.85 19.212 497.27 19.476 497.69 19.632C498.122 19.776 498.494 19.848 498.806 19.848ZM507.817 21.234C507.277 21.234 506.791 21.126 506.359 20.91C505.927 20.694 505.585 20.382 505.333 19.974C505.093 19.554 504.973 19.05 504.973 18.462C504.973 17.394 505.447 16.578 506.395 16.014C507.355 15.438 508.879 15.036 510.967 14.808C510.967 14.388 510.907 13.992 510.787 13.62C510.679 13.236 510.481 12.93 510.193 12.702C509.905 12.462 509.491 12.342 508.951 12.342C508.387 12.342 507.853 12.456 507.349 12.684C506.857 12.9 506.413 13.134 506.017 13.386L505.387 12.252C505.687 12.06 506.035 11.868 506.431 11.676C506.827 11.472 507.259 11.304 507.727 11.172C508.195 11.04 508.693 10.974 509.221 10.974C510.013 10.974 510.655 11.142 511.147 11.478C511.651 11.814 512.017 12.282 512.245 12.882C512.485 13.47 512.605 14.172 512.605 14.988V21H511.255L511.111 19.83H511.057C510.601 20.214 510.097 20.544 509.545 20.82C509.005 21.096 508.429 21.234 507.817 21.234ZM508.285 19.902C508.753 19.902 509.197 19.794 509.617 19.578C510.049 19.362 510.499 19.044 510.967 18.624V15.906C509.875 16.026 509.005 16.2 508.357 16.428C507.709 16.644 507.247 16.914 506.971 17.238C506.695 17.55 506.557 17.922 506.557 18.354C506.557 18.918 506.725 19.32 507.061 19.56C507.397 19.788 507.805 19.902 508.285 19.902ZM518.266 21.234C517.582 21.234 516.916 21.108 516.268 20.856C515.632 20.592 515.086 20.268 514.63 19.884L515.422 18.786C515.854 19.134 516.298 19.416 516.754 19.632C517.21 19.848 517.732 19.956 518.32 19.956C518.968 19.956 519.448 19.812 519.76 19.524C520.084 19.224 520.246 18.858 520.246 18.426C520.246 18.09 520.132 17.814 519.904 17.598C519.688 17.37 519.406 17.178 519.058 17.022C518.722 16.854 518.374 16.704 518.014 16.572C517.558 16.392 517.108 16.194 516.664 15.978C516.232 15.75 515.872 15.462 515.584 15.114C515.308 14.754 515.17 14.298 515.17 13.746C515.17 13.218 515.302 12.75 515.566 12.342C515.83 11.922 516.214 11.592 516.718 11.352C517.222 11.1 517.828 10.974 518.536 10.974C519.136 10.974 519.694 11.082 520.21 11.298C520.738 11.514 521.188 11.778 521.56 12.09L520.768 13.116C520.432 12.876 520.084 12.672 519.724 12.504C519.376 12.336 518.986 12.252 518.554 12.252C517.93 12.252 517.468 12.396 517.168 12.684C516.88 12.96 516.736 13.29 516.736 13.674C516.736 13.974 516.832 14.226 517.024 14.43C517.228 14.634 517.492 14.808 517.816 14.952C518.14 15.084 518.482 15.222 518.842 15.366C519.202 15.498 519.556 15.642 519.904 15.798C520.264 15.954 520.582 16.14 520.858 16.356C521.146 16.572 521.374 16.842 521.542 17.166C521.722 17.478 521.812 17.868 521.812 18.336C521.812 18.864 521.674 19.35 521.398 19.794C521.134 20.238 520.738 20.592 520.21 20.856C519.694 21.108 519.046 21.234 518.266 21.234ZM524.13 21V11.226H525.786V21H524.13ZM524.958 9.21C524.634 9.21 524.37 9.114 524.166 8.922C523.974 8.718 523.878 8.448 523.878 8.112C523.878 7.788 523.974 7.53 524.166 7.338C524.37 7.146 524.634 7.05 524.958 7.05C525.282 7.05 525.546 7.146 525.75 7.338C525.954 7.53 526.056 7.788 526.056 8.112C526.056 8.448 525.954 8.718 525.75 8.922C525.546 9.114 525.282 9.21 524.958 9.21ZM531.643 21.234C530.959 21.234 530.293 21.108 529.645 20.856C529.009 20.592 528.463 20.268 528.007 19.884L528.799 18.786C529.231 19.134 529.675 19.416 530.131 19.632C530.587 19.848 531.109 19.956 531.697 19.956C532.345 19.956 532.825 19.812 533.137 19.524C533.461 19.224 533.623 18.858 533.623 18.426C533.623 18.09 533.509 17.814 533.281 17.598C533.065 17.37 532.783 17.178 532.435 17.022C532.099 16.854 531.751 16.704 531.391 16.572C530.935 16.392 530.485 16.194 530.041 15.978C529.609 15.75 529.249 15.462 528.961 15.114C528.685 14.754 528.547 14.298 528.547 13.746C528.547 13.218 528.679 12.75 528.943 12.342C529.207 11.922 529.591 11.592 530.095 11.352C530.599 11.1 531.205 10.974 531.913 10.974C532.513 10.974 533.071 11.082 533.587 11.298C534.115 11.514 534.565 11.778 534.937 12.09L534.145 13.116C533.809 12.876 533.461 12.672 533.101 12.504C532.753 12.336 532.363 12.252 531.931 12.252C531.307 12.252 530.845 12.396 530.545 12.684C530.257 12.96 530.113 13.29 530.113 13.674C530.113 13.974 530.209 14.226 530.401 14.43C530.605 14.634 530.869 14.808 531.193 14.952C531.517 15.084 531.859 15.222 532.219 15.366C532.579 15.498 532.933 15.642 533.281 15.798C533.641 15.954 533.959 16.14 534.235 16.356C534.523 16.572 534.751 16.842 534.919 17.166C535.099 17.478 535.189 17.868 535.189 18.336C535.189 18.864 535.051 19.35 534.775 19.794C534.511 20.238 534.115 20.592 533.587 20.856C533.071 21.108 532.423 21.234 531.643 21.234ZM537.201 24.42L536.805 23.448C537.369 23.196 537.813 22.854 538.137 22.422C538.461 21.99 538.617 21.498 538.605 20.946L538.425 19.47L539.235 20.676C539.115 20.808 538.983 20.904 538.839 20.964C538.707 21.012 538.563 21.036 538.407 21.036C538.083 21.036 537.801 20.934 537.561 20.73C537.321 20.526 537.201 20.244 537.201 19.884C537.201 19.524 537.321 19.242 537.561 19.038C537.813 18.834 538.107 18.732 538.443 18.732C538.875 18.732 539.211 18.906 539.451 19.254C539.703 19.59 539.829 20.058 539.829 20.658C539.829 21.522 539.589 22.278 539.109 22.926C538.641 23.574 538.005 24.072 537.201 24.42ZM171.201 48.234C170.325 48.234 169.533 48.03 168.825 47.622C168.117 47.214 167.553 46.632 167.133 45.876C166.725 45.108 166.521 44.19 166.521 43.122C166.521 42.318 166.641 41.604 166.881 40.98C167.121 40.344 167.445 39.804 167.853 39.36C168.273 38.904 168.747 38.562 169.275 38.334C169.803 38.094 170.343 37.974 170.895 37.974C171.735 37.974 172.443 38.16 173.019 38.532C173.595 38.904 174.033 39.438 174.333 40.134C174.645 40.818 174.801 41.628 174.801 42.564C174.801 42.744 174.795 42.912 174.783 43.068C174.771 43.224 174.753 43.368 174.729 43.5H168.141C168.177 44.196 168.333 44.802 168.609 45.318C168.897 45.822 169.275 46.218 169.743 46.506C170.211 46.782 170.757 46.92 171.381 46.92C171.861 46.92 172.293 46.854 172.677 46.722C173.073 46.578 173.457 46.386 173.829 46.146L174.405 47.244C173.985 47.52 173.511 47.754 172.983 47.946C172.455 48.138 171.861 48.234 171.201 48.234ZM168.123 42.33H173.361C173.361 41.346 173.145 40.596 172.713 40.08C172.293 39.552 171.699 39.288 170.931 39.288C170.475 39.288 170.043 39.408 169.635 39.648C169.239 39.888 168.903 40.23 168.627 40.674C168.363 41.118 168.195 41.67 168.123 42.33ZM175.628 48L178.85 42.906L175.88 38.226H177.662L178.976 40.368C179.12 40.644 179.27 40.92 179.426 41.196C179.594 41.46 179.762 41.73 179.93 42.006H180.02C180.152 41.73 180.29 41.46 180.434 41.196C180.59 40.92 180.74 40.644 180.884 40.368L182.09 38.226H183.8L180.83 43.068L184.052 48H182.252L180.812 45.714C180.644 45.414 180.47 45.12 180.29 44.832C180.122 44.532 179.942 44.244 179.75 43.968H179.66C179.504 44.244 179.342 44.532 179.174 44.832C179.018 45.12 178.85 45.414 178.67 45.714L177.356 48H175.628ZM185.979 52.122V38.226H187.329L187.491 39.36H187.527C187.971 38.988 188.457 38.664 188.985 38.388C189.525 38.112 190.077 37.974 190.641 37.974C191.481 37.974 192.189 38.184 192.765 38.604C193.353 39.012 193.791 39.588 194.079 40.332C194.379 41.076 194.529 41.952 194.529 42.96C194.529 44.076 194.325 45.03 193.917 45.822C193.521 46.602 192.999 47.202 192.351 47.622C191.715 48.03 191.025 48.234 190.281 48.234C189.837 48.234 189.387 48.138 188.931 47.946C188.475 47.742 188.025 47.46 187.581 47.1L187.635 48.81V52.122H185.979ZM190.011 46.848C190.551 46.848 191.031 46.698 191.451 46.398C191.883 46.086 192.219 45.642 192.459 45.066C192.699 44.478 192.819 43.782 192.819 42.978C192.819 42.258 192.729 41.628 192.549 41.088C192.381 40.536 192.111 40.11 191.739 39.81C191.367 39.51 190.863 39.36 190.227 39.36C189.819 39.36 189.399 39.474 188.967 39.702C188.547 39.93 188.103 40.26 187.635 40.692V45.84C188.067 46.212 188.493 46.476 188.913 46.632C189.333 46.776 189.699 46.848 190.011 46.848ZM201.101 48.234C200.225 48.234 199.433 48.03 198.725 47.622C198.017 47.214 197.453 46.632 197.033 45.876C196.625 45.108 196.421 44.19 196.421 43.122C196.421 42.318 196.541 41.604 196.781 40.98C197.021 40.344 197.345 39.804 197.753 39.36C198.173 38.904 198.647 38.562 199.175 38.334C199.703 38.094 200.243 37.974 200.795 37.974C201.635 37.974 202.343 38.16 202.919 38.532C203.495 38.904 203.933 39.438 204.233 40.134C204.545 40.818 204.701 41.628 204.701 42.564C204.701 42.744 204.695 42.912 204.683 43.068C204.671 43.224 204.653 43.368 204.629 43.5H198.041C198.077 44.196 198.233 44.802 198.509 45.318C198.797 45.822 199.175 46.218 199.643 46.506C200.111 46.782 200.657 46.92 201.281 46.92C201.761 46.92 202.193 46.854 202.577 46.722C202.973 46.578 203.357 46.386 203.729 46.146L204.305 47.244C203.885 47.52 203.411 47.754 202.883 47.946C202.355 48.138 201.761 48.234 201.101 48.234ZM198.023 42.33H203.261C203.261 41.346 203.045 40.596 202.613 40.08C202.193 39.552 201.599 39.288 200.831 39.288C200.375 39.288 199.943 39.408 199.535 39.648C199.139 39.888 198.803 40.23 198.527 40.674C198.263 41.118 198.095 41.67 198.023 42.33ZM210.96 48.234C210.096 48.234 209.316 48.036 208.62 47.64C207.936 47.232 207.39 46.65 206.982 45.894C206.586 45.126 206.388 44.202 206.388 43.122C206.388 42.03 206.604 41.106 207.036 40.35C207.468 39.582 208.044 38.994 208.764 38.586C209.484 38.178 210.258 37.974 211.086 37.974C211.722 37.974 212.268 38.088 212.724 38.316C213.192 38.544 213.594 38.814 213.93 39.126L213.102 40.206C212.826 39.954 212.526 39.75 212.202 39.594C211.89 39.438 211.542 39.36 211.158 39.36C210.57 39.36 210.042 39.516 209.574 39.828C209.106 40.14 208.74 40.578 208.476 41.142C208.212 41.706 208.08 42.366 208.08 43.122C208.08 43.866 208.206 44.52 208.458 45.084C208.722 45.648 209.076 46.086 209.52 46.398C209.976 46.71 210.504 46.866 211.104 46.866C211.56 46.866 211.98 46.776 212.364 46.596C212.748 46.404 213.096 46.17 213.408 45.894L214.128 47.01C213.684 47.394 213.192 47.694 212.652 47.91C212.112 48.126 211.548 48.234 210.96 48.234ZM219.098 48.234C218.414 48.234 217.868 48.102 217.46 47.838C217.052 47.562 216.758 47.178 216.578 46.686C216.41 46.194 216.326 45.624 216.326 44.976V39.558H214.868V38.316L216.416 38.226L216.596 35.472H217.964V38.226H220.628V39.558H217.964V45.03C217.964 45.618 218.072 46.08 218.288 46.416C218.516 46.74 218.912 46.902 219.476 46.902C219.656 46.902 219.848 46.878 220.052 46.83C220.256 46.77 220.436 46.704 220.592 46.632L220.916 47.874C220.64 47.97 220.346 48.054 220.034 48.126C219.722 48.198 219.41 48.234 219.098 48.234ZM226.467 48.234C225.591 48.234 224.799 48.03 224.091 47.622C223.383 47.214 222.819 46.632 222.399 45.876C221.991 45.108 221.787 44.19 221.787 43.122C221.787 42.318 221.907 41.604 222.147 40.98C222.387 40.344 222.711 39.804 223.119 39.36C223.539 38.904 224.013 38.562 224.541 38.334C225.069 38.094 225.609 37.974 226.161 37.974C227.001 37.974 227.709 38.16 228.285 38.532C228.861 38.904 229.299 39.438 229.599 40.134C229.911 40.818 230.067 41.628 230.067 42.564C230.067 42.744 230.061 42.912 230.049 43.068C230.037 43.224 230.019 43.368 229.995 43.5H223.407C223.443 44.196 223.599 44.802 223.875 45.318C224.163 45.822 224.541 46.218 225.009 46.506C225.477 46.782 226.023 46.92 226.647 46.92C227.127 46.92 227.559 46.854 227.943 46.722C228.339 46.578 228.723 46.386 229.095 46.146L229.671 47.244C229.251 47.52 228.777 47.754 228.249 47.946C227.721 48.138 227.127 48.234 226.467 48.234ZM223.389 42.33H228.627C228.627 41.346 228.411 40.596 227.979 40.08C227.559 39.552 226.965 39.288 226.197 39.288C225.741 39.288 225.309 39.408 224.901 39.648C224.505 39.888 224.169 40.23 223.893 40.674C223.629 41.118 223.461 41.67 223.389 42.33ZM235.803 48.234C234.987 48.234 234.273 48.036 233.661 47.64C233.061 47.244 232.593 46.668 232.257 45.912C231.933 45.144 231.771 44.214 231.771 43.122C231.771 42.066 231.969 41.154 232.365 40.386C232.761 39.618 233.277 39.024 233.913 38.604C234.561 38.184 235.257 37.974 236.001 37.974C236.577 37.974 237.069 38.076 237.477 38.28C237.897 38.472 238.323 38.748 238.755 39.108L238.665 37.434V33.672H240.321V48H238.971L238.827 46.848H238.773C238.389 47.232 237.945 47.562 237.441 47.838C236.937 48.102 236.391 48.234 235.803 48.234ZM236.163 46.848C236.619 46.848 237.051 46.74 237.459 46.524C237.867 46.296 238.269 45.96 238.665 45.516V40.386C238.257 40.014 237.861 39.75 237.477 39.594C237.093 39.438 236.697 39.36 236.289 39.36C235.773 39.36 235.299 39.522 234.867 39.846C234.447 40.158 234.105 40.596 233.841 41.16C233.589 41.712 233.463 42.36 233.463 43.104C233.463 43.884 233.571 44.556 233.787 45.12C234.003 45.684 234.309 46.116 234.705 46.416C235.113 46.704 235.599 46.848 236.163 46.848ZM250.721 48.234C250.037 48.234 249.491 48.102 249.083 47.838C248.675 47.562 248.381 47.178 248.201 46.686C248.033 46.194 247.949 45.624 247.949 44.976V39.558H246.491V38.316L248.039 38.226L248.219 35.472H249.587V38.226H252.251V39.558H249.587V45.03C249.587 45.618 249.695 46.08 249.911 46.416C250.139 46.74 250.535 46.902 251.099 46.902C251.279 46.902 251.471 46.878 251.675 46.83C251.879 46.77 252.059 46.704 252.215 46.632L252.539 47.874C252.263 47.97 251.969 48.054 251.657 48.126C251.345 48.198 251.033 48.234 250.721 48.234ZM257.928 48.234C257.136 48.234 256.392 48.036 255.696 47.64C255 47.232 254.442 46.65 254.022 45.894C253.614 45.126 253.41 44.202 253.41 43.122C253.41 42.03 253.614 41.106 254.022 40.35C254.442 39.582 255 38.994 255.696 38.586C256.392 38.178 257.136 37.974 257.928 37.974C258.528 37.974 259.098 38.088 259.638 38.316C260.19 38.544 260.676 38.88 261.096 39.324C261.516 39.768 261.846 40.308 262.086 40.944C262.326 41.58 262.446 42.306 262.446 43.122C262.446 44.202 262.236 45.126 261.816 45.894C261.396 46.65 260.844 47.232 260.16 47.64C259.476 48.036 258.732 48.234 257.928 48.234ZM257.928 46.866C258.492 46.866 258.984 46.71 259.404 46.398C259.836 46.086 260.172 45.648 260.412 45.084C260.652 44.52 260.772 43.866 260.772 43.122C260.772 42.366 260.652 41.706 260.412 41.142C260.172 40.578 259.836 40.14 259.404 39.828C258.984 39.516 258.492 39.36 257.928 39.36C257.364 39.36 256.866 39.516 256.434 39.828C256.014 40.14 255.684 40.578 255.444 41.142C255.216 41.706 255.102 42.366 255.102 43.122C255.102 43.866 255.216 44.52 255.444 45.084C255.684 45.648 256.014 46.086 256.434 46.398C256.866 46.71 257.364 46.866 257.928 46.866ZM269.071 48V38.226H270.727V48H269.071ZM269.899 36.21C269.575 36.21 269.311 36.114 269.107 35.922C268.915 35.718 268.819 35.448 268.819 35.112C268.819 34.788 268.915 34.53 269.107 34.338C269.311 34.146 269.575 34.05 269.899 34.05C270.223 34.05 270.487 34.146 270.691 34.338C270.895 34.53 270.997 34.788 270.997 35.112C270.997 35.448 270.895 35.718 270.691 35.922C270.487 36.114 270.223 36.21 269.899 36.21ZM274.028 48V38.226H275.378L275.54 39.648H275.576C276.044 39.18 276.536 38.784 277.052 38.46C277.58 38.136 278.18 37.974 278.852 37.974C279.884 37.974 280.64 38.304 281.12 38.964C281.6 39.612 281.84 40.56 281.84 41.808V48H280.202V42.024C280.202 41.1 280.052 40.434 279.752 40.026C279.464 39.618 278.996 39.414 278.348 39.414C277.844 39.414 277.394 39.54 276.998 39.792C276.602 40.044 276.164 40.416 275.684 40.908V48H274.028ZM288.866 48.234C288.002 48.234 287.222 48.036 286.526 47.64C285.842 47.232 285.296 46.65 284.888 45.894C284.492 45.126 284.294 44.202 284.294 43.122C284.294 42.03 284.51 41.106 284.942 40.35C285.374 39.582 285.95 38.994 286.67 38.586C287.39 38.178 288.164 37.974 288.992 37.974C289.628 37.974 290.174 38.088 290.63 38.316C291.098 38.544 291.5 38.814 291.836 39.126L291.008 40.206C290.732 39.954 290.432 39.75 290.108 39.594C289.796 39.438 289.448 39.36 289.064 39.36C288.476 39.36 287.948 39.516 287.48 39.828C287.012 40.14 286.646 40.578 286.382 41.142C286.118 41.706 285.986 42.366 285.986 43.122C285.986 43.866 286.112 44.52 286.364 45.084C286.628 45.648 286.982 46.086 287.426 46.398C287.882 46.71 288.41 46.866 289.01 46.866C289.466 46.866 289.886 46.776 290.27 46.596C290.654 46.404 291.002 46.17 291.314 45.894L292.034 47.01C291.59 47.394 291.098 47.694 290.558 47.91C290.018 48.126 289.454 48.234 288.866 48.234ZM294.19 48V38.226H295.54L295.702 40.008H295.738C296.074 39.384 296.482 38.892 296.962 38.532C297.454 38.16 297.97 37.974 298.51 37.974C298.738 37.974 298.93 37.992 299.086 38.028C299.254 38.052 299.41 38.106 299.554 38.19L299.248 39.612C299.08 39.564 298.93 39.528 298.798 39.504C298.666 39.468 298.498 39.45 298.294 39.45C297.898 39.45 297.472 39.624 297.016 39.972C296.56 40.308 296.17 40.89 295.846 41.718V48H294.19ZM304.883 48.234C304.007 48.234 303.215 48.03 302.507 47.622C301.799 47.214 301.235 46.632 300.815 45.876C300.407 45.108 300.203 44.19 300.203 43.122C300.203 42.318 300.323 41.604 300.563 40.98C300.803 40.344 301.127 39.804 301.535 39.36C301.955 38.904 302.429 38.562 302.957 38.334C303.485 38.094 304.025 37.974 304.577 37.974C305.417 37.974 306.125 38.16 306.701 38.532C307.277 38.904 307.715 39.438 308.015 40.134C308.327 40.818 308.483 41.628 308.483 42.564C308.483 42.744 308.477 42.912 308.465 43.068C308.453 43.224 308.435 43.368 308.411 43.5H301.823C301.859 44.196 302.015 44.802 302.291 45.318C302.579 45.822 302.957 46.218 303.425 46.506C303.893 46.782 304.439 46.92 305.063 46.92C305.543 46.92 305.975 46.854 306.359 46.722C306.755 46.578 307.139 46.386 307.511 46.146L308.087 47.244C307.667 47.52 307.193 47.754 306.665 47.946C306.137 48.138 305.543 48.234 304.883 48.234ZM301.805 42.33H307.043C307.043 41.346 306.827 40.596 306.395 40.08C305.975 39.552 305.381 39.288 304.613 39.288C304.157 39.288 303.725 39.408 303.317 39.648C302.921 39.888 302.585 40.23 302.309 40.674C302.045 41.118 301.877 41.67 301.805 42.33ZM312.805 48.234C312.265 48.234 311.779 48.126 311.347 47.91C310.915 47.694 310.573 47.382 310.321 46.974C310.081 46.554 309.961 46.05 309.961 45.462C309.961 44.394 310.435 43.578 311.383 43.014C312.343 42.438 313.867 42.036 315.955 41.808C315.955 41.388 315.895 40.992 315.775 40.62C315.667 40.236 315.469 39.93 315.181 39.702C314.893 39.462 314.479 39.342 313.939 39.342C313.375 39.342 312.841 39.456 312.337 39.684C311.845 39.9 311.401 40.134 311.005 40.386L310.375 39.252C310.675 39.06 311.023 38.868 311.419 38.676C311.815 38.472 312.247 38.304 312.715 38.172C313.183 38.04 313.681 37.974 314.209 37.974C315.001 37.974 315.643 38.142 316.135 38.478C316.639 38.814 317.005 39.282 317.233 39.882C317.473 40.47 317.593 41.172 317.593 41.988V48H316.243L316.099 46.83H316.045C315.589 47.214 315.085 47.544 314.533 47.82C313.993 48.096 313.417 48.234 312.805 48.234ZM313.273 46.902C313.741 46.902 314.185 46.794 314.605 46.578C315.037 46.362 315.487 46.044 315.955 45.624V42.906C314.863 43.026 313.993 43.2 313.345 43.428C312.697 43.644 312.235 43.914 311.959 44.238C311.683 44.55 311.545 44.922 311.545 45.354C311.545 45.918 311.713 46.32 312.049 46.56C312.385 46.788 312.793 46.902 313.273 46.902ZM323.254 48.234C322.57 48.234 321.904 48.108 321.256 47.856C320.62 47.592 320.074 47.268 319.618 46.884L320.41 45.786C320.842 46.134 321.286 46.416 321.742 46.632C322.198 46.848 322.72 46.956 323.308 46.956C323.956 46.956 324.436 46.812 324.748 46.524C325.072 46.224 325.234 45.858 325.234 45.426C325.234 45.09 325.12 44.814 324.892 44.598C324.676 44.37 324.394 44.178 324.046 44.022C323.71 43.854 323.362 43.704 323.002 43.572C322.546 43.392 322.096 43.194 321.652 42.978C321.22 42.75 320.86 42.462 320.572 42.114C320.296 41.754 320.158 41.298 320.158 40.746C320.158 40.218 320.29 39.75 320.554 39.342C320.818 38.922 321.202 38.592 321.706 38.352C322.21 38.1 322.816 37.974 323.524 37.974C324.124 37.974 324.682 38.082 325.198 38.298C325.726 38.514 326.176 38.778 326.548 39.09L325.756 40.116C325.42 39.876 325.072 39.672 324.712 39.504C324.364 39.336 323.974 39.252 323.542 39.252C322.918 39.252 322.456 39.396 322.156 39.684C321.868 39.96 321.724 40.29 321.724 40.674C321.724 40.974 321.82 41.226 322.012 41.43C322.216 41.634 322.48 41.808 322.804 41.952C323.128 42.084 323.47 42.222 323.83 42.366C324.19 42.498 324.544 42.642 324.892 42.798C325.252 42.954 325.57 43.14 325.846 43.356C326.134 43.572 326.362 43.842 326.53 44.166C326.71 44.478 326.8 44.868 326.8 45.336C326.8 45.864 326.662 46.35 326.386 46.794C326.122 47.238 325.726 47.592 325.198 47.856C324.682 48.108 324.034 48.234 323.254 48.234ZM333.078 48.234C332.202 48.234 331.41 48.03 330.702 47.622C329.994 47.214 329.43 46.632 329.01 45.876C328.602 45.108 328.398 44.19 328.398 43.122C328.398 42.318 328.518 41.604 328.758 40.98C328.998 40.344 329.322 39.804 329.73 39.36C330.15 38.904 330.624 38.562 331.152 38.334C331.68 38.094 332.22 37.974 332.772 37.974C333.612 37.974 334.32 38.16 334.896 38.532C335.472 38.904 335.91 39.438 336.21 40.134C336.522 40.818 336.678 41.628 336.678 42.564C336.678 42.744 336.672 42.912 336.66 43.068C336.648 43.224 336.63 43.368 336.606 43.5H330.018C330.054 44.196 330.21 44.802 330.486 45.318C330.774 45.822 331.152 46.218 331.62 46.506C332.088 46.782 332.634 46.92 333.258 46.92C333.738 46.92 334.17 46.854 334.554 46.722C334.95 46.578 335.334 46.386 335.706 46.146L336.282 47.244C335.862 47.52 335.388 47.754 334.86 47.946C334.332 48.138 333.738 48.234 333.078 48.234ZM330 42.33H335.238C335.238 41.346 335.022 40.596 334.59 40.08C334.17 39.552 333.576 39.288 332.808 39.288C332.352 39.288 331.92 39.408 331.512 39.648C331.116 39.888 330.78 40.23 330.504 40.674C330.24 41.118 330.072 41.67 330 42.33ZM347.412 48.234C346.968 48.234 346.5 48.126 346.008 47.91C345.516 47.694 345.06 47.388 344.64 46.992H344.568L344.424 48H343.11V33.672H344.766V37.596L344.694 39.342C345.138 38.958 345.624 38.634 346.152 38.37C346.68 38.106 347.22 37.974 347.772 37.974C348.612 37.974 349.32 38.184 349.896 38.604C350.472 39.012 350.91 39.588 351.21 40.332C351.51 41.076 351.66 41.952 351.66 42.96C351.66 44.064 351.456 45.012 351.048 45.804C350.652 46.596 350.13 47.202 349.482 47.622C348.846 48.03 348.156 48.234 347.412 48.234ZM347.142 46.848C347.682 46.848 348.162 46.698 348.582 46.398C349.014 46.086 349.35 45.642 349.59 45.066C349.83 44.478 349.95 43.782 349.95 42.978C349.95 42.258 349.86 41.628 349.68 41.088C349.512 40.536 349.242 40.11 348.87 39.81C348.498 39.51 347.994 39.36 347.358 39.36C346.95 39.36 346.53 39.474 346.098 39.702C345.666 39.93 345.222 40.26 344.766 40.692V45.84C345.186 46.212 345.606 46.476 346.026 46.632C346.458 46.776 346.83 46.848 347.142 46.848ZM354.276 52.212C354.048 52.212 353.838 52.194 353.646 52.158C353.454 52.122 353.28 52.074 353.124 52.014L353.448 50.7C353.544 50.736 353.658 50.772 353.79 50.808C353.922 50.844 354.06 50.862 354.204 50.862C354.756 50.862 355.206 50.658 355.554 50.25C355.914 49.854 356.196 49.356 356.4 48.756L356.616 48.018L352.692 38.226H354.402L356.382 43.644C356.538 44.076 356.694 44.532 356.85 45.012C357.018 45.492 357.186 45.96 357.354 46.416H357.444C357.576 45.96 357.708 45.498 357.84 45.03C357.984 44.55 358.116 44.088 358.236 43.644L360 38.226H361.602L357.93 48.828C357.702 49.464 357.426 50.034 357.102 50.538C356.778 51.054 356.388 51.462 355.932 51.762C355.476 52.062 354.924 52.212 354.276 52.212ZM370.604 48.234C369.92 48.234 369.314 48.15 368.786 47.982C368.27 47.814 367.814 47.592 367.418 47.316C367.022 47.04 366.68 46.74 366.392 46.416L367.238 45.354C367.622 45.75 368.072 46.104 368.588 46.416C369.116 46.716 369.752 46.866 370.496 46.866C371.024 46.866 371.486 46.77 371.882 46.578C372.29 46.386 372.608 46.116 372.836 45.768C373.064 45.408 373.178 44.988 373.178 44.508C373.178 43.992 373.046 43.548 372.782 43.176C372.53 42.792 372.104 42.498 371.504 42.294C370.904 42.078 370.094 41.97 369.074 41.97V40.692C369.986 40.692 370.706 40.59 371.234 40.386C371.762 40.17 372.14 39.882 372.368 39.522C372.608 39.15 372.728 38.742 372.728 38.298C372.728 37.674 372.53 37.182 372.134 36.822C371.738 36.45 371.192 36.264 370.496 36.264C369.968 36.264 369.47 36.39 369.002 36.642C368.546 36.882 368.132 37.194 367.76 37.578L366.878 36.534C367.382 36.078 367.928 35.7 368.516 35.4C369.116 35.088 369.794 34.932 370.55 34.932C371.294 34.932 371.954 35.058 372.53 35.31C373.118 35.562 373.574 35.934 373.898 36.426C374.234 36.906 374.402 37.488 374.402 38.172C374.402 38.952 374.186 39.594 373.754 40.098C373.322 40.602 372.758 40.98 372.062 41.232V41.304C372.578 41.436 373.046 41.646 373.466 41.934C373.886 42.222 374.222 42.588 374.474 43.032C374.726 43.464 374.852 43.98 374.852 44.58C374.852 45.348 374.66 46.002 374.276 46.542C373.892 47.082 373.382 47.502 372.746 47.802C372.11 48.09 371.396 48.234 370.604 48.234ZM380.858 48.234C380.006 48.234 379.274 47.976 378.662 47.46C378.05 46.944 377.576 46.188 377.24 45.192C376.916 44.196 376.754 42.978 376.754 41.538C376.754 40.11 376.916 38.904 377.24 37.92C377.576 36.936 378.05 36.192 378.662 35.688C379.274 35.184 380.006 34.932 380.858 34.932C381.71 34.932 382.442 35.184 383.054 35.688C383.666 36.192 384.134 36.936 384.458 37.92C384.794 38.904 384.962 40.11 384.962 41.538C384.962 42.978 384.794 44.196 384.458 45.192C384.134 46.188 383.666 46.944 383.054 47.46C382.442 47.976 381.71 48.234 380.858 48.234ZM380.858 46.902C381.362 46.902 381.8 46.716 382.172 46.344C382.556 45.972 382.85 45.39 383.054 44.598C383.27 43.806 383.378 42.786 383.378 41.538C383.378 40.29 383.27 39.276 383.054 38.496C382.85 37.716 382.556 37.146 382.172 36.786C381.8 36.426 381.362 36.246 380.858 36.246C380.366 36.246 379.928 36.426 379.544 36.786C379.16 37.146 378.86 37.716 378.644 38.496C378.44 39.276 378.338 40.29 378.338 41.538C378.338 42.786 378.44 43.806 378.644 44.598C378.86 45.39 379.16 45.972 379.544 46.344C379.928 46.716 380.366 46.902 380.858 46.902ZM389.529 42.888C388.929 42.888 388.401 42.726 387.945 42.402C387.501 42.066 387.153 41.586 386.901 40.962C386.661 40.338 386.541 39.582 386.541 38.694C386.541 37.806 386.661 37.056 386.901 36.444C387.153 35.832 387.501 35.37 387.945 35.058C388.401 34.734 388.929 34.572 389.529 34.572C390.141 34.572 390.669 34.734 391.113 35.058C391.569 35.37 391.917 35.832 392.157 36.444C392.409 37.056 392.535 37.806 392.535 38.694C392.535 39.582 392.409 40.338 392.157 40.962C391.917 41.586 391.569 42.066 391.113 42.402C390.669 42.726 390.141 42.888 389.529 42.888ZM389.529 41.88C390.057 41.88 390.477 41.616 390.789 41.088C391.113 40.548 391.275 39.75 391.275 38.694C391.275 37.638 391.113 36.858 390.789 36.354C390.477 35.838 390.057 35.58 389.529 35.58C389.013 35.58 388.593 35.838 388.269 36.354C387.945 36.858 387.783 37.638 387.783 38.694C387.783 39.75 387.945 40.548 388.269 41.088C388.593 41.616 389.013 41.88 389.529 41.88ZM389.907 48.234L397.197 34.572H398.313L391.023 48.234H389.907ZM398.727 48.234C398.127 48.234 397.599 48.072 397.143 47.748C396.699 47.424 396.351 46.95 396.099 46.326C395.859 45.702 395.739 44.946 395.739 44.058C395.739 43.17 395.859 42.42 396.099 41.808C396.351 41.196 396.699 40.728 397.143 40.404C397.599 40.08 398.127 39.918 398.727 39.918C399.327 39.918 399.849 40.08 400.293 40.404C400.749 40.728 401.097 41.196 401.337 41.808C401.589 42.42 401.715 43.17 401.715 44.058C401.715 44.946 401.589 45.702 401.337 46.326C401.097 46.95 400.749 47.424 400.293 47.748C399.849 48.072 399.327 48.234 398.727 48.234ZM398.727 47.226C399.243 47.226 399.663 46.962 399.987 46.434C400.323 45.906 400.491 45.114 400.491 44.058C400.491 43.002 400.323 42.216 399.987 41.7C399.663 41.184 399.243 40.926 398.727 40.926C398.211 40.926 397.785 41.184 397.449 41.7C397.125 42.216 396.963 43.002 396.963 44.058C396.963 45.114 397.125 45.906 397.449 46.434C397.785 46.962 398.211 47.226 398.727 47.226Z" fill="#00AED4"/>
</g>
<defs>
<linearGradient id="paint0_linear_338_33900" x1="93" y1="230" x2="93" y2="366" gradientUnits="userSpaceOnUse">
<stop stop-color="#0756AA"/>
<stop offset="1" stop-color="#17418F"/>
</linearGradient>
<linearGradient id="paint1_linear_338_33900" x1="280" y1="230" x2="280" y2="366" gradientUnits="userSpaceOnUse">
<stop stop-color="#0756AA"/>
<stop offset="1" stop-color="#17418F"/>
</linearGradient>
<linearGradient id="paint2_linear_338_33900" x1="280" y1="193" x2="280" y2="230" gradientUnits="userSpaceOnUse">
<stop stop-color="#859FD1"/>
<stop offset="1" stop-color="#4985C6"/>
</linearGradient>
<linearGradient id="paint3_linear_338_33900" x1="467" y1="156" x2="467" y2="193" gradientUnits="userSpaceOnUse">
<stop stop-color="#859FD1"/>
<stop offset="1" stop-color="#4985C6"/>
</linearGradient>
<linearGradient id="paint4_linear_338_33900" x1="467" y1="193" x2="467" y2="366" gradientUnits="userSpaceOnUse">
<stop stop-color="#0756AA"/>
<stop offset="1" stop-color="#17418F"/>
</linearGradient>
<clipPath id="clip0_338_33900">
<rect width="568" height="424" fill="white"/>
</clipPath>
</defs>
</svg>
