<svg width="606" height="382" viewBox="0 0 606 382" fill="none" xmlns="http://www.w3.org/2000/svg">
<mask id="mask0_2003_64828" style="mask-type:luminance" maskUnits="userSpaceOnUse" x="23" y="0" width="560" height="334">
<path d="M583 0H23V334H583V0Z" fill="white"/>
</mask>
<g mask="url(#mask0_2003_64828)">
<path d="M583 0H23V334H583V0Z" fill="white"/>
<mask id="mask1_2003_64828" style="mask-type:luminance" maskUnits="userSpaceOnUse" x="23" y="298" width="140" height="36">
<path d="M23 298H163V334H23V298Z" fill="white"/>
</mask>
<g mask="url(#mask1_2003_64828)">
<path d="M23 299H163V297H23V299Z" fill="#D1D1D1"/>
</g>
<path d="M75.955 323V322.152C79.635 318.936 81.315 316.584 81.315 314.584C81.315 313.24 80.627 312.248 79.171 312.248C78.211 312.248 77.379 312.84 76.723 313.608L75.875 312.792C76.835 311.752 77.859 311.064 79.347 311.064C81.443 311.064 82.755 312.424 82.755 314.52C82.755 316.872 80.915 319.256 78.147 321.864C78.771 321.8 79.475 321.752 80.067 321.752H83.315V323H75.955ZM88.574 323.224C86.334 323.224 84.91 321.192 84.91 317.096C84.91 313.032 86.334 311.064 88.574 311.064C90.782 311.064 92.206 313.032 92.206 317.096C92.206 321.192 90.782 323.224 88.574 323.224ZM88.574 322.04C89.902 322.04 90.798 320.552 90.798 317.096C90.798 313.688 89.902 312.232 88.574 312.232C87.23 312.232 86.318 313.688 86.318 317.096C86.318 320.552 87.23 322.04 88.574 322.04ZM93.705 323V322.152C97.385 318.936 99.065 316.584 99.065 314.584C99.065 313.24 98.377 312.248 96.921 312.248C95.961 312.248 95.129 312.84 94.473 313.608L93.625 312.792C94.585 311.752 95.609 311.064 97.097 311.064C99.193 311.064 100.505 312.424 100.505 314.52C100.505 316.872 98.665 319.256 95.897 321.864C96.521 321.8 97.225 321.752 97.817 321.752H101.065V323H93.705ZM106.324 323.224C104.084 323.224 102.66 321.192 102.66 317.096C102.66 313.032 104.084 311.064 106.324 311.064C108.532 311.064 109.956 313.032 109.956 317.096C109.956 321.192 108.532 323.224 106.324 323.224ZM106.324 322.04C107.652 322.04 108.548 320.552 108.548 317.096C108.548 313.688 107.652 312.232 106.324 312.232C104.98 312.232 104.068 313.688 104.068 317.096C104.068 320.552 104.98 322.04 106.324 322.04Z" fill="#6D6D6D"/>
<mask id="mask2_2003_64828" style="mask-type:luminance" maskUnits="userSpaceOnUse" x="163" y="298" width="140" height="36">
<path d="M163 298H303V334H163V298Z" fill="white"/>
</mask>
<g mask="url(#mask2_2003_64828)">
<path d="M163 299H303V297H163V299Z" fill="#D1D1D1"/>
</g>
<path d="M215.955 323V322.152C219.635 318.936 221.315 316.584 221.315 314.584C221.315 313.24 220.627 312.248 219.171 312.248C218.211 312.248 217.379 312.84 216.723 313.608L215.875 312.792C216.835 311.752 217.859 311.064 219.347 311.064C221.443 311.064 222.755 312.424 222.755 314.52C222.755 316.872 220.915 319.256 218.147 321.864C218.771 321.8 219.475 321.752 220.067 321.752H223.315V323H215.955ZM228.574 323.224C226.334 323.224 224.91 321.192 224.91 317.096C224.91 313.032 226.334 311.064 228.574 311.064C230.782 311.064 232.206 313.032 232.206 317.096C232.206 321.192 230.782 323.224 228.574 323.224ZM228.574 322.04C229.902 322.04 230.798 320.552 230.798 317.096C230.798 313.688 229.902 312.232 228.574 312.232C227.23 312.232 226.318 313.688 226.318 317.096C226.318 320.552 227.23 322.04 228.574 322.04ZM233.705 323V322.152C237.385 318.936 239.065 316.584 239.065 314.584C239.065 313.24 238.377 312.248 236.921 312.248C235.961 312.248 235.129 312.84 234.473 313.608L233.625 312.792C234.585 311.752 235.609 311.064 237.097 311.064C239.193 311.064 240.505 312.424 240.505 314.52C240.505 316.872 238.665 319.256 235.897 321.864C236.521 321.8 237.225 321.752 237.817 321.752H241.065V323H233.705ZM243.284 323V321.784H245.892V313.048H243.796V312.104C244.852 311.928 245.604 311.656 246.228 311.272H247.348V321.784H249.716V323H243.284Z" fill="#6D6D6D"/>
<mask id="mask3_2003_64828" style="mask-type:luminance" maskUnits="userSpaceOnUse" x="303" y="298" width="140" height="36">
<path d="M303 298H443V334H303V298Z" fill="white"/>
</mask>
<g mask="url(#mask3_2003_64828)">
<path d="M303 299H443V297H303V299Z" fill="#D1D1D1"/>
</g>
<path d="M355.955 323V322.152C359.635 318.936 361.315 316.584 361.315 314.584C361.315 313.24 360.627 312.248 359.171 312.248C358.211 312.248 357.379 312.84 356.723 313.608L355.875 312.792C356.835 311.752 357.859 311.064 359.347 311.064C361.443 311.064 362.755 312.424 362.755 314.52C362.755 316.872 360.915 319.256 358.147 321.864C358.771 321.8 359.475 321.752 360.067 321.752H363.315V323H355.955ZM368.574 323.224C366.334 323.224 364.91 321.192 364.91 317.096C364.91 313.032 366.334 311.064 368.574 311.064C370.782 311.064 372.206 313.032 372.206 317.096C372.206 321.192 370.782 323.224 368.574 323.224ZM368.574 322.04C369.902 322.04 370.798 320.552 370.798 317.096C370.798 313.688 369.902 312.232 368.574 312.232C367.23 312.232 366.318 313.688 366.318 317.096C366.318 320.552 367.23 322.04 368.574 322.04ZM373.705 323V322.152C377.385 318.936 379.065 316.584 379.065 314.584C379.065 313.24 378.377 312.248 376.921 312.248C375.961 312.248 375.129 312.84 374.473 313.608L373.625 312.792C374.585 311.752 375.609 311.064 377.097 311.064C379.193 311.064 380.505 312.424 380.505 314.52C380.505 316.872 378.665 319.256 375.897 321.864C376.521 321.8 377.225 321.752 377.817 321.752H381.065V323H373.705ZM382.58 323V322.152C386.26 318.936 387.94 316.584 387.94 314.584C387.94 313.24 387.252 312.248 385.796 312.248C384.836 312.248 384.004 312.84 383.348 313.608L382.5 312.792C383.46 311.752 384.484 311.064 385.972 311.064C388.068 311.064 389.38 312.424 389.38 314.52C389.38 316.872 387.54 319.256 384.772 321.864C385.396 321.8 386.1 321.752 386.692 321.752H389.94V323H382.58Z" fill="#6D6D6D"/>
<mask id="mask4_2003_64828" style="mask-type:luminance" maskUnits="userSpaceOnUse" x="443" y="298" width="140" height="36">
<path d="M443 298H583V334H443V298Z" fill="white"/>
</mask>
<g mask="url(#mask4_2003_64828)">
<path d="M443 299H583V297H443V299Z" fill="#D1D1D1"/>
</g>
<path d="M495.955 323V322.152C499.635 318.936 501.315 316.584 501.315 314.584C501.315 313.24 500.627 312.248 499.171 312.248C498.211 312.248 497.379 312.84 496.723 313.608L495.875 312.792C496.835 311.752 497.859 311.064 499.347 311.064C501.443 311.064 502.755 312.424 502.755 314.52C502.755 316.872 500.915 319.256 498.147 321.864C498.771 321.8 499.475 321.752 500.067 321.752H503.315V323H495.955ZM508.574 323.224C506.334 323.224 504.91 321.192 504.91 317.096C504.91 313.032 506.334 311.064 508.574 311.064C510.782 311.064 512.206 313.032 512.206 317.096C512.206 321.192 510.782 323.224 508.574 323.224ZM508.574 322.04C509.902 322.04 510.798 320.552 510.798 317.096C510.798 313.688 509.902 312.232 508.574 312.232C507.23 312.232 506.318 313.688 506.318 317.096C506.318 320.552 507.23 322.04 508.574 322.04ZM513.705 323V322.152C517.385 318.936 519.065 316.584 519.065 314.584C519.065 313.24 518.377 312.248 516.921 312.248C515.961 312.248 515.129 312.84 514.473 313.608L513.625 312.792C514.585 311.752 515.609 311.064 517.097 311.064C519.193 311.064 520.505 312.424 520.505 314.52C520.505 316.872 518.665 319.256 515.897 321.864C516.521 321.8 517.225 321.752 517.817 321.752H521.065V323H513.705ZM526.084 323.224C524.244 323.224 523.108 322.456 522.34 321.608L523.076 320.648C523.764 321.368 524.644 322.008 525.988 322.008C527.38 322.008 528.372 321.16 528.372 319.816C528.372 318.408 527.428 317.48 524.724 317.48V316.344C527.14 316.344 527.956 315.384 527.956 314.104C527.956 312.984 527.204 312.248 525.988 312.248C525.044 312.248 524.212 312.728 523.556 313.4L522.772 312.456C523.652 311.656 524.692 311.064 526.036 311.064C528.004 311.064 529.444 312.136 529.444 314.008C529.444 315.432 528.612 316.376 527.364 316.824V316.888C528.74 317.224 529.86 318.264 529.86 319.88C529.86 321.96 528.18 323.224 526.084 323.224Z" fill="#6D6D6D"/>
<path opacity="0.1" d="M233 91L93 109.5V298H513V41L373 78L233 91Z" fill="url(#paint0_linear_2003_64828)"/>
<path fill-rule="evenodd" clip-rule="evenodd" d="M513.255 41.9672L373.175 78.7181L233.112 91.629L93.1312 109.991L92.8711 108.008L232.89 89.641L372.827 76.7417L512.747 40.0327L513.255 41.9672Z" fill="#1DA637"/>
<path d="M80.07 92.2521C77.568 92.2521 75.75 90.7761 75.75 88.7241C75.75 86.9781 76.884 85.7901 78.108 85.1421V85.0701C77.118 84.3681 76.326 83.3601 76.326 81.9741C76.326 79.9041 77.946 78.5541 80.124 78.5541C82.428 78.5541 83.85 79.9761 83.85 82.0461C83.85 83.4141 82.932 84.5481 82.122 85.1781V85.2681C83.31 85.9341 84.354 86.9601 84.354 88.7781C84.354 90.7401 82.626 92.2521 80.07 92.2521ZM80.934 84.6561C81.726 83.9181 82.122 83.0721 82.122 82.1721C82.122 80.9661 81.366 80.0481 80.088 80.0481C79.008 80.0481 78.198 80.7861 78.198 81.9741C78.198 83.3961 79.458 84.0621 80.934 84.6561ZM80.106 90.7401C81.456 90.7401 82.392 89.9481 82.392 88.7061C82.392 87.1041 80.934 86.4921 79.134 85.7361C78.216 86.3841 77.568 87.3561 77.568 88.5081C77.568 89.8221 78.666 90.7401 80.106 90.7401ZM88.6436 92.0001C88.8776 87.1761 89.7236 84.0801 92.2976 80.5161H86.0696V78.7521H94.5836V80.0121C91.4876 83.9001 91.0016 86.8341 90.7676 92.0001H88.6436ZM98.1352 92.2521C97.3432 92.2521 96.7492 91.6401 96.7492 90.7941C96.7492 89.9301 97.3432 89.3361 98.1352 89.3361C98.9092 89.3361 99.5212 89.9301 99.5212 90.7941C99.5212 91.6401 98.9092 92.2521 98.1352 92.2521ZM105.62 92.2521C103.55 92.2521 102.2 91.4241 101.3 90.4161L102.326 89.0841C103.1 89.8761 104.072 90.5421 105.458 90.5421C106.934 90.5421 107.96 89.7141 107.96 88.3461C107.96 86.8701 107.024 85.9341 104.054 85.9341V84.3861C106.646 84.3861 107.51 83.4141 107.51 82.0821C107.51 80.9121 106.754 80.1741 105.476 80.1741C104.468 80.1741 103.604 80.6601 102.848 81.4161L101.75 80.1021C102.812 79.1661 104.036 78.5181 105.566 78.5181C107.942 78.5181 109.616 79.7421 109.616 81.9201C109.616 83.4501 108.734 84.5121 107.33 85.0341V85.1241C108.86 85.5201 110.066 86.6541 110.066 88.4541C110.066 90.8481 108.068 92.2521 105.62 92.2521Z" fill="#1DA637"/>
<mask id="mask5_2003_64828" style="mask-type:luminance" maskUnits="userSpaceOnUse" x="88" y="104" width="10" height="10">
<path d="M98 104H88V114H98V104Z" fill="white"/>
</mask>
<g mask="url(#mask5_2003_64828)">
<path d="M97.9063 109.093L92.9062 104.093L87.9063 109.093L92.9063 114.093L97.9063 109.093Z" fill="url(#paint1_linear_2003_64828)"/>
</g>
<path d="M219.294 74.2521C217.764 74.2521 216.666 73.6221 215.91 72.8301L217.026 71.5521C217.566 72.1461 218.376 72.5421 219.204 72.5421C220.878 72.5421 222.3 71.1381 222.3 66.9261C222.3 63.6141 221.274 62.1021 219.654 62.1021C218.502 62.1021 217.602 63.1281 217.602 64.8741C217.602 66.5481 218.376 67.5201 219.762 67.5201C220.59 67.5201 221.526 67.0521 222.3 65.8461L222.408 67.3581C221.634 68.3841 220.446 69.0321 219.384 69.0321C217.17 69.0321 215.676 67.6461 215.676 64.8741C215.676 62.2281 217.476 60.5181 219.636 60.5181C222.174 60.5181 224.226 62.5521 224.226 66.9261C224.226 72.1461 221.85 74.2521 219.294 74.2521ZM230.316 74.2521C227.706 74.2521 226.032 71.9301 226.032 67.3221C226.032 62.7501 227.706 60.5181 230.316 60.5181C232.908 60.5181 234.6 62.7501 234.6 67.3221C234.6 71.9301 232.908 74.2521 230.316 74.2521ZM230.316 72.5961C231.666 72.5961 232.602 71.1561 232.602 67.3221C232.602 63.5421 231.666 62.1381 230.316 62.1381C228.966 62.1381 228.012 63.5421 228.012 67.3221C228.012 71.1561 228.966 72.5961 230.316 72.5961ZM238.133 74.2521C237.341 74.2521 236.747 73.6401 236.747 72.7941C236.747 71.9301 237.341 71.3361 238.133 71.3361C238.907 71.3361 239.519 71.9301 239.519 72.7941C239.519 73.6401 238.907 74.2521 238.133 74.2521ZM245.96 74.2521C243.458 74.2521 241.64 72.7761 241.64 70.7241C241.64 68.9781 242.774 67.7901 243.998 67.1421V67.0701C243.008 66.3681 242.216 65.3601 242.216 63.9741C242.216 61.9041 243.836 60.5541 246.014 60.5541C248.318 60.5541 249.74 61.9761 249.74 64.0461C249.74 65.4141 248.822 66.5481 248.012 67.1781V67.2681C249.2 67.9341 250.244 68.9601 250.244 70.7781C250.244 72.7401 248.516 74.2521 245.96 74.2521ZM246.824 66.6561C247.616 65.9181 248.012 65.0721 248.012 64.1721C248.012 62.9661 247.256 62.0481 245.978 62.0481C244.898 62.0481 244.088 62.7861 244.088 63.9741C244.088 65.3961 245.348 66.0621 246.824 66.6561ZM245.996 72.7401C247.346 72.7401 248.282 71.9481 248.282 70.7061C248.282 69.1041 246.824 68.4921 245.024 67.7361C244.106 68.3841 243.458 69.3561 243.458 70.5081C243.458 71.8221 244.556 72.7401 245.996 72.7401Z" fill="#1DA637"/>
<mask id="mask6_2003_64828" style="mask-type:luminance" maskUnits="userSpaceOnUse" x="228" y="86" width="10" height="10">
<path d="M238 86H228V96H238V86Z" fill="white"/>
</mask>
<g mask="url(#mask6_2003_64828)">
<path d="M237.906 91.0928L232.906 86.0928L227.906 91.0928L232.906 96.0928L237.906 91.0928Z" fill="url(#paint2_linear_2003_64828)"/>
</g>
<path d="M359.294 61.2521C357.764 61.2521 356.666 60.6221 355.91 59.8301L357.026 58.5521C357.566 59.1461 358.376 59.5421 359.204 59.5421C360.878 59.5421 362.3 58.1381 362.3 53.9261C362.3 50.6141 361.274 49.1021 359.654 49.1021C358.502 49.1021 357.602 50.1281 357.602 51.8741C357.602 53.5481 358.376 54.5201 359.762 54.5201C360.59 54.5201 361.526 54.0521 362.3 52.8461L362.408 54.3581C361.634 55.3841 360.446 56.0321 359.384 56.0321C357.17 56.0321 355.676 54.6461 355.676 51.8741C355.676 49.2281 357.476 47.5181 359.636 47.5181C362.174 47.5181 364.226 49.5521 364.226 53.9261C364.226 59.1461 361.85 61.2521 359.294 61.2521ZM365.96 61.0001V59.7941C369.884 56.3381 371.882 53.7641 371.882 51.5861C371.882 50.1641 371.126 49.1741 369.65 49.1741C368.606 49.1741 367.742 49.8221 367.04 50.6321L365.852 49.4981C367.004 48.2561 368.174 47.5181 369.902 47.5181C372.332 47.5181 373.898 49.0841 373.898 51.4961C373.898 54.0341 371.846 56.6801 369.038 59.3801C369.722 59.3081 370.568 59.2361 371.216 59.2361H374.528V61.0001H365.96ZM378.133 61.2521C377.341 61.2521 376.747 60.6401 376.747 59.7941C376.747 58.9301 377.341 58.3361 378.133 58.3361C378.907 58.3361 379.519 58.9301 379.519 59.7941C379.519 60.6401 378.907 61.2521 378.133 61.2521ZM385.186 61.2521C383.656 61.2521 382.558 60.6221 381.802 59.8301L382.918 58.5521C383.458 59.1461 384.268 59.5421 385.096 59.5421C386.77 59.5421 388.192 58.1381 388.192 53.9261C388.192 50.6141 387.166 49.1021 385.546 49.1021C384.394 49.1021 383.494 50.1281 383.494 51.8741C383.494 53.5481 384.268 54.5201 385.654 54.5201C386.482 54.5201 387.418 54.0521 388.192 52.8461L388.3 54.3581C387.526 55.3841 386.338 56.0321 385.276 56.0321C383.062 56.0321 381.568 54.6461 381.568 51.8741C381.568 49.2281 383.368 47.5181 385.528 47.5181C388.066 47.5181 390.118 49.5521 390.118 53.9261C390.118 59.1461 387.742 61.2521 385.186 61.2521Z" fill="#1DA637"/>
<mask id="mask7_2003_64828" style="mask-type:luminance" maskUnits="userSpaceOnUse" x="368" y="73" width="10" height="10">
<path d="M378 73H368V83H378V73Z" fill="white"/>
</mask>
<g mask="url(#mask7_2003_64828)">
<path d="M377.906 78.0928L372.906 73.0928L367.906 78.0928L372.906 83.0928L377.906 78.0928Z" fill="url(#paint3_linear_2003_64828)"/>
</g>
<path d="M499.294 24.2521C497.764 24.2521 496.666 23.6221 495.91 22.8301L497.026 21.5521C497.566 22.1461 498.376 22.5421 499.204 22.5421C500.878 22.5421 502.3 21.1381 502.3 16.9261C502.3 13.6141 501.274 12.1021 499.654 12.1021C498.502 12.1021 497.602 13.1281 497.602 14.8741C497.602 16.5481 498.376 17.5201 499.762 17.5201C500.59 17.5201 501.526 17.0521 502.3 15.8461L502.408 17.3581C501.634 18.3841 500.446 19.0321 499.384 19.0321C497.17 19.0321 495.676 17.6461 495.676 14.8741C495.676 12.2281 497.476 10.5181 499.636 10.5181C502.174 10.5181 504.226 12.5521 504.226 16.9261C504.226 22.1461 501.85 24.2521 499.294 24.2521ZM509.56 24.2521C508.03 24.2521 506.932 23.6221 506.176 22.8301L507.292 21.5521C507.832 22.1461 508.642 22.5421 509.47 22.5421C511.144 22.5421 512.566 21.1381 512.566 16.9261C512.566 13.6141 511.54 12.1021 509.92 12.1021C508.768 12.1021 507.868 13.1281 507.868 14.8741C507.868 16.5481 508.642 17.5201 510.028 17.5201C510.856 17.5201 511.792 17.0521 512.566 15.8461L512.674 17.3581C511.9 18.3841 510.712 19.0321 509.65 19.0321C507.436 19.0321 505.942 17.6461 505.942 14.8741C505.942 12.2281 507.742 10.5181 509.902 10.5181C512.44 10.5181 514.492 12.5521 514.492 16.9261C514.492 22.1461 512.116 24.2521 509.56 24.2521ZM518.133 24.2521C517.341 24.2521 516.747 23.6401 516.747 22.7941C516.747 21.9301 517.341 21.3361 518.133 21.3361C518.907 21.3361 519.519 21.9301 519.519 22.7941C519.519 23.6401 518.907 24.2521 518.133 24.2521ZM525.942 24.2521C523.332 24.2521 521.658 21.9301 521.658 17.3221C521.658 12.7501 523.332 10.5181 525.942 10.5181C528.534 10.5181 530.226 12.7501 530.226 17.3221C530.226 21.9301 528.534 24.2521 525.942 24.2521ZM525.942 22.5961C527.292 22.5961 528.228 21.1561 528.228 17.3221C528.228 13.5421 527.292 12.1381 525.942 12.1381C524.592 12.1381 523.638 13.5421 523.638 17.3221C523.638 21.1561 524.592 22.5961 525.942 22.5961Z" fill="#1DA637"/>
<mask id="mask8_2003_64828" style="mask-type:luminance" maskUnits="userSpaceOnUse" x="508" y="36" width="10" height="10">
<path d="M518 36H508V46H518V36Z" fill="white"/>
</mask>
<g mask="url(#mask8_2003_64828)">
<path d="M517.906 41.0928L512.906 36.0928L507.906 41.0928L512.906 46.0928L517.906 41.0928Z" fill="url(#paint4_linear_2003_64828)"/>
</g>
<path d="M65 160C65 157.239 67.2386 155 70 155H116C118.761 155 121 157.239 121 160V298H65V160Z" fill="url(#paint5_linear_2003_64828)"/>
<path d="M76.6532 176.224C74.7972 176.224 73.6292 175.472 72.7812 174.64L73.6772 173.44C74.3332 174.112 75.1972 174.704 76.4292 174.704C77.7572 174.704 78.7492 173.76 78.7492 172.192C78.7492 170.64 77.8532 169.744 76.5092 169.744C75.7732 169.744 75.3252 169.952 74.6372 170.4L73.7253 169.824L74.0772 164.224H80.0612V165.792H75.6932L75.4212 168.8C75.9172 168.544 76.3972 168.4 77.0372 168.4C79.0052 168.4 80.6212 169.552 80.6212 172.144C80.6212 174.736 78.7012 176.224 76.6532 176.224ZM82.7382 179.216L82.3382 178.176C83.4422 177.712 84.0822 176.896 84.0822 175.936L83.9542 174.464L84.7222 175.664C84.4982 175.904 84.2102 176 83.9062 176C83.2502 176 82.6582 175.568 82.6582 174.816C82.6582 174.08 83.2502 173.632 83.9542 173.632C84.8502 173.632 85.3783 174.368 85.3783 175.6C85.3783 177.296 84.4022 178.592 82.7382 179.216ZM87.6158 176V174.48H90.2078V166.288H88.0798V165.12C89.1999 164.928 89.9678 164.64 90.6558 164.224H92.0478V174.48H94.3518V176H87.6158ZM99.6528 176.224C97.8128 176.224 96.6128 175.488 95.8128 174.592L96.7248 173.408C97.4128 174.112 98.2768 174.704 99.5089 174.704C100.821 174.704 101.733 173.968 101.733 172.752C101.733 171.44 100.901 170.608 98.2608 170.608V169.232C100.565 169.232 101.333 168.368 101.333 167.184C101.333 166.144 100.661 165.488 99.5248 165.488C98.6288 165.488 97.8609 165.92 97.1889 166.592L96.2128 165.424C97.1568 164.592 98.2448 164.016 99.6048 164.016C101.717 164.016 103.205 165.104 103.205 167.04C103.205 168.4 102.421 169.344 101.173 169.808V169.888C102.533 170.24 103.605 171.248 103.605 172.848C103.605 174.976 101.829 176.224 99.6528 176.224ZM105.194 176V174.928C108.682 171.856 110.458 169.568 110.458 167.632C110.458 166.368 109.786 165.488 108.474 165.488C107.546 165.488 106.778 166.064 106.154 166.784L105.098 165.776C106.122 164.672 107.162 164.016 108.698 164.016C110.858 164.016 112.25 165.408 112.25 167.552C112.25 169.808 110.426 172.16 107.93 174.56C108.538 174.496 109.29 174.432 109.866 174.432H112.81V176H105.194Z" fill="white"/>
<path d="M205 120C205 117.239 207.239 115 210 115H256C258.761 115 261 117.239 261 120V298H205V120Z" fill="url(#paint6_linear_2003_64828)"/>
<path d="M216.653 136.224C214.797 136.224 213.629 135.472 212.781 134.64L213.677 133.44C214.333 134.112 215.197 134.704 216.429 134.704C217.757 134.704 218.749 133.76 218.749 132.192C218.749 130.64 217.853 129.744 216.509 129.744C215.773 129.744 215.325 129.952 214.637 130.4L213.725 129.824L214.077 124.224H220.061V125.792H215.693L215.421 128.8C215.917 128.544 216.397 128.4 217.037 128.4C219.005 128.4 220.621 129.552 220.621 132.144C220.621 134.736 218.701 136.224 216.653 136.224ZM222.738 139.216L222.338 138.176C223.442 137.712 224.082 136.896 224.082 135.936L223.954 134.464L224.722 135.664C224.498 135.904 224.21 136 223.906 136C223.25 136 222.658 135.568 222.658 134.816C222.658 134.08 223.25 133.632 223.954 133.632C224.85 133.632 225.378 134.368 225.378 135.6C225.378 137.296 224.402 138.592 222.738 139.216ZM231.664 136V128.32C231.664 127.696 231.712 126.688 231.76 126.048H231.68C231.392 126.64 231.072 127.264 230.736 127.872L228.432 131.408H234.896V132.848H226.576V131.6L231.248 124.224H233.392V136H231.664ZM239.957 136.224C237.733 136.224 236.117 134.912 236.117 133.088C236.117 131.536 237.125 130.48 238.213 129.904V129.84C237.333 129.216 236.629 128.32 236.629 127.088C236.629 125.248 238.069 124.048 240.005 124.048C242.053 124.048 243.317 125.312 243.317 127.152C243.317 128.368 242.501 129.376 241.781 129.936V130.016C242.837 130.608 243.765 131.52 243.765 133.136C243.765 134.88 242.229 136.224 239.957 136.224ZM240.725 129.472C241.429 128.816 241.781 128.064 241.781 127.264C241.781 126.192 241.109 125.376 239.973 125.376C239.013 125.376 238.293 126.032 238.293 127.088C238.293 128.352 239.413 128.944 240.725 129.472ZM239.989 134.88C241.189 134.88 242.021 134.176 242.021 133.072C242.021 131.648 240.725 131.104 239.125 130.432C238.309 131.008 237.733 131.872 237.733 132.896C237.733 134.064 238.709 134.88 239.989 134.88ZM249.082 136.224C246.858 136.224 245.242 134.912 245.242 133.088C245.242 131.536 246.25 130.48 247.338 129.904V129.84C246.458 129.216 245.754 128.32 245.754 127.088C245.754 125.248 247.194 124.048 249.13 124.048C251.178 124.048 252.442 125.312 252.442 127.152C252.442 128.368 251.626 129.376 250.906 129.936V130.016C251.962 130.608 252.89 131.52 252.89 133.136C252.89 134.88 251.354 136.224 249.082 136.224ZM249.85 129.472C250.554 128.816 250.906 128.064 250.906 127.264C250.906 126.192 250.234 125.376 249.098 125.376C248.138 125.376 247.418 126.032 247.418 127.088C247.418 128.352 248.538 128.944 249.85 129.472ZM249.114 134.88C250.314 134.88 251.146 134.176 251.146 133.072C251.146 131.648 249.85 131.104 248.25 130.432C247.434 131.008 246.858 131.872 246.858 132.896C246.858 134.064 247.834 134.88 249.114 134.88Z" fill="white"/>
<path d="M345 88C345 85.2386 347.239 83 350 83H396C398.761 83 401 85.2386 401 88V298H345V88Z" fill="url(#paint7_linear_2003_64828)"/>
<path d="M356.653 104.224C354.797 104.224 353.629 103.472 352.781 102.64L353.677 101.44C354.333 102.112 355.197 102.704 356.429 102.704C357.757 102.704 358.749 101.76 358.749 100.192C358.749 98.6401 357.853 97.7441 356.509 97.7441C355.773 97.7441 355.325 97.9521 354.637 98.4001L353.725 97.8241L354.077 92.2241H360.061V93.7921H355.693L355.421 96.8001C355.917 96.5441 356.397 96.4001 357.037 96.4001C359.005 96.4001 360.621 97.5521 360.621 100.144C360.621 102.736 358.701 104.224 356.653 104.224ZM362.738 107.216L362.338 106.176C363.442 105.712 364.082 104.896 364.082 103.936L363.954 102.464L364.722 103.664C364.498 103.904 364.21 104 363.906 104C363.25 104 362.658 103.568 362.658 102.816C362.658 102.08 363.25 101.632 363.954 101.632C364.85 101.632 365.378 102.368 365.378 103.6C365.378 105.296 364.402 106.592 362.738 107.216ZM369.328 104C369.536 99.7121 370.288 96.9601 372.576 93.7921H367.04V92.2241H374.608V93.3441C371.856 96.8001 371.424 99.4081 371.216 104H369.328ZM379.941 104.224C377.621 104.224 376.133 102.16 376.133 98.0641C376.133 94.0001 377.621 92.0161 379.941 92.0161C382.245 92.0161 383.749 94.0001 383.749 98.0641C383.749 102.16 382.245 104.224 379.941 104.224ZM379.941 102.752C381.141 102.752 381.973 101.472 381.973 98.0641C381.973 94.7041 381.141 93.4561 379.941 93.4561C378.741 93.4561 377.893 94.7041 377.893 98.0641C377.893 101.472 378.741 102.752 379.941 102.752ZM389.066 104.224C386.746 104.224 385.258 102.16 385.258 98.0641C385.258 94.0001 386.746 92.0161 389.066 92.0161C391.37 92.0161 392.874 94.0001 392.874 98.0641C392.874 102.16 391.37 104.224 389.066 104.224ZM389.066 102.752C390.266 102.752 391.098 101.472 391.098 98.0641C391.098 94.7041 390.266 93.4561 389.066 93.4561C387.866 93.4561 387.018 94.7041 387.018 98.0641C387.018 101.472 387.866 102.752 389.066 102.752Z" fill="white"/>
<path d="M485 62C485 59.2386 487.239 57 490 57H536C538.761 57 541 59.2386 541 62V298H485V62Z" fill="url(#paint8_linear_2003_64828)"/>
<path d="M496.653 78.2241C494.797 78.2241 493.629 77.4721 492.781 76.6401L493.677 75.4401C494.333 76.1121 495.197 76.7041 496.429 76.7041C497.757 76.7041 498.749 75.7601 498.749 74.1921C498.749 72.6401 497.853 71.7441 496.509 71.7441C495.773 71.7441 495.325 71.9521 494.637 72.4001L493.725 71.8241L494.077 66.2241H500.061V67.7921H495.693L495.421 70.8001C495.917 70.5441 496.397 70.4001 497.037 70.4001C499.005 70.4001 500.621 71.5521 500.621 74.1441C500.621 76.7361 498.701 78.2241 496.653 78.2241ZM502.738 81.2161L502.338 80.1761C503.442 79.7121 504.082 78.8961 504.082 77.9361L503.954 76.4641L504.722 77.6641C504.498 77.9041 504.21 78.0001 503.906 78.0001C503.25 78.0001 502.658 77.5681 502.658 76.8161C502.658 76.0801 503.25 75.6321 503.954 75.6321C504.85 75.6321 505.378 76.3681 505.378 77.6001C505.378 79.2961 504.402 80.5921 502.738 81.2161ZM510.832 78.2241C508.608 78.2241 506.992 76.9121 506.992 75.0881C506.992 73.5361 508 72.4801 509.088 71.9041V71.8401C508.208 71.2161 507.504 70.3201 507.504 69.0881C507.504 67.2481 508.944 66.0481 510.88 66.0481C512.928 66.0481 514.192 67.3121 514.192 69.1521C514.192 70.3681 513.376 71.3761 512.656 71.9361V72.0161C513.712 72.6081 514.64 73.5201 514.64 75.1361C514.64 76.8801 513.104 78.2241 510.832 78.2241ZM511.6 71.4721C512.304 70.8161 512.656 70.0641 512.656 69.2641C512.656 68.1921 511.984 67.3761 510.848 67.3761C509.888 67.3761 509.168 68.0321 509.168 69.0881C509.168 70.3521 510.288 70.9441 511.6 71.4721ZM510.864 76.8801C512.064 76.8801 512.896 76.1761 512.896 75.0721C512.896 73.6481 511.6 73.1041 510 72.4321C509.184 73.0081 508.608 73.8721 508.608 74.8961C508.608 76.0641 509.584 76.8801 510.864 76.8801ZM519.653 78.2241C517.813 78.2241 516.613 77.4881 515.813 76.5921L516.725 75.4081C517.413 76.1121 518.277 76.7041 519.509 76.7041C520.821 76.7041 521.733 75.9681 521.733 74.7521C521.733 73.4401 520.901 72.6081 518.261 72.6081V71.2321C520.565 71.2321 521.333 70.3681 521.333 69.1841C521.333 68.1441 520.661 67.4881 519.525 67.4881C518.629 67.4881 517.861 67.9201 517.189 68.5921L516.213 67.4241C517.157 66.5921 518.245 66.0161 519.605 66.0161C521.717 66.0161 523.205 67.1041 523.205 69.0401C523.205 70.4001 522.421 71.3441 521.173 71.8081V71.8881C522.533 72.2401 523.605 73.2481 523.605 74.8481C523.605 76.9761 521.829 78.2241 519.653 78.2241ZM525.194 78.0001V76.9281C528.682 73.8561 530.458 71.5681 530.458 69.6321C530.458 68.3681 529.786 67.4881 528.474 67.4881C527.546 67.4881 526.778 68.0641 526.154 68.7841L525.098 67.7761C526.122 66.6721 527.162 66.0161 528.698 66.0161C530.858 66.0161 532.25 67.4081 532.25 69.5521C532.25 71.8081 530.426 74.1601 527.93 76.5601C528.538 76.4961 529.29 76.4321 529.866 76.4321H532.81V78.0001H525.194Z" fill="white"/>
</g>
<path d="M20 365H0V371H20V365Z" fill="url(#paint9_linear_2003_64828)"/>
<path d="M29.6016 375V363.272H33.2656C35.6496 363.272 37.3616 364.136 37.3616 366.568C37.3616 368.92 35.6496 370.04 33.2656 370.04H31.0896V375H29.6016ZM31.0896 368.84H33.0576C34.8816 368.84 35.8896 368.088 35.8896 366.568C35.8896 365.032 34.8816 364.488 33.0576 364.488H31.0896V368.84ZM36.0496 375L32.9776 369.64L34.1296 368.872L37.7136 375H36.0496ZM42.9151 375.224C40.5951 375.224 38.7551 373.528 38.7551 370.68C38.7551 367.848 40.6591 366.104 42.6591 366.104C44.8671 366.104 46.1151 367.688 46.1151 370.184C46.1151 370.488 46.0991 370.792 46.0511 371.016H40.1951C40.3071 372.856 41.4271 374.056 43.0911 374.056C43.9231 374.056 44.6111 373.784 45.2511 373.352L45.7791 374.328C45.0111 374.824 44.0991 375.224 42.9151 375.224ZM40.1791 369.96H44.8351C44.8351 368.216 44.0511 367.272 42.6751 367.272C41.4591 367.272 40.3711 368.248 40.1791 369.96ZM51.6785 375.224C49.3745 375.224 47.6145 373.544 47.6145 370.68C47.6145 367.768 49.5665 366.104 51.7905 366.104C52.9265 366.104 53.7265 366.568 54.3345 367.128L53.5985 368.088C53.0865 367.624 52.5425 367.32 51.8705 367.32C50.2705 367.32 49.1185 368.664 49.1185 370.68C49.1185 372.664 50.2225 374.008 51.8225 374.008C52.6065 374.008 53.3265 373.624 53.8705 373.144L54.4945 374.12C53.7265 374.808 52.7185 375.224 51.6785 375.224ZM57.9627 375.224C56.8587 375.224 56.4267 374.52 56.4267 373.272V362.28H57.8827V373.368C57.8827 373.832 58.0747 374.008 58.2987 374.008C58.3627 374.008 58.4267 374.008 58.6027 373.976L58.7947 375.096C58.5867 375.16 58.3627 375.224 57.9627 375.224ZM62.9736 375.224C61.5176 375.224 60.4296 374.312 60.4296 372.744C60.4296 370.856 62.0616 369.912 65.7576 369.496C65.7576 368.376 65.4056 367.304 63.9816 367.304C62.9576 367.304 62.0456 367.784 61.3736 368.248L60.7976 367.224C61.5976 366.712 62.8136 366.104 64.2056 366.104C66.3336 366.104 67.2296 367.512 67.2296 369.672V375H66.0296L65.9016 373.976H65.8376C65.0216 374.664 64.0456 375.224 62.9736 375.224ZM63.3736 374.04C64.2216 374.04 64.9256 373.64 65.7576 372.888V370.472C62.8296 370.808 61.8536 371.528 61.8536 372.648C61.8536 373.64 62.5256 374.04 63.3736 374.04ZM69.9892 375V366.312H71.4452V375H69.9892ZM70.7252 364.52C70.1492 364.52 69.7492 364.152 69.7492 363.544C69.7492 362.984 70.1492 362.616 70.7252 362.616C71.2852 362.616 71.7012 362.984 71.7012 363.544C71.7012 364.152 71.2852 364.52 70.7252 364.52ZM74.3955 375V366.312H75.5795L75.7235 367.576H75.7715C76.5235 366.76 77.4355 366.104 78.4755 366.104C79.8035 366.104 80.5235 366.728 80.8595 367.752C81.7715 366.792 82.6835 366.104 83.7395 366.104C85.5155 366.104 86.3795 367.288 86.3795 369.496V375H84.9235V369.688C84.9235 368.056 84.4115 367.368 83.2915 367.368C82.6195 367.368 81.9315 367.816 81.1155 368.696V375H79.6595V369.688C79.6595 368.056 79.1475 367.368 78.0275 367.368C77.3715 367.368 76.6355 367.816 75.8515 368.696V375H74.3955ZM92.712 375.224C90.392 375.224 88.552 373.528 88.552 370.68C88.552 367.848 90.456 366.104 92.456 366.104C94.664 366.104 95.912 367.688 95.912 370.184C95.912 370.488 95.896 370.792 95.848 371.016H89.992C90.104 372.856 91.224 374.056 92.888 374.056C93.72 374.056 94.408 373.784 95.048 373.352L95.576 374.328C94.808 374.824 93.896 375.224 92.712 375.224ZM89.976 369.96H94.632C94.632 368.216 93.848 367.272 92.472 367.272C91.256 367.272 90.168 368.248 89.976 369.96ZM101.012 375.224C98.8354 375.224 97.4274 373.576 97.4274 370.68C97.4274 367.848 99.2194 366.104 101.204 366.104C102.212 366.104 102.884 366.472 103.636 367.112L103.572 365.608V362.28H105.028V375H103.828L103.7 373.976H103.668C102.98 374.664 102.068 375.224 101.012 375.224ZM101.332 373.992C102.148 373.992 102.852 373.592 103.572 372.808V368.248C102.836 367.576 102.164 367.32 101.444 367.32C100.052 367.32 98.9473 368.68 98.9473 370.664C98.9473 372.744 99.8114 373.992 101.332 373.992ZM112.944 375L110.512 366.312H112L113.312 371.352C113.488 372.184 113.648 372.952 113.808 373.768H113.888C114.08 372.952 114.256 372.168 114.48 371.352L115.824 366.312H117.248L118.624 371.352C118.832 372.184 119.024 372.952 119.232 373.768H119.296C119.472 372.952 119.632 372.184 119.84 371.352L121.104 366.312H122.496L120.16 375H118.384L117.12 370.328C116.896 369.496 116.736 368.712 116.528 367.816H116.448C116.272 368.712 116.096 369.512 115.856 370.344L114.64 375H112.944ZM126.177 375.224C124.721 375.224 123.633 374.312 123.633 372.744C123.633 370.856 125.265 369.912 128.961 369.496C128.961 368.376 128.609 367.304 127.185 367.304C126.161 367.304 125.249 367.784 124.577 368.248L124.001 367.224C124.801 366.712 126.017 366.104 127.409 366.104C129.537 366.104 130.433 367.512 130.433 369.672V375H129.233L129.105 373.976H129.041C128.225 374.664 127.249 375.224 126.177 375.224ZM126.577 374.04C127.425 374.04 128.129 373.64 128.961 372.888V370.472C126.033 370.808 125.057 371.528 125.057 372.648C125.057 373.64 125.729 374.04 126.577 374.04ZM135.632 375.224C133.776 375.224 133.168 374.056 133.168 372.328V367.496H131.872V366.408L133.232 366.312L133.392 363.864H134.624V366.312H136.976V367.496H134.624V372.36C134.624 373.416 134.96 374.04 135.968 374.04C136.272 374.04 136.672 373.912 136.944 373.8L137.232 374.888C136.752 375.064 136.176 375.224 135.632 375.224ZM142.166 375.224C139.846 375.224 138.006 373.528 138.006 370.68C138.006 367.848 139.91 366.104 141.91 366.104C144.118 366.104 145.366 367.688 145.366 370.184C145.366 370.488 145.35 370.792 145.302 371.016H139.446C139.558 372.856 140.678 374.056 142.342 374.056C143.174 374.056 143.862 373.784 144.502 373.352L145.03 374.328C144.262 374.824 143.35 375.224 142.166 375.224ZM139.43 369.96H144.086C144.086 368.216 143.302 367.272 141.926 367.272C140.71 367.272 139.622 368.248 139.43 369.96ZM147.521 375V366.312H148.705L148.849 367.896H148.897C149.489 366.792 150.385 366.104 151.361 366.104C151.745 366.104 152.001 366.152 152.289 366.28L152.017 367.56C151.713 367.464 151.521 367.416 151.169 367.416C150.449 367.416 149.553 367.944 148.977 369.432V375H147.521ZM159.174 375L156.038 366.312H157.542L159.19 371.272C159.446 372.12 159.718 373 159.99 373.816H160.054C160.326 373 160.598 372.12 160.854 371.272L162.518 366.312H163.942L160.87 375H159.174ZM168.913 375.224C166.769 375.224 164.881 373.544 164.881 370.68C164.881 367.768 166.769 366.104 168.913 366.104C171.041 366.104 172.929 367.768 172.929 370.68C172.929 373.544 171.041 375.224 168.913 375.224ZM168.913 374.008C170.417 374.008 171.425 372.664 171.425 370.68C171.425 368.664 170.417 367.32 168.913 367.32C167.393 367.32 166.385 368.664 166.385 370.68C166.385 372.664 167.393 374.008 168.913 374.008ZM176.776 375.224C175.672 375.224 175.24 374.52 175.24 373.272V362.28H176.696V373.368C176.696 373.832 176.888 374.008 177.112 374.008C177.176 374.008 177.24 374.008 177.416 373.976L177.608 375.096C177.4 375.16 177.176 375.224 176.776 375.224ZM182.314 375.224C180.491 375.224 179.659 374.04 179.659 371.816V366.312H181.115V371.64C181.115 373.256 181.611 373.944 182.763 373.944C183.643 373.944 184.283 373.512 185.099 372.488V366.312H186.555V375H185.355L185.227 373.64H185.195C184.379 374.584 183.515 375.224 182.314 375.224ZM189.505 375V366.312H190.689L190.833 367.576H190.881C191.633 366.76 192.545 366.104 193.585 366.104C194.913 366.104 195.633 366.728 195.969 367.752C196.881 366.792 197.793 366.104 198.849 366.104C200.625 366.104 201.489 367.288 201.489 369.496V375H200.033V369.688C200.033 368.056 199.521 367.368 198.401 367.368C197.729 367.368 197.041 367.816 196.225 368.696V375H194.769V369.688C194.769 368.056 194.257 367.368 193.137 367.368C192.481 367.368 191.745 367.816 190.961 368.696V375H189.505ZM207.822 375.224C205.502 375.224 203.662 373.528 203.662 370.68C203.662 367.848 205.566 366.104 207.566 366.104C209.774 366.104 211.022 367.688 211.022 370.184C211.022 370.488 211.006 370.792 210.958 371.016H205.102C205.214 372.856 206.334 374.056 207.998 374.056C208.83 374.056 209.518 373.784 210.158 373.352L210.686 374.328C209.918 374.824 209.006 375.224 207.822 375.224ZM205.086 369.96H209.742C209.742 368.216 208.958 367.272 207.582 367.272C206.366 367.272 205.278 368.248 205.086 369.96ZM219.107 378.152C217.619 375.752 216.739 373.192 216.739 370.04C216.739 366.904 217.619 364.312 219.107 361.912L220.003 362.344C218.627 364.616 217.955 367.32 217.955 370.04C217.955 372.76 218.627 375.464 220.003 377.736L219.107 378.152ZM222.098 375V373.784H224.706V365.384H222.61V364.44C223.666 364.248 224.418 363.976 225.042 363.608H226.162V373.784H228.53V375H222.098ZM230.749 378.04L230.413 377.192C231.405 376.744 232.013 375.944 232.013 374.968L231.853 373.656L232.557 374.712C232.365 374.952 232.109 375.032 231.821 375.032C231.261 375.032 230.765 374.664 230.765 374.008C230.765 373.368 231.261 372.984 231.853 372.984C232.621 372.984 233.085 373.64 233.085 374.696C233.085 376.248 232.205 377.448 230.749 378.04ZM238.466 375.224C236.178 375.224 234.802 373.096 234.802 369.272C234.802 365.448 236.178 363.4 238.466 363.4C240.722 363.4 242.098 365.448 242.098 369.272C242.098 373.096 240.722 375.224 238.466 375.224ZM238.466 374.04C239.794 374.04 240.69 372.616 240.69 369.272C240.69 365.912 239.794 364.568 238.466 364.568C237.122 364.568 236.21 365.912 236.21 369.272C236.21 372.616 237.122 374.04 238.466 374.04ZM247.341 375.224C245.053 375.224 243.677 373.096 243.677 369.272C243.677 365.448 245.053 363.4 247.341 363.4C249.597 363.4 250.973 365.448 250.973 369.272C250.973 373.096 249.597 375.224 247.341 375.224ZM247.341 374.04C248.669 374.04 249.565 372.616 249.565 369.272C249.565 365.912 248.669 364.568 247.341 364.568C245.997 364.568 245.085 365.912 245.085 369.272C245.085 372.616 245.997 374.04 247.341 374.04ZM256.216 375.224C253.928 375.224 252.552 373.096 252.552 369.272C252.552 365.448 253.928 363.4 256.216 363.4C258.472 363.4 259.848 365.448 259.848 369.272C259.848 373.096 258.472 375.224 256.216 375.224ZM256.216 374.04C257.544 374.04 258.44 372.616 258.44 369.272C258.44 365.912 257.544 364.568 256.216 364.568C254.872 364.568 253.96 365.912 253.96 369.272C253.96 372.616 254.872 374.04 256.216 374.04ZM265.693 375V366.312H266.877L267.021 367.576H267.069C267.821 366.76 268.733 366.104 269.773 366.104C271.101 366.104 271.821 366.728 272.157 367.752C273.069 366.792 273.981 366.104 275.037 366.104C276.813 366.104 277.677 367.288 277.677 369.496V375H276.221V369.688C276.221 368.056 275.709 367.368 274.589 367.368C273.917 367.368 273.229 367.816 272.413 368.696V375H270.957V369.688C270.957 368.056 270.445 367.368 269.325 367.368C268.669 367.368 267.933 367.816 267.149 368.696V375H265.693ZM282.249 368.168C281.113 368.168 280.201 367.592 279.657 366.808L280.425 366.216C280.841 366.856 281.465 367.256 282.185 367.256C282.953 367.256 283.577 366.808 283.577 366.008C283.577 365.192 282.793 364.76 281.417 364.76V364.04C282.617 364.04 283.305 363.496 283.305 362.776C283.305 362.104 282.825 361.656 282.041 361.656C281.529 361.656 281.017 362.024 280.633 362.52L279.945 361.912C280.537 361.208 281.257 360.76 282.217 360.76C283.433 360.76 284.457 361.464 284.457 362.632C284.457 363.464 283.929 364.008 283.225 364.344C284.009 364.552 284.729 365.144 284.729 366.072C284.729 367.352 283.609 368.168 282.249 368.168ZM287.195 378.152L286.283 377.736C287.659 375.464 288.331 372.76 288.331 370.04C288.331 367.32 287.659 364.616 286.283 362.344L287.195 361.912C288.667 364.312 289.547 366.904 289.547 370.04C289.547 373.192 288.667 375.752 287.195 378.152Z" fill="#4F4F4F"/>
<mask id="mask9_2003_64828" style="mask-type:luminance" maskUnits="userSpaceOnUse" x="352" y="363" width="10" height="10">
<path d="M362 363H352V373H362V363Z" fill="white"/>
</mask>
<g mask="url(#mask9_2003_64828)">
<path d="M361.906 368.093L356.906 363.093L351.906 368.093L356.906 373.093L361.906 368.093Z" fill="url(#paint10_linear_2003_64828)"/>
</g>
<path d="M371.602 375V363.272H374.946C377.57 363.272 379.346 364.152 379.346 366.728C379.346 369.192 377.586 370.344 375.01 370.344H373.09V375H371.602ZM373.09 369.144H374.834C376.882 369.144 377.874 368.392 377.874 366.728C377.874 365.016 376.834 364.488 374.754 364.488H373.09V369.144ZM381.599 375V366.312H382.783L382.927 367.896H382.975C383.567 366.792 384.463 366.104 385.439 366.104C385.823 366.104 386.079 366.152 386.367 366.28L386.095 367.56C385.791 367.464 385.599 367.416 385.247 367.416C384.527 367.416 383.631 367.944 383.055 369.432V375H381.599ZM390.959 375.224C388.815 375.224 386.927 373.544 386.927 370.68C386.927 367.768 388.815 366.104 390.959 366.104C393.087 366.104 394.975 367.768 394.975 370.68C394.975 373.544 393.087 375.224 390.959 375.224ZM390.959 374.008C392.463 374.008 393.471 372.664 393.471 370.68C393.471 368.664 392.463 367.32 390.959 367.32C389.439 367.32 388.431 368.664 388.431 370.68C388.431 372.664 389.439 374.008 390.959 374.008ZM400.695 375.224C398.391 375.224 396.631 373.544 396.631 370.68C396.631 367.768 398.583 366.104 400.807 366.104C401.943 366.104 402.743 366.568 403.351 367.128L402.615 368.088C402.103 367.624 401.559 367.32 400.887 367.32C399.287 367.32 398.135 368.664 398.135 370.68C398.135 372.664 399.239 374.008 400.839 374.008C401.623 374.008 402.343 373.624 402.887 373.144L403.511 374.12C402.743 374.808 401.735 375.224 400.695 375.224ZM408.525 375.224C406.205 375.224 404.365 373.528 404.365 370.68C404.365 367.848 406.269 366.104 408.269 366.104C410.477 366.104 411.725 367.688 411.725 370.184C411.725 370.488 411.709 370.792 411.661 371.016H405.805C405.917 372.856 407.037 374.056 408.701 374.056C409.533 374.056 410.221 373.784 410.861 373.352L411.389 374.328C410.621 374.824 409.709 375.224 408.525 375.224ZM405.789 369.96H410.445C410.445 368.216 409.661 367.272 408.285 367.272C407.069 367.272 405.981 368.248 405.789 369.96ZM416.152 375.224C414.92 375.224 413.72 374.696 412.904 374.024L413.624 373.048C414.376 373.656 415.144 374.088 416.184 374.088C417.336 374.088 417.912 373.48 417.912 372.712C417.912 371.832 416.872 371.432 415.912 371.08C414.712 370.616 413.384 370.04 413.384 368.552C413.384 367.176 414.488 366.104 416.376 366.104C417.448 366.104 418.408 366.536 419.08 367.08L418.376 368.008C417.784 367.576 417.16 367.24 416.392 367.24C415.288 367.24 414.792 367.816 414.792 368.488C414.792 369.32 415.672 369.64 416.664 369.992C417.928 370.472 419.304 370.984 419.304 372.632C419.304 374.056 418.2 375.224 416.152 375.224ZM423.637 375.224C422.405 375.224 421.205 374.696 420.389 374.024L421.109 373.048C421.861 373.656 422.629 374.088 423.669 374.088C424.821 374.088 425.397 373.48 425.397 372.712C425.397 371.832 424.357 371.432 423.397 371.08C422.197 370.616 420.869 370.04 420.869 368.552C420.869 367.176 421.973 366.104 423.861 366.104C424.933 366.104 425.893 366.536 426.565 367.08L425.861 368.008C425.269 367.576 424.645 367.24 423.877 367.24C422.773 367.24 422.277 367.816 422.277 368.488C422.277 369.32 423.157 369.64 424.149 369.992C425.413 370.472 426.789 370.984 426.789 372.632C426.789 374.056 425.685 375.224 423.637 375.224ZM433.803 375L431.371 366.312H432.859L434.171 371.352C434.347 372.184 434.507 372.952 434.667 373.768H434.747C434.939 372.952 435.115 372.168 435.339 371.352L436.683 366.312H438.107L439.483 371.352C439.691 372.184 439.883 372.952 440.091 373.768H440.155C440.331 372.952 440.491 372.184 440.699 371.352L441.963 366.312H443.355L441.019 375H439.243L437.979 370.328C437.755 369.496 437.595 368.712 437.387 367.816H437.307C437.131 368.712 436.955 369.512 436.715 370.344L435.499 375H433.803ZM447.037 375.224C445.581 375.224 444.493 374.312 444.493 372.744C444.493 370.856 446.125 369.912 449.821 369.496C449.821 368.376 449.469 367.304 448.045 367.304C447.021 367.304 446.109 367.784 445.437 368.248L444.861 367.224C445.661 366.712 446.877 366.104 448.268 366.104C450.397 366.104 451.293 367.512 451.293 369.672V375H450.093L449.965 373.976H449.901C449.085 374.664 448.109 375.224 447.037 375.224ZM447.437 374.04C448.285 374.04 448.989 373.64 449.821 372.888V370.472C446.893 370.808 445.916 371.528 445.916 372.648C445.916 373.64 446.589 374.04 447.437 374.04ZM456.491 375.224C454.635 375.224 454.027 374.056 454.027 372.328V367.496H452.731V366.408L454.091 366.312L454.251 363.864H455.483V366.312H457.835V367.496H455.483V372.36C455.483 373.416 455.819 374.04 456.827 374.04C457.131 374.04 457.531 373.912 457.803 373.8L458.091 374.888C457.611 375.064 457.035 375.224 456.491 375.224ZM463.025 375.224C460.705 375.224 458.865 373.528 458.865 370.68C458.865 367.848 460.769 366.104 462.769 366.104C464.977 366.104 466.225 367.688 466.225 370.184C466.225 370.488 466.209 370.792 466.161 371.016H460.305C460.417 372.856 461.537 374.056 463.201 374.056C464.033 374.056 464.721 373.784 465.361 373.352L465.889 374.328C465.121 374.824 464.209 375.224 463.025 375.224ZM460.289 369.96H464.945C464.945 368.216 464.161 367.272 462.785 367.272C461.569 367.272 460.481 368.248 460.289 369.96ZM468.38 375V366.312H469.564L469.708 367.896H469.756C470.348 366.792 471.244 366.104 472.22 366.104C472.604 366.104 472.86 366.152 473.148 366.28L472.876 367.56C472.572 367.464 472.38 367.416 472.028 367.416C471.308 367.416 470.412 367.944 469.836 369.432V375H468.38ZM478.162 375V366.312H479.346L479.49 367.896H479.538C480.13 366.792 481.026 366.104 482.002 366.104C482.386 366.104 482.642 366.152 482.93 366.28L482.658 367.56C482.354 367.464 482.162 367.416 481.81 367.416C481.09 367.416 480.194 367.944 479.618 369.432V375H478.162ZM487.65 375.224C485.33 375.224 483.49 373.528 483.49 370.68C483.49 367.848 485.394 366.104 487.394 366.104C489.602 366.104 490.85 367.688 490.85 370.184C490.85 370.488 490.834 370.792 490.786 371.016H484.93C485.042 372.856 486.162 374.056 487.826 374.056C488.658 374.056 489.346 373.784 489.986 373.352L490.514 374.328C489.746 374.824 488.834 375.224 487.65 375.224ZM484.914 369.96H489.57C489.57 368.216 488.786 367.272 487.41 367.272C486.194 367.272 485.106 368.248 484.914 369.96ZM496.413 375.224C494.109 375.224 492.349 373.544 492.349 370.68C492.349 367.768 494.301 366.104 496.525 366.104C497.661 366.104 498.461 366.568 499.069 367.128L498.333 368.088C497.821 367.624 497.277 367.32 496.605 367.32C495.005 367.32 493.853 368.664 493.853 370.68C493.853 372.664 494.957 374.008 496.557 374.008C497.341 374.008 498.061 373.624 498.605 373.144L499.229 374.12C498.461 374.808 497.453 375.224 496.413 375.224ZM501.352 378.76C500.952 378.76 500.616 378.696 500.344 378.584L500.632 377.416C500.792 377.48 501.048 377.544 501.288 377.544C502.264 377.544 502.888 376.744 503.256 375.672L503.448 375.016L499.96 366.312H501.464L503.24 371.144C503.512 371.912 503.8 372.792 504.088 373.592H504.168C504.408 372.792 504.664 371.928 504.888 371.144L506.456 366.312H507.88L504.6 375.736C503.992 377.448 503.096 378.76 501.352 378.76ZM512.866 375.224C510.562 375.224 508.802 373.544 508.802 370.68C508.802 367.768 510.754 366.104 512.978 366.104C514.114 366.104 514.914 366.568 515.522 367.128L514.786 368.088C514.274 367.624 513.73 367.32 513.058 367.32C511.458 367.32 510.306 368.664 510.306 370.68C510.306 372.664 511.41 374.008 513.01 374.008C513.794 374.008 514.514 373.624 515.058 373.144L515.682 374.12C514.914 374.808 513.906 375.224 512.866 375.224ZM519.151 375.224C518.047 375.224 517.615 374.52 517.615 373.272V362.28H519.071V373.368C519.071 373.832 519.263 374.008 519.487 374.008C519.551 374.008 519.615 374.008 519.791 373.976L519.983 375.096C519.775 375.16 519.551 375.224 519.151 375.224ZM522.162 375V366.312H523.618V375H522.162ZM522.898 364.52C522.322 364.52 521.922 364.152 521.922 363.544C521.922 362.984 522.322 362.616 522.898 362.616C523.458 362.616 523.874 362.984 523.874 363.544C523.874 364.152 523.458 364.52 522.898 364.52ZM526.568 375V366.312H527.752L527.896 367.576H527.944C528.76 366.76 529.656 366.104 530.856 366.104C532.68 366.104 533.512 367.288 533.512 369.496V375H532.04V369.688C532.04 368.056 531.544 367.368 530.392 367.368C529.512 367.368 528.888 367.832 528.024 368.696V375H526.568ZM539.261 379C537.133 379 535.661 378.168 535.661 376.68C535.661 375.944 536.141 375.224 536.941 374.712V374.648C536.493 374.36 536.157 373.896 536.157 373.208C536.157 372.488 536.669 371.928 537.133 371.608V371.544C536.557 371.08 535.981 370.248 535.981 369.208C535.981 367.288 537.485 366.104 539.245 366.104C539.741 366.104 540.173 366.2 540.477 366.312H543.501V367.448H541.725C542.141 367.848 542.429 368.488 542.429 369.24C542.429 371.096 541.021 372.248 539.245 372.248C538.829 372.248 538.349 372.152 537.949 371.96C537.645 372.216 537.389 372.52 537.389 372.984C537.389 373.544 537.757 373.944 538.925 373.944H540.621C542.637 373.944 543.645 374.568 543.645 376.008C543.645 377.624 541.933 379 539.261 379ZM539.245 371.272C540.253 371.272 541.101 370.456 541.101 369.208C541.101 367.928 540.269 367.16 539.245 367.16C538.221 367.16 537.389 367.912 537.389 369.208C537.389 370.456 538.237 371.272 539.245 371.272ZM539.453 378.008C541.133 378.008 542.221 377.128 542.221 376.232C542.221 375.416 541.597 375.144 540.461 375.144H538.957C538.621 375.144 538.221 375.112 537.821 375C537.197 375.448 536.941 375.976 536.941 376.472C536.941 377.416 537.885 378.008 539.453 378.008ZM548.943 375V366.312H550.127L550.271 367.896H550.319C550.911 366.792 551.807 366.104 552.783 366.104C553.167 366.104 553.423 366.152 553.711 366.28L553.439 367.56C553.135 367.464 552.943 367.416 552.591 367.416C551.871 367.416 550.975 367.944 550.399 369.432V375H548.943ZM556.677 375.224C555.221 375.224 554.133 374.312 554.133 372.744C554.133 370.856 555.765 369.912 559.461 369.496C559.461 368.376 559.109 367.304 557.685 367.304C556.661 367.304 555.749 367.784 555.077 368.248L554.501 367.224C555.301 366.712 556.517 366.104 557.909 366.104C560.037 366.104 560.933 367.512 560.933 369.672V375H559.733L559.605 373.976H559.541C558.725 374.664 557.749 375.224 556.677 375.224ZM557.077 374.04C557.925 374.04 558.629 373.64 559.461 372.888V370.472C556.533 370.808 555.557 371.528 555.557 372.648C555.557 373.64 556.229 374.04 557.077 374.04ZM566.132 375.224C564.276 375.224 563.668 374.056 563.668 372.328V367.496H562.372V366.408L563.732 366.312L563.892 363.864H565.124V366.312H567.476V367.496H565.124V372.36C565.124 373.416 565.46 374.04 566.468 374.04C566.772 374.04 567.172 373.912 567.444 373.8L567.732 374.888C567.252 375.064 566.676 375.224 566.132 375.224ZM572.666 375.224C570.346 375.224 568.506 373.528 568.506 370.68C568.506 367.848 570.41 366.104 572.41 366.104C574.618 366.104 575.866 367.688 575.866 370.184C575.866 370.488 575.85 370.792 575.802 371.016H569.946C570.058 372.856 571.178 374.056 572.842 374.056C573.674 374.056 574.362 373.784 575.002 373.352L575.53 374.328C574.762 374.824 573.85 375.224 572.666 375.224ZM569.93 369.96H574.586C574.586 368.216 573.802 367.272 572.426 367.272C571.21 367.272 570.122 368.248 569.93 369.96ZM583.951 378.152C582.463 375.752 581.583 373.192 581.583 370.04C581.583 366.904 582.463 364.312 583.951 361.912L584.847 362.344C583.471 364.616 582.799 367.32 582.799 370.04C582.799 372.76 583.471 375.464 584.847 377.736L583.951 378.152ZM588.813 370.456C587.197 370.456 586.141 369.112 586.141 366.744C586.141 364.392 587.197 363.064 588.813 363.064C590.429 363.064 591.485 364.392 591.485 366.744C591.485 369.112 590.429 370.456 588.813 370.456ZM588.813 369.56C589.741 369.56 590.365 368.6 590.365 366.744C590.365 364.872 589.741 363.96 588.813 363.96C587.885 363.96 587.245 364.872 587.245 366.744C587.245 368.6 587.885 369.56 588.813 369.56ZM589.149 375.224L595.613 363.064H596.605L590.141 375.224H589.149ZM596.989 375.224C595.373 375.224 594.317 373.88 594.317 371.496C594.317 369.16 595.373 367.816 596.989 367.816C598.573 367.816 599.645 369.16 599.645 371.496C599.645 373.88 598.573 375.224 596.989 375.224ZM596.989 374.328C597.901 374.328 598.541 373.368 598.541 371.496C598.541 369.624 597.901 368.728 596.989 368.728C596.061 368.728 595.421 369.624 595.421 371.496C595.421 373.368 596.061 374.328 596.989 374.328ZM601.852 378.152L600.94 377.736C602.316 375.464 602.988 372.76 602.988 370.04C602.988 367.32 602.316 364.616 600.94 362.344L601.852 361.912C603.324 364.312 604.204 366.904 604.204 370.04C604.204 373.192 603.324 375.752 601.852 378.152Z" fill="#4F4F4F"/>
<defs>
<linearGradient id="paint0_linear_2003_64828" x1="303" y1="41" x2="303" y2="329.495" gradientUnits="userSpaceOnUse">
<stop stop-color="#1DA637"/>
<stop offset="1" stop-color="white"/>
</linearGradient>
<linearGradient id="paint1_linear_2003_64828" x1="93.0988" y1="104.093" x2="93.0991" y2="114.478" gradientUnits="userSpaceOnUse">
<stop stop-color="#A6CC94"/>
<stop offset="1" stop-color="#1DA637"/>
</linearGradient>
<linearGradient id="paint2_linear_2003_64828" x1="233.1" y1="86.0933" x2="233.099" y2="96.4785" gradientUnits="userSpaceOnUse">
<stop stop-color="#A6CC94"/>
<stop offset="1" stop-color="#1DA637"/>
</linearGradient>
<linearGradient id="paint3_linear_2003_64828" x1="373.1" y1="73.0933" x2="373.099" y2="83.4786" gradientUnits="userSpaceOnUse">
<stop stop-color="#A6CC94"/>
<stop offset="1" stop-color="#1DA637"/>
</linearGradient>
<linearGradient id="paint4_linear_2003_64828" x1="513.1" y1="36.0933" x2="513.099" y2="46.4785" gradientUnits="userSpaceOnUse">
<stop stop-color="#A6CC94"/>
<stop offset="1" stop-color="#1DA637"/>
</linearGradient>
<linearGradient id="paint5_linear_2003_64828" x1="93" y1="155" x2="93" y2="298" gradientUnits="userSpaceOnUse">
<stop stop-color="#6FC7E2"/>
<stop offset="1" stop-color="#00AED4"/>
</linearGradient>
<linearGradient id="paint6_linear_2003_64828" x1="233" y1="115" x2="233" y2="298" gradientUnits="userSpaceOnUse">
<stop stop-color="#6FC7E2"/>
<stop offset="1" stop-color="#00AED4"/>
</linearGradient>
<linearGradient id="paint7_linear_2003_64828" x1="373" y1="83" x2="373" y2="298" gradientUnits="userSpaceOnUse">
<stop stop-color="#6FC7E2"/>
<stop offset="1" stop-color="#00AED4"/>
</linearGradient>
<linearGradient id="paint8_linear_2003_64828" x1="513" y1="57" x2="513" y2="298" gradientUnits="userSpaceOnUse">
<stop stop-color="#6FC7E2"/>
<stop offset="1" stop-color="#00AED4"/>
</linearGradient>
<linearGradient id="paint9_linear_2003_64828" x1="10" y1="365" x2="10" y2="371" gradientUnits="userSpaceOnUse">
<stop stop-color="#6FC7E2"/>
<stop offset="1" stop-color="#00AED4"/>
</linearGradient>
<linearGradient id="paint10_linear_2003_64828" x1="357.099" y1="363.094" x2="357.099" y2="373.478" gradientUnits="userSpaceOnUse">
<stop stop-color="#A6CC94"/>
<stop offset="1" stop-color="#1DA637"/>
</linearGradient>
</defs>
</svg>
