<svg width="876" height="350" viewBox="0 0 876 350" fill="none" xmlns="http://www.w3.org/2000/svg">
<g clip-path="url(#clip0_338_34884)">
<path d="M876 0H0V350H876V0Z" fill="white"/>
<path d="M358 102H44V103H358V102Z" fill="#E7E7E7"/>
<mask id="mask0_338_34884" style="mask-type:luminance" maskUnits="userSpaceOnUse" x="46" y="178" width="10" height="10">
<path d="M56 178H46V188H56V178Z" fill="white"/>
</mask>
<g mask="url(#mask0_338_34884)">
<path d="M55.9063 183.094L50.9062 178.094L45.9063 183.094L50.9063 188.094L55.9063 183.094Z" fill="url(#paint0_linear_338_34884)"/>
</g>
<path d="M64.0297 190V178.272H67.5177C69.9017 178.272 71.5497 179.072 71.5497 181.136C71.5497 182.304 70.9257 183.328 69.8217 183.68V183.76C71.2297 184.032 72.2217 184.96 72.2217 186.56C72.2217 188.864 70.3977 190 67.7737 190H64.0297ZM65.5177 183.264H67.2617C69.2777 183.264 70.0937 182.512 70.0937 181.328C70.0937 179.952 69.1497 179.44 67.3257 179.44H65.5177V183.264ZM65.5177 188.816H67.5657C69.5817 188.816 70.7657 188.096 70.7657 186.512C70.7657 185.056 69.6137 184.4 67.5657 184.4H65.5177V188.816ZM76.9453 190.208C75.1213 190.208 74.3053 189.024 74.3053 186.816V181.312H75.7613V186.64C75.7613 188.256 76.2413 188.944 77.3933 188.944C78.2893 188.944 78.9133 188.512 79.7453 187.472V181.312H81.2013V190H79.9853L79.8733 188.64H79.8253C79.0093 189.584 78.1453 190.208 76.9453 190.208ZM86.4081 190.208C85.1761 190.208 83.9921 189.696 83.1601 189.008L83.8801 188.048C84.6321 188.656 85.4161 189.072 86.4561 189.072C87.6081 189.072 88.1681 188.464 88.1681 187.712C88.1681 186.832 87.1441 186.432 86.1841 186.064C84.9681 185.616 83.5921 185.024 83.5921 183.552C83.5921 182.176 84.6961 181.088 86.5841 181.088C87.6561 181.088 88.6001 181.536 89.2881 182.064L88.5841 183.008C87.9761 182.56 87.3681 182.24 86.5841 182.24C85.4961 182.24 85.0001 182.816 85.0001 183.488C85.0001 184.32 85.9441 184.624 86.9201 184.992C88.1841 185.472 89.5761 185.984 89.5761 187.632C89.5761 189.04 88.4561 190.208 86.4081 190.208ZM91.6204 190V181.312H93.0764V190H91.6204ZM92.3564 179.52C91.7804 179.52 91.3484 179.12 91.3484 178.576C91.3484 177.984 91.7804 177.632 92.3564 177.632C92.9324 177.632 93.3644 177.984 93.3644 178.576C93.3644 179.12 92.9324 179.52 92.3564 179.52ZM96.0267 190V181.312H97.2267L97.3547 182.56H97.4027C98.2347 181.744 99.1307 181.088 100.315 181.088C102.139 181.088 102.971 182.272 102.971 184.496V190H101.515V184.688C101.515 183.056 101.019 182.368 99.8667 182.368C98.9707 182.368 98.3627 182.816 97.4827 183.696V190H96.0267ZM109.312 190.208C107.008 190.208 105.152 188.528 105.152 185.664C105.152 182.848 107.056 181.088 109.072 181.088C111.28 181.088 112.528 182.688 112.528 185.168C112.528 185.488 112.496 185.792 112.464 186H106.608C106.704 187.856 107.84 189.04 109.488 189.04C110.336 189.04 111.024 188.784 111.664 188.352L112.192 189.312C111.424 189.808 110.496 190.208 109.312 190.208ZM106.592 184.96H111.248C111.248 183.2 110.448 182.256 109.088 182.256C107.856 182.256 106.768 183.248 106.592 184.96ZM116.939 190.208C115.707 190.208 114.523 189.696 113.691 189.008L114.411 188.048C115.163 188.656 115.947 189.072 116.987 189.072C118.139 189.072 118.699 188.464 118.699 187.712C118.699 186.832 117.675 186.432 116.715 186.064C115.499 185.616 114.123 185.024 114.123 183.552C114.123 182.176 115.227 181.088 117.115 181.088C118.187 181.088 119.131 181.536 119.819 182.064L119.115 183.008C118.507 182.56 117.899 182.24 117.115 182.24C116.027 182.24 115.531 182.816 115.531 183.488C115.531 184.32 116.475 184.624 117.451 184.992C118.715 185.472 120.107 185.984 120.107 187.632C120.107 189.04 118.987 190.208 116.939 190.208ZM124.424 190.208C123.192 190.208 122.008 189.696 121.176 189.008L121.896 188.048C122.648 188.656 123.432 189.072 124.472 189.072C125.624 189.072 126.184 188.464 126.184 187.712C126.184 186.832 125.16 186.432 124.2 186.064C122.984 185.616 121.608 185.024 121.608 183.552C121.608 182.176 122.712 181.088 124.6 181.088C125.672 181.088 126.616 181.536 127.304 182.064L126.6 183.008C125.992 182.56 125.384 182.24 124.6 182.24C123.512 182.24 123.016 182.816 123.016 183.488C123.016 184.32 123.96 184.624 124.936 184.992C126.2 185.472 127.592 185.984 127.592 187.632C127.592 189.04 126.472 190.208 124.424 190.208ZM134.798 185.232H138.35L137.79 183.44C137.358 182.112 136.99 180.832 136.606 179.472H136.542C136.174 180.848 135.79 182.112 135.374 183.44L134.798 185.232ZM139.838 190L138.718 186.416H134.43L133.294 190H131.79L135.774 178.272H137.422L141.406 190H139.838ZM145.893 190.208C143.717 190.208 142.309 188.56 142.309 185.664C142.309 182.848 144.085 181.088 146.069 181.088C147.093 181.088 147.749 181.472 148.517 182.112L148.437 180.608V177.264H149.893V190H148.709L148.565 188.976H148.533C147.845 189.648 146.933 190.208 145.893 190.208ZM146.213 188.992C147.013 188.992 147.717 188.592 148.437 187.792V183.232C147.701 182.576 147.045 182.32 146.325 182.32C144.917 182.32 143.813 183.664 143.813 185.648C143.813 187.744 144.677 188.992 146.213 188.992ZM154.727 190L151.591 181.312H153.111L154.743 186.256C155.015 187.104 155.287 188 155.559 188.816H155.623C155.879 188 156.167 187.104 156.423 186.256L158.071 181.312H159.511L156.423 190H154.727ZM164.512 190.208C162.384 190.208 160.48 188.544 160.48 185.664C160.48 182.768 162.384 181.088 164.512 181.088C166.64 181.088 168.544 182.768 168.544 185.664C168.544 188.544 166.64 190.208 164.512 190.208ZM164.512 188.992C166.016 188.992 167.04 187.664 167.04 185.664C167.04 183.664 166.016 182.304 164.512 182.304C163.008 182.304 162 183.664 162 185.664C162 187.664 163.008 188.992 164.512 188.992ZM174.263 190.208C171.959 190.208 170.183 188.544 170.183 185.664C170.183 182.768 172.151 181.088 174.375 181.088C175.511 181.088 176.295 181.568 176.919 182.112L176.167 183.088C175.655 182.624 175.127 182.304 174.423 182.304C172.855 182.304 171.703 183.664 171.703 185.664C171.703 187.664 172.791 188.992 174.391 188.992C175.191 188.992 175.895 188.624 176.439 188.128L177.063 189.104C176.295 189.808 175.303 190.208 174.263 190.208ZM180.808 190.208C179.352 190.208 178.264 189.312 178.264 187.744C178.264 185.856 179.912 184.912 183.608 184.496C183.608 183.376 183.24 182.304 181.816 182.304C180.808 182.304 179.896 182.768 179.208 183.232L178.632 182.224C179.432 181.712 180.664 181.088 182.056 181.088C184.168 181.088 185.064 182.512 185.064 184.656V190H183.864L183.736 188.96H183.688C182.856 189.648 181.88 190.208 180.808 190.208ZM181.224 189.04C182.072 189.04 182.76 188.64 183.608 187.888V185.456C180.68 185.808 179.688 186.528 179.688 187.648C179.688 188.64 180.36 189.04 181.224 189.04ZM191.263 190.208C188.959 190.208 187.183 188.544 187.183 185.664C187.183 182.768 189.151 181.088 191.375 181.088C192.511 181.088 193.295 181.568 193.919 182.112L193.167 183.088C192.655 182.624 192.127 182.304 191.423 182.304C189.855 182.304 188.703 183.664 188.703 185.664C188.703 187.664 189.791 188.992 191.391 188.992C192.191 188.992 192.895 188.624 193.439 188.128L194.063 189.104C193.295 189.808 192.303 190.208 191.263 190.208ZM196.233 193.744C195.817 193.744 195.481 193.68 195.209 193.568L195.497 192.4C195.673 192.464 195.929 192.544 196.153 192.544C197.145 192.544 197.769 191.744 198.121 190.672L198.313 190.016L194.825 181.312H196.345L198.121 186.144C198.377 186.896 198.681 187.792 198.953 188.576H199.033C199.273 187.792 199.529 186.912 199.769 186.144L201.321 181.312H202.745L199.465 190.72C198.857 192.432 197.961 193.744 196.233 193.744ZM203.697 186.08V184.96H207.793V186.08H203.697ZM213.686 190V178.272H215.222L219.494 185.664L220.742 188.08H220.822C220.742 186.896 220.63 185.584 220.63 184.368V178.272H222.038V190H220.518L216.246 182.592L214.982 180.176H214.918C214.982 181.36 215.094 182.608 215.094 183.84V190H213.686ZM227.681 190V179.52H224.129V178.272H232.721V179.52H229.169V190H227.681ZM240.779 179.744L239.995 180.608C239.339 179.968 238.795 179.6 237.819 179.6C236.715 179.6 236.011 180.288 236.011 181.328C236.011 183.936 241.019 183.216 241.019 187.056C241.019 188.752 239.947 189.92 238.251 190.16V191.968H237.195V190.192C236.059 190.08 234.907 189.52 234.139 188.816L234.827 187.824C235.579 188.464 236.491 188.992 237.579 188.992C238.907 188.992 239.595 188.272 239.595 187.152C239.595 184.24 234.587 184.88 234.587 181.392C234.587 179.792 235.643 178.656 237.195 178.432V176.624H238.251V178.4C239.403 178.528 240.139 179.072 240.779 179.744ZM247.072 190V188.784H249.68V180.032H247.6V179.104C248.64 178.912 249.392 178.64 250.032 178.272H251.152V188.784H253.504V190H247.072ZM255.947 190V188.784H258.555V180.032H256.475V179.104C257.515 178.912 258.267 178.64 258.907 178.272H260.027V188.784H262.379V190H255.947ZM264.614 193.04L264.262 192.176C265.254 191.744 265.846 190.976 265.862 190C265.798 190.016 265.75 190.016 265.686 190.016C265.126 190.016 264.614 189.664 264.614 188.992C264.614 188.368 265.126 187.968 265.718 187.968C266.486 187.968 266.95 188.624 266.95 189.696C266.95 191.232 266.054 192.432 264.614 193.04ZM269.275 190V188.784H271.883V180.032H269.803V179.104C270.843 178.912 271.595 178.64 272.235 178.272H273.355V188.784H275.707V190H269.275ZM280.918 190.208C279.094 190.208 277.974 189.44 277.19 188.656L277.91 187.696C278.582 188.368 279.43 188.992 280.79 188.992C282.166 188.992 283.286 187.936 283.286 186.224C283.286 184.544 282.326 183.552 280.854 183.552C280.07 183.552 279.574 183.792 278.902 184.24L278.118 183.76L278.486 178.272H284.198V179.52H279.766L279.478 182.912C279.99 182.624 280.518 182.448 281.222 182.448C283.174 182.448 284.758 183.6 284.758 186.176C284.758 188.752 282.902 190.208 280.918 190.208ZM289.841 190.208C288.001 190.208 286.849 189.44 286.081 188.608L286.817 187.648C287.505 188.368 288.401 188.992 289.729 188.992C291.121 188.992 292.113 188.16 292.113 186.816C292.113 185.408 291.169 184.464 288.465 184.464V183.344C290.881 183.344 291.713 182.368 291.713 181.104C291.713 179.968 290.945 179.248 289.729 179.216C288.785 179.248 287.953 179.728 287.297 180.384L286.513 179.456C287.393 178.64 288.433 178.048 289.793 178.048C291.761 178.048 293.201 179.104 293.201 180.992C293.201 182.416 292.353 183.36 291.105 183.824V183.888C292.497 184.208 293.601 185.264 293.601 186.864C293.601 188.96 291.921 190.208 289.841 190.208ZM295.692 193.04L295.34 192.176C296.332 191.744 296.924 190.976 296.94 190C296.876 190.016 296.828 190.016 296.764 190.016C296.204 190.016 295.692 189.664 295.692 188.992C295.692 188.368 296.204 187.968 296.796 187.968C297.564 187.968 298.028 188.624 298.028 189.696C298.028 191.232 297.132 192.432 295.692 193.04ZM300.353 190V188.784H302.961V180.032H300.881V179.104C301.921 178.912 302.673 178.64 303.313 178.272H304.433V188.784H306.785V190H300.353ZM312.636 189.072C313.756 189.072 314.62 188 314.62 186.4C314.62 184.816 313.932 183.808 312.508 183.808C311.772 183.808 310.876 184.224 310.108 185.312C310.284 187.744 311.164 189.072 312.636 189.072ZM315.788 179.248L314.988 180.16C314.524 179.6 313.82 179.264 313.1 179.264C311.5 179.264 310.14 180.496 310.076 184.144C310.796 183.264 311.82 182.72 312.748 182.72C314.732 182.72 315.996 183.952 315.996 186.4C315.996 188.672 314.46 190.208 312.636 190.208C310.38 190.208 308.716 188.272 308.716 184.4C308.716 179.808 310.78 178.048 313.052 178.048C314.268 178.048 315.148 178.56 315.788 179.248ZM318.103 190V188.784H320.711V180.032H318.631V179.104C319.671 178.912 320.423 178.64 321.063 178.272H322.183V188.784H324.535V190H318.103Z" fill="#4F4F4F"/>
<mask id="mask1_338_34884" style="mask-type:luminance" maskUnits="userSpaceOnUse" x="46" y="214" width="11" height="10">
<path d="M56.5 214H46.5V224H56.5V214Z" fill="white"/>
</mask>
<g mask="url(#mask1_338_34884)">
<path d="M56.4063 219.094L51.4062 214.094L46.4062 219.094L51.4062 224.094L56.4063 219.094Z" fill="url(#paint1_linear_338_34884)"/>
</g>
<path d="M68.7664 226.208C65.8544 226.208 63.6624 223.952 63.6624 220.144C63.6624 216.352 65.8864 214.048 68.8624 214.048C70.2864 214.048 71.4064 214.752 72.0784 215.504L71.2784 216.464C70.6704 215.808 69.8864 215.344 68.8784 215.344C66.6544 215.344 65.1824 217.168 65.1824 220.096C65.1824 223.056 66.5904 224.912 68.8304 224.912C69.9504 224.912 70.7984 224.416 71.5504 223.6L72.3664 224.528C71.4384 225.6 70.2864 226.208 68.7664 226.208ZM77.7855 226.208C75.6575 226.208 73.7535 224.544 73.7535 221.664C73.7535 218.768 75.6575 217.088 77.7855 217.088C79.9135 217.088 81.8175 218.768 81.8175 221.664C81.8175 224.544 79.9135 226.208 77.7855 226.208ZM77.7855 224.992C79.2895 224.992 80.3135 223.664 80.3135 221.664C80.3135 219.664 79.2895 218.304 77.7855 218.304C76.2815 218.304 75.2735 219.664 75.2735 221.664C75.2735 223.664 76.2815 224.992 77.7855 224.992ZM84.1126 226V217.312H85.3126L85.4406 218.576H85.4886C86.2406 217.744 87.1526 217.088 88.1926 217.088C89.5206 217.088 90.2406 217.728 90.5926 218.752C91.4886 217.776 92.4006 217.088 93.4566 217.088C95.2486 217.088 96.0966 218.272 96.0966 220.496V226H94.6406V220.688C94.6406 219.056 94.1286 218.368 93.0246 218.368C92.3526 218.368 91.6486 218.8 90.8326 219.696V226H89.3766V220.688C89.3766 219.056 88.8646 218.368 87.7606 218.368C87.1046 218.368 86.3686 218.8 85.5686 219.696V226H84.1126ZM98.9251 226V217.312H100.125L100.253 218.576H100.301C101.053 217.744 101.965 217.088 103.005 217.088C104.333 217.088 105.053 217.728 105.405 218.752C106.301 217.776 107.213 217.088 108.269 217.088C110.061 217.088 110.909 218.272 110.909 220.496V226H109.453V220.688C109.453 219.056 108.941 218.368 107.837 218.368C107.165 218.368 106.461 218.8 105.645 219.696V226H104.189V220.688C104.189 219.056 103.677 218.368 102.573 218.368C101.917 218.368 101.181 218.8 100.381 219.696V226H98.9251ZM116.266 226.208C114.442 226.208 113.626 225.024 113.626 222.816V217.312H115.082V222.64C115.082 224.256 115.562 224.944 116.714 224.944C117.61 224.944 118.234 224.512 119.066 223.472V217.312H120.522V226H119.306L119.194 224.64H119.146C118.33 225.584 117.466 226.208 116.266 226.208ZM123.456 226V217.312H124.656L124.784 218.56H124.832C125.664 217.744 126.56 217.088 127.744 217.088C129.568 217.088 130.4 218.272 130.4 220.496V226H128.944V220.688C128.944 219.056 128.448 218.368 127.296 218.368C126.4 218.368 125.792 218.816 124.912 219.696V226H123.456ZM133.238 226V217.312H134.694V226H133.238ZM133.974 215.52C133.398 215.52 132.966 215.12 132.966 214.576C132.966 213.984 133.398 213.632 133.974 213.632C134.55 213.632 134.982 213.984 134.982 214.576C134.982 215.12 134.55 215.52 133.974 215.52ZM140.38 226.208C138.524 226.208 137.9 225.056 137.9 223.312V218.496H136.604V217.392L137.964 217.312L138.14 214.88H139.356V217.312H141.708V218.496H139.356V223.344C139.356 224.416 139.692 225.024 140.7 225.024C141.004 225.024 141.404 224.912 141.692 224.8L141.98 225.888C141.484 226.048 140.908 226.208 140.38 226.208ZM143.819 229.744C143.403 229.744 143.067 229.68 142.795 229.568L143.083 228.4C143.259 228.464 143.515 228.544 143.739 228.544C144.731 228.544 145.355 227.744 145.707 226.672L145.899 226.016L142.411 217.312H143.931L145.707 222.144C145.963 222.896 146.267 223.792 146.539 224.576H146.619C146.859 223.792 147.115 222.912 147.355 222.144L148.907 217.312H150.331L147.051 226.72C146.443 228.432 145.547 229.744 143.819 229.744ZM155.725 226V214.272H157.213V226H155.725ZM160.285 226V217.312H161.485L161.613 218.56H161.661C162.493 217.744 163.389 217.088 164.573 217.088C166.397 217.088 167.229 218.272 167.229 220.496V226H165.773V220.688C165.773 219.056 165.277 218.368 164.125 218.368C163.229 218.368 162.621 218.816 161.741 219.696V226H160.285ZM171.938 226L168.802 217.312H170.322L171.954 222.256C172.226 223.104 172.498 224 172.77 224.816H172.834C173.09 224 173.378 223.104 173.634 222.256L175.282 217.312H176.722L173.634 226H171.938ZM181.851 226.208C179.547 226.208 177.691 224.528 177.691 221.664C177.691 218.848 179.595 217.088 181.611 217.088C183.819 217.088 185.067 218.688 185.067 221.168C185.067 221.488 185.035 221.792 185.003 222H179.147C179.243 223.856 180.379 225.04 182.027 225.04C182.875 225.04 183.563 224.784 184.203 224.352L184.731 225.312C183.963 225.808 183.035 226.208 181.851 226.208ZM179.131 220.96H183.787C183.787 219.2 182.987 218.256 181.627 218.256C180.395 218.256 179.307 219.248 179.131 220.96ZM189.478 226.208C188.246 226.208 187.062 225.696 186.23 225.008L186.95 224.048C187.702 224.656 188.486 225.072 189.526 225.072C190.678 225.072 191.238 224.464 191.238 223.712C191.238 222.832 190.214 222.432 189.254 222.064C188.038 221.616 186.662 221.024 186.662 219.552C186.662 218.176 187.766 217.088 189.654 217.088C190.726 217.088 191.67 217.536 192.358 218.064L191.654 219.008C191.046 218.56 190.438 218.24 189.654 218.24C188.566 218.24 188.07 218.816 188.07 219.488C188.07 220.32 189.014 220.624 189.99 220.992C191.254 221.472 192.646 221.984 192.646 223.632C192.646 225.04 191.526 226.208 189.478 226.208ZM197.067 226.208C195.211 226.208 194.587 225.056 194.587 223.312V218.496H193.291V217.392L194.651 217.312L194.827 214.88H196.043V217.312H198.395V218.496H196.043V223.344C196.043 224.416 196.379 225.024 197.387 225.024C197.691 225.024 198.091 224.912 198.379 224.8L198.667 225.888C198.171 226.048 197.595 226.208 197.067 226.208ZM200.363 226V217.312H201.563L201.691 218.576H201.739C202.491 217.744 203.403 217.088 204.443 217.088C205.771 217.088 206.491 217.728 206.843 218.752C207.739 217.776 208.651 217.088 209.707 217.088C211.499 217.088 212.347 218.272 212.347 220.496V226H210.891V220.688C210.891 219.056 210.379 218.368 209.275 218.368C208.603 218.368 207.899 218.8 207.083 219.696V226H205.627V220.688C205.627 219.056 205.115 218.368 204.011 218.368C203.355 218.368 202.619 218.8 201.819 219.696V226H200.363ZM218.679 226.208C216.375 226.208 214.519 224.528 214.519 221.664C214.519 218.848 216.423 217.088 218.439 217.088C220.647 217.088 221.895 218.688 221.895 221.168C221.895 221.488 221.863 221.792 221.831 222H215.975C216.071 223.856 217.207 225.04 218.855 225.04C219.703 225.04 220.391 224.784 221.031 224.352L221.559 225.312C220.791 225.808 219.863 226.208 218.679 226.208ZM215.959 220.96H220.615C220.615 219.2 219.815 218.256 218.455 218.256C217.223 218.256 216.135 219.248 215.959 220.96ZM224.035 226V217.312H225.235L225.363 218.56H225.411C226.243 217.744 227.139 217.088 228.323 217.088C230.147 217.088 230.979 218.272 230.979 220.496V226H229.523V220.688C229.523 219.056 229.027 218.368 227.875 218.368C226.979 218.368 226.371 218.816 225.491 219.696V226H224.035ZM236.552 226.208C234.696 226.208 234.072 225.056 234.072 223.312V218.496H232.776V217.392L234.136 217.312L234.312 214.88H235.528V217.312H237.88V218.496H235.528V223.344C235.528 224.416 235.864 225.024 236.872 225.024C237.176 225.024 237.576 224.912 237.864 224.8L238.152 225.888C237.656 226.048 237.08 226.208 236.552 226.208ZM242.689 222.08V220.96H246.785V222.08H242.689ZM256.256 226V214.272H257.792L262.064 221.664L263.312 224.08H263.392C263.312 222.896 263.2 221.584 263.2 220.368V214.272H264.608V226H263.088L258.816 218.592L257.552 216.176H257.488C257.552 217.36 257.664 218.608 257.664 219.84V226H256.256ZM270.251 226V215.52H266.699V214.272H275.291V215.52H271.739V226H270.251ZM283.349 215.744L282.565 216.608C281.909 215.968 281.365 215.6 280.389 215.6C279.285 215.6 278.581 216.288 278.581 217.328C278.581 219.936 283.589 219.216 283.589 223.056C283.589 224.752 282.517 225.92 280.821 226.16V227.968H279.765V226.192C278.629 226.08 277.477 225.52 276.709 224.816L277.397 223.824C278.149 224.464 279.061 224.992 280.149 224.992C281.477 224.992 282.165 224.272 282.165 223.152C282.165 220.24 277.157 220.88 277.157 217.392C277.157 215.792 278.213 214.656 279.765 214.432V212.624H280.821V214.4C281.973 214.528 282.709 215.072 283.349 215.744ZM292.698 226.208C290.538 226.208 288.954 224.896 288.954 223.088C288.954 221.52 290.042 220.432 291.114 219.856V219.776C290.25 219.184 289.53 218.304 289.53 217.072C289.53 215.28 290.906 214.096 292.746 214.096C294.746 214.096 295.962 215.376 295.962 217.184C295.962 218.416 295.098 219.472 294.394 220.016V220.096C295.418 220.688 296.378 221.568 296.378 223.168C296.378 224.88 294.906 226.208 292.698 226.208ZM293.498 219.632C294.298 218.928 294.714 218.128 294.714 217.264C294.714 216.112 293.978 215.168 292.714 215.168C291.642 215.168 290.858 215.936 290.858 217.072C290.858 218.48 292.122 219.088 293.498 219.632ZM292.73 225.12C294.074 225.12 294.986 224.304 294.986 223.136C294.986 221.568 293.546 220.976 291.882 220.304C290.938 220.912 290.282 221.84 290.282 222.96C290.282 224.208 291.322 225.12 292.73 225.12ZM298.309 229.04L297.957 228.176C298.949 227.744 299.541 226.976 299.557 226C299.493 226.016 299.445 226.016 299.381 226.016C298.821 226.016 298.309 225.664 298.309 224.992C298.309 224.368 298.821 223.968 299.413 223.968C300.181 223.968 300.645 224.624 300.645 225.696C300.645 227.232 299.749 228.432 298.309 229.04ZM302.971 226V224.784H305.579V216.032H303.499V215.104C304.539 214.912 305.291 214.64 305.931 214.272H307.051V224.784H309.403V226H302.971ZM312.278 221.6H315.862V218C315.862 217.424 315.926 216.48 315.958 215.872H315.894C315.606 216.448 315.286 217.024 314.95 217.6L312.278 221.6ZM318.806 221.6V222.768H317.254V226H315.862V222.768H310.758V221.808L315.638 214.272H317.254V221.6H318.806ZM323.489 220.464C324.273 220.464 325.153 220.016 325.937 218.896C325.777 216.48 324.881 215.2 323.377 215.2C322.257 215.2 321.393 216.256 321.393 217.856C321.393 219.44 322.097 220.464 323.489 220.464ZM320.241 225.008L321.041 224.096C321.537 224.656 322.257 224.992 323.009 224.992C324.529 224.992 325.841 223.744 325.953 220.096C325.249 220.976 324.241 221.552 323.249 221.552C321.297 221.552 320.017 220.288 320.017 217.856C320.017 215.584 321.553 214.048 323.377 214.048C325.633 214.048 327.312 215.904 327.312 219.632C327.312 224.384 325.265 226.208 323.057 226.208C321.793 226.208 320.897 225.696 320.241 225.008ZM329.388 229.04L329.036 228.176C330.028 227.744 330.62 226.976 330.636 226C330.572 226.016 330.524 226.016 330.46 226.016C329.9 226.016 329.388 225.664 329.388 224.992C329.388 224.368 329.9 223.968 330.492 223.968C331.26 223.968 331.724 224.624 331.724 225.696C331.724 227.232 330.828 228.432 329.388 229.04ZM334.481 221.6H338.065V218C338.065 217.424 338.129 216.48 338.161 215.872H338.097C337.809 216.448 337.489 217.024 337.153 217.6L334.481 221.6ZM341.009 221.6V222.768H339.457V226H338.065V222.768H332.961V221.808L337.841 214.272H339.457V221.6H341.009ZM344.684 226C344.876 221.552 345.692 218.72 347.98 215.52H342.3V214.272H349.644V215.152C346.892 218.688 346.38 221.408 346.204 226H344.684ZM354.567 226.208C352.743 226.208 351.623 225.44 350.839 224.656L351.559 223.696C352.231 224.368 353.079 224.992 354.439 224.992C355.815 224.992 356.935 223.936 356.935 222.224C356.935 220.544 355.975 219.552 354.503 219.552C353.719 219.552 353.223 219.792 352.551 220.24L351.767 219.76L352.135 214.272H357.847V215.52H353.415L353.127 218.912C353.639 218.624 354.167 218.448 354.871 218.448C356.823 218.448 358.407 219.6 358.407 222.176C358.407 224.752 356.551 226.208 354.567 226.208Z" fill="#4F4F4F"/>
<mask id="mask2_338_34884" style="mask-type:luminance" maskUnits="userSpaceOnUse" x="46" y="250" width="11" height="10">
<path d="M56.5 250H46.5V260H56.5V250Z" fill="white"/>
</mask>
<g mask="url(#mask2_338_34884)">
<path d="M56.4063 255.094L51.4062 250.094L46.4063 255.094L51.4063 260.094L56.4063 255.094Z" fill="url(#paint2_linear_338_34884)"/>
</g>
<path d="M68.9773 262.208C66.0653 262.208 63.8733 259.952 63.8733 256.144C63.8733 252.352 66.0973 250.048 69.0733 250.048C70.4973 250.048 71.6173 250.752 72.2893 251.504L71.4893 252.464C70.8813 251.808 70.0973 251.344 69.0893 251.344C66.8653 251.344 65.3933 253.168 65.3933 256.096C65.3933 259.056 66.8013 260.912 69.0413 260.912C70.1613 260.912 71.0093 260.416 71.7613 259.6L72.5773 260.528C71.6493 261.6 70.4973 262.208 68.9773 262.208ZM74.6204 262V249.264H76.0764V252.752L76.0284 254.544C76.8284 253.744 77.7244 253.088 78.9084 253.088C80.7324 253.088 81.5644 254.272 81.5644 256.496V262H80.1084V256.688C80.1084 255.056 79.6124 254.368 78.4604 254.368C77.5644 254.368 76.9564 254.816 76.0764 255.696V262H74.6204ZM86.3392 262.208C84.8832 262.208 83.7952 261.312 83.7952 259.744C83.7952 257.856 85.4432 256.912 89.1392 256.496C89.1392 255.376 88.7712 254.304 87.3472 254.304C86.3392 254.304 85.4272 254.768 84.7392 255.232L84.1632 254.224C84.9632 253.712 86.1952 253.088 87.5872 253.088C89.6992 253.088 90.5952 254.512 90.5952 256.656V262H89.3952L89.2672 260.96H89.2192C88.3872 261.648 87.4112 262.208 86.3392 262.208ZM86.7552 261.04C87.6032 261.04 88.2912 260.64 89.1392 259.888V257.456C86.2112 257.808 85.2192 258.528 85.2192 259.648C85.2192 260.64 85.8912 261.04 86.7552 261.04ZM93.3704 262V253.312H94.5704L94.6984 254.896H94.7464C95.3544 253.792 96.2344 253.088 97.2104 253.088C97.5944 253.088 97.8664 253.136 98.1384 253.28L97.8664 254.56C97.5784 254.448 97.3704 254.416 97.0184 254.416C96.2984 254.416 95.4024 254.928 94.8264 256.416V262H93.3704ZM99.5736 262V253.312H101.03V262H99.5736ZM100.31 251.52C99.7336 251.52 99.3016 251.12 99.3016 250.576C99.3016 249.984 99.7336 249.632 100.31 249.632C100.886 249.632 101.318 249.984 101.318 250.576C101.318 251.12 100.886 251.52 100.31 251.52ZM106.716 262.208C104.86 262.208 104.236 261.056 104.236 259.312V254.496H102.94V253.392L104.3 253.312L104.476 250.88H105.692V253.312H108.044V254.496H105.692V259.344C105.692 260.416 106.028 261.024 107.036 261.024C107.34 261.024 107.74 260.912 108.028 260.8L108.316 261.888C107.82 262.048 107.244 262.208 106.716 262.208ZM111.62 262.208C110.164 262.208 109.076 261.312 109.076 259.744C109.076 257.856 110.724 256.912 114.42 256.496C114.42 255.376 114.052 254.304 112.628 254.304C111.62 254.304 110.708 254.768 110.02 255.232L109.444 254.224C110.244 253.712 111.476 253.088 112.868 253.088C114.98 253.088 115.876 254.512 115.876 256.656V262H114.676L114.548 260.96H114.5C113.668 261.648 112.692 262.208 111.62 262.208ZM112.036 261.04C112.884 261.04 113.572 260.64 114.42 259.888V257.456C111.492 257.808 110.5 258.528 110.5 259.648C110.5 260.64 111.172 261.04 112.036 261.04ZM122.476 262.208C121.676 262.208 120.764 261.808 119.996 261.104H119.948L119.82 262H118.652V249.264H120.108V252.752L120.06 254.32C120.844 253.632 121.82 253.088 122.78 253.088C125.036 253.088 126.252 254.848 126.252 257.504C126.252 260.496 124.476 262.208 122.476 262.208ZM122.236 260.992C123.676 260.992 124.732 259.696 124.732 257.536C124.732 255.616 124.092 254.32 122.444 254.32C121.708 254.32 120.94 254.736 120.108 255.52V260.08C120.876 260.752 121.66 260.992 122.236 260.992ZM130.078 262.208C128.99 262.208 128.542 261.504 128.542 260.272V249.264H129.998V260.368C129.998 260.816 130.19 260.992 130.414 260.992C130.494 260.992 130.558 260.992 130.718 260.96L130.926 262.08C130.718 262.16 130.462 262.208 130.078 262.208ZM136.609 262.208C134.305 262.208 132.449 260.528 132.449 257.664C132.449 254.848 134.353 253.088 136.369 253.088C138.577 253.088 139.825 254.688 139.825 257.168C139.825 257.488 139.793 257.792 139.761 258H133.905C134.001 259.856 135.137 261.04 136.785 261.04C137.633 261.04 138.321 260.784 138.961 260.352L139.489 261.312C138.721 261.808 137.793 262.208 136.609 262.208ZM133.889 256.96H138.545C138.545 255.2 137.745 254.256 136.385 254.256C135.153 254.256 134.065 255.248 133.889 256.96ZM145.67 262V250.272H148.614C152.214 250.272 154.15 252.368 154.15 256.096C154.15 259.808 152.214 262 148.678 262H145.67ZM147.158 260.784H148.486C151.254 260.784 152.614 259.056 152.614 256.096C152.614 253.12 151.254 251.472 148.486 251.472H147.158V260.784ZM159.903 262.208C157.775 262.208 155.871 260.544 155.871 257.664C155.871 254.768 157.775 253.088 159.903 253.088C162.031 253.088 163.935 254.768 163.935 257.664C163.935 260.544 162.031 262.208 159.903 262.208ZM159.903 260.992C161.407 260.992 162.431 259.664 162.431 257.664C162.431 255.664 161.407 254.304 159.903 254.304C158.399 254.304 157.391 255.664 157.391 257.664C157.391 259.664 158.399 260.992 159.903 260.992ZM166.23 262V253.312H167.43L167.558 254.56H167.606C168.438 253.744 169.334 253.088 170.518 253.088C172.342 253.088 173.174 254.272 173.174 256.496V262H171.718V256.688C171.718 255.056 171.222 254.368 170.07 254.368C169.174 254.368 168.566 254.816 167.686 255.696V262H166.23ZM178.011 262.208C176.555 262.208 175.467 261.312 175.467 259.744C175.467 257.856 177.115 256.912 180.811 256.496C180.811 255.376 180.443 254.304 179.019 254.304C178.011 254.304 177.099 254.768 176.411 255.232L175.835 254.224C176.635 253.712 177.867 253.088 179.259 253.088C181.371 253.088 182.267 254.512 182.267 256.656V262H181.067L180.939 260.96H180.891C180.059 261.648 179.083 262.208 178.011 262.208ZM178.427 261.04C179.275 261.04 179.963 260.64 180.811 259.888V257.456C177.883 257.808 176.891 258.528 176.891 259.648C176.891 260.64 177.563 261.04 178.427 261.04ZM187.544 262.208C185.688 262.208 185.064 261.056 185.064 259.312V254.496H183.768V253.392L185.128 253.312L185.304 250.88H186.52V253.312H188.872V254.496H186.52V259.344C186.52 260.416 186.856 261.024 187.864 261.024C188.168 261.024 188.568 260.912 188.856 260.8L189.144 261.888C188.648 262.048 188.072 262.208 187.544 262.208ZM190.839 262V253.312H192.295V262H190.839ZM191.575 251.52C190.999 251.52 190.567 251.12 190.567 250.576C190.567 249.984 190.999 249.632 191.575 249.632C192.151 249.632 192.583 249.984 192.583 250.576C192.583 251.12 192.151 251.52 191.575 251.52ZM198.621 262.208C196.493 262.208 194.589 260.544 194.589 257.664C194.589 254.768 196.493 253.088 198.621 253.088C200.749 253.088 202.653 254.768 202.653 257.664C202.653 260.544 200.749 262.208 198.621 262.208ZM198.621 260.992C200.125 260.992 201.149 259.664 201.149 257.664C201.149 255.664 200.125 254.304 198.621 254.304C197.117 254.304 196.109 255.664 196.109 257.664C196.109 259.664 197.117 260.992 198.621 260.992ZM204.949 262V253.312H206.149L206.277 254.56H206.325C207.157 253.744 208.053 253.088 209.237 253.088C211.061 253.088 211.893 254.272 211.893 256.496V262H210.437V256.688C210.437 255.056 209.941 254.368 208.789 254.368C207.893 254.368 207.285 254.816 206.405 255.696V262H204.949ZM217.002 262.208C215.77 262.208 214.586 261.696 213.754 261.008L214.474 260.048C215.226 260.656 216.01 261.072 217.05 261.072C218.202 261.072 218.762 260.464 218.762 259.712C218.762 258.832 217.738 258.432 216.778 258.064C215.562 257.616 214.186 257.024 214.186 255.552C214.186 254.176 215.29 253.088 217.178 253.088C218.25 253.088 219.194 253.536 219.882 254.064L219.178 255.008C218.57 254.56 217.962 254.24 217.178 254.24C216.09 254.24 215.594 254.816 215.594 255.488C215.594 256.32 216.538 256.624 217.514 256.992C218.778 257.472 220.17 257.984 220.17 259.632C220.17 261.04 219.05 262.208 217.002 262.208ZM225.056 258.08V256.96H229.152V258.08H225.056ZM235.045 262V250.272H236.581L240.853 257.664L242.101 260.08H242.181C242.101 258.896 241.989 257.584 241.989 256.368V250.272H243.397V262H241.877L237.605 254.592L236.341 252.176H236.277C236.341 253.36 236.453 254.608 236.453 255.84V262H235.045ZM249.04 262V251.52H245.488V250.272H254.08V251.52H250.528V262H249.04ZM262.138 251.744L261.354 252.608C260.698 251.968 260.154 251.6 259.178 251.6C258.074 251.6 257.37 252.288 257.37 253.328C257.37 255.936 262.378 255.216 262.378 259.056C262.378 260.752 261.306 261.92 259.61 262.16V263.968H258.554V262.192C257.418 262.08 256.266 261.52 255.498 260.816L256.186 259.824C256.938 260.464 257.85 260.992 258.938 260.992C260.266 260.992 260.954 260.272 260.954 259.152C260.954 256.24 255.946 256.88 255.946 253.392C255.946 251.792 257.002 250.656 258.554 250.432V248.624H259.61V250.4C260.762 250.528 261.498 251.072 262.138 251.744ZM268.431 262V260.784H271.039V252.032H268.959V251.104C269.999 250.912 270.751 250.64 271.391 250.272H272.511V260.784H274.863V262H268.431ZM277.098 265.04L276.746 264.176C277.738 263.744 278.33 262.976 278.346 262C278.282 262.016 278.234 262.016 278.17 262.016C277.61 262.016 277.098 261.664 277.098 260.992C277.098 260.368 277.61 259.968 278.202 259.968C278.97 259.968 279.434 260.624 279.434 261.696C279.434 263.232 278.538 264.432 277.098 265.04ZM281.056 262V261.136C284.736 257.92 286.432 255.584 286.432 253.568C286.432 252.224 285.728 251.248 284.272 251.248C283.312 251.248 282.48 251.84 281.84 252.608L280.992 251.776C281.952 250.736 282.96 250.048 284.448 250.048C286.544 250.048 287.856 251.424 287.856 253.52C287.856 255.856 286.016 258.24 283.264 260.848C283.872 260.8 284.592 260.736 285.184 260.736H288.432V262H281.056ZM291.067 257.6H294.651V254C294.651 253.424 294.715 252.48 294.747 251.872H294.683C294.395 252.448 294.075 253.024 293.739 253.6L291.067 257.6ZM297.595 257.6V258.768H296.043V262H294.651V258.768H289.547V257.808L294.427 250.272H296.043V257.6H297.595ZM302.326 262.208C300.486 262.208 299.334 261.44 298.566 260.608L299.302 259.648C299.99 260.368 300.886 260.992 302.214 260.992C303.606 260.992 304.598 260.16 304.598 258.816C304.598 257.408 303.654 256.464 300.95 256.464V255.344C303.366 255.344 304.198 254.368 304.198 253.104C304.198 251.968 303.43 251.248 302.214 251.216C301.27 251.248 300.438 251.728 299.782 252.384L298.998 251.456C299.878 250.64 300.918 250.048 302.278 250.048C304.246 250.048 305.686 251.104 305.686 252.992C305.686 254.416 304.838 255.36 303.59 255.824V255.888C304.982 256.208 306.086 257.264 306.086 258.864C306.086 260.96 304.406 262.208 302.326 262.208ZM308.177 265.04L307.825 264.176C308.817 263.744 309.409 262.976 309.425 262C309.361 262.016 309.313 262.016 309.249 262.016C308.689 262.016 308.177 261.664 308.177 260.992C308.177 260.368 308.689 259.968 309.281 259.968C310.049 259.968 310.513 260.624 310.513 261.696C310.513 263.232 309.617 264.432 308.177 265.04ZM315.878 262.208C313.638 262.208 312.214 260.176 312.214 256.096C312.214 252.016 313.638 250.048 315.878 250.048C318.102 250.048 319.526 252.032 319.526 256.096C319.526 260.176 318.102 262.208 315.878 262.208ZM315.878 261.04C317.206 261.04 318.102 259.552 318.102 256.096C318.102 252.672 317.206 251.232 315.878 251.232C314.534 251.232 313.638 252.672 313.638 256.096C313.638 259.552 314.534 261.04 315.878 261.04ZM324.481 256.464C325.265 256.464 326.145 256.016 326.929 254.896C326.769 252.48 325.873 251.2 324.369 251.2C323.249 251.2 322.385 252.256 322.385 253.856C322.385 255.44 323.089 256.464 324.481 256.464ZM321.233 261.008L322.033 260.096C322.529 260.656 323.249 260.992 324.001 260.992C325.521 260.992 326.833 259.744 326.945 256.096C326.241 256.976 325.233 257.552 324.241 257.552C322.289 257.552 321.009 256.288 321.009 253.856C321.009 251.584 322.545 250.048 324.369 250.048C326.625 250.048 328.305 251.904 328.305 255.632C328.305 260.384 326.257 262.208 324.049 262.208C322.785 262.208 321.889 261.696 321.233 261.008ZM332.348 262C332.54 257.552 333.356 254.72 335.644 251.52H329.964V250.272H337.308V251.152C334.556 254.688 334.044 257.408 333.868 262H332.348Z" fill="#4F4F4F"/>
<path d="M731.365 224.757C713.289 273.146 657.051 298.54 605.763 281.486C554.474 264.432 527.537 211.372 545.635 162.983C563.711 114.593 619.949 89.1998 671.237 106.254C722.526 123.308 749.463 176.368 731.365 224.757Z" fill="white"/>
<g clip-path="url(#clip1_338_34884)">
<rect width="350" height="350" transform="translate(465)" fill="white"/>
<path d="M795 178C795 269.127 721.127 343 630 343C538.873 343 465 269.127 465 178C465 86.873 538.873 13 630 13C721.127 13 795 86.873 795 178Z" fill="url(#paint3_linear_338_34884)"/>
<path d="M630 3.00002C652.056 3.00002 673.914 7.16958 694.422 15.2891L630 178L630 3.00002Z" fill="url(#paint4_linear_338_34884)"/>
<path d="M694.138 15.1769C728.523 28.7215 757.737 52.8039 777.594 83.9726C797.45 115.141 806.93 151.796 804.674 188.683C802.418 225.571 788.541 260.797 765.034 289.314C741.527 317.83 709.596 338.173 673.817 347.426L630 178L694.138 15.1769Z" fill="url(#paint5_linear_338_34884)"/>
<path d="M725.76 152.963C739.575 205.861 707.938 259.943 655.048 273.76C602.157 287.576 548.083 255.935 534.238 203.037C520.423 150.139 552.091 96.0568 604.951 82.2401C657.841 68.4235 711.915 100.065 725.73 152.963" fill="white"/>
<path d="M506.754 248.208C504.93 248.208 503.81 247.44 503.026 246.656L503.746 245.696C504.418 246.368 505.266 246.992 506.626 246.992C508.002 246.992 509.122 245.936 509.122 244.224C509.122 242.544 508.162 241.552 506.69 241.552C505.906 241.552 505.41 241.792 504.738 242.24L503.954 241.76L504.322 236.256H510.034V237.52H505.602L505.314 240.912C505.842 240.624 506.354 240.448 507.058 240.448C509.01 240.448 510.594 241.6 510.594 244.176C510.594 246.752 508.738 248.208 506.754 248.208ZM513.293 243.6H516.893V240C516.893 239.424 516.941 238.48 516.973 237.872H516.909C516.621 238.448 516.301 239.024 515.965 239.6L513.293 243.6ZM516.893 248V244.768H511.773V243.808L516.653 236.256H518.269V243.6H519.821V244.768H518.269V248H516.893ZM523.608 243.456C522.008 243.456 520.952 242.096 520.952 239.728C520.952 237.376 522.008 236.048 523.608 236.048C525.224 236.048 526.28 237.376 526.28 239.728C526.28 242.096 525.224 243.456 523.608 243.456ZM523.608 242.544C524.536 242.544 525.176 241.6 525.176 239.728C525.176 237.856 524.536 236.944 523.608 236.944C522.696 236.944 522.056 237.856 522.056 239.728C522.056 241.6 522.696 242.544 523.608 242.544ZM523.96 248.208L530.424 236.048H531.416L524.936 248.208H523.96ZM531.784 248.208C530.184 248.208 529.112 246.864 529.112 244.496C529.112 242.144 530.184 240.816 531.784 240.816C533.384 240.816 534.44 242.144 534.44 244.496C534.44 246.864 533.384 248.208 531.784 248.208ZM531.784 247.312C532.696 247.312 533.336 246.368 533.336 244.496C533.336 242.624 532.696 241.712 531.784 241.712C530.856 241.712 530.232 242.624 530.232 244.496C530.232 246.368 530.856 247.312 531.784 247.312Z" fill="white"/>
<path d="M751.84 180.6H755.44V177C755.44 176.424 755.488 175.48 755.52 174.872H755.456C755.168 175.448 754.848 176.024 754.512 176.6L751.84 180.6ZM755.44 185V181.768H750.32V180.808L755.2 173.256H756.816V180.6H758.368V181.768H756.816V185H755.44ZM763.323 185.208C761.083 185.208 759.659 183.176 759.659 179.096C759.659 175.016 761.083 173.048 763.323 173.048C765.547 173.048 766.971 175.032 766.971 179.096C766.971 183.176 765.547 185.208 763.323 185.208ZM763.323 184.04C764.651 184.04 765.547 182.552 765.547 179.096C765.547 175.672 764.651 174.216 763.323 174.216C761.979 174.216 761.083 175.672 761.083 179.096C761.083 182.552 761.979 184.04 763.323 184.04ZM771.03 180.456C769.43 180.456 768.374 179.096 768.374 176.728C768.374 174.376 769.43 173.048 771.03 173.048C772.646 173.048 773.702 174.376 773.702 176.728C773.702 179.096 772.646 180.456 771.03 180.456ZM771.03 179.544C771.958 179.544 772.598 178.6 772.598 176.728C772.598 174.856 771.958 173.944 771.03 173.944C770.118 173.944 769.478 174.856 769.478 176.728C769.478 178.6 770.118 179.544 771.03 179.544ZM771.382 185.208L777.846 173.048H778.838L772.358 185.208H771.382ZM779.206 185.208C777.606 185.208 776.534 183.864 776.534 181.496C776.534 179.144 777.606 177.816 779.206 177.816C780.806 177.816 781.862 179.144 781.862 181.496C781.862 183.864 780.806 185.208 779.206 185.208ZM779.206 184.312C780.118 184.312 780.758 183.368 780.758 181.496C780.758 179.624 780.118 178.712 779.206 178.712C778.278 178.712 777.654 179.624 777.654 181.496C777.654 183.368 778.278 184.312 779.206 184.312Z" fill="white"/>
<path d="M646.688 44.808C645.952 44.808 645.008 45.24 644.288 46.312C644.464 48.744 645.344 50.072 646.816 50.072C647.936 50.072 648.816 49 648.816 47.4C648.816 45.816 648.112 44.808 646.688 44.808ZM646.816 51.208C644.56 51.208 642.896 49.272 642.896 45.4C642.896 40.808 644.96 39.048 647.232 39.048C648.448 39.048 649.328 39.56 649.968 40.248L649.168 41.16C648.704 40.6 648 40.264 647.28 40.264C645.68 40.264 644.32 41.496 644.256 45.144C644.976 44.264 646 43.72 646.928 43.72C648.912 43.72 650.176 44.952 650.176 47.4C650.176 49.672 648.64 51.208 646.816 51.208ZM654.155 46.456C652.555 46.456 651.499 45.096 651.499 42.728C651.499 40.376 652.555 39.048 654.155 39.048C655.771 39.048 656.827 40.376 656.827 42.728C656.827 45.096 655.771 46.456 654.155 46.456ZM654.155 45.544C655.083 45.544 655.723 44.6 655.723 42.728C655.723 40.856 655.083 39.944 654.155 39.944C653.243 39.944 652.603 40.856 652.603 42.728C652.603 44.6 653.243 45.544 654.155 45.544ZM654.507 51.208L660.971 39.048H661.963L655.483 51.208H654.507ZM662.331 51.208C660.731 51.208 659.659 49.864 659.659 47.496C659.659 45.144 660.731 43.816 662.331 43.816C663.931 43.816 664.987 45.144 664.987 47.496C664.987 49.864 663.931 51.208 662.331 51.208ZM662.331 50.312C663.243 50.312 663.883 49.368 663.883 47.496C663.883 45.624 663.243 44.712 662.331 44.712C661.403 44.712 660.779 45.624 660.779 47.496C660.779 49.368 661.403 50.312 662.331 50.312Z" fill="white"/>
</g>
<path d="M48.8962 83V71.498H45.0082V69.734H54.8902V71.498H50.9842V83H48.8962ZM56.8373 87.14C56.3333 87.14 55.9373 87.068 55.5953 86.942L55.9913 85.322C56.1713 85.376 56.4593 85.466 56.7113 85.466C57.7913 85.466 58.4213 84.674 58.7813 83.612L58.9793 82.928L55.0553 73.1H57.1793L59.0153 78.194C59.3033 79.076 59.6093 80.066 59.9153 80.984H60.0053C60.2573 80.084 60.5273 79.094 60.7793 78.194L62.3633 73.1H64.3793L60.7433 83.594C59.9693 85.718 58.9253 87.14 56.8373 87.14ZM66.1783 87.014V73.1H67.8703L68.0323 74.18H68.0863C68.9503 73.46 70.0303 72.848 71.1463 72.848C73.6483 72.848 75.0523 74.846 75.0523 77.888C75.0523 81.29 73.0183 83.234 70.7863 83.234C69.9043 83.234 69.0223 82.838 68.1763 82.118L68.2483 83.81V87.014H66.1783ZM70.3903 81.524C71.8303 81.524 72.9103 80.246 72.9103 77.924C72.9103 75.854 72.2443 74.576 70.5883 74.576C69.8143 74.576 69.0763 74.972 68.2483 75.782V80.624C69.0223 81.29 69.7783 81.524 70.3903 81.524ZM81.6382 83.234C78.9562 83.234 76.8142 81.326 76.8142 78.05C76.8142 74.846 79.0282 72.848 81.3322 72.848C83.9602 72.848 85.3822 74.738 85.3822 77.528C85.3822 77.942 85.3282 78.338 85.2742 78.59H78.8482C79.0102 80.48 80.1982 81.614 81.9082 81.614C82.7902 81.614 83.5462 81.344 84.2662 80.876L84.9862 82.19C84.0682 82.802 82.9342 83.234 81.6382 83.234ZM78.8302 77.15H83.5822C83.5822 75.458 82.8082 74.468 81.3682 74.468C80.1262 74.468 79.0282 75.422 78.8302 77.15ZM90.3759 83.234C89.0079 83.234 87.6219 82.658 86.6499 81.866L87.6219 80.534C88.5039 81.218 89.3679 81.668 90.4299 81.668C91.6179 81.668 92.1759 81.092 92.1759 80.336C92.1759 79.436 91.0599 79.04 89.9979 78.626C88.6659 78.122 87.2079 77.42 87.2079 75.746C87.2079 74.09 88.5399 72.848 90.7359 72.848C92.0499 72.848 93.1479 73.388 93.9399 74.018L92.9679 75.296C92.2839 74.792 91.5819 74.432 90.7719 74.432C89.6739 74.432 89.1699 74.972 89.1699 75.656C89.1699 76.502 90.1419 76.826 91.2219 77.222C92.6079 77.744 94.1379 78.356 94.1379 80.228C94.1379 81.884 92.8239 83.234 90.3759 83.234ZM104.345 83.234C101.897 83.234 99.6833 81.344 99.6833 78.05C99.6833 74.756 101.897 72.848 104.345 72.848C106.793 72.848 109.007 74.756 109.007 78.05C109.007 81.344 106.793 83.234 104.345 83.234ZM104.345 81.542C105.911 81.542 106.883 80.156 106.883 78.05C106.883 75.962 105.911 74.558 104.345 74.558C102.797 74.558 101.825 75.962 101.825 78.05C101.825 80.156 102.797 81.542 104.345 81.542ZM111.731 83V74.756H110.381V73.208L111.731 73.1V71.858C111.731 69.824 112.649 68.42 114.863 68.42C115.529 68.42 116.159 68.564 116.609 68.744L116.195 70.31C115.835 70.148 115.457 70.058 115.115 70.058C114.233 70.058 113.801 70.634 113.801 71.84V73.1H115.799V74.756H113.801V83H111.731ZM125.597 83.234C123.779 83.234 122.087 82.514 120.881 81.29L122.105 79.85C123.059 80.804 124.355 81.416 125.633 81.416C127.235 81.416 128.135 80.66 128.135 79.544C128.135 78.338 127.235 77.96 126.011 77.42L124.175 76.628C122.897 76.088 121.475 75.08 121.475 73.154C121.475 71.066 123.311 69.5 125.831 69.5C127.379 69.5 128.837 70.148 129.845 71.174L128.747 72.506C127.919 71.768 127.001 71.318 125.831 71.318C124.481 71.318 123.599 71.966 123.599 73.01C123.599 74.162 124.661 74.594 125.741 75.026L127.559 75.8C129.125 76.466 130.259 77.438 130.259 79.382C130.259 81.506 128.495 83.234 125.597 83.234ZM136.548 83.234C134.1 83.234 131.886 81.344 131.886 78.05C131.886 74.756 134.1 72.848 136.548 72.848C138.996 72.848 141.21 74.756 141.21 78.05C141.21 81.344 138.996 83.234 136.548 83.234ZM136.548 81.542C138.114 81.542 139.086 80.156 139.086 78.05C139.086 75.962 138.114 74.558 136.548 74.558C135 74.558 134.028 75.962 134.028 78.05C134.028 80.156 135 81.542 136.548 81.542ZM147.677 83.234C144.995 83.234 142.943 81.344 142.943 78.05C142.943 74.756 145.229 72.848 147.839 72.848C149.099 72.848 150.017 73.352 150.737 73.982L149.711 75.332C149.171 74.846 148.613 74.558 147.947 74.558C146.273 74.558 145.085 75.962 145.085 78.05C145.085 80.156 146.237 81.542 147.875 81.542C148.703 81.542 149.441 81.146 150.035 80.642L150.899 82.01C149.981 82.82 148.811 83.234 147.677 83.234ZM152.944 83V73.1H155.014V83H152.944ZM153.97 71.246C153.214 71.246 152.692 70.76 152.692 70.004C152.692 69.266 153.214 68.78 153.97 68.78C154.726 68.78 155.266 69.266 155.266 70.004C155.266 70.76 154.726 71.246 153.97 71.246ZM160.452 83.234C158.742 83.234 157.536 82.118 157.536 80.372C157.536 78.248 159.336 77.15 163.458 76.7C163.44 75.548 163.026 74.54 161.568 74.54C160.524 74.54 159.552 75.008 158.706 75.548L157.932 74.144C158.958 73.496 160.344 72.848 161.928 72.848C164.394 72.848 165.528 74.414 165.528 77.042V83H163.836L163.674 81.866H163.602C162.702 82.64 161.64 83.234 160.452 83.234ZM161.082 81.596C161.946 81.596 162.648 81.182 163.458 80.444V78.014C160.524 78.356 159.534 79.112 159.534 80.228C159.534 81.2 160.2 81.596 161.082 81.596ZM170.517 83.234C169.023 83.234 168.465 82.28 168.465 80.678V68.654H170.535V80.786C170.535 81.344 170.769 81.542 171.021 81.542C171.111 81.542 171.183 81.542 171.363 81.506L171.633 83.072C171.381 83.162 171.039 83.234 170.517 83.234ZM178.05 83V69.734H185.88V71.498H180.138V75.188H184.998V76.952H180.138V81.236H186.078V83H178.05ZM188.663 83V73.1H190.355L190.517 74.468H190.571C191.489 73.586 192.497 72.848 193.847 72.848C195.953 72.848 196.889 74.252 196.889 76.772V83H194.819V77.024C194.819 75.314 194.315 74.63 193.145 74.63C192.227 74.63 191.597 75.098 190.733 75.98V83H188.663ZM203.279 87.446C200.903 87.446 199.175 86.564 199.175 84.836C199.175 84.008 199.697 83.234 200.615 82.676V82.586C200.111 82.28 199.715 81.758 199.715 80.948C199.715 80.174 200.273 79.508 200.831 79.112V79.04C200.147 78.518 199.517 77.582 199.517 76.394C199.517 74.162 201.299 72.848 203.351 72.848C203.909 72.848 204.413 72.956 204.791 73.1H208.301V74.648H206.411C206.789 75.044 207.059 75.71 207.059 76.466C207.059 78.626 205.421 79.868 203.351 79.868C202.901 79.868 202.397 79.76 201.965 79.562C201.641 79.85 201.425 80.12 201.425 80.606C201.425 81.2 201.821 81.578 203.081 81.578H204.899C207.239 81.578 208.463 82.298 208.463 83.99C208.463 85.898 206.447 87.446 203.279 87.446ZM203.351 78.536C204.377 78.536 205.223 77.726 205.223 76.394C205.223 75.08 204.395 74.306 203.351 74.306C202.307 74.306 201.479 75.062 201.479 76.394C201.479 77.726 202.325 78.536 203.351 78.536ZM203.585 86.078C205.313 86.078 206.465 85.232 206.465 84.314C206.465 83.486 205.817 83.234 204.611 83.234H203.117C202.649 83.234 202.199 83.18 201.785 83.09C201.191 83.522 200.939 84.026 200.939 84.53C200.939 85.502 201.947 86.078 203.585 86.078ZM212.307 83.234C210.597 83.234 209.391 82.118 209.391 80.372C209.391 78.248 211.191 77.15 215.313 76.7C215.295 75.548 214.881 74.54 213.423 74.54C212.379 74.54 211.407 75.008 210.561 75.548L209.787 74.144C210.813 73.496 212.199 72.848 213.783 72.848C216.249 72.848 217.383 74.414 217.383 77.042V83H215.691L215.529 81.866H215.457C214.557 82.64 213.495 83.234 212.307 83.234ZM212.937 81.596C213.801 81.596 214.503 81.182 215.313 80.444V78.014C212.379 78.356 211.389 79.112 211.389 80.228C211.389 81.2 212.055 81.596 212.937 81.596ZM223.705 87.446C221.329 87.446 219.601 86.564 219.601 84.836C219.601 84.008 220.123 83.234 221.041 82.676V82.586C220.537 82.28 220.141 81.758 220.141 80.948C220.141 80.174 220.699 79.508 221.257 79.112V79.04C220.573 78.518 219.943 77.582 219.943 76.394C219.943 74.162 221.725 72.848 223.777 72.848C224.335 72.848 224.839 72.956 225.217 73.1H228.727V74.648H226.837C227.215 75.044 227.485 75.71 227.485 76.466C227.485 78.626 225.847 79.868 223.777 79.868C223.327 79.868 222.823 79.76 222.391 79.562C222.067 79.85 221.851 80.12 221.851 80.606C221.851 81.2 222.247 81.578 223.507 81.578H225.325C227.665 81.578 228.889 82.298 228.889 83.99C228.889 85.898 226.873 87.446 223.705 87.446ZM223.777 78.536C224.803 78.536 225.649 77.726 225.649 76.394C225.649 75.08 224.821 74.306 223.777 74.306C222.733 74.306 221.905 75.062 221.905 76.394C221.905 77.726 222.751 78.536 223.777 78.536ZM224.011 86.078C225.739 86.078 226.891 85.232 226.891 84.314C226.891 83.486 226.243 83.234 225.037 83.234H223.543C223.075 83.234 222.625 83.18 222.211 83.09C221.617 83.522 221.365 84.026 221.365 84.53C221.365 85.502 222.373 86.078 224.011 86.078ZM234.55 83.234C231.868 83.234 229.726 81.326 229.726 78.05C229.726 74.846 231.94 72.848 234.244 72.848C236.872 72.848 238.294 74.738 238.294 77.528C238.294 77.942 238.24 78.338 238.186 78.59H231.76C231.922 80.48 233.11 81.614 234.82 81.614C235.702 81.614 236.458 81.344 237.178 80.876L237.898 82.19C236.98 82.802 235.846 83.234 234.55 83.234ZM231.742 77.15H236.494C236.494 75.458 235.72 74.468 234.28 74.468C233.038 74.468 231.94 75.422 231.742 77.15ZM240.606 83V73.1H242.298L242.46 74.486H242.514C243.36 73.586 244.35 72.848 245.574 72.848C247.05 72.848 247.878 73.532 248.31 74.666C249.282 73.622 250.29 72.848 251.532 72.848C253.602 72.848 254.574 74.252 254.574 76.772V83H252.504V77.024C252.504 75.314 251.964 74.63 250.848 74.63C250.164 74.63 249.444 75.08 248.616 75.98V83H246.546V77.024C246.546 75.314 246.024 74.63 244.89 74.63C244.224 74.63 243.486 75.08 242.676 75.98V83H240.606ZM261.691 83.234C259.009 83.234 256.867 81.326 256.867 78.05C256.867 74.846 259.081 72.848 261.385 72.848C264.013 72.848 265.435 74.738 265.435 77.528C265.435 77.942 265.381 78.338 265.327 78.59H258.901C259.063 80.48 260.251 81.614 261.961 81.614C262.843 81.614 263.599 81.344 264.319 80.876L265.039 82.19C264.121 82.802 262.987 83.234 261.691 83.234ZM258.883 77.15H263.635C263.635 75.458 262.861 74.468 261.421 74.468C260.179 74.468 259.081 75.422 258.883 77.15ZM267.747 83V73.1H269.439L269.601 74.468H269.655C270.573 73.586 271.581 72.848 272.931 72.848C275.037 72.848 275.973 74.252 275.973 76.772V83H273.903V77.024C273.903 75.314 273.399 74.63 272.229 74.63C271.311 74.63 270.681 75.098 269.817 75.98V83H267.747ZM282.309 83.234C280.077 83.234 279.303 81.848 279.303 79.76V74.756H277.863V73.208L279.411 73.1L279.645 70.364H281.373V73.1H283.947V74.756H281.373V79.778C281.373 80.966 281.787 81.578 282.813 81.578C283.155 81.578 283.587 81.47 283.875 81.344L284.253 82.874C283.695 83.054 283.029 83.234 282.309 83.234Z" fill="black"/>
<path d="M47.4137 132.786C46.1117 130.658 45.3417 128.404 45.3417 125.618C45.3417 122.86 46.1117 120.578 47.4137 118.464L48.4217 118.898C47.2177 120.914 46.6577 123.28 46.6577 125.618C46.6577 127.97 47.2177 130.336 48.4217 132.338L47.4137 132.786ZM50.2903 130V122.3H51.9003V130H50.2903ZM51.0883 120.858C50.5003 120.858 50.0943 120.48 50.0943 119.892C50.0943 119.318 50.5003 118.94 51.0883 118.94C51.6763 118.94 52.0963 119.318 52.0963 119.892C52.0963 120.48 51.6763 120.858 51.0883 120.858ZM54.3098 130V122.3H55.6258L55.7518 123.364H55.7938C56.5078 122.678 57.2918 122.104 58.3418 122.104C59.9798 122.104 60.7078 123.196 60.7078 125.156V130H59.0978V125.352C59.0978 124.022 58.7058 123.49 57.7958 123.49C57.0818 123.49 56.5918 123.854 55.9198 124.54V130H54.3098ZM66.3307 130V119.682H67.9967L71.4127 125.744L72.4907 127.928H72.5607C72.4767 126.864 72.3507 125.618 72.3507 124.498V119.682H73.8907V130H72.2247L68.8087 123.924L67.7307 121.768H67.6607C67.7447 122.832 67.8707 124.022 67.8707 125.142V130H66.3307ZM78.7119 130V121.054H75.6879V119.682H83.3739V121.054H80.3359V130H78.7119ZM90.4154 131.722V130.168C89.4354 130.07 88.3994 129.594 87.6994 128.964L88.4274 127.858C89.1414 128.446 89.9114 128.866 90.7934 128.866C91.8854 128.866 92.4174 128.32 92.4174 127.41C92.4174 125.142 88.0914 125.534 88.0914 122.538C88.0914 121.082 89.0014 120.06 90.4154 119.822V118.24H91.5354V119.808C92.5434 119.934 93.2154 120.41 93.7894 121.026L92.9634 121.964C92.3754 121.418 91.8994 121.11 91.1014 121.11C90.2054 121.11 89.6454 121.614 89.6454 122.468C89.6454 124.512 93.9714 124.036 93.9714 127.298C93.9714 128.796 93.0754 129.86 91.5354 130.126V131.722H90.4154ZM96.5797 132.786L95.5717 132.338C96.7757 130.336 97.3357 127.97 97.3357 125.618C97.3357 123.28 96.7757 120.914 95.5717 118.898L96.5797 118.464C97.8957 120.578 98.6657 122.86 98.6657 125.618C98.6657 128.404 97.8957 130.658 96.5797 132.786Z" fill="#4F4F4F"/>
</g>
<defs>
<linearGradient id="paint0_linear_338_34884" x1="51.0003" y1="178" x2="51.0004" y2="188" gradientUnits="userSpaceOnUse">
<stop stop-color="#FF9E45"/>
<stop offset="1" stop-color="#FF7A00"/>
</linearGradient>
<linearGradient id="paint1_linear_338_34884" x1="51.5003" y1="214" x2="51.5004" y2="224" gradientUnits="userSpaceOnUse">
<stop stop-color="#6FC7E2"/>
<stop offset="1" stop-color="#00AED4"/>
</linearGradient>
<linearGradient id="paint2_linear_338_34884" x1="51.0004" y1="250" x2="51.0004" y2="260" gradientUnits="userSpaceOnUse">
<stop stop-color="#C2C559"/>
<stop offset="1" stop-color="#A7AC39"/>
</linearGradient>
<linearGradient id="paint3_linear_338_34884" x1="630" y1="13" x2="630" y2="343" gradientUnits="userSpaceOnUse">
<stop stop-color="#FF9E45"/>
<stop offset="1" stop-color="#FF7A00"/>
</linearGradient>
<linearGradient id="paint4_linear_338_34884" x1="630" y1="3.00002" x2="630" y2="353" gradientUnits="userSpaceOnUse">
<stop stop-color="#C2C559"/>
<stop offset="1" stop-color="#A7AC39"/>
</linearGradient>
<linearGradient id="paint5_linear_338_34884" x1="630" y1="3.00002" x2="630" y2="353" gradientUnits="userSpaceOnUse">
<stop stop-color="#6FC7E2"/>
<stop offset="1" stop-color="#00AED4"/>
</linearGradient>
<clipPath id="clip0_338_34884">
<rect width="876" height="350" fill="white"/>
</clipPath>
<clipPath id="clip1_338_34884">
<rect width="350" height="350" fill="white" transform="translate(465)"/>
</clipPath>
</defs>
</svg>
