<svg width="850" height="387" viewBox="0 0 850 387" fill="none" xmlns="http://www.w3.org/2000/svg">
<rect width="850" height="387" fill="white"/>
<path d="M705 54H145V337H705V54Z" fill="white"/>
<mask id="mask0_338_40736" style="mask-type:luminance" maskUnits="userSpaceOnUse" x="145" y="301" width="140" height="36">
<path d="M145 301H285V337H145V301Z" fill="white"/>
</mask>
<g mask="url(#mask0_338_40736)">
<path d="M145 302H285V300H145V302Z" fill="#D1D1D1"/>
</g>
<mask id="mask1_338_40736" style="mask-type:luminance" maskUnits="userSpaceOnUse" x="285" y="301" width="140" height="36">
<path d="M285 301H425V337H285V301Z" fill="white"/>
</mask>
<g mask="url(#mask1_338_40736)">
<path d="M285 302H425V300H285V302Z" fill="#D1D1D1"/>
</g>
<path d="M200.064 325.999V325.134C201.291 324.057 202.299 323.075 203.088 322.19C203.888 321.305 204.48 320.484 204.864 319.727C205.248 318.959 205.44 318.238 205.44 317.566C205.44 317.118 205.36 316.719 205.2 316.367C205.051 316.015 204.816 315.743 204.496 315.551C204.176 315.348 203.771 315.246 203.28 315.246C202.8 315.246 202.352 315.374 201.936 315.63C201.531 315.886 201.168 316.212 200.848 316.607L200 315.775C200.469 315.252 200.976 314.836 201.52 314.527C202.064 314.218 202.709 314.062 203.456 314.062C204.16 314.062 204.763 314.207 205.264 314.495C205.776 314.772 206.171 315.172 206.448 315.695C206.736 316.207 206.88 316.81 206.88 317.503C206.88 318.282 206.683 319.071 206.288 319.871C205.904 320.671 205.365 321.487 204.672 322.319C203.989 323.14 203.189 323.982 202.272 324.846C202.581 324.825 202.901 324.804 203.232 324.783C203.573 324.751 203.893 324.734 204.192 324.734H207.44V325.999H200.064ZM212.683 326.207C211.947 326.207 211.302 325.983 210.747 325.535C210.203 325.087 209.782 324.41 209.483 323.503C209.184 322.596 209.035 321.46 209.035 320.095C209.035 318.73 209.184 317.604 209.483 316.719C209.782 315.823 210.203 315.156 210.747 314.719C211.302 314.282 211.947 314.062 212.683 314.062C213.43 314.062 214.075 314.286 214.619 314.734C215.163 315.171 215.584 315.834 215.883 316.719C216.182 317.604 216.331 318.73 216.331 320.095C216.331 321.46 216.182 322.596 215.883 323.503C215.584 324.41 215.163 325.087 214.619 325.535C214.075 325.983 213.43 326.207 212.683 326.207ZM212.683 325.022C213.131 325.022 213.52 324.851 213.851 324.51C214.192 324.169 214.454 323.635 214.635 322.91C214.827 322.174 214.923 321.236 214.923 320.095C214.923 318.954 214.827 318.026 214.635 317.311C214.454 316.586 214.192 316.058 213.851 315.727C213.52 315.386 213.131 315.215 212.683 315.215C212.246 315.215 211.856 315.386 211.515 315.727C211.174 316.058 210.907 316.586 210.715 317.311C210.534 318.026 210.443 318.954 210.443 320.095C210.443 321.236 210.534 322.174 210.715 322.91C210.907 323.635 211.174 324.169 211.515 324.51C211.856 324.851 212.246 325.022 212.683 325.022ZM217.814 325.999V325.134C219.041 324.057 220.049 323.075 220.838 322.19C221.638 321.305 222.23 320.484 222.614 319.727C222.998 318.959 223.19 318.238 223.19 317.566C223.19 317.118 223.11 316.719 222.95 316.367C222.801 316.015 222.566 315.743 222.246 315.551C221.926 315.348 221.521 315.246 221.03 315.246C220.55 315.246 220.102 315.374 219.686 315.63C219.281 315.886 218.918 316.212 218.598 316.607L217.75 315.775C218.219 315.252 218.726 314.836 219.27 314.527C219.814 314.218 220.459 314.062 221.206 314.062C221.91 314.062 222.513 314.207 223.014 314.495C223.526 314.772 223.921 315.172 224.198 315.695C224.486 316.207 224.63 316.81 224.63 317.503C224.63 318.282 224.433 319.071 224.038 319.871C223.654 320.671 223.115 321.487 222.422 322.319C221.739 323.14 220.939 323.982 220.022 324.846C220.331 324.825 220.651 324.804 220.982 324.783C221.323 324.751 221.643 324.734 221.942 324.734H225.19V325.999H217.814ZM227.393 325.999V324.783H230.017V316.031H227.921V315.103C228.444 315.007 228.897 314.89 229.281 314.751C229.676 314.612 230.033 314.452 230.353 314.271H231.473V324.783H233.825V325.999H227.393Z" fill="#6D6D6D"/>
<mask id="mask2_338_40736" style="mask-type:luminance" maskUnits="userSpaceOnUse" x="425" y="301" width="140" height="36">
<path d="M425 301H565V337H425V301Z" fill="white"/>
</mask>
<g mask="url(#mask2_338_40736)">
<path d="M425 302H565V300H425V302Z" fill="#D1D1D1"/>
</g>
<path d="M340.064 325.999V325.134C341.291 324.057 342.299 323.075 343.088 322.19C343.888 321.305 344.48 320.484 344.864 319.727C345.248 318.959 345.44 318.238 345.44 317.566C345.44 317.118 345.36 316.719 345.2 316.367C345.051 316.015 344.816 315.743 344.496 315.551C344.176 315.348 343.771 315.246 343.28 315.246C342.8 315.246 342.352 315.374 341.936 315.63C341.531 315.886 341.168 316.212 340.848 316.607L340 315.775C340.469 315.252 340.976 314.836 341.52 314.527C342.064 314.218 342.709 314.062 343.456 314.062C344.16 314.062 344.763 314.207 345.264 314.495C345.776 314.772 346.171 315.172 346.448 315.695C346.736 316.207 346.88 316.81 346.88 317.503C346.88 318.282 346.683 319.071 346.288 319.871C345.904 320.671 345.365 321.487 344.672 322.319C343.989 323.14 343.189 323.982 342.272 324.846C342.581 324.825 342.901 324.804 343.232 324.783C343.573 324.751 343.893 324.734 344.192 324.734H347.44V325.999H340.064ZM352.683 326.207C351.947 326.207 351.302 325.983 350.747 325.535C350.203 325.087 349.782 324.41 349.483 323.503C349.184 322.596 349.035 321.46 349.035 320.095C349.035 318.73 349.184 317.604 349.483 316.719C349.782 315.823 350.203 315.156 350.747 314.719C351.302 314.282 351.947 314.062 352.683 314.062C353.43 314.062 354.075 314.286 354.619 314.734C355.163 315.171 355.584 315.834 355.883 316.719C356.182 317.604 356.331 318.73 356.331 320.095C356.331 321.46 356.182 322.596 355.883 323.503C355.584 324.41 355.163 325.087 354.619 325.535C354.075 325.983 353.43 326.207 352.683 326.207ZM352.683 325.022C353.131 325.022 353.52 324.851 353.851 324.51C354.192 324.169 354.454 323.635 354.635 322.91C354.827 322.174 354.923 321.236 354.923 320.095C354.923 318.954 354.827 318.026 354.635 317.311C354.454 316.586 354.192 316.058 353.851 315.727C353.52 315.386 353.131 315.215 352.683 315.215C352.246 315.215 351.856 315.386 351.515 315.727C351.174 316.058 350.907 316.586 350.715 317.311C350.534 318.026 350.443 318.954 350.443 320.095C350.443 321.236 350.534 322.174 350.715 322.91C350.907 323.635 351.174 324.169 351.515 324.51C351.856 324.851 352.246 325.022 352.683 325.022ZM357.814 325.999V325.134C359.041 324.057 360.049 323.075 360.838 322.19C361.638 321.305 362.23 320.484 362.614 319.727C362.998 318.959 363.19 318.238 363.19 317.566C363.19 317.118 363.11 316.719 362.95 316.367C362.801 316.015 362.566 315.743 362.246 315.551C361.926 315.348 361.521 315.246 361.03 315.246C360.55 315.246 360.102 315.374 359.686 315.63C359.281 315.886 358.918 316.212 358.598 316.607L357.75 315.775C358.219 315.252 358.726 314.836 359.27 314.527C359.814 314.218 360.459 314.062 361.206 314.062C361.91 314.062 362.513 314.207 363.014 314.495C363.526 314.772 363.921 315.172 364.198 315.695C364.486 316.207 364.63 316.81 364.63 317.503C364.63 318.282 364.433 319.071 364.038 319.871C363.654 320.671 363.115 321.487 362.422 322.319C361.739 323.14 360.939 323.982 360.022 324.846C360.331 324.825 360.651 324.804 360.982 324.783C361.323 324.751 361.643 324.734 361.942 324.734H365.19V325.999H357.814ZM366.689 325.999V325.134C367.916 324.057 368.924 323.075 369.713 322.19C370.513 321.305 371.105 320.484 371.489 319.727C371.873 318.959 372.065 318.238 372.065 317.566C372.065 317.118 371.985 316.719 371.825 316.367C371.676 316.015 371.441 315.743 371.121 315.551C370.801 315.348 370.396 315.246 369.905 315.246C369.425 315.246 368.977 315.374 368.561 315.63C368.156 315.886 367.793 316.212 367.473 316.607L366.625 315.775C367.094 315.252 367.601 314.836 368.145 314.527C368.689 314.218 369.334 314.062 370.081 314.062C370.785 314.062 371.388 314.207 371.889 314.495C372.401 314.772 372.796 315.172 373.073 315.695C373.361 316.207 373.505 316.81 373.505 317.503C373.505 318.282 373.308 319.071 372.913 319.871C372.529 320.671 371.99 321.487 371.297 322.319C370.614 323.14 369.814 323.982 368.897 324.846C369.206 324.825 369.526 324.804 369.857 324.783C370.198 324.751 370.518 324.734 370.817 324.734H374.065V325.999H366.689Z" fill="#6D6D6D"/>
<mask id="mask3_338_40736" style="mask-type:luminance" maskUnits="userSpaceOnUse" x="565" y="301" width="140" height="36">
<path d="M565 301H705V337H565V301Z" fill="white"/>
</mask>
<g mask="url(#mask3_338_40736)">
<path d="M565 302H705V300H565V302Z" fill="#D1D1D1"/>
</g>
<path d="M617.704 326V325.136C621.384 321.92 623.08 319.584 623.08 317.568C623.08 316.224 622.376 315.248 620.92 315.248C619.96 315.248 619.128 315.84 618.488 316.608L617.64 315.776C618.6 314.736 619.608 314.048 621.096 314.048C623.192 314.048 624.504 315.424 624.504 317.52C624.504 319.856 622.664 322.24 619.912 324.848C620.52 324.8 621.24 324.736 621.832 324.736H625.08V326H617.704ZM630.323 326.208C628.083 326.208 626.659 324.176 626.659 320.096C626.659 316.016 628.083 314.048 630.323 314.048C632.547 314.048 633.971 316.032 633.971 320.096C633.971 324.176 632.547 326.208 630.323 326.208ZM630.323 325.04C631.651 325.04 632.547 323.552 632.547 320.096C632.547 316.672 631.651 315.216 630.323 315.216C628.979 315.216 628.083 316.672 628.083 320.096C628.083 323.552 628.979 325.04 630.323 325.04ZM635.454 326V325.136C639.134 321.92 640.83 319.584 640.83 317.568C640.83 316.224 640.126 315.248 638.67 315.248C637.71 315.248 636.878 315.84 636.238 316.608L635.39 315.776C636.35 314.736 637.358 314.048 638.846 314.048C640.942 314.048 642.254 315.424 642.254 317.52C642.254 319.856 640.414 322.24 637.662 324.848C638.27 324.8 638.99 324.736 639.582 324.736H642.83V326H635.454ZM645.465 321.6H649.065V318C649.065 317.424 649.113 316.48 649.145 315.872H649.081C648.793 316.448 648.473 317.024 648.137 317.6L645.465 321.6ZM649.065 326V322.768H643.945V321.808L648.825 314.256H650.441V321.6H651.993V322.768H650.441V326H649.065Z" fill="#6D6D6D"/>
<path d="M480.064 325.999V325.134C481.291 324.057 482.299 323.075 483.088 322.19C483.888 321.305 484.48 320.484 484.864 319.727C485.248 318.959 485.44 318.238 485.44 317.566C485.44 317.118 485.36 316.719 485.2 316.367C485.051 316.015 484.816 315.743 484.496 315.551C484.176 315.348 483.771 315.246 483.28 315.246C482.8 315.246 482.352 315.374 481.936 315.63C481.531 315.886 481.168 316.212 480.848 316.607L480 315.775C480.469 315.252 480.976 314.836 481.52 314.527C482.064 314.218 482.709 314.062 483.456 314.062C484.16 314.062 484.763 314.207 485.264 314.495C485.776 314.772 486.171 315.172 486.448 315.695C486.736 316.207 486.88 316.81 486.88 317.503C486.88 318.282 486.683 319.071 486.288 319.871C485.904 320.671 485.365 321.487 484.672 322.319C483.989 323.14 483.189 323.982 482.272 324.846C482.581 324.825 482.901 324.804 483.232 324.783C483.573 324.751 483.893 324.734 484.192 324.734H487.44V325.999H480.064ZM492.683 326.207C491.947 326.207 491.302 325.983 490.747 325.535C490.203 325.087 489.782 324.41 489.483 323.503C489.184 322.596 489.035 321.46 489.035 320.095C489.035 318.73 489.184 317.604 489.483 316.719C489.782 315.823 490.203 315.156 490.747 314.719C491.302 314.282 491.947 314.062 492.683 314.062C493.43 314.062 494.075 314.286 494.619 314.734C495.163 315.171 495.584 315.834 495.883 316.719C496.182 317.604 496.331 318.73 496.331 320.095C496.331 321.46 496.182 322.596 495.883 323.503C495.584 324.41 495.163 325.087 494.619 325.535C494.075 325.983 493.43 326.207 492.683 326.207ZM492.683 325.022C493.131 325.022 493.52 324.851 493.851 324.51C494.192 324.169 494.454 323.635 494.635 322.91C494.827 322.174 494.923 321.236 494.923 320.095C494.923 318.954 494.827 318.026 494.635 317.311C494.454 316.586 494.192 316.058 493.851 315.727C493.52 315.386 493.131 315.215 492.683 315.215C492.246 315.215 491.856 315.386 491.515 315.727C491.174 316.058 490.907 316.586 490.715 317.311C490.534 318.026 490.443 318.954 490.443 320.095C490.443 321.236 490.534 322.174 490.715 322.91C490.907 323.635 491.174 324.169 491.515 324.51C491.856 324.851 492.246 325.022 492.683 325.022ZM497.814 325.999V325.134C499.041 324.057 500.049 323.075 500.838 322.19C501.638 321.305 502.23 320.484 502.614 319.727C502.998 318.959 503.19 318.238 503.19 317.566C503.19 317.118 503.11 316.719 502.95 316.367C502.801 316.015 502.566 315.743 502.246 315.551C501.926 315.348 501.521 315.246 501.03 315.246C500.55 315.246 500.102 315.374 499.686 315.63C499.281 315.886 498.918 316.212 498.598 316.607L497.75 315.775C498.219 315.252 498.726 314.836 499.27 314.527C499.814 314.218 500.459 314.062 501.206 314.062C501.91 314.062 502.513 314.207 503.014 314.495C503.526 314.772 503.921 315.172 504.198 315.695C504.486 316.207 504.63 316.81 504.63 317.503C504.63 318.282 504.433 319.071 504.038 319.871C503.654 320.671 503.115 321.487 502.422 322.319C501.739 323.14 500.939 323.982 500.022 324.846C500.331 324.825 500.651 324.804 500.982 324.783C501.323 324.751 501.643 324.734 501.942 324.734H505.19V325.999H497.814ZM510.193 326.207C509.585 326.207 509.046 326.132 508.577 325.983C508.118 325.834 507.713 325.636 507.361 325.391C507.009 325.146 506.705 324.879 506.449 324.591L507.201 323.647C507.542 323.999 507.942 324.314 508.401 324.591C508.87 324.858 509.436 324.991 510.097 324.991C510.566 324.991 510.977 324.905 511.329 324.734C511.692 324.553 511.974 324.303 512.177 323.983C512.38 323.652 512.481 323.263 512.481 322.815C512.481 322.346 512.364 321.935 512.129 321.583C511.905 321.231 511.526 320.959 510.993 320.767C510.46 320.564 509.74 320.462 508.833 320.462V319.342C509.644 319.342 510.284 319.247 510.753 319.055C511.222 318.852 511.558 318.579 511.761 318.238C511.974 317.897 512.081 317.519 512.081 317.103C512.081 316.538 511.905 316.09 511.553 315.759C511.201 315.418 510.716 315.246 510.097 315.246C509.628 315.246 509.185 315.353 508.769 315.566C508.364 315.779 507.996 316.052 507.665 316.383L506.881 315.454C507.329 315.049 507.814 314.718 508.337 314.462C508.87 314.195 509.473 314.062 510.145 314.062C510.806 314.062 511.393 314.179 511.905 314.414C512.428 314.638 512.833 314.969 513.121 315.406C513.42 315.843 513.569 316.372 513.569 316.991C513.569 317.706 513.377 318.298 512.993 318.767C512.609 319.236 512.108 319.583 511.489 319.807V319.887C511.948 319.994 512.364 320.18 512.737 320.447C513.11 320.714 513.409 321.049 513.633 321.454C513.857 321.859 513.969 322.33 513.969 322.863C513.969 323.556 513.798 324.154 513.457 324.655C513.116 325.156 512.662 325.54 512.097 325.807C511.532 326.074 510.897 326.207 510.193 326.207Z" fill="#6D6D6D"/>
<path opacity="0.1" d="M218 107.5V301H635V99L498 136L358 117.5L218 107.5Z" fill="url(#paint0_linear_338_40736)"/>
<path opacity="0.1" d="M218 222V301H634.5V211L498 220.5L358 216L218 222Z" fill="url(#paint1_linear_338_40736)"/>
<path d="M197.713 205V203.794C199.021 202.63 200.113 201.568 200.989 200.608C201.865 199.636 202.519 198.736 202.951 197.908C203.395 197.08 203.617 196.306 203.617 195.586C203.617 195.106 203.533 194.686 203.365 194.326C203.209 193.954 202.963 193.672 202.627 193.48C202.303 193.276 201.889 193.174 201.385 193.174C200.869 193.174 200.395 193.318 199.963 193.606C199.531 193.882 199.135 194.224 198.775 194.632L197.605 193.48C198.169 192.856 198.763 192.37 199.387 192.022C200.023 191.674 200.779 191.5 201.655 191.5C202.459 191.5 203.161 191.668 203.761 192.004C204.361 192.328 204.823 192.79 205.147 193.39C205.483 193.978 205.651 194.674 205.651 195.478C205.651 196.33 205.441 197.194 205.021 198.07C204.601 198.934 204.025 199.81 203.293 200.698C202.561 201.574 201.727 202.462 200.791 203.362C201.139 203.326 201.505 203.296 201.889 203.272C202.285 203.236 202.639 203.218 202.951 203.218H206.281V205H197.713ZM209.869 205.252C209.485 205.252 209.155 205.114 208.879 204.838C208.615 204.55 208.483 204.196 208.483 203.776C208.483 203.344 208.615 202.996 208.879 202.732C209.155 202.456 209.485 202.318 209.869 202.318C210.265 202.318 210.595 202.456 210.859 202.732C211.135 202.996 211.273 203.344 211.273 203.776C211.273 204.196 211.135 204.55 210.859 204.838C210.595 205.114 210.265 205.252 209.869 205.252ZM218.65 205V196.36C218.65 196 218.662 195.574 218.686 195.082C218.71 194.578 218.728 194.146 218.74 193.786H218.668C218.5 194.122 218.326 194.464 218.146 194.812C217.978 195.16 217.798 195.502 217.606 195.838L215.014 199.816H222.268V201.436H212.908V200.05L218.182 191.734H220.594V205H218.65ZM223.606 205V203.794C224.914 202.63 226.006 201.568 226.882 200.608C227.758 199.636 228.412 198.736 228.844 197.908C229.288 197.08 229.51 196.306 229.51 195.586C229.51 195.106 229.426 194.686 229.258 194.326C229.102 193.954 228.856 193.672 228.52 193.48C228.196 193.276 227.782 193.174 227.278 193.174C226.762 193.174 226.288 193.318 225.856 193.606C225.424 193.882 225.028 194.224 224.668 194.632L223.498 193.48C224.062 192.856 224.656 192.37 225.28 192.022C225.916 191.674 226.672 191.5 227.548 191.5C228.352 191.5 229.054 191.668 229.654 192.004C230.254 192.328 230.716 192.79 231.04 193.39C231.376 193.978 231.544 194.674 231.544 195.478C231.544 196.33 231.334 197.194 230.914 198.07C230.494 198.934 229.918 199.81 229.186 200.698C228.454 201.574 227.62 202.462 226.684 203.362C227.032 203.326 227.398 203.296 227.782 203.272C228.178 203.236 228.532 203.218 228.844 203.218H232.174V205H223.606Z" fill="#F38733"/>
<path d="M195.581 90V88.794C196.889 87.63 197.981 86.568 198.857 85.608C199.733 84.636 200.387 83.736 200.819 82.908C201.263 82.08 201.485 81.306 201.485 80.586C201.485 80.106 201.401 79.686 201.233 79.326C201.077 78.954 200.831 78.672 200.495 78.48C200.171 78.276 199.757 78.174 199.253 78.174C198.737 78.174 198.263 78.318 197.831 78.606C197.399 78.882 197.003 79.224 196.643 79.632L195.473 78.48C196.037 77.856 196.631 77.37 197.255 77.022C197.891 76.674 198.647 76.5 199.523 76.5C200.327 76.5 201.029 76.668 201.629 77.004C202.229 77.328 202.691 77.79 203.015 78.39C203.351 78.978 203.519 79.674 203.519 80.478C203.519 81.33 203.309 82.194 202.889 83.07C202.469 83.934 201.893 84.81 201.161 85.698C200.429 86.574 199.595 87.462 198.659 88.362C199.007 88.326 199.373 88.296 199.757 88.272C200.153 88.236 200.507 88.218 200.819 88.218H204.149V90H195.581ZM206.477 93.6L206.009 92.43C206.633 92.166 207.119 91.812 207.467 91.368C207.815 90.936 207.983 90.45 207.971 89.91L207.827 88.254L208.691 89.622C208.571 89.754 208.433 89.85 208.277 89.91C208.121 89.958 207.953 89.982 207.773 89.982C207.413 89.982 207.089 89.868 206.801 89.64C206.525 89.4 206.387 89.07 206.387 88.65C206.387 88.242 206.525 87.918 206.801 87.678C207.089 87.438 207.431 87.318 207.827 87.318C208.343 87.318 208.739 87.516 209.015 87.912C209.291 88.308 209.429 88.854 209.429 89.55C209.429 90.498 209.165 91.32 208.637 92.016C208.121 92.724 207.401 93.252 206.477 93.6ZM213.89 90C213.95 88.788 214.052 87.678 214.196 86.67C214.34 85.65 214.55 84.69 214.826 83.79C215.102 82.878 215.462 81.996 215.906 81.144C216.35 80.28 216.89 79.398 217.526 78.498H211.316V76.734H219.83V78.012C219.062 78.972 218.438 79.902 217.958 80.802C217.478 81.69 217.106 82.596 216.842 83.52C216.578 84.444 216.386 85.434 216.266 86.49C216.146 87.534 216.062 88.704 216.014 90H213.89ZM222.212 90V88.29H225.128V79.074H222.752V77.76C223.376 77.652 223.916 77.514 224.372 77.346C224.84 77.178 225.266 76.974 225.65 76.734H227.216V88.29H229.79V90H222.212ZM236.095 90.252C235.267 90.252 234.529 90.102 233.881 89.802C233.233 89.49 232.717 89.07 232.333 88.542C231.961 88.002 231.775 87.39 231.775 86.706C231.775 86.118 231.889 85.596 232.117 85.14C232.345 84.684 232.639 84.294 232.999 83.97C233.359 83.634 233.737 83.358 234.133 83.142V83.052C233.653 82.704 233.239 82.278 232.891 81.774C232.543 81.258 232.369 80.652 232.369 79.956C232.369 79.272 232.531 78.672 232.855 78.156C233.191 77.64 233.641 77.244 234.205 76.968C234.781 76.68 235.435 76.536 236.167 76.536C236.935 76.536 237.595 76.686 238.147 76.986C238.699 77.286 239.125 77.7 239.425 78.228C239.737 78.744 239.893 79.35 239.893 80.046C239.893 80.49 239.803 80.91 239.623 81.306C239.443 81.702 239.221 82.062 238.957 82.386C238.705 82.698 238.435 82.956 238.147 83.16V83.25C238.555 83.466 238.927 83.736 239.263 84.06C239.599 84.372 239.869 84.75 240.073 85.194C240.277 85.638 240.379 86.16 240.379 86.76C240.379 87.408 240.199 87.996 239.839 88.524C239.491 89.052 238.993 89.472 238.345 89.784C237.709 90.096 236.959 90.252 236.095 90.252ZM236.977 82.638C237.361 82.266 237.649 81.876 237.841 81.468C238.045 81.048 238.147 80.61 238.147 80.154C238.147 79.758 238.069 79.398 237.913 79.074C237.757 78.75 237.523 78.498 237.211 78.318C236.911 78.126 236.545 78.03 236.113 78.03C235.573 78.03 235.123 78.204 234.763 78.552C234.403 78.888 234.223 79.356 234.223 79.956C234.223 80.436 234.349 80.838 234.601 81.162C234.853 81.486 235.189 81.762 235.609 81.99C236.029 82.218 236.485 82.434 236.977 82.638ZM236.149 88.74C236.593 88.74 236.983 88.656 237.319 88.488C237.667 88.32 237.937 88.086 238.129 87.786C238.321 87.474 238.417 87.108 238.417 86.688C238.417 86.292 238.333 85.95 238.165 85.662C237.997 85.362 237.763 85.104 237.463 84.888C237.175 84.672 236.833 84.474 236.437 84.294C236.041 84.102 235.615 83.916 235.159 83.736C234.703 84.06 234.331 84.462 234.043 84.942C233.755 85.41 233.611 85.926 233.611 86.49C233.611 86.934 233.719 87.324 233.935 87.66C234.163 87.996 234.469 88.26 234.853 88.452C235.237 88.644 235.669 88.74 236.149 88.74Z" fill="#A7AC39"/>
<path d="M218.5 107.5L358.5 117L498 137L635 99.5" stroke="#A7AC39" stroke-width="2"/>
<path d="M335.581 100V98.794C336.889 97.63 337.981 96.568 338.857 95.608C339.733 94.636 340.387 93.736 340.819 92.908C341.263 92.08 341.485 91.306 341.485 90.586C341.485 90.106 341.401 89.686 341.233 89.326C341.077 88.954 340.831 88.672 340.495 88.48C340.171 88.276 339.757 88.174 339.253 88.174C338.737 88.174 338.263 88.318 337.831 88.606C337.399 88.882 337.003 89.224 336.643 89.632L335.473 88.48C336.037 87.856 336.631 87.37 337.255 87.022C337.891 86.674 338.647 86.5 339.523 86.5C340.327 86.5 341.029 86.668 341.629 87.004C342.229 87.328 342.691 87.79 343.015 88.39C343.351 88.978 343.519 89.674 343.519 90.478C343.519 91.33 343.309 92.194 342.889 93.07C342.469 93.934 341.893 94.81 341.161 95.698C340.429 96.574 339.595 97.462 338.659 98.362C339.007 98.326 339.373 98.296 339.757 98.272C340.153 98.236 340.507 98.218 340.819 98.218H344.149V100H335.581ZM346.477 103.6L346.009 102.43C346.633 102.166 347.119 101.812 347.467 101.368C347.815 100.936 347.983 100.45 347.971 99.91L347.827 98.254L348.691 99.622C348.571 99.754 348.433 99.85 348.277 99.91C348.121 99.958 347.953 99.982 347.773 99.982C347.413 99.982 347.089 99.868 346.801 99.64C346.525 99.4 346.387 99.07 346.387 98.65C346.387 98.242 346.525 97.918 346.801 97.678C347.089 97.438 347.431 97.318 347.827 97.318C348.343 97.318 348.739 97.516 349.015 97.912C349.291 98.308 349.429 98.854 349.429 99.55C349.429 100.498 349.165 101.32 348.637 102.016C348.121 102.724 347.401 103.252 346.477 103.6ZM355.96 100.252C355.324 100.252 354.73 100.12 354.178 99.856C353.626 99.58 353.14 99.172 352.72 98.632C352.3 98.08 351.97 97.39 351.73 96.562C351.49 95.734 351.37 94.756 351.37 93.628C351.37 92.356 351.508 91.27 351.784 90.37C352.06 89.458 352.432 88.72 352.9 88.156C353.368 87.592 353.902 87.178 354.502 86.914C355.102 86.638 355.726 86.5 356.374 86.5C357.118 86.5 357.76 86.638 358.3 86.914C358.852 87.19 359.314 87.526 359.686 87.922L358.552 89.182C358.312 88.894 358.006 88.66 357.634 88.48C357.262 88.288 356.878 88.192 356.482 88.192C355.906 88.192 355.372 88.366 354.88 88.714C354.4 89.05 354.016 89.614 353.728 90.406C353.44 91.198 353.296 92.272 353.296 93.628C353.296 94.768 353.404 95.71 353.62 96.454C353.836 97.186 354.142 97.738 354.538 98.11C354.934 98.47 355.396 98.65 355.924 98.65C356.32 98.65 356.668 98.536 356.968 98.308C357.28 98.08 357.526 97.762 357.706 97.354C357.886 96.934 357.976 96.442 357.976 95.878C357.976 95.314 357.892 94.834 357.724 94.438C357.556 94.042 357.31 93.742 356.986 93.538C356.674 93.334 356.284 93.232 355.816 93.232C355.42 93.232 354.994 93.358 354.538 93.61C354.094 93.862 353.668 94.294 353.26 94.906L353.188 93.394C353.44 93.034 353.734 92.734 354.07 92.494C354.406 92.242 354.754 92.05 355.114 91.918C355.486 91.786 355.84 91.72 356.176 91.72C356.92 91.72 357.568 91.876 358.12 92.188C358.684 92.488 359.122 92.944 359.434 93.556C359.758 94.168 359.92 94.942 359.92 95.878C359.92 96.754 359.734 97.522 359.362 98.182C359.002 98.83 358.522 99.34 357.922 99.712C357.334 100.072 356.68 100.252 355.96 100.252ZM365.074 100.252C364.306 100.252 363.64 100.114 363.076 99.838C362.524 99.55 362.056 99.214 361.672 98.83L362.806 97.534C363.07 97.834 363.394 98.074 363.778 98.254C364.162 98.434 364.558 98.524 364.966 98.524C365.386 98.524 365.782 98.428 366.154 98.236C366.538 98.044 366.868 97.732 367.144 97.3C367.432 96.868 367.654 96.292 367.81 95.572C367.978 94.852 368.062 93.97 368.062 92.926C368.062 91.822 367.954 90.916 367.738 90.208C367.522 89.488 367.216 88.96 366.82 88.624C366.436 88.276 365.974 88.102 365.434 88.102C365.05 88.102 364.702 88.216 364.39 88.444C364.078 88.66 363.832 88.972 363.652 89.38C363.472 89.788 363.382 90.28 363.382 90.856C363.382 91.42 363.46 91.9 363.616 92.296C363.784 92.692 364.03 92.998 364.354 93.214C364.678 93.418 365.068 93.52 365.524 93.52C365.944 93.52 366.376 93.388 366.82 93.124C367.264 92.86 367.684 92.428 368.08 91.828L368.17 93.358C367.918 93.694 367.624 93.988 367.288 94.24C366.952 94.492 366.604 94.69 366.244 94.834C365.884 94.966 365.524 95.032 365.164 95.032C364.432 95.032 363.784 94.876 363.22 94.564C362.668 94.252 362.23 93.79 361.906 93.178C361.594 92.554 361.438 91.78 361.438 90.856C361.438 89.98 361.618 89.218 361.978 88.57C362.35 87.91 362.836 87.4 363.436 87.04C364.036 86.68 364.69 86.5 365.398 86.5C366.034 86.5 366.628 86.632 367.18 86.896C367.744 87.148 368.23 87.538 368.638 88.066C369.058 88.594 369.388 89.26 369.628 90.064C369.868 90.868 369.988 91.822 369.988 92.926C369.988 94.222 369.856 95.338 369.592 96.274C369.328 97.198 368.962 97.954 368.494 98.542C368.026 99.118 367.498 99.55 366.91 99.838C366.322 100.114 365.71 100.252 365.074 100.252ZM375.771 100.252C375.087 100.252 374.475 100.168 373.935 100C373.395 99.832 372.921 99.61 372.513 99.334C372.105 99.058 371.745 98.77 371.433 98.47L372.423 97.12C372.675 97.372 372.951 97.606 373.251 97.822C373.551 98.026 373.887 98.194 374.259 98.326C374.643 98.458 375.069 98.524 375.537 98.524C376.029 98.524 376.473 98.416 376.869 98.2C377.265 97.972 377.577 97.648 377.805 97.228C378.033 96.796 378.147 96.286 378.147 95.698C378.147 94.834 377.913 94.162 377.445 93.682C376.989 93.202 376.383 92.962 375.627 92.962C375.207 92.962 374.847 93.022 374.547 93.142C374.247 93.262 373.905 93.448 373.521 93.7L372.495 93.034L372.891 86.734H379.605V88.498H374.691L374.385 91.882C374.673 91.738 374.961 91.63 375.249 91.558C375.537 91.474 375.855 91.432 376.203 91.432C376.947 91.432 377.625 91.582 378.237 91.882C378.849 92.182 379.335 92.644 379.695 93.268C380.055 93.88 380.235 94.672 380.235 95.644C380.235 96.616 380.025 97.45 379.605 98.146C379.185 98.83 378.633 99.352 377.949 99.712C377.277 100.072 376.551 100.252 375.771 100.252Z" fill="#A7AC39"/>
<mask id="mask4_338_40736" style="mask-type:luminance" maskUnits="userSpaceOnUse" x="353" y="112" width="10" height="10">
<path d="M363 112H353V122H363V112Z" fill="white"/>
</mask>
<g mask="url(#mask4_338_40736)">
<path d="M362.908 117.094L357.908 112.094L352.908 117.094L357.908 122.094L362.908 117.094Z" fill="url(#paint2_linear_338_40736)"/>
</g>
<path d="M340.713 199V197.794C342.021 196.63 343.113 195.568 343.989 194.608C344.865 193.636 345.519 192.736 345.951 191.908C346.395 191.08 346.617 190.306 346.617 189.586C346.617 189.106 346.533 188.686 346.365 188.326C346.209 187.954 345.963 187.672 345.627 187.48C345.303 187.276 344.889 187.174 344.385 187.174C343.869 187.174 343.395 187.318 342.963 187.606C342.531 187.882 342.135 188.224 341.775 188.632L340.605 187.48C341.169 186.856 341.763 186.37 342.387 186.022C343.023 185.674 343.779 185.5 344.655 185.5C345.459 185.5 346.161 185.668 346.761 186.004C347.361 186.328 347.823 186.79 348.147 187.39C348.483 187.978 348.651 188.674 348.651 189.478C348.651 190.33 348.441 191.194 348.021 192.07C347.601 192.934 347.025 193.81 346.293 194.698C345.561 195.574 344.727 196.462 343.791 197.362C344.139 197.326 344.505 197.296 344.889 197.272C345.285 197.236 345.639 197.218 345.951 197.218H349.281V199H340.713ZM352.869 199.252C352.485 199.252 352.155 199.114 351.879 198.838C351.615 198.55 351.483 198.196 351.483 197.776C351.483 197.344 351.615 196.996 351.879 196.732C352.155 196.456 352.485 196.318 352.869 196.318C353.265 196.318 353.595 196.456 353.859 196.732C354.135 196.996 354.273 197.344 354.273 197.776C354.273 198.196 354.135 198.55 353.859 198.838C353.595 199.114 353.265 199.252 352.869 199.252ZM361.65 199V190.36C361.65 190 361.662 189.574 361.686 189.082C361.71 188.578 361.728 188.146 361.74 187.786H361.668C361.5 188.122 361.326 188.464 361.146 188.812C360.978 189.16 360.798 189.502 360.606 189.838L358.014 193.816H365.268V195.436H355.908V194.05L361.182 185.734H363.594V199H361.65ZM370.961 199.252C370.133 199.252 369.395 199.102 368.747 198.802C368.099 198.49 367.583 198.07 367.199 197.542C366.827 197.002 366.641 196.39 366.641 195.706C366.641 195.118 366.755 194.596 366.983 194.14C367.211 193.684 367.505 193.294 367.865 192.97C368.225 192.634 368.603 192.358 368.999 192.142V192.052C368.519 191.704 368.105 191.278 367.757 190.774C367.409 190.258 367.235 189.652 367.235 188.956C367.235 188.272 367.397 187.672 367.721 187.156C368.057 186.64 368.507 186.244 369.071 185.968C369.647 185.68 370.301 185.536 371.033 185.536C371.801 185.536 372.461 185.686 373.013 185.986C373.565 186.286 373.991 186.7 374.291 187.228C374.603 187.744 374.759 188.35 374.759 189.046C374.759 189.49 374.669 189.91 374.489 190.306C374.309 190.702 374.087 191.062 373.823 191.386C373.571 191.698 373.301 191.956 373.013 192.16V192.25C373.421 192.466 373.793 192.736 374.129 193.06C374.465 193.372 374.735 193.75 374.939 194.194C375.143 194.638 375.245 195.16 375.245 195.76C375.245 196.408 375.065 196.996 374.705 197.524C374.357 198.052 373.859 198.472 373.211 198.784C372.575 199.096 371.825 199.252 370.961 199.252ZM371.843 191.638C372.227 191.266 372.515 190.876 372.707 190.468C372.911 190.048 373.013 189.61 373.013 189.154C373.013 188.758 372.935 188.398 372.779 188.074C372.623 187.75 372.389 187.498 372.077 187.318C371.777 187.126 371.411 187.03 370.979 187.03C370.439 187.03 369.989 187.204 369.629 187.552C369.269 187.888 369.089 188.356 369.089 188.956C369.089 189.436 369.215 189.838 369.467 190.162C369.719 190.486 370.055 190.762 370.475 190.99C370.895 191.218 371.351 191.434 371.843 191.638ZM371.015 197.74C371.459 197.74 371.849 197.656 372.185 197.488C372.533 197.32 372.803 197.086 372.995 196.786C373.187 196.474 373.283 196.108 373.283 195.688C373.283 195.292 373.199 194.95 373.031 194.662C372.863 194.362 372.629 194.104 372.329 193.888C372.041 193.672 371.699 193.474 371.303 193.294C370.907 193.102 370.481 192.916 370.025 192.736C369.569 193.06 369.197 193.462 368.909 193.942C368.621 194.41 368.477 194.926 368.477 195.49C368.477 195.934 368.585 196.324 368.801 196.66C369.029 196.996 369.335 197.26 369.719 197.452C370.103 197.644 370.535 197.74 371.015 197.74Z" fill="#F38733"/>
<path d="M475.581 119V117.794C476.889 116.63 477.981 115.568 478.857 114.608C479.733 113.636 480.387 112.736 480.819 111.908C481.263 111.08 481.485 110.306 481.485 109.586C481.485 109.106 481.401 108.686 481.233 108.326C481.077 107.954 480.831 107.672 480.495 107.48C480.171 107.276 479.757 107.174 479.253 107.174C478.737 107.174 478.263 107.318 477.831 107.606C477.399 107.882 477.003 108.224 476.643 108.632L475.473 107.48C476.037 106.856 476.631 106.37 477.255 106.022C477.891 105.674 478.647 105.5 479.523 105.5C480.327 105.5 481.029 105.668 481.629 106.004C482.229 106.328 482.691 106.79 483.015 107.39C483.351 107.978 483.519 108.674 483.519 109.478C483.519 110.33 483.309 111.194 482.889 112.07C482.469 112.934 481.893 113.81 481.161 114.698C480.429 115.574 479.595 116.462 478.659 117.362C479.007 117.326 479.373 117.296 479.757 117.272C480.153 117.236 480.507 117.218 480.819 117.218H484.149V119H475.581ZM486.477 122.6L486.009 121.43C486.633 121.166 487.119 120.812 487.467 120.368C487.815 119.936 487.983 119.45 487.971 118.91L487.827 117.254L488.691 118.622C488.571 118.754 488.433 118.85 488.277 118.91C488.121 118.958 487.953 118.982 487.773 118.982C487.413 118.982 487.089 118.868 486.801 118.64C486.525 118.4 486.387 118.07 486.387 117.65C486.387 117.242 486.525 116.918 486.801 116.678C487.089 116.438 487.431 116.318 487.827 116.318C488.343 116.318 488.739 116.516 489.015 116.912C489.291 117.308 489.429 117.854 489.429 118.55C489.429 119.498 489.165 120.32 488.637 121.016C488.121 121.724 487.401 122.252 486.477 122.6ZM496.518 119V110.36C496.518 110 496.53 109.574 496.554 109.082C496.578 108.578 496.596 108.146 496.608 107.786H496.536C496.368 108.122 496.194 108.464 496.014 108.812C495.846 109.16 495.666 109.502 495.474 109.838L492.882 113.816H500.136V115.436H490.776V114.05L496.05 105.734H498.462V119H496.518ZM506.784 119V110.36C506.784 110 506.796 109.574 506.82 109.082C506.844 108.578 506.862 108.146 506.874 107.786H506.802C506.634 108.122 506.46 108.464 506.28 108.812C506.112 109.16 505.932 109.502 505.74 109.838L503.148 113.816H510.402V115.436H501.042V114.05L506.316 105.734H508.728V119H506.784ZM516.491 119.252C515.855 119.252 515.261 119.12 514.709 118.856C514.157 118.58 513.671 118.172 513.251 117.632C512.831 117.08 512.501 116.39 512.261 115.562C512.021 114.734 511.901 113.756 511.901 112.628C511.901 111.356 512.039 110.27 512.315 109.37C512.591 108.458 512.963 107.72 513.431 107.156C513.899 106.592 514.433 106.178 515.033 105.914C515.633 105.638 516.257 105.5 516.905 105.5C517.649 105.5 518.291 105.638 518.831 105.914C519.383 106.19 519.845 106.526 520.217 106.922L519.083 108.182C518.843 107.894 518.537 107.66 518.165 107.48C517.793 107.288 517.409 107.192 517.013 107.192C516.437 107.192 515.903 107.366 515.411 107.714C514.931 108.05 514.547 108.614 514.259 109.406C513.971 110.198 513.827 111.272 513.827 112.628C513.827 113.768 513.935 114.71 514.151 115.454C514.367 116.186 514.673 116.738 515.069 117.11C515.465 117.47 515.927 117.65 516.455 117.65C516.851 117.65 517.199 117.536 517.499 117.308C517.811 117.08 518.057 116.762 518.237 116.354C518.417 115.934 518.507 115.442 518.507 114.878C518.507 114.314 518.423 113.834 518.255 113.438C518.087 113.042 517.841 112.742 517.517 112.538C517.205 112.334 516.815 112.232 516.347 112.232C515.951 112.232 515.525 112.358 515.069 112.61C514.625 112.862 514.199 113.294 513.791 113.906L513.719 112.394C513.971 112.034 514.265 111.734 514.601 111.494C514.937 111.242 515.285 111.05 515.645 110.918C516.017 110.786 516.371 110.72 516.707 110.72C517.451 110.72 518.099 110.876 518.651 111.188C519.215 111.488 519.653 111.944 519.965 112.556C520.289 113.168 520.451 113.942 520.451 114.878C520.451 115.754 520.265 116.522 519.893 117.182C519.533 117.83 519.053 118.34 518.453 118.712C517.865 119.072 517.211 119.252 516.491 119.252Z" fill="#A7AC39"/>
<mask id="mask5_338_40736" style="mask-type:luminance" maskUnits="userSpaceOnUse" x="493" y="131" width="10" height="10">
<path d="M503 131H493V141H503V131Z" fill="white"/>
</mask>
<g mask="url(#mask5_338_40736)">
<path d="M502.908 136.094L497.908 131.094L492.908 136.094L497.908 141.094L502.908 136.094Z" fill="url(#paint3_linear_338_40736)"/>
</g>
<path d="M480.713 203V201.794C482.021 200.63 483.113 199.568 483.989 198.608C484.865 197.636 485.519 196.736 485.951 195.908C486.395 195.08 486.617 194.306 486.617 193.586C486.617 193.106 486.533 192.686 486.365 192.326C486.209 191.954 485.963 191.672 485.627 191.48C485.303 191.276 484.889 191.174 484.385 191.174C483.869 191.174 483.395 191.318 482.963 191.606C482.531 191.882 482.135 192.224 481.775 192.632L480.605 191.48C481.169 190.856 481.763 190.37 482.387 190.022C483.023 189.674 483.779 189.5 484.655 189.5C485.459 189.5 486.161 189.668 486.761 190.004C487.361 190.328 487.823 190.79 488.147 191.39C488.483 191.978 488.651 192.674 488.651 193.478C488.651 194.33 488.441 195.194 488.021 196.07C487.601 196.934 487.025 197.81 486.293 198.698C485.561 199.574 484.727 200.462 483.791 201.362C484.139 201.326 484.505 201.296 484.889 201.272C485.285 201.236 485.639 201.218 485.951 201.218H489.281V203H480.713ZM492.869 203.252C492.485 203.252 492.155 203.114 491.879 202.838C491.615 202.55 491.483 202.196 491.483 201.776C491.483 201.344 491.615 200.996 491.879 200.732C492.155 200.456 492.485 200.318 492.869 200.318C493.265 200.318 493.595 200.456 493.859 200.732C494.135 200.996 494.273 201.344 494.273 201.776C494.273 202.196 494.135 202.55 493.859 202.838C493.595 203.114 493.265 203.252 492.869 203.252ZM501.65 203V194.36C501.65 194 501.662 193.574 501.686 193.082C501.71 192.578 501.728 192.146 501.74 191.786H501.668C501.5 192.122 501.326 192.464 501.146 192.812C500.978 193.16 500.798 193.502 500.606 193.838L498.014 197.816H505.268V199.436H495.908V198.05L501.182 189.734H503.594V203H501.65ZM511.915 203V194.36C511.915 194 511.927 193.574 511.951 193.082C511.975 192.578 511.993 192.146 512.005 191.786H511.933C511.765 192.122 511.591 192.464 511.411 192.812C511.243 193.16 511.063 193.502 510.871 193.838L508.279 197.816H515.533V199.436H506.173V198.05L511.447 189.734H513.859V203H511.915Z" fill="#F38733"/>
<mask id="mask6_338_40736" style="mask-type:luminance" maskUnits="userSpaceOnUse" x="0" y="366" width="11" height="10">
<path d="M10.5 366H0.5V376H10.5V366Z" fill="white"/>
</mask>
<g mask="url(#mask6_338_40736)">
<path d="M10.4043 371.094L5.4043 366.094L0.404292 371.094L5.40429 376.094L10.4043 371.094Z" fill="url(#paint4_linear_338_40736)"/>
</g>
<path d="M21.1899 378L18.7739 366.224H20.6939L21.7979 372.352L22.4219 376.128H22.4859C22.7419 374.864 23.0139 373.6 23.2859 372.352L24.8059 366.224H26.4379L27.9739 372.352C28.2459 373.584 28.5019 374.848 28.7739 376.128H28.8539C29.0459 374.848 29.2539 373.584 29.4459 372.352L30.5659 366.224H32.3419L30.0219 378H27.7339L26.1499 371.456C25.9419 370.528 25.7659 369.648 25.6059 368.752H25.5259C25.3659 369.648 25.1739 370.528 24.9819 371.456L23.4299 378H21.1899ZM35.9251 378.208C34.4051 378.208 33.3331 377.216 33.3331 375.664C33.3331 373.776 34.9331 372.8 38.5971 372.4C38.5811 371.376 38.2131 370.48 36.9171 370.48C35.9891 370.48 35.1251 370.896 34.3731 371.376L33.6851 370.128C34.5971 369.552 35.8291 368.976 37.2371 368.976C39.4291 368.976 40.4371 370.368 40.4371 372.704V378H38.9331L38.7731 376.992H38.7251C37.9251 377.68 36.9811 378.208 35.9251 378.208ZM36.4851 376.752C37.2531 376.752 37.8771 376.384 38.5971 375.728V373.568C35.9891 373.888 35.1091 374.544 35.1091 375.536C35.1091 376.4 35.7011 376.752 36.4851 376.752ZM45.4323 378.208C44.2163 378.208 42.9683 377.696 42.1203 376.992L42.9843 375.808C43.7682 376.432 44.5363 376.816 45.4803 376.816C46.5363 376.816 47.0323 376.304 47.0323 375.632C47.0323 374.832 46.0403 374.48 45.0803 374.112C43.9123 373.664 42.5683 373.04 42.5683 371.552C42.5683 370.08 43.7523 368.976 45.6883 368.976C46.8723 368.976 47.8323 369.456 48.5523 370.016L47.6883 371.152C47.0803 370.704 46.4563 370.384 45.7203 370.384C44.7603 370.384 44.3123 370.864 44.3123 371.472C44.3123 372.224 45.2243 372.512 46.1843 372.864C47.4163 373.328 48.7763 373.872 48.7763 375.536C48.7763 377.008 47.6083 378.208 45.4323 378.208ZM53.3364 378.208C51.3524 378.208 50.6644 376.976 50.6644 375.12V370.672H49.3844V369.296L50.7444 369.2L50.9524 366.768H52.5044V369.2H54.7924V370.672H52.5044V375.136C52.5044 376.192 52.8724 376.736 53.7844 376.736C54.0884 376.736 54.4724 376.64 54.7284 376.528L55.0644 377.888C54.5684 378.048 53.9764 378.208 53.3364 378.208ZM60.1185 378.208C57.7345 378.208 55.8305 376.512 55.8305 373.616C55.8305 370.752 57.7825 368.976 59.8465 368.976C62.1825 368.976 63.4305 370.656 63.4305 373.152C63.4305 373.504 63.3985 373.872 63.3505 374.08H57.6385C57.7825 375.76 58.8385 376.768 60.3585 376.768C61.1425 376.768 61.8145 376.528 62.4545 376.112L63.0945 377.28C62.2785 377.824 61.2705 378.208 60.1185 378.208ZM57.6225 372.816H61.8465C61.8465 371.296 61.1585 370.416 59.8785 370.416C58.7745 370.416 57.7985 371.264 57.6225 372.816ZM66.9254 378L64.5414 369.2H66.3974L67.5654 373.968C67.7414 374.816 67.8854 375.632 68.0454 376.464H68.1094C68.3014 375.632 68.4774 374.8 68.6854 373.968L69.9174 369.2H71.6294L72.8934 373.968C73.1014 374.816 73.2774 375.632 73.4854 376.464H73.5494C73.7254 375.632 73.8694 374.816 74.0614 373.968L75.1974 369.2H76.9254L74.6534 378H72.4454L71.3254 373.648C71.1174 372.816 70.9574 372.016 70.7654 371.104H70.6854C70.5094 372.016 70.3494 372.832 70.1254 373.664L69.0534 378H66.9254ZM80.6595 378.208C79.1395 378.208 78.0675 377.216 78.0675 375.664C78.0675 373.776 79.6675 372.8 83.3315 372.4C83.3155 371.376 82.9475 370.48 81.6515 370.48C80.7235 370.48 79.8595 370.896 79.1075 371.376L78.4195 370.128C79.3315 369.552 80.5635 368.976 81.9715 368.976C84.1635 368.976 85.1715 370.368 85.1715 372.704V378H83.6675L83.5075 376.992H83.4595C82.6595 377.68 81.7155 378.208 80.6595 378.208ZM81.2195 376.752C81.9875 376.752 82.6115 376.384 83.3315 375.728V373.568C80.7235 373.888 79.8435 374.544 79.8435 375.536C79.8435 376.4 80.4355 376.752 81.2195 376.752ZM90.477 378.208C88.493 378.208 87.805 376.976 87.805 375.12V370.672H86.525V369.296L87.885 369.2L88.093 366.768H89.645V369.2H91.933V370.672H89.645V375.136C89.645 376.192 90.013 376.736 90.925 376.736C91.229 376.736 91.613 376.64 91.869 376.528L92.205 377.888C91.709 378.048 91.117 378.208 90.477 378.208ZM97.2591 378.208C94.8751 378.208 92.9711 376.512 92.9711 373.616C92.9711 370.752 94.9231 368.976 96.9871 368.976C99.3231 368.976 100.571 370.656 100.571 373.152C100.571 373.504 100.539 373.872 100.491 374.08H94.7791C94.9231 375.76 95.9791 376.768 97.4991 376.768C98.2831 376.768 98.9551 376.528 99.5951 376.112L100.235 377.28C99.4191 377.824 98.4111 378.208 97.2591 378.208ZM94.7631 372.816H98.9871C98.9871 371.296 98.2991 370.416 97.0191 370.416C95.9151 370.416 94.9391 371.264 94.7631 372.816ZM102.642 378V369.2H104.146L104.29 370.784H104.338C104.962 369.648 105.89 368.976 106.834 368.976C107.266 368.976 107.554 369.04 107.826 369.168L107.49 370.768C107.186 370.672 106.962 370.624 106.61 370.624C105.89 370.624 105.026 371.12 104.466 372.512V378H102.642ZM115.823 378.208C113.615 378.208 112.191 376.528 112.191 373.616C112.191 370.752 113.999 368.976 115.967 368.976C116.975 368.976 117.615 369.36 118.335 369.968L118.255 368.512V365.248H120.095V378H118.591L118.431 377.008H118.383C117.727 377.68 116.815 378.208 115.823 378.208ZM116.255 376.688C116.991 376.688 117.615 376.352 118.255 375.616V371.312C117.599 370.72 116.975 370.512 116.319 370.512C115.087 370.512 114.095 371.68 114.095 373.584C114.095 375.584 114.879 376.688 116.255 376.688ZM122.861 378V369.2H124.685V378H122.861ZM123.773 367.552C123.101 367.552 122.605 367.104 122.605 366.464C122.605 365.808 123.101 365.376 123.773 365.376C124.445 365.376 124.957 365.808 124.957 366.464C124.957 367.104 124.445 367.552 123.773 367.552ZM129.839 378.208C128.623 378.208 127.375 377.696 126.527 376.992L127.391 375.808C128.174 376.432 128.943 376.816 129.887 376.816C130.943 376.816 131.439 376.304 131.439 375.632C131.439 374.832 130.447 374.48 129.487 374.112C128.319 373.664 126.975 373.04 126.975 371.552C126.975 370.08 128.159 368.976 130.095 368.976C131.279 368.976 132.239 369.456 132.959 370.016L132.095 371.152C131.487 370.704 130.863 370.384 130.127 370.384C129.167 370.384 128.719 370.864 128.719 371.472C128.719 372.224 129.631 372.512 130.591 372.864C131.823 373.328 133.183 373.872 133.183 375.536C133.183 377.008 132.015 378.208 129.839 378.208ZM138.726 378.208C136.342 378.208 134.518 376.528 134.518 373.616C134.518 370.672 136.55 368.976 138.87 368.976C139.99 368.976 140.806 369.424 141.446 369.984L140.534 371.184C140.054 370.752 139.558 370.496 138.95 370.496C137.478 370.496 136.422 371.744 136.422 373.616C136.422 375.472 137.43 376.704 138.902 376.704C139.638 376.704 140.294 376.352 140.822 375.904L141.574 377.12C140.774 377.84 139.734 378.208 138.726 378.208ZM143.408 378V365.248H145.232V368.624L145.168 370.368C145.936 369.632 146.816 368.976 148.016 368.976C149.888 368.976 150.72 370.224 150.72 372.464V378H148.88V372.688C148.88 371.168 148.432 370.56 147.392 370.56C146.576 370.56 146.016 370.976 145.232 371.76V378H143.408ZM155.425 378.208C153.905 378.208 152.833 377.216 152.833 375.664C152.833 373.776 154.433 372.8 158.097 372.4C158.081 371.376 157.713 370.48 156.417 370.48C155.489 370.48 154.625 370.896 153.873 371.376L153.185 370.128C154.097 369.552 155.329 368.976 156.737 368.976C158.929 368.976 159.937 370.368 159.937 372.704V378H158.433L158.273 376.992H158.225C157.425 377.68 156.481 378.208 155.425 378.208ZM155.985 376.752C156.753 376.752 157.377 376.384 158.097 375.728V373.568C155.489 373.888 154.609 374.544 154.609 375.536C154.609 376.4 155.201 376.752 155.985 376.752ZM162.548 378V369.2H164.052L164.196 370.784H164.244C164.868 369.648 165.796 368.976 166.74 368.976C167.172 368.976 167.46 369.04 167.732 369.168L167.396 370.768C167.092 370.672 166.868 370.624 166.516 370.624C165.796 370.624 164.932 371.12 164.372 372.512V378H162.548ZM171.931 381.952C169.819 381.952 168.283 381.168 168.283 379.632C168.283 378.896 168.747 378.208 169.563 377.712V377.632C169.115 377.36 168.763 376.896 168.763 376.176C168.763 375.488 169.259 374.896 169.739 374.544V374.48C169.147 374.016 168.587 373.184 168.587 372.144C168.587 370.144 170.171 368.976 171.995 368.976C172.491 368.976 172.939 369.072 173.275 369.2H176.395V370.576H174.715C175.051 370.928 175.291 371.52 175.291 372.192C175.291 374.112 173.835 375.216 171.995 375.216C171.595 375.216 171.147 375.12 170.763 374.944C170.475 375.2 170.283 375.456 170.283 375.872C170.283 376.4 170.635 376.736 171.755 376.736H173.371C175.451 376.736 176.539 377.376 176.539 378.88C176.539 380.576 174.747 381.952 171.931 381.952ZM171.995 374.032C172.907 374.032 173.659 373.312 173.659 372.144C173.659 370.96 172.923 370.272 171.995 370.272C171.067 370.272 170.331 370.944 170.331 372.144C170.331 373.312 171.083 374.032 171.995 374.032ZM172.203 380.736C173.739 380.736 174.763 379.984 174.763 379.168C174.763 378.432 174.187 378.208 173.115 378.208H171.787C171.371 378.208 170.971 378.16 170.603 378.08C170.075 378.464 169.851 378.912 169.851 379.36C169.851 380.224 170.747 380.736 172.203 380.736ZM181.572 378.208C179.188 378.208 177.284 376.512 177.284 373.616C177.284 370.752 179.236 368.976 181.3 368.976C183.636 368.976 184.884 370.656 184.884 373.152C184.884 373.504 184.852 373.872 184.804 374.08H179.092C179.236 375.76 180.292 376.768 181.812 376.768C182.596 376.768 183.268 376.528 183.908 376.112L184.548 377.28C183.732 377.824 182.724 378.208 181.572 378.208ZM179.076 372.816H183.3C183.3 371.296 182.612 370.416 181.332 370.416C180.228 370.416 179.252 371.264 179.076 372.816ZM192.484 378L189.364 369.2H191.252L192.756 373.936C192.996 374.8 193.268 375.696 193.524 376.56H193.588C193.844 375.696 194.116 374.8 194.356 373.936L195.86 369.2H197.652L194.612 378H192.484ZM202.693 378.208C200.517 378.208 198.549 376.528 198.549 373.616C198.549 370.672 200.517 368.976 202.693 368.976C204.869 368.976 206.837 370.672 206.837 373.616C206.837 376.528 204.869 378.208 202.693 378.208ZM202.693 376.704C204.085 376.704 204.949 375.472 204.949 373.616C204.949 371.744 204.085 370.496 202.693 370.496C201.317 370.496 200.453 371.744 200.453 373.616C200.453 375.472 201.317 376.704 202.693 376.704ZM210.825 378.208C209.497 378.208 209.001 377.36 209.001 375.936V365.248H210.825V376.032C210.825 376.528 211.049 376.704 211.273 376.704C211.353 376.704 211.417 376.704 211.577 376.672L211.817 378.064C211.593 378.144 211.273 378.208 210.825 378.208ZM216.343 378.208C214.471 378.208 213.655 376.976 213.655 374.736V369.2H215.495V374.512C215.495 376.032 215.927 376.624 216.967 376.624C217.783 376.624 218.343 376.24 219.079 375.312V369.2H220.919V378H219.415L219.271 376.672H219.223C218.423 377.6 217.559 378.208 216.343 378.208ZM223.689 378V369.2H225.193L225.337 370.432H225.385C226.137 369.632 227.017 368.976 228.105 368.976C229.417 368.976 230.153 369.584 230.537 370.592C231.401 369.664 232.297 368.976 233.401 368.976C235.241 368.976 236.105 370.224 236.105 372.464V378H234.265V372.688C234.265 371.168 233.785 370.56 232.793 370.56C232.185 370.56 231.545 370.96 230.809 371.76V378H228.969V372.688C228.969 371.168 228.505 370.56 227.497 370.56C226.905 370.56 226.249 370.96 225.513 371.76V378H223.689ZM242.431 378.208C240.047 378.208 238.143 376.512 238.143 373.616C238.143 370.752 240.095 368.976 242.159 368.976C244.495 368.976 245.743 370.656 245.743 373.152C245.743 373.504 245.711 373.872 245.663 374.08H239.951C240.095 375.76 241.151 376.768 242.671 376.768C243.455 376.768 244.127 376.528 244.767 376.112L245.407 377.28C244.591 377.824 243.583 378.208 242.431 378.208ZM239.935 372.816H244.159C244.159 371.296 243.471 370.416 242.191 370.416C241.087 370.416 240.111 371.264 239.935 372.816ZM253.808 381.184C252.32 378.752 251.44 376.176 251.44 372.992C251.44 369.84 252.32 367.232 253.808 364.816L254.96 365.312C253.584 367.616 252.944 370.32 252.944 372.992C252.944 375.68 253.584 378.384 254.96 380.672L253.808 381.184ZM257.255 378V366.224H259.383L261.543 372.176C261.815 372.96 262.055 373.76 262.327 374.56H262.407C262.679 373.76 262.903 372.96 263.175 372.176L265.303 366.224H267.447V378H265.719V372.176C265.719 371.12 265.863 369.6 265.959 368.528H265.895L264.951 371.248L262.903 376.864H261.751L259.687 371.248L258.759 368.528H258.695C258.775 369.6 258.919 371.12 258.919 372.176V378H257.255ZM270.536 378V366.224H272.392V376.432H277.368V378H270.536ZM279.779 381.184L278.627 380.672C280.003 378.384 280.643 375.68 280.643 372.992C280.643 370.32 280.003 367.616 278.627 365.312L279.779 364.816C281.283 367.232 282.163 369.84 282.163 372.992C282.163 376.176 281.283 378.752 279.779 381.184Z" fill="#4F4F4F"/>
<path d="M374.916 378L372.5 366.224H374.42L375.524 372.352L376.148 376.128H376.212C376.468 374.864 376.74 373.6 377.012 372.352L378.532 366.224H380.164L381.7 372.352C381.972 373.584 382.228 374.848 382.5 376.128H382.58C382.772 374.848 382.98 373.584 383.172 372.352L384.292 366.224H386.068L383.748 378H381.46L379.876 371.456C379.668 370.528 379.492 369.648 379.332 368.752H379.252C379.092 369.648 378.9 370.528 378.708 371.456L377.156 378H374.916ZM389.652 378.208C388.132 378.208 387.06 377.216 387.06 375.664C387.06 373.776 388.66 372.8 392.324 372.4C392.308 371.376 391.94 370.48 390.644 370.48C389.716 370.48 388.852 370.896 388.1 371.376L387.412 370.128C388.324 369.552 389.556 368.976 390.964 368.976C393.156 368.976 394.164 370.368 394.164 372.704V378H392.66L392.5 376.992H392.452C391.652 377.68 390.708 378.208 389.652 378.208ZM390.212 376.752C390.98 376.752 391.604 376.384 392.324 375.728V373.568C389.716 373.888 388.836 374.544 388.836 375.536C388.836 376.4 389.428 376.752 390.212 376.752ZM399.159 378.208C397.943 378.208 396.695 377.696 395.847 376.992L396.711 375.808C397.495 376.432 398.263 376.816 399.207 376.816C400.263 376.816 400.759 376.304 400.759 375.632C400.759 374.832 399.767 374.48 398.807 374.112C397.639 373.664 396.295 373.04 396.295 371.552C396.295 370.08 397.479 368.976 399.415 368.976C400.599 368.976 401.559 369.456 402.279 370.016L401.415 371.152C400.807 370.704 400.183 370.384 399.447 370.384C398.487 370.384 398.039 370.864 398.039 371.472C398.039 372.224 398.951 372.512 399.911 372.864C401.143 373.328 402.503 373.872 402.503 375.536C402.503 377.008 401.335 378.208 399.159 378.208ZM407.063 378.208C405.079 378.208 404.391 376.976 404.391 375.12V370.672H403.111V369.296L404.471 369.2L404.679 366.768H406.231V369.2H408.519V370.672H406.231V375.136C406.231 376.192 406.599 376.736 407.511 376.736C407.815 376.736 408.199 376.64 408.455 376.528L408.791 377.888C408.295 378.048 407.703 378.208 407.063 378.208ZM413.845 378.208C411.461 378.208 409.557 376.512 409.557 373.616C409.557 370.752 411.509 368.976 413.573 368.976C415.909 368.976 417.157 370.656 417.157 373.152C417.157 373.504 417.125 373.872 417.077 374.08H411.365C411.509 375.76 412.565 376.768 414.085 376.768C414.869 376.768 415.541 376.528 416.181 376.112L416.821 377.28C416.005 377.824 414.997 378.208 413.845 378.208ZM411.349 372.816H415.573C415.573 371.296 414.885 370.416 413.605 370.416C412.501 370.416 411.525 371.264 411.349 372.816ZM420.652 378L418.268 369.2H420.124L421.292 373.968C421.468 374.816 421.612 375.632 421.772 376.464H421.836C422.028 375.632 422.204 374.8 422.412 373.968L423.644 369.2H425.356L426.62 373.968C426.828 374.816 427.004 375.632 427.212 376.464H427.276C427.452 375.632 427.596 374.816 427.788 373.968L428.924 369.2H430.652L428.38 378H426.172L425.052 373.648C424.844 372.816 424.684 372.016 424.492 371.104H424.412C424.236 372.016 424.076 372.832 423.852 373.664L422.78 378H420.652ZM434.386 378.208C432.866 378.208 431.794 377.216 431.794 375.664C431.794 373.776 433.394 372.8 437.058 372.4C437.042 371.376 436.674 370.48 435.378 370.48C434.45 370.48 433.586 370.896 432.834 371.376L432.146 370.128C433.058 369.552 434.29 368.976 435.698 368.976C437.89 368.976 438.898 370.368 438.898 372.704V378H437.394L437.234 376.992H437.186C436.386 377.68 435.442 378.208 434.386 378.208ZM434.946 376.752C435.714 376.752 436.338 376.384 437.058 375.728V373.568C434.45 373.888 433.57 374.544 433.57 375.536C433.57 376.4 434.162 376.752 434.946 376.752ZM444.204 378.208C442.22 378.208 441.532 376.976 441.532 375.12V370.672H440.252V369.296L441.612 369.2L441.82 366.768H443.372V369.2H445.66V370.672H443.372V375.136C443.372 376.192 443.74 376.736 444.652 376.736C444.956 376.736 445.34 376.64 445.596 376.528L445.932 377.888C445.436 378.048 444.844 378.208 444.204 378.208ZM450.986 378.208C448.602 378.208 446.698 376.512 446.698 373.616C446.698 370.752 448.65 368.976 450.714 368.976C453.05 368.976 454.298 370.656 454.298 373.152C454.298 373.504 454.266 373.872 454.218 374.08H448.506C448.65 375.76 449.706 376.768 451.226 376.768C452.01 376.768 452.682 376.528 453.322 376.112L453.962 377.28C453.146 377.824 452.138 378.208 450.986 378.208ZM448.49 372.816H452.714C452.714 371.296 452.026 370.416 450.746 370.416C449.642 370.416 448.666 371.264 448.49 372.816ZM456.369 378V369.2H457.873L458.017 370.784H458.065C458.689 369.648 459.617 368.976 460.561 368.976C460.993 368.976 461.281 369.04 461.553 369.168L461.217 370.768C460.913 370.672 460.689 370.624 460.337 370.624C459.617 370.624 458.753 371.12 458.193 372.512V378H456.369ZM469.549 378.208C467.341 378.208 465.917 376.528 465.917 373.616C465.917 370.752 467.725 368.976 469.693 368.976C470.701 368.976 471.341 369.36 472.061 369.968L471.981 368.512V365.248H473.821V378H472.317L472.157 377.008H472.109C471.453 377.68 470.541 378.208 469.549 378.208ZM469.981 376.688C470.717 376.688 471.341 376.352 471.981 375.616V371.312C471.325 370.72 470.701 370.512 470.045 370.512C468.813 370.512 467.821 371.68 467.821 373.584C467.821 375.584 468.605 376.688 469.981 376.688ZM476.587 378V369.2H478.411V378H476.587ZM477.499 367.552C476.827 367.552 476.331 367.104 476.331 366.464C476.331 365.808 476.827 365.376 477.499 365.376C478.171 365.376 478.683 365.808 478.683 366.464C478.683 367.104 478.171 367.552 477.499 367.552ZM483.565 378.208C482.349 378.208 481.101 377.696 480.253 376.992L481.117 375.808C481.901 376.432 482.669 376.816 483.613 376.816C484.669 376.816 485.165 376.304 485.165 375.632C485.165 374.832 484.173 374.48 483.213 374.112C482.045 373.664 480.701 373.04 480.701 371.552C480.701 370.08 481.885 368.976 483.821 368.976C485.005 368.976 485.965 369.456 486.685 370.016L485.821 371.152C485.213 370.704 484.589 370.384 483.853 370.384C482.893 370.384 482.445 370.864 482.445 371.472C482.445 372.224 483.357 372.512 484.317 372.864C485.549 373.328 486.909 373.872 486.909 375.536C486.909 377.008 485.741 378.208 483.565 378.208ZM492.453 378.208C490.069 378.208 488.245 376.528 488.245 373.616C488.245 370.672 490.277 368.976 492.597 368.976C493.717 368.976 494.533 369.424 495.173 369.984L494.261 371.184C493.781 370.752 493.285 370.496 492.677 370.496C491.205 370.496 490.149 371.744 490.149 373.616C490.149 375.472 491.157 376.704 492.629 376.704C493.365 376.704 494.021 376.352 494.549 375.904L495.301 377.12C494.501 377.84 493.461 378.208 492.453 378.208ZM497.134 378V365.248H498.958V368.624L498.894 370.368C499.662 369.632 500.542 368.976 501.742 368.976C503.614 368.976 504.446 370.224 504.446 372.464V378H502.606V372.688C502.606 371.168 502.158 370.56 501.118 370.56C500.302 370.56 499.742 370.976 498.958 371.76V378H497.134ZM509.152 378.208C507.632 378.208 506.56 377.216 506.56 375.664C506.56 373.776 508.16 372.8 511.824 372.4C511.808 371.376 511.44 370.48 510.144 370.48C509.216 370.48 508.352 370.896 507.6 371.376L506.912 370.128C507.824 369.552 509.056 368.976 510.464 368.976C512.656 368.976 513.664 370.368 513.664 372.704V378H512.16L512 376.992H511.952C511.152 377.68 510.208 378.208 509.152 378.208ZM509.712 376.752C510.48 376.752 511.104 376.384 511.824 375.728V373.568C509.216 373.888 508.336 374.544 508.336 375.536C508.336 376.4 508.928 376.752 509.712 376.752ZM516.275 378V369.2H517.779L517.923 370.784H517.971C518.595 369.648 519.523 368.976 520.467 368.976C520.899 368.976 521.187 369.04 521.459 369.168L521.123 370.768C520.819 370.672 520.595 370.624 520.243 370.624C519.523 370.624 518.659 371.12 518.099 372.512V378H516.275ZM525.658 381.952C523.546 381.952 522.01 381.168 522.01 379.632C522.01 378.896 522.474 378.208 523.29 377.712V377.632C522.842 377.36 522.49 376.896 522.49 376.176C522.49 375.488 522.986 374.896 523.466 374.544V374.48C522.874 374.016 522.314 373.184 522.314 372.144C522.314 370.144 523.898 368.976 525.722 368.976C526.218 368.976 526.666 369.072 527.002 369.2H530.122V370.576H528.442C528.778 370.928 529.018 371.52 529.018 372.192C529.018 374.112 527.562 375.216 525.722 375.216C525.322 375.216 524.874 375.12 524.49 374.944C524.202 375.2 524.01 375.456 524.01 375.872C524.01 376.4 524.362 376.736 525.482 376.736H527.098C529.178 376.736 530.266 377.376 530.266 378.88C530.266 380.576 528.474 381.952 525.658 381.952ZM525.722 374.032C526.634 374.032 527.386 373.312 527.386 372.144C527.386 370.96 526.65 370.272 525.722 370.272C524.794 370.272 524.058 370.944 524.058 372.144C524.058 373.312 524.81 374.032 525.722 374.032ZM525.93 380.736C527.466 380.736 528.49 379.984 528.49 379.168C528.49 378.432 527.914 378.208 526.842 378.208H525.514C525.098 378.208 524.698 378.16 524.33 378.08C523.802 378.464 523.578 378.912 523.578 379.36C523.578 380.224 524.474 380.736 525.93 380.736ZM535.298 378.208C532.914 378.208 531.01 376.512 531.01 373.616C531.01 370.752 532.962 368.976 535.026 368.976C537.362 368.976 538.61 370.656 538.61 373.152C538.61 373.504 538.578 373.872 538.53 374.08H532.818C532.962 375.76 534.018 376.768 535.538 376.768C536.322 376.768 536.994 376.528 537.634 376.112L538.274 377.28C537.458 377.824 536.45 378.208 535.298 378.208ZM532.802 372.816H537.026C537.026 371.296 536.338 370.416 535.058 370.416C533.954 370.416 532.978 371.264 532.802 372.816ZM544.275 381.568V369.2H545.779L545.923 370.16H545.971C546.739 369.52 547.699 368.976 548.675 368.976C550.915 368.976 552.163 370.752 552.163 373.456C552.163 376.48 550.355 378.208 548.371 378.208C547.587 378.208 546.803 377.856 546.051 377.216L546.099 378.72V381.568H544.275ZM548.019 376.688C549.299 376.688 550.259 375.552 550.259 373.488C550.259 371.648 549.667 370.512 548.195 370.512C547.507 370.512 546.851 370.864 546.099 371.584V375.888C546.787 376.48 547.475 376.688 548.019 376.688ZM558.017 378.208C555.633 378.208 553.729 376.512 553.729 373.616C553.729 370.752 555.681 368.976 557.745 368.976C560.081 368.976 561.329 370.656 561.329 373.152C561.329 373.504 561.297 373.872 561.249 374.08H555.537C555.681 375.76 556.737 376.768 558.257 376.768C559.041 376.768 559.713 376.528 560.353 376.112L560.993 377.28C560.177 377.824 559.169 378.208 558.017 378.208ZM555.521 372.816H559.745C559.745 371.296 559.057 370.416 557.777 370.416C556.673 370.416 555.697 371.264 555.521 372.816ZM563.4 378V369.2H564.904L565.048 370.784H565.096C565.72 369.648 566.648 368.976 567.592 368.976C568.024 368.976 568.312 369.04 568.584 369.168L568.248 370.768C567.944 370.672 567.72 370.624 567.368 370.624C566.648 370.624 565.784 371.12 565.224 372.512V378H563.4ZM576.116 378.208C574.244 378.208 573.428 376.976 573.428 374.736V369.2H575.268V374.512C575.268 376.032 575.7 376.624 576.74 376.624C577.556 376.624 578.116 376.24 578.852 375.312V369.2H580.692V378H579.188L579.044 376.672H578.996C578.196 377.6 577.332 378.208 576.116 378.208ZM583.462 378V369.2H584.966L585.11 370.416H585.158C585.974 369.632 586.87 368.976 588.07 368.976C589.942 368.976 590.774 370.224 590.774 372.464V378H588.934V372.688C588.934 371.168 588.486 370.56 587.446 370.56C586.63 370.56 586.07 370.976 585.286 371.76V378H583.462ZM593.447 378V369.2H595.271V378H593.447ZM594.359 367.552C593.687 367.552 593.191 367.104 593.191 366.464C593.191 365.808 593.687 365.376 594.359 365.376C595.031 365.376 595.543 365.808 595.543 366.464C595.543 367.104 595.031 367.552 594.359 367.552ZM601 378.208C599.016 378.208 598.328 376.976 598.328 375.12V370.672H597.048V369.296L598.408 369.2L598.616 366.768H600.168V369.2H602.456V370.672H600.168V375.136C600.168 376.192 600.536 376.736 601.448 376.736C601.752 376.736 602.136 376.64 602.392 376.528L602.728 377.888C602.232 378.048 601.64 378.208 601 378.208ZM611.498 378.208C609.322 378.208 607.354 376.528 607.354 373.616C607.354 370.672 609.322 368.976 611.498 368.976C613.674 368.976 615.642 370.672 615.642 373.616C615.642 376.528 613.674 378.208 611.498 378.208ZM611.498 376.704C612.89 376.704 613.754 375.472 613.754 373.616C613.754 371.744 612.89 370.496 611.498 370.496C610.122 370.496 609.258 371.744 609.258 373.616C609.258 375.472 610.122 376.704 611.498 376.704ZM622.399 365.344L622.031 366.72C621.711 366.576 621.375 366.496 621.071 366.496C620.287 366.496 619.903 367.008 619.903 368.08V369.2H621.679V370.672H619.903V378H618.063V370.672H616.863V369.296L618.063 369.2V368.096C618.063 366.288 618.879 365.04 620.847 365.04C621.439 365.04 621.999 365.168 622.399 365.344ZM626.869 381.568V369.2H628.373L628.517 370.16H628.565C629.333 369.52 630.293 368.976 631.269 368.976C633.509 368.976 634.757 370.752 634.757 373.456C634.757 376.48 632.949 378.208 630.965 378.208C630.181 378.208 629.397 377.856 628.645 377.216L628.693 378.72V381.568H626.869ZM630.613 376.688C631.893 376.688 632.853 375.552 632.853 373.488C632.853 371.648 632.261 370.512 630.789 370.512C630.101 370.512 629.445 370.864 628.693 371.584V375.888C629.381 376.48 630.069 376.688 630.613 376.688ZM636.947 378V369.2H638.451L638.595 370.784H638.643C639.267 369.648 640.195 368.976 641.139 368.976C641.571 368.976 641.859 369.04 642.131 369.168L641.795 370.768C641.491 370.672 641.267 370.624 640.915 370.624C640.195 370.624 639.331 371.12 638.771 372.512V378H636.947ZM646.842 378.208C644.666 378.208 642.698 376.528 642.698 373.616C642.698 370.672 644.666 368.976 646.842 368.976C649.018 368.976 650.986 370.672 650.986 373.616C650.986 376.528 649.018 378.208 646.842 378.208ZM646.842 376.704C648.234 376.704 649.098 375.472 649.098 373.616C649.098 371.744 648.234 370.496 646.842 370.496C645.466 370.496 644.602 371.744 644.602 373.616C644.602 375.472 645.466 376.704 646.842 376.704ZM656.19 378.208C653.982 378.208 652.558 376.528 652.558 373.616C652.558 370.752 654.366 368.976 656.334 368.976C657.342 368.976 657.982 369.36 658.702 369.968L658.622 368.512V365.248H660.462V378H658.958L658.798 377.008H658.75C658.094 377.68 657.182 378.208 656.19 378.208ZM656.622 376.688C657.358 376.688 657.982 376.352 658.622 375.616V371.312C657.966 370.72 657.342 370.512 656.686 370.512C655.454 370.512 654.462 371.68 654.462 373.584C654.462 375.584 655.246 376.688 656.622 376.688ZM665.804 378.208C663.932 378.208 663.116 376.976 663.116 374.736V369.2H664.956V374.512C664.956 376.032 665.388 376.624 666.428 376.624C667.244 376.624 667.804 376.24 668.54 375.312V369.2H670.38V378H668.876L668.732 376.672H668.684C667.884 377.6 667.02 378.208 665.804 378.208ZM676.734 378.208C674.35 378.208 672.526 376.528 672.526 373.616C672.526 370.672 674.558 368.976 676.878 368.976C677.998 368.976 678.814 369.424 679.454 369.984L678.542 371.184C678.062 370.752 677.566 370.496 676.958 370.496C675.486 370.496 674.43 371.744 674.43 373.616C674.43 375.472 675.438 376.704 676.91 376.704C677.646 376.704 678.302 376.352 678.83 375.904L679.582 377.12C678.782 377.84 677.742 378.208 676.734 378.208ZM684.204 378.208C682.22 378.208 681.532 376.976 681.532 375.12V370.672H680.252V369.296L681.612 369.2L681.82 366.768H683.372V369.2H685.66V370.672H683.372V375.136C683.372 376.192 683.74 376.736 684.652 376.736C684.956 376.736 685.34 376.64 685.596 376.528L685.932 377.888C685.436 378.048 684.844 378.208 684.204 378.208ZM687.587 378V369.2H689.411V378H687.587ZM688.499 367.552C687.827 367.552 687.331 367.104 687.331 366.464C687.331 365.808 687.827 365.376 688.499 365.376C689.171 365.376 689.683 365.808 689.683 366.464C689.683 367.104 689.171 367.552 688.499 367.552ZM695.701 378.208C693.525 378.208 691.557 376.528 691.557 373.616C691.557 370.672 693.525 368.976 695.701 368.976C697.877 368.976 699.845 370.672 699.845 373.616C699.845 376.528 697.877 378.208 695.701 378.208ZM695.701 376.704C697.093 376.704 697.957 375.472 697.957 373.616C697.957 371.744 697.093 370.496 695.701 370.496C694.325 370.496 693.461 371.744 693.461 373.616C693.461 375.472 694.325 376.704 695.701 376.704ZM702.009 378V369.2H703.513L703.657 370.416H703.705C704.521 369.632 705.417 368.976 706.617 368.976C708.489 368.976 709.321 370.224 709.321 372.464V378H707.481V372.688C707.481 371.168 707.033 370.56 705.993 370.56C705.177 370.56 704.617 370.976 703.833 371.76V378H702.009ZM719.171 378.208C716.787 378.208 714.963 376.528 714.963 373.616C714.963 370.672 716.995 368.976 719.315 368.976C720.435 368.976 721.251 369.424 721.891 369.984L720.979 371.184C720.499 370.752 720.003 370.496 719.395 370.496C717.923 370.496 716.867 371.744 716.867 373.616C716.867 375.472 717.875 376.704 719.347 376.704C720.083 376.704 720.739 376.352 721.267 375.904L722.019 377.12C721.219 377.84 720.179 378.208 719.171 378.208ZM725.761 378.208C724.241 378.208 723.169 377.216 723.169 375.664C723.169 373.776 724.769 372.8 728.433 372.4C728.417 371.376 728.049 370.48 726.753 370.48C725.825 370.48 724.961 370.896 724.209 371.376L723.521 370.128C724.433 369.552 725.665 368.976 727.073 368.976C729.265 368.976 730.273 370.368 730.273 372.704V378H728.769L728.609 376.992H728.561C727.761 377.68 726.817 378.208 725.761 378.208ZM726.321 376.752C727.089 376.752 727.713 376.384 728.433 375.728V373.568C725.825 373.888 724.945 374.544 724.945 375.536C724.945 376.4 725.537 376.752 726.321 376.752ZM732.884 381.568V369.2H734.388L734.532 370.16H734.58C735.348 369.52 736.308 368.976 737.284 368.976C739.524 368.976 740.772 370.752 740.772 373.456C740.772 376.48 738.964 378.208 736.98 378.208C736.196 378.208 735.412 377.856 734.66 377.216L734.708 378.72V381.568H732.884ZM736.628 376.688C737.908 376.688 738.868 375.552 738.868 373.488C738.868 371.648 738.276 370.512 736.804 370.512C736.116 370.512 735.46 370.864 734.708 371.584V375.888C735.396 376.48 736.084 376.688 736.628 376.688ZM744.808 378.208C743.288 378.208 742.216 377.216 742.216 375.664C742.216 373.776 743.816 372.8 747.48 372.4C747.464 371.376 747.096 370.48 745.8 370.48C744.872 370.48 744.008 370.896 743.256 371.376L742.568 370.128C743.48 369.552 744.712 368.976 746.12 368.976C748.312 368.976 749.32 370.368 749.32 372.704V378H747.816L747.656 376.992H747.608C746.808 377.68 745.864 378.208 744.808 378.208ZM745.368 376.752C746.136 376.752 746.76 376.384 747.48 375.728V373.568C744.872 373.888 743.992 374.544 743.992 375.536C743.992 376.4 744.584 376.752 745.368 376.752ZM755.515 378.208C753.131 378.208 751.307 376.528 751.307 373.616C751.307 370.672 753.339 368.976 755.659 368.976C756.779 368.976 757.595 369.424 758.235 369.984L757.323 371.184C756.843 370.752 756.347 370.496 755.739 370.496C754.267 370.496 753.211 371.744 753.211 373.616C753.211 375.472 754.219 376.704 755.691 376.704C756.427 376.704 757.083 376.352 757.611 375.904L758.363 377.12C757.563 377.84 756.523 378.208 755.515 378.208ZM760.197 378V369.2H762.021V378H760.197ZM761.109 367.552C760.437 367.552 759.941 367.104 759.941 366.464C759.941 365.808 760.437 365.376 761.109 365.376C761.781 365.376 762.293 365.808 762.293 366.464C762.293 367.104 761.781 367.552 761.109 367.552ZM767.75 378.208C765.766 378.208 765.078 376.976 765.078 375.12V370.672H763.798V369.296L765.158 369.2L765.366 366.768H766.918V369.2H769.206V370.672H766.918V375.136C766.918 376.192 767.286 376.736 768.198 376.736C768.502 376.736 768.886 376.64 769.142 376.528L769.478 377.888C768.982 378.048 768.39 378.208 767.75 378.208ZM778.238 369.2L775.006 378.528C774.318 380.416 773.39 381.68 771.534 381.68C771.086 381.68 770.734 381.616 770.43 381.504L770.782 380.064C770.942 380.112 771.198 380.192 771.422 380.192C772.382 380.192 772.942 379.488 773.262 378.544L773.438 377.936L769.95 369.2H771.838L773.47 373.728C773.726 374.512 773.998 375.392 774.27 376.208H774.35L775.038 373.728L776.446 369.2H778.238ZM785.831 381.184C784.343 378.752 783.463 376.176 783.463 372.992C783.463 369.84 784.343 367.232 785.831 364.816L786.983 365.312C785.607 367.616 784.967 370.32 784.967 372.992C784.967 375.68 785.607 378.384 786.983 380.672L785.831 381.184ZM789.119 378V365.248H790.911V373.472H790.959L794.415 369.2H796.447L793.455 372.768L796.783 378H794.783L792.399 374.016L790.911 375.728V378H789.119ZM800.146 378.208C798.818 378.208 798.322 377.36 798.322 375.936V365.248H800.146V376.032C800.146 376.528 800.37 376.704 800.594 376.704C800.674 376.704 800.738 376.704 800.898 376.672L801.138 378.064C800.914 378.144 800.594 378.208 800.146 378.208ZM801.887 380.88L806.335 365.232H807.615L803.167 380.88H801.887ZM809.322 378V365.248H811.114V373.472H811.162L814.618 369.2H816.65L813.658 372.768L816.986 378H814.986L812.602 374.016L811.114 375.728V378H809.322ZM818.525 381.568V369.2H820.029L820.173 370.16H820.221C820.989 369.52 821.949 368.976 822.925 368.976C825.165 368.976 826.413 370.752 826.413 373.456C826.413 376.48 824.605 378.208 822.621 378.208C821.837 378.208 821.053 377.856 820.301 377.216L820.349 378.72V381.568H818.525ZM822.269 376.688C823.549 376.688 824.509 375.552 824.509 373.488C824.509 371.648 823.917 370.512 822.445 370.512C821.757 370.512 821.101 370.864 820.349 371.584V375.888C821.037 376.48 821.725 376.688 822.269 376.688ZM832.187 378.208C829.803 378.208 827.979 376.528 827.979 373.616C827.979 370.672 830.011 368.976 832.331 368.976C833.451 368.976 834.267 369.424 834.907 369.984L833.995 371.184C833.515 370.752 833.019 370.496 832.411 370.496C830.939 370.496 829.883 371.744 829.883 373.616C829.883 375.472 830.891 376.704 832.363 376.704C833.099 376.704 833.755 376.352 834.283 375.904L835.035 377.12C834.235 377.84 833.195 378.208 832.187 378.208ZM839.253 378.208C838.037 378.208 836.789 377.696 835.941 376.992L836.805 375.808C837.589 376.432 838.357 376.816 839.301 376.816C840.357 376.816 840.853 376.304 840.853 375.632C840.853 374.832 839.861 374.48 838.901 374.112C837.733 373.664 836.389 373.04 836.389 371.552C836.389 370.08 837.573 368.976 839.509 368.976C840.693 368.976 841.653 369.456 842.373 370.016L841.509 371.152C840.901 370.704 840.277 370.384 839.541 370.384C838.581 370.384 838.133 370.864 838.133 371.472C838.133 372.224 839.045 372.512 840.005 372.864C841.237 373.328 842.597 373.872 842.597 375.536C842.597 377.008 841.429 378.208 839.253 378.208ZM845.052 381.184L843.9 380.672C845.276 378.384 845.916 375.68 845.916 372.992C845.916 370.32 845.276 367.616 843.9 365.312L845.052 364.816C846.556 367.232 847.436 369.84 847.436 372.992C847.436 376.176 846.556 378.752 845.052 381.184Z" fill="#4F4F4F"/>
<mask id="mask7_338_40736" style="mask-type:luminance" maskUnits="userSpaceOnUse" x="353" y="366" width="11" height="10">
<path d="M363.5 366H353.5V376H363.5V366Z" fill="white"/>
</mask>
<g mask="url(#mask7_338_40736)">
<path d="M363.406 371.094L358.406 366.094L353.406 371.094L358.406 376.094L363.406 371.094Z" fill="url(#paint5_linear_338_40736)"/>
</g>
<mask id="mask8_338_40736" style="mask-type:luminance" maskUnits="userSpaceOnUse" x="213" y="102" width="10" height="10">
<path d="M223 102H213V112H223V102Z" fill="white"/>
</mask>
<g mask="url(#mask8_338_40736)">
<path d="M222.906 107.094L217.906 102.094L212.906 107.094L217.906 112.094L222.906 107.094Z" fill="url(#paint6_linear_338_40736)"/>
</g>
<path d="M218 222.5L358.5 216L498.5 220.5L635.5 211.5" stroke="#F38733" stroke-width="2"/>
<mask id="mask9_338_40736" style="mask-type:luminance" maskUnits="userSpaceOnUse" x="213" y="217" width="10" height="10">
<path d="M223 217H213V227H223V217Z" fill="white"/>
</mask>
<g mask="url(#mask9_338_40736)">
<path d="M222.906 222.094L217.906 217.094L212.906 222.094L217.906 227.094L222.906 222.094Z" fill="url(#paint7_linear_338_40736)"/>
</g>
<mask id="mask10_338_40736" style="mask-type:luminance" maskUnits="userSpaceOnUse" x="353" y="211" width="10" height="10">
<path d="M363 211H353V221H363V211Z" fill="white"/>
</mask>
<g mask="url(#mask10_338_40736)">
<path d="M362.908 216.094L357.908 211.094L352.908 216.094L357.908 221.094L362.908 216.094Z" fill="url(#paint8_linear_338_40736)"/>
</g>
<mask id="mask11_338_40736" style="mask-type:luminance" maskUnits="userSpaceOnUse" x="493" y="215" width="10" height="10">
<path d="M503 215H493V225H503V215Z" fill="white"/>
</mask>
<g mask="url(#mask11_338_40736)">
<path d="M502.908 220.094L497.908 215.094L492.908 220.094L497.908 225.094L502.908 220.094Z" fill="url(#paint9_linear_338_40736)"/>
</g>
<mask id="mask12_338_40736" style="mask-type:luminance" maskUnits="userSpaceOnUse" x="630" y="206" width="10" height="10">
<path d="M640 206H630V216H640V206Z" fill="white"/>
</mask>
<g mask="url(#mask12_338_40736)">
<path d="M640 211L635 206L630 211L635 216L640 211Z" fill="url(#paint10_linear_338_40736)"/>
</g>
<mask id="mask13_338_40736" style="mask-type:luminance" maskUnits="userSpaceOnUse" x="630" y="94" width="10" height="10">
<path d="M640 94H630V104H640V94Z" fill="white"/>
</mask>
<g mask="url(#mask13_338_40736)">
<path d="M639.904 99.0938L634.904 94.0938L629.904 99.0938L634.904 104.094L639.904 99.0938Z" fill="url(#paint11_linear_338_40736)"/>
</g>
<path d="M237.476 24L234.476 9.26H236.856L238.236 16.94C238.496 18.5 238.756 20.08 239.016 21.66H239.096C239.416 20.08 239.756 18.5 240.096 16.94L241.996 9.26H244.056L245.956 16.94C246.296 18.48 246.616 20.06 246.956 21.66H247.056C247.296 20.06 247.556 18.48 247.796 16.94L249.196 9.26H251.416L248.516 24H245.656L243.676 15.82C243.416 14.66 243.196 13.56 242.996 12.44H242.916C242.696 13.56 242.456 14.66 242.216 15.82L240.276 24H237.476ZM255.895 24.26C253.995 24.26 252.655 23.02 252.655 21.08C252.655 18.72 254.655 17.5 259.235 17C259.215 15.72 258.755 14.6 257.135 14.6C255.975 14.6 254.895 15.12 253.955 15.72L253.095 14.16C254.235 13.44 255.775 12.72 257.535 12.72C260.275 12.72 261.535 14.46 261.535 17.38V24H259.655L259.475 22.74H259.395C258.395 23.6 257.215 24.26 255.895 24.26ZM256.595 22.44C257.555 22.44 258.335 21.98 259.235 21.16V18.46C255.975 18.84 254.875 19.68 254.875 20.92C254.875 22 255.615 22.44 256.595 22.44ZM267.779 24.26C266.259 24.26 264.719 23.62 263.639 22.74L264.719 21.26C265.699 22.02 266.659 22.52 267.839 22.52C269.159 22.52 269.779 21.88 269.779 21.04C269.779 20.04 268.539 19.6 267.359 19.14C265.879 18.58 264.259 17.8 264.259 15.94C264.259 14.1 265.739 12.72 268.179 12.72C269.639 12.72 270.859 13.32 271.739 14.02L270.659 15.44C269.899 14.88 269.119 14.48 268.219 14.48C266.999 14.48 266.439 15.08 266.439 15.84C266.439 16.78 267.519 17.14 268.719 17.58C270.259 18.16 271.959 18.84 271.959 20.92C271.959 22.76 270.499 24.26 267.779 24.26ZM277.659 24.26C275.179 24.26 274.319 22.72 274.319 20.4V14.84H272.719V13.12L274.439 13L274.699 9.96H276.619V13H279.479V14.84H276.619V20.42C276.619 21.74 277.079 22.42 278.219 22.42C278.599 22.42 279.079 22.3 279.399 22.16L279.819 23.86C279.199 24.06 278.459 24.26 277.659 24.26ZM286.136 24.26C283.156 24.26 280.776 22.14 280.776 18.5C280.776 14.94 283.236 12.72 285.796 12.72C288.716 12.72 290.296 14.82 290.296 17.92C290.296 18.38 290.236 18.82 290.176 19.1H283.036C283.216 21.2 284.536 22.46 286.436 22.46C287.416 22.46 288.256 22.16 289.056 21.64L289.856 23.1C288.836 23.78 287.576 24.26 286.136 24.26ZM283.016 17.5H288.296C288.296 15.62 287.436 14.52 285.836 14.52C284.456 14.52 283.236 15.58 283.016 17.5ZM294.645 24L291.665 13H293.985L295.445 18.94C295.665 20.02 295.845 21.02 296.045 22.08H296.125C296.365 21.02 296.585 20 296.845 18.94L298.405 13H300.525L302.105 18.94C302.365 20.02 302.585 21.02 302.845 22.08H302.925C303.145 21.02 303.325 20.02 303.565 18.94L304.985 13H307.145L304.305 24H301.545L300.145 18.56C299.885 17.52 299.685 16.52 299.445 15.38H299.345C299.125 16.52 298.925 17.54 298.645 18.58L297.305 24H294.645ZM311.813 24.26C309.913 24.26 308.573 23.02 308.573 21.08C308.573 18.72 310.573 17.5 315.153 17C315.133 15.72 314.673 14.6 313.053 14.6C311.893 14.6 310.813 15.12 309.873 15.72L309.013 14.16C310.153 13.44 311.693 12.72 313.453 12.72C316.193 12.72 317.453 14.46 317.453 17.38V24H315.573L315.393 22.74H315.313C314.313 23.6 313.133 24.26 311.813 24.26ZM312.513 22.44C313.473 22.44 314.253 21.98 315.153 21.16V18.46C311.893 18.84 310.793 19.68 310.793 20.92C310.793 22 311.533 22.44 312.513 22.44ZM324.085 24.26C321.605 24.26 320.745 22.72 320.745 20.4V14.84H319.145V13.12L320.865 13L321.125 9.96H323.045V13H325.905V14.84H323.045V20.42C323.045 21.74 323.505 22.42 324.645 22.42C325.025 22.42 325.505 22.3 325.825 22.16L326.245 23.86C325.625 24.06 324.885 24.26 324.085 24.26ZM332.562 24.26C329.582 24.26 327.202 22.14 327.202 18.5C327.202 14.94 329.662 12.72 332.222 12.72C335.142 12.72 336.722 14.82 336.722 17.92C336.722 18.38 336.662 18.82 336.602 19.1H329.462C329.642 21.2 330.962 22.46 332.862 22.46C333.842 22.46 334.682 22.16 335.482 21.64L336.282 23.1C335.262 23.78 334.002 24.26 332.562 24.26ZM329.442 17.5H334.722C334.722 15.62 333.862 14.52 332.262 14.52C330.882 14.52 329.662 15.58 329.442 17.5ZM339.291 24V13H341.171L341.351 14.98H341.411C342.191 13.56 343.351 12.72 344.531 12.72C345.071 12.72 345.431 12.8 345.771 12.96L345.351 14.96C344.971 14.84 344.691 14.78 344.251 14.78C343.351 14.78 342.271 15.4 341.591 17.14V24H339.291ZM352.167 24V9.26H355.987C360.507 9.26 363.087 11.78 363.087 16.58C363.087 21.36 360.507 24 356.107 24H352.167ZM354.487 22.1H355.827C358.987 22.1 360.687 20.24 360.687 16.58C360.687 12.9 358.987 11.16 355.827 11.16H354.487V22.1ZM365.951 24V13H368.251V24H365.951ZM367.091 10.94C366.251 10.94 365.671 10.4 365.671 9.56C365.671 8.74 366.251 8.2 367.091 8.2C367.931 8.2 368.531 8.74 368.531 9.56C368.531 10.4 367.931 10.94 367.091 10.94ZM374.673 24.26C373.153 24.26 371.613 23.62 370.533 22.74L371.613 21.26C372.593 22.02 373.553 22.52 374.733 22.52C376.053 22.52 376.673 21.88 376.673 21.04C376.673 20.04 375.433 19.6 374.253 19.14C372.773 18.58 371.153 17.8 371.153 15.94C371.153 14.1 372.633 12.72 375.073 12.72C376.533 12.72 377.753 13.32 378.633 14.02L377.553 15.44C376.793 14.88 376.013 14.48 375.113 14.48C373.893 14.48 373.333 15.08 373.333 15.84C373.333 16.78 374.413 17.14 375.613 17.58C377.153 18.16 378.853 18.84 378.853 20.92C378.853 22.76 377.393 24.26 374.673 24.26ZM385.783 24.26C382.803 24.26 380.523 22.16 380.523 18.5C380.523 14.84 383.063 12.72 385.963 12.72C387.363 12.72 388.383 13.28 389.183 13.98L388.043 15.48C387.443 14.94 386.823 14.62 386.083 14.62C384.223 14.62 382.903 16.18 382.903 18.5C382.903 20.84 384.183 22.38 386.003 22.38C386.923 22.38 387.743 21.94 388.403 21.38L389.363 22.9C388.343 23.8 387.043 24.26 385.783 24.26ZM391.635 24V8.06H393.935V12.28L393.835 14.46C394.795 13.54 395.895 12.72 397.395 12.72C399.735 12.72 400.775 14.28 400.775 17.08V24H398.475V17.36C398.475 15.46 397.915 14.7 396.615 14.7C395.595 14.7 394.895 15.22 393.935 16.2V24H391.635ZM406.656 24.26C404.756 24.26 403.416 23.02 403.416 21.08C403.416 18.72 405.416 17.5 409.996 17C409.976 15.72 409.516 14.6 407.896 14.6C406.736 14.6 405.656 15.12 404.716 15.72L403.856 14.16C404.996 13.44 406.536 12.72 408.296 12.72C411.036 12.72 412.296 14.46 412.296 17.38V24H410.416L410.236 22.74H410.156C409.156 23.6 407.976 24.26 406.656 24.26ZM407.356 22.44C408.316 22.44 409.096 21.98 409.996 21.16V18.46C406.736 18.84 405.636 19.68 405.636 20.92C405.636 22 406.376 22.44 407.356 22.44ZM415.56 24V13H417.44L417.62 14.98H417.68C418.46 13.56 419.62 12.72 420.8 12.72C421.34 12.72 421.7 12.8 422.04 12.96L421.62 14.96C421.24 14.84 420.96 14.78 420.52 14.78C419.62 14.78 418.54 15.4 417.86 17.14V24H415.56ZM427.289 28.94C424.649 28.94 422.729 27.96 422.729 26.04C422.729 25.12 423.309 24.26 424.329 23.64V23.54C423.769 23.2 423.329 22.62 423.329 21.72C423.329 20.86 423.949 20.12 424.569 19.68V19.6C423.809 19.02 423.109 17.98 423.109 16.66C423.109 14.18 425.089 12.72 427.369 12.72C427.989 12.72 428.549 12.84 428.969 13H432.869V14.72H430.769C431.189 15.16 431.489 15.9 431.489 16.74C431.489 19.14 429.669 20.52 427.369 20.52C426.869 20.52 426.309 20.4 425.829 20.18C425.469 20.5 425.229 20.8 425.229 21.34C425.229 22 425.669 22.42 427.069 22.42H429.089C431.689 22.42 433.049 23.22 433.049 25.1C433.049 27.22 430.809 28.94 427.289 28.94ZM427.369 19.04C428.509 19.04 429.449 18.14 429.449 16.66C429.449 15.2 428.529 14.34 427.369 14.34C426.209 14.34 425.289 15.18 425.289 16.66C425.289 18.14 426.229 19.04 427.369 19.04ZM427.629 27.42C429.549 27.42 430.829 26.48 430.829 25.46C430.829 24.54 430.109 24.26 428.769 24.26H427.109C426.589 24.26 426.089 24.2 425.629 24.1C424.969 24.58 424.689 25.14 424.689 25.7C424.689 26.78 425.809 27.42 427.629 27.42ZM439.34 24.26C436.36 24.26 433.98 22.14 433.98 18.5C433.98 14.94 436.44 12.72 439 12.72C441.92 12.72 443.5 14.82 443.5 17.92C443.5 18.38 443.44 18.82 443.38 19.1H436.24C436.42 21.2 437.74 22.46 439.64 22.46C440.62 22.46 441.46 22.16 442.26 21.64L443.06 23.1C442.04 23.78 440.78 24.26 439.34 24.26ZM436.22 17.5H441.5C441.5 15.62 440.64 14.52 439.04 14.52C437.66 14.52 436.44 15.58 436.22 17.5ZM453.76 24V11.22H449.44V9.26H460.42V11.22H456.08V24H453.76ZM461.752 24V13H463.632L463.812 14.98H463.872C464.652 13.56 465.812 12.72 466.992 12.72C467.532 12.72 467.892 12.8 468.232 12.96L467.812 14.96C467.432 14.84 467.152 14.78 466.712 14.78C465.812 14.78 464.732 15.4 464.052 17.14V24H461.752ZM474.3 24.26C471.32 24.26 468.94 22.14 468.94 18.5C468.94 14.94 471.4 12.72 473.96 12.72C476.88 12.72 478.46 14.82 478.46 17.92C478.46 18.38 478.4 18.82 478.34 19.1H471.2C471.38 21.2 472.7 22.46 474.6 22.46C475.58 22.46 476.42 22.16 477.22 21.64L478.02 23.1C477 23.78 475.74 24.26 474.3 24.26ZM471.18 17.5H476.46C476.46 15.62 475.6 14.52 474 14.52C472.62 14.52 471.4 15.58 471.18 17.5ZM481.029 24V13H482.909L483.089 14.52H483.149C484.169 13.54 485.289 12.72 486.789 12.72C489.129 12.72 490.169 14.28 490.169 17.08V24H487.869V17.36C487.869 15.46 487.309 14.7 486.009 14.7C484.989 14.7 484.289 15.22 483.329 16.2V24H481.029ZM497.31 24.26C494.55 24.26 492.77 22.16 492.77 18.5C492.77 14.94 495.03 12.72 497.49 12.72C498.75 12.72 499.55 13.2 500.45 13.96L500.35 12.14V8.06H502.65V24H500.77L500.59 22.76H500.51C499.69 23.6 498.55 24.26 497.31 24.26ZM497.85 22.36C498.77 22.36 499.55 21.94 500.35 21.02V15.64C499.53 14.9 498.75 14.64 497.93 14.64C496.39 14.64 495.15 16.1 495.15 18.48C495.15 20.98 496.13 22.36 497.85 22.36ZM509.107 27.98C507.247 24.94 506.147 21.72 506.147 17.74C506.147 13.8 507.247 10.54 509.107 7.52L510.547 8.14C508.827 11.02 508.027 14.4 508.027 17.74C508.027 21.1 508.827 24.48 510.547 27.34L509.107 27.98ZM512.357 24V22.66C516.457 18.64 518.937 16.08 518.937 13.84C518.937 12.28 518.097 11.24 516.437 11.24C515.277 11.24 514.317 11.98 513.537 12.88L512.237 11.6C513.497 10.24 514.797 9.4 516.717 9.4C519.417 9.4 521.157 11.12 521.157 13.72C521.157 16.34 518.777 18.98 515.717 22.18C516.457 22.1 517.397 22.04 518.117 22.04H521.857V24H512.357ZM528.583 24.26C525.663 24.26 523.823 21.6 523.823 16.78C523.823 11.96 525.663 9.4 528.583 9.4C531.523 9.4 533.343 11.98 533.343 16.78C533.343 21.6 531.523 24.26 528.583 24.26ZM528.583 22.44C530.083 22.44 531.143 20.9 531.143 16.78C531.143 12.66 530.083 11.22 528.583 11.22C527.083 11.22 526.023 12.66 526.023 16.78C526.023 20.9 527.083 22.44 528.583 22.44ZM535.169 24V22.66C539.269 18.64 541.749 16.08 541.749 13.84C541.749 12.28 540.909 11.24 539.249 11.24C538.089 11.24 537.129 11.98 536.349 12.88L535.049 11.6C536.309 10.24 537.609 9.4 539.529 9.4C542.229 9.4 543.969 11.12 543.969 13.72C543.969 16.34 541.589 18.98 538.529 22.18C539.269 22.1 540.209 22.04 540.929 22.04H544.669V24H535.169ZM547.415 24V22.1H550.635V12.26H547.995V10.8C549.375 10.56 550.355 10.2 551.195 9.68H552.935V22.1H555.815V24H547.415ZM558.042 19.2V17.5H563.322V19.2H558.042ZM565.13 24V22.66C569.23 18.64 571.71 16.08 571.71 13.84C571.71 12.28 570.87 11.24 569.21 11.24C568.05 11.24 567.09 11.98 566.31 12.88L565.01 11.6C566.27 10.24 567.57 9.4 569.49 9.4C572.19 9.4 573.93 11.12 573.93 13.72C573.93 16.34 571.55 18.98 568.49 22.18C569.23 22.1 570.17 22.04 570.89 22.04H574.63V24H565.13ZM581.356 24.26C578.436 24.26 576.596 21.6 576.596 16.78C576.596 11.96 578.436 9.4 581.356 9.4C584.296 9.4 586.116 11.98 586.116 16.78C586.116 21.6 584.296 24.26 581.356 24.26ZM581.356 22.44C582.856 22.44 583.916 20.9 583.916 16.78C583.916 12.66 582.856 11.22 581.356 11.22C579.856 11.22 578.796 12.66 578.796 16.78C578.796 20.9 579.856 22.44 581.356 22.44ZM587.943 24V22.66C592.043 18.64 594.523 16.08 594.523 13.84C594.523 12.28 593.683 11.24 592.023 11.24C590.863 11.24 589.903 11.98 589.123 12.88L587.823 11.6C589.083 10.24 590.383 9.4 592.303 9.4C595.003 9.4 596.743 11.12 596.743 13.72C596.743 16.34 594.363 18.98 591.303 22.18C592.043 22.1 592.983 22.04 593.703 22.04H597.443V24H587.943ZM601.189 18.42H605.249V14.8C605.249 14 605.309 12.72 605.349 11.92H605.269C604.909 12.64 604.509 13.32 604.089 14.06L601.189 18.42ZM605.249 24V20.2H598.869V18.66L604.729 9.68H607.409V18.42H609.269V20.2H607.409V24H605.249ZM612.235 27.98L610.795 27.34C612.515 24.48 613.315 21.1 613.315 17.74C613.315 14.4 612.515 11.02 610.795 8.14L612.235 7.52C614.115 10.54 615.215 13.8 615.215 17.74C615.215 21.72 614.115 24.94 612.235 27.98Z" fill="black"/>
<path d="M619.704 194V192.928C620.867 191.893 621.837 190.949 622.616 190.096C623.395 189.232 623.976 188.432 624.36 187.696C624.755 186.96 624.952 186.272 624.952 185.632C624.952 185.205 624.877 184.832 624.728 184.512C624.589 184.181 624.371 183.931 624.072 183.76C623.784 183.579 623.416 183.488 622.968 183.488C622.509 183.488 622.088 183.616 621.704 183.872C621.32 184.117 620.968 184.421 620.648 184.784L619.608 183.76C620.109 183.205 620.637 182.773 621.192 182.464C621.757 182.155 622.429 182 623.208 182C623.923 182 624.547 182.149 625.08 182.448C625.613 182.736 626.024 183.147 626.312 183.68C626.611 184.203 626.76 184.821 626.76 185.536C626.76 186.293 626.573 187.061 626.2 187.84C625.827 188.608 625.315 189.387 624.664 190.176C624.013 190.955 623.272 191.744 622.44 192.544C622.749 192.512 623.075 192.485 623.416 192.464C623.768 192.432 624.083 192.416 624.36 192.416H627.32V194H619.704ZM630.509 194.224C630.168 194.224 629.874 194.101 629.629 193.856C629.394 193.6 629.277 193.285 629.277 192.912C629.277 192.528 629.394 192.219 629.629 191.984C629.874 191.739 630.168 191.616 630.509 191.616C630.861 191.616 631.154 191.739 631.389 191.984C631.634 192.219 631.757 192.528 631.757 192.912C631.757 193.285 631.634 193.6 631.389 193.856C631.154 194.101 630.861 194.224 630.509 194.224ZM636.795 194.224C636.112 194.224 635.52 194.101 635.019 193.856C634.528 193.6 634.112 193.301 633.771 192.96L634.779 191.808C635.013 192.075 635.301 192.288 635.643 192.448C635.984 192.608 636.336 192.688 636.699 192.688C637.072 192.688 637.424 192.603 637.755 192.432C638.096 192.261 638.389 191.984 638.635 191.6C638.891 191.216 639.088 190.704 639.227 190.064C639.376 189.424 639.451 188.64 639.451 187.712C639.451 186.731 639.355 185.925 639.163 185.296C638.971 184.656 638.699 184.187 638.347 183.888C638.005 183.579 637.595 183.424 637.115 183.424C636.773 183.424 636.464 183.525 636.187 183.728C635.909 183.92 635.691 184.197 635.531 184.56C635.371 184.923 635.291 185.36 635.291 185.872C635.291 186.373 635.36 186.8 635.499 187.152C635.648 187.504 635.867 187.776 636.155 187.968C636.443 188.149 636.789 188.24 637.195 188.24C637.568 188.24 637.952 188.123 638.347 187.888C638.741 187.653 639.115 187.269 639.467 186.736L639.547 188.096C639.323 188.395 639.061 188.656 638.763 188.88C638.464 189.104 638.155 189.28 637.835 189.408C637.515 189.525 637.195 189.584 636.875 189.584C636.224 189.584 635.648 189.445 635.147 189.168C634.656 188.891 634.267 188.48 633.979 187.936C633.701 187.381 633.563 186.693 633.563 185.872C633.563 185.093 633.723 184.416 634.043 183.84C634.373 183.253 634.805 182.8 635.339 182.48C635.872 182.16 636.453 182 637.083 182C637.648 182 638.176 182.117 638.667 182.352C639.168 182.576 639.6 182.923 639.963 183.392C640.336 183.861 640.629 184.453 640.843 185.168C641.056 185.883 641.163 186.731 641.163 187.712C641.163 188.864 641.045 189.856 640.811 190.688C640.576 191.509 640.251 192.181 639.835 192.704C639.419 193.216 638.949 193.6 638.427 193.856C637.904 194.101 637.36 194.224 636.795 194.224ZM643.376 194V192.48H645.968V184.288H643.856V183.12C644.41 183.024 644.89 182.901 645.296 182.752C645.712 182.603 646.09 182.421 646.432 182.208H647.824V192.48H650.112V194H643.376Z" fill="#F38733"/>
<path d="M613.704 82V80.928C614.867 79.8933 615.837 78.9493 616.616 78.096C617.395 77.232 617.976 76.432 618.36 75.696C618.755 74.96 618.952 74.272 618.952 73.632C618.952 73.2053 618.877 72.832 618.728 72.512C618.589 72.1813 618.371 71.9307 618.072 71.76C617.784 71.5787 617.416 71.488 616.968 71.488C616.509 71.488 616.088 71.616 615.704 71.872C615.32 72.1173 614.968 72.4213 614.648 72.784L613.608 71.76C614.109 71.2053 614.637 70.7733 615.192 70.464C615.757 70.1547 616.429 70 617.208 70C617.923 70 618.547 70.1493 619.08 70.448C619.613 70.736 620.024 71.1467 620.312 71.68C620.611 72.2027 620.76 72.8213 620.76 73.536C620.76 74.2933 620.573 75.0613 620.2 75.84C619.827 76.608 619.315 77.3867 618.664 78.176C618.013 78.9547 617.272 79.744 616.44 80.544C616.749 80.512 617.075 80.4853 617.416 80.464C617.768 80.432 618.083 80.416 618.36 80.416H621.32V82H613.704ZM623.389 85.2L622.973 84.16C623.528 83.9253 623.96 83.6107 624.269 83.216C624.578 82.832 624.728 82.4 624.717 81.92L624.589 80.448L625.357 81.664C625.25 81.7813 625.128 81.8667 624.989 81.92C624.85 81.9627 624.701 81.984 624.541 81.984C624.221 81.984 623.933 81.8827 623.677 81.68C623.432 81.4667 623.309 81.1733 623.309 80.8C623.309 80.4373 623.432 80.1493 623.677 79.936C623.933 79.7227 624.237 79.616 624.589 79.616C625.048 79.616 625.4 79.792 625.645 80.144C625.89 80.496 626.013 80.9813 626.013 81.6C626.013 82.4427 625.778 83.1733 625.309 83.792C624.85 84.4213 624.21 84.8907 623.389 85.2ZM631.467 82.224C630.731 82.224 630.075 82.0907 629.499 81.824C628.923 81.5467 628.464 81.1733 628.123 80.704C627.792 80.224 627.627 79.68 627.627 79.072C627.627 78.5493 627.728 78.0853 627.931 77.68C628.133 77.2747 628.395 76.928 628.715 76.64C629.035 76.3413 629.371 76.096 629.723 75.904V75.824C629.296 75.5147 628.928 75.136 628.619 74.688C628.309 74.2293 628.155 73.6907 628.155 73.072C628.155 72.464 628.299 71.9307 628.587 71.472C628.885 71.0133 629.285 70.6613 629.787 70.416C630.299 70.16 630.88 70.032 631.531 70.032C632.213 70.032 632.8 70.1653 633.291 70.432C633.781 70.6987 634.16 71.0667 634.427 71.536C634.704 71.9947 634.843 72.5333 634.843 73.152C634.843 73.5467 634.763 73.92 634.603 74.272C634.443 74.624 634.245 74.944 634.011 75.232C633.787 75.5093 633.547 75.7387 633.291 75.92V76C633.653 76.192 633.984 76.432 634.283 76.72C634.581 76.9973 634.821 77.3333 635.003 77.728C635.184 78.1227 635.275 78.5867 635.275 79.12C635.275 79.696 635.115 80.2187 634.795 80.688C634.485 81.1573 634.043 81.5307 633.467 81.808C632.901 82.0853 632.235 82.224 631.467 82.224ZM632.251 75.456C632.592 75.1253 632.848 74.7787 633.019 74.416C633.2 74.0427 633.291 73.6533 633.291 73.248C633.291 72.896 633.221 72.576 633.083 72.288C632.944 72 632.736 71.776 632.459 71.616C632.192 71.4453 631.867 71.36 631.483 71.36C631.003 71.36 630.603 71.5147 630.283 71.824C629.963 72.1227 629.803 72.5387 629.803 73.072C629.803 73.4987 629.915 73.856 630.139 74.144C630.363 74.432 630.661 74.6773 631.035 74.88C631.408 75.0827 631.813 75.2747 632.251 75.456ZM631.515 80.88C631.909 80.88 632.256 80.8053 632.555 80.656C632.864 80.5067 633.104 80.2987 633.275 80.032C633.445 79.7547 633.531 79.4293 633.531 79.056C633.531 78.704 633.456 78.4 633.307 78.144C633.157 77.8773 632.949 77.648 632.683 77.456C632.427 77.264 632.123 77.088 631.771 76.928C631.419 76.7573 631.04 76.592 630.635 76.432C630.229 76.72 629.899 77.0773 629.643 77.504C629.387 77.92 629.259 78.3787 629.259 78.88C629.259 79.2747 629.355 79.6213 629.547 79.92C629.749 80.2187 630.021 80.4533 630.363 80.624C630.704 80.7947 631.088 80.88 631.515 80.88ZM640.944 82.224C640.378 82.224 639.85 82.1067 639.36 81.872C638.869 81.6267 638.437 81.264 638.064 80.784C637.69 80.2933 637.397 79.68 637.184 78.944C636.97 78.208 636.864 77.3387 636.864 76.336C636.864 75.2053 636.986 74.24 637.232 73.44C637.477 72.6293 637.808 71.9733 638.224 71.472C638.64 70.9707 639.114 70.6027 639.648 70.368C640.181 70.1227 640.736 70 641.312 70C641.973 70 642.544 70.1227 643.024 70.368C643.514 70.6133 643.925 70.912 644.256 71.264L643.248 72.384C643.034 72.128 642.762 71.92 642.432 71.76C642.101 71.5893 641.76 71.504 641.408 71.504C640.896 71.504 640.421 71.6587 639.984 71.968C639.557 72.2667 639.216 72.768 638.96 73.472C638.704 74.176 638.576 75.1307 638.576 76.336C638.576 77.3493 638.672 78.1867 638.864 78.848C639.056 79.4987 639.328 79.9893 639.68 80.32C640.032 80.64 640.442 80.8 640.912 80.8C641.264 80.8 641.573 80.6987 641.84 80.496C642.117 80.2933 642.336 80.0107 642.496 79.648C642.656 79.2747 642.736 78.8373 642.736 78.336C642.736 77.8347 642.661 77.408 642.512 77.056C642.362 76.704 642.144 76.4373 641.856 76.256C641.578 76.0747 641.232 75.984 640.816 75.984C640.464 75.984 640.085 76.096 639.68 76.32C639.285 76.544 638.906 76.928 638.544 77.472L638.48 76.128C638.704 75.808 638.965 75.5413 639.264 75.328C639.562 75.104 639.872 74.9333 640.192 74.816C640.522 74.6987 640.837 74.64 641.136 74.64C641.797 74.64 642.373 74.7787 642.864 75.056C643.365 75.3227 643.754 75.728 644.032 76.272C644.32 76.816 644.464 77.504 644.464 78.336C644.464 79.1147 644.298 79.7973 643.968 80.384C643.648 80.96 643.221 81.4133 642.688 81.744C642.165 82.064 641.584 82.224 640.944 82.224ZM650.565 82V74.32C650.565 74 650.575 73.6213 650.597 73.184C650.618 72.736 650.634 72.352 650.645 72.032H650.581C650.431 72.3307 650.277 72.6347 650.117 72.944C649.967 73.2533 649.807 73.5573 649.637 73.856L647.333 77.392H653.781V78.832H645.461V77.6L650.149 70.208H652.293V82H650.565Z" fill="#A7AC39"/>
<defs>
<linearGradient id="paint0_linear_338_40736" x1="288" y1="44" x2="288" y2="332.495" gradientUnits="userSpaceOnUse">
<stop stop-color="#A7AC39"/>
<stop offset="1" stop-color="white"/>
</linearGradient>
<linearGradient id="paint1_linear_338_40736" x1="288" y1="44" x2="288" y2="332.495" gradientUnits="userSpaceOnUse">
<stop stop-color="#F38733"/>
<stop offset="1" stop-color="white"/>
</linearGradient>
<linearGradient id="paint2_linear_338_40736" x1="358.101" y1="112.094" x2="358.101" y2="122.479" gradientUnits="userSpaceOnUse">
<stop stop-color="#C2C559"/>
<stop offset="1" stop-color="#A7AC39"/>
</linearGradient>
<linearGradient id="paint3_linear_338_40736" x1="498.101" y1="131.094" x2="498.101" y2="141.479" gradientUnits="userSpaceOnUse">
<stop stop-color="#C2C559"/>
<stop offset="1" stop-color="#A7AC39"/>
</linearGradient>
<linearGradient id="paint4_linear_338_40736" x1="5.59755" y1="366.093" x2="5.59755" y2="376.479" gradientUnits="userSpaceOnUse">
<stop stop-color="#C2C559"/>
<stop offset="1" stop-color="#A7AC39"/>
</linearGradient>
<linearGradient id="paint5_linear_338_40736" x1="358.6" y1="366.094" x2="358.599" y2="376.479" gradientUnits="userSpaceOnUse">
<stop stop-color="#FF9E45"/>
<stop offset="1" stop-color="#F38733"/>
</linearGradient>
<linearGradient id="paint6_linear_338_40736" x1="218.1" y1="102.094" x2="218.099" y2="112.479" gradientUnits="userSpaceOnUse">
<stop stop-color="#C2C559"/>
<stop offset="1" stop-color="#A7AC39"/>
</linearGradient>
<linearGradient id="paint7_linear_338_40736" x1="218.1" y1="217.094" x2="218.099" y2="227.479" gradientUnits="userSpaceOnUse">
<stop stop-color="#FF9E45"/>
<stop offset="1" stop-color="#F38733"/>
</linearGradient>
<linearGradient id="paint8_linear_338_40736" x1="358.102" y1="211.094" x2="358.101" y2="221.479" gradientUnits="userSpaceOnUse">
<stop stop-color="#FF9E45"/>
<stop offset="1" stop-color="#F38733"/>
</linearGradient>
<linearGradient id="paint9_linear_338_40736" x1="498.102" y1="215.094" x2="498.101" y2="225.479" gradientUnits="userSpaceOnUse">
<stop stop-color="#FF9E45"/>
<stop offset="1" stop-color="#F38733"/>
</linearGradient>
<linearGradient id="paint10_linear_338_40736" x1="635.193" y1="206" x2="635.193" y2="216.385" gradientUnits="userSpaceOnUse">
<stop stop-color="#FF9E45"/>
<stop offset="1" stop-color="#F38733"/>
</linearGradient>
<linearGradient id="paint11_linear_338_40736" x1="635.097" y1="94.0938" x2="635.097" y2="104.48" gradientUnits="userSpaceOnUse">
<stop stop-color="#C2C559"/>
<stop offset="1" stop-color="#A7AC39"/>
</linearGradient>
</defs>
</svg>
