<svg width="986" height="429" viewBox="0 0 986 429" fill="none" xmlns="http://www.w3.org/2000/svg">
<circle cx="70" cy="215" r="70" fill="url(#paint0_linear_386_34465)"/>
<circle cx="70" cy="215" r="69.5" stroke="white" stroke-opacity="0.2"/>
<path d="M18.1339 212.169C15.6769 212.169 13.9739 210.258 13.9739 207.177C13.9739 204.096 15.6769 202.25 18.1339 202.25C20.5909 202.25 22.3069 204.096 22.3069 207.177C22.3069 210.258 20.5909 212.169 18.1339 212.169ZM18.1339 210.856C19.7199 210.856 20.7599 209.426 20.7599 207.177C20.7599 204.928 19.7199 203.563 18.1339 203.563C16.5479 203.563 15.5209 204.928 15.5209 207.177C15.5209 209.426 16.5479 210.856 18.1339 210.856ZM26.2577 212.169C24.7367 212.169 24.0737 211.168 24.0737 209.348V204.85H25.5687V209.166C25.5687 210.401 25.9197 210.882 26.7647 210.882C27.4277 210.882 27.8827 210.57 28.4807 209.816V204.85H29.9757V212H28.7537L28.6367 210.921H28.5977C27.9477 211.675 27.2457 212.169 26.2577 212.169ZM34.6312 212.169C33.0192 212.169 32.4602 211.168 32.4602 209.66V206.046H31.4202V204.928L32.5252 204.85L32.6942 202.874H33.9552V204.85H35.8142V206.046H33.9552V209.673C33.9552 210.531 34.2542 210.973 34.9952 210.973C35.2422 210.973 35.5542 210.895 35.7622 210.804L36.0352 211.909C35.6322 212.039 35.1512 212.169 34.6312 212.169ZM39.1779 212.169C38.1899 212.169 37.1759 211.753 36.4869 211.181L37.1889 210.219C37.8259 210.726 38.4499 211.038 39.2169 211.038C40.0749 211.038 40.4779 210.622 40.4779 210.076C40.4779 209.426 39.6719 209.14 38.8919 208.841C37.9429 208.477 36.8509 207.97 36.8509 206.761C36.8509 205.565 37.8129 204.668 39.3859 204.668C40.3479 204.668 41.1279 205.058 41.7129 205.513L41.0109 206.436C40.5169 206.072 40.0099 205.812 39.4119 205.812C38.6319 205.812 38.2679 206.202 38.2679 206.696C38.2679 207.307 39.0089 207.541 39.7889 207.827C40.7899 208.204 41.8949 208.646 41.8949 209.998C41.8949 211.194 40.9459 212.169 39.1779 212.169ZM45.6 212.169C43.988 212.169 43.429 211.168 43.429 209.66V206.046H42.389V204.928L43.494 204.85L43.663 202.874H44.924V204.85H46.783V206.046H44.924V209.673C44.924 210.531 45.223 210.973 45.964 210.973C46.211 210.973 46.523 210.895 46.731 210.804L47.004 211.909C46.601 212.039 46.12 212.169 45.6 212.169ZM49.7219 212.169C48.4869 212.169 47.6159 211.363 47.6159 210.102C47.6159 208.568 48.9159 207.775 51.8929 207.45C51.8799 206.618 51.5809 205.89 50.5279 205.89C49.7739 205.89 49.0719 206.228 48.4609 206.618L47.9019 205.604C48.6429 205.136 49.6439 204.668 50.7879 204.668C52.5689 204.668 53.3879 205.799 53.3879 207.697V212H52.1659L52.0359 211.181H51.9969C51.3469 211.74 50.5799 212.169 49.7219 212.169ZM50.1769 210.986C50.8009 210.986 51.3079 210.687 51.8929 210.154V208.399C49.7739 208.659 49.0589 209.192 49.0589 209.998C49.0589 210.7 49.5399 210.986 50.1769 210.986ZM55.5094 212V204.85H56.7314L56.8484 205.838H56.8874C57.5504 205.201 58.2784 204.668 59.2534 204.668C60.7744 204.668 61.4504 205.682 61.4504 207.502V212H59.9554V207.684C59.9554 206.449 59.5914 205.955 58.7464 205.955C58.0834 205.955 57.6284 206.293 56.9914 206.93V212H55.5094ZM66.0917 212.169C64.2977 212.169 63.1407 210.804 63.1407 208.438C63.1407 206.111 64.6097 204.668 66.2087 204.668C67.0277 204.668 67.5477 204.98 68.1327 205.474L68.0677 204.291V201.639H69.5627V212H68.3407L68.2107 211.194H68.1717C67.6387 211.74 66.8977 212.169 66.0917 212.169ZM66.4427 210.934C67.0407 210.934 67.5477 210.661 68.0677 210.063V206.566C67.5347 206.085 67.0277 205.916 66.4947 205.916C65.4937 205.916 64.6877 206.865 64.6877 208.412C64.6877 210.037 65.3247 210.934 66.4427 210.934ZM71.8102 212V204.85H73.2922V212H71.8102ZM72.5512 203.511C72.0052 203.511 71.6022 203.147 71.6022 202.627C71.6022 202.094 72.0052 201.743 72.5512 201.743C73.0972 201.743 73.5132 202.094 73.5132 202.627C73.5132 203.147 73.0972 203.511 72.5512 203.511ZM75.5426 212V204.85H76.7646L76.8816 205.838H76.9206C77.5836 205.201 78.3116 204.668 79.2866 204.668C80.8076 204.668 81.4836 205.682 81.4836 207.502V212H79.9886V207.684C79.9886 206.449 79.6246 205.955 78.7796 205.955C78.1166 205.955 77.6616 206.293 77.0246 206.93V212H75.5426ZM86.0989 215.211C84.3829 215.211 83.1349 214.574 83.1349 213.326C83.1349 212.728 83.5119 212.169 84.1749 211.766V211.701C83.8109 211.48 83.5249 211.103 83.5249 210.518C83.5249 209.959 83.9279 209.478 84.3179 209.192V209.14C83.8369 208.763 83.3819 208.087 83.3819 207.242C83.3819 205.617 84.6689 204.668 86.1509 204.668C86.5539 204.668 86.9179 204.746 87.1909 204.85H89.7259V205.968H88.3609C88.6339 206.254 88.8289 206.735 88.8289 207.281C88.8289 208.841 87.6459 209.738 86.1509 209.738C85.8259 209.738 85.4619 209.66 85.1499 209.517C84.9159 209.725 84.7599 209.933 84.7599 210.271C84.7599 210.7 85.0459 210.973 85.9559 210.973H87.2689C88.9589 210.973 89.8429 211.493 89.8429 212.715C89.8429 214.093 88.3869 215.211 86.0989 215.211ZM86.1509 208.776C86.8919 208.776 87.5029 208.191 87.5029 207.242C87.5029 206.28 86.9049 205.721 86.1509 205.721C85.3969 205.721 84.7989 206.267 84.7989 207.242C84.7989 208.191 85.4099 208.776 86.1509 208.776ZM86.3199 214.223C87.5679 214.223 88.3999 213.612 88.3999 212.949C88.3999 212.351 87.9319 212.169 87.0609 212.169H85.9819C85.6439 212.169 85.3189 212.13 85.0199 212.065C84.5909 212.377 84.4089 212.741 84.4089 213.105C84.4089 213.807 85.1369 214.223 86.3199 214.223ZM96.1705 212V203.693H93.3625V202.432H100.499V203.693H97.6785V212H96.1705ZM103.986 212.169C102.049 212.169 100.502 210.791 100.502 208.438C100.502 206.111 102.088 204.668 103.765 204.668C105.663 204.668 106.677 206.033 106.677 208.061C106.677 208.347 106.651 208.646 106.612 208.815H101.971C102.088 210.18 102.946 210.999 104.181 210.999C104.818 210.999 105.364 210.804 105.884 210.466L106.404 211.415C105.741 211.857 104.922 212.169 103.986 212.169ZM101.958 207.788H105.39C105.39 206.553 104.831 205.838 103.791 205.838C102.894 205.838 102.101 206.527 101.958 207.788ZM109.86 212.169C108.625 212.169 107.754 211.363 107.754 210.102C107.754 208.568 109.054 207.775 112.031 207.45C112.018 206.618 111.719 205.89 110.666 205.89C109.912 205.89 109.21 206.228 108.599 206.618L108.04 205.604C108.781 205.136 109.782 204.668 110.926 204.668C112.707 204.668 113.526 205.799 113.526 207.697V212H112.304L112.174 211.181H112.135C111.485 211.74 110.718 212.169 109.86 212.169ZM110.315 210.986C110.939 210.986 111.446 210.687 112.031 210.154V208.399C109.912 208.659 109.197 209.192 109.197 209.998C109.197 210.7 109.678 210.986 110.315 210.986ZM115.647 212V204.85H116.869L116.986 205.851H117.025C117.636 205.201 118.351 204.668 119.235 204.668C120.301 204.668 120.899 205.162 121.211 205.981C121.913 205.227 122.641 204.668 123.538 204.668C125.033 204.668 125.735 205.682 125.735 207.502V212H124.24V207.684C124.24 206.449 123.85 205.955 123.044 205.955C122.55 205.955 122.03 206.28 121.432 206.93V212H119.937V207.684C119.937 206.449 119.56 205.955 118.741 205.955C118.26 205.955 117.727 206.28 117.129 206.93V212H115.647ZM44.9695 229.169C43.6565 229.169 42.4345 228.649 41.5635 227.765L42.4475 226.725C43.1365 227.414 44.0725 227.856 44.9955 227.856C46.1525 227.856 46.8025 227.31 46.8025 226.504C46.8025 225.633 46.1525 225.36 45.2685 224.97L43.9425 224.398C43.0195 224.008 41.9925 223.28 41.9925 221.889C41.9925 220.381 43.3185 219.25 45.1385 219.25C46.2565 219.25 47.3095 219.718 48.0375 220.459L47.2445 221.421C46.6465 220.888 45.9835 220.563 45.1385 220.563C44.1635 220.563 43.5265 221.031 43.5265 221.798C43.5265 222.617 44.2935 222.929 45.0735 223.241L46.3865 223.8C47.5175 224.281 48.3365 224.983 48.3365 226.387C48.3365 227.921 47.0625 229.169 44.9695 229.169ZM52.9957 229.169C51.0587 229.169 49.5117 227.791 49.5117 225.438C49.5117 223.111 51.0977 221.668 52.7747 221.668C54.6727 221.668 55.6867 223.033 55.6867 225.061C55.6867 225.347 55.6607 225.646 55.6217 225.815H50.9807C51.0977 227.18 51.9557 227.999 53.1907 227.999C53.8277 227.999 54.3737 227.804 54.8937 227.466L55.4137 228.415C54.7507 228.857 53.9317 229.169 52.9957 229.169ZM50.9677 224.788H54.3997C54.3997 223.553 53.8407 222.838 52.8007 222.838C51.9037 222.838 51.1107 223.527 50.9677 224.788ZM58.8513 229.169C57.7723 229.169 57.3693 228.48 57.3693 227.323V218.639H58.8513V227.401C58.8513 227.804 59.0333 227.947 59.2153 227.947C59.2803 227.947 59.3323 227.947 59.4623 227.921L59.6573 229.052C59.4753 229.117 59.2153 229.169 58.8513 229.169ZM64.2184 229.169C62.2814 229.169 60.7344 227.791 60.7344 225.438C60.7344 223.111 62.3204 221.668 63.9974 221.668C65.8954 221.668 66.9094 223.033 66.9094 225.061C66.9094 225.347 66.8834 225.646 66.8444 225.815H62.2034C62.3204 227.18 63.1784 227.999 64.4134 227.999C65.0504 227.999 65.5964 227.804 66.1164 227.466L66.6364 228.415C65.9734 228.857 65.1544 229.169 64.2184 229.169ZM62.1904 224.788H65.6224C65.6224 223.553 65.0634 222.838 64.0234 222.838C63.1264 222.838 62.3334 223.527 62.1904 224.788ZM71.5039 229.169C69.5669 229.169 68.0849 227.804 68.0849 225.438C68.0849 223.046 69.7359 221.668 71.6209 221.668C72.5309 221.668 73.1939 222.032 73.7139 222.487L72.9729 223.462C72.5829 223.111 72.1799 222.903 71.6859 222.903C70.4899 222.903 69.6319 223.917 69.6319 225.438C69.6319 226.946 70.4509 227.947 71.6469 227.947C72.2449 227.947 72.7779 227.661 73.2069 227.297L73.8179 228.285C73.1679 228.87 72.3229 229.169 71.5039 229.169ZM77.5731 229.169C75.9611 229.169 75.4021 228.168 75.4021 226.66V223.046H74.3621V221.928L75.4671 221.85L75.6361 219.874H76.8971V221.85H78.7561V223.046H76.8971V226.673C76.8971 227.531 77.1961 227.973 77.9371 227.973C78.1841 227.973 78.4961 227.895 78.7041 227.804L78.9771 228.909C78.5741 229.039 78.0931 229.169 77.5731 229.169ZM80.3224 229V221.85H81.8044V229H80.3224ZM81.0634 220.511C80.5174 220.511 80.1144 220.147 80.1144 219.627C80.1144 219.094 80.5174 218.743 81.0634 218.743C81.6094 218.743 82.0254 219.094 82.0254 219.627C82.0254 220.147 81.6094 220.511 81.0634 220.511ZM86.9148 229.169C85.1468 229.169 83.5478 227.804 83.5478 225.438C83.5478 223.046 85.1468 221.668 86.9148 221.668C88.6828 221.668 90.2818 223.046 90.2818 225.438C90.2818 227.804 88.6828 229.169 86.9148 229.169ZM86.9148 227.947C88.0458 227.947 88.7478 226.946 88.7478 225.438C88.7478 223.917 88.0458 222.903 86.9148 222.903C85.7968 222.903 85.0948 223.917 85.0948 225.438C85.0948 226.946 85.7968 227.947 86.9148 227.947ZM92.0402 229V221.85H93.2622L93.3792 222.838H93.4182C94.0812 222.201 94.8092 221.668 95.7842 221.668C97.3052 221.668 97.9812 222.682 97.9812 224.502V229H96.4862V224.684C96.4862 223.449 96.1222 222.955 95.2772 222.955C94.6142 222.955 94.1592 223.293 93.5222 223.93V229H92.0402Z" fill="white"/>
<circle cx="916" cy="215" r="70" fill="url(#paint1_linear_386_34465)"/>
<circle cx="916" cy="215" r="69.5" stroke="white" stroke-opacity="0.2"/>
<path d="M891.845 200V190.432H897.5V191.693H893.353V194.358H896.863V195.632H893.353V198.726H897.643V200H891.845ZM898.066 200L900.38 196.269L898.235 192.85H899.847L900.705 194.293C900.913 194.683 901.147 195.086 901.381 195.489H901.433C901.628 195.086 901.836 194.683 902.031 194.293L902.785 192.85H904.345L902.2 196.438L904.501 200H902.876L901.94 198.492C901.706 198.063 901.459 197.621 901.199 197.218H901.134C900.913 197.621 900.692 198.05 900.471 198.492L899.639 200H898.066ZM907.882 200.169C906.27 200.169 905.711 199.168 905.711 197.66V194.046H904.671V192.928L905.776 192.85L905.945 190.874H907.206V192.85H909.065V194.046H907.206V197.673C907.206 198.531 907.505 198.973 908.246 198.973C908.493 198.973 908.805 198.895 909.013 198.804L909.286 199.909C908.883 200.039 908.402 200.169 907.882 200.169ZM913.392 200.169C911.455 200.169 909.908 198.791 909.908 196.438C909.908 194.111 911.494 192.668 913.171 192.668C915.069 192.668 916.083 194.033 916.083 196.061C916.083 196.347 916.057 196.646 916.018 196.815H911.377C911.494 198.18 912.352 198.999 913.587 198.999C914.224 198.999 914.77 198.804 915.29 198.466L915.81 199.415C915.147 199.857 914.328 200.169 913.392 200.169ZM911.364 195.788H914.796C914.796 194.553 914.237 193.838 913.197 193.838C912.3 193.838 911.507 194.527 911.364 195.788ZM917.766 200V192.85H918.988L919.105 194.137H919.144C919.651 193.214 920.405 192.668 921.172 192.668C921.523 192.668 921.757 192.72 921.978 192.824L921.705 194.124C921.458 194.046 921.276 194.007 920.99 194.007C920.405 194.007 919.703 194.41 919.248 195.541V200H917.766ZM923.085 200V192.85H924.307L924.424 193.838H924.463C925.126 193.201 925.854 192.668 926.829 192.668C928.35 192.668 929.026 193.682 929.026 195.502V200H927.531V195.684C927.531 194.449 927.167 193.955 926.322 193.955C925.659 193.955 925.204 194.293 924.567 194.93V200H923.085ZM932.887 200.169C931.652 200.169 930.781 199.363 930.781 198.102C930.781 196.568 932.081 195.775 935.058 195.45C935.045 194.618 934.746 193.89 933.693 193.89C932.939 193.89 932.237 194.228 931.626 194.618L931.067 193.604C931.808 193.136 932.809 192.668 933.953 192.668C935.734 192.668 936.553 193.799 936.553 195.697V200H935.331L935.201 199.181H935.162C934.512 199.74 933.745 200.169 932.887 200.169ZM933.342 198.986C933.966 198.986 934.473 198.687 935.058 198.154V196.399C932.939 196.659 932.224 197.192 932.224 197.998C932.224 198.7 932.705 198.986 933.342 198.986ZM940.157 200.169C939.078 200.169 938.675 199.48 938.675 198.323V189.639H940.157V198.401C940.157 198.804 940.339 198.947 940.521 198.947C940.586 198.947 940.638 198.947 940.768 198.921L940.963 200.052C940.781 200.117 940.521 200.169 940.157 200.169ZM883.669 220V210.432H885.177V220H883.669ZM887.551 220V212.85H888.773L888.89 213.838H888.929C889.592 213.201 890.32 212.668 891.295 212.668C892.816 212.668 893.492 213.682 893.492 215.502V220H891.997V215.684C891.997 214.449 891.633 213.955 890.788 213.955C890.125 213.955 889.67 214.293 889.033 214.93V220H887.551ZM895.663 220V212.85H896.885L897.002 213.838H897.041C897.704 213.201 898.432 212.668 899.407 212.668C900.928 212.668 901.604 213.682 901.604 215.502V220H900.109V215.684C900.109 214.449 899.745 213.955 898.9 213.955C898.237 213.955 897.782 214.293 897.145 214.93V220H895.663ZM906.636 220.169C904.868 220.169 903.269 218.804 903.269 216.438C903.269 214.046 904.868 212.668 906.636 212.668C908.404 212.668 910.003 214.046 910.003 216.438C910.003 218.804 908.404 220.169 906.636 220.169ZM906.636 218.947C907.767 218.947 908.469 217.946 908.469 216.438C908.469 214.917 907.767 213.903 906.636 213.903C905.518 213.903 904.816 214.917 904.816 216.438C904.816 217.946 905.518 218.947 906.636 218.947ZM913.258 220L910.723 212.85H912.257L913.479 216.698C913.674 217.4 913.895 218.128 914.103 218.83H914.155C914.363 218.128 914.584 217.4 914.779 216.698L916.001 212.85H917.457L914.987 220H913.258ZM920.167 220.169C918.932 220.169 918.061 219.363 918.061 218.102C918.061 216.568 919.361 215.775 922.338 215.45C922.325 214.618 922.026 213.89 920.973 213.89C920.219 213.89 919.517 214.228 918.906 214.618L918.347 213.604C919.088 213.136 920.089 212.668 921.233 212.668C923.014 212.668 923.833 213.799 923.833 215.697V220H922.611L922.481 219.181H922.442C921.792 219.74 921.025 220.169 920.167 220.169ZM920.622 218.986C921.246 218.986 921.753 218.687 922.338 218.154V216.399C920.219 216.659 919.504 217.192 919.504 217.998C919.504 218.7 919.985 218.986 920.622 218.986ZM928.143 220.169C926.531 220.169 925.972 219.168 925.972 217.66V214.046H924.932V212.928L926.037 212.85L926.206 210.874H927.467V212.85H929.326V214.046H927.467V217.673C927.467 218.531 927.766 218.973 928.507 218.973C928.754 218.973 929.066 218.895 929.274 218.804L929.547 219.909C929.144 220.039 928.663 220.169 928.143 220.169ZM930.893 220V212.85H932.375V220H930.893ZM931.634 211.511C931.088 211.511 930.685 211.147 930.685 210.627C930.685 210.094 931.088 209.743 931.634 209.743C932.18 209.743 932.596 210.094 932.596 210.627C932.596 211.147 932.18 211.511 931.634 211.511ZM937.485 220.169C935.717 220.169 934.118 218.804 934.118 216.438C934.118 214.046 935.717 212.668 937.485 212.668C939.253 212.668 940.852 214.046 940.852 216.438C940.852 218.804 939.253 220.169 937.485 220.169ZM937.485 218.947C938.616 218.947 939.318 217.946 939.318 216.438C939.318 214.917 938.616 213.903 937.485 213.903C936.367 213.903 935.665 214.917 935.665 216.438C935.665 217.946 936.367 218.947 937.485 218.947ZM942.61 220V212.85H943.832L943.949 213.838H943.988C944.651 213.201 945.379 212.668 946.354 212.668C947.875 212.668 948.551 213.682 948.551 215.502V220H947.056V215.684C947.056 214.449 946.692 213.955 945.847 213.955C945.184 213.955 944.729 214.293 944.092 214.93V220H942.61ZM882.436 240.169C880.031 240.169 878.185 238.375 878.185 235.242C878.185 232.122 880.083 230.25 882.501 230.25C883.697 230.25 884.633 230.822 885.218 231.459L884.399 232.421C883.905 231.914 883.307 231.563 882.527 231.563C880.876 231.563 879.732 232.941 879.732 235.19C879.732 237.465 880.798 238.856 882.488 238.856C883.359 238.856 884.035 238.466 884.607 237.842L885.413 238.791C884.646 239.675 883.671 240.169 882.436 240.169ZM889.84 240.169C888.072 240.169 886.473 238.804 886.473 236.438C886.473 234.046 888.072 232.668 889.84 232.668C891.608 232.668 893.207 234.046 893.207 236.438C893.207 238.804 891.608 240.169 889.84 240.169ZM889.84 238.947C890.971 238.947 891.673 237.946 891.673 236.438C891.673 234.917 890.971 233.903 889.84 233.903C888.722 233.903 888.02 234.917 888.02 236.438C888.02 237.946 888.722 238.947 889.84 238.947ZM897.825 240.169C896.057 240.169 894.458 238.804 894.458 236.438C894.458 234.046 896.057 232.668 897.825 232.668C899.593 232.668 901.192 234.046 901.192 236.438C901.192 238.804 899.593 240.169 897.825 240.169ZM897.825 238.947C898.956 238.947 899.658 237.946 899.658 236.438C899.658 234.917 898.956 233.903 897.825 233.903C896.707 233.903 896.005 234.917 896.005 236.438C896.005 237.946 896.707 238.947 897.825 238.947ZM902.95 242.899V232.85H904.172L904.289 233.63H904.328C904.952 233.11 905.732 232.668 906.525 232.668C908.345 232.668 909.359 234.111 909.359 236.308C909.359 238.765 907.89 240.169 906.278 240.169C905.641 240.169 905.004 239.883 904.393 239.363L904.432 240.585V242.899H902.95ZM905.992 238.934C907.032 238.934 907.812 238.011 907.812 236.334C907.812 234.839 907.331 233.916 906.135 233.916C905.576 233.916 905.043 234.202 904.432 234.787V238.284C904.991 238.765 905.55 238.934 905.992 238.934ZM914.116 240.169C912.179 240.169 910.632 238.791 910.632 236.438C910.632 234.111 912.218 232.668 913.895 232.668C915.793 232.668 916.807 234.033 916.807 236.061C916.807 236.347 916.781 236.646 916.742 236.815H912.101C912.218 238.18 913.076 238.999 914.311 238.999C914.948 238.999 915.494 238.804 916.014 238.466L916.534 239.415C915.871 239.857 915.052 240.169 914.116 240.169ZM912.088 235.788H915.52C915.52 234.553 914.961 233.838 913.921 233.838C913.024 233.838 912.231 234.527 912.088 235.788ZM918.489 240V232.85H919.711L919.828 234.137H919.867C920.374 233.214 921.128 232.668 921.895 232.668C922.246 232.668 922.48 232.72 922.701 232.824L922.428 234.124C922.181 234.046 921.999 234.007 921.713 234.007C921.128 234.007 920.426 234.41 919.971 235.541V240H918.489ZM925.131 240.169C923.896 240.169 923.025 239.363 923.025 238.102C923.025 236.568 924.325 235.775 927.302 235.45C927.289 234.618 926.99 233.89 925.937 233.89C925.183 233.89 924.481 234.228 923.87 234.618L923.311 233.604C924.052 233.136 925.053 232.668 926.197 232.668C927.978 232.668 928.797 233.799 928.797 235.697V240H927.575L927.445 239.181H927.406C926.756 239.74 925.989 240.169 925.131 240.169ZM925.586 238.986C926.21 238.986 926.717 238.687 927.302 238.154V236.399C925.183 236.659 924.468 237.192 924.468 237.998C924.468 238.7 924.949 238.986 925.586 238.986ZM933.107 240.169C931.495 240.169 930.936 239.168 930.936 237.66V234.046H929.896V232.928L931.001 232.85L931.17 230.874H932.431V232.85H934.29V234.046H932.431V237.673C932.431 238.531 932.73 238.973 933.471 238.973C933.718 238.973 934.03 238.895 934.238 238.804L934.511 239.909C934.108 240.039 933.627 240.169 933.107 240.169ZM935.857 240V232.85H937.339V240H935.857ZM936.598 231.511C936.052 231.511 935.649 231.147 935.649 230.627C935.649 230.094 936.052 229.743 936.598 229.743C937.144 229.743 937.56 230.094 937.56 230.627C937.56 231.147 937.144 231.511 936.598 231.511ZM942.449 240.169C940.681 240.169 939.082 238.804 939.082 236.438C939.082 234.046 940.681 232.668 942.449 232.668C944.217 232.668 945.816 234.046 945.816 236.438C945.816 238.804 944.217 240.169 942.449 240.169ZM942.449 238.947C943.58 238.947 944.282 237.946 944.282 236.438C944.282 234.917 943.58 233.903 942.449 233.903C941.331 233.903 940.629 234.917 940.629 236.438C940.629 237.946 941.331 238.947 942.449 238.947ZM947.574 240V232.85H948.796L948.913 233.838H948.952C949.615 233.201 950.343 232.668 951.318 232.668C952.839 232.668 953.515 233.682 953.515 235.502V240H952.02V235.684C952.02 234.449 951.656 233.955 950.811 233.955C950.148 233.955 949.693 234.293 949.056 234.93V240H947.574Z" fill="white"/>
<circle cx="254" cy="60" r="60" fill="url(#paint2_linear_386_34465)"/>
<circle cx="254" cy="60" r="59.5" stroke="white" stroke-opacity="0.2"/>
<path d="M229.025 57.169C226.62 57.169 224.774 55.375 224.774 52.242C224.774 49.122 226.672 47.25 229.09 47.25C230.286 47.25 231.222 47.822 231.807 48.459L230.988 49.421C230.494 48.914 229.896 48.563 229.116 48.563C227.465 48.563 226.321 49.941 226.321 52.19C226.321 54.465 227.387 55.856 229.077 55.856C229.948 55.856 230.624 55.466 231.196 54.842L232.002 55.791C231.235 56.675 230.26 57.169 229.025 57.169ZM233.568 57V49.85H234.79L234.907 51.137H234.946C235.453 50.214 236.207 49.668 236.974 49.668C237.325 49.668 237.559 49.72 237.78 49.824L237.507 51.124C237.26 51.046 237.078 51.007 236.792 51.007C236.207 51.007 235.505 51.41 235.05 52.541V57H233.568ZM241.725 57.169C239.788 57.169 238.241 55.791 238.241 53.438C238.241 51.111 239.827 49.668 241.504 49.668C243.402 49.668 244.416 51.033 244.416 53.061C244.416 53.347 244.39 53.646 244.351 53.815H239.71C239.827 55.18 240.685 55.999 241.92 55.999C242.557 55.999 243.103 55.804 243.623 55.466L244.143 56.415C243.48 56.857 242.661 57.169 241.725 57.169ZM239.697 52.788H243.129C243.129 51.553 242.57 50.838 241.53 50.838C240.633 50.838 239.84 51.527 239.697 52.788ZM247.598 57.169C246.363 57.169 245.492 56.363 245.492 55.102C245.492 53.568 246.792 52.775 249.769 52.45C249.756 51.618 249.457 50.89 248.404 50.89C247.65 50.89 246.948 51.228 246.337 51.618L245.778 50.604C246.519 50.136 247.52 49.668 248.664 49.668C250.445 49.668 251.264 50.799 251.264 52.697V57H250.042L249.912 56.181H249.873C249.223 56.74 248.456 57.169 247.598 57.169ZM248.053 55.986C248.677 55.986 249.184 55.687 249.769 55.154V53.399C247.65 53.659 246.935 54.192 246.935 54.998C246.935 55.7 247.416 55.986 248.053 55.986ZM255.575 57.169C253.963 57.169 253.404 56.168 253.404 54.66V51.046H252.364V49.928L253.469 49.85L253.638 47.874H254.899V49.85H256.758V51.046H254.899V54.673C254.899 55.531 255.198 55.973 255.939 55.973C256.186 55.973 256.498 55.895 256.706 55.804L256.979 56.909C256.576 57.039 256.095 57.169 255.575 57.169ZM258.324 57V49.85H259.806V57H258.324ZM259.065 48.511C258.519 48.511 258.116 48.147 258.116 47.627C258.116 47.094 258.519 46.743 259.065 46.743C259.611 46.743 260.027 47.094 260.027 47.627C260.027 48.147 259.611 48.511 259.065 48.511ZM263.629 57L261.094 49.85H262.628L263.85 53.698C264.045 54.4 264.266 55.128 264.474 55.83H264.526C264.734 55.128 264.955 54.4 265.15 53.698L266.372 49.85H267.828L265.358 57H263.629ZM269.14 57V49.85H270.622V57H269.14ZM269.881 48.511C269.335 48.511 268.932 48.147 268.932 47.627C268.932 47.094 269.335 46.743 269.881 46.743C270.427 46.743 270.843 47.094 270.843 47.627C270.843 48.147 270.427 48.511 269.881 48.511ZM275.278 57.169C273.666 57.169 273.107 56.168 273.107 54.66V51.046H272.067V49.928L273.172 49.85L273.341 47.874H274.602V49.85H276.461V51.046H274.602V54.673C274.602 55.531 274.901 55.973 275.642 55.973C275.889 55.973 276.201 55.895 276.409 55.804L276.682 56.909C276.279 57.039 275.798 57.169 275.278 57.169ZM283.799 49.85L281.173 57.429C280.614 58.963 279.86 59.99 278.352 59.99C277.988 59.99 277.702 59.938 277.455 59.847L277.741 58.677C277.871 58.716 278.079 58.781 278.261 58.781C279.041 58.781 279.496 58.209 279.756 57.442L279.899 56.948L277.065 49.85H278.599L279.925 53.529C280.133 54.166 280.354 54.881 280.575 55.544H280.64L281.199 53.529L282.343 49.85H283.799ZM216.913 74.169C214.508 74.169 212.662 72.375 212.662 69.242C212.662 66.122 214.56 64.25 216.978 64.25C218.174 64.25 219.11 64.822 219.695 65.459L218.876 66.421C218.382 65.914 217.784 65.563 217.004 65.563C215.353 65.563 214.209 66.941 214.209 69.19C214.209 71.465 215.275 72.856 216.965 72.856C217.836 72.856 218.512 72.466 219.084 71.842L219.89 72.791C219.123 73.675 218.148 74.169 216.913 74.169ZM224.317 74.169C222.549 74.169 220.95 72.804 220.95 70.438C220.95 68.046 222.549 66.668 224.317 66.668C226.085 66.668 227.684 68.046 227.684 70.438C227.684 72.804 226.085 74.169 224.317 74.169ZM224.317 72.947C225.448 72.947 226.15 71.946 226.15 70.438C226.15 68.917 225.448 67.903 224.317 67.903C223.199 67.903 222.497 68.917 222.497 70.438C222.497 71.946 223.199 72.947 224.317 72.947ZM229.442 74V66.85H230.664L230.781 67.851H230.82C231.431 67.201 232.146 66.668 233.03 66.668C234.096 66.668 234.694 67.162 235.006 67.981C235.708 67.227 236.436 66.668 237.333 66.668C238.828 66.668 239.53 67.682 239.53 69.502V74H238.035V69.684C238.035 68.449 237.645 67.955 236.839 67.955C236.345 67.955 235.825 68.28 235.227 68.93V74H233.732V69.684C233.732 68.449 233.355 67.955 232.536 67.955C232.055 67.955 231.522 68.28 230.924 68.93V74H229.442ZM241.693 76.899V66.85H242.915L243.032 67.63H243.071C243.695 67.11 244.475 66.668 245.268 66.668C247.088 66.668 248.102 68.111 248.102 70.308C248.102 72.765 246.633 74.169 245.021 74.169C244.384 74.169 243.747 73.883 243.136 73.363L243.175 74.585V76.899H241.693ZM244.735 72.934C245.775 72.934 246.555 72.011 246.555 70.334C246.555 68.839 246.074 67.916 244.878 67.916C244.319 67.916 243.786 68.202 243.175 68.787V72.284C243.734 72.765 244.293 72.934 244.735 72.934ZM252.858 74.169C250.921 74.169 249.374 72.791 249.374 70.438C249.374 68.111 250.96 66.668 252.637 66.668C254.535 66.668 255.549 68.033 255.549 70.061C255.549 70.347 255.523 70.646 255.484 70.815H250.843C250.96 72.18 251.818 72.999 253.053 72.999C253.69 72.999 254.236 72.804 254.756 72.466L255.276 73.415C254.613 73.857 253.794 74.169 252.858 74.169ZM250.83 69.788H254.262C254.262 68.553 253.703 67.838 252.663 67.838C251.766 67.838 250.973 68.527 250.83 69.788ZM259.497 74.169C257.885 74.169 257.326 73.168 257.326 71.66V68.046H256.286V66.928L257.391 66.85L257.56 64.874H258.821V66.85H260.68V68.046H258.821V71.673C258.821 72.531 259.12 72.973 259.861 72.973C260.108 72.973 260.42 72.895 260.628 72.804L260.901 73.909C260.498 74.039 260.017 74.169 259.497 74.169ZM262.247 74V66.85H263.729V74H262.247ZM262.988 65.511C262.442 65.511 262.039 65.147 262.039 64.627C262.039 64.094 262.442 63.743 262.988 63.743C263.534 63.743 263.95 64.094 263.95 64.627C263.95 65.147 263.534 65.511 262.988 65.511ZM268.384 74.169C266.772 74.169 266.213 73.168 266.213 71.66V68.046H265.173V66.928L266.278 66.85L266.447 64.874H267.708V66.85H269.567V68.046H267.708V71.673C267.708 72.531 268.007 72.973 268.748 72.973C268.995 72.973 269.307 72.895 269.515 72.804L269.788 73.909C269.385 74.039 268.904 74.169 268.384 74.169ZM271.133 74V66.85H272.615V74H271.133ZM271.874 65.511C271.328 65.511 270.925 65.147 270.925 64.627C270.925 64.094 271.328 63.743 271.874 63.743C272.42 63.743 272.836 64.094 272.836 64.627C272.836 65.147 272.42 65.511 271.874 65.511ZM277.726 74.169C275.958 74.169 274.359 72.804 274.359 70.438C274.359 68.046 275.958 66.668 277.726 66.668C279.494 66.668 281.093 68.046 281.093 70.438C281.093 72.804 279.494 74.169 277.726 74.169ZM277.726 72.947C278.857 72.947 279.559 71.946 279.559 70.438C279.559 68.917 278.857 67.903 277.726 67.903C276.608 67.903 275.906 68.917 275.906 70.438C275.906 71.946 276.608 72.947 277.726 72.947ZM282.851 74V66.85H284.073L284.19 67.838H284.229C284.892 67.201 285.62 66.668 286.595 66.668C288.116 66.668 288.792 67.682 288.792 69.502V74H287.297V69.684C287.297 68.449 286.933 67.955 286.088 67.955C285.425 67.955 284.97 68.293 284.333 68.93V74H282.851ZM292.901 74.169C291.913 74.169 290.899 73.753 290.21 73.181L290.912 72.219C291.549 72.726 292.173 73.038 292.94 73.038C293.798 73.038 294.201 72.622 294.201 72.076C294.201 71.426 293.395 71.14 292.615 70.841C291.666 70.477 290.574 69.97 290.574 68.761C290.574 67.565 291.536 66.668 293.109 66.668C294.071 66.668 294.851 67.058 295.436 67.513L294.734 68.436C294.24 68.072 293.733 67.812 293.135 67.812C292.355 67.812 291.991 68.202 291.991 68.696C291.991 69.307 292.732 69.541 293.512 69.827C294.513 70.204 295.618 70.646 295.618 71.998C295.618 73.194 294.669 74.169 292.901 74.169Z" fill="white"/>
<circle cx="732" cy="60" r="60" fill="url(#paint3_linear_386_34465)"/>
<circle cx="732" cy="60" r="59.5" stroke="white" stroke-opacity="0.2"/>
<path d="M690.878 48.5V38.932H692.386V48.5H690.878ZM694.759 48.5V41.35H695.981L696.098 42.351H696.137C696.748 41.701 697.463 41.168 698.347 41.168C699.413 41.168 700.011 41.662 700.323 42.481C701.025 41.727 701.753 41.168 702.65 41.168C704.145 41.168 704.847 42.182 704.847 44.002V48.5H703.352V44.184C703.352 42.949 702.962 42.455 702.156 42.455C701.662 42.455 701.142 42.78 700.544 43.43V48.5H699.049V44.184C699.049 42.949 698.672 42.455 697.853 42.455C697.372 42.455 696.839 42.78 696.241 43.43V48.5H694.759ZM707.01 51.399V41.35H708.232L708.349 42.13H708.388C709.012 41.61 709.792 41.168 710.585 41.168C712.405 41.168 713.419 42.611 713.419 44.808C713.419 47.265 711.95 48.669 710.338 48.669C709.701 48.669 709.064 48.383 708.453 47.863L708.492 49.085V51.399H707.01ZM710.052 47.434C711.092 47.434 711.872 46.511 711.872 44.834C711.872 43.339 711.391 42.416 710.195 42.416C709.636 42.416 709.103 42.702 708.492 43.287V46.784C709.051 47.265 709.61 47.434 710.052 47.434ZM715.199 48.5V41.35H716.421L716.538 42.637H716.577C717.084 41.714 717.838 41.168 718.605 41.168C718.956 41.168 719.19 41.22 719.411 41.324L719.138 42.624C718.891 42.546 718.709 42.507 718.423 42.507C717.838 42.507 717.136 42.91 716.681 44.041V48.5H715.199ZM723.239 48.669C721.471 48.669 719.872 47.304 719.872 44.938C719.872 42.546 721.471 41.168 723.239 41.168C725.007 41.168 726.606 42.546 726.606 44.938C726.606 47.304 725.007 48.669 723.239 48.669ZM723.239 47.447C724.37 47.447 725.072 46.446 725.072 44.938C725.072 43.417 724.37 42.403 723.239 42.403C722.121 42.403 721.419 43.417 721.419 44.938C721.419 46.446 722.121 47.447 723.239 47.447ZM729.861 48.5L727.326 41.35H728.86L730.082 45.198C730.277 45.9 730.498 46.628 730.706 47.33H730.758C730.966 46.628 731.187 45.9 731.382 45.198L732.604 41.35H734.06L731.59 48.5H729.861ZM738.273 48.669C736.336 48.669 734.789 47.291 734.789 44.938C734.789 42.611 736.375 41.168 738.052 41.168C739.95 41.168 740.964 42.533 740.964 44.561C740.964 44.847 740.938 45.146 740.899 45.315H736.258C736.375 46.68 737.233 47.499 738.468 47.499C739.105 47.499 739.651 47.304 740.171 46.966L740.691 47.915C740.028 48.357 739.209 48.669 738.273 48.669ZM736.245 44.288H739.677C739.677 43.053 739.118 42.338 738.078 42.338C737.181 42.338 736.388 43.027 736.245 44.288ZM742.646 48.5V41.35H743.868L743.985 42.351H744.024C744.635 41.701 745.35 41.168 746.234 41.168C747.3 41.168 747.898 41.662 748.21 42.481C748.912 41.727 749.64 41.168 750.537 41.168C752.032 41.168 752.734 42.182 752.734 44.002V48.5H751.239V44.184C751.239 42.949 750.849 42.455 750.043 42.455C749.549 42.455 749.029 42.78 748.431 43.43V48.5H746.936V44.184C746.936 42.949 746.559 42.455 745.74 42.455C745.259 42.455 744.726 42.78 744.128 43.43V48.5H742.646ZM757.874 48.669C755.937 48.669 754.39 47.291 754.39 44.938C754.39 42.611 755.976 41.168 757.653 41.168C759.551 41.168 760.565 42.533 760.565 44.561C760.565 44.847 760.539 45.146 760.5 45.315H755.859C755.976 46.68 756.834 47.499 758.069 47.499C758.706 47.499 759.252 47.304 759.772 46.966L760.292 47.915C759.629 48.357 758.81 48.669 757.874 48.669ZM755.846 44.288H759.278C759.278 43.053 758.719 42.338 757.679 42.338C756.782 42.338 755.989 43.027 755.846 44.288ZM762.248 48.5V41.35H763.47L763.587 42.338H763.626C764.289 41.701 765.017 41.168 765.992 41.168C767.513 41.168 768.189 42.182 768.189 44.002V48.5H766.694V44.184C766.694 42.949 766.33 42.455 765.485 42.455C764.822 42.455 764.367 42.793 763.73 43.43V48.5H762.248ZM772.765 48.669C771.153 48.669 770.594 47.668 770.594 46.16V42.546H769.554V41.428L770.659 41.35L770.828 39.374H772.089V41.35H773.948V42.546H772.089V46.173C772.089 47.031 772.388 47.473 773.129 47.473C773.376 47.473 773.688 47.395 773.896 47.304L774.169 48.409C773.766 48.539 773.285 48.669 772.765 48.669ZM705.604 65.5V55.932H708.503C710.635 55.932 712.156 56.66 712.156 58.818C712.156 60.911 710.635 61.873 708.555 61.873H707.112V65.5H705.604ZM707.112 60.664H708.412C709.946 60.664 710.674 60.079 710.674 58.818C710.674 57.557 709.881 57.141 708.36 57.141H707.112V60.664ZM713.891 65.5V58.35H715.113L715.23 59.637H715.269C715.776 58.714 716.53 58.168 717.297 58.168C717.648 58.168 717.882 58.22 718.103 58.324L717.83 59.624C717.583 59.546 717.401 59.507 717.115 59.507C716.53 59.507 715.828 59.91 715.373 61.041V65.5H713.891ZM721.931 65.669C720.163 65.669 718.564 64.304 718.564 61.938C718.564 59.546 720.163 58.168 721.931 58.168C723.699 58.168 725.298 59.546 725.298 61.938C725.298 64.304 723.699 65.669 721.931 65.669ZM721.931 64.447C723.062 64.447 723.764 63.446 723.764 61.938C723.764 60.417 723.062 59.403 721.931 59.403C720.813 59.403 720.111 60.417 720.111 61.938C720.111 63.446 720.813 64.447 721.931 64.447ZM727.056 68.399V58.35H728.278L728.395 59.13H728.434C729.058 58.61 729.838 58.168 730.631 58.168C732.451 58.168 733.465 59.611 733.465 61.808C733.465 64.265 731.996 65.669 730.384 65.669C729.747 65.669 729.11 65.383 728.499 64.863L728.538 66.085V68.399H727.056ZM730.098 64.434C731.138 64.434 731.918 63.511 731.918 61.834C731.918 60.339 731.437 59.416 730.241 59.416C729.682 59.416 729.149 59.702 728.538 60.287V63.784C729.097 64.265 729.656 64.434 730.098 64.434ZM738.105 65.669C736.337 65.669 734.738 64.304 734.738 61.938C734.738 59.546 736.337 58.168 738.105 58.168C739.873 58.168 741.472 59.546 741.472 61.938C741.472 64.304 739.873 65.669 738.105 65.669ZM738.105 64.447C739.236 64.447 739.938 63.446 739.938 61.938C739.938 60.417 739.236 59.403 738.105 59.403C736.987 59.403 736.285 60.417 736.285 61.938C736.285 63.446 736.987 64.447 738.105 64.447ZM745.129 65.669C744.141 65.669 743.127 65.253 742.438 64.681L743.14 63.719C743.777 64.226 744.401 64.538 745.168 64.538C746.026 64.538 746.429 64.122 746.429 63.576C746.429 62.926 745.623 62.64 744.843 62.341C743.894 61.977 742.802 61.47 742.802 60.261C742.802 59.065 743.764 58.168 745.337 58.168C746.299 58.168 747.079 58.558 747.664 59.013L746.962 59.936C746.468 59.572 745.961 59.312 745.363 59.312C744.583 59.312 744.219 59.702 744.219 60.196C744.219 60.807 744.96 61.041 745.74 61.327C746.741 61.704 747.846 62.146 747.846 63.498C747.846 64.694 746.897 65.669 745.129 65.669ZM751.128 65.669C749.893 65.669 749.022 64.863 749.022 63.602C749.022 62.068 750.322 61.275 753.299 60.95C753.286 60.118 752.987 59.39 751.934 59.39C751.18 59.39 750.478 59.728 749.867 60.118L749.308 59.104C750.049 58.636 751.05 58.168 752.194 58.168C753.975 58.168 754.794 59.299 754.794 61.197V65.5H753.572L753.442 64.681H753.403C752.753 65.24 751.986 65.669 751.128 65.669ZM751.583 64.486C752.207 64.486 752.714 64.187 753.299 63.654V61.899C751.18 62.159 750.465 62.692 750.465 63.498C750.465 64.2 750.946 64.486 751.583 64.486ZM758.398 65.669C757.319 65.669 756.916 64.98 756.916 63.823V55.139H758.398V63.901C758.398 64.304 758.58 64.447 758.762 64.447C758.827 64.447 758.879 64.447 759.009 64.421L759.204 65.552C759.022 65.617 758.762 65.669 758.398 65.669ZM708.045 74.141V77.43H709.488C710.879 77.43 711.633 76.858 711.633 75.701C711.633 74.544 710.879 74.141 709.488 74.141H708.045ZM713.466 82.5H711.763L709.592 78.639H708.045V82.5H706.537V72.932H709.67C711.646 72.932 713.128 73.634 713.128 75.701C713.128 77.183 712.335 78.067 711.126 78.444L713.466 82.5ZM717.763 82.669C715.826 82.669 714.279 81.291 714.279 78.938C714.279 76.611 715.865 75.168 717.542 75.168C719.44 75.168 720.454 76.533 720.454 78.561C720.454 78.847 720.428 79.146 720.389 79.315H715.748C715.865 80.68 716.723 81.499 717.958 81.499C718.595 81.499 719.141 81.304 719.661 80.966L720.181 81.915C719.518 82.357 718.699 82.669 717.763 82.669ZM715.735 78.288H719.167C719.167 77.053 718.608 76.338 717.568 76.338C716.671 76.338 715.878 77.027 715.735 78.288ZM723.294 82.5L721.357 75.35H722.865L723.814 79.224C723.957 79.913 724.074 80.576 724.204 81.252H724.256C724.412 80.576 724.555 79.9 724.724 79.224L725.725 75.35H727.116L728.143 79.224C728.312 79.913 728.455 80.576 728.624 81.252H728.676C728.819 80.576 728.936 79.913 729.092 79.224L730.015 75.35H731.419L729.573 82.5H727.779L726.869 78.964C726.7 78.288 726.57 77.638 726.414 76.897H726.349C726.206 77.638 726.076 78.301 725.894 78.977L725.023 82.5H723.294ZM734.453 82.669C733.218 82.669 732.347 81.863 732.347 80.602C732.347 79.068 733.647 78.275 736.624 77.95C736.611 77.118 736.312 76.39 735.259 76.39C734.505 76.39 733.803 76.728 733.192 77.118L732.633 76.104C733.374 75.636 734.375 75.168 735.519 75.168C737.3 75.168 738.119 76.299 738.119 78.197V82.5H736.897L736.767 81.681H736.728C736.078 82.24 735.311 82.669 734.453 82.669ZM734.908 81.486C735.532 81.486 736.039 81.187 736.624 80.654V78.899C734.505 79.159 733.79 79.692 733.79 80.498C733.79 81.2 734.271 81.486 734.908 81.486ZM740.24 82.5V75.35H741.462L741.579 76.637H741.618C742.125 75.714 742.879 75.168 743.646 75.168C743.997 75.168 744.231 75.22 744.452 75.324L744.179 76.624C743.932 76.546 743.75 76.507 743.464 76.507C742.879 76.507 742.177 76.91 741.722 78.041V82.5H740.24ZM747.89 82.669C746.096 82.669 744.939 81.304 744.939 78.938C744.939 76.611 746.408 75.168 748.007 75.168C748.826 75.168 749.346 75.48 749.931 75.974L749.866 74.791V72.139H751.361V82.5H750.139L750.009 81.694H749.97C749.437 82.24 748.696 82.669 747.89 82.669ZM748.241 81.434C748.839 81.434 749.346 81.161 749.866 80.563V77.066C749.333 76.585 748.826 76.416 748.293 76.416C747.292 76.416 746.486 77.365 746.486 78.912C746.486 80.537 747.123 81.434 748.241 81.434ZM755.546 82.669C754.558 82.669 753.544 82.253 752.855 81.681L753.557 80.719C754.194 81.226 754.818 81.538 755.585 81.538C756.443 81.538 756.846 81.122 756.846 80.576C756.846 79.926 756.04 79.64 755.26 79.341C754.311 78.977 753.219 78.47 753.219 77.261C753.219 76.065 754.181 75.168 755.754 75.168C756.716 75.168 757.496 75.558 758.081 76.013L757.379 76.936C756.885 76.572 756.378 76.312 755.78 76.312C755 76.312 754.636 76.702 754.636 77.196C754.636 77.807 755.377 78.041 756.157 78.327C757.158 78.704 758.263 79.146 758.263 80.498C758.263 81.694 757.314 82.669 755.546 82.669Z" fill="white"/>
<circle cx="254" cy="369" r="60" fill="url(#paint4_linear_386_34465)"/>
<circle cx="254" cy="369" r="59.5" stroke="white" stroke-opacity="0.2"/>
<path d="M214.117 357.5V349.193H211.309V347.932H218.446V349.193H215.625V357.5H214.117ZM221.933 357.669C219.996 357.669 218.449 356.291 218.449 353.938C218.449 351.611 220.035 350.168 221.712 350.168C223.61 350.168 224.624 351.533 224.624 353.561C224.624 353.847 224.598 354.146 224.559 354.315H219.918C220.035 355.68 220.893 356.499 222.128 356.499C222.765 356.499 223.311 356.304 223.831 355.966L224.351 356.915C223.688 357.357 222.869 357.669 221.933 357.669ZM219.905 353.288H223.337C223.337 352.053 222.778 351.338 221.738 351.338C220.841 351.338 220.048 352.027 219.905 353.288ZM229.218 357.669C227.281 357.669 225.799 356.304 225.799 353.938C225.799 351.546 227.45 350.168 229.335 350.168C230.245 350.168 230.908 350.532 231.428 350.987L230.687 351.962C230.297 351.611 229.894 351.403 229.4 351.403C228.204 351.403 227.346 352.417 227.346 353.938C227.346 355.446 228.165 356.447 229.361 356.447C229.959 356.447 230.492 356.161 230.921 355.797L231.532 356.785C230.882 357.37 230.037 357.669 229.218 357.669ZM233.022 357.5V347.139H234.504V349.882L234.452 351.299C235.076 350.701 235.791 350.168 236.766 350.168C238.287 350.168 238.963 351.182 238.963 353.002V357.5H237.468V353.184C237.468 351.949 237.104 351.455 236.259 351.455C235.596 351.455 235.141 351.793 234.504 352.43V357.5H233.022ZM241.096 357.5V350.35H242.318L242.435 351.338H242.474C243.137 350.701 243.865 350.168 244.84 350.168C246.361 350.168 247.037 351.182 247.037 353.002V357.5H245.542V353.184C245.542 351.949 245.178 351.455 244.333 351.455C243.67 351.455 243.215 351.793 242.578 352.43V357.5H241.096ZM252.069 357.669C250.301 357.669 248.702 356.304 248.702 353.938C248.702 351.546 250.301 350.168 252.069 350.168C253.837 350.168 255.436 351.546 255.436 353.938C255.436 356.304 253.837 357.669 252.069 357.669ZM252.069 356.447C253.2 356.447 253.902 355.446 253.902 353.938C253.902 352.417 253.2 351.403 252.069 351.403C250.951 351.403 250.249 352.417 250.249 353.938C250.249 355.446 250.951 356.447 252.069 356.447ZM258.676 357.669C257.597 357.669 257.194 356.98 257.194 355.823V347.139H258.676V355.901C258.676 356.304 258.858 356.447 259.04 356.447C259.105 356.447 259.157 356.447 259.287 356.421L259.482 357.552C259.3 357.617 259.04 357.669 258.676 357.669ZM263.926 357.669C262.158 357.669 260.559 356.304 260.559 353.938C260.559 351.546 262.158 350.168 263.926 350.168C265.694 350.168 267.293 351.546 267.293 353.938C267.293 356.304 265.694 357.669 263.926 357.669ZM263.926 356.447C265.057 356.447 265.759 355.446 265.759 353.938C265.759 352.417 265.057 351.403 263.926 351.403C262.808 351.403 262.106 352.417 262.106 353.938C262.106 355.446 262.808 356.447 263.926 356.447ZM271.495 360.711C269.779 360.711 268.531 360.074 268.531 358.826C268.531 358.228 268.908 357.669 269.571 357.266V357.201C269.207 356.98 268.921 356.603 268.921 356.018C268.921 355.459 269.324 354.978 269.714 354.692V354.64C269.233 354.263 268.778 353.587 268.778 352.742C268.778 351.117 270.065 350.168 271.547 350.168C271.95 350.168 272.314 350.246 272.587 350.35H275.122V351.468H273.757C274.03 351.754 274.225 352.235 274.225 352.781C274.225 354.341 273.042 355.238 271.547 355.238C271.222 355.238 270.858 355.16 270.546 355.017C270.312 355.225 270.156 355.433 270.156 355.771C270.156 356.2 270.442 356.473 271.352 356.473H272.665C274.355 356.473 275.239 356.993 275.239 358.215C275.239 359.593 273.783 360.711 271.495 360.711ZM271.547 354.276C272.288 354.276 272.899 353.691 272.899 352.742C272.899 351.78 272.301 351.221 271.547 351.221C270.793 351.221 270.195 351.767 270.195 352.742C270.195 353.691 270.806 354.276 271.547 354.276ZM271.716 359.723C272.964 359.723 273.796 359.112 273.796 358.449C273.796 357.851 273.328 357.669 272.457 357.669H271.378C271.04 357.669 270.715 357.63 270.416 357.565C269.987 357.877 269.805 358.241 269.805 358.605C269.805 359.307 270.533 359.723 271.716 359.723ZM276.567 357.5V350.35H278.049V357.5H276.567ZM277.308 349.011C276.762 349.011 276.359 348.647 276.359 348.127C276.359 347.594 276.762 347.243 277.308 347.243C277.854 347.243 278.27 347.594 278.27 348.127C278.27 348.647 277.854 349.011 277.308 349.011ZM283.211 357.669C281.274 357.669 279.792 356.304 279.792 353.938C279.792 351.546 281.443 350.168 283.328 350.168C284.238 350.168 284.901 350.532 285.421 350.987L284.68 351.962C284.29 351.611 283.887 351.403 283.393 351.403C282.197 351.403 281.339 352.417 281.339 353.938C281.339 355.446 282.158 356.447 283.354 356.447C283.952 356.447 284.485 356.161 284.914 355.797L285.525 356.785C284.875 357.37 284.03 357.669 283.211 357.669ZM288.566 357.669C287.331 357.669 286.46 356.863 286.46 355.602C286.46 354.068 287.76 353.275 290.737 352.95C290.724 352.118 290.425 351.39 289.372 351.39C288.618 351.39 287.916 351.728 287.305 352.118L286.746 351.104C287.487 350.636 288.488 350.168 289.632 350.168C291.413 350.168 292.232 351.299 292.232 353.197V357.5H291.01L290.88 356.681H290.841C290.191 357.24 289.424 357.669 288.566 357.669ZM289.021 356.486C289.645 356.486 290.152 356.187 290.737 355.654V353.899C288.618 354.159 287.903 354.692 287.903 355.498C287.903 356.2 288.384 356.486 289.021 356.486ZM295.835 357.669C294.756 357.669 294.353 356.98 294.353 355.823V347.139H295.835V355.901C295.835 356.304 296.017 356.447 296.199 356.447C296.264 356.447 296.316 356.447 296.446 356.421L296.641 357.552C296.459 357.617 296.199 357.669 295.835 357.669ZM237.843 374.5V364.932H243.498V366.193H239.351V368.858H242.861V370.132H239.351V373.226H243.641V374.5H237.843ZM247.445 374.669C246.457 374.669 245.443 374.253 244.754 373.681L245.456 372.719C246.093 373.226 246.717 373.538 247.484 373.538C248.342 373.538 248.745 373.122 248.745 372.576C248.745 371.926 247.939 371.64 247.159 371.341C246.21 370.977 245.118 370.47 245.118 369.261C245.118 368.065 246.08 367.168 247.653 367.168C248.615 367.168 249.395 367.558 249.98 368.013L249.278 368.936C248.784 368.572 248.277 368.312 247.679 368.312C246.899 368.312 246.535 368.702 246.535 369.196C246.535 369.807 247.276 370.041 248.056 370.327C249.057 370.704 250.162 371.146 250.162 372.498C250.162 373.694 249.213 374.669 247.445 374.669ZM253.691 374.669C252.703 374.669 251.689 374.253 251 373.681L251.702 372.719C252.339 373.226 252.963 373.538 253.73 373.538C254.588 373.538 254.991 373.122 254.991 372.576C254.991 371.926 254.185 371.64 253.405 371.341C252.456 370.977 251.364 370.47 251.364 369.261C251.364 368.065 252.326 367.168 253.899 367.168C254.861 367.168 255.641 367.558 256.226 368.013L255.524 368.936C255.03 368.572 254.523 368.312 253.925 368.312C253.145 368.312 252.781 368.702 252.781 369.196C252.781 369.807 253.522 370.041 254.302 370.327C255.303 370.704 256.408 371.146 256.408 372.498C256.408 373.694 255.459 374.669 253.691 374.669ZM259.69 374.669C258.455 374.669 257.584 373.863 257.584 372.602C257.584 371.068 258.884 370.275 261.861 369.95C261.848 369.118 261.549 368.39 260.496 368.39C259.742 368.39 259.04 368.728 258.429 369.118L257.87 368.104C258.611 367.636 259.612 367.168 260.756 367.168C262.537 367.168 263.356 368.299 263.356 370.197V374.5H262.134L262.004 373.681H261.965C261.315 374.24 260.548 374.669 259.69 374.669ZM260.145 373.486C260.769 373.486 261.276 373.187 261.861 372.654V370.899C259.742 371.159 259.027 371.692 259.027 372.498C259.027 373.2 259.508 373.486 260.145 373.486ZM271.25 367.35L268.624 374.929C268.065 376.463 267.311 377.49 265.803 377.49C265.439 377.49 265.153 377.438 264.906 377.347L265.192 376.177C265.322 376.216 265.53 376.281 265.712 376.281C266.492 376.281 266.947 375.709 267.207 374.942L267.35 374.448L264.516 367.35H266.05L267.376 371.029C267.584 371.666 267.805 372.381 268.026 373.044H268.091L268.65 371.029L269.794 367.35H271.25ZM216.913 391.669C214.508 391.669 212.662 389.875 212.662 386.742C212.662 383.622 214.56 381.75 216.978 381.75C218.174 381.75 219.11 382.322 219.695 382.959L218.876 383.921C218.382 383.414 217.784 383.063 217.004 383.063C215.353 383.063 214.209 384.441 214.209 386.69C214.209 388.965 215.275 390.356 216.965 390.356C217.836 390.356 218.512 389.966 219.084 389.342L219.89 390.291C219.123 391.175 218.148 391.669 216.913 391.669ZM224.317 391.669C222.549 391.669 220.95 390.304 220.95 387.938C220.95 385.546 222.549 384.168 224.317 384.168C226.085 384.168 227.684 385.546 227.684 387.938C227.684 390.304 226.085 391.669 224.317 391.669ZM224.317 390.447C225.448 390.447 226.15 389.446 226.15 387.938C226.15 386.417 225.448 385.403 224.317 385.403C223.199 385.403 222.497 386.417 222.497 387.938C222.497 389.446 223.199 390.447 224.317 390.447ZM229.442 391.5V384.35H230.664L230.781 385.351H230.82C231.431 384.701 232.146 384.168 233.03 384.168C234.096 384.168 234.694 384.662 235.006 385.481C235.708 384.727 236.436 384.168 237.333 384.168C238.828 384.168 239.53 385.182 239.53 387.002V391.5H238.035V387.184C238.035 385.949 237.645 385.455 236.839 385.455C236.345 385.455 235.825 385.78 235.227 386.43V391.5H233.732V387.184C233.732 385.949 233.355 385.455 232.536 385.455C232.055 385.455 231.522 385.78 230.924 386.43V391.5H229.442ZM241.693 394.399V384.35H242.915L243.032 385.13H243.071C243.695 384.61 244.475 384.168 245.268 384.168C247.088 384.168 248.102 385.611 248.102 387.808C248.102 390.265 246.633 391.669 245.021 391.669C244.384 391.669 243.747 391.383 243.136 390.863L243.175 392.085V394.399H241.693ZM244.735 390.434C245.775 390.434 246.555 389.511 246.555 387.834C246.555 386.339 246.074 385.416 244.878 385.416C244.319 385.416 243.786 385.702 243.175 386.287V389.784C243.734 390.265 244.293 390.434 244.735 390.434ZM252.858 391.669C250.921 391.669 249.374 390.291 249.374 387.938C249.374 385.611 250.96 384.168 252.637 384.168C254.535 384.168 255.549 385.533 255.549 387.561C255.549 387.847 255.523 388.146 255.484 388.315H250.843C250.96 389.68 251.818 390.499 253.053 390.499C253.69 390.499 254.236 390.304 254.756 389.966L255.276 390.915C254.613 391.357 253.794 391.669 252.858 391.669ZM250.83 387.288H254.262C254.262 386.053 253.703 385.338 252.663 385.338C251.766 385.338 250.973 386.027 250.83 387.288ZM259.497 391.669C257.885 391.669 257.326 390.668 257.326 389.16V385.546H256.286V384.428L257.391 384.35L257.56 382.374H258.821V384.35H260.68V385.546H258.821V389.173C258.821 390.031 259.12 390.473 259.861 390.473C260.108 390.473 260.42 390.395 260.628 390.304L260.901 391.409C260.498 391.539 260.017 391.669 259.497 391.669ZM262.247 391.5V384.35H263.729V391.5H262.247ZM262.988 383.011C262.442 383.011 262.039 382.647 262.039 382.127C262.039 381.594 262.442 381.243 262.988 381.243C263.534 381.243 263.95 381.594 263.95 382.127C263.95 382.647 263.534 383.011 262.988 383.011ZM268.384 391.669C266.772 391.669 266.213 390.668 266.213 389.16V385.546H265.173V384.428L266.278 384.35L266.447 382.374H267.708V384.35H269.567V385.546H267.708V389.173C267.708 390.031 268.007 390.473 268.748 390.473C268.995 390.473 269.307 390.395 269.515 390.304L269.788 391.409C269.385 391.539 268.904 391.669 268.384 391.669ZM271.133 391.5V384.35H272.615V391.5H271.133ZM271.874 383.011C271.328 383.011 270.925 382.647 270.925 382.127C270.925 381.594 271.328 381.243 271.874 381.243C272.42 381.243 272.836 381.594 272.836 382.127C272.836 382.647 272.42 383.011 271.874 383.011ZM277.726 391.669C275.958 391.669 274.359 390.304 274.359 387.938C274.359 385.546 275.958 384.168 277.726 384.168C279.494 384.168 281.093 385.546 281.093 387.938C281.093 390.304 279.494 391.669 277.726 391.669ZM277.726 390.447C278.857 390.447 279.559 389.446 279.559 387.938C279.559 386.417 278.857 385.403 277.726 385.403C276.608 385.403 275.906 386.417 275.906 387.938C275.906 389.446 276.608 390.447 277.726 390.447ZM282.851 391.5V384.35H284.073L284.19 385.338H284.229C284.892 384.701 285.62 384.168 286.595 384.168C288.116 384.168 288.792 385.182 288.792 387.002V391.5H287.297V387.184C287.297 385.949 286.933 385.455 286.088 385.455C285.425 385.455 284.97 385.793 284.333 386.43V391.5H282.851ZM292.901 391.669C291.913 391.669 290.899 391.253 290.21 390.681L290.912 389.719C291.549 390.226 292.173 390.538 292.94 390.538C293.798 390.538 294.201 390.122 294.201 389.576C294.201 388.926 293.395 388.64 292.615 388.341C291.666 387.977 290.574 387.47 290.574 386.261C290.574 385.065 291.536 384.168 293.109 384.168C294.071 384.168 294.851 384.558 295.436 385.013L294.734 385.936C294.24 385.572 293.733 385.312 293.135 385.312C292.355 385.312 291.991 385.702 291.991 386.196C291.991 386.807 292.732 387.041 293.512 387.327C294.513 387.704 295.618 388.146 295.618 389.498C295.618 390.694 294.669 391.669 292.901 391.669Z" fill="white"/>
<circle cx="732" cy="369" r="60" fill="url(#paint5_linear_386_34465)"/>
<circle cx="732" cy="369" r="59.5" stroke="white" stroke-opacity="0.2"/>
<path d="M687.875 374V364.432H690.774C692.906 364.432 694.427 365.16 694.427 367.318C694.427 369.411 692.906 370.373 690.826 370.373H689.383V374H687.875ZM689.383 369.164H690.683C692.217 369.164 692.945 368.579 692.945 367.318C692.945 366.057 692.152 365.641 690.631 365.641H689.383V369.164ZM697.268 374.169C696.033 374.169 695.162 373.363 695.162 372.102C695.162 370.568 696.462 369.775 699.439 369.45C699.426 368.618 699.127 367.89 698.074 367.89C697.32 367.89 696.618 368.228 696.007 368.618L695.448 367.604C696.189 367.136 697.19 366.668 698.334 366.668C700.115 366.668 700.934 367.799 700.934 369.697V374H699.712L699.582 373.181H699.543C698.893 373.74 698.126 374.169 697.268 374.169ZM697.723 372.986C698.347 372.986 698.854 372.687 699.439 372.154V370.399C697.32 370.659 696.605 371.192 696.605 371.998C696.605 372.7 697.086 372.986 697.723 372.986ZM705.245 374.169C703.633 374.169 703.074 373.168 703.074 371.66V368.046H702.034V366.928L703.139 366.85L703.308 364.874H704.569V366.85H706.428V368.046H704.569V371.673C704.569 372.531 704.868 372.973 705.609 372.973C705.856 372.973 706.168 372.895 706.376 372.804L706.649 373.909C706.246 374.039 705.765 374.169 705.245 374.169ZM710.755 374.169C708.818 374.169 707.271 372.791 707.271 370.438C707.271 368.111 708.857 366.668 710.534 366.668C712.432 366.668 713.446 368.033 713.446 370.061C713.446 370.347 713.42 370.646 713.381 370.815H708.74C708.857 372.18 709.715 372.999 710.95 372.999C711.587 372.999 712.133 372.804 712.653 372.466L713.173 373.415C712.51 373.857 711.691 374.169 710.755 374.169ZM708.727 369.788H712.159C712.159 368.553 711.6 367.838 710.56 367.838C709.663 367.838 708.87 368.527 708.727 369.788ZM715.129 374V366.85H716.351L716.468 367.838H716.507C717.17 367.201 717.898 366.668 718.873 366.668C720.394 366.668 721.07 367.682 721.07 369.502V374H719.575V369.684C719.575 368.449 719.211 367.955 718.366 367.955C717.703 367.955 717.248 368.293 716.611 368.93V374H715.129ZM725.646 374.169C724.034 374.169 723.475 373.168 723.475 371.66V368.046H722.435V366.928L723.54 366.85L723.709 364.874H724.97V366.85H726.829V368.046H724.97V371.673C724.97 372.531 725.269 372.973 726.01 372.973C726.257 372.973 726.569 372.895 726.777 372.804L727.05 373.909C726.647 374.039 726.166 374.169 725.646 374.169ZM732.954 365.641V368.93H734.397C735.788 368.93 736.542 368.358 736.542 367.201C736.542 366.044 735.788 365.641 734.397 365.641H732.954ZM738.375 374H736.672L734.501 370.139H732.954V374H731.446V364.432H734.579C736.555 364.432 738.037 365.134 738.037 367.201C738.037 368.683 737.244 369.567 736.035 369.944L738.375 374ZM742.671 374.169C740.734 374.169 739.187 372.791 739.187 370.438C739.187 368.111 740.773 366.668 742.45 366.668C744.348 366.668 745.362 368.033 745.362 370.061C745.362 370.347 745.336 370.646 745.297 370.815H740.656C740.773 372.18 741.631 372.999 742.866 372.999C743.503 372.999 744.049 372.804 744.569 372.466L745.089 373.415C744.426 373.857 743.607 374.169 742.671 374.169ZM740.643 369.788H744.075C744.075 368.553 743.516 367.838 742.476 367.838C741.579 367.838 740.786 368.527 740.643 369.788ZM748.202 374L746.265 366.85H747.773L748.722 370.724C748.865 371.413 748.982 372.076 749.112 372.752H749.164C749.32 372.076 749.463 371.4 749.632 370.724L750.633 366.85H752.024L753.051 370.724C753.22 371.413 753.363 372.076 753.532 372.752H753.584C753.727 372.076 753.844 371.413 754 370.724L754.923 366.85H756.327L754.481 374H752.687L751.777 370.464C751.608 369.788 751.478 369.138 751.322 368.397H751.257C751.114 369.138 750.984 369.801 750.802 370.477L749.931 374H748.202ZM759.361 374.169C758.126 374.169 757.255 373.363 757.255 372.102C757.255 370.568 758.555 369.775 761.532 369.45C761.519 368.618 761.22 367.89 760.167 367.89C759.413 367.89 758.711 368.228 758.1 368.618L757.541 367.604C758.282 367.136 759.283 366.668 760.427 366.668C762.208 366.668 763.027 367.799 763.027 369.697V374H761.805L761.675 373.181H761.636C760.986 373.74 760.219 374.169 759.361 374.169ZM759.816 372.986C760.44 372.986 760.947 372.687 761.532 372.154V370.399C759.413 370.659 758.698 371.192 758.698 371.998C758.698 372.7 759.179 372.986 759.816 372.986ZM765.149 374V366.85H766.371L766.488 368.137H766.527C767.034 367.214 767.788 366.668 768.555 366.668C768.906 366.668 769.14 366.72 769.361 366.824L769.088 368.124C768.841 368.046 768.659 368.007 768.373 368.007C767.788 368.007 767.086 368.41 766.631 369.541V374H765.149ZM772.798 374.169C771.004 374.169 769.847 372.804 769.847 370.438C769.847 368.111 771.316 366.668 772.915 366.668C773.734 366.668 774.254 366.98 774.839 367.474L774.774 366.291V363.639H776.269V374H775.047L774.917 373.194H774.878C774.345 373.74 773.604 374.169 772.798 374.169ZM773.149 372.934C773.747 372.934 774.254 372.661 774.774 372.063V368.566C774.241 368.085 773.734 367.916 773.201 367.916C772.2 367.916 771.394 368.865 771.394 370.412C771.394 372.037 772.031 372.934 773.149 372.934Z" fill="white"/>
<circle cx="490.999" cy="214.999" r="136.624" stroke="#F6F6F6"/>
<circle cx="491" cy="215" r="165" stroke="#F6F6F6" stroke-width="4"/>
<circle cx="491.002" cy="215.002" r="128.697" fill="#F6F6F6"/>
<g filter="url(#filter0_d_386_34465)">
<circle cx="491" cy="215" r="111.844" fill="white"/>
</g>
<path d="M408.274 209V195.752H410.668L413.098 202.448C413.404 203.33 413.674 204.23 413.98 205.13H414.07C414.376 204.23 414.628 203.33 414.934 202.448L417.328 195.752H419.74V209H417.796V202.448C417.796 201.26 417.958 199.55 418.066 198.344H417.994L416.932 201.404L414.628 207.722H413.332L411.01 201.404L409.966 198.344H409.894C409.984 199.55 410.146 201.26 410.146 202.448V209H408.274ZM427.158 209.234C424.476 209.234 422.334 207.326 422.334 204.068C422.334 200.846 424.53 198.848 426.852 198.848C429.48 198.848 430.884 200.738 430.884 203.546C430.884 203.942 430.848 204.356 430.794 204.59H424.368C424.53 206.48 425.718 207.614 427.428 207.614C428.31 207.614 429.066 207.344 429.786 206.876L430.506 208.19C429.588 208.802 428.454 209.234 427.158 209.234ZM424.35 203.168H429.102C429.102 201.458 428.328 200.468 426.888 200.468C425.646 200.468 424.548 201.422 424.35 203.168ZM437.245 209.234C434.563 209.234 432.511 207.344 432.511 204.068C432.511 200.756 434.797 198.848 437.407 198.848C438.667 198.848 439.585 199.352 440.305 199.982L439.279 201.332C438.739 200.846 438.181 200.558 437.497 200.558C435.841 200.558 434.653 201.962 434.653 204.068C434.653 206.156 435.787 207.542 437.443 207.542C438.271 207.542 439.009 207.146 439.603 206.642L440.449 208.01C439.549 208.82 438.379 209.234 437.245 209.234ZM442.512 209V194.654H444.564V198.452L444.492 200.414C445.356 199.586 446.346 198.848 447.696 198.848C449.802 198.848 450.738 200.252 450.738 202.772V209H448.668V203.024C448.668 201.314 448.164 200.63 446.994 200.63C446.076 200.63 445.446 201.098 444.564 201.98V209H442.512ZM456.032 209.234C454.322 209.234 453.116 208.118 453.116 206.372C453.116 204.248 454.916 203.15 459.038 202.7C459.02 201.548 458.606 200.54 457.148 200.54C456.104 200.54 455.132 201.008 454.286 201.548L453.512 200.144C454.538 199.496 455.924 198.848 457.508 198.848C459.974 198.848 461.108 200.414 461.108 203.042V209H459.416L459.236 207.866H459.182C458.282 208.64 457.22 209.234 456.032 209.234ZM456.662 207.596C457.526 207.596 458.228 207.182 459.038 206.444V204.014C456.104 204.374 455.114 205.112 455.114 206.228C455.114 207.2 455.78 207.596 456.662 207.596ZM464.045 209V199.1H465.737L465.899 200.468H465.953C466.871 199.586 467.879 198.848 469.229 198.848C471.335 198.848 472.271 200.252 472.271 202.772V209H470.201V203.024C470.201 201.314 469.697 200.63 468.527 200.63C467.609 200.63 466.979 201.098 466.097 201.98V209H464.045ZM475.278 209V199.1H477.33V209H475.278ZM476.304 197.246C475.548 197.246 474.99 196.742 474.99 196.022C474.99 195.284 475.548 194.798 476.304 194.798C477.06 194.798 477.636 195.284 477.636 196.022C477.636 196.742 477.06 197.246 476.304 197.246ZM483.128 209.234C481.76 209.234 480.356 208.658 479.402 207.866L480.374 206.534C481.256 207.236 482.12 207.668 483.182 207.668C484.37 207.668 484.928 207.092 484.928 206.336C484.928 205.436 483.812 205.04 482.732 204.626C481.418 204.122 479.906 203.42 479.906 201.746C479.906 200.09 481.238 198.848 483.416 198.848C484.748 198.848 485.828 199.388 486.638 200.018L485.666 201.296C484.982 200.792 484.28 200.432 483.452 200.432C482.372 200.432 481.868 200.972 481.868 201.656C481.868 202.502 482.894 202.826 483.974 203.222C485.36 203.744 486.89 204.356 486.89 206.228C486.89 207.884 485.576 209.234 483.128 209.234ZM489.094 209V199.1H490.786L490.948 200.486H491.002C491.848 199.586 492.838 198.848 494.062 198.848C495.538 198.848 496.366 199.532 496.798 200.666C497.77 199.622 498.778 198.848 500.02 198.848C502.09 198.848 503.062 200.252 503.062 202.772V209H500.992V203.024C500.992 201.314 500.452 200.63 499.336 200.63C498.652 200.63 497.932 201.08 497.104 201.98V209H495.034V203.024C495.034 201.314 494.512 200.63 493.378 200.63C492.712 200.63 491.974 201.08 491.146 201.98V209H489.094ZM513.43 209.234C511.198 209.234 510.424 207.848 510.424 205.76V200.756H508.984V199.208L510.514 199.1L510.748 196.364H512.494V199.1H515.068V200.756H512.494V205.778C512.494 206.966 512.908 207.578 513.934 207.578C514.276 207.578 514.708 207.47 514.996 207.344L515.374 208.874C514.816 209.054 514.15 209.234 513.43 209.234ZM520.898 209.234C518.45 209.234 516.236 207.344 516.236 204.068C516.236 200.756 518.45 198.848 520.898 198.848C523.346 198.848 525.56 200.756 525.56 204.068C525.56 207.344 523.346 209.234 520.898 209.234ZM520.898 207.542C522.464 207.542 523.436 206.156 523.436 204.068C523.436 201.962 522.464 200.558 520.898 200.558C519.35 200.558 518.378 201.962 518.378 204.068C518.378 206.156 519.35 207.542 520.898 207.542ZM532.218 209V195.752H535.656C539.724 195.752 542.046 198.002 542.046 202.322C542.046 206.624 539.724 209 535.764 209H532.218ZM534.306 207.29H535.512C538.356 207.29 539.886 205.616 539.886 202.322C539.886 199.01 538.356 197.444 535.512 197.444H534.306V207.29ZM544.624 209V199.1H546.316L546.478 200.882H546.532C547.234 199.604 548.278 198.848 549.34 198.848C549.826 198.848 550.15 198.92 550.456 199.064L550.078 200.864C549.736 200.756 549.484 200.702 549.088 200.702C548.278 200.702 547.306 201.26 546.676 202.826V209H544.624ZM551.989 209V199.1H554.041V209H551.989ZM553.015 197.246C552.259 197.246 551.701 196.742 551.701 196.022C551.701 195.284 552.259 194.798 553.015 194.798C553.771 194.798 554.347 195.284 554.347 196.022C554.347 196.742 553.771 197.246 553.015 197.246ZM559.335 209L555.825 199.1H557.949L559.641 204.428C559.911 205.4 560.217 206.408 560.505 207.38H560.577C560.865 206.408 561.171 205.4 561.441 204.428L563.133 199.1H565.149L561.729 209H559.335ZM570.982 209.234C568.3 209.234 566.158 207.326 566.158 204.068C566.158 200.846 568.354 198.848 570.676 198.848C573.304 198.848 574.708 200.738 574.708 203.546C574.708 203.942 574.672 204.356 574.618 204.59H568.192C568.354 206.48 569.542 207.614 571.252 207.614C572.134 207.614 572.89 207.344 573.61 206.876L574.33 208.19C573.412 208.802 572.278 209.234 570.982 209.234ZM568.174 203.168H572.926C572.926 201.458 572.152 200.468 570.712 200.468C569.47 200.468 568.372 201.422 568.174 203.168ZM446.234 236V222.752H448.322V236H446.234ZM451.609 236V226.1H453.301L453.463 227.468H453.517C454.435 226.586 455.443 225.848 456.793 225.848C458.899 225.848 459.835 227.252 459.835 229.772V236H457.765V230.024C457.765 228.314 457.261 227.63 456.091 227.63C455.173 227.63 454.543 228.098 453.661 228.98V236H451.609ZM462.841 236V226.1H464.533L464.695 227.468H464.749C465.667 226.586 466.675 225.848 468.025 225.848C470.131 225.848 471.067 227.252 471.067 229.772V236H468.997V230.024C468.997 228.314 468.493 227.63 467.323 227.63C466.405 227.63 465.775 228.098 464.893 228.98V236H462.841ZM478.034 236.234C475.586 236.234 473.372 234.344 473.372 231.068C473.372 227.756 475.586 225.848 478.034 225.848C480.482 225.848 482.696 227.756 482.696 231.068C482.696 234.344 480.482 236.234 478.034 236.234ZM478.034 234.542C479.6 234.542 480.572 233.156 480.572 231.068C480.572 228.962 479.6 227.558 478.034 227.558C476.486 227.558 475.514 228.962 475.514 231.068C475.514 233.156 476.486 234.542 478.034 234.542ZM487.203 236L483.693 226.1H485.817L487.509 231.428C487.779 232.4 488.085 233.408 488.373 234.38H488.445C488.733 233.408 489.039 232.4 489.309 231.428L491.001 226.1H493.017L489.597 236H487.203ZM496.769 236.234C495.059 236.234 493.853 235.118 493.853 233.372C493.853 231.248 495.653 230.15 499.775 229.7C499.757 228.548 499.343 227.54 497.885 227.54C496.841 227.54 495.869 228.008 495.023 228.548L494.249 227.144C495.275 226.496 496.661 225.848 498.245 225.848C500.711 225.848 501.845 227.414 501.845 230.042V236H500.153L499.973 234.866H499.919C499.019 235.64 497.957 236.234 496.769 236.234ZM497.399 234.596C498.263 234.596 498.965 234.182 499.775 233.444V231.014C496.841 231.374 495.851 232.112 495.851 233.228C495.851 234.2 496.517 234.596 497.399 234.596ZM507.814 236.234C505.582 236.234 504.808 234.848 504.808 232.76V227.756H503.368V226.208L504.898 226.1L505.132 223.364H506.878V226.1H509.452V227.756H506.878V232.778C506.878 233.966 507.292 234.578 508.318 234.578C508.66 234.578 509.092 234.47 509.38 234.344L509.758 235.874C509.2 236.054 508.534 236.234 507.814 236.234ZM511.621 236V226.1H513.673V236H511.621ZM512.647 224.246C511.891 224.246 511.333 223.742 511.333 223.022C511.333 222.284 511.891 221.798 512.647 221.798C513.403 221.798 513.979 222.284 513.979 223.022C513.979 223.742 513.403 224.246 512.647 224.246ZM520.749 236.234C518.301 236.234 516.087 234.344 516.087 231.068C516.087 227.756 518.301 225.848 520.749 225.848C523.197 225.848 525.411 227.756 525.411 231.068C525.411 234.344 523.197 236.234 520.749 236.234ZM520.749 234.542C522.315 234.542 523.287 233.156 523.287 231.068C523.287 228.962 522.315 227.558 520.749 227.558C519.201 227.558 518.229 228.962 518.229 231.068C518.229 233.156 519.201 234.542 520.749 234.542ZM527.845 236V226.1H529.537L529.699 227.468H529.753C530.671 226.586 531.679 225.848 533.029 225.848C535.135 225.848 536.071 227.252 536.071 229.772V236H534.001V230.024C534.001 228.314 533.497 227.63 532.327 227.63C531.409 227.63 530.779 228.098 529.897 228.98V236H527.845Z" fill="black"/>
<g clip-path="url(#clip0_386_34465)">
<path d="M252.162 254.209V289.514C249.745 290.223 248 292.453 248 295.122C248 298.365 250.618 301 253.84 301C257.062 301 259.679 298.365 259.679 295.122C259.679 292.453 257.901 290.257 255.518 289.514V254.209C255.518 243.264 264.344 234.378 275.218 234.378H410V231H275.218C262.498 231 252.162 241.405 252.162 254.209Z" fill="#F6F6F6"/>
<path d="M252.162 139.486V174.791C252.162 187.595 262.498 198 275.218 198H410V194.622H275.218C264.344 194.622 255.518 185.736 255.518 174.791V139.486C257.934 138.743 259.679 136.547 259.679 133.878C259.679 130.635 257.062 128 253.84 128C250.618 128 248 130.635 248 133.878C248 136.547 249.779 138.743 252.162 139.486Z" fill="#F6F6F6"/>
<path d="M153.856 208C150.625 208 148 210.914 148 214.5C148 218.086 150.625 221 153.856 221C156.515 221 158.703 219.02 159.443 216.368H408V212.632H159.443C158.703 209.943 156.515 208 153.856 208Z" fill="#F6F6F6"/>
</g>
<g clip-path="url(#clip1_386_34465)">
<path d="M729.838 254.209V289.514C732.255 290.223 734 292.453 734 295.122C734 298.365 731.382 301 728.16 301C724.938 301 722.321 298.365 722.321 295.122C722.321 292.453 724.099 290.257 726.482 289.514V254.209C726.482 243.264 717.656 234.378 706.782 234.378H572V231H706.782C719.502 231 729.838 241.405 729.838 254.209Z" fill="#F6F6F6"/>
<path d="M729.838 139.486V174.791C729.838 187.595 719.502 198 706.782 198H572V194.622H706.782C717.656 194.622 726.482 185.736 726.482 174.791V139.486C724.066 138.743 722.321 136.547 722.321 133.878C722.321 130.635 724.938 128 728.16 128C731.382 128 734 130.635 734 133.878C734 136.547 732.221 138.743 729.838 139.486Z" fill="#F6F6F6"/>
<path d="M828.144 208C831.375 208 834 210.914 834 214.5C834 218.086 831.375 221 828.144 221C825.485 221 823.297 219.02 822.557 216.368H574V212.632H822.557C823.297 209.943 825.485 208 828.144 208Z" fill="#F6F6F6"/>
</g>
<defs>
<filter id="filter0_d_386_34465" x="359.156" y="83.1562" width="263.688" height="263.688" filterUnits="userSpaceOnUse" color-interpolation-filters="sRGB">
<feFlood flood-opacity="0" result="BackgroundImageFix"/>
<feColorMatrix in="SourceAlpha" type="matrix" values="0 0 0 0 0 0 0 0 0 0 0 0 0 0 0 0 0 0 127 0" result="hardAlpha"/>
<feOffset/>
<feGaussianBlur stdDeviation="10"/>
<feComposite in2="hardAlpha" operator="out"/>
<feColorMatrix type="matrix" values="0 0 0 0 0 0 0 0 0 0.529412 0 0 0 0 0.690196 0 0 0 0.15 0"/>
<feBlend mode="normal" in2="BackgroundImageFix" result="effect1_dropShadow_386_34465"/>
<feBlend mode="normal" in="SourceGraphic" in2="effect1_dropShadow_386_34465" result="shape"/>
</filter>
<linearGradient id="paint0_linear_386_34465" x1="70" y1="145" x2="70" y2="285" gradientUnits="userSpaceOnUse">
<stop stop-color="#859FD1"/>
<stop offset="1" stop-color="#4985C6"/>
</linearGradient>
<linearGradient id="paint1_linear_386_34465" x1="916" y1="145" x2="916" y2="285" gradientUnits="userSpaceOnUse">
<stop stop-color="#859FD1"/>
<stop offset="1" stop-color="#4985C6"/>
</linearGradient>
<linearGradient id="paint2_linear_386_34465" x1="254" y1="0" x2="254" y2="120" gradientUnits="userSpaceOnUse">
<stop stop-color="#0756AA"/>
<stop offset="1" stop-color="#17418F"/>
</linearGradient>
<linearGradient id="paint3_linear_386_34465" x1="732" y1="0" x2="732" y2="120" gradientUnits="userSpaceOnUse">
<stop stop-color="#0756AA"/>
<stop offset="1" stop-color="#17418F"/>
</linearGradient>
<linearGradient id="paint4_linear_386_34465" x1="254" y1="309" x2="254" y2="429" gradientUnits="userSpaceOnUse">
<stop stop-color="#0756AA"/>
<stop offset="1" stop-color="#17418F"/>
</linearGradient>
<linearGradient id="paint5_linear_386_34465" x1="732" y1="309" x2="732" y2="429" gradientUnits="userSpaceOnUse">
<stop stop-color="#0756AA"/>
<stop offset="1" stop-color="#17418F"/>
</linearGradient>
<clipPath id="clip0_386_34465">
<rect width="176" height="173" fill="white" transform="translate(148 128)"/>
</clipPath>
<clipPath id="clip1_386_34465">
<rect width="176" height="173" fill="white" transform="matrix(-1 0 0 1 834 128)"/>
</clipPath>
</defs>
</svg>
