<svg width="48" height="48" viewBox="0 0 48 48" fill="none" xmlns="http://www.w3.org/2000/svg">
<path fill-rule="evenodd" clip-rule="evenodd" d="M24 46C36.1503 46 46 36.1503 46 24C46 11.8497 36.1503 2 24 2C11.8497 2 2 11.8497 2 24C2 36.1503 11.8497 46 24 46ZM24 48C37.2548 48 48 37.2548 48 24C48 10.7452 37.2548 0 24 0C10.7452 0 0 10.7452 0 24C0 37.2548 10.7452 48 24 48Z" fill="white"/>
<path fill-rule="evenodd" clip-rule="evenodd" d="M24.0001 13.2C23.3722 13.2 22.8632 13.7089 22.8632 14.3368V22.863H14.3368C13.7089 22.863 13.2 23.372 13.2 23.9998C13.2 24.6277 13.7089 25.1367 14.3368 25.1367H22.8632V33.6631C22.8632 34.291 23.3722 34.8 24.0001 34.8C24.6279 34.8 25.1369 34.291 25.1369 33.6631V25.1367H33.6631C34.291 25.1367 34.8 24.6277 34.8 23.9998C34.8 23.372 34.291 22.863 33.6631 22.863H25.1369V14.3368C25.1369 13.7089 24.6279 13.2 24.0001 13.2Z" fill="white"/>
</svg>
