<svg width="30" height="30" viewBox="0 0 30 30" fill="none" xmlns="http://www.w3.org/2000/svg">
<path d="M10.5926 21V13C10.5926 12.7348 10.4833 12.4804 10.2889 12.2929C10.0944 12.1054 9.8306 12 9.55556 12C9.28052 12 9.01674 12.1054 8.82226 12.2929C8.62778 12.4804 8.51852 12.7348 8.51852 13V21C8.51852 21.2652 8.62778 21.5196 8.82226 21.7071C9.01674 21.8946 9.28052 22 9.55556 22C9.8306 22 10.0944 21.8946 10.2889 21.7071C10.4833 21.5196 10.5926 21.2652 10.5926 21Z" fill="white"/>
<path d="M22 21V16.5C21.9997 15.6825 21.7685 14.8806 21.3313 14.1803C20.894 13.48 20.2671 12.9078 19.5181 12.5251C18.769 12.1424 17.9259 11.9637 17.0794 12.0081C16.233 12.0526 15.4151 12.3186 14.7135 12.7775C14.6557 12.539 14.5091 12.3292 14.3016 12.188C14.094 12.0468 13.8399 11.9839 13.5875 12.0114C13.3351 12.0388 13.1019 12.1546 12.9322 12.3369C12.7624 12.5191 12.668 12.7551 12.6667 13V21C12.6667 21.2652 12.7759 21.5196 12.9704 21.7071C13.1649 21.8946 13.4287 22 13.7037 22C13.9787 22 14.2425 21.8946 14.437 21.7071C14.6315 21.5196 14.7407 21.2652 14.7407 21V16.5C14.7407 15.837 15.0139 15.2011 15.5001 14.7322C15.9863 14.2634 16.6457 14 17.3333 14C18.0209 14 18.6804 14.2634 19.1666 14.7322C19.6528 15.2011 19.9259 15.837 19.9259 16.5V21C19.9259 21.2652 20.0352 21.5196 20.2297 21.7071C20.4241 21.8946 20.6879 22 20.963 22C21.238 22 21.5018 21.8946 21.6963 21.7071C21.8907 21.5196 22 21.2652 22 21Z" fill="white"/>
<path d="M10.849 10.3334C11.0199 10.0867 11.1111 9.79667 11.1111 9.5C11.1111 9.10218 10.9472 8.72064 10.6555 8.43934C10.3638 8.15804 9.96811 8 9.55556 8C9.2479 8 8.94715 8.08797 8.69134 8.2528C8.43553 8.41762 8.23615 8.65189 8.11841 8.92597C8.00067 9.20006 7.96987 9.50166 8.02989 9.79264C8.08991 10.0836 8.23806 10.3509 8.45561 10.5607C8.67316 10.7704 8.95033 10.9133 9.25208 10.9712C9.55383 11.0291 9.8666 10.9994 10.1508 10.8858C10.4351 10.7723 10.678 10.58 10.849 10.3334Z" fill="white"/>
<path d="M24.0002 28.2999H6.0002C3.6002 28.2999 1.7002 26.4 1.7002 24V5.99995C1.7002 3.59995 3.6002 1.69995 6.0002 1.69995H24.0002C26.4002 1.69995 28.3002 3.59995 28.3002 5.99995V24C28.3002 26.4 26.4002 28.2999 24.0002 28.2999ZM6.0002 3.59995C4.7002 3.59995 3.6002 4.69995 3.6002 5.99995V24C3.6002 25.2999 4.7002 26.4 6.0002 26.4H24.0002C25.3002 26.4 26.4002 25.2999 26.4002 24V5.99995C26.4002 4.69995 25.3002 3.59995 24.0002 3.59995H6.0002Z" fill="white"/>
</svg>
