<svg width="60" height="60" viewBox="0 0 60 60" fill="none" xmlns="http://www.w3.org/2000/svg">
<path d="M60 30C60 46.5655 46.5655 60 30 60C13.4345 60 0 46.5655 0 30C0 13.4345 13.4156 0 29.981 0C46.5465 0 59.981 13.4345 59.981 30" fill="#F5E8EB"/>
<g clip-path="url(#clip0_1815_40922)">
<path d="M35.3822 17.4217C35.3822 20.4196 32.9704 22.8434 29.9873 22.8434C27.0042 22.8434 24.5924 20.4196 24.5924 17.4217C24.5924 14.4238 27.0042 12 29.9746 12C32.945 12 35.3695 14.4238 35.3695 17.4217" fill="#DAABB8"/>
<path d="M29.9365 19.3864C29.378 19.3864 28.7941 19.1823 28.3244 18.774L27.8167 19.5267C28.2863 19.9732 29.0607 20.2283 29.6827 20.2921V21.2489H30.4316V20.2666C31.5233 20.1135 32.1199 19.4757 32.1199 18.5954C32.1199 16.7457 29.1241 17.0646 29.1241 16.1206C29.1241 15.6869 29.5049 15.47 30.0762 15.47C30.5966 15.47 31.0536 15.6741 31.5106 16.0441L32.0691 15.3679C31.6248 14.9725 31.1298 14.6663 30.4316 14.577V13.5947H29.6827V14.5643C28.6798 14.6791 28.0451 15.2786 28.0451 16.1844C28.0451 17.9959 31.0409 17.6897 31.0409 18.6847C31.0409 19.1312 30.6982 19.3736 29.9238 19.3736" fill="#BD5784"/>
<path d="M19.756 15.5337L20.2257 16.0057C21.2412 17.0263 21.2412 18.6719 20.2257 19.6925L19.756 20.1645C18.7405 21.185 17.103 21.185 16.0875 20.1645L15.6178 19.6925C14.6023 18.6719 14.6023 17.0263 15.6178 16.0057L16.0875 15.5337C17.103 14.5132 18.7405 14.5132 19.756 15.5337Z" fill="#DAABB8"/>
<path d="M24.8463 23.0347L21.952 23.0474H12L13.9041 39.7717H15.8336L16.6714 47.9999H19.1721L19.9972 39.7717H22.1298L23.0945 31.3522L23.8561 36.8376H30V33.9673H26.3441L24.8463 23.0347Z" fill="#BD5784"/>
<path d="M44.3822 16.0057L43.9126 15.5337C42.897 14.5132 41.2595 14.5132 40.244 15.5337L39.7743 16.0057C38.7588 17.0263 38.7588 18.6719 39.7743 19.6925L40.244 20.1645C41.2595 21.185 42.897 21.185 43.9126 20.1645L44.3822 19.6925C45.3977 18.6719 45.3977 17.0263 44.3822 16.0057Z" fill="#BD5784"/>
<path d="M38.048 23.0474L35.1537 23.0347L33.6559 33.9673H30V36.8376H36.1439L36.9055 31.3522L37.8702 39.7717H40.0028L40.8279 47.9999H43.3286L44.1664 39.7717H46.0959L48 23.0474H38.048Z" fill="#DAABB8"/>
</g>
<defs>
<clipPath id="clip0_1815_40922">
<rect width="36" height="36" fill="white" transform="translate(12 12)"/>
</clipPath>
</defs>
</svg>
