<svg xmlns="http://www.w3.org/2000/svg" width="53" height="56" viewBox="0 0 53 56">
    <g fill="none" fill-rule="evenodd">
        <g fill-rule="nonzero">
            <g>
                <g>
                    <g>
                        <g>
                            <g>
                                <path fill="#898890" d="M1.874 38.968L0.05 42.127 23.734 55.835 52.95 38.968 51.126 35.864 29.219 23.17z" transform="translate(-649 -1232) translate(400 1142) translate(238 90) translate(11)"/>
                                <path fill="#E0E0E2" d="M1.874 38.968L0.05 42.127 23.734 55.835 23.764 51.606z" transform="translate(-649 -1232) translate(400 1142) translate(238 90) translate(11)"/>
                                <g fill="#D8D8DA">
                                    <path d="M18.609 20.284L47.825 3.416 46.001.313 18.638 16.054zM4.46 2.704V1.3v-.005h-.001C4.458.97 4.245.646 3.82.4 2.967-.095 1.57-.096.715.397.287.644.074.97.073 1.295v1.408c0 .326.213.65.64.898.854.492 2.251.494 3.105.002.429-.247.642-.573.641-.9z" transform="translate(-649 -1232) translate(400 1142) translate(238 90) translate(11) translate(5.126 35.551)"/>
                                </g>
                                <path fill="#E0E0E2" d="M5.839 37.743c-.854-.493-.853-1.3.002-1.794s2.252-.493 3.105.002c.853.495.852 1.302-.002 1.794s-2.251.49-3.105-.002z" transform="translate(-649 -1232) translate(400 1142) translate(238 90) translate(11)"/>
                                <g fill="#D8D8DA">
                                    <path d="M2.692 16.89V.052H.096V16.89c0 .193.126.385.378.531.506.292 1.333.293 1.839.002.253-.147.38-.34.38-.533zM9.48 15.609v-1.404-.005c0-.325-.214-.649-.639-.895-.852-.495-2.25-.496-3.105-.003-.427.247-.641.572-.642.898v1.408c0 .325.213.65.64.897.854.493 2.251.494 3.105.003.429-.247.642-.573.641-.9z" transform="translate(-649 -1232) translate(400 1142) translate(238 90) translate(11) translate(5.998 19.957)"/>
                                </g>
                                <path fill="#E0E0E2" d="M11.732 35.053c-.854-.493-.853-1.3.002-1.794s2.253-.493 3.105.002c.853.495.852 1.303-.002 1.794-.854.492-2.25.49-3.105-.002z" transform="translate(-649 -1232) translate(400 1142) translate(238 90) translate(11)"/>
                                <path fill="#ACABB1" d="M23.764 43.18L41.916 32.7 41.916 15.972 23.764 26.442z" transform="translate(-649 -1232) translate(400 1142) translate(238 90) translate(11)"/>
                                <path fill="#C6C5CB" d="M12.721 36.918L12.721 20.067 23.764 26.442 23.764 43.18z" transform="translate(-649 -1232) translate(400 1142) translate(238 90) translate(11)"/>
                                <path fill="#23662F" d="M16.467 39.042L16.467 31.977 20.115 34.083 20.083 41.093z" transform="translate(-649 -1232) translate(400 1142) translate(238 90) translate(11)"/>
                                <path fill="#D8D8DA" d="M15.032 41.43v-1.405-.004c0-.325-.214-.65-.639-.896-.852-.495-2.25-.496-3.105-.002-.427.247-.641.572-.642.897v1.409c0 .325.213.65.64.897.854.493 2.251.494 3.105.002.429-.247.642-.573.641-.899z" transform="translate(-649 -1232) translate(400 1142) translate(238 90) translate(11)"/>
                                <path fill="#E0E0E2" d="M11.286 40.917c-.854-.493-.853-1.3.002-1.794s2.253-.493 3.105.002c.853.495.852 1.302-.002 1.794s-2.25.49-3.105-.002z" transform="translate(-649 -1232) translate(400 1142) translate(238 90) translate(11)"/>
                                <g fill="#D8D8DA">
                                    <path d="M2.687 16.9V.066H.091V16.9c0 .192.126.385.378.53.506.292 1.333.293 1.839.002.253-.146.38-.34.379-.532zM9.029 21.484V20.08v-.005c-.001-.324-.214-.649-.639-.895-.853-.495-2.25-.496-3.105-.003-.428.247-.642.573-.642.898v1.409c0 .325.213.65.64.897.854.493 2.251.494 3.105.002.428-.247.642-.573.641-.9z" transform="translate(-649 -1232) translate(400 1142) translate(238 90) translate(11) translate(11.45 23.12)"/>
                                </g>
                                <path fill="#E0E0E2" d="M16.734 44.09c-.854-.492-.853-1.3.002-1.793.855-.494 2.252-.493 3.105.002.852.495.852 1.302-.002 1.794s-2.251.49-3.105-.002z" transform="translate(-649 -1232) translate(400 1142) translate(238 90) translate(11)"/>
                                <g fill="#D8D8DA">
                                    <path d="M2.682 16.912V.076H.085v16.836c0 .193.126.385.379.531.506.292 1.333.292 1.838.001.254-.146.38-.339.38-.532zM9.024 21.495v-1.403-.005c-.001-.325-.214-.65-.64-.896-.852-.495-2.25-.496-3.104-.002-.428.247-.642.572-.642.897v1.409c0 .325.213.65.64.897.854.493 2.25.494 3.105.002.428-.247.642-.573.64-.899z" transform="translate(-649 -1232) translate(400 1142) translate(238 90) translate(11) translate(16.903 26.282)"/>
                                </g>
                                <path fill="#E0E0E2" d="M22.181 47.265c-.854-.493-.853-1.3.002-1.794s2.252-.493 3.105.002c.853.495.852 1.302-.002 1.794s-2.251.49-3.105-.002z" transform="translate(-649 -1232) translate(400 1142) translate(238 90) translate(11)"/>
                                <g fill="#D8D8DA">
                                    <path d="M2.676 16.924V.088H.08v16.836c0 .192.126.385.379.53.505.292 1.333.293 1.838.002.254-.146.38-.34.38-.532zM9.056 15.13v-1.403-.005c0-.325-.214-.65-.639-.896-.852-.495-2.25-.496-3.105-.002-.427.247-.641.572-.642.897v1.409c0 .325.213.65.64.897.854.493 2.251.494 3.105.002.429-.246.642-.573.641-.899z" transform="translate(-649 -1232) translate(400 1142) translate(238 90) translate(11) translate(22.356 29.444)"/>
                                </g>
                                <path fill="#E0E0E2" d="M27.666 44.062c-.854-.493-.853-1.3.002-1.794.855-.493 2.253-.492 3.105.003.853.495.852 1.302-.002 1.794-.854.491-2.25.49-3.105-.003z" transform="translate(-649 -1232) translate(400 1142) translate(238 90) translate(11)"/>
                                <g fill="#D8D8DA">
                                    <path d="M2.6 16.884V.048H.003v16.836c0 .192.126.385.38.53.505.292 1.332.293 1.838.002.253-.146.38-.34.379-.532zM8.98 15.09v-1.403-.005c-.002-.325-.214-.65-.64-.896-.852-.495-2.25-.496-3.104-.002-.428.247-.642.572-.642.897v1.409c0 .325.213.65.64.897.853.493 2.25.494 3.105.002.428-.246.642-.572.64-.899z" transform="translate(-649 -1232) translate(400 1142) translate(238 90) translate(11) translate(27.918 26.282)"/>
                                </g>
                                <path fill="#E0E0E2" d="M33.151 40.86c-.853-.493-.852-1.3.003-1.794s2.252-.493 3.105.002c.852.495.851 1.302-.002 1.794-.854.492-2.252.49-3.105-.002z" transform="translate(-649 -1232) translate(400 1142) translate(238 90) translate(11)"/>
                                <g fill="#D8D8DA">
                                    <path d="M2.632 16.844V.008H.036v16.836c0 .192.126.385.379.53.505.292 1.332.293 1.838.002.254-.146.38-.339.38-.532zM9.012 15.05v-1.403-.005c0-.324-.214-.649-.639-.895-.852-.495-2.25-.496-3.105-.003-.427.247-.641.573-.642.898v1.408c0 .325.213.65.64.897.854.493 2.251.494 3.105.003.429-.247.642-.573.641-.9z" transform="translate(-649 -1232) translate(400 1142) translate(238 90) translate(11) translate(33.37 23.12)"/>
                                </g>
                                <path fill="#E0E0E2" d="M38.637 37.657c-.854-.493-.853-1.3.002-1.794.855-.493 2.252-.492 3.105.003.853.495.852 1.302-.002 1.794-.854.491-2.251.49-3.105-.003z" transform="translate(-649 -1232) translate(400 1142) translate(238 90) translate(11)"/>
                                <g fill="#D8D8DA">
                                    <path d="M2.665 16.913V.077H.068v16.836c0 .193.127.385.38.53.505.293 1.332.293 1.838.002.253-.146.38-.339.379-.532zM9.045 15.12v-1.404-.005c-.001-.324-.214-.649-.64-.895-.852-.495-2.25-.496-3.104-.003-.428.247-.642.573-.642.898v1.409c0 .325.213.65.64.897.854.492 2.25.494 3.105.002.428-.247.642-.573.64-.9z" transform="translate(-649 -1232) translate(400 1142) translate(238 90) translate(11) translate(38.823 19.848)"/>
                                </g>
                                <path fill="#E0E0E2" d="M44.122 34.455c-.854-.493-.853-1.3.002-1.794.855-.493 2.252-.493 3.105.002.853.495.852 1.303-.002 1.794-.854.492-2.251.49-3.105-.002z" transform="translate(-649 -1232) translate(400 1142) translate(238 90) translate(11)"/>
                                <path fill="#D8D8DA" d="M46.973 33.558V16.722h-2.596v16.836c0 .193.126.385.378.531.506.292 1.333.293 1.839.002.253-.146.38-.34.38-.533z" transform="translate(-649 -1232) translate(400 1142) translate(238 90) translate(11)"/>
                                <path fill="#E0E0E2" d="M3.698 16.851L3.698 18.957 25.588 31.595 25.588 29.489z" transform="translate(-649 -1232) translate(400 1142) translate(238 90) translate(11)"/>
                                <path fill="#C6C5CB" d="M27.412 28.436L27.412 30.542 25.588 31.595 25.588 29.489z" transform="translate(-649 -1232) translate(400 1142) translate(238 90) translate(11)"/>
                                <path fill="#23662F" d="M14.643 12.638L2.786 15.271 23.764 3.159 36.533 0 49.302 17.904 27.412 30.542z" transform="translate(-649 -1232) translate(400 1142) translate(238 90) translate(11)"/>
                                <path fill="#D8D8DA" d="M1.874 15.798L27.412 30.542 14.643 12.638z" transform="translate(-649 -1232) translate(400 1142) translate(238 90) translate(11)"/>
                                <path fill="#C6C5CB" d="M4.29 16.139L14.26 13.672 24.231 27.652z" transform="translate(-649 -1232) translate(400 1142) translate(238 90) translate(11)"/>
                                <path fill="#E0E0E2" d="M4.29 16.139L5.567 15.823 22.954 25.862 24.231 27.652z" transform="translate(-649 -1232) translate(400 1142) translate(238 90) translate(11)"/>
                                <path fill="#429C53" d="M1.874 15.798L23.764 3.159 36.533 0 14.643 12.638z" transform="translate(-649 -1232) translate(400 1142) translate(238 90) translate(11)"/>
                            </g>
                        </g>
                    </g>
                </g>
            </g>
        </g>
    </g>
</svg>
