<svg width="60" height="60" viewBox="0 0 76 76" fill="none" xmlns="http://www.w3.org/2000/svg">
<circle cx="38" cy="38" r="38" fill="white"/>
<circle cx="37.9998" cy="37.9969" r="34.2" fill="url(#paint0_linear_349_47785)"/>
<path d="M46.475 26.5888C49.1194 26.7685 51.4092 24.7701 51.5889 22.1255C51.7676 19.48 49.7694 17.1909 47.1251 17.0112C44.4808 16.8315 42.1909 18.8299 42.0112 21.4745C41.8315 24.12 43.8297 26.4091 46.475 26.5888Z" fill="#ADC2DF"/>
<path d="M56.5807 35.1328H19.4193C18.6358 35.1328 18 35.72 18 36.4456V37.5534C18 38.2781 18.6358 38.8661 19.4193 38.8661H56.5807C57.3642 38.8661 58 38.2781 58 37.5534V36.4456C58 35.72 57.3642 35.1328 56.5807 35.1328Z" fill="#2E82C6"/>
<path d="M53.8839 54.8672H49.3178C48.8116 54.8672 48.4004 55.2822 48.4004 55.7932V57.1411C48.4004 57.6522 48.8116 58.0672 49.3178 58.0672H53.8839C54.3902 58.0672 54.8004 57.6522 54.8004 57.1411V55.7932C54.8004 55.2822 54.3902 54.8672 53.8839 54.8672Z" fill="#2E82C6"/>
<path d="M49.4668 40.4688V53.2688H53.7335V40.4688H49.4668Z" fill="#2E82C6"/>
<path d="M26.6836 54.8672H22.1168C21.6105 54.8672 21.2002 55.2822 21.2002 55.7932V57.1411C21.2002 57.6522 21.6105 58.0672 22.1168 58.0672H26.6836C27.1899 58.0672 27.6002 57.6522 27.6002 57.1411V55.7932C27.6002 55.2822 27.1899 54.8672 26.6836 54.8672Z" fill="#2E82C6"/>
<path d="M22.2666 40.4688V53.2688H25.9999V40.4688H22.2666Z" fill="#2E82C6"/>
<path d="M43.921 40.4688H33.5681L30.8326 55.4396C30.5995 56.8123 31.6374 58.0687 33.0061 58.0687H33.2257C34.2781 58.0687 35.1835 57.3119 35.3895 56.2624L38.331 42.7412L41.9709 46.68L40.8556 55.5785C40.7134 56.9079 41.7359 58.0687 43.0485 58.0687C44.1512 58.0687 45.0846 57.241 45.2336 56.1264L46.7764 46.0769C46.848 45.6147 46.7541 45.1427 46.5133 44.7456L43.921 40.4688Z" fill="#ADC2DF"/>
<path d="M29.1897 35.0337C30.1176 35.3701 31.0942 34.8434 31.3477 33.9369L33.4869 27.7979L38.5953 27.0561L35.3072 33.6597H45.0139L46.1647 31.5174L47.0284 33.6597H51.0671L49.7479 28.7753C49.6162 28.3749 49.4181 28.003 49.1696 27.6687C48.4496 27.9537 47.6672 28.1115 46.8511 28.1115C46.8501 28.1115 46.8511 28.1115 46.8501 28.1115C46.7065 28.1115 46.5619 28.1066 46.4163 28.0967C43.2629 27.8837 40.8078 25.3882 40.5513 22.3424C40.1333 22.3187 39.7104 22.3601 39.2985 22.4706L31.6428 24.534C31.1308 24.6721 30.7247 25.0598 30.5633 25.5628L28.1933 33.0018C27.9725 33.8314 28.3795 34.7408 29.1897 35.0337Z" fill="#ADC2DF"/>
<defs>
<linearGradient id="paint0_linear_349_47785" x1="37.9998" y1="3.79687" x2="37.9998" y2="72.1969" gradientUnits="userSpaceOnUse">
<stop stop-color="#F6F6F6"/>
<stop offset="0.5" stop-color="white"/>
</linearGradient>
</defs>
</svg>
