<svg width="78" height="78" viewBox="0 0 78 78" fill="none" xmlns="http://www.w3.org/2000/svg">
<g clip-path="url(#clip0_1843_44500)">
<path fill-rule="evenodd" clip-rule="evenodd" d="M39 76C59.4345 76 76 59.4345 76 39C76 18.5655 59.4345 2 39 2C18.5655 2 2 18.5655 2 39C2 59.4345 18.5655 76 39 76ZM39 78C60.5391 78 78 60.5391 78 39C78 17.4609 60.5391 0 39 0C17.4609 0 0 17.4609 0 39C0 60.5391 17.4609 78 39 78Z" fill="#F6F6F6"/>
<path opacity="0.7" d="M73.6667 39.0002C73.6667 58.146 58.1459 73.6668 39 73.6668C19.8542 73.6668 4.33337 58.146 4.33337 39.0002C4.33337 19.8543 19.8542 4.3335 39 4.3335C58.1459 4.3335 73.6667 19.8543 73.6667 39.0002Z" fill="#E7E7E7"/>
<path d="M68 39C68 55.0163 55.0163 68 39 68C22.9837 68 10 55.0163 10 39C10 22.9837 22.9837 10 39 10C55.0163 10 68 22.9837 68 39Z" fill="white"/>
<path d="M42.6575 35.1345C42.6575 41.3906 37.5785 46.4697 31.3224 46.4697C25.0663 46.4697 20 41.3906 20 35.1345C20 28.8784 25.0663 23.7993 31.3352 23.7993C37.604 23.7993 42.6703 28.8784 42.6703 35.1345" fill="url(#paint0_linear_1843_44500)"/>
<path fill-rule="evenodd" clip-rule="evenodd" d="M42.148 25.9721C40.9733 24.0011 38.1367 24.0165 36.9921 25.9749L36.9906 25.9776L33.5392 31.856L35.2268 32.8432L29.2266 36.2463L29.2777 29.3633L30.9497 30.3413L34.402 24.4612L34.4029 24.4598C36.713 20.5093 42.3952 20.5249 44.7259 24.4377L44.727 24.4395L50.5225 34.2011L47.9429 35.7326L42.1485 25.9729L42.148 25.9721ZM24.9139 46.5464L29.6206 38.5399L27.0344 37.0195L22.325 45.0306C19.9894 49.0199 22.8521 54.0564 27.4959 54.0564H33.7031V56.0002L39.665 52.5587L33.7031 49.1172V51.0564H27.4959C25.1804 51.0564 23.7445 48.5455 24.9132 46.5475L24.9139 46.5464ZM54.5373 40.9614L56.2044 39.9713L50.1914 36.5938L50.281 43.4895L51.958 42.4934L54.3526 46.5264C55.5352 48.5173 54.0989 51.0412 51.7787 51.0412H41.4414V54.0412H51.7787C56.418 54.0412 59.3057 48.991 56.932 44.9945L54.5373 40.9614Z" fill="url(#paint1_linear_1843_44500)"/>
<path d="M44.837 41.1918L41.4536 44.5752L44.837 47.9586L48.2204 44.5752L44.837 41.1918Z" fill="url(#paint2_linear_1843_44500)"/>
</g>
<defs>
<linearGradient id="paint0_linear_1843_44500" x1="31.3352" y1="23.7993" x2="31.3352" y2="46.4697" gradientUnits="userSpaceOnUse">
<stop stop-color="#F3F3DE"/>
<stop offset="0.784924" stop-color="#C9CD4D"/>
</linearGradient>
<linearGradient id="paint1_linear_1843_44500" x1="39.6375" y1="21.5" x2="39.6375" y2="56.0002" gradientUnits="userSpaceOnUse">
<stop stop-color="#C2C559"/>
<stop offset="1" stop-color="#88A221"/>
</linearGradient>
<linearGradient id="paint2_linear_1843_44500" x1="43.1453" y1="41.001" x2="43.1453" y2="48.001" gradientUnits="userSpaceOnUse">
<stop stop-color="#F3F3DE"/>
<stop offset="0.731408" stop-color="#C9CD4D"/>
</linearGradient>
<clipPath id="clip0_1843_44500">
<rect width="78" height="78" fill="white"/>
</clipPath>
</defs>
</svg>
