<svg width="78" height="78" viewBox="0 0 78 78" fill="none" xmlns="http://www.w3.org/2000/svg">
<g clip-path="url(#clip0_1815_43369)">
<path fill-rule="evenodd" clip-rule="evenodd" d="M39 76C59.4345 76 76 59.4345 76 39C76 18.5655 59.4345 2 39 2C18.5655 2 2 18.5655 2 39C2 59.4345 18.5655 76 39 76ZM39 78C60.5391 78 78 60.5391 78 39C78 17.4609 60.5391 0 39 0C17.4609 0 0 17.4609 0 39C0 60.5391 17.4609 78 39 78Z" fill="#F6F6F6"/>
<path opacity="0.7" d="M73.6666 39C73.6666 58.1459 58.1458 73.6667 38.9999 73.6667C19.854 73.6667 4.33325 58.1459 4.33325 39C4.33325 19.8542 19.854 4.33337 38.9999 4.33337C58.1458 4.33337 73.6666 19.8542 73.6666 39Z" fill="#E7E7E7"/>
<path d="M68 39C68 55.0163 55.0163 68 39 68C22.9837 68 10 55.0163 10 39C10 22.9837 22.9837 10 39 10C55.0163 10 68 22.9837 68 39Z" fill="white"/>
</g>
<path d="M35.8582 25.714L19.019 42.5532L21.8951 45.4293L38.7343 28.5901L35.8582 25.714Z" fill="url(#paint0_linear_1815_43369)"/>
<path d="M58.9661 38.7478L46.8596 31.7615L34.769 38.7478V52.7365L46.8596 59.7228L58.9661 52.7365V38.7478Z" fill="url(#paint1_linear_1815_43369)"/>
<path d="M42.2686 46.1951L35.5694 42.3191L28.8701 46.1951V53.9152L35.5694 57.7912L42.2686 53.9152V46.1951Z" fill="url(#paint2_linear_1815_43369)"/>
<path d="M56.2272 43.4067L52.1757 41.062L48.1243 43.4067V48.0803L52.1757 50.425L56.2272 48.0803V43.4067Z" fill="url(#paint3_linear_1815_43369)"/>
<path d="M44.2298 40.4535C43.5599 35.9235 41.1992 31.1862 37.2913 27.2783C33.3834 23.3545 28.6301 20.9938 24.0842 20.3398C29.651 18.362 36.095 19.5902 40.5293 24.0404C44.9635 28.4746 46.1917 34.9027 44.2138 40.4535" fill="url(#paint4_linear_1815_43369)"/>
<path d="M41.8328 25.4763C41.0352 26.2739 39.7592 26.2739 38.9617 25.4763C38.1641 24.6788 38.1641 23.4028 38.9617 22.6052C39.7592 21.8077 41.0352 21.8077 41.8328 22.6052C42.6303 23.4028 42.6303 24.6788 41.8328 25.4763Z" fill="url(#paint5_linear_1815_43369)"/>
<path fill-rule="evenodd" clip-rule="evenodd" d="M45.9922 23.9316L48.8697 18.9994L50.4679 19.9318L47.5903 24.864L45.9922 23.9316ZM54.5051 23.3997L50.1084 27.0435L51.2891 28.4681L55.6857 24.8244L54.5051 23.3997ZM58.3344 29.4749L52.9717 31.3897L53.5939 33.1322L58.9566 31.2174L58.3344 29.4749Z" fill="url(#paint6_linear_1815_43369)"/>
<defs>
<linearGradient id="paint0_linear_1815_43369" x1="31.2401" y1="35.9884" x2="28.4105" y2="33.1588" gradientUnits="userSpaceOnUse">
<stop stop-color="#FFA95F"/>
<stop offset="1" stop-color="#FFDABA"/>
</linearGradient>
<linearGradient id="paint1_linear_1815_43369" x1="48.2662" y1="59.2564" x2="48.2662" y2="31.7467" gradientUnits="userSpaceOnUse">
<stop stop-color="#FFA95F"/>
<stop offset="1" stop-color="#FFDABA"/>
</linearGradient>
<linearGradient id="paint2_linear_1815_43369" x1="35.5694" y1="42.3191" x2="35.5694" y2="57.7912" gradientUnits="userSpaceOnUse">
<stop stop-color="#F18D36"/>
<stop offset="1" stop-color="#DF580C"/>
</linearGradient>
<linearGradient id="paint3_linear_1815_43369" x1="52.1757" y1="41.062" x2="52.1757" y2="50.425" gradientUnits="userSpaceOnUse">
<stop stop-color="#F18D36"/>
<stop offset="1" stop-color="#DF580C"/>
</linearGradient>
<linearGradient id="paint4_linear_1815_43369" x1="34.6066" y1="19.4252" x2="34.6066" y2="40.4535" gradientUnits="userSpaceOnUse">
<stop stop-color="#F18D36"/>
<stop offset="1" stop-color="#DF580C"/>
</linearGradient>
<linearGradient id="paint5_linear_1815_43369" x1="40.6323" y1="26.0066" x2="40.6323" y2="22.0049" gradientUnits="userSpaceOnUse">
<stop stop-color="#FFA95F"/>
<stop offset="1" stop-color="#FFDABA"/>
</linearGradient>
<linearGradient id="paint6_linear_1815_43369" x1="47.431" y1="21.467" x2="49.0291" y2="22.3994" gradientUnits="userSpaceOnUse">
<stop stop-color="#F18D36"/>
<stop offset="1" stop-color="#DF580C"/>
</linearGradient>
<clipPath id="clip0_1815_43369">
<rect width="78" height="78" fill="white"/>
</clipPath>
</defs>
</svg>
