<svg width="78" height="78" viewBox="0 0 78 78" fill="none" xmlns="http://www.w3.org/2000/svg">
<g clip-path="url(#clip0_1843_44498)">
<path fill-rule="evenodd" clip-rule="evenodd" d="M39 76C59.4345 76 76 59.4345 76 39C76 18.5655 59.4345 2 39 2C18.5655 2 2 18.5655 2 39C2 59.4345 18.5655 76 39 76ZM39 78C60.5391 78 78 60.5391 78 39C78 17.4609 60.5391 0 39 0C17.4609 0 0 17.4609 0 39C0 60.5391 17.4609 78 39 78Z" fill="#F6F6F6"/>
<path opacity="0.7" d="M73.6667 39.0002C73.6667 58.146 58.1459 73.6668 39 73.6668C19.8542 73.6668 4.33337 58.146 4.33337 39.0002C4.33337 19.8543 19.8542 4.3335 39 4.3335C58.1459 4.3335 73.6667 19.8543 73.6667 39.0002Z" fill="#E7E7E7"/>
<path d="M68 39C68 55.0163 55.0163 68 39 68C22.9837 68 10 55.0163 10 39C10 22.9837 22.9837 10 39 10C55.0163 10 68 22.9837 68 39Z" fill="white"/>
<path fill-rule="evenodd" clip-rule="evenodd" d="M46.7394 34.93V32.0388L42.9916 30.7233C42.7774 29.9125 42.4868 29.1324 42.1044 28.4134L43.8023 24.9104L41.7525 22.8453L38.326 24.5127C37.607 24.0843 36.7963 23.7478 35.9702 23.5183L34.7617 20H31.8706L30.6468 23.5183C29.8361 23.7478 29.0559 24.069 28.3522 24.4668L25.0022 22.83L22.9523 24.8951L24.5891 28.2605C24.1761 28.9947 23.8702 29.7902 23.6407 30.6162L20 31.8706V34.777L23.7172 36.062C23.962 36.8421 24.2832 37.5917 24.6962 38.2801L22.9371 41.8749L24.9869 43.9247L28.75 42.1044C29.3465 42.4103 29.9737 42.6551 30.6315 42.8386L31.9777 46.7853H34.8841L36.2762 42.7621C36.8421 42.5786 37.3928 42.3338 37.9129 42.0738L41.7372 43.94L43.787 41.8902L41.982 38.1577C42.3185 37.5611 42.5939 36.9339 42.808 36.2762L46.7241 34.9147L46.7394 34.93ZM33.3697 36.3067L30.4785 33.4156L33.3697 30.5091L36.2609 33.4156L33.3697 36.3067Z" fill="url(#paint0_linear_1843_44498)"/>
<path d="M54.6618 27.8021H53.2545C53.2545 22.7846 49.1854 18.7003 44.168 18.7003V17.293C49.9503 17.293 54.6618 22.0045 54.6618 27.8021Z" fill="url(#paint1_linear_1843_44498)"/>
<path fill-rule="evenodd" clip-rule="evenodd" d="M46.1958 39.6503L49.7089 26L36 45.4977H44.5678L40.6259 60.8711L55.4986 39.6503H46.1958Z" fill="url(#paint2_linear_1843_44498)"/>
</g>
<defs>
<linearGradient id="paint0_linear_1843_44498" x1="33.3697" y1="20" x2="33.3697" y2="46.7853" gradientUnits="userSpaceOnUse">
<stop stop-color="#C2C559"/>
<stop offset="1" stop-color="#88A221"/>
</linearGradient>
<linearGradient id="paint1_linear_1843_44498" x1="49.4149" y1="17.293" x2="49.4149" y2="27.8021" gradientUnits="userSpaceOnUse">
<stop stop-color="#C2C559"/>
<stop offset="1" stop-color="#88A221"/>
</linearGradient>
<linearGradient id="paint2_linear_1843_44498" x1="45.7493" y1="23" x2="45.7493" y2="60.8711" gradientUnits="userSpaceOnUse">
<stop stop-color="#F3F3DE"/>
<stop offset="0.696006" stop-color="#C9CD4D"/>
</linearGradient>
<clipPath id="clip0_1843_44498">
<rect width="78" height="78" fill="white"/>
</clipPath>
</defs>
</svg>
