<svg width="52" height="52" viewBox="0 0 52 52" fill="none" xmlns="http://www.w3.org/2000/svg">
<path d="M0 52H52V0H0V52Z" fill="#F26D23"/>
<path fill-rule="evenodd" clip-rule="evenodd" d="M33.3701 30.4676L39.5362 33.9742C39.6663 34.0485 39.7473 34.1848 39.7473 34.333V41.5911C39.7473 41.7378 39.6663 41.876 39.5362 41.9499L33.1606 45.5769C33.0954 45.6133 33.0223 45.6312 32.9511 45.6312C32.878 45.6312 32.8049 45.6133 32.7401 45.5769L26.5777 42.068L20.4119 45.5769C20.3467 45.6133 20.2736 45.6312 20.2024 45.6312C20.1293 45.6312 20.0562 45.6133 19.991 45.5769L13.6176 41.9499C13.4873 41.876 13.4062 41.7378 13.4062 41.5911V34.333C13.4062 34.1848 13.4873 34.0485 13.6176 33.9742L19.7815 30.4676V23.4517C19.7815 23.3035 19.8607 23.1653 19.991 23.091L26.3667 19.4636C26.4963 19.3897 26.6572 19.3897 26.7872 19.4636L33.1606 23.091C33.291 23.1653 33.3701 23.3035 33.3701 23.4517V30.4676ZM20.625 29.9884L25.7376 27.0787L20.625 24.1693V29.9884ZM19.7757 44.499L14.2422 41.3508V35.0506L19.7757 38.2007V44.499ZM33.375 44.499L38.9107 41.3508V35.0506L33.375 38.2007V44.499ZM20.625 38.6795V44.499L25.7376 41.5911L20.625 38.6795ZM32.5266 29.9884L27.4141 27.0787L32.5266 24.1693V29.9884ZM32.9475 31.1848L27.4141 34.3349L32.9475 37.4831L38.4814 34.333L32.9475 31.1848ZM26.1617 33.6154L21.0469 30.706L26.1617 27.7963V33.6154ZM26.9922 33.6154L32.1051 30.706L26.9922 27.7963V33.6154ZM26.1617 40.8716L21.0469 37.9619L26.1617 35.0506V40.8716Z" fill="white"/>
<path fill-rule="evenodd" clip-rule="evenodd" d="M7.29295 4.5C9.1431 4.5 9.85263 5.6544 9.85263 7.24931V12.2632C9.85263 13.8745 9.11257 15.0445 7.26243 15.0445C5.31921 15.0445 4.76379 13.9807 4.76379 12.4616V11.9145H6.36788V12.5979C6.36788 13.2371 6.59962 13.6019 7.23228 13.6019C7.86231 13.6019 8.11026 13.161 8.11026 12.5377V10.3195H8.09631C7.83179 10.8202 7.3864 11.1549 6.64634 11.1549C5.38214 11.1549 4.70312 10.3032 4.70312 8.61803V7.09703C4.70312 5.50211 5.42886 4.5 7.29295 4.5ZM7.27882 9.77248C7.83198 9.77248 8.07992 9.40774 8.11044 8.83054V6.94702C8.11044 6.30779 7.8787 5.91296 7.29314 5.91296C6.69137 5.91296 6.44531 6.29145 6.44531 6.94702V8.73842C6.44531 9.40774 6.67705 9.77248 7.27882 9.77248Z" fill="white"/>
<path d="M12.3868 8.97459H13.1205V4.66602H12.3868V8.97459Z" fill="white"/>
<path d="M13.9796 6.26773V8.97508H13.3594V4.6665H14.0829L14.876 7.13948V4.6665H15.488V8.97508H14.8436L13.9796 6.26773Z" fill="white"/>
<path fill-rule="evenodd" clip-rule="evenodd" d="M17.9182 7.81745V5.82325C17.9182 5.15616 17.6397 4.66699 16.853 4.66699H15.7188V8.97556H16.853C17.6397 8.97556 17.9182 8.47859 17.9182 7.81745ZM17.18 7.94555C17.18 8.20592 17.0643 8.38421 16.7613 8.38421H16.4523V5.25641H16.7613C17.0643 5.25641 17.18 5.43469 17.18 5.68912V7.94555Z" fill="white"/>
<path d="M20.2831 4.66602V7.92642C20.2831 8.59387 19.9926 9.02659 19.2442 9.02659C18.4714 9.02659 18.1484 8.59387 18.1484 7.92642V4.66602H18.8844V7.99662C18.8844 8.25104 18.9861 8.42339 19.2442 8.42339C19.5023 8.42339 19.6059 8.25104 19.6059 7.99662V4.66602H20.2831Z" fill="white"/>
<path d="M20.4766 8.04661V7.46941H21.1593V8.05849C21.1593 8.30104 21.2694 8.44144 21.5211 8.44144C21.7532 8.44144 21.8568 8.28915 21.8568 8.05849V7.89432C21.8568 7.64584 21.7532 7.49355 21.5275 7.28518L21.0945 6.85841C20.6755 6.45355 20.4826 6.20507 20.4826 5.70809V5.56175C20.4826 5.02875 20.7976 4.61572 21.5132 4.61572C22.2491 4.61572 22.54 4.97044 22.54 5.59369V5.94432H21.8689V5.56992C21.8689 5.32144 21.7532 5.20109 21.5211 5.20109C21.3142 5.20109 21.1718 5.31512 21.1718 5.55581V5.64607C21.1718 5.88638 21.3078 6.02678 21.5211 6.22884L21.9913 6.68569C22.3915 7.08684 22.5848 7.32901 22.5848 7.80629V8.01467C22.5848 8.60561 22.2611 9.02644 21.5132 9.02644C20.7671 9.02644 20.4766 8.61378 20.4766 8.04661Z" fill="white"/>
<path d="M22.6016 4.66602H24.5553V5.25733H23.9494V8.97459H23.2071V5.25733H22.6016V4.66602Z" fill="white"/>
<path fill-rule="evenodd" clip-rule="evenodd" d="M25.445 8.97422V6.99822L26.1338 8.97422H26.9085L26.2069 7.01642C26.6259 6.92207 26.7924 6.64982 26.7924 6.18479V5.63173C26.7924 5.02853 26.5223 4.66602 25.7803 4.66602H24.7109V8.97422H25.445ZM25.4431 6.59744V5.25696H25.6887C25.9386 5.25696 26.0486 5.37136 26.0486 5.60759V6.24273C26.0486 6.47153 25.9386 6.59744 25.6887 6.59744H25.4431Z" fill="white"/>
<path d="M28.3423 7.33559V8.97508H27.6083V7.33559L26.7891 4.6665H27.5555L28.0009 6.29968H28.0065L28.4519 4.6665H29.1532L28.3423 7.33559Z" fill="white"/>
<path d="M29.6002 8.33929L29.226 9.31132H28.8134L28.9046 8.2832H29.6002V8.33929Z" fill="white"/>
<path d="M30.3243 8.97459H31.058V4.66602H30.3243V8.97459Z" fill="white"/>
<path d="M31.907 6.26773V8.97508H31.2891V4.6665H32.0107L32.8038 7.13948V4.6665H33.4154V8.97508H32.7711L31.907 6.26773Z" fill="white"/>
<path d="M34.2687 6.26773V8.97508H33.6484V4.6665H34.3708L35.1632 7.13948V4.6665H35.777V8.97508H35.1327L34.2687 6.26773Z" fill="white"/>
<path fill-rule="evenodd" clip-rule="evenodd" d="M36.0078 5.77917V7.86326C36.0078 8.53035 36.3432 9.02546 37.1175 9.02546C37.8983 9.02546 38.2318 8.53035 38.2318 7.86326V5.77917C38.2318 5.10392 37.8983 4.61475 37.1175 4.61475C36.3432 4.61475 36.0078 5.10392 36.0078 5.77917ZM37.498 5.66475V7.97727C37.498 8.23801 37.382 8.42224 37.1174 8.42224C36.8597 8.42224 36.7436 8.23801 36.7436 7.97727V5.66475C36.7436 5.40438 36.8597 5.22015 37.1174 5.22015C37.382 5.22015 37.498 5.40438 37.498 5.66475Z" fill="white"/>
<path d="M40.6965 4.66602L39.8648 8.97459H39.066L38.2344 4.66602H38.9823L39.4846 7.67199H39.491L40.0073 4.66602H40.6965Z" fill="white"/>
<path fill-rule="evenodd" clip-rule="evenodd" d="M41.1322 4.66699L40.3047 8.97556H41.0018L41.1322 8.18814H41.9107L42.0471 8.97556H42.8014L41.9698 4.66699H41.1322ZM41.8208 7.60873H41.2334L41.5239 5.88159H41.5299L41.8208 7.60873Z" fill="white"/>
<path d="M42.5078 4.66602H44.4616V5.25733H43.8557V8.97459H43.1133V5.25733H42.5078V4.66602Z" fill="white"/>
<path d="M44.6123 8.97459H45.3482V4.66602H44.6123V8.97459Z" fill="white"/>
<path fill-rule="evenodd" clip-rule="evenodd" d="M45.5938 5.77917V7.86326C45.5938 8.53035 45.9291 9.02546 46.702 9.02546C47.4823 9.02546 47.8158 8.53035 47.8158 7.86326V5.77917C47.8158 5.10392 47.4823 4.61475 46.702 4.61475C45.9291 4.61475 45.5938 5.10392 45.5938 5.77917ZM47.084 5.66475V7.97727C47.084 8.23801 46.9679 8.42224 46.7038 8.42224C46.4456 8.42224 46.3296 8.23801 46.3296 7.97727V5.66475C46.3296 5.40438 46.4456 5.22015 46.7038 5.22015C46.9679 5.22015 47.084 5.40438 47.084 5.66475Z" fill="white"/>
<path d="M48.6652 6.26773V8.97508H48.0469V4.6665H48.7685L49.5617 7.13948V4.6665H50.1736V8.97508H49.5293L48.6652 6.26773Z" fill="white"/>
<path fill-rule="evenodd" clip-rule="evenodd" d="M13.0987 10.7012L12.2734 15.0116H12.9705L13.0987 14.2238H13.8794L14.0158 15.0116H14.7679L13.9363 10.7012H13.0987ZM13.7896 13.6447H13.2021L13.4926 11.9153H13.4987L13.7896 13.6447Z" fill="white"/>
<path d="M15.5008 12.3034V15.0107H14.8828V10.7021H15.6044L16.3976 13.1751V10.7021H17.0092V15.0107H16.3648L15.5008 12.3034Z" fill="white"/>
<path fill-rule="evenodd" clip-rule="evenodd" d="M19.4416 13.8545V11.8584C19.4416 11.1913 19.1651 10.7021 18.3764 10.7021H17.2422V15.0107H18.3764C19.1651 15.0107 19.4416 14.5156 19.4416 13.8545ZM18.7121 13.9804C18.7121 14.2411 18.5946 14.4194 18.2916 14.4194H17.9826V11.2931H18.2916C18.5946 11.2931 18.7121 11.4717 18.7121 11.7262V13.9804Z" fill="white"/>
<path d="M20.1593 15.0102H20.8949V10.7017H20.1593V15.0102Z" fill="white"/>
<path d="M21.753 12.3034V15.0107H21.1328V10.7021H21.8563L22.6472 13.1751V10.7021H23.2614V15.0107H22.6167L21.753 12.3034Z" fill="white"/>
<path d="M23.4922 10.7012H25.2138V11.2925H24.2258V12.5249H24.9618V13.1099H24.2258V15.0097H23.4922V10.7012Z" fill="white"/>
<path fill-rule="evenodd" clip-rule="evenodd" d="M26.0856 15.0108V13.0348L26.7744 15.0108H27.5491L26.846 13.053C27.2665 12.9587 27.4331 12.6842 27.4331 12.2214V11.6684C27.4331 11.0652 27.1625 10.7026 26.421 10.7026H25.3516V15.0108H26.0856ZM26.0837 12.6341V11.2936H26.3294C26.5792 11.2936 26.6892 11.408 26.6892 11.6424V12.2775C26.6892 12.5059 26.5792 12.6341 26.3294 12.6341H26.0837Z" fill="white"/>
<path fill-rule="evenodd" clip-rule="evenodd" d="M28.3561 10.7012L27.5312 15.0116H28.2261L28.3561 14.2238H29.135L29.271 15.0116H30.0254L29.1941 10.7012H28.3561ZM29.0397 13.6447H28.4519L28.7424 11.9153H28.7488L29.0397 13.6447Z" fill="white"/>
<path d="M30.0391 14.0832V13.5042H30.7218V14.0951C30.7218 14.3377 30.8319 14.4781 31.0836 14.4781C31.3157 14.4781 31.4193 14.3258 31.4193 14.0951V13.9309C31.4193 13.6825 31.3157 13.5302 31.09 13.3218L30.6593 12.895C30.2403 12.4883 30.0451 12.2417 30.0451 11.7447V11.5984C30.0451 11.0654 30.362 10.6523 31.0779 10.6523C31.8138 10.6523 32.1025 11.0071 32.1025 11.6303V11.9791H31.4314V11.6043C31.4314 11.3581 31.3157 11.2355 31.0836 11.2355C30.8786 11.2355 30.7362 11.3499 30.7362 11.5924V11.6805C30.7362 11.923 30.8703 12.0634 31.0836 12.2655L31.5554 12.7223C31.954 13.1235 32.1473 13.3656 32.1473 13.8407V14.0513C32.1473 14.6422 31.8236 15.0612 31.0779 15.0612C30.3296 15.0612 30.0391 14.6482 30.0391 14.0832Z" fill="white"/>
<path d="M32.1641 10.7012H34.1178V11.2925H33.5115V15.0097H32.7696V11.2925H32.1641V10.7012Z" fill="white"/>
<path fill-rule="evenodd" clip-rule="evenodd" d="M35.0071 15.0108V13.0348L35.6963 15.0108H36.471L35.7675 13.053C36.1861 12.9587 36.3549 12.6842 36.3549 12.2214V11.6684C36.3549 11.0652 36.0844 10.7026 35.3428 10.7026H34.2734V15.0108H35.0071ZM35.0056 12.6341V11.2936H35.2516C35.5014 11.2936 35.6111 11.408 35.6111 11.6424V12.2775C35.6111 12.5059 35.5014 12.6341 35.2516 12.6341H35.0056Z" fill="white"/>
<path d="M38.705 10.7012V13.9616C38.705 14.629 38.4144 15.0617 37.6661 15.0617C36.8932 15.0617 36.5703 14.629 36.5703 13.9616V10.7012H37.3062V14.0318C37.3062 14.2862 37.408 14.4585 37.6661 14.4585C37.9242 14.4585 38.0278 14.2862 38.0278 14.0318V10.7012H38.705Z" fill="white"/>
<path d="M38.9297 13.899V11.8131C38.9297 11.1419 39.2526 10.6509 40.0251 10.6509C40.8382 10.6509 41.0643 11.0955 41.0643 11.731V12.2399H40.3936V11.6749C40.3936 11.4082 40.302 11.2559 40.0375 11.2559C39.7753 11.2559 39.6656 11.4383 39.6656 11.6987V14.0134C39.6656 14.2738 39.7753 14.458 40.0375 14.458C40.302 14.458 40.3936 14.292 40.3936 14.0376V13.2438H41.0643V13.9874C41.0643 14.6044 40.8058 15.0612 40.0251 15.0612C39.2526 15.0612 38.9297 14.5665 38.9297 13.899Z" fill="white"/>
<path d="M41.1328 10.7012H43.0866V11.2925H42.4803V15.0097H41.7383V11.2925H41.1328V10.7012Z" fill="white"/>
<path d="M45.369 10.7012V13.9616C45.369 14.629 45.0785 15.0617 44.3301 15.0617C43.5573 15.0617 43.2344 14.629 43.2344 13.9616V10.7012H43.9703V14.0318C43.9703 14.2862 44.072 14.4585 44.3301 14.4585C44.5883 14.4585 44.6919 14.2862 44.6919 14.0318V10.7012H45.369Z" fill="white"/>
<path fill-rule="evenodd" clip-rule="evenodd" d="M46.3434 15.0108V13.0348L47.0326 15.0108H47.8069L47.1038 13.053C47.5247 12.9587 47.6909 12.6842 47.6909 12.2214V11.6684C47.6909 11.0652 47.4207 10.7026 46.6788 10.7026H45.6094V15.0108H46.3434ZM46.3415 12.6341V11.2936H46.5872C46.8374 11.2936 46.947 11.408 46.947 11.6424V12.2775C46.947 12.5059 46.8374 12.6341 46.5872 12.6341H46.3415Z" fill="white"/>
<path d="M47.8906 10.7012H49.6451V11.2925H48.6265V12.5249H49.3545V13.1099H48.6265V14.4184H49.6451V15.0097H47.8906V10.7012Z" fill="white"/>
</svg>
