<svg width="30" height="30" viewBox="0 0 30 30" fill="none" xmlns="http://www.w3.org/2000/svg">
<path d="M24.4769 8.45882C23.9385 6.76471 22.8615 5.17647 21.4615 4.01176C19.8462 2.74118 17.8 2 15.7538 2C12.3077 2 9.18462 3.90588 7.67692 6.87059C4.01538 6.97647 1 9.83529 1 13.4353C1 17.0353 3.90769 19.8941 7.56923 19.8941H12.6308V18.2H7.56923C4.87692 18.2 2.72308 16.0824 2.72308 13.4353C2.72308 10.7882 4.87692 8.67059 7.56923 8.67059C7.78462 8.67059 7.89231 8.67059 8.10769 8.67059C8.43077 8.67059 8.86154 8.45882 8.96923 8.14118C10.1538 5.49412 12.8462 3.8 15.7538 3.8C19.2 3.8 22.2154 6.12941 22.9692 9.41177C23.0769 9.72941 23.2923 10.0471 23.7231 10.0471C25.7692 10.3647 27.3846 12.0588 27.3846 14.1765C27.3846 16.2941 25.7692 18.0941 23.6154 18.3059H23.5077H18.0154V20H23.6154C23.7231 20 23.8308 20 23.9385 20C25.3385 19.7882 26.5231 19.1529 27.4923 18.2C28.4615 17.1412 29 15.7647 29 14.2824C29 11.4235 27.0615 9.09412 24.4769 8.45882Z" fill="white"/>
<path d="M10.5556 10.5294C11.4444 10.5294 11.4444 11.2353 11.4444 11.4706C11.4444 11.8235 11.7778 11.9412 12.2222 11.9412C12.7778 11.9412 13 11.8235 13 11.1176C13 9.70588 11.8889 9 10.4444 9C9.11111 9 8 9.70588 8 11.5882V14.4118C8 16.2941 9.11111 17 10.4444 17C11.8889 17 13 16.1765 13 14.7647C13 14.1765 12.7778 13.9412 12.2222 13.9412C11.7778 13.9412 11.4444 14.0588 11.4444 14.4118C11.4444 14.8824 11.3333 15.4706 10.5556 15.4706C10 15.4706 9.66667 15.1176 9.66667 14.4118V11.5882C9.66667 10.8824 10 10.5294 10.5556 10.5294Z" fill="white"/>
<path fill-rule="evenodd" clip-rule="evenodd" d="M13.8105 11.6264C13.8105 9.89581 14.784 9.24683 16.1901 9.24683C17.4881 9.24683 18.5697 9.89581 18.6779 11.6264V14.2223C18.6779 15.9529 17.5963 16.6019 16.1901 16.6019C14.8922 16.6019 13.8105 15.9529 13.8105 14.2223V11.6264ZM16.1906 15.1959C16.7314 15.1959 17.0559 14.8714 17.0559 14.2224V11.6265C17.0559 10.9775 16.7314 10.653 16.1906 10.653C15.6497 10.653 15.3253 10.9775 15.3253 11.6265V14.2224C15.3253 14.8714 15.6497 15.1959 16.1906 15.1959Z" fill="white"/>
<path d="M22 10.1282C22 9.41026 21.1923 9 20.5 9C19.8077 9 19 9.41026 19 10.0256C19 10.4359 19.2308 10.5385 19.4615 10.5385C19.8077 10.5385 20.0385 10.3333 20.0385 10.2308C20.0385 10.0256 20.2692 9.92308 20.5 9.92308C20.8462 9.92308 20.9615 10.1282 20.9615 10.2308C20.9615 10.8462 19 11.359 19 12.1795V12.6923C19 12.8974 19.2308 13 19.4615 13H21.6538C21.7692 13 22 12.7949 22 12.5897C22 12.3846 21.8846 12.1795 21.6538 12.1795H20.0385C20.0385 11.6667 22 11.2564 22 10.1282Z" fill="white"/>
<path d="M14.6852 28.7802C14.918 29 15.1508 29 15.3836 29C15.6164 29 15.8492 28.8901 16.082 28.7802L20.7381 24.3846C21.0873 24.0549 21.0873 23.5055 20.7381 23.1758C20.3889 22.8462 19.8069 22.8462 19.4577 23.1758L16.4312 26.033V19.8791C16.4312 19.4396 15.9656 19 15.5 19C15.0344 19 14.5688 19.4396 14.5688 19.8791V26.033L11.5423 23.1758C11.1931 22.8462 10.6111 22.8462 10.2619 23.1758C9.9127 23.5055 9.9127 24.0549 10.2619 24.3846L14.6852 28.7802Z" fill="white"/>
</svg>
