<svg xmlns="http://www.w3.org/2000/svg" width="53" height="56" viewBox="0 0 53 56">
    <g fill="none" fill-rule="evenodd">
        <g fill-rule="nonzero">
            <g>
                <g>
                    <g>
                        <g>
                            <g transform="translate(-991 -1232) translate(400 1142) translate(238 90) translate(342) translate(11) translate(0 1)">
                                <g>
                                    <circle cx="26.499" cy="26.499" r="26.499" fill="#3D99E2"/>
                                    <circle cx="26.499" cy="26.499" r="26.499" fill="#28A1F1"/>
                                </g>
                                <circle cx="15.125" cy="14.813" r="9.017" fill="#61C0FF"/>
                                <path fill="#1D81CD" d="M44.34 6.904c4.288 4.709 6.903 10.969 6.903 17.84 0 14.635-11.864 26.5-26.5 26.5-6.87 0-13.13-2.616-17.839-6.905C11.751 49.66 18.735 53 26.5 53 41.136 53 53 41.136 53 26.5c0-7.765-3.34-14.749-8.66-19.596z"/>
                                <path fill="#1E90DB" d="M44.34 6.904c4.288 4.709 6.903 10.969 6.903 17.84 0 14.635-11.864 26.5-26.5 26.5-6.87 0-13.13-2.616-17.839-6.905C11.751 49.66 18.735 53 26.5 53 41.136 53 53 41.136 53 26.5c0-7.765-3.34-14.749-8.66-19.596z"/>
                                <path fill="#8ACD54" d="M48.649 41.05C51.399 36.875 53 31.875 53 26.5 53 11.864 41.136 0 26.5 0c-1.588 0-3.142.14-4.653.408l-1.393 1.705-13.55 7.73-3.427 13.309 5.268 9.71-2.148 2.492 6.306 13.895c1.698 1.017 3.519 1.848 5.436 2.468l1.109-.018 10.242-7.412-11.45-6.85-4.649-5.554-4.58.678-4.917-9.43 3.35-3.415 3.753 2.142 11.621-5.943-2.903-7.848 3.013-1.163 1.69-.158 1.296 5.532L27.86 7.62l.119-2.159 1.55-.965 6.396 4.07.85 9.429 1.945 2.087 2.453-6.166 5.406-1.127-1.262 5.25-3.317-.02-6.844 10.27 6.04 7.215 7.829-3.277-.377 8.823z"/>
                                <g>
                                    <path fill="#A8E07B" d="M0 9.12c0 1.852.56 3.575 1.52 5.007l3.57 2.038 11.62-5.943-2.903-7.848.817-.315C13.085.835 11.138.102 9.018.102c-.437 0-.867.033-1.288.093L1.994 3.468C.748 5.014 0 6.978 0 9.119z" transform="translate(6.107 5.693)"/>
                                    <path fill="#9CDD03" d="M4.147 19.048L9.018 24.912 2.905 21.532z" transform="translate(6.107 5.693)"/>
                                </g>
                                <path fill="#74A949" d="M52.99 25.794l-.008-.228c-.006-.158-.011-.316-.02-.473-.004-.091-.01-.182-.017-.273-.008-.141-.017-.283-.028-.424l-.026-.289c-.012-.134-.024-.269-.038-.403l-.033-.295c-.016-.13-.03-.261-.048-.392-.013-.1-.027-.198-.042-.297-.018-.129-.037-.257-.057-.385l-.049-.296-.067-.38-.056-.295c-.025-.126-.05-.252-.077-.378l-.063-.289c-.028-.126-.058-.252-.088-.377-.022-.095-.045-.19-.069-.283-.031-.127-.064-.253-.098-.38l-.074-.274-.11-.384-.079-.262c-.04-.131-.082-.262-.124-.392l-.08-.248-.14-.406-.08-.226c-.053-.146-.108-.29-.163-.435l-.073-.19c-.065-.168-.133-.334-.202-.5l-.048-.117c-.263-.623-.548-1.234-.856-1.831l-.05-.095c-.085-.165-.172-.33-.261-.492l-.079-.14c-.081-.147-.163-.294-.247-.439l-.095-.16c-.081-.137-.163-.274-.246-.41l-.105-.168c-.082-.132-.165-.263-.25-.393l-.113-.172c-.084-.127-.169-.254-.255-.38l-.119-.172c-.087-.125-.175-.249-.264-.372l-.122-.168c-.09-.123-.182-.245-.275-.367-.04-.054-.082-.108-.124-.162-.094-.122-.19-.243-.287-.364l-.123-.153c-.1-.123-.201-.244-.303-.365l-.12-.142c-.106-.124-.214-.247-.323-.37l-.111-.125c-.116-.129-.233-.255-.35-.382l-.097-.102c-.128-.137-.259-.271-.39-.405l-.068-.068c-.152-.154-.306-.305-.462-.455l-.007-.006c-.162-.156-.326-.309-.492-.46 4.289 4.708 6.904 10.968 6.904 17.839 0 3.909-.846 7.62-2.366 10.96l-.228 5.347c.342-.52.667-1.053.973-1.598l.008-.014c.225-.401.44-.809.643-1.222l.015-.03c.065-.132.13-.265.192-.398l.026-.056c.184-.391.358-.788.523-1.19l.05-.122.143-.363.048-.126c.086-.227.17-.455.25-.685l.046-.13.11-.328.068-.212.1-.315.075-.253c.047-.16.092-.319.136-.479l.079-.29.07-.277c.026-.1.05-.201.074-.302.02-.085.041-.17.06-.257.04-.172.078-.345.114-.519l.04-.204c.025-.126.05-.252.072-.378l.042-.232.065-.393.03-.19c.028-.187.054-.375.079-.564l.021-.176c.018-.143.034-.286.05-.43l.02-.2c.016-.163.03-.327.043-.49l.01-.11c.015-.198.027-.397.037-.597l.008-.169c.008-.153.013-.307.018-.46l.005-.178c.004-.204.008-.409.008-.614 0-.236-.003-.471-.01-.706z"/>
                                <path fill="#8FCC05" d="M19.448 51.7l1.09-.79c-2.882-.46-5.61-1.384-8.104-2.695l.469 1.032.07.042c.164.098.33.194.495.288l.13.073c.177.099.355.195.534.29l.098.052c.203.106.408.21.613.31l.027.014c1.115.545 2.273 1.015 3.469 1.401l1.11-.018z"/>
                            </g>
                        </g>
                    </g>
                </g>
            </g>
        </g>
    </g>
</svg>
