<svg width="52" height="52" viewBox="0 0 52 52" fill="none" xmlns="http://www.w3.org/2000/svg">
<path d="M0 52H52V0H0V52Z" fill="#00ACD7"/>
<path fill-rule="evenodd" clip-rule="evenodd" d="M35.3169 20.9702C35.3821 20.9702 35.4432 20.9984 35.4876 21.0445C35.5264 21.0924 35.5445 21.1548 35.5366 21.2206L32.5786 40.0639C32.5624 40.1697 32.4709 40.2481 32.3612 40.2481H28.4149L28.1488 43.312L29.7812 43.3102L25.9735 47.0634L22.176 43.3183H23.8061L23.5419 40.2481H19.6612C19.5553 40.2481 19.4618 40.1697 19.4456 40.0657L16.2842 21.2206C16.274 21.1608 16.2906 21.0965 16.3313 21.0445C16.3757 20.9984 16.4368 20.9702 16.4997 20.9702H35.3169ZM34.1842 25.0103C33.6759 24.7878 33.0293 24.868 32.4072 25.1165C30.0736 26.0503 28.4838 26.3849 26.0278 25.6276C25.6482 25.5099 25.2745 25.3609 24.9014 25.2121C23.7558 24.7552 22.6154 24.3004 21.3255 24.7599L21.2523 24.7858C20.1452 25.1771 19.1044 25.5449 17.8491 25.5355L17.1094 21.79H34.7167L34.1842 25.0103ZM28.2183 36.1319C28.2183 36.1319 27.3645 36.9977 25.9737 36.9056C24.5791 36.9977 23.7252 36.1319 23.7252 36.1319C22.3163 34.7435 22.8186 33.0179 23.3104 32.1242C23.6133 31.5652 25.7785 28.3587 25.9658 28.0864V28.0641C25.9658 28.0641 25.9676 28.0682 25.9737 28.0764L25.9797 28.0641V28.0864L26.0547 28.1976C26.4831 28.8329 28.3549 31.6079 28.6347 32.1242C29.1246 33.0179 29.6269 34.7435 28.2183 36.1319Z" fill="white"/>
<path fill-rule="evenodd" clip-rule="evenodd" d="M10.4405 12.4998C10.4405 14.0969 9.7166 15.1009 7.85025 15.1009C5.99822 15.1009 5.28906 13.9446 5.28906 12.3475V7.33134C5.28906 5.71822 5.98428 4.54785 7.83405 4.54785C9.77764 4.54785 10.2878 5.61237 10.2878 7.13299V7.68011H8.68376V6.99705C8.68376 6.35745 8.49686 5.99271 7.86683 5.99271C7.23454 5.99271 7.03332 6.43359 7.03332 7.05685V9.27725H7.04764C7.30953 8.77657 7.7568 8.43968 8.49686 8.43968C9.7637 8.43968 10.4405 9.29137 10.4405 10.9788V12.4998ZM7.87257 9.82434C7.31527 9.82434 7.06958 10.1891 7.03906 10.7663V12.652C7.03906 13.2913 7.26854 13.6861 7.85599 13.6861C8.45813 13.6861 8.70382 13.3072 8.70382 12.652V10.8584C8.70382 10.1891 8.47208 9.82434 7.87257 9.82434Z" fill="white"/>
<path d="M15.0547 7.97178V5.88769C15.0547 5.21466 15.378 4.72363 16.1505 4.72363C16.9636 4.72363 17.1893 5.17046 17.1893 5.80375V6.3126H16.5186V5.74766C16.5186 5.48098 16.4289 5.32869 16.1648 5.32869C15.9006 5.32869 15.7887 5.51292 15.7887 5.77366V8.08618C15.7887 8.34655 15.9006 8.53078 16.1648 8.53078C16.4289 8.53078 16.5186 8.3666 16.5186 8.11218V7.31658H17.1893V8.0598C17.1893 8.67712 16.9312 9.1362 16.1505 9.1362C15.378 9.1362 15.0547 8.63923 15.0547 7.97178Z" fill="white"/>
<path d="M17.5859 4.7749H18.32V8.49216H19.1979V9.08347H17.5859V4.7749Z" fill="white"/>
<path d="M19.5312 4.7749H21.2857V5.36622H20.2672V6.59862H20.9948V7.18362H20.2672V8.49216H21.2857V9.08347H19.5312V4.7749Z" fill="white"/>
<path fill-rule="evenodd" clip-rule="evenodd" d="M22.3881 4.77539L21.5625 9.08396H22.26L22.3881 8.29616H23.1688L23.303 9.08396H24.057L23.2257 4.77539H22.3881ZM23.0777 7.71713H22.4921L22.7808 5.98999H22.789L23.0777 7.71713Z" fill="white"/>
<path d="M24.9773 6.37662V9.08396H24.3594V4.77539H25.081L25.8738 7.24836V4.77539H26.4857V9.08396H25.8414L24.9773 6.37662Z" fill="white"/>
<path d="M29.1658 6.42045L28.7532 9.08359H28.064L27.4766 4.77539H28.1857L28.5275 7.50651H28.5335L28.9017 4.77539H29.5012L29.9059 7.50651H29.9138L30.2495 4.77539H30.8675L30.3004 9.08359H29.6029L29.1718 6.42045H29.1658Z" fill="white"/>
<path fill-rule="evenodd" clip-rule="evenodd" d="M31.6303 4.77539L30.8047 9.08396H31.5022L31.6303 8.29616H32.4107L32.5471 9.08396H33.2992L32.4676 4.77539H31.6303ZM32.3208 7.71713H31.7334L32.0239 5.98999H32.0303L32.3208 7.71713Z" fill="white"/>
<path d="M33.2031 4.7749H35.1569V5.36622H34.551V9.08347H33.8087V5.36622H33.2031V4.7749Z" fill="white"/>
<path d="M35.4922 4.7749H37.2466V5.36622H36.2281V6.59862H36.9557V7.18362H36.2281V8.49216H37.2466V9.08347H35.4922V4.7749Z" fill="white"/>
<path fill-rule="evenodd" clip-rule="evenodd" d="M38.3825 9.08299V7.10699L39.0735 9.08299H39.8464L39.1448 7.12519C39.5638 7.03084 39.7303 6.75636 39.7303 6.29356V5.7405C39.7303 5.1373 39.4601 4.77441 38.7178 4.77441H37.6484V9.08299H38.3825ZM38.3804 6.70621V5.36572H38.6264C38.8785 5.36572 38.9863 5.48012 38.9863 5.71635V6.35149C38.9863 6.58029 38.8785 6.70621 38.6264 6.70621H38.3804Z" fill="white"/>
<path fill-rule="evenodd" clip-rule="evenodd" d="M15.7627 10.812L14.9375 15.1206H15.6346L15.7627 14.3328H16.5435L16.6795 15.1206H17.4339L16.6023 10.812H15.7627ZM16.4536 13.7537H15.8662L16.1567 12.0244H16.1631L16.4536 13.7537Z" fill="white"/>
<path d="M18.3523 12.4127V15.12H17.7344V10.8096H18.456L19.2488 13.2825V10.8096H19.8607V15.12H19.2164L18.3523 12.4127Z" fill="white"/>
<path fill-rule="evenodd" clip-rule="evenodd" d="M22.4788 13.9621V11.9683C22.4788 11.3012 22.2022 10.812 21.4155 10.812H20.2812V15.1184H21.4155C22.2022 15.1184 22.4788 14.6236 22.4788 13.9621ZM21.7425 14.0906C21.7425 14.3509 21.6268 14.5292 21.3238 14.5292H21.0148V11.4011H21.3238C21.6268 11.4011 21.7425 11.5797 21.7425 11.8341V14.0906Z" fill="white"/>
<path d="M23.5391 14.1916V13.6126H24.2218V14.2035C24.2218 14.4461 24.3319 14.5865 24.584 14.5865C24.8157 14.5865 24.9193 14.4342 24.9193 14.2035V14.0393C24.9193 13.7909 24.8157 13.6386 24.59 13.4302L24.1593 13.0031C23.7403 12.5963 23.5451 12.3479 23.5451 11.8531V11.7068C23.5451 11.1738 23.8624 10.7607 24.5779 10.7607C25.312 10.7607 25.6025 11.1155 25.6025 11.7387V12.0875H24.9318V11.7127C24.9318 11.4665 24.8157 11.3439 24.584 11.3439C24.3786 11.3439 24.2365 11.4583 24.2365 11.7005V11.7889C24.2365 12.0314 24.3707 12.1718 24.584 12.3739L25.0554 12.8307C25.454 13.2319 25.6473 13.474 25.6473 13.9491V14.1597C25.6473 14.7506 25.324 15.1696 24.5779 15.1696C23.8296 15.1696 23.5391 14.7566 23.5391 14.1916Z" fill="white"/>
<path fill-rule="evenodd" clip-rule="evenodd" d="M26.6712 10.812L25.8438 15.1206H26.5409L26.6712 14.3328H27.4497L27.5857 15.1206H28.3401L27.5085 10.812H26.6712ZM27.3599 13.7537H26.7724L27.0629 12.0244H27.0693L27.3599 13.7537Z" fill="white"/>
<path d="M29.2668 12.4127V15.12H28.6484V10.8096H29.3704L30.1632 13.2825V10.8096H30.7752V15.12H30.1304L29.2668 12.4127Z" fill="white"/>
<path d="M31.1913 15.1211H31.9253V10.8125H31.1913V15.1211Z" fill="white"/>
<path d="M32.2734 10.811H34.2272V11.4023H33.6213V15.1196H32.8794V11.4023H32.2734V10.811Z" fill="white"/>
<path fill-rule="evenodd" clip-rule="evenodd" d="M34.9502 10.812L34.125 15.1206H34.8221L34.9502 14.3328H35.731L35.867 15.1206H36.6191L35.7898 10.812H34.9502ZM35.6411 13.7537H35.0537L35.3442 12.0244H35.3506L35.6411 13.7537Z" fill="white"/>
<path d="M36.5156 10.811H38.4694V11.4023H37.8635V15.1196H37.1212V11.4023H36.5156V10.811Z" fill="white"/>
<path d="M38.8085 15.1211H39.5425V10.8125H38.8085V15.1211Z" fill="white"/>
<path fill-rule="evenodd" clip-rule="evenodd" d="M39.9688 11.922V14.0083C39.9688 14.6754 40.3041 15.1705 41.0766 15.1705C41.8573 15.1705 42.1908 14.6754 42.1908 14.0083V11.922C42.1908 11.2489 41.8573 10.7598 41.0766 10.7598C40.3041 10.7598 39.9688 11.2489 39.9688 11.922ZM41.4588 11.8098V14.1223C41.4588 14.383 41.3427 14.5673 41.0786 14.5673C40.8205 14.5673 40.7048 14.383 40.7048 14.1223V11.8098C40.7048 11.5472 40.8205 11.3652 41.0786 11.3652C41.3427 11.3652 41.4588 11.5472 41.4588 11.8098Z" fill="white"/>
<path d="M43.2296 12.4127V15.12H42.6094V10.8096H43.3332L44.126 13.2825V10.8096H44.738V15.12H44.0936L43.2296 12.4127Z" fill="white"/>
</svg>
