<svg width="22" height="22" viewBox="0 0 22 22" fill="none" xmlns="http://www.w3.org/2000/svg">
<path d="M0.0748001 4.48197L9.8373 13.358C10.1261 13.6207 10.5119 13.7767 10.9199 13.7957C11.3279 13.8147 11.7292 13.6955 12.0461 13.461L12.1715 13.358L21.9274 4.48797C21.9593 4.59797 21.9802 4.70997 21.9912 4.82497L22 4.99997V17C22.0002 17.5045 21.7906 17.9905 21.4132 18.3605C21.0358 18.7305 20.5185 18.9571 19.965 18.995L19.8 19H2.2C1.64497 19.0001 1.11038 18.8096 0.703397 18.4665C0.296418 18.1234 0.0471277 17.6531 0.00550013 17.15L0 17V4.99997C0 4.87997 0.011 4.76397 0.033 4.64997L0.0748001 4.48197ZM19.8 2.99997C19.9331 2.99997 20.064 3.00997 20.1905 3.03097L20.3775 3.06997L11.0055 11.59L1.6302 3.06797C1.7512 3.03797 1.8766 3.01797 2.0042 3.00797L2.2 2.99997H19.8Z" fill="#898F9C"/>
</svg>
