<svg width="78" height="78" viewBox="0 0 78 78" fill="none" xmlns="http://www.w3.org/2000/svg">
<g clip-path="url(#clip0_1843_44497)">
<path fill-rule="evenodd" clip-rule="evenodd" d="M39 76C59.4345 76 76 59.4345 76 39C76 18.5655 59.4345 2 39 2C18.5655 2 2 18.5655 2 39C2 59.4345 18.5655 76 39 76ZM39 78C60.5391 78 78 60.5391 78 39C78 17.4609 60.5391 0 39 0C17.4609 0 0 17.4609 0 39C0 60.5391 17.4609 78 39 78Z" fill="#F6F6F6"/>
<path opacity="0.7" d="M73.6666 39.0002C73.6666 58.146 58.1458 73.6668 38.9999 73.6668C19.854 73.6668 4.33325 58.146 4.33325 39.0002C4.33325 19.8543 19.854 4.3335 38.9999 4.3335C58.1458 4.3335 73.6666 19.8543 73.6666 39.0002Z" fill="#E7E7E7"/>
<path d="M68 39C68 55.0163 55.0163 68 39 68C22.9837 68 10 55.0163 10 39C10 22.9837 22.9837 10 39 10C55.0163 10 68 22.9837 68 39Z" fill="white"/>
<path fill-rule="evenodd" clip-rule="evenodd" d="M46.7394 34.93V32.0388L42.9916 30.7233C42.7774 29.9125 42.4868 29.1324 42.1044 28.4134L43.8023 24.9104L41.7525 22.8453L38.326 24.5127C37.607 24.0843 36.7963 23.7478 35.9702 23.5183L34.7617 20H31.8706L30.6468 23.5183C29.8361 23.7478 29.0559 24.069 28.3522 24.4668L25.0022 22.83L22.9523 24.8951L24.5891 28.2605C24.1761 28.9947 23.8702 29.7902 23.6407 30.6162L20 31.8706V34.777L23.7172 36.062C23.962 36.8421 24.2832 37.5917 24.6962 38.2801L22.9371 41.8749L24.9869 43.9247L28.75 42.1044C29.3465 42.4103 29.9737 42.6551 30.6315 42.8386L31.9777 46.7853H34.8841L36.2762 42.7621C36.8421 42.5786 37.3928 42.3338 37.9129 42.0738L41.7372 43.94L43.787 41.8902L41.982 38.1577C42.3185 37.5611 42.5939 36.9339 42.808 36.2762L46.7241 34.9147L46.7394 34.93ZM33.3697 36.3067L30.4785 33.4156L33.3697 30.5091L36.2609 33.4156L33.3697 36.3067Z" fill="url(#paint0_linear_1843_44497)"/>
<path fill-rule="evenodd" clip-rule="evenodd" d="M36.8965 59.8196L50.556 46.1602L51.6166 47.2208L37.9571 60.8803L36.8965 59.8196ZM32.4707 59.4975L43.3685 48.6133L44.4285 49.6746L33.5307 60.5589L32.4707 59.4975ZM50.6503 52.4961L44.9238 58.209L45.9832 59.2709L51.7097 53.558L50.6503 52.4961Z" fill="url(#paint1_linear_1843_44497)"/>
<path d="M52.4944 34.155C51.98 34.155 51.4926 34.2363 51.0323 34.3716C49.9087 31.8536 47.3907 30.0938 44.453 30.0938C40.473 30.0938 37.251 33.3157 37.251 37.2958C37.251 37.2958 37.2239 37.2958 37.2104 37.2958C35.2204 37.2958 33.6094 38.9068 33.6094 40.8968C33.6094 42.8868 35.2204 44.4978 37.2104 44.4978H52.4944C55.3508 44.4978 57.6658 42.1829 57.6658 39.3264C57.6658 36.47 55.3508 34.155 52.4944 34.155Z" fill="url(#paint2_linear_1843_44497)"/>
</g>
<defs>
<linearGradient id="paint0_linear_1843_44497" x1="33.3697" y1="20" x2="33.3697" y2="46.7853" gradientUnits="userSpaceOnUse">
<stop stop-color="#C2C559"/>
<stop offset="1" stop-color="#88A221"/>
</linearGradient>
<linearGradient id="paint1_linear_1843_44497" x1="42.0902" y1="46.1602" x2="42.0902" y2="60.8803" gradientUnits="userSpaceOnUse">
<stop stop-color="#C2C559"/>
<stop offset="1" stop-color="#88A221"/>
</linearGradient>
<linearGradient id="paint2_linear_1843_44497" x1="45.6376" y1="12.5" x2="45.6376" y2="44.4978" gradientUnits="userSpaceOnUse">
<stop offset="0.604052" stop-color="#F3F3DE"/>
<stop offset="1" stop-color="#C9CD4D"/>
</linearGradient>
<clipPath id="clip0_1843_44497">
<rect width="78" height="78" fill="white"/>
</clipPath>
</defs>
</svg>
