<svg width="78" height="78" viewBox="0 0 78 78" fill="none" xmlns="http://www.w3.org/2000/svg">
<g clip-path="url(#clip0_1766_51317)">
<path fill-rule="evenodd" clip-rule="evenodd" d="M39 76C59.4345 76 76 59.4345 76 39C76 18.5655 59.4345 2 39 2C18.5655 2 2 18.5655 2 39C2 59.4345 18.5655 76 39 76ZM39 78C60.5391 78 78 60.5391 78 39C78 17.4609 60.5391 0 39 0C17.4609 0 0 17.4609 0 39C0 60.5391 17.4609 78 39 78Z" fill="#F6F6F6"/>
<path opacity="0.7" d="M73.6667 39C73.6667 58.1459 58.1459 73.6667 39 73.6667C19.8541 73.6667 4.33334 58.1459 4.33334 39C4.33334 19.8541 19.8541 4.33334 39 4.33334C58.1459 4.33334 73.6667 19.8541 73.6667 39Z" fill="#E7E7E7"/>
<path d="M68 39C68 55.0163 55.0163 68 39 68C22.9837 68 10 55.0163 10 39C10 22.9837 22.9837 10 39 10C55.0163 10 68 22.9837 68 39Z" fill="white"/>
<path d="M31.1871 41.4592L23.4753 33.7474C21.5082 31.7804 21.5082 28.6019 23.4753 26.6479C25.4423 24.6809 28.6208 24.6809 30.5748 26.6479L31.1871 27.2601L31.7993 26.6479C33.7663 24.6809 36.9449 24.6809 38.8989 26.6479C40.8659 28.6149 40.8659 31.7934 38.8989 33.7474L31.1871 41.4592Z" fill="url(#paint0_linear_1766_51317)"/>
<path d="M46.9375 20.9672L47.1719 21.2017C48.4746 22.5044 48.4746 24.6017 47.1719 25.8913L46.9375 26.1258C45.6348 27.4154 43.5375 27.4154 42.2478 26.1258L42.0133 25.8913C40.7107 24.5886 40.7107 22.4913 42.0133 21.2017L42.2478 20.9672C43.5375 19.6776 45.6478 19.6776 46.9375 20.9672Z" fill="url(#paint1_linear_1766_51317)"/>
<path d="M39.7052 49.4982L37.4256 29.6976H51.7549L49.4883 49.4982H39.7052Z" fill="url(#paint2_linear_1766_51317)"/>
<path fill-rule="evenodd" clip-rule="evenodd" d="M46.8833 41.406L30.0789 45.0274L30.0879 45.0429L30.0753 45.0303L23.2222 51.8835L30.0753 58.7367L35.1349 53.6771H47.9384L55.8326 48.5185V44.6236L48.1729 48.5185L40.3699 46.5385L46.8833 45.0274V41.406Z" fill="url(#paint3_linear_1766_51317)"/>
</g>
<defs>
<linearGradient id="paint0_linear_1766_51317" x1="31.1871" y1="25.1726" x2="31.1871" y2="45.6202" gradientUnits="userSpaceOnUse">
<stop stop-color="#FBEABE"/>
<stop offset="1" stop-color="#FEA03D"/>
</linearGradient>
<linearGradient id="paint1_linear_1766_51317" x1="43.7036" y1="17.3327" x2="43.7036" y2="27.093" gradientUnits="userSpaceOnUse">
<stop stop-color="#FFC56D"/>
<stop offset="1" stop-color="#F56700"/>
</linearGradient>
<linearGradient id="paint2_linear_1766_51317" x1="42.7991" y1="22.2518" x2="42.7991" y2="49.4982" gradientUnits="userSpaceOnUse">
<stop stop-color="#FFC56D"/>
<stop offset="1" stop-color="#F56700"/>
</linearGradient>
<linearGradient id="paint3_linear_1766_51317" x1="42.9558" y1="41.406" x2="42.9558" y2="56.8124" gradientUnits="userSpaceOnUse">
<stop stop-color="#FBEABE"/>
<stop offset="1" stop-color="#FEA03D"/>
</linearGradient>
<clipPath id="clip0_1766_51317">
<rect width="78" height="78" fill="white"/>
</clipPath>
</defs>
</svg>
