<svg width="68" height="68" viewBox="0 0 68 68" fill="none" xmlns="http://www.w3.org/2000/svg">
<path fill-rule="evenodd" clip-rule="evenodd" d="M31.9646 0H33.2595H34.5506H47.4048V8.66303H34.5506V24.4633H31.9646V0Z" fill="url(#paint0_linear_3007_1477)"/>
<path fill-rule="evenodd" clip-rule="evenodd" d="M52.4413 19.0068H14.9447V26.558H1.58042V58.65H23.1733V49.3662H44.1402V58.65H65.7331V26.558H52.4413V19.0068Z" fill="url(#paint1_linear_3007_1477)"/>
<path opacity="0.9" d="M33.6805 24.8957L29.9685 28.6077L33.6805 32.3196L37.3925 28.6077L33.6805 24.8957Z" fill="url(#paint2_linear_3007_1477)"/>
<path opacity="0.9" d="M58.8337 26.6097H52.4205V58.65H58.8337V26.6097Z" fill="url(#paint3_linear_3007_1477)"/>
<path opacity="0.9" d="M14.9419 26.6097H8.52869V58.65H14.9419V26.6097Z" fill="url(#paint4_linear_3007_1477)"/>
<defs>
<linearGradient id="paint0_linear_3007_1477" x1="39.6847" y1="0" x2="39.6847" y2="24.4633" gradientUnits="userSpaceOnUse">
<stop stop-color="white"/>
<stop offset="1" stop-color="#AECBEB"/>
</linearGradient>
<linearGradient id="paint1_linear_3007_1477" x1="33.6568" y1="19.0068" x2="33.6568" y2="58.65" gradientUnits="userSpaceOnUse">
<stop stop-color="#859FD1"/>
<stop offset="1" stop-color="#4985C6"/>
</linearGradient>
<linearGradient id="paint2_linear_3007_1477" x1="31.8245" y1="26.7517" x2="35.5365" y2="30.4637" gradientUnits="userSpaceOnUse">
<stop stop-color="white"/>
<stop offset="1" stop-color="#AECBEB"/>
</linearGradient>
<linearGradient id="paint3_linear_3007_1477" x1="55.6271" y1="26.6097" x2="55.6271" y2="58.65" gradientUnits="userSpaceOnUse">
<stop stop-color="white"/>
<stop offset="1" stop-color="#AECBEB"/>
</linearGradient>
<linearGradient id="paint4_linear_3007_1477" x1="11.7353" y1="26.6097" x2="11.7353" y2="58.65" gradientUnits="userSpaceOnUse">
<stop stop-color="white"/>
<stop offset="1" stop-color="#AECBEB"/>
</linearGradient>
</defs>
</svg>
