<svg width="78" height="78" viewBox="0 0 78 78" fill="none" xmlns="http://www.w3.org/2000/svg">
<g clip-path="url(#clip0_1770_71463)">
<path fill-rule="evenodd" clip-rule="evenodd" d="M39 76C59.4345 76 76 59.4345 76 39C76 18.5655 59.4345 2 39 2C18.5655 2 2 18.5655 2 39C2 59.4345 18.5655 76 39 76ZM39 78C60.5391 78 78 60.5391 78 39C78 17.4609 60.5391 0 39 0C17.4609 0 0 17.4609 0 39C0 60.5391 17.4609 78 39 78Z" fill="#F6F6F6"/>
<path opacity="0.7" d="M73.6667 39.0002C73.6667 58.146 58.1459 73.6668 39 73.6668C19.8542 73.6668 4.33337 58.146 4.33337 39.0002C4.33337 19.8543 19.8542 4.3335 39 4.3335C58.1459 4.3335 73.6667 19.8543 73.6667 39.0002Z" fill="#E7E7E7"/>
<path d="M68 39C68 55.0163 55.0163 68 39 68C22.9837 68 10 55.0163 10 39C10 22.9837 22.9837 10 39 10C55.0163 10 68 22.9837 68 39Z" fill="white"/>
</g>
<path d="M38.0622 21.7912C41.4887 25.2177 42.584 30.1047 41.3483 34.4721C36.9949 35.7219 32.0939 34.6266 28.6533 31.2C25.2268 27.7455 24.1315 22.8444 25.3813 18.4911C29.7487 17.2553 34.6357 18.3506 38.0762 21.7912" fill="url(#paint0_linear_1770_71463)"/>
<path d="M49.8166 32.2399C47.5416 34.5149 44.2836 35.2451 41.3767 34.4306C40.5482 31.5378 41.2784 28.2657 43.5534 25.9907C45.8424 23.7017 49.1144 22.9715 52.0073 23.8C52.8218 26.7069 52.0916 29.9649 49.8025 32.2399" fill="url(#paint1_linear_1770_71463)"/>
<path d="M51.4447 49.9472H29.4532L26.4059 38.4038H54.9133L51.4447 49.9472Z" fill="url(#paint2_linear_1770_71463)"/>
<path fill-rule="evenodd" clip-rule="evenodd" d="M24.4293 34.0786H22.3058V31.9722H26.0523L31.1921 51.4639H51.3869V53.5704H29.569L24.4293 34.0786Z" fill="url(#paint3_linear_1770_71463)"/>
<path d="M34.2571 57.4334C34.2571 58.6692 33.26 59.6803 32.0102 59.6803C30.7604 59.6803 29.7773 58.6832 29.7773 57.4334C29.7773 56.1836 30.7744 55.1865 32.0102 55.1865C33.246 55.1865 34.2571 56.1836 34.2571 57.4334Z" fill="url(#paint4_linear_1770_71463)"/>
<path d="M50.434 57.4334C50.434 58.6692 49.4369 59.6803 48.1871 59.6803C46.9372 59.6803 45.9542 58.6832 45.9542 57.4334C45.9542 56.1836 46.9513 55.1865 48.1871 55.1865C49.4229 55.1865 50.434 56.1836 50.434 57.4334Z" fill="url(#paint5_linear_1770_71463)"/>
<defs>
<linearGradient id="paint0_linear_1770_71463" x1="41.5203" y1="18" x2="41.5203" y2="34.9719" gradientUnits="userSpaceOnUse">
<stop stop-color="#115B99"/>
<stop offset="0.591097" stop-color="#094A95"/>
</linearGradient>
<linearGradient id="paint1_linear_1770_71463" x1="46.6876" y1="15.3515" x2="46.6876" y2="41.2338" gradientUnits="userSpaceOnUse">
<stop stop-color="#EFF5FB"/>
<stop offset="0.713621" stop-color="#B9BFDE"/>
</linearGradient>
<linearGradient id="paint2_linear_1770_71463" x1="40.6596" y1="30.0982" x2="40.6596" y2="56.5779" gradientUnits="userSpaceOnUse">
<stop stop-color="#EFF5FB"/>
<stop offset="0.713621" stop-color="#B9BFDE"/>
</linearGradient>
<linearGradient id="paint3_linear_1770_71463" x1="49.9182" y1="31.9722" x2="49.9182" y2="53.5704" gradientUnits="userSpaceOnUse">
<stop stop-color="#115B99"/>
<stop offset="0.591097" stop-color="#094A95"/>
</linearGradient>
<linearGradient id="paint4_linear_1770_71463" x1="34.1727" y1="55.1865" x2="34.1727" y2="59.6803" gradientUnits="userSpaceOnUse">
<stop stop-color="#115B99"/>
<stop offset="0.591097" stop-color="#094A95"/>
</linearGradient>
<linearGradient id="paint5_linear_1770_71463" x1="50.3496" y1="55.1865" x2="50.3496" y2="59.6803" gradientUnits="userSpaceOnUse">
<stop stop-color="#115B99"/>
<stop offset="0.591097" stop-color="#094A95"/>
</linearGradient>
<clipPath id="clip0_1770_71463">
<rect width="78" height="78" fill="white"/>
</clipPath>
</defs>
</svg>
