<svg width="30" height="30" viewBox="0 0 30 30" fill="none" xmlns="http://www.w3.org/2000/svg">
<path d="M23.6 24.2999H6.3C4.2 24.2999 2.5 22.8 2.3 20.7C1.9 17.6 1.9 12.4 2.3 9.29995C2.5 7.29995 4.3 5.69995 6.3 5.69995H23.7C25.7 5.69995 27.5 7.19995 27.7 9.29995L27.8 10.5C28.1 12.9 28.1 16.8 27.8 19.1L27.6 20.7C27.4 22.7 25.7 24.2999 23.6 24.2999ZM6.3 7.49995C5.1 7.49995 4.2 8.39995 4 9.49995C3.6 12.5 3.6 17.5 4 20.5C4.1 21.6 5.1 22.5 6.3 22.5H23.6C24.8 22.5 25.7 21.6 25.9 20.5L26.1 18.9C26.4 16.6 26.3 12.9 26.1 10.7L26 9.49995C25.9 8.39995 24.9 7.49995 23.7 7.49995H6.3Z" fill="white"/>
<path d="M18.4998 14.9999L12.2998 11.8999V18.0999L18.4998 14.9999Z" fill="white"/>
<path d="M12.3004 19C12.1004 19 12.0004 19 11.8004 18.9C11.5004 18.7 11.4004 18.5 11.4004 18.1V11.9C11.4004 11.6 11.6004 11.3 11.8004 11.1C12.1004 10.9 12.4004 10.9 12.7004 11.1L18.9004 14.2C19.2004 14.3 19.4004 14.7 19.4004 15C19.4004 15.3 19.2004 15.6 18.9004 15.8L12.7004 18.9C12.6004 18.9 12.5004 19 12.3004 19ZM13.2004 13.3V16.6L16.5004 14.9L13.2004 13.3Z" fill="white"/>
</svg>
