<svg width="78" height="78" viewBox="0 0 78 78" fill="none" xmlns="http://www.w3.org/2000/svg">
<g clip-path="url(#clip0_1766_51315)">
<path fill-rule="evenodd" clip-rule="evenodd" d="M39 76C59.4345 76 76 59.4345 76 39C76 18.5655 59.4345 2 39 2C18.5655 2 2 18.5655 2 39C2 59.4345 18.5655 76 39 76ZM39 78C60.5391 78 78 60.5391 78 39C78 17.4609 60.5391 0 39 0C17.4609 0 0 17.4609 0 39C0 60.5391 17.4609 78 39 78Z" fill="#F6F6F6"/>
<path opacity="0.7" d="M73.6667 39C73.6667 58.1459 58.1459 73.6667 39 73.6667C19.8541 73.6667 4.33333 58.1459 4.33333 39C4.33333 19.8541 19.8541 4.33334 39 4.33334C58.1459 4.33334 73.6667 19.8541 73.6667 39Z" fill="#E7E7E7"/>
<path d="M68 39C68 55.0163 55.0163 68 39 68C22.9837 68 10 55.0163 10 39C10 22.9837 22.9837 10 39 10C55.0163 10 68 22.9837 68 39Z" fill="white"/>
<path fill-rule="evenodd" clip-rule="evenodd" d="M35.3917 23.928C35.6918 23.92 35.9716 24.0788 36.1185 24.3405L49.8517 48.7982C50.0159 49.0906 49.9826 49.4539 49.7682 49.7116C49.5537 49.9693 49.2025 50.0679 48.8852 49.9596L26.8053 42.4217C26.5851 42.3466 26.4079 42.1802 26.3191 41.9651C26.2302 41.7501 26.2383 41.5072 26.3413 41.2985L34.688 24.3787C34.8208 24.1095 35.0917 23.936 35.3917 23.928ZM35.4596 26.4709L28.1993 41.1884L47.4053 47.7452L35.4596 26.4709Z" fill="url(#paint0_linear_1766_51315)"/>
<path d="M57.622 49.1929C57.622 53.8677 53.8369 57.6689 49.146 57.6689C44.455 57.6689 40.6699 53.8677 40.6699 49.1929C40.6699 44.5181 44.4712 40.7168 49.146 40.7168C53.8208 40.7168 57.622 44.5181 57.622 49.1929Z" fill="url(#paint1_linear_1766_51315)"/>
<path fill-rule="evenodd" clip-rule="evenodd" d="M44.4396 22.6664C50.9168 22.6664 56.1831 27.918 56.1831 34.41H57.8007C57.8007 27.0233 51.8089 21.0488 44.4396 21.0488V22.6664ZM43.6309 26.7767C48.2148 26.7767 51.9289 30.4908 51.9289 35.0748H53.5465C53.5465 29.5975 49.1082 25.1591 43.6309 25.1591V26.7767Z" fill="url(#paint2_linear_1766_51315)"/>
<path d="M33.1318 41.6563C33.1318 45.0047 30.4143 47.7384 27.0659 47.7384C23.7175 47.7384 21 45.0209 21 41.6563C21 38.2918 23.7175 35.5742 27.0659 35.5742C30.4143 35.5742 33.1318 38.2918 33.1318 41.6563Z" fill="url(#paint3_linear_1766_51315)"/>
<path d="M39.1509 24.7366C39.1509 26.8071 37.4848 28.4732 35.4143 28.4732C33.3438 28.4732 31.6777 26.8071 31.6777 24.7366C31.6777 22.6661 33.3438 21 35.4143 21C37.4848 21 39.1509 22.6661 39.1509 24.7366Z" fill="url(#paint4_linear_1766_51315)"/>
</g>
<defs>
<linearGradient id="paint0_linear_1766_51315" x1="35.1444" y1="14.1223" x2="35.1444" y2="50.003" gradientUnits="userSpaceOnUse">
<stop stop-color="#FFC56D"/>
<stop offset="1" stop-color="#F56700"/>
</linearGradient>
<linearGradient id="paint1_linear_1766_51315" x1="49.146" y1="40.7168" x2="49.146" y2="62" gradientUnits="userSpaceOnUse">
<stop stop-color="#FBEABE"/>
<stop offset="1" stop-color="#FEA03D"/>
</linearGradient>
<linearGradient id="paint2_linear_1766_51315" x1="48.9446" y1="15.7745" x2="48.9446" y2="35.0748" gradientUnits="userSpaceOnUse">
<stop stop-color="#FFC56D"/>
<stop offset="1" stop-color="#F56700"/>
</linearGradient>
<linearGradient id="paint3_linear_1766_51315" x1="25.5494" y1="31" x2="25.5494" y2="47.7384" gradientUnits="userSpaceOnUse">
<stop stop-color="#FFC56D"/>
<stop offset="1" stop-color="#F56700"/>
</linearGradient>
<linearGradient id="paint4_linear_1766_51315" x1="35.4143" y1="21" x2="35.4143" y2="30.3825" gradientUnits="userSpaceOnUse">
<stop stop-color="#FBEABE"/>
<stop offset="1" stop-color="#FEA03D"/>
</linearGradient>
<clipPath id="clip0_1766_51315">
<rect width="78" height="78" fill="white"/>
</clipPath>
</defs>
</svg>
