<svg width="25" height="48" viewBox="0 0 25 48" fill="none" xmlns="http://www.w3.org/2000/svg">
<path d="M17.2493 33.6679H17.2494C15.7652 33.6679 14.4501 32.9279 13.6346 31.789C13.3636 31.4106 13.1486 30.9882 13.0001 30.5341C12.9988 30.5301 12.9974 30.5261 12.9961 30.5222C12.9796 30.4711 12.9639 30.4196 12.9491 30.3677C12.9452 30.3548 12.9418 30.3417 12.9382 30.3286C12.9248 30.2803 12.9117 30.2317 12.8999 30.1828C12.8965 30.1694 12.8939 30.1558 12.8908 30.1425C12.8729 30.0657 12.8571 29.9881 12.843 29.9098C12.8366 29.8747 12.8302 29.8396 12.8246 29.8041C12.8197 29.773 12.8157 29.7416 12.8115 29.7102C12.806 29.67 12.8008 29.6297 12.7964 29.589C12.7933 29.5602 12.7904 29.5312 12.7878 29.5022C12.7837 29.4558 12.7803 29.4093 12.7774 29.3626C12.776 29.3384 12.7742 29.3143 12.7731 29.2901C12.7699 29.2188 12.7678 29.1473 12.7678 29.0752C12.7678 29.0751 12.7678 29.075 12.7678 29.0749C12.7678 29.0749 12.7678 29.0749 12.7678 29.0748C12.7678 29.0005 12.7698 28.9265 12.7733 28.8529C12.7745 28.8271 12.7768 28.8015 12.7783 28.7757C12.7813 28.7286 12.7844 28.6816 12.7888 28.635C12.7917 28.6031 12.7955 28.5715 12.7991 28.5398C12.8036 28.5003 12.8082 28.4609 12.8137 28.4217C12.8186 28.3864 12.8241 28.3512 12.8299 28.316C12.8354 28.282 12.8413 28.248 12.8475 28.2142C12.8547 28.1756 12.8621 28.1372 12.8702 28.0989C12.8761 28.0711 12.8825 28.0434 12.889 28.0158C12.8989 27.9727 12.9089 27.9297 12.92 27.8871C12.9244 27.8703 12.9293 27.8537 12.9339 27.837C13.3808 26.1976 14.6918 24.9281 16.3327 24.5785C16.6287 24.5154 16.9352 24.4819 17.2495 24.4819C17.5636 24.4819 17.8701 24.5154 18.166 24.5784V21.7682H16.3327H15.0363H10.5271C10.0209 21.7682 9.61046 21.3475 9.61046 20.8287V16.2075V14.8789V13H2.58268C2.0765 13 1.66602 13.4206 1.66602 13.9394V32.7284C1.66602 33.2472 2.0765 33.6679 2.58268 33.6679H17.2493Z" fill="white"/>
<path d="M23.4097 33.5051L21.6047 31.7001C21.2814 32.1932 20.8593 32.6153 20.3662 32.9387L22.1712 34.7436C22.3422 34.9146 22.5664 35.0001 22.7904 35.0001C23.0146 35.0001 23.2386 34.9146 23.4097 34.7436C23.7517 34.4015 23.7517 33.8471 23.4097 33.5051Z" fill="white"/>
<path d="M11.5664 19.5267H15.3998H18.1664L11.5664 13V15.7358V19.5267Z" fill="white"/>
<path d="M20.3662 28.9502C20.3662 27.4338 19.1327 26.2001 17.6163 26.2001C16.1 26.2001 14.8662 27.4337 14.8662 28.9502C14.8662 30.4664 16.0999 31.7001 17.6163 31.7001C19.1327 31.7001 20.3662 30.4664 20.3662 28.9502Z" fill="white"/>
</svg>
