<svg width="60" height="60" viewBox="0 0 60 60" fill="none" xmlns="http://www.w3.org/2000/svg">
<circle cx="30" cy="30" r="30" fill="white"/>
<circle cx="30" cy="30" r="27" fill="url(#paint0_linear_1843_44515)"/>
<g clip-path="url(#clip0_1843_44515)">
<path d="M19.597 25.345C19.597 20.5371 26.2521 14 26.2521 14C26.2521 14 32.9071 20.5371 32.9071 25.345C32.9071 29.0262 29.9202 32 26.2521 32C22.5839 32 19.597 29.0131 19.597 25.345Z" fill="#F38733"/>
<path d="M24.4029 19.3688L23.0134 20.7583L24.4029 22.1478L25.7925 20.7583L24.4029 19.3688Z" fill="white"/>
<path d="M34.819 37.2704C33.5071 37.2704 32.8328 36.4612 32.2933 35.8113C31.7538 35.1615 31.386 34.7692 30.6503 34.7692C29.9147 34.7692 29.5468 35.1615 29.0074 35.8113C28.4679 36.4612 27.7935 37.2704 26.4816 37.2704C25.1697 37.2704 24.5076 36.4612 23.9681 35.8113C23.4286 35.1615 23.0608 34.7692 22.3252 34.7692C21.5895 34.7692 21.2217 35.1615 20.6822 35.8113C20.1427 36.4612 19.4684 37.2704 18.1564 37.2704C16.8445 37.2704 16.1824 36.4612 15.643 35.8113C15.1035 35.1615 14.7357 34.7692 14 34.7692V33.6289C15.3119 33.6289 15.974 34.4381 16.5257 35.088C17.0652 35.7378 17.4331 36.1301 18.1687 36.1301C18.9044 36.1301 19.2722 35.7378 19.8117 35.088C20.3512 34.4381 21.0255 33.6289 22.3252 33.6289C23.6248 33.6289 24.2992 34.4381 24.8509 35.088C25.3904 35.7378 25.7582 36.1301 26.4939 36.1301C27.2295 36.1301 27.5974 35.7378 28.1368 35.088C28.6763 34.4381 29.3507 33.6289 30.6626 33.6289C31.9745 33.6289 32.6488 34.4381 33.1883 35.088C33.7278 35.7378 34.0956 36.1301 34.8313 36.1301C35.5669 36.1301 35.9348 35.7378 36.4743 35.088C37.0137 34.4381 37.6881 33.6289 39 33.6289V34.7692C38.2643 34.7692 37.8965 35.1615 37.357 35.8113C36.8176 36.4612 36.1432 37.2704 34.8313 37.2704" fill="#FFCF54"/>
<path d="M34.819 41.2025C33.5071 41.2025 32.8328 40.3933 32.2933 39.7435C31.7538 39.0936 31.386 38.7013 30.6503 38.7013C29.9147 38.7013 29.5468 39.0936 29.0074 39.7435C28.4679 40.3933 27.7935 41.2025 26.4816 41.2025C25.1697 41.2025 24.5076 40.3933 23.9681 39.7435C23.4286 39.0936 23.0608 38.7013 22.3252 38.7013C21.5895 38.7013 21.2217 39.0936 20.6822 39.7435C20.1427 40.3933 19.4684 41.2025 18.1564 41.2025C16.8445 41.2025 16.1824 40.3933 15.643 39.7435C15.1035 39.0936 14.7357 38.7013 14 38.7013V37.561C15.3119 37.561 15.974 38.3703 16.5257 39.0201C17.0652 39.6699 17.4331 40.0623 18.1687 40.0623C18.9044 40.0623 19.2722 39.6699 19.8117 39.0201C20.3512 38.3703 21.0255 37.561 22.3252 37.561C23.6248 37.561 24.2992 38.3703 24.8509 39.0201C25.3904 39.6699 25.7582 40.0623 26.4939 40.0623C27.2295 40.0623 27.5974 39.6699 28.1368 39.0201C28.6763 38.3703 29.3507 37.561 30.6626 37.561C31.9745 37.561 32.6488 38.3703 33.1883 39.0201C33.7278 39.6699 34.0956 40.0623 34.8313 40.0623C35.5669 40.0623 35.9348 39.6699 36.4743 39.0201C37.0137 38.3703 37.6881 37.561 39 37.561V38.7013C38.2643 38.7013 37.8965 39.0936 37.357 39.7435C36.8176 40.3933 36.1432 41.2025 34.8313 41.2025" fill="#FFCF54"/>
<path fill-rule="evenodd" clip-rule="evenodd" d="M37.9205 29H40.1686V41.6451L42.8709 38.9428V42.1867L39.0536 46.0039L35.2213 42.1867V38.9428L37.9205 41.6314V29Z" fill="#F38733"/>
</g>
<defs>
<linearGradient id="paint0_linear_1843_44515" x1="30" y1="3" x2="30" y2="57" gradientUnits="userSpaceOnUse">
<stop stop-color="#F6F6F6"/>
<stop offset="0.5" stop-color="white"/>
</linearGradient>
<clipPath id="clip0_1843_44515">
<rect width="32" height="32" fill="white" transform="translate(14 14)"/>
</clipPath>
</defs>
</svg>
