<svg width="78" height="78" viewBox="0 0 78 78" fill="none" xmlns="http://www.w3.org/2000/svg">
<g clip-path="url(#clip0_1815_43367)">
<path fill-rule="evenodd" clip-rule="evenodd" d="M39 76C59.4345 76 76 59.4345 76 39C76 18.5655 59.4345 2 39 2C18.5655 2 2 18.5655 2 39C2 59.4345 18.5655 76 39 76ZM39 78C60.5391 78 78 60.5391 78 39C78 17.4609 60.5391 0 39 0C17.4609 0 0 17.4609 0 39C0 60.5391 17.4609 78 39 78Z" fill="#F6F6F6"/>
<path opacity="0.7" d="M73.6666 39C73.6666 58.1459 58.1458 73.6667 38.9999 73.6667C19.854 73.6667 4.33325 58.1459 4.33325 39C4.33325 19.8542 19.854 4.33337 38.9999 4.33337C58.1458 4.33337 73.6666 19.8542 73.6666 39Z" fill="#E7E7E7"/>
<path d="M68 39C68 55.0163 55.0163 68 39 68C22.9837 68 10 55.0163 10 39C10 22.9837 22.9837 10 39 10C55.0163 10 68 22.9837 68 39Z" fill="white"/>
</g>
<path fill-rule="evenodd" clip-rule="evenodd" d="M39.9191 31.1362V28.9835L37.1224 28.0174C36.9699 27.4072 36.7495 26.8309 36.4613 26.2885L37.7326 23.6782L36.2071 22.1357L33.6476 23.3731C33.1052 23.051 32.512 22.8137 31.8848 22.6273L30.9865 20H28.8169L27.9016 22.6273C27.2914 22.7968 26.7151 23.0341 26.1896 23.3392L23.681 22.1188L22.1555 23.6612L23.3759 26.1698C23.0708 26.7292 22.8335 27.3055 22.681 27.9157L19.969 28.8479V31.0175L22.7488 31.9667C22.9352 32.56 23.1725 33.1024 23.4776 33.6278L22.1725 36.3059L23.698 37.8314L26.5117 36.4754C26.9524 36.6958 27.427 36.8822 27.9185 37.0178L28.9355 39.9671H31.1051L32.1391 36.967C32.5628 36.8314 32.9696 36.6449 33.3595 36.4585L36.224 37.8484L37.7495 36.3229L36.3935 33.5431C36.6478 33.1024 36.8512 32.6278 37.0207 32.1362L39.9531 31.1192L39.9191 31.1362ZM29.9186 32.1532L27.766 30.0005L29.9186 27.8309L32.0882 30.0005L29.9186 32.1532Z" fill="url(#paint0_linear_1815_43367)"/>
<path d="M46.1376 49.4925C46.1376 49.4925 34.1709 40.8989 34.3574 26.4066L46.1376 20.0165L57.9179 26.4066C58.1043 40.8989 46.1376 49.4925 46.1376 49.4925Z" fill="url(#paint1_linear_1815_43367)"/>
<path fill-rule="evenodd" clip-rule="evenodd" d="M44.63 35.7636H47.6641L48.3082 27.6445H43.969L44.63 35.7636ZM44.5979 37.6797H47.6659V40.7476H44.5979V37.6797Z" fill="url(#paint2_linear_1815_43367)"/>
<path fill-rule="evenodd" clip-rule="evenodd" d="M45.3795 41.2695L28.7346 44.8629L28.7383 44.8691L28.7218 44.8527L21.926 51.6484L28.7218 58.4442L33.7433 53.4227H46.4304L54.2444 48.3207V44.4561L46.6508 48.3207L38.9216 46.3715L45.3795 44.8629V41.2695Z" fill="url(#paint3_linear_1815_43367)"/>
<defs>
<linearGradient id="paint0_linear_1815_43367" x1="29.961" y1="20" x2="29.961" y2="39.9671" gradientUnits="userSpaceOnUse">
<stop stop-color="#F18D36"/>
<stop offset="1" stop-color="#DF580C"/>
</linearGradient>
<linearGradient id="paint1_linear_1815_43367" x1="47.4998" y1="49.0009" x2="47.4998" y2="20.0009" gradientUnits="userSpaceOnUse">
<stop stop-color="#FFA95F"/>
<stop offset="1" stop-color="#FFDABA"/>
</linearGradient>
<linearGradient id="paint2_linear_1815_43367" x1="46.1386" y1="27.6445" x2="46.1386" y2="40.7476" gradientUnits="userSpaceOnUse">
<stop stop-color="#F18D36"/>
<stop offset="1" stop-color="#DF580C"/>
</linearGradient>
<linearGradient id="paint3_linear_1815_43367" x1="38.0852" y1="41.2695" x2="38.0852" y2="58.4442" gradientUnits="userSpaceOnUse">
<stop stop-color="#F18D36"/>
<stop offset="1" stop-color="#DF580C"/>
</linearGradient>
<clipPath id="clip0_1815_43367">
<rect width="78" height="78" fill="white"/>
</clipPath>
</defs>
</svg>
