<svg width="76" height="76" viewBox="0 0 76 76" fill="none" xmlns="http://www.w3.org/2000/svg">
<circle cx="38" cy="38" r="38" fill="white"/>
<circle cx="38" cy="37.9998" r="34.2" fill="url(#paint0_linear_1843_44397)"/>
<g clip-path="url(#clip0_1843_44397)">
<path d="M49.5606 24.5876C48.7014 24.5876 47.8613 24.7212 47.0785 24.9504C45.1884 20.7118 40.9499 17.7334 36.0049 17.7334C29.3225 17.7334 23.8812 23.1557 23.8812 29.8571C23.8812 29.8571 23.843 29.8571 23.8048 29.8571C20.4636 29.8571 17.7334 32.5683 17.7334 35.9285C17.7334 39.2888 20.4445 41.9999 23.8048 41.9999H49.5606C54.3719 41.9999 58.2667 38.1051 58.2667 33.2938C58.2667 28.4825 54.3719 24.5876 49.5606 24.5876Z" fill="#A7AC39"/>
<path fill-rule="evenodd" clip-rule="evenodd" d="M47.1962 33.8196H52.1794V33.4377C52.1794 32.2922 51.893 31.3948 51.3011 30.7457C50.7093 30.0965 49.8883 29.772 48.8764 29.772C47.8645 29.772 47.0435 30.1156 46.4325 30.7839C45.8216 31.4712 45.5161 32.3495 45.5161 33.4568C45.5161 34.5642 45.8216 35.4615 46.4516 36.1298C47.0817 36.798 47.9218 37.1226 48.9527 37.1226C49.3155 37.1226 49.6592 37.0844 49.9646 37.008C50.2701 36.9317 50.5565 36.8171 50.8238 36.6453C51.0911 36.4734 51.3393 36.2634 51.5684 36.0152C51.7975 35.767 52.0266 35.4615 52.2366 35.0988L50.8811 34.3351C50.5565 34.8506 50.2701 35.1942 50.0028 35.3852C49.7355 35.5761 49.411 35.6715 49.01 35.6715C48.4945 35.6715 48.0745 35.4997 47.7499 35.1751C47.4253 34.8506 47.2344 34.3924 47.1962 33.8196ZM48.9146 31.223C49.7737 31.223 50.3083 31.643 50.5374 32.5022V32.5213H47.3108C47.3681 32.3113 47.4444 32.1394 47.5399 31.9867C47.6354 31.834 47.769 31.7003 47.9027 31.5858C48.0363 31.4712 48.189 31.3757 48.3609 31.3185C48.5327 31.2612 48.7236 31.223 48.9146 31.223ZM30.1707 30.5186V32.6569C29.8079 32.2178 29.4833 31.9123 29.1779 31.7405C28.8915 31.5686 28.5478 31.4923 28.166 31.4923C27.555 31.4923 27.0586 31.7023 26.6576 32.1223C26.2567 32.5424 26.0658 33.077 26.0658 33.707C26.0658 34.3371 26.2567 34.8907 26.6386 35.3108C27.0204 35.7308 27.5168 35.9408 28.1278 35.9408C28.5096 35.9408 28.8533 35.8645 29.1397 35.6926C29.4261 35.5399 29.7506 35.2153 30.1516 34.7571V36.8764C29.5024 37.22 28.8533 37.3919 28.2041 37.3919C27.135 37.3919 26.2376 37.0482 25.5121 36.3418C24.7866 35.6353 24.4238 34.7762 24.4238 33.7452C24.4238 32.7142 24.7866 31.8359 25.5121 31.1104C26.2376 30.404 27.1541 30.0412 28.2041 30.0412C28.8915 30.0412 29.5406 30.2131 30.1516 30.5377L30.1707 30.5186ZM31.5647 33.6497C31.5647 32.6569 31.9274 31.7978 32.6338 31.0913C33.3594 30.3849 34.2185 30.0412 35.2686 30.0412C36.3187 30.0412 37.1779 30.3849 37.9034 31.1104C38.6098 31.8168 38.9725 32.6951 38.9725 33.7261C38.9725 34.7571 38.6098 35.6353 37.9034 36.3418C37.1779 37.0482 36.2996 37.3919 35.2495 37.3919C34.1994 37.3919 33.3403 37.0291 32.6338 36.3227C31.9274 35.6163 31.5838 34.738 31.5838 33.6688L31.5647 33.6497ZM33.2066 33.6688C33.2066 34.3561 33.3975 34.9098 33.7603 35.3108C34.1421 35.7117 34.6386 35.9217 35.2686 35.9217C35.8987 35.9217 36.3951 35.7117 36.7769 35.3108C37.1588 34.9098 37.3306 34.3752 37.3306 33.6879C37.3306 33.0006 37.1397 32.466 36.7769 32.065C36.3951 31.6641 35.8987 31.4541 35.2686 31.4541C34.6386 31.4541 34.1612 31.6641 33.7794 32.065C33.3975 32.466 33.2066 33.0006 33.2066 33.6497V33.6688ZM43.2687 37.3099H43.2878L43.2687 37.3481V37.3099ZM39.8512 37.3099H43.2687V36.3362H41.9705L42.3141 35.9161C42.505 35.7061 42.6578 35.5152 42.7723 35.3624C42.906 35.2097 43.0014 35.057 43.0587 34.9424C43.1924 34.6942 43.2687 34.446 43.2687 34.1787C43.2687 33.7587 43.116 33.415 42.8105 33.1286C42.5241 32.8422 42.1614 32.7086 41.7223 32.7086C41.0922 32.7086 40.3285 32.9568 40.1567 34.1978V34.4269H41.2258V34.236C41.2831 33.7587 41.5313 33.6823 41.7413 33.6823C41.8941 33.6823 42.0086 33.7205 42.1041 33.8159C42.1996 33.8923 42.2377 34.0069 42.2377 34.1405C42.2377 34.236 42.1996 34.3505 42.1232 34.4842C42.1011 34.5137 42.079 34.5488 42.0547 34.5875C42.016 34.649 41.9718 34.7193 41.9132 34.7897C41.8462 34.87 41.7698 34.9692 41.6841 35.0805C41.6476 35.1279 41.6094 35.1775 41.5695 35.2288L39.8512 37.3099Z" fill="#FEFAF5"/>
<path fill-rule="evenodd" clip-rule="evenodd" d="M51.8959 45.163L54.0653 36.7334L45.6001 48.7733H50.8905L48.4563 58.2668L57.6402 45.163H51.8959Z" fill="#E2E081"/>
</g>
<defs>
<linearGradient id="paint0_linear_1843_44397" x1="38" y1="3.7998" x2="38" y2="72.1998" gradientUnits="userSpaceOnUse">
<stop stop-color="#F6F6F6"/>
<stop offset="0.5" stop-color="white"/>
</linearGradient>
<clipPath id="clip0_1843_44397">
<rect width="40.5333" height="40.5333" fill="white" transform="translate(17.7334 17.7334)"/>
</clipPath>
</defs>
</svg>
