<svg width="30" height="30" viewBox="0 0 30 30" fill="none" xmlns="http://www.w3.org/2000/svg">
<path d="M25.7 6H4.3C3.1 6 2 7 2 8.3V22C2 23.3 3 24.3 4.3 24.3H25.7C26.9 24.3 28 23.3 28 22V8.3C28 7 26.9 6 25.7 6ZM25.4 7.5C24.9 8 16.9 15.9 16.7 16.2C16.3 16.6 15.7 16.9 15.1 16.9C14.5 16.9 13.9 16.7 13.5 16.2C13.2 16 5.3 8.1 4.6 7.5H25.4ZM3.6 21.6V8.6L10.2 15.1L3.6 21.6ZM4.6 22.7L11.2 16.2L12.3 17.3C13 18 14 18.4 15 18.4C16 18.4 17 18 17.7 17.3L18.8 16.2L25.4 22.7H4.6ZM26.4 21.6L19.9 15.1L26.5 8.6V21.6H26.4Z" fill="white"/>
</svg>
