<svg width="26" height="44" viewBox="0 0 26 44" fill="none" xmlns="http://www.w3.org/2000/svg">
<path d="M24.3424 0C24.153 0 23.9557 0.0358391 23.7505 0.107525C23.5452 0.179211 23.3637 0.286739 23.2058 0.430107L0.473589 21.1183C0.157864 21.405 0 21.7491 0 22.1505C0 22.552 0.157864 22.8961 0.473589 23.1828L22.8743 43.5699C23.19 43.8566 23.5768 44 24.0346 44C24.4924 44 24.8792 43.8566 25.1949 43.5699C25.5106 43.2832 25.6685 42.9319 25.6685 42.5161C25.6685 42.1004 25.5106 41.7491 25.1949 41.4624L3.88342 22.1505L25.5264 2.49462C25.8421 2.20788 26 1.8638 26 1.46236C26 1.06093 25.8421 0.716846 25.5264 0.430107C25.3685 0.286739 25.187 0.179211 24.9818 0.107525C24.7766 0.0358391 24.5634 0 24.3424 0Z" fill="white"/>
</svg>
