<svg width="30" height="30" viewBox="0 0 30 30" fill="none" xmlns="http://www.w3.org/2000/svg">
<path d="M25.4 3.4H9.4C9 2 7.7 1 6.2 1C4.4 1 3 2.4 3 4.2V24.4C3 26.6 4.8 28.4 7 28.4H23.7C24.1 28.4 24.5 28 24.5 27.6V25.2H25.3C25.7 25.2 26.1 24.8 26.1 24.4V4.2C26.2 3.8 25.8 3.4 25.4 3.4ZM6.2 2.6C7.1 2.6 7.8 3.3 7.8 4.2V21.6C7.3 21.3 6.8 21.2 6.2 21.2C5.6 21.2 5.1 21.4 4.6 21.6V4.2C4.6 3.3 5.4 2.6 6.2 2.6ZM23 26.8H7C5.7 26.8 4.6 25.7 4.6 24.4C4.6 23.5 5.3 22.8 6.2 22.8C7.1 22.8 7.8 23.5 7.8 24.4C7.8 24.8 8.2 25.2 8.6 25.2H22.9L23 26.8ZM24.6 23.6H9.5V5H24.6V23.6Z" fill="white"/>
<path d="M11.8996 21.1H20.2996C20.6996 21.1 21.0996 20.7 21.0996 20.3C21.0996 19.9 20.6996 19.5 20.2996 19.5H11.8996C11.4996 19.5 11.0996 19.9 11.0996 20.3C11.0996 20.7 11.3996 21.1 11.8996 21.1Z" fill="white"/>
<path d="M11.8996 17.9H22.1996C22.5996 17.9 22.9996 17.5 22.9996 17.1C22.9996 16.7 22.5996 16.3 22.1996 16.3H11.8996C11.4996 16.3 11.0996 16.7 11.0996 17.1C11.0996 17.5 11.3996 17.9 11.8996 17.9Z" fill="white"/>
<path d="M22.2 13H20.3C19.9 13 19.5 13.4 19.5 13.8C19.5 14.2 19.9 14.6 20.3 14.6H22.2C22.6 14.6 23 14.2 23 13.8C23 13.4 22.6 13 22.2 13Z" fill="white"/>
<path d="M22.2 9.80005H20.3C19.9 9.80005 19.5 10.2 19.5 10.6C19.5 11 19.9 11.4 20.3 11.4H22.2C22.6 11.4 23 11 23 10.6C23 10.2 22.6 9.80005 22.2 9.80005Z" fill="white"/>
<path d="M11.8996 8.2001H22.1996C22.5996 8.2001 22.9996 7.8001 22.9996 7.4001C22.9996 7.0001 22.5996 6.6001 22.1996 6.6001H11.8996C11.4996 6.6001 11.0996 7.0001 11.0996 7.4001C11.0996 7.9001 11.3996 8.2001 11.8996 8.2001Z" fill="white"/>
<path d="M11.8996 14.6H16.9996C17.3996 14.6 17.7996 14.2 17.7996 13.8V10.6C17.7996 10.2 17.3996 9.80005 16.9996 9.80005H11.8996C11.4996 9.80005 11.0996 10.2 11.0996 10.6V13.8C11.0996 14.3 11.3996 14.6 11.8996 14.6ZM12.6996 11.4H16.1996V13H12.6996V11.4Z" fill="white"/>
</svg>
