<svg width="78" height="78" viewBox="0 0 78 78" fill="none" xmlns="http://www.w3.org/2000/svg">
<g clip-path="url(#clip0_1815_40916)">
<path fill-rule="evenodd" clip-rule="evenodd" d="M39 76C59.4345 76 76 59.4345 76 39C76 18.5655 59.4345 2 39 2C18.5655 2 2 18.5655 2 39C2 59.4345 18.5655 76 39 76ZM39 78C60.5391 78 78 60.5391 78 39C78 17.4609 60.5391 0 39 0C17.4609 0 0 17.4609 0 39C0 60.5391 17.4609 78 39 78Z" fill="#F6F6F6"/>
<path opacity="0.7" d="M73.6667 39.0002C73.6667 58.146 58.1459 73.6668 39 73.6668C19.8541 73.6668 4.33334 58.146 4.33334 39.0002C4.33334 19.8543 19.8541 4.3335 39 4.3335C58.1459 4.3335 73.6667 19.8543 73.6667 39.0002Z" fill="#E7E7E7"/>
<path d="M68 39C68 55.0163 55.0163 68 39 68C22.9837 68 10 55.0163 10 39C10 22.9837 22.9837 10 39 10C55.0163 10 68 22.9837 68 39Z" fill="white"/>
</g>
<path d="M31.151 40.7379L23.063 32.5847C21 30.5051 21 27.1447 23.063 25.0651C25.126 22.9855 28.4596 22.9855 30.5089 25.0651L31.151 25.7124L31.7932 25.0651C33.8562 22.9855 37.1898 22.9855 39.2391 25.0651C41.3021 27.1447 41.3021 30.5051 39.2391 32.571L31.151 40.7241V40.7379Z" fill="url(#paint0_linear_1815_40916)"/>
<path d="M47.6687 19.0743L47.9146 19.3222C49.2808 20.6995 49.2808 22.9168 47.9146 24.2803L47.6687 24.5282C46.3025 25.8916 44.1029 25.8916 42.7503 24.5282L42.5044 24.2803C41.1381 22.903 41.1381 20.6857 42.5044 19.3222L42.7503 19.0743C44.1029 17.7109 46.3161 17.7109 47.6687 19.0743Z" fill="url(#paint1_linear_1815_40916)"/>
<path d="M40.0861 49.2356L37.6953 28.3018H52.7374L50.3465 49.2356H40.0861Z" fill="url(#paint2_linear_1815_40916)"/>
<path fill-rule="evenodd" clip-rule="evenodd" d="M29.992 44.5128L29.9899 44.5133L29.9905 44.5143L22.8077 51.7549L29.9953 59.0003L35.2949 53.658H48.7208L57.0001 48.2042V44.0725L48.9667 48.2042L40.783 46.1108L47.6142 44.5133V40.6846L29.9974 44.5116L29.9953 44.5095L29.992 44.5128Z" fill="url(#paint3_linear_1815_40916)"/>
<defs>
<linearGradient id="paint0_linear_1815_40916" x1="33.1749" y1="23.5054" x2="33.1749" y2="35.7116" gradientUnits="userSpaceOnUse">
<stop stop-color="#F6E7ED"/>
<stop offset="0.893485" stop-color="#E59FBA"/>
</linearGradient>
<linearGradient id="paint1_linear_1815_40916" x1="45.2095" y1="18.0518" x2="45.2095" y2="25.5507" gradientUnits="userSpaceOnUse">
<stop stop-color="#D386A4"/>
<stop offset="0.739909" stop-color="#C1567E"/>
</linearGradient>
<linearGradient id="paint2_linear_1815_40916" x1="45.2163" y1="28.3018" x2="45.2163" y2="49.2356" gradientUnits="userSpaceOnUse">
<stop stop-color="#D386A4"/>
<stop offset="0.739909" stop-color="#C1567E"/>
</linearGradient>
<linearGradient id="paint3_linear_1815_40916" x1="43.495" y1="40.6846" x2="43.495" y2="53.658" gradientUnits="userSpaceOnUse">
<stop stop-color="#F6E7ED"/>
<stop offset="0.893485" stop-color="#E59FBA"/>
</linearGradient>
<clipPath id="clip0_1815_40916">
<rect width="78" height="78" fill="white"/>
</clipPath>
</defs>
</svg>
