<svg width="76" height="76" viewBox="0 0 76 76" fill="none" xmlns="http://www.w3.org/2000/svg">
<circle cx="38" cy="38" r="38" fill="white"/>
<circle cx="38" cy="37.9998" r="34.2" fill="url(#paint0_linear_1843_44396)"/>
<g clip-path="url(#clip0_1843_44396)">
<path d="M49.5604 24.5876C48.7013 24.5876 47.8612 24.7212 47.0784 24.9504C45.1883 20.7118 40.9497 17.7334 36.0048 17.7334C29.3224 17.7334 23.8811 23.1557 23.8811 29.8571C23.8811 29.8571 23.8429 29.8571 23.8047 29.8571C20.4635 29.8571 17.7333 32.5683 17.7333 35.9285C17.7333 39.2888 20.4444 41.9999 23.8047 41.9999H49.5604C54.3717 41.9999 58.2666 38.1051 58.2666 33.2938C58.2666 28.4825 54.3717 24.5876 49.5604 24.5876Z" fill="#F38733"/>
<path fill-rule="evenodd" clip-rule="evenodd" d="M47.196 33.8196H52.1791V33.4377C52.1791 32.2922 51.8927 31.3948 51.3009 30.7457C50.709 30.0965 49.888 29.772 48.8761 29.772C47.8642 29.772 47.0433 30.1156 46.4323 30.7839C45.8213 31.4712 45.5159 32.3495 45.5159 33.4568C45.5159 34.5642 45.8213 35.4615 46.4514 36.1298C47.0814 36.798 47.9215 37.1226 48.9525 37.1226C49.3153 37.1226 49.6589 37.0844 49.9644 37.008C50.2699 36.9317 50.5563 36.8171 50.8236 36.6453C51.0909 36.4734 51.3391 36.2634 51.5682 36.0152C51.7973 35.767 52.0264 35.4615 52.2364 35.0988L50.8808 34.3351C50.5563 34.8506 50.2699 35.1942 50.0026 35.3852C49.7353 35.5761 49.4107 35.6715 49.0098 35.6715C48.4943 35.6715 48.0742 35.4997 47.7497 35.1751C47.4251 34.8506 47.2342 34.3924 47.196 33.8196ZM48.9143 31.223C49.7735 31.223 50.3081 31.643 50.5372 32.5022V32.5213H47.3105C47.3678 32.3113 47.4442 32.1394 47.5397 31.9867C47.6351 31.834 47.7688 31.7003 47.9024 31.5858C48.0361 31.4712 48.1888 31.3757 48.3606 31.3185C48.5325 31.2612 48.7234 31.223 48.9143 31.223ZM30.1704 30.5186V32.6569C29.8077 32.2178 29.4831 31.9123 29.1776 31.7405C28.8912 31.5686 28.5476 31.4923 28.1657 31.4923C27.5547 31.4923 27.0583 31.7023 26.6574 32.1223C26.2565 32.5424 26.0655 33.077 26.0655 33.707C26.0655 34.3371 26.2565 34.8907 26.6383 35.3108C27.0202 35.7308 27.5166 35.9408 28.1275 35.9408C28.5094 35.9408 28.853 35.8645 29.1394 35.6926C29.4258 35.5399 29.7504 35.2153 30.1513 34.7571V36.8764C29.5022 37.22 28.853 37.3919 28.2039 37.3919C27.1347 37.3919 26.2374 37.0482 25.5119 36.3418C24.7863 35.6353 24.4236 34.7762 24.4236 33.7452C24.4236 32.7142 24.7863 31.8359 25.5119 31.1104C26.2374 30.404 27.1538 30.0412 28.2039 30.0412C28.8912 30.0412 29.5404 30.2131 30.1513 30.5377L30.1704 30.5186ZM31.5644 33.6497C31.5644 32.6569 31.9272 31.7978 32.6336 31.0913C33.3591 30.3849 34.2183 30.0412 35.2684 30.0412C36.3184 30.0412 37.1776 30.3849 37.9031 31.1104C38.6095 31.8168 38.9723 32.6951 38.9723 33.7261C38.9723 34.7571 38.6095 35.6353 37.9031 36.3418C37.1776 37.0482 36.2994 37.3919 35.2493 37.3919C34.1992 37.3919 33.34 37.0291 32.6336 36.3227C31.9272 35.6163 31.5835 34.738 31.5835 33.6688L31.5644 33.6497ZM33.2064 33.6688C33.2064 34.3561 33.3973 34.9098 33.7601 35.3108C34.1419 35.7117 34.6383 35.9217 35.2684 35.9217C35.8984 35.9217 36.3948 35.7117 36.7767 35.3108C37.1585 34.9098 37.3303 34.3752 37.3303 33.6879C37.3303 33.0006 37.1394 32.466 36.7767 32.065C36.3948 31.6641 35.8984 31.4541 35.2684 31.4541C34.6383 31.4541 34.161 31.6641 33.7791 32.065C33.3973 32.466 33.2064 33.0006 33.2064 33.6497V33.6688ZM43.2685 37.3099H43.2876L43.2685 37.3481V37.3099ZM39.8509 37.3099H43.2685V36.3362H41.9702L42.3139 35.9161C42.5048 35.7061 42.6575 35.5152 42.7721 35.3624C42.9057 35.2097 43.0012 35.057 43.0585 34.9424C43.1921 34.6942 43.2685 34.446 43.2685 34.1787C43.2685 33.7587 43.1158 33.415 42.8103 33.1286C42.5239 32.8422 42.1611 32.7086 41.722 32.7086C41.092 32.7086 40.3283 32.9568 40.1564 34.1978V34.4269H41.2256V34.236C41.2829 33.7587 41.5311 33.6823 41.7411 33.6823C41.8938 33.6823 42.0084 33.7205 42.1039 33.8159C42.1993 33.8923 42.2375 34.0069 42.2375 34.1405C42.2375 34.236 42.1993 34.3505 42.1229 34.4842C42.1008 34.5137 42.0787 34.5488 42.0544 34.5875C42.0158 34.649 41.9715 34.7193 41.9129 34.7897C41.846 34.87 41.7696 34.9692 41.6838 35.0805C41.6474 35.1279 41.6092 35.1775 41.5693 35.2288L39.8509 37.3099Z" fill="#FEFAF5"/>
<path fill-rule="evenodd" clip-rule="evenodd" d="M49.5508 39.2666H51.8957V52.4528L54.7152 49.6333V53.0169L50.7336 56.9984L46.7363 53.0169V49.6333L49.5508 52.4367V39.2666Z" fill="#FFCF54"/>
</g>
<defs>
<linearGradient id="paint0_linear_1843_44396" x1="38" y1="3.7998" x2="38" y2="72.1998" gradientUnits="userSpaceOnUse">
<stop stop-color="#F6F6F6"/>
<stop offset="0.5" stop-color="white"/>
</linearGradient>
<clipPath id="clip0_1843_44396">
<rect width="40.5333" height="40.5333" fill="white" transform="translate(17.7333 17.7334)"/>
</clipPath>
</defs>
</svg>
