<svg width="78" height="78" viewBox="0 0 78 78" fill="none" xmlns="http://www.w3.org/2000/svg">
<g clip-path="url(#clip0_1815_40918)">
<path fill-rule="evenodd" clip-rule="evenodd" d="M39 76C59.4345 76 76 59.4345 76 39C76 18.5655 59.4345 2 39 2C18.5655 2 2 18.5655 2 39C2 59.4345 18.5655 76 39 76ZM39 78C60.5391 78 78 60.5391 78 39C78 17.4609 60.5391 0 39 0C17.4609 0 0 17.4609 0 39C0 60.5391 17.4609 78 39 78Z" fill="#F6F6F6"/>
<path opacity="0.7" d="M73.6666 39.0002C73.6666 58.146 58.1459 73.6668 39 73.6668C19.8541 73.6668 4.33331 58.146 4.33331 39.0002C4.33331 19.8543 19.8541 4.3335 39 4.3335C58.1459 4.3335 73.6666 19.8543 73.6666 39.0002Z" fill="#E7E7E7"/>
<path d="M68 39C68 55.0163 55.0163 68 39 68C22.9837 68 10 55.0163 10 39C10 22.9837 22.9837 10 39 10C55.0163 10 68 22.9837 68 39Z" fill="white"/>
</g>
<path fill-rule="evenodd" clip-rule="evenodd" d="M39.711 19L38.2751 19.0033L38.285 23.3683L39.7209 23.365L39.711 19ZM43.7095 19.7095L42.2244 23.8142L43.5746 24.3027L45.0597 20.198L43.7095 19.7095ZM32.9261 20.206L34.2738 19.7104L35.7803 23.8072L34.4327 24.3028L32.9261 20.206Z" fill="url(#paint0_linear_1815_40918)"/>
<path d="M28.4401 23.1619C29.6462 24.368 29.6462 26.3208 28.4401 27.5269C27.234 28.733 25.2812 28.733 24.0751 27.5269C22.8689 26.3208 22.8689 24.368 24.0751 23.1619C25.2812 21.9558 27.234 21.9558 28.4401 23.1619Z" fill="url(#paint1_linear_1815_40918)"/>
<path d="M49.5583 23.1619C48.3522 24.368 48.3522 26.3208 49.5583 27.5269C50.7644 28.733 52.7172 28.733 53.9233 27.5269C55.1294 26.3208 55.1294 24.368 53.9233 23.1619C52.7172 21.9558 50.7644 21.9558 49.5583 23.1619Z" fill="url(#paint2_linear_1815_40918)"/>
<path fill-rule="evenodd" clip-rule="evenodd" d="M22.0293 48.3713L20 30.7964H30.5239H32.7121H33.5679L35.1569 42.2641H39.0241V45.289H32.5341L31.7232 39.4428L30.7019 48.3713H28.4579L27.579 57.0074H24.937L24.0581 48.3713H22.0293Z" fill="url(#paint3_linear_1815_40918)"/>
<path fill-rule="evenodd" clip-rule="evenodd" d="M45.4756 45.289H39.0047V42.2641H42.8528L44.4418 30.7964H45.2876H47.4858H57.9997L55.9704 48.3713H53.9405L53.0807 57.0074H50.4196L49.5598 48.3713H47.2978L46.2811 39.4821L45.4756 45.289Z" fill="url(#paint4_linear_1815_40918)"/>
<defs>
<linearGradient id="paint0_linear_1815_40918" x1="38.9929" y1="19" x2="38.9929" y2="24.3028" gradientUnits="userSpaceOnUse">
<stop stop-color="#D386A4"/>
<stop offset="0.739909" stop-color="#C1567E"/>
</linearGradient>
<linearGradient id="paint1_linear_1815_40918" x1="26.906" y1="22.2573" x2="26.906" y2="26.6307" gradientUnits="userSpaceOnUse">
<stop stop-color="#F6E7ED"/>
<stop offset="0.893485" stop-color="#E59FBA"/>
</linearGradient>
<linearGradient id="paint2_linear_1815_40918" x1="51.7408" y1="22.2573" x2="51.7408" y2="28.4315" gradientUnits="userSpaceOnUse">
<stop stop-color="#D386A4"/>
<stop offset="0.739909" stop-color="#C1567E"/>
</linearGradient>
<linearGradient id="paint3_linear_1815_40918" x1="29.5121" y1="30.7964" x2="29.5121" y2="57.0074" gradientUnits="userSpaceOnUse">
<stop stop-color="#D386A4"/>
<stop offset="0.548987" stop-color="#C1567E"/>
</linearGradient>
<linearGradient id="paint4_linear_1815_40918" x1="50.4972" y1="30.7964" x2="50.4972" y2="49.3622" gradientUnits="userSpaceOnUse">
<stop stop-color="#F6E7ED"/>
<stop offset="0.700001" stop-color="#E59FBA"/>
</linearGradient>
<clipPath id="clip0_1815_40918">
<rect width="78" height="78" fill="white"/>
</clipPath>
</defs>
</svg>
