<svg width="78" height="78" viewBox="0 0 78 78" fill="none" xmlns="http://www.w3.org/2000/svg">
<g clip-path="url(#clip0_1815_40919)">
<path fill-rule="evenodd" clip-rule="evenodd" d="M39 76C59.4345 76 76 59.4345 76 39C76 18.5655 59.4345 2 39 2C18.5655 2 2 18.5655 2 39C2 59.4345 18.5655 76 39 76ZM39 78C60.5391 78 78 60.5391 78 39C78 17.4609 60.5391 0 39 0C17.4609 0 0 17.4609 0 39C0 60.5391 17.4609 78 39 78Z" fill="#F6F6F6"/>
<path opacity="0.7" d="M73.6666 39.0002C73.6666 58.146 58.1459 73.6668 39 73.6668C19.8541 73.6668 4.33331 58.146 4.33331 39.0002C4.33331 19.8543 19.8541 4.3335 39 4.3335C58.1459 4.3335 73.6666 19.8543 73.6666 39.0002Z" fill="#E7E7E7"/>
<path d="M68 39C68 55.0163 55.0163 68 39 68C22.9837 68 10 55.0163 10 39C10 22.9837 22.9837 10 39 10C55.0163 10 68 22.9837 68 39Z" fill="white"/>
</g>
<path d="M54.2953 24.9601V49.8361H30.415V19H48.3352L54.2953 24.9601Z" fill="url(#paint0_linear_1815_40919)"/>
<path d="M48.0962 27.1812H24.2291V58.0039H48.0962V27.1812Z" fill="url(#paint1_linear_1815_40919)"/>
<path d="M54.295 24.9601H48.3348V19L54.295 24.9601Z" fill="url(#paint2_linear_1815_40919)"/>
<path fill-rule="evenodd" clip-rule="evenodd" d="M38.1673 31.6094H27.6276V33.0828H38.1673V31.6094ZM35.2072 35.3945H27.6276V36.868H35.2072V35.3945ZM27.6276 44.7611H33.4019V39.1992H27.6276V44.7611ZM31.9417 43.2877H29.101V40.6594H31.9417V43.2877Z" fill="url(#paint3_linear_1815_40919)"/>
<path d="M43.0251 37.1561C43.9012 38.0322 43.9012 39.4393 43.0251 40.3154L42.9322 40.4216C42.1092 41.2313 40.795 41.2313 39.972 40.4216L39.8791 40.3154C39.003 39.4393 39.003 38.0322 39.8791 37.1561C40.7552 36.28 42.1623 36.28 43.0384 37.1561" fill="url(#paint4_linear_1815_40919)"/>
<path d="M38.3127 55.3561L36.8525 42.6792H46.0383L44.5781 55.3561H38.3127Z" fill="url(#paint5_linear_1815_40919)"/>
<defs>
<linearGradient id="paint0_linear_1815_40919" x1="42.3552" y1="19" x2="42.3552" y2="49.8361" gradientUnits="userSpaceOnUse">
<stop stop-color="#D386A4"/>
<stop offset="0.798635" stop-color="#C1567E"/>
</linearGradient>
<linearGradient id="paint1_linear_1815_40919" x1="38.6693" y1="27.1812" x2="38.6693" y2="65.5015" gradientUnits="userSpaceOnUse">
<stop stop-color="#F6E7ED"/>
<stop offset="0.901902" stop-color="#E59FBA"/>
</linearGradient>
<linearGradient id="paint2_linear_1815_40919" x1="51.9409" y1="19" x2="51.9409" y2="27.5" gradientUnits="userSpaceOnUse">
<stop stop-color="#F6E7ED"/>
<stop offset="0.893485" stop-color="#E59FBA"/>
</linearGradient>
<linearGradient id="paint3_linear_1815_40919" x1="38.0001" y1="40.5" x2="28.0001" y2="40.5" gradientUnits="userSpaceOnUse">
<stop stop-color="#D386A4"/>
<stop offset="0.739909" stop-color="#C1567E"/>
</linearGradient>
<linearGradient id="paint4_linear_1815_40919" x1="41.4521" y1="36.499" x2="41.4521" y2="41.0289" gradientUnits="userSpaceOnUse">
<stop stop-color="#D386A4"/>
<stop offset="0.739909" stop-color="#C1567E"/>
</linearGradient>
<linearGradient id="paint5_linear_1815_40919" x1="41.4454" y1="42.6792" x2="41.4454" y2="55.3561" gradientUnits="userSpaceOnUse">
<stop stop-color="#D386A4"/>
<stop offset="0.739909" stop-color="#C1567E"/>
</linearGradient>
<clipPath id="clip0_1815_40919">
<rect width="78" height="78" fill="white"/>
</clipPath>
</defs>
</svg>
