<svg width="26" height="44" viewBox="0 0 26 44" fill="none" xmlns="http://www.w3.org/2000/svg">
<path d="M1.65756 0C1.84699 0 2.04432 0.0358391 2.24954 0.107525C2.45477 0.179211 2.63631 0.286739 2.79417 0.430107L25.5264 21.1183C25.8421 21.405 26 21.7491 26 22.1505C26 22.552 25.8421 22.8961 25.5264 23.1828L3.12568 43.5699C2.80996 43.8566 2.42319 44 1.96539 44C1.50759 44 1.12083 43.8566 0.8051 43.5699C0.489375 43.2832 0.331512 42.9319 0.331512 42.5161C0.331512 42.1004 0.489375 41.7491 0.8051 41.4624L22.1166 22.1505L0.473588 2.49462C0.157863 2.20788 0 1.8638 0 1.46236C0 1.06093 0.157863 0.716846 0.473588 0.430107C0.631451 0.286739 0.812993 0.179211 1.01821 0.107525C1.22344 0.0358391 1.43655 0 1.65756 0Z" fill="white"/>
</svg>
