<svg width="60" height="60" viewBox="0 0 76 76" fill="none" xmlns="http://www.w3.org/2000/svg">
<circle cx="38" cy="38" r="38" fill="white"/>
<circle cx="37.9998" cy="37.9969" r="34.2" fill="url(#paint0_linear_349_47807)"/>
<path d="M36.3838 51.3647L32.1632 47.1407C32.1897 47.0915 32.2162 47.0461 32.2379 46.9921H38.2414C38.2707 46.7386 38.2849 46.4764 38.2849 46.2077C38.2849 46.1112 38.2755 46.0166 38.2707 45.9219C38.2755 46.0166 38.2849 46.1084 38.2849 46.2049C38.2849 48.1749 37.5676 49.9747 36.3838 51.3647ZM25.2342 52.3602L29.4794 48.1163C29.5154 48.1333 29.5561 48.1428 29.5977 48.1579C29.5949 48.1579 29.5949 48.1579 29.5949 48.1579V54.1429C29.8305 54.1656 30.0699 54.1798 30.3103 54.1798C30.545 54.1798 30.7778 54.1722 31.0125 54.1429V48.1598C31.0541 48.1456 31.0976 48.1362 31.1383 48.1163C31.1364 48.1191 31.1364 48.1191 31.1336 48.1191L35.3807 52.3602C34.0019 53.4966 32.2332 54.1798 30.3074 54.1798C28.3817 54.1798 26.613 53.4966 25.2342 52.3602ZM30.3074 44.1175C30.1816 44.1175 30.0576 44.1345 29.9365 44.1563C30.0557 44.1317 30.1816 44.1175 30.3074 44.1175C30.4361 44.1175 30.5573 44.1317 30.6784 44.1534C30.5573 44.1345 30.4361 44.1175 30.3074 44.1175ZM30.3074 48.2913C30.4361 48.2913 30.5573 48.2743 30.6784 48.2544C30.5573 48.2762 30.4361 48.2913 30.3074 48.2913C30.1816 48.2913 30.0557 48.2762 29.9365 48.2525C30.0576 48.2762 30.1816 48.2913 30.3074 48.2913ZM29.3677 44.3521L25.15 40.1253C26.3707 39.0882 27.9066 38.4145 29.5949 38.265V44.2499C29.5173 44.2793 29.4425 44.3133 29.3677 44.3521ZM22.3735 46.9921H28.3788C28.3987 47.0432 28.4271 47.0896 28.4517 47.1379L24.2292 51.3628C23.0908 50.0201 22.3905 48.298 22.3422 46.414C22.347 46.6099 22.3517 46.8057 22.3735 46.9921ZM28.2558 45.8633C28.2388 45.9749 28.2217 46.0866 28.2217 46.2049C28.2217 46.0866 28.2359 45.9749 28.2558 45.8633ZM22.364 45.5775C22.4946 43.897 23.1391 42.3612 24.1516 41.133V41.1377L28.3959 45.3741C28.3665 45.4394 28.3504 45.5103 28.3287 45.5775H22.364ZM35.4649 40.1253L31.2424 44.3474C31.1676 44.3105 31.0919 44.2774 31.0125 44.248V38.265C30.7778 38.2356 30.545 38.228 30.3103 38.228C30.1674 38.228 30.0245 38.2403 29.8807 38.2498C30.0245 38.2432 30.1645 38.228 30.3074 38.228C32.2748 38.228 34.0747 38.9453 35.4649 40.1253ZM32.289 45.5775C32.2673 45.5103 32.2502 45.4394 32.2209 45.3741L36.4633 41.1377V41.133C37.4758 42.3584 38.1231 43.897 38.2537 45.5775H32.289ZM32.3619 45.8633C32.3808 45.9749 32.396 46.0866 32.396 46.2049C32.396 46.0866 32.3789 45.9749 32.3619 45.8633ZM30.3074 34.9219C24.0788 34.9219 19.0254 39.972 19.0254 46.2049C19.0254 52.4359 24.0788 57.486 30.3074 57.486C36.538 57.486 41.5895 52.4359 41.5895 46.2049C41.5895 39.972 36.538 34.9219 30.3074 34.9219Z" fill="#2E82C6"/>
<path d="M51.299 56.5843C48.3796 56.5843 46.0008 54.1991 46.0008 51.2684C46.0008 48.3377 48.3796 45.9525 51.299 45.9525C54.2184 45.9525 56.5943 48.3377 56.5943 51.2684C56.5943 54.1991 54.2184 56.5843 51.299 56.5843ZM53.2198 44.8265V40.6413H53.9081C54.4158 40.6413 54.8295 40.2138 54.8182 39.7041C54.6443 32.861 48.2009 33.3924 48.2009 33.3924L30.3076 33.4745C35.1845 33.5831 39.377 36.4808 41.3778 40.6413H49.3753V44.8265C46.6148 45.658 44.5952 48.2291 44.5952 51.2684C44.5952 54.9778 47.602 57.9982 51.299 57.9982C54.9931 57.9982 57.9999 54.9778 57.9999 51.2684C57.9999 48.2291 55.9803 45.658 53.2198 44.8265Z" fill="#2E82C6"/>
<path d="M51.3328 48.2578C49.6297 48.2578 48.2568 49.6371 48.2568 51.3347C48.2568 53.0324 49.6297 54.4117 51.3328 54.4117C53.0359 54.4117 54.4107 53.0324 54.4107 51.3347C54.4107 49.6371 53.0359 48.2578 51.3328 48.2578Z" fill="#ADC2DF"/>
<path d="M54.4098 23.3772C54.4098 22.3884 53.7053 21.5859 52.8334 21.5859H31.8457V25.1757H52.8334C53.7053 25.1757 54.4098 24.3732 54.4098 23.3772Z" fill="#2E82C6"/>
<path d="M23.641 23.641V18H20.8027C19.2565 18 18 19.2623 18 20.821C18 22.3787 19.2565 23.641 20.8027 23.641H23.641Z" fill="#ADC2DF"/>
<path d="M48.2569 32.3375V26.2031H44.1543V32.357L48.2569 32.3375Z" fill="#2E82C6"/>
<path d="M30.3079 33.7213V19.1639C30.3079 18.5198 29.8107 18 29.1955 18H25.1797V34.9231C26.7403 34.1585 28.4751 33.7213 30.3079 33.7213Z" fill="#2E82C6"/>
<defs>
<linearGradient id="paint0_linear_349_47807" x1="37.9998" y1="3.79687" x2="37.9998" y2="72.1969" gradientUnits="userSpaceOnUse">
<stop stop-color="#F6F6F6"/>
<stop offset="0.5" stop-color="white"/>
</linearGradient>
</defs>
</svg>
