<svg width="76" height="76" viewBox="0 0 76 76" fill="none" xmlns="http://www.w3.org/2000/svg">
<circle cx="38" cy="38" r="38" fill="white"/>
<circle cx="37.9998" cy="38" r="34.2" fill="url(#paint0_linear_3001_24225)"/>
<g clip-path="url(#clip0_3001_24225)">
<path d="M54.8468 37.9932C54.8468 47.3022 47.3019 54.8471 37.993 54.8471C28.684 54.8471 21.1392 47.3022 21.1392 37.9932C21.1392 28.6843 28.684 21.1394 37.993 21.1394C47.3019 21.1394 54.8468 28.6843 54.8468 37.9932Z" fill="#C6DFBB"/>
<path d="M43.4214 37.9931C43.4214 40.9921 40.9923 43.4211 37.9934 43.4211C34.9944 43.4211 32.5654 40.9921 32.5654 37.9931C32.5654 34.9942 34.9944 32.5652 37.9934 32.5652C40.9923 32.5652 43.4214 34.9942 43.4214 37.9931Z" fill="#17AC4E"/>
<path d="M49.4736 37.9931C49.4736 44.3302 44.3306 49.4732 37.9934 49.4732C31.6563 49.4732 26.5269 44.3302 26.5269 37.9931C26.5269 31.6559 31.6563 26.5129 37.9934 26.5129C44.3306 26.5129 49.4736 31.6559 49.4736 37.9931Z" fill="#3BA950"/>
<path d="M45.0218 37.9932C45.0218 41.8742 41.8736 45.0224 37.9926 45.0224C34.1116 45.0224 30.9634 41.8742 30.9634 37.9932C30.9634 34.1122 34.1116 30.964 37.9926 30.964C41.8736 30.964 45.0218 34.1122 45.0218 37.9932Z" fill="#C6DFBB"/>
<path d="M26.5267 37.2465H17.7334V38.7391H26.5267V37.2465Z" fill="#3BA950"/>
<path d="M58.2674 37.2465H49.4741V38.7391H58.2674V37.2465Z" fill="#3BA950"/>
<path d="M38.7402 17.7333H37.2476V26.5266H38.7402V17.7333Z" fill="#3BA950"/>
<path d="M38.7402 49.4727H37.2476V58.266H38.7402V49.4727Z" fill="#3BA950"/>
<path d="M37.9882 34.574L34.5723 37.99L37.9882 41.4059L41.4042 37.99L37.9882 34.574Z" fill="#3BA950"/>
</g>
<defs>
<linearGradient id="paint0_linear_3001_24225" x1="37.9998" y1="3.80005" x2="37.9998" y2="72.2" gradientUnits="userSpaceOnUse">
<stop stop-color="#F6F6F6"/>
<stop offset="0.5" stop-color="white"/>
</linearGradient>
<clipPath id="clip0_3001_24225">
<rect width="40.5333" height="40.5333" fill="white" transform="translate(17.7334 17.7333)"/>
</clipPath>
</defs>
</svg>
