<svg width="52" height="53" viewBox="0 0 52 53" fill="none" xmlns="http://www.w3.org/2000/svg">
<path d="M0 52.8667H52V0H0V52.8667Z" fill="#005589"/>
<path d="M34.4143 23.4492C34.4143 23.4492 33.9101 24.1195 34.0586 24.7713C34.2048 25.4253 34.9471 25.8146 34.9471 25.8146C34.9471 25.8146 35.4513 25.1444 35.3047 24.4903C35.1585 23.8363 34.4143 23.4492 34.4143 23.4492Z" fill="white"/>
<path d="M33.5968 27.2761C33.5968 27.2761 34.101 26.6058 33.9525 25.9517C33.8063 25.2977 33.064 24.9106 33.064 24.9106C33.064 24.9106 32.5598 25.5809 32.7064 26.235C32.8526 26.8871 33.5968 27.2761 33.5968 27.2761Z" fill="white"/>
<path d="M35.6641 26.5579C35.6641 26.5579 36.1965 27.096 36.8024 27.0409C37.4064 26.988 37.8552 26.3623 37.8552 26.3623C37.8552 26.3623 37.3247 25.8265 36.7191 25.8797C36.1132 25.9345 35.6641 26.5579 35.6641 26.5579Z" fill="white"/>
<path d="M36.5355 23.6878C36.0434 24.1889 36.1127 25.0751 36.1127 25.0751C36.1127 25.0751 36.9809 25.1507 37.4745 24.6492C37.9666 24.1504 37.8977 23.2641 37.8977 23.2641C37.8977 23.2641 37.0299 23.1867 36.5355 23.6878Z" fill="white"/>
<path d="M35.4441 28.551C36.0477 28.6219 36.6148 28.1027 36.6148 28.1027C36.6148 28.1027 36.2045 27.4691 35.6004 27.3977C34.9968 27.3244 34.4297 27.844 34.4297 27.844C34.4297 27.844 34.8397 28.4796 35.4441 28.551Z" fill="white"/>
<path d="M35.9854 38.2705H31.4765C31.1227 38.2705 30.8359 38.5556 30.8359 38.9083C30.8359 39.2629 31.1227 39.548 31.4765 39.548H35.9854C36.3374 39.548 36.6238 39.2629 36.6238 38.9083C36.6238 38.5556 36.3374 38.2705 35.9854 38.2705Z" fill="white"/>
<path d="M35.9854 45.3179H31.4765C31.1227 45.3179 30.8359 45.603 30.8359 45.9576C30.8359 46.3099 31.1227 46.5972 31.4765 46.5972H35.9854C36.3374 46.5972 36.6238 46.3099 36.6238 45.9576C36.6238 45.603 36.3374 45.3179 35.9854 45.3179Z" fill="white"/>
<path d="M15.7073 36.7187C15.6014 36.6863 15.4955 36.6576 15.3938 36.6372C15.3938 36.6372 15.5098 36.6738 15.7073 36.7187Z" fill="white"/>
<path fill-rule="evenodd" clip-rule="evenodd" d="M31.6419 39.9946H35.8218C36.0212 39.9946 36.1858 40.1596 36.1858 40.359V44.5154C36.1858 44.7152 36.0212 44.8779 35.8218 44.8779H31.6419C31.4429 44.8779 31.2782 44.7152 31.2782 44.5154V43.2481L28.552 42.9468L14.7969 43.2523V41.6225L22.3576 41.7852V39.4504C21.5015 39.3832 20.6665 39.214 19.8733 38.9391C19.2002 38.7076 18.4886 38.2607 17.7857 37.8193C17.0661 37.3675 16.3558 36.9214 15.7057 36.7183C16.4051 36.8773 18.1309 37.1462 19.3589 36.2988C20.9306 35.2109 21.1827 35.0742 22.1602 34.9152C20.0523 34.7362 18.5111 33.4342 17.8992 30.5575C17.3159 27.8133 16.9134 26.7356 15.7604 26.2447C17.4462 26.0797 19.9015 26.0634 22.7175 28.9522C24.8498 31.1402 27.0353 31.0831 28.7736 29.4654C30.5099 27.8439 31.7274 27.0634 32.6728 28.1271C32.9004 28.3816 33.1242 28.6037 33.3296 28.7891C33.547 27.7359 34.1853 27.0717 34.8195 26.4218C35.1673 26.0672 35.5272 25.6987 35.8034 25.2686L36.0295 25.4154C35.7389 25.8656 35.3708 26.2447 35.0128 26.6114C34.3643 27.2775 33.732 27.9293 33.5591 28.9907C34.0674 29.4148 34.4254 29.6082 34.4254 29.6082C34.4254 29.6082 34.047 29.5715 33.5165 29.6346C33.5229 30.1829 33.6326 30.8245 33.8926 31.6027C33.8032 31.6129 33.7117 31.6209 33.6201 31.6254C33.3741 30.863 33.2644 30.2233 33.2524 29.6735C32.9859 29.7203 32.695 29.7894 32.4004 29.8997C31.3721 30.2867 30.6561 31.1564 30.7417 33.3957C30.8249 35.5961 29.9873 37.9898 26.151 39.0758C25.6246 39.2246 25.094 39.3281 24.5653 39.3975V41.8362L28.552 41.928L31.2782 41.6285V40.359C31.2782 40.1596 31.4429 39.9946 31.6419 39.9946ZM23.9098 39.4606C23.611 39.481 23.3122 39.4893 23.0156 39.4851V41.8014L23.9098 41.8199V39.4606Z" fill="white"/>
<path d="M14.4042 42.9829C14.4042 43.3254 14.1641 43.6044 13.8717 43.6044H13.5503C13.2557 43.6044 13.0156 43.3254 13.0156 42.9829V41.8564C13.0156 41.512 13.2557 41.2349 13.5503 41.2349H13.8717C14.1641 41.2349 14.4042 41.512 14.4042 41.8564V42.9829Z" fill="white"/>
<path d="M3.97656 6.63933V8.47909H3.99314L5.22682 7.19556H5.24303V15.2166H6.99972V4.73877H5.59723L3.97656 6.63933Z" fill="white"/>
<path fill-rule="evenodd" clip-rule="evenodd" d="M13.1495 11.1534V12.6979C13.1495 14.3217 12.426 15.3424 10.5597 15.3424C8.70954 15.3424 8 14.1668 8 12.5431V7.44371C8 5.8056 8.69333 4.61572 10.5454 4.61572C12.489 4.61572 12.9973 5.69571 12.9973 7.24206V7.80018H11.3932V7.10348C11.3932 6.45359 11.2082 6.08277 10.5759 6.08277C9.94359 6.08277 9.74238 6.53101 9.74238 7.16465V9.42206H9.75858C10.0186 8.91038 10.4681 8.57015 11.2082 8.57015C12.4728 8.57015 13.1495 9.4383 13.1495 11.1534ZM10.5597 13.904C11.1614 13.904 11.4075 13.517 11.4075 12.8527V11.0292C11.4075 10.3491 11.1758 9.97791 10.5759 9.97791C10.0186 9.97791 9.7729 10.3491 9.74238 10.9378V12.8527C9.74238 13.5026 9.97412 13.904 10.5597 13.904Z" fill="white"/>
<path fill-rule="evenodd" clip-rule="evenodd" d="M17.4621 4.69238H16.375V9.07239H17.1087V7.58532H17.4621C18.2044 7.58532 18.475 7.21261 18.475 6.59898V5.67419C18.475 5.06094 18.2044 4.69238 17.4621 4.69238ZM17.1094 7.01893V5.29321H17.3799C17.632 5.29321 17.7417 5.40952 17.7417 5.6478V6.65642C17.7417 6.89658 17.632 7.01893 17.3799 7.01893H17.1094Z" fill="white"/>
<path d="M18.8594 4.69141H20.6115V5.29258H19.593V6.54552H20.3233V7.14027H19.593V8.47062H20.6115V9.07179H18.8594V4.69141Z" fill="white"/>
<path fill-rule="evenodd" clip-rule="evenodd" d="M21.7162 4.69092L20.8906 9.07319H21.5881L21.7162 8.27263H22.4966L22.633 9.07319H23.3874L22.5558 4.69092H21.7162ZM22.3989 7.68361H21.8115L22.102 5.92542H22.1084L22.3989 7.68361Z" fill="white"/>
<path d="M23.5859 7.94193V5.82122C23.5859 5.13886 23.9092 4.63965 24.684 4.63965C25.4949 4.63965 25.7206 5.09204 25.7206 5.73776V6.2551H25.0499V5.68074C25.0499 5.40961 24.9602 5.25479 24.696 5.25479C24.4315 5.25479 24.3219 5.4402 24.3219 5.70491V8.05823C24.3219 8.32294 24.4315 8.51062 24.696 8.51062C24.9602 8.51062 25.0499 8.34145 25.0499 8.08278V7.27581H25.7206V8.0318C25.7206 8.65903 25.4621 9.1235 24.684 9.1235C23.9092 9.1235 23.5859 8.62051 23.5859 7.94193Z" fill="white"/>
<path d="M26.125 4.69141H27.8791V5.29258H26.8609V6.54552H27.5885V7.14027H26.8609V8.47062H27.8791V9.07179H26.125V4.69141Z" fill="white"/>
<path d="M29.022 8.42658L28.6482 9.41481H28.2353L28.3246 8.36768H29.022V8.42658Z" fill="white"/>
<path d="M32.0739 4.69141V8.07752C32.0739 8.71116 31.7954 9.12465 31.0614 9.12465C30.3014 9.12465 30.0938 8.70512 30.0938 8.14889V7.27696H30.7912V8.16097C30.7912 8.38112 30.8685 8.5114 31.0614 8.5114C31.2607 8.5114 31.338 8.38112 31.338 8.15493V4.69141H32.0739Z" fill="white"/>
<path d="M34.6168 4.69141V8.00615C34.6168 8.68473 34.3262 9.12465 33.5801 9.12465C32.8054 9.12465 32.4844 8.68473 32.4844 8.00615V4.69141H33.218V8.07752C33.218 8.33618 33.3217 8.5114 33.5801 8.5114C33.8383 8.5114 33.94 8.33618 33.94 8.07752V4.69141H34.6168Z" fill="white"/>
<path d="M35 8.12929V7.54058H35.6828V8.14175C35.6828 8.38834 35.7928 8.5307 36.0445 8.5307C36.2766 8.5307 36.3803 8.37588 36.3803 8.14175V7.97447C36.3803 7.72184 36.2766 7.56702 36.0509 7.35517L35.618 6.92129C35.199 6.50779 35.006 6.25706 35.006 5.7518V5.60302C35.006 5.06114 35.3229 4.6416 36.0389 4.6416C36.7725 4.6416 37.0634 5.00223 37.0634 5.63549V5.99008H36.3923V5.60906C36.3923 5.3587 36.2766 5.23409 36.0445 5.23409C35.8377 5.23409 35.6952 5.35039 35.6952 5.59698V5.68647C35.6952 5.93306 35.8312 6.0758 36.0445 6.2816L36.5144 6.74607C36.915 7.15352 37.1083 7.40011 37.1083 7.88271V8.09682C37.1083 8.69761 36.7846 9.12356 36.0389 9.12356C35.2905 9.12356 35 8.70365 35 8.12929Z" fill="white"/>
<path d="M37.3125 4.69141H39.2663V5.29258H38.6604V9.07179H37.918V5.29258H37.3125V4.69141Z" fill="white"/>
<path d="M39.6044 9.0713H40.3404V4.69092H39.6044V9.0713Z" fill="white"/>
<path d="M40.7656 7.94193V5.82122C40.7656 5.13886 41.0886 4.63965 41.8614 4.63965C42.6746 4.63965 42.9003 5.09204 42.9003 5.73776V6.2551H42.2295V5.68074C42.2295 5.40961 42.1399 5.25479 41.8753 5.25479C41.6112 5.25479 41.4993 5.4402 41.4993 5.70491V8.05823C41.4993 8.32294 41.6112 8.51062 41.8753 8.51062C42.1399 8.51062 42.2295 8.34145 42.2295 8.08278V7.27581H42.9003V8.0318C42.9003 8.65903 42.6418 9.1235 41.8614 9.1235C41.0886 9.1235 40.7656 8.62051 40.7656 7.94193Z" fill="white"/>
<path d="M43.2969 4.69141H45.0509V5.29258H44.0305V6.54552H44.7604V7.14027H44.0305V8.47062H45.0509V9.07179H43.2969V4.69141Z" fill="white"/>
<path fill-rule="evenodd" clip-rule="evenodd" d="M17.083 10.8281L16.2578 15.2104H16.9527L17.083 14.4098H17.8615L17.9979 15.2104H18.7523L17.9207 10.8281H17.083ZM17.7662 13.8208H17.1787L17.4693 12.0626H17.4753L17.7662 13.8208Z" fill="white"/>
<path d="M19.6727 12.457V15.2095H19.0547V10.8291H19.7763L20.5695 13.3433V10.8291H21.181V15.2095H20.5367L19.6727 12.457Z" fill="white"/>
<path fill-rule="evenodd" clip-rule="evenodd" d="M23.801 14.034V12.0046C23.801 11.3264 23.5225 10.8291 22.7354 10.8291H21.6016V15.2095H22.7354C23.5225 15.2095 23.801 14.7061 23.801 14.034ZM23.0628 14.1619C23.0628 14.427 22.9471 14.6083 22.6441 14.6083H22.3351V11.428H22.6441C22.9471 11.428 23.0628 11.6096 23.0628 11.8683V14.1619Z" fill="white"/>
<path d="M24.8594 14.2663V13.6776H25.5425V14.2788C25.5425 14.5254 25.6522 14.6677 25.9043 14.6677C26.1364 14.6677 26.2396 14.5106 26.2396 14.2788V14.1115C26.2396 13.8589 26.1364 13.704 25.9103 13.4922L25.4796 13.0583C25.0606 12.6448 24.8658 12.3941 24.8658 11.8888V11.7401C24.8658 11.1982 25.1827 10.7764 25.8982 10.7764C26.6319 10.7764 26.9232 11.1393 26.9232 11.7725V12.1271H26.2521V11.7461C26.2521 11.4935 26.1364 11.3711 25.9043 11.3711C25.6993 11.3711 25.5569 11.4874 25.5569 11.734V11.8235C25.5569 12.0682 25.691 12.2128 25.9043 12.4186L26.3757 12.8831C26.7743 13.2906 26.9676 13.5371 26.9676 14.0201V14.2338C26.9676 14.8346 26.6443 15.2606 25.8982 15.2606C25.1499 15.2606 24.8594 14.8407 24.8594 14.2663Z" fill="white"/>
<path d="M27.1719 10.8281H29.1256V11.4293H28.5194V15.2085H27.7774V11.4293H27.1719V10.8281Z" fill="white"/>
<path fill-rule="evenodd" clip-rule="evenodd" d="M30.2024 15.2096V13.2007L30.8916 15.2096H31.6663L30.9647 13.2192C31.3837 13.1232 31.5503 12.8442 31.5503 12.3737V11.8114C31.5503 11.1981 31.2797 10.8296 30.5381 10.8296H29.4688V15.2096H30.2024ZM30.2007 12.7932V11.4304H30.4467C30.6988 11.4304 30.8066 11.5467 30.8066 11.785V12.4307C30.8066 12.663 30.6988 12.7932 30.4467 12.7932H30.2007Z" fill="white"/>
<path fill-rule="evenodd" clip-rule="evenodd" d="M31.9531 11.9599V14.0787C31.9531 14.7569 32.2885 15.2603 33.061 15.2603C33.8417 15.2603 34.1752 14.7569 34.1752 14.0787V11.9599C34.1752 11.2753 33.8417 10.7783 33.061 10.7783C32.2885 10.7783 31.9531 11.2753 31.9531 11.9599ZM33.4433 11.8436V14.1947C33.4433 14.4598 33.3273 14.6471 33.0628 14.6471C32.805 14.6471 32.689 14.4598 32.689 14.1947V11.8436C32.689 11.5789 32.805 11.3912 33.0628 11.3912C33.3273 11.3912 33.4433 11.5789 33.4433 11.8436Z" fill="white"/>
<path d="M35.214 12.457V15.2095H34.5938V10.8291H35.3172L36.1082 13.3433V10.8291H36.7224V15.2095H36.078L35.214 12.457Z" fill="white"/>
<path d="M38.2429 12.8707H39.2874V15.2097H38.7572V14.7309C38.6615 15.0609 38.4543 15.2607 38.0556 15.2607C37.4233 15.2607 37.1328 14.7573 37.1328 14.0791V11.9599C37.1328 11.2753 37.4621 10.7783 38.2365 10.7783C39.0481 10.7783 39.2874 11.2284 39.2874 11.8764V12.2639H38.6167V11.8175C38.6167 11.5464 38.5135 11.3916 38.2489 11.3916C37.9844 11.3916 37.8687 11.5793 37.8687 11.844V14.195C37.8687 14.4597 37.9788 14.6474 38.2305 14.6474C38.4686 14.6474 38.5903 14.5107 38.5903 14.2275V13.4515H38.2429V12.8707Z" fill="white"/>
<path d="M16.3779 21.3462H17.1138V16.9658H16.3779V21.3462Z" fill="white"/>
<path d="M18.1593 18.5937V21.3462H17.5391V16.9658H18.2629L19.0557 19.4781V16.9658H19.6677V21.3462H19.0233L18.1593 18.5937Z" fill="white"/>
<path d="M20.0469 20.4021V19.8134H20.7297V20.4142C20.7297 20.6608 20.8397 20.8032 21.0914 20.8032C21.3235 20.8032 21.4271 20.6487 21.4271 20.4142V20.2473C21.4271 19.9947 21.3235 19.8399 21.0978 19.628L20.6671 19.1937C20.2481 18.7803 20.0529 18.5299 20.0529 18.0246V17.8759C20.0529 17.334 20.3698 16.9141 21.0857 16.9141C21.8194 16.9141 22.1103 17.2747 22.1103 17.9083V18.2629H21.4392V17.8819C21.4392 17.6315 21.3235 17.5069 21.0914 17.5069C20.8864 17.5069 20.7444 17.6232 20.7444 17.8694V17.9612C20.7444 18.2059 20.8781 18.3486 21.0914 18.5541L21.5632 19.0185C21.9618 19.4264 22.1551 19.6726 22.1551 20.1578V20.3697C22.1551 20.9704 21.8315 21.3983 21.0857 21.3983C20.3374 21.3983 20.0469 20.9765 20.0469 20.4021Z" fill="white"/>
<path d="M22.3594 16.9653H24.3131V17.5665H23.7072V21.3457H22.9649V17.5665H22.3594V16.9653Z" fill="white"/>
<path d="M24.652 21.3462H25.386V16.9658H24.652V21.3462Z" fill="white"/>
<path d="M25.7266 16.9653H27.6803V17.5665H27.0744V21.3457H26.3321V17.5665H25.7266V16.9653Z" fill="white"/>
<path d="M30.1558 16.9653V20.2801C30.1558 20.9587 29.8653 21.3967 29.1188 21.3967C28.3441 21.3967 28.0234 20.9587 28.0234 20.2801V16.9653H28.7571V20.3514C28.7571 20.6101 28.8607 20.7853 29.1188 20.7853C29.3751 20.7853 29.4787 20.6101 29.4787 20.3514V16.9653H30.1558Z" fill="white"/>
<path d="M30.4922 16.9653H32.4441V17.5665H31.84V21.3457H31.0977V17.5665H30.4922V16.9653Z" fill="white"/>
<path d="M32.7851 21.3462H33.5191V16.9658H32.7851V21.3462Z" fill="white"/>
<path fill-rule="evenodd" clip-rule="evenodd" d="M33.9453 18.0969V20.2157C33.9453 20.8939 34.2803 21.3973 35.0531 21.3973C35.8335 21.3973 36.167 20.8939 36.167 20.2157V18.0969C36.167 17.41 35.8335 16.9131 35.0531 16.9131C34.2803 16.9131 33.9453 17.41 33.9453 18.0969ZM35.4355 17.9806V20.3316C35.4355 20.5967 35.3195 20.784 35.0553 20.784C34.7972 20.784 34.6811 20.5967 34.6811 20.3316V17.9806C34.6811 17.7136 34.7972 17.5282 35.0553 17.5282C35.3195 17.5282 35.4355 17.7136 35.4355 17.9806Z" fill="white"/>
<path d="M37.2117 18.5937V21.3462H36.5938V16.9658H37.3153L38.1082 19.4781V16.9658H38.7201V21.3462H38.0758L37.2117 18.5937Z" fill="white"/>
<path d="M39.0938 20.4021V19.8134H39.7765V20.4142C39.7765 20.6608 39.8866 20.8032 40.1383 20.8032C40.3704 20.8032 40.474 20.6487 40.474 20.4142V20.2473C40.474 19.9947 40.3704 19.8399 40.1447 19.628L39.7117 19.1937C39.2927 18.7803 39.0998 18.5299 39.0998 18.0246V17.8759C39.0998 17.334 39.4167 16.9141 40.1326 16.9141C40.8663 16.9141 41.1572 17.2747 41.1572 17.9083V18.2629H40.4861V17.8819C40.4861 17.6315 40.3704 17.5069 40.1383 17.5069C39.9314 17.5069 39.789 17.6232 39.789 17.8694V17.9612C39.789 18.2059 39.925 18.3486 40.1383 18.5541L40.6085 19.0185C41.0087 19.4264 41.202 19.6726 41.202 20.1578V20.3697C41.202 20.9704 40.8783 21.3983 40.1326 21.3983C39.3843 21.3983 39.0938 20.9765 39.0938 20.4021Z" fill="white"/>
</svg>
