<svg width="52" height="52" viewBox="0 0 52 52" fill="none" xmlns="http://www.w3.org/2000/svg">
<path d="M0 51.8656H51.8632V0.000488281H0V51.8656Z" fill="#FCB613"/>
<path fill-rule="evenodd" clip-rule="evenodd" d="M18.3438 32.7308C18.3438 28.5328 21.7467 25.1294 25.9452 25.1294C30.141 25.1294 33.5443 28.5328 33.5443 32.7308C33.5443 36.9311 30.141 40.3319 25.9452 40.3319C21.7467 40.3319 18.3438 36.9311 18.3438 32.7308ZM25.375 28.1322C25.375 27.8801 25.6293 27.6016 25.9402 27.6016C26.2511 27.6016 26.5032 27.8801 26.5032 28.1322V30.7423C26.5032 30.9926 26.2511 31.2691 25.9402 31.2691C25.6293 31.2691 25.375 30.9926 25.375 30.7423V28.1322ZM25.9442 36.6259C23.7606 36.6259 21.9922 34.8553 21.9922 32.6716C21.9922 30.8968 23.1588 29.3964 24.7689 28.8967V30.3686C23.9313 30.7955 23.3562 31.6674 23.3562 32.6716C23.3562 34.1009 24.5149 35.2599 25.9442 35.2599C27.3753 35.2599 28.5318 34.1009 28.5318 32.6716C28.5318 31.6637 27.9545 30.7913 27.1131 30.3644V28.8945C28.7273 29.3926 29.8981 30.895 29.8981 32.6716C29.8981 34.8553 28.1274 36.6259 25.9442 36.6259Z" fill="white"/>
<path d="M17.2198 32.664C17.2198 32.3204 16.9145 32.04 16.6365 32.04H13.3062C13.0259 32.04 12.7188 32.3204 12.7188 32.664C12.7188 33.0096 13.0259 33.2903 13.3062 33.2903H16.6365C16.9145 33.2903 17.2198 33.0096 17.2198 32.664Z" fill="white"/>
<path d="M39.1807 32.664C39.1807 32.3204 38.8755 32.04 38.597 32.04H35.269C34.9864 32.04 34.6797 32.3204 34.6797 32.664C34.6797 33.0096 34.9864 33.2903 35.269 33.2903H38.597C38.8755 33.2903 39.1807 33.0096 39.1807 32.664Z" fill="white"/>
<path d="M25.9544 45.8936C26.2977 45.8936 26.5784 45.5884 26.5784 45.3103V41.9823C26.5784 41.6997 26.2977 41.3926 25.9544 41.3926C25.6088 41.3926 25.3281 41.6997 25.3281 41.9823V45.3103C25.3281 45.5884 25.6088 45.8936 25.9544 45.8936Z" fill="white"/>
<path d="M37.431 39.2358C37.6017 38.937 37.4755 38.5424 37.2339 38.4042L34.3449 36.7496C34.1007 36.6113 33.6942 36.7006 33.5235 36.9994C33.3528 37.2982 33.4809 37.6969 33.7228 37.8352L36.6137 39.4897C36.8556 39.6284 37.2603 39.5346 37.431 39.2358Z" fill="white"/>
<path d="M19.3794 44.1473C19.676 44.3184 20.0705 44.1921 20.2107 43.9502L21.8638 41.0616C22.0039 40.8174 21.9146 40.4108 21.6158 40.2398C21.3148 40.0691 20.9183 40.1972 20.7782 40.4391L19.1251 43.3304C18.9868 43.57 19.0803 43.9766 19.3794 44.1473Z" fill="white"/>
<path d="M32.5492 44.1322C32.848 43.9615 32.9377 43.5569 32.7994 43.3149L31.1407 40.4301C31.0001 40.1863 30.6037 40.0582 30.3049 40.2307C30.0061 40.4018 29.9168 40.8084 30.057 41.0522L31.7157 43.9389C31.854 44.179 32.2504 44.3048 32.5492 44.1322Z" fill="white"/>
<path d="M14.4864 39.2614C14.6571 39.5583 15.0614 39.6499 15.3033 39.5116L18.1882 37.8506C18.4324 37.7104 18.5605 37.3159 18.3875 37.0171C18.2164 36.7183 17.808 36.629 17.5661 36.7669L14.6816 38.426C14.4397 38.5662 14.3134 38.9626 14.4864 39.2614Z" fill="white"/>
<path d="M25.9544 23.9375C26.2977 23.9375 26.5784 23.6327 26.5784 23.3542V20.0262C26.5784 19.7436 26.2977 19.4365 25.9544 19.4365C25.6088 19.4365 25.3281 19.7436 25.3281 20.0262V23.3542C25.3281 23.6327 25.6088 23.9375 25.9544 23.9375Z" fill="white"/>
<path d="M18.3759 28.3289C18.5466 28.0301 18.4207 27.6359 18.1792 27.4973L15.2902 25.8446C15.046 25.7044 14.6417 25.7937 14.4687 26.0925C14.298 26.3936 14.4261 26.79 14.6699 26.9302L17.5589 28.5829C17.8009 28.7215 18.2052 28.6277 18.3759 28.3289Z" fill="white"/>
<path d="M30.2931 25.0911C30.592 25.2618 30.9865 25.1359 31.1248 24.894L32.7775 22.005C32.918 21.7612 32.8287 21.3565 32.5295 21.1835C32.2307 21.0128 31.832 21.141 31.6919 21.3851L30.0392 24.2738C29.9009 24.5157 29.9943 24.9204 30.2931 25.0911Z" fill="white"/>
<path d="M21.6043 25.0991C21.9031 24.9284 21.9924 24.5237 21.8541 24.2818L20.1954 21.395C20.0529 21.1531 19.6588 21.025 19.3596 21.1976C19.0608 21.3687 18.9715 21.7771 19.1117 22.019L20.7708 24.9039C20.9087 25.1458 21.3055 25.2698 21.6043 25.0991Z" fill="white"/>
<path d="M33.5169 28.3151C33.6876 28.6139 34.0919 28.7036 34.3338 28.5653L37.2187 26.9062C37.4629 26.766 37.591 26.3696 37.418 26.0708C37.2469 25.7716 36.8404 25.6823 36.5966 25.8229L33.7121 27.4816C33.4698 27.6199 33.3458 28.0163 33.5169 28.3151Z" fill="white"/>
<path d="M5.32031 5.78196H8.03411L5.68996 14.8043H7.43423L9.73165 5.96697V4.34668H5.32031V5.78196Z" fill="white"/>
<path fill-rule="evenodd" clip-rule="evenodd" d="M15.4815 4.35791L14.6562 8.72892H15.3515L15.4815 7.93008H16.26L16.3967 8.72892H17.1507L16.3195 4.35791H15.4815ZM16.1647 7.34226H15.5769L15.8674 5.59009H15.8738L16.1647 7.34226Z" fill="white"/>
<path d="M17.4531 4.35742H19.1748V4.95731H18.1868V6.20757H18.9227V6.80105H18.1868V8.72844H17.4531V4.35742Z" fill="white"/>
<path d="M19.5 4.35742H21.2217V4.95731H20.2337V6.20757H20.9696V6.80105H20.2337V8.72844H19.5V4.35742Z" fill="white"/>
<path fill-rule="evenodd" clip-rule="evenodd" d="M21.4766 5.48648V7.60077C21.4766 8.27752 21.8123 8.77981 22.5866 8.77981C23.3651 8.77981 23.7005 8.27752 23.7005 7.60077V5.48648C23.7005 4.80144 23.3651 4.30518 22.5866 4.30518C21.8123 4.30518 21.4766 4.80144 21.4766 5.48648ZM22.9668 5.37042V7.71644C22.9668 7.98097 22.8507 8.16787 22.5866 8.16787C22.3285 8.16787 22.2124 7.98097 22.2124 7.71644V5.37042C22.2124 5.10627 22.3285 4.91937 22.5866 4.91937C22.8507 4.91937 22.9668 5.10627 22.9668 5.37042Z" fill="white"/>
<path fill-rule="evenodd" clip-rule="evenodd" d="M24.8512 8.72806V6.72342L25.54 8.72806H26.3148L25.6116 6.74189C26.0321 6.64618 26.1987 6.36997 26.1987 5.8982V5.33713C26.1987 4.72519 25.9285 4.35742 25.1866 4.35742H24.1172V8.72806H24.8512ZM24.8493 6.31682V4.95691H25.095C25.3452 4.95691 25.4549 5.07297 25.4549 5.31262V5.95697C25.4549 6.18908 25.3452 6.31682 25.095 6.31682H24.8493Z" fill="white"/>
<path fill-rule="evenodd" clip-rule="evenodd" d="M28.7991 7.55451V5.53141C28.7991 4.85466 28.5225 4.3584 27.7358 4.3584H26.6016V8.72941H27.7358C28.5225 8.72941 28.7991 8.22524 28.7991 7.55451ZM28.0628 7.68454C28.0628 7.94868 27.9471 8.12955 27.6441 8.12955H27.3351V4.95642H27.6441C27.9471 4.95642 28.0628 5.13729 28.0628 5.39541V7.68454Z" fill="white"/>
<path fill-rule="evenodd" clip-rule="evenodd" d="M29.833 4.35791L29.0078 8.72892H29.7027L29.833 7.93008H30.6115L30.7479 8.72892H31.5019L30.6707 4.35791H29.833ZM30.5163 7.34226H29.9285L30.219 5.59009H30.2254L30.5163 7.34226Z" fill="white"/>
<path fill-rule="evenodd" clip-rule="evenodd" d="M32.8677 4.35742H31.8047V8.72806H32.9449C33.6808 8.72806 33.9574 8.38667 33.9574 7.7687V7.1869C33.9574 6.78861 33.7762 6.54255 33.4084 6.45928C33.7114 6.36168 33.8478 6.12994 33.8478 5.76218V5.31867C33.8478 4.69881 33.6013 4.35742 32.8677 4.35742ZM32.5368 6.20114H32.7953C33.0327 6.20114 33.1424 6.07905 33.1424 5.84731V5.31262C33.1424 5.07297 33.0327 4.95691 32.7889 4.95691H32.5368V6.20114ZM32.5373 6.76221V8.12815H32.8602C33.1044 8.12815 33.22 8.00644 33.22 7.7747V7.11603C33.22 6.88429 33.1104 6.76221 32.8523 6.76221H32.5373Z" fill="white"/>
<path d="M34.3203 4.35742H35.0562V8.12855H35.9323V8.72844H34.3203V4.35742Z" fill="white"/>
<path d="M36.2734 4.35742H38.0275V4.95731H37.0094V6.20757H37.737V6.80105H37.0094V8.12855H38.0275V8.72844H36.2734V4.35742Z" fill="white"/>
<path fill-rule="evenodd" clip-rule="evenodd" d="M39.8018 4.35791L38.9766 8.72892H39.6714L39.8018 7.93008H40.5803L40.7167 8.72892H41.4711L40.6394 4.35791H39.8018ZM40.4849 7.34226H39.8974L40.1879 5.59009H40.194L40.4849 7.34226Z" fill="white"/>
<path d="M42.3914 5.98234V8.72892H41.7734V4.35791H42.495L43.2878 6.86672V4.35791H43.8998V8.72892H43.2554L42.3914 5.98234Z" fill="white"/>
<path fill-rule="evenodd" clip-rule="evenodd" d="M46.5179 7.55451V5.53141C46.5179 4.85466 46.2413 4.3584 45.4545 4.3584H44.3203V8.72941H45.4545C46.2413 8.72941 46.5179 8.22524 46.5179 7.55451ZM45.7815 7.68454C45.7815 7.94868 45.6658 8.12955 45.3629 8.12955H45.0539V4.95642H45.3629C45.6658 4.95642 45.7815 5.13729 45.7815 5.39541V7.68454Z" fill="white"/>
<path d="M14.7734 13.7239V11.6078C14.7734 10.9269 15.0964 10.4287 15.8711 10.4287C16.682 10.4287 16.9081 10.8798 16.9081 11.5245V12.0407H16.237V11.4676C16.237 11.197 16.1473 11.0425 15.8813 11.0425C15.619 11.0425 15.5094 11.2276 15.5094 11.4917V13.84C15.5094 14.1041 15.619 14.291 15.8813 14.291C16.1473 14.291 16.237 14.1226 16.237 13.8645V13.0592H16.9081V13.8136C16.9081 14.4395 16.6496 14.903 15.8711 14.903C15.0964 14.903 14.7734 14.4011 14.7734 13.7239Z" fill="white"/>
<path d="M17.3047 10.48H18.0406V14.2511H18.9167V14.851H17.3047V10.48Z" fill="white"/>
<path d="M19.25 10.48H21.0044V11.0799H19.984V12.3301H20.7139V12.9236H19.984V14.2511H21.0044V14.851H19.25V10.48Z" fill="white"/>
<path fill-rule="evenodd" clip-rule="evenodd" d="M22.1065 10.4795L21.2812 14.8524H21.9761L22.1065 14.0532H22.885L23.0214 14.8524H23.7757L22.9441 10.4795H22.1065ZM22.7896 13.4657H22.2021L22.4926 11.7113H22.4987L22.7896 13.4657Z" fill="white"/>
<path d="M24.6965 12.1054V14.852H24.0781V10.481H24.8001L25.5929 12.9898V10.481H26.2048V14.852H25.5605L24.6965 12.1054Z" fill="white"/>
<path d="M27.2969 10.48H29.0509V11.0799H28.0328V12.3301H28.7604V12.9236H28.0328V14.2511H29.0509V14.851H27.2969V10.48Z" fill="white"/>
<path d="M30.0711 12.1054V14.852H29.4531V10.481H30.1747L30.9679 12.9898V10.481H31.5798V14.852H30.9351L30.0711 12.1054Z" fill="white"/>
<path d="M31.9922 10.48H33.7466V11.0799H32.7281V12.3301H33.4561V12.9236H32.7281V14.2511H33.7466V14.851H31.9922V10.48Z" fill="white"/>
<path fill-rule="evenodd" clip-rule="evenodd" d="M34.8743 14.8521V12.8474L35.5635 14.8521H36.3382L35.6351 12.8659C36.0556 12.7702 36.2221 12.4917 36.2221 12.0222V11.4612C36.2221 10.8492 35.952 10.4814 35.21 10.4814H34.1406V14.8521H34.8743ZM34.8726 12.4408V11.0809H35.1186C35.3684 11.0809 35.4785 11.197 35.4785 11.4348V12.0791C35.4785 12.3108 35.3684 12.4408 35.1186 12.4408H34.8726Z" fill="white"/>
<path d="M37.7328 12.5181H38.7773V14.8521H38.2491V14.3761C38.1533 14.7036 37.9461 14.9029 37.5456 14.9029C36.9155 14.9029 36.625 14.4006 36.625 13.7235V11.6092C36.625 10.9261 36.9543 10.4302 37.7264 10.4302C38.5381 10.4302 38.7773 10.8793 38.7773 11.5259V11.9126H38.1066V11.4668C38.1066 11.1966 38.0053 11.0421 37.7389 11.0421C37.4766 11.0421 37.3587 11.2294 37.3587 11.4935V13.8396C37.3587 14.1037 37.4687 14.291 37.7208 14.291C37.9585 14.291 38.0802 14.1568 38.0802 13.872V13.0995H37.7328V12.5181Z" fill="white"/>
<path d="M40.4695 13.1892V14.8525H39.7336V13.1892L38.9141 10.4814H39.6828L40.1281 12.1383H40.1338L40.5792 10.4814H41.2804L40.4695 13.1892Z" fill="white"/>
</svg>
