<svg width="52" height="52" viewBox="0 0 52 52" fill="none" xmlns="http://www.w3.org/2000/svg">
<path d="M0 52H52V0H0V52Z" fill="#C21E32"/>
<path d="M22.5333 27.8383L13 22.5332V39.6956L22.5333 42.4665V27.8383Z" fill="white"/>
<path d="M24.2656 27.8708V42.4665L33.799 39.6861V22.5332L24.2656 27.8708Z" fill="white"/>
<path d="M39.216 39.5343H39.0015L39.8674 43.3333L40.7333 39.5343H40.5174H40.7333V24.2666H40.5174H39.216H39V39.5343H39.216Z" fill="white"/>
<path d="M34.6656 23.3023L33.6807 22.5332V40.0182L23.4629 43.2838H22.9887H22.8963H22.424L12.2524 40.4735V22.5332L11.2656 23.3023V41.1572L22.3778 44.1999H22.8963H22.9887H23.5091L33.7612 40.9822L34.6656 40.7177V23.3023Z" fill="white"/>
<path d="M40.692 21.9742C40.692 21.3708 40.1999 20.8804 39.5921 20.8804C38.9843 20.8804 38.4922 21.3708 38.4922 21.9742V23.1508H40.692V21.9742Z" fill="white"/>
<path fill-rule="evenodd" clip-rule="evenodd" d="M9.79679 14.8304H8.13166V13.1473H5.03125V12.0755L8.06873 4.4502H9.79679V11.7848H10.5059V13.1473H9.79679V14.8304ZM8.15169 7.51221L6.57812 11.7848H8.16789V7.51221H8.15169Z" fill="white"/>
<path fill-rule="evenodd" clip-rule="evenodd" d="M16.1267 8.90866V9.20345L17.5115 9.46008V8.91502L16.9704 8.81214C17.3446 8.6322 17.5115 8.26296 17.5115 7.7886V5.68952C17.5115 5.00941 17.178 4.51709 16.3973 4.51709C15.6248 4.51709 15.2891 5.00941 15.2891 5.68952V7.7886C15.2891 8.37818 15.5393 8.80578 16.1267 8.90866ZM16.7791 5.57468V7.94199C16.7791 8.19863 16.663 8.39017 16.3989 8.39017C16.1408 8.39017 16.0251 8.19863 16.0251 7.94199V5.57468C16.0251 5.31207 16.1408 5.12427 16.3989 5.12427C16.663 5.12427 16.7791 5.31207 16.7791 5.57468Z" fill="white"/>
<path d="M20.0643 4.56885V7.8527C20.0643 8.52496 19.7738 8.96079 19.0255 8.96079C18.253 8.96079 17.9297 8.52496 17.9297 7.8527V4.56885H18.6656V7.92341C18.6656 8.17967 18.7692 8.35325 19.0255 8.35325C19.2836 8.35325 19.3872 8.17967 19.3872 7.92341V4.56885H20.0643Z" fill="white"/>
<path fill-rule="evenodd" clip-rule="evenodd" d="M21.0912 4.56934L20.2656 8.9089H20.9631L21.0912 8.11544H21.8716L22.008 8.9089H22.7624L21.9308 4.56934H21.0912ZM21.7817 7.53223H21.1943L21.4848 5.79266H21.4912L21.7817 7.53223Z" fill="white"/>
<path d="M23.0703 4.56885H23.804V8.31285H24.6823V8.90842H23.0703V4.56885Z" fill="white"/>
<path d="M25.0118 8.90793H25.7455V4.56836H25.0118V8.90793Z" fill="white"/>
<path d="M26.0859 4.56885H28.0397V5.16442H27.4338V8.90842H26.6919V5.16442H26.0859V4.56885Z" fill="white"/>
<path d="M29.8188 7.25762V8.9089H29.0848V7.25762L28.2656 4.56934H29.0321L29.4771 6.21426H29.4831L29.9285 4.56934H30.632L29.8188 7.25762Z" fill="white"/>
<path d="M15.2891 10.6484H17.0416V11.244H16.0231V12.4853H16.7526V13.0745H16.0231V14.3924H17.0416V14.988H15.2891V10.6484Z" fill="white"/>
<path fill-rule="evenodd" clip-rule="evenodd" d="M19.6369 13.8222V11.814C19.6369 11.1421 19.3607 10.6494 18.5717 10.6494H17.4375V14.9867H18.5717C19.3607 14.9867 19.6369 14.4884 19.6369 13.8222ZM18.8987 13.9516C18.8987 14.2138 18.783 14.3934 18.4801 14.3934H18.1711V11.2427H18.4801C18.783 11.2427 18.8987 11.4227 18.8987 11.6789V13.9516Z" fill="white"/>
<path d="M22.1815 10.6484V13.9323C22.1815 14.6046 21.891 15.0385 21.1426 15.0385C20.3702 15.0385 20.0469 14.6046 20.0469 13.9323V10.6484H20.7828V14.003C20.7828 14.2593 20.8864 14.431 21.1426 14.431C21.4008 14.431 21.5048 14.2593 21.5048 14.003V10.6484H22.1815Z" fill="white"/>
<path d="M22.6016 13.8682V11.7672C22.6016 11.0912 22.9249 10.5967 23.6992 10.5967C24.5105 10.5967 24.7362 11.0445 24.7362 11.6846V12.1971H24.0651V11.6281C24.0651 11.3595 23.9758 11.2061 23.7116 11.2061C23.4471 11.2061 23.3356 11.3898 23.3356 11.6543V13.9834C23.3356 14.2457 23.4471 14.4312 23.7116 14.4312C23.9758 14.4312 24.0651 14.2659 24.0651 14.0096V13.2083H24.7362V13.9572C24.7362 14.5786 24.4777 15.0388 23.6992 15.0388C22.9249 15.0388 22.6016 14.5404 22.6016 13.8682Z" fill="white"/>
<path fill-rule="evenodd" clip-rule="evenodd" d="M25.7865 10.6494L24.9609 14.989H25.6584L25.7865 14.1955H26.5669L26.7033 14.989H27.4554L26.6242 10.6494H25.7865ZM26.4761 13.6123H25.8906L26.1811 11.8705H26.1875L26.4761 13.6123Z" fill="white"/>
<path d="M27.3516 10.6484H29.3053V11.244H28.6994V14.988H27.9575V11.244H27.3516V10.6484Z" fill="white"/>
<path d="M29.6444 14.989H30.3785V10.6494H29.6444V14.989Z" fill="white"/>
<path fill-rule="evenodd" clip-rule="evenodd" d="M30.8047 11.7672V13.8686C30.8047 14.5404 31.14 15.0391 31.9125 15.0391C32.6933 15.0391 33.0267 14.5404 33.0267 13.8686V11.7672C33.0267 11.0894 32.6933 10.5967 31.9125 10.5967C31.14 10.5967 30.8047 11.0894 30.8047 11.7672ZM32.2947 11.6543V13.9834C32.2947 14.2461 32.1787 14.4316 31.9145 14.4316C31.6564 14.4316 31.5407 14.2461 31.5407 13.9834V11.6543C31.5407 11.3898 31.6564 11.2065 31.9145 11.2065C32.1787 11.2065 32.2947 11.3898 32.2947 11.6543Z" fill="white"/>
<path d="M34.0633 12.2616V14.9884H33.4453V10.647H34.1669L34.9597 13.1377V10.647H35.5717V14.9884H34.9273L34.0633 12.2616Z" fill="white"/>
</svg>
