<svg width="22" height="22" viewBox="0 0 22 22" fill="none" xmlns="http://www.w3.org/2000/svg">
<rect x="5" y="5" width="13" height="12" fill="white"/>
<path d="M11.0708 3H11.1932C12.3235 3.004 18.0508 3.04404 19.595 3.4471C20.0618 3.57012 20.4872 3.80989 20.8286 4.14246C21.1701 4.47503 21.4156 4.88876 21.5407 5.34229C21.6796 5.84945 21.7772 6.52078 21.8432 7.21345L21.857 7.35226L21.8872 7.69926L21.8982 7.83806C21.9876 9.05792 21.9986 10.2004 22 10.45V10.55C21.9986 10.809 21.9862 12.0288 21.8872 13.2994L21.8762 13.4395L21.8639 13.5783C21.7951 14.3418 21.6934 15.0998 21.5407 15.6577C21.416 16.1114 21.1706 16.5253 20.8291 16.858C20.4876 17.1906 20.062 17.4303 19.595 17.5529C17.9999 17.9693 11.9371 17.9987 11.0969 18H10.9017C10.4768 18 8.71942 17.992 6.8768 17.9306L6.64304 17.9226L6.52341 17.9173L6.28827 17.9079L6.05313 17.8986C4.52678 17.8332 3.07332 17.7277 2.40365 17.5516C1.93679 17.429 1.51131 17.1896 1.16982 16.8572C0.828329 16.5248 0.582826 16.1112 0.457904 15.6577C0.305269 15.1012 0.203513 14.3418 0.134758 13.5783L0.123758 13.4382L0.112757 13.2994C0.0448933 12.3951 0.00728777 11.4888 0 10.5821L0 10.4179C0.00275017 10.131 0.0137509 9.13934 0.0880055 8.04493L0.0976311 7.90746L0.101756 7.83806L0.112757 7.69926L0.143009 7.35226L0.15676 7.21345C0.222764 6.52078 0.320395 5.84812 0.459279 5.34229C0.58399 4.88858 0.8294 4.47466 1.1709 4.14203C1.51241 3.8094 1.938 3.56975 2.40503 3.4471C3.07469 3.2736 4.52816 3.16683 6.0545 3.1001L6.28827 3.09076L6.52478 3.08275L6.64304 3.07874L6.87818 3.0694C8.18686 3.02853 9.49608 3.00584 10.8054 3.00133H11.0708V3ZM8.80055 7.28419V13.7145L14.5168 10.5007L8.80055 7.28419Z" fill="#F01817"/>
</svg>
