<svg width="52" height="52" viewBox="0 0 52 52" fill="none" xmlns="http://www.w3.org/2000/svg">
<path d="M0 52H52V0H0V52Z" fill="#48773B"/>
<path fill-rule="evenodd" clip-rule="evenodd" d="M26.3256 22.9453C37.8161 22.9453 43.9966 30.4883 45.3625 32.3759L45.3744 32.3923C45.4285 32.4674 45.4751 32.5321 45.511 32.5865C45.4793 32.6377 45.4391 32.6932 45.3927 32.7572C45.3829 32.7707 45.3728 32.7846 45.3625 32.7989C43.9966 34.6865 37.8161 42.2291 26.3256 42.2291C14.8355 42.2291 8.65691 34.6865 7.28909 32.7989C7.22993 32.7169 7.18094 32.6485 7.14062 32.5865C7.18094 32.5282 7.22993 32.458 7.28909 32.3759C8.65691 30.4883 14.8355 22.9453 26.3256 22.9453ZM23.8069 37.2134C23.6552 37.8061 23.4767 38.026 23.3243 38.2138L23.3147 38.2255C23.1603 38.4179 22.5867 38.6642 22.2231 38.6363C21.8595 38.6103 21.8083 37.6524 21.8083 37.1592C21.8083 37.1106 21.7884 37.117 21.757 37.1272C21.6784 37.1526 21.5275 37.2014 21.436 36.4679C21.3914 36.106 21.2411 36.1653 21.1103 36.217C21.0043 36.2588 20.9112 36.2956 20.8975 36.0991C20.8778 35.8172 20.7818 35.754 20.6563 35.6714C20.5873 35.626 20.5094 35.5748 20.4303 35.4781C20.2628 35.2727 20.0647 35.3892 19.8445 35.5188C19.7703 35.5624 19.6937 35.6074 19.6148 35.6422C19.5324 35.6786 19.481 35.7103 19.4417 35.7346C19.3335 35.8013 19.3156 35.8124 18.9905 35.7124C18.9871 35.7111 18.9841 35.7098 18.9812 35.7084C18.9758 35.7059 18.9707 35.7036 18.9641 35.7024C18.5575 34.7586 18.3359 33.7208 18.3359 32.6307C18.3359 32.364 18.3503 32.1036 18.3744 31.8429C18.3891 31.8169 18.4053 31.7909 18.4234 31.7708C18.8461 31.278 18.8382 31.1617 18.8382 31.1617L19.3059 31.0012C19.3059 31.0012 20.0542 31.1134 20.6172 31.324C20.7092 31.3579 20.8118 31.4003 20.9204 31.4453L20.9205 31.4453C21.3592 31.6268 21.8967 31.8492 22.2371 31.7125C22.5442 31.5885 22.7842 31.4221 22.7556 31.1695C22.7213 30.853 22.4692 30.7788 22.1621 30.9912C22.1088 31.0284 22.026 30.922 21.9338 30.8034C21.8323 30.673 21.7193 30.5277 21.6214 30.5425C21.5231 30.557 21.5895 30.7326 21.6534 30.9018C21.7125 31.0583 21.7695 31.2092 21.6922 31.2219C21.5433 31.248 21.2498 30.6513 21.1687 30.4866L21.1687 30.4866L21.1556 30.4601C21.101 30.352 20.853 30.0794 20.6292 30.2877C20.313 30.5833 19.8644 30.669 19.5565 30.7279C19.405 30.7568 19.2876 30.7793 19.2365 30.817C18.767 31.1617 18.6427 30.7026 18.6555 30.4222C18.6732 30.3579 18.6916 30.294 18.7143 30.232C18.8665 30.0652 19.4155 30.0092 19.6047 30.1336C19.8051 30.2654 19.9505 30.1103 20.0314 30.0241L20.0395 30.0155C20.1228 29.9352 20.0945 29.803 20.0418 29.6946C19.989 29.5846 20.1454 29.5044 20.2532 29.4762C20.3268 29.4571 20.5163 29.3359 20.6742 29.2348L20.6743 29.2348L20.6743 29.2348L20.6743 29.2348C20.7474 29.188 20.8137 29.1456 20.8587 29.1196C21.0034 29.0394 21.7434 28.9491 22.0747 29.1136C22.4063 29.2778 22.7107 29.1437 22.8735 28.9554C23.0789 28.7166 23.3389 28.5324 23.4549 28.4781C23.571 28.4243 23.1682 28.0554 22.8388 28.4584C22.5076 28.8592 22.3388 28.8971 22.1843 28.8971C22.0279 28.8971 21.1029 28.6687 20.9913 28.3801C20.8772 28.0937 21.2796 27.8772 21.6214 27.7148C21.8468 27.6085 22.3339 27.5735 22.7061 27.5467L22.7061 27.5467C22.8944 27.5331 23.0532 27.5217 23.1339 27.5042C23.236 27.4819 23.3441 27.4536 23.4541 27.4247C23.8656 27.3169 24.3036 27.2021 24.5507 27.3683C24.6891 27.4606 24.4416 27.5844 24.1739 27.7183C23.8439 27.8834 23.4831 28.0639 23.776 28.22C23.9167 28.296 24.4257 27.9902 24.7975 27.7668C24.9253 27.69 25.0369 27.6229 25.1118 27.5845C25.4562 27.4092 25.2899 27.2931 25.0591 27.132C24.8282 26.9706 24.5326 26.7642 24.62 26.4082C24.7905 25.7181 23.4475 25.8488 22.4765 25.9433C22.3144 25.9591 22.1628 25.9738 22.0302 25.9836C23.2741 25.198 24.7519 24.739 26.3398 24.739C30.1151 24.739 33.2784 27.3182 34.1221 30.7847C34.1281 30.9574 34.0999 31.0815 34.0836 31.1517C34.0105 31.4362 33.4634 31.6806 33.1465 31.2219C33.0647 31.1075 32.7215 30.7869 32.7335 31.334C32.7377 31.5564 32.8275 31.6976 32.8982 31.8088C33.0015 31.9712 33.0641 32.0697 32.7599 32.2637C32.3969 32.4976 32.2449 32.5256 32.1024 32.5518C32.0447 32.5625 31.9884 32.5728 31.9204 32.5965C31.6845 32.6786 31.4546 33.2417 31.5119 33.5422C31.5304 33.6403 31.6195 33.793 31.7132 33.9533C31.9085 34.2877 32.1233 34.6554 31.7576 34.6323C31.6295 34.6223 30.6743 33.979 30.5156 33.5663C30.4115 33.2938 30.3019 33.0252 30.2026 32.7818C30.1428 32.6352 30.0867 32.4977 30.0378 32.374C29.9078 32.0472 29.5702 31.9632 29.2838 32.1556C29.1382 32.254 29.1621 32.3523 29.1932 32.4797C29.2229 32.6016 29.2591 32.7503 29.1599 32.9512C29.1458 32.9793 29.132 33.0072 29.1185 33.0347C28.9337 33.4089 28.7873 33.7054 28.5068 33.388C28.1517 32.9868 27.7232 32.8582 27.3448 32.7446C26.8918 32.6087 26.5106 32.4943 26.4133 31.9592C26.3502 31.6092 26.1265 31.5116 25.8702 31.3998C25.7375 31.3419 25.5961 31.2802 25.4637 31.1777C25.0714 30.8768 24.8559 30.7149 24.7888 30.931C24.7578 31.0348 25.1238 31.3794 25.4781 31.7131C25.7742 31.9919 26.0622 32.2631 26.1039 32.38C26.2403 32.7607 25.7199 33.0954 25.3397 33.1878C25.0311 33.2594 24.8621 33.074 24.6081 32.7953L24.6081 32.7952C24.5508 32.7324 24.4892 32.6648 24.4207 32.5943C24.3369 32.5082 24.2638 32.4276 24.2004 32.3577L24.2004 32.3577L24.2004 32.3577C23.9822 32.1172 23.8801 32.0046 23.8596 32.2377C23.8212 32.6727 24.2134 33.3097 24.5933 33.5481C24.6626 33.5915 24.7338 33.6297 24.8018 33.6662C25.0513 33.8002 25.2582 33.9112 25.1747 34.1695C25.1577 34.2225 25.1461 34.2622 25.1371 34.2929C25.1218 34.3454 25.1141 34.3718 25.0999 34.394C25.0856 34.4165 25.0646 34.4348 25.0225 34.4715C24.9794 34.5091 24.9141 34.566 24.8111 34.6665C24.4474 35.0231 24.3781 35.1375 24.4045 35.6285C24.4212 35.9391 24.3753 36.0653 24.3192 36.2195C24.2866 36.3091 24.2506 36.4081 24.2214 36.5582C24.186 36.7452 24.129 36.7729 24.0626 36.8052C23.9838 36.8435 23.8917 36.8882 23.8069 37.2134ZM34.1795 34.2416C33.9658 34.1837 33.0653 32.9591 33.7771 32.1535C33.8453 32.0767 33.7541 31.9128 33.6843 31.7872C33.6339 31.6966 33.5946 31.626 33.6346 31.6227C34.025 31.5945 34.2304 31.8311 34.334 32.1735C34.3423 32.324 34.3479 32.4781 34.3479 32.6308C34.3479 33.1834 34.2891 33.7209 34.1795 34.2416ZM31.9907 38.2255C31.9093 38.2036 31.828 38.1772 31.7387 38.1334C31.4756 38.002 31.3899 38.0758 31.3166 38.1389C31.2679 38.1807 31.2247 38.2179 31.1388 38.1876C31.0548 38.1563 31.0732 38.0623 31.0885 37.9842C31.1124 37.8623 31.1287 37.779 30.736 38.0331C30.2732 38.3303 30.2335 38.165 30.1427 37.7873C30.1075 37.6406 30.0645 37.4618 29.9861 37.2657C29.7035 36.5641 30.3094 35.7607 30.8155 35.5802C31.3286 35.3967 31.6979 35.3214 31.9878 35.2622L31.9878 35.2622C32.0906 35.2412 32.1835 35.2223 32.2692 35.2013C32.7327 35.0872 33.0198 34.8972 33.2124 34.7697C33.4185 34.6333 33.5165 34.5684 33.6069 34.7444C33.619 34.7682 33.631 34.7913 33.6428 34.814L33.6429 34.814C33.663 34.8528 33.6825 34.8903 33.7003 34.9268C33.7572 35.0293 33.8224 35.2377 33.8243 35.442C33.4177 36.4961 32.7854 37.444 31.9907 38.2255ZM24.0931 40.2033C24.8049 40.4095 25.5593 40.5198 26.3419 40.5198C28.1657 40.5198 29.8466 39.9188 31.1926 38.9067C31.1463 38.8892 31.112 38.8704 31.0779 38.8517C30.9759 38.7959 30.8761 38.7413 30.4631 38.7265C29.8577 38.7039 29.3971 39.0958 29.0908 39.3564C28.9897 39.4424 28.9054 39.5141 28.8383 39.5518C28.7298 39.6142 28.3931 39.4997 27.9453 39.3473C27.2705 39.1176 26.3431 38.802 25.5634 38.8766C24.9797 38.9327 24.2419 39.1812 23.9959 39.8185C23.9311 39.9831 23.9899 40.1212 24.0931 40.2033ZM25.1022 35.809L25.1022 35.8091L25.1021 35.8091L25.1021 35.8091L25.1021 35.8091C24.9643 36.2479 24.7801 36.8341 24.6426 36.7287C24.4391 36.5742 24.7236 35.1895 24.7828 35.0852C25.0997 34.5143 25.7828 34.5403 25.2546 35.3778C25.2199 35.4344 25.166 35.6058 25.1022 35.8089L25.1022 35.809ZM27.7512 33.7447C27.9547 33.9011 28.359 33.9512 28.5153 33.813C28.6721 33.6726 28.2697 33.302 27.9991 33.3239C27.8793 33.3339 27.55 33.5906 27.7512 33.7447ZM32.0562 33.8249C31.971 33.7949 31.8942 33.7128 31.829 33.5204C31.7638 33.3261 31.9281 33.2158 32.0909 33.2938C32.2536 33.3759 32.4669 33.6166 32.4669 33.7466C32.4669 33.8751 32.1459 33.861 32.0562 33.8249ZM32.9063 34.5562C33.065 34.414 32.6603 34.0474 32.3923 34.0693C32.2699 34.0775 31.9406 34.3341 32.1418 34.4883C32.3452 34.6443 32.7477 34.6966 32.9063 34.5562ZM19.5274 28.4904C19.5202 28.4988 19.5113 28.5092 19.502 28.5205C19.2703 28.8912 19.0709 29.2838 18.9062 29.6927C18.9613 29.7209 19.0283 29.7328 19.1116 29.7146C19.2976 29.6736 19.5795 29.3887 19.825 29.1407L19.825 29.1407C19.9148 29.05 19.9997 28.9642 20.0732 28.8971C20.1041 28.8698 20.1767 28.8278 20.2611 28.7789C20.4487 28.6703 20.6948 28.5279 20.6709 28.438C20.6385 28.3099 20.3739 28.21 20.175 28.2441L20.1479 28.2481C19.9503 28.2773 19.6806 28.3171 19.5427 28.4722C19.5396 28.4761 19.5342 28.4824 19.5274 28.4904ZM19.923 27.7149C20.0122 27.5859 20.2775 27.2539 20.3782 27.1278L20.4133 27.0838C20.4968 26.9759 20.6611 26.9496 20.7841 26.9299L20.7995 26.9275C20.9216 26.9033 21.084 26.9713 21.1024 27.0615C21.1251 27.1518 21.0557 27.5024 20.9969 27.5626C20.8281 27.7349 20.3891 27.9793 20.1468 27.9392C19.96 27.9114 19.8868 27.7691 19.923 27.7149Z" fill="white"/>
<path d="M6.55253 4.66016V14.9643H4.79583V7.07704H4.77963L3.54557 8.3373H3.53125V6.52993L5.14928 4.66016H6.55253Z" fill="white"/>
<path d="M12.3499 6.89404V7.78992C12.3499 8.65572 11.8717 9.23255 11.1486 9.46321C12.0247 9.65932 12.4411 10.2688 12.4411 11.2108V12.7296C12.4411 14.1584 11.6727 15.084 9.89795 15.084C8.11111 15.084 7.47656 14.0823 7.47656 12.5171V11.1647H9.08065V12.6393C9.08065 13.2466 9.29619 13.6414 9.89795 13.6414C10.4368 13.6414 10.6847 13.2626 10.6847 12.7136V11.0121C10.6847 10.465 10.4368 10.1764 9.82071 10.1764H9.08065V8.85592H9.74346C10.3147 8.85592 10.6847 8.56546 10.6847 8.01835V6.91001C10.6847 6.34692 10.4835 5.98218 9.93036 5.98218C9.37532 5.98218 9.1741 6.34692 9.1741 6.98429V8.03432H7.5685V7.12247C7.5685 5.60146 8.2023 4.53955 10.0197 4.53955C11.64 4.53955 12.3499 5.43507 12.3499 6.89404Z" fill="white"/>
<path d="M16 7.81162V5.72568C16 5.05451 16.3229 4.56348 17.0954 4.56348C17.907 4.56348 18.1346 5.00845 18.1346 5.64359V6.15245H17.4635V5.58751C17.4635 5.32082 17.3723 5.16853 17.1078 5.16853C16.8433 5.16853 16.7337 5.35091 16.7337 5.61128V7.92602C16.7337 8.18639 16.8433 8.37099 17.1078 8.37099C17.3723 8.37099 17.4635 8.20459 17.4635 7.95016V7.15642H18.1346V7.90002C18.1346 8.51696 17.8761 8.97382 17.0954 8.97382C16.3229 8.97382 16 8.47908 16 7.81162Z" fill="white"/>
<path d="M18.5391 4.61426H19.2731V8.33152H20.1511V8.92283H18.5391V4.61426Z" fill="white"/>
<path d="M20.4836 8.92234H21.2195V4.61377H20.4836V8.92234Z" fill="white"/>
<path d="M23.6656 6.12709H23.6449L23.149 8.92469H22.8076L22.2605 6.12709H22.2462V8.92469H21.6406V4.61426H22.4982L22.9764 7.04303H22.9825L23.4071 4.61426H24.3363V8.92469H23.6656V6.12709Z" fill="white"/>
<path fill-rule="evenodd" clip-rule="evenodd" d="M25.4655 4.61377L24.6406 8.9242H25.3355L25.4655 8.13677H26.2443L26.3807 8.9242H27.1347L26.3035 4.61377H25.4655ZM26.1455 7.55725H25.5576L25.8482 5.82788H25.8546L26.1455 7.55725Z" fill="white"/>
<path d="M27.0312 4.61426H28.985V5.20557H28.3791V8.92283H27.6368V5.20557H27.0312V4.61426Z" fill="white"/>
<path d="M29.3282 4.61426H31.0827V5.20557H30.0619V6.43797H30.7922V7.02297H30.0619V8.33152H31.0827V8.92283H29.3282V4.61426Z" fill="white"/>
<path fill-rule="evenodd" clip-rule="evenodd" d="M16.7158 10.6504L15.8906 14.9608H16.5877L16.7158 14.1734H17.4966L17.6307 14.9608H18.3851L17.5558 10.6504H16.7158ZM17.4031 13.5939H16.8156L17.1062 11.8645H17.1122L17.4031 13.5939Z" fill="white"/>
<path d="M18.5859 13.8474V11.7633C18.5859 11.0899 18.9089 10.6011 19.6836 10.6011C20.4945 10.6011 20.7206 11.046 20.7206 11.6812V12.19H20.0495V11.6232C20.0495 11.3566 19.9598 11.2043 19.6956 11.2043C19.4315 11.2043 19.3219 11.3885 19.3219 11.6492V13.9618C19.3219 14.2221 19.4315 14.4064 19.6956 14.4064C19.9598 14.4064 20.0495 14.2422 20.0495 13.9878V13.1922H20.7206V13.9354C20.7206 14.5527 20.4621 15.0118 19.6836 15.0118C18.9089 15.0118 18.5859 14.5148 18.5859 13.8474Z" fill="white"/>
<path d="M20.9766 10.6504H22.9307V11.2417H22.3244V14.959H21.5825V11.2417H20.9766V10.6504Z" fill="white"/>
<path d="M23.2649 14.9585H24.0008V10.6499H23.2649V14.9585Z" fill="white"/>
<path fill-rule="evenodd" clip-rule="evenodd" d="M24.4297 11.7638V13.8478C24.4297 14.5149 24.7654 15.01 25.5398 15.01C26.3186 15.01 26.6536 14.5149 26.6536 13.8478V11.7638C26.6536 11.0904 26.3186 10.6016 25.5398 10.6016C24.7654 10.6016 24.4297 11.0904 24.4297 11.7638ZM25.9163 11.6494V13.9619C25.9163 14.2226 25.8002 14.4069 25.536 14.4069C25.2779 14.4069 25.1619 14.2226 25.1619 13.9619V11.6494C25.1619 11.389 25.2779 11.2044 25.536 11.2044C25.8002 11.2044 25.9163 11.389 25.9163 11.6494Z" fill="white"/>
<path d="M27.6883 12.2521V14.9595H27.0703V10.6509H27.7919L28.5851 13.1239V10.6509H29.1967V14.9595H28.5523L27.6883 12.2521Z" fill="white"/>
</svg>
