<svg width="52" height="52" viewBox="0 0 52 52" fill="none" xmlns="http://www.w3.org/2000/svg">
<path d="M0 52H52V0H0V52Z" fill="#DF1982"/>
<path d="M32.1427 35.4023H22.5954C22.5389 35.4023 22.4922 35.4547 22.4922 35.5167V38.3463C22.4922 38.4083 22.5389 38.4603 22.5954 38.4603H32.1427C32.2015 38.4603 32.2482 38.4083 32.2482 38.3463V35.5167C32.2482 35.4547 32.2015 35.4023 32.1427 35.4023Z" fill="white"/>
<path d="M32.1427 29.3843H22.5954C22.5389 29.3843 22.4922 29.4366 22.4922 29.4987V32.3282C22.4922 32.3902 22.5389 32.4422 22.5954 32.4422H32.1427C32.2015 32.4422 32.2482 32.3902 32.2482 32.3282V29.4987C32.2482 29.4366 32.2015 29.3843 32.1427 29.3843Z" fill="white"/>
<path d="M32.0035 25.1093L27.4211 20.5924C27.3887 20.5623 27.3397 20.5623 27.3092 20.5924L22.7268 25.1093C22.6759 25.1572 22.7129 25.2434 22.7818 25.2434H31.9466C32.0175 25.2434 32.0522 25.1572 32.0035 25.1093Z" fill="white"/>
<path d="M36.3079 38.4942L40.8903 33.9773C40.9208 33.9472 40.9208 33.8974 40.8903 33.8669L36.3079 29.35C36.257 29.3021 36.1719 29.3363 36.1719 29.4042V38.44C36.1719 38.5083 36.257 38.5421 36.3079 38.4942Z" fill="white"/>
<path d="M22.726 42.7348L27.308 47.2517C27.3404 47.2837 27.3894 47.2837 27.42 47.2517L32.0024 42.7348C32.0532 42.6869 32.0163 42.6025 31.9473 42.6025H22.7825C22.7117 42.6025 22.677 42.6869 22.726 42.7348Z" fill="white"/>
<path d="M18.427 29.3506L13.8446 33.8675C13.8122 33.8976 13.8122 33.9474 13.8446 33.9778L18.427 38.4948C18.476 38.5445 18.5612 38.5085 18.5612 38.4405V29.4048C18.5612 29.3365 18.476 29.3027 18.427 29.3506Z" fill="white"/>
<path d="M6.46959 8.36933V16.267H8.23005V5.94873H6.82304L5.20312 7.82222V9.63182H5.21933L6.45301 8.36933H6.46959Z" fill="white"/>
<path fill-rule="evenodd" clip-rule="evenodd" d="M14.6476 8.61298V13.605C14.6476 15.204 13.8303 16.3903 12.0393 16.3903C10.2645 16.3903 9.44531 15.204 9.44531 13.605V8.61298C9.44531 6.99987 10.2645 5.82764 12.0393 5.82764C13.8303 5.82764 14.6476 6.99987 14.6476 8.61298ZM11.2031 8.3385V13.8795C11.2031 14.5046 11.4349 14.9436 12.0366 14.9436C12.655 14.9436 12.8863 14.5046 12.8863 13.8795V8.3385C12.8863 7.71524 12.655 7.27435 12.0366 7.27435C11.4349 7.27435 11.2031 7.71524 11.2031 8.3385Z" fill="white"/>
<path fill-rule="evenodd" clip-rule="evenodd" d="M18.9528 10.2735V8.29753L19.6439 10.2735H20.4163L19.7147 8.31573C20.1337 8.22139 20.3003 7.94913 20.3003 7.4841V6.93105C20.3003 6.32785 20.0301 5.96533 19.2881 5.96533H18.2188V10.2735H18.9528ZM18.9509 7.89676V6.55627H19.1966C19.4486 6.55627 19.5564 6.67067 19.5564 6.9069V7.54205C19.5564 7.77085 19.4486 7.89676 19.1966 7.89676H18.9509Z" fill="white"/>
<path d="M20.6953 5.96533H22.4497V6.55665H21.4293V7.78905H22.1592V8.37405H21.4293V9.68259H22.4497V10.2739H20.6953V5.96533Z" fill="white"/>
<path fill-rule="evenodd" clip-rule="evenodd" d="M25.0413 9.11677V7.12257C25.0413 6.45548 24.7647 5.96631 23.978 5.96631H22.8438V10.2749H23.978C24.7647 10.2749 25.0413 9.77791 25.0413 9.11677ZM24.305 9.24487C24.305 9.50524 24.1893 9.68353 23.8863 9.68353H23.5773V6.55573H23.8863C24.1893 6.55573 24.305 6.73401 24.305 6.98844V9.24487Z" fill="white"/>
<path d="M27.5881 5.96533V9.22573C27.5881 9.89319 27.2976 10.3259 26.5489 10.3259C25.7764 10.3259 25.4531 9.89319 25.4531 9.22573V5.96533H26.189V9.29593C26.189 9.55036 26.2927 9.7227 26.5489 9.7227C26.8074 9.7227 26.911 9.55036 26.911 9.29593V5.96533H27.5881Z" fill="white"/>
<path d="M28.0078 9.16221V7.07812C28.0078 6.40509 28.3289 5.91406 29.1032 5.91406C29.9149 5.91406 30.1402 6.36089 30.1402 6.99418V7.50303H29.4713V6.93809C29.4713 6.67141 29.3802 6.51912 29.1156 6.51912C28.8534 6.51912 28.7415 6.70335 28.7415 6.96409V9.27661C28.7415 9.53698 28.8534 9.7212 29.1156 9.7212C29.3802 9.7212 29.4713 9.55703 29.4713 9.30261V8.50701H30.1402V9.25061C30.1402 9.86755 29.884 10.3266 29.1032 10.3266C28.3289 10.3266 28.0078 9.82966 28.0078 9.16221Z" fill="white"/>
<path d="M30.5469 5.96533H32.299V6.55665H31.2805V7.78905H32.0108V8.37405H31.2805V9.68259H32.299V10.2739H30.5469V5.96533Z" fill="white"/>
<path fill-rule="evenodd" clip-rule="evenodd" d="M34.8869 9.11677V7.12257C34.8869 6.45548 34.6104 5.96631 33.8217 5.96631H32.6875V10.2749H33.8217C34.6104 10.2749 34.8869 9.77791 34.8869 9.11677ZM34.1487 9.24487C34.1487 9.50524 34.033 9.68353 33.7301 9.68353H33.4211V6.55573H33.7301C34.033 6.55573 34.1487 6.73401 34.1487 6.98844V9.24487Z" fill="white"/>
<path d="M18.2071 16.3095H18.9408V12.001H18.2071V16.3095Z" fill="white"/>
<path d="M19.993 13.6027V16.31H19.375V12.0015H20.0966L20.8898 14.4744V12.0015H21.5017V16.31H20.857L19.993 13.6027Z" fill="white"/>
<path d="M21.9219 12.001H23.6744V12.5923H22.6555V13.8247H23.3858V14.4097H22.6555V15.7182H23.6744V16.3095H21.9219V12.001Z" fill="white"/>
<path fill-rule="evenodd" clip-rule="evenodd" d="M24.8377 16.31V16.6027L26.2239 16.8571V16.3163L25.6832 16.216C26.0574 16.0377 26.2239 15.6689 26.2239 15.1979V13.1139C26.2239 12.4405 25.8886 11.9517 25.1097 11.9517C24.3354 11.9517 24 12.4405 24 13.1139V15.1979C24 15.7829 24.2521 16.2079 24.8377 16.31ZM25.4913 12.9995V15.3502C25.4913 15.6047 25.3753 15.7952 25.1108 15.7952C24.853 15.7952 24.7347 15.6047 24.7347 15.3502V12.9995C24.7347 12.7391 24.853 12.5549 25.1108 12.5549C25.3753 12.5549 25.4913 12.7391 25.4913 12.9995Z" fill="white"/>
<path d="M28.7831 12.001V15.2614C28.7831 15.9288 28.4926 16.3615 27.7465 16.3615C26.9717 16.3615 26.6484 15.9288 26.6484 15.2614V12.001H27.3844V15.3316C27.3844 15.586 27.488 15.7583 27.7465 15.7583C28.0027 15.7583 28.1063 15.586 28.1063 15.3316V12.001H28.7831Z" fill="white"/>
<path fill-rule="evenodd" clip-rule="evenodd" d="M29.8115 12.0005L28.9844 16.3109H29.6815L29.8115 15.5231H30.59L30.7264 16.3109H31.4808L30.6495 12.0005H29.8115ZM30.5005 14.944H29.913L30.2036 13.2147H30.21L30.5005 14.944Z" fill="white"/>
<path d="M31.7812 12.001H32.5149V15.7182H33.391V16.3095H31.7812V12.001Z" fill="white"/>
<path d="M33.7304 16.3095H34.4644V12.001H33.7304V16.3095Z" fill="white"/>
<path d="M34.8047 12.001H36.7585V12.5923H36.1525V16.3095H35.4102V12.5923H34.8047V12.001Z" fill="white"/>
<path d="M37.0978 16.3095H37.8314V12.001H37.0978V16.3095Z" fill="white"/>
<path d="M38.2578 12.001H40.01V12.5923H38.9915V13.8247H39.7213V14.4097H38.9915V15.7182H40.01V16.3095H38.2578V12.001Z" fill="white"/>
<path d="M40.3359 15.3825V14.8035H41.0191V15.3944C41.0191 15.637 41.1287 15.7774 41.3808 15.7774C41.613 15.7774 41.7162 15.6251 41.7162 15.3944V15.2303C41.7162 14.9818 41.613 14.8295 41.3869 14.6211L40.9539 14.1943C40.5372 13.7876 40.3423 13.541 40.3423 13.044V12.8977C40.3423 12.3647 40.6592 11.9517 41.3748 11.9517C42.1085 11.9517 42.3997 12.3064 42.3997 12.9296V13.2784H41.7286V12.9036C41.7286 12.6574 41.613 12.5348 41.3808 12.5348C41.1736 12.5348 41.0334 12.6492 41.0334 12.8917V12.9798C41.0334 13.2223 41.1676 13.3627 41.3808 13.5648L41.8522 14.0216C42.2509 14.4228 42.4442 14.6649 42.4442 15.14V15.3506C42.4442 15.9415 42.1209 16.3605 41.3748 16.3605C40.6265 16.3605 40.3359 15.9475 40.3359 15.3825Z" fill="white"/>
</svg>
