<svg xmlns="http://www.w3.org/2000/svg" width="53" height="56" viewBox="0 0 53 56">
    <g fill="none" fill-rule="evenodd">
        <g fill-rule="nonzero">
            <g>
                <g>
                    <g>
                        <g>
                            <g transform="translate(-763 -1232) translate(400 1142) translate(238 90) translate(102) translate(23) matrix(-1 0 0 1 46 0)">
                                <g fill="#683F72">
                                    <path d="M19.28.073c18.643 0 26.384 24.48 10.971 34.957v11.873c0 2.53-2.279 4.213-4.347 5.134-.661 4.993-12.587 4.993-13.248 0-2.071-.923-4.348-2.679-4.348-5.134V35.03C-7.054 24.588.572.073 19.28.073z" transform="translate(.22 .219)"/>
                                    <path d="M30.251 36.405v10.498c0 3.557-4.912 6.44-10.971 6.44-6.06 0-10.972-2.883-10.972-6.44V36.405h21.943z" transform="translate(.22 .219)"/>
                                </g>
                                <g fill="#8A5A96">
                                    <path d="M11.017 13.53c6.06 0 10.971-2.883 10.971-6.44v3.5c0 3.558-4.912 6.441-10.971 6.441-6.06 0-10.971-2.883-10.971-6.44V7.088c0 3.558 4.912 6.441 10.97 6.441z" transform="translate(8.483 36.531)"/>
                                    <path d="M11.017 6.534c6.06 0 10.971-2.884 10.971-6.441v3.5c0 3.558-4.912 6.442-10.971 6.442C4.957 10.035.046 7.15.046 3.594V.093c0 3.557 4.912 6.441 10.97 6.441z" transform="translate(8.483 36.531)"/>
                                </g>
                                <path fill="#FFCA00" d="M.052 19.307C.052 8.644 8.76 0 19.5 0c10.74 0 19.448 8.644 19.448 19.307 0 6.622-3.36 12.463-8.477 15.941v1.376c0 3.557-4.912 6.441-10.971 6.441-6.06 0-10.971-2.884-10.971-6.44v-1.377C3.41 31.77.052 25.93.052 19.308z"/>
                                <ellipse cx="19.5" cy="36.624" fill="#FFF" opacity=".3" rx="10.972" ry="6.441"/>
                                <path fill="#CAA414" d="M12.148 26.042c1.177-.385 2.408-.832 3.497-1.566.599-.19.956.022 1.07.636v1.275l.018-.009c.443-.247.72-.713.72-1.218v-2.493c0-1.01.547-1.953 1.429-2.458l.09-.052c1.159-.398 1.854 0 2.086 1.196v2.582l.018-.01c.453-.244.735-.714.735-1.226v-2.503c0-1.925 3.479-3.981 3.479-1.24v.07l1.64-.914.045-.182c.31-1.26 2.273-.785 1.963.475L25.032 34.32c-.352 1.433-2.244.665-1.964-.475l3.392-13.817-1.542.858c-.603.201-.963-.009-1.082-.629v-1.185c-.837.61-.725 2.778-.572 3.627 0 1.041-.572 1.997-1.493 2.494l-.11.06c-1.15.369-1.834-.035-2.056-1.214V21.46c-.431.25-.7.712-.7 1.207v2.493c0 1.027-.56 1.976-1.463 2.477-.874.404-2.18.242-2.18-1.144v-.174l-1.663.888 3.597 10.841c.376 1.133-1.463 2.004-1.919.628l-3.772-11.368c-.175-.526.113-1.093.643-1.266.199-.065-.53.173 0 0z"/>
                                <ellipse cx="25.414" cy="13.093" fill="#FFF" opacity=".3" rx="8.501" ry="8.439"/>
                            </g>
                        </g>
                    </g>
                </g>
            </g>
        </g>
    </g>
</svg>
