<svg width="78" height="78" viewBox="0 0 78 78" fill="none" xmlns="http://www.w3.org/2000/svg">
<g clip-path="url(#clip0_1770_73107)">
<path fill-rule="evenodd" clip-rule="evenodd" d="M39 76C59.4345 76 76 59.4345 76 39C76 18.5655 59.4345 2 39 2C18.5655 2 2 18.5655 2 39C2 59.4345 18.5655 76 39 76ZM39 78C60.5391 78 78 60.5391 78 39C78 17.4609 60.5391 0 39 0C17.4609 0 0 17.4609 0 39C0 60.5391 17.4609 78 39 78Z" fill="#F6F6F6"/>
<path opacity="0.7" d="M73.6668 38.9999C73.6668 58.1458 58.146 73.6666 39.0002 73.6666C19.8543 73.6666 4.3335 58.1458 4.3335 38.9999C4.3335 19.854 19.8543 4.33325 39.0002 4.33325C58.146 4.33325 73.6668 19.854 73.6668 38.9999Z" fill="#E7E7E7"/>
<path d="M68 39C68 55.0163 55.0163 68 39 68C22.9837 68 10 55.0163 10 39C10 22.9837 22.9837 10 39 10C55.0163 10 68 22.9837 68 39Z" fill="white"/>
<g clip-path="url(#clip1_1770_73107)">
<path d="M50.2619 27.486V54.5629H24.2734V21H43.787L50.2619 27.486Z" fill="url(#paint0_linear_1770_73107)"/>
<path d="M50.263 27.486H43.7881V21L50.263 27.486Z" fill="url(#paint1_linear_1770_73107)"/>
<path fill-rule="evenodd" clip-rule="evenodd" d="M26.396 24.3101H41.4116V25.9093H26.396V24.3101ZM26.396 27.9565H36.336V29.5558H26.396V27.9565Z" fill="url(#paint2_linear_1770_73107)"/>
<path d="M48.2538 61.1595C48.2538 61.1595 37.4364 53.3963 37.603 40.291L48.2538 34.5046L58.9046 40.291C59.0712 53.3963 48.2538 61.1595 48.2538 61.1595Z" fill="url(#paint3_linear_1770_73107)"/>
<path d="M55.2569 45.0121H49.8593V39.6145H46.6496V45.0121H41.252V48.2218H46.6496V53.6194H49.8593V48.2218H55.2569V45.0121Z" fill="url(#paint4_linear_1770_73107)"/>
</g>
</g>
<defs>
<linearGradient id="paint0_linear_1770_73107" x1="37.2677" y1="21" x2="37.2677" y2="60.4654" gradientUnits="userSpaceOnUse">
<stop stop-color="#DBE7F1"/>
<stop offset="0.887141" stop-color="#92B6D5"/>
</linearGradient>
<linearGradient id="paint1_linear_1770_73107" x1="56.7541" y1="11.3798" x2="38.3369" y2="29.797" gradientUnits="userSpaceOnUse">
<stop stop-color="#3883C0"/>
<stop offset="1" stop-color="#ADC2DF"/>
</linearGradient>
<linearGradient id="paint2_linear_1770_73107" x1="40.9694" y1="24.3541" x2="21.4998" y2="24.3541" gradientUnits="userSpaceOnUse">
<stop stop-color="#ADC2DF"/>
<stop offset="1" stop-color="#3883C0"/>
</linearGradient>
<linearGradient id="paint3_linear_1770_73107" x1="48.0228" y1="35.2385" x2="48.0228" y2="60.9853" gradientUnits="userSpaceOnUse">
<stop stop-color="#ADC2DF"/>
<stop offset="0.746501" stop-color="#3883C0"/>
</linearGradient>
<linearGradient id="paint4_linear_1770_73107" x1="48.2544" y1="39.6145" x2="48.2544" y2="70.9895" gradientUnits="userSpaceOnUse">
<stop stop-color="#DBE7F1"/>
<stop offset="1" stop-color="#92B6D5"/>
</linearGradient>
<clipPath id="clip0_1770_73107">
<rect width="78" height="78" fill="white"/>
</clipPath>
<clipPath id="clip1_1770_73107">
<rect width="44" height="44" fill="white" transform="translate(17 17)"/>
</clipPath>
</defs>
</svg>
