<svg width="52" height="52" viewBox="0 0 52 52" fill="none" xmlns="http://www.w3.org/2000/svg">
<path d="M0 52H52V0H0V52Z" fill="#CC8A29"/>
<path d="M39.4989 30.1464C37.2079 28.3628 34.1723 28.3268 33.0626 28.5875L32.9344 28.6176C31.6495 28.9158 29.6106 29.411 27.2239 32.3285C27.2118 32.3445 27.1975 32.3627 27.1828 32.3787L27.1545 32.4147C27.1323 32.447 27.1138 32.4849 27.1138 32.5272C27.1138 32.5651 27.124 32.5974 27.1402 32.6253L27.1956 32.7156C27.4959 33.2107 27.8724 33.8454 28.1915 34.4308C28.1953 34.439 28.1975 34.4427 28.2017 34.4486C28.2341 34.5151 28.303 34.5612 28.3826 34.5612C28.4395 34.5612 28.4881 34.537 28.525 34.5029C28.5389 34.485 28.5551 34.465 28.5676 34.4449C30.6856 31.5571 32.3508 31.1563 33.4789 30.8959L33.6112 30.8658C34.1968 30.7277 36.4207 30.7336 38.0248 31.9842C39.2792 32.9581 39.9152 34.5092 39.9152 36.5929C39.9152 40.0899 38.1895 41.4568 36.7421 41.9898C34.4997 42.8154 32.3489 41.7112 32.3346 41.703L32.2373 41.657C31.0052 41.128 29.1671 40.032 27.4349 36.6029C23.9426 29.6895 21.0234 29.0384 19.09 28.6072L18.986 28.5853C18.1077 28.3892 15.0502 28.2488 12.6492 30.1404C11.3929 31.1262 9.89844 33.0443 9.89844 36.5792C9.89844 38.7334 10.348 40.156 11.5006 41.6529C11.7546 41.9935 14.3407 45.268 19.3398 44.3242C20.1409 44.1719 21.2243 43.7971 22.4157 42.9154L23.5157 43.8933C23.5865 43.9576 23.7026 43.9535 23.7677 43.8814C23.8001 43.8473 23.8122 43.8053 23.8122 43.7633V43.7492L24.6054 38.9359L24.6073 38.8816C24.6054 38.8356 24.5869 38.7873 24.5481 38.7531C24.5135 38.7234 24.4731 38.7112 24.4306 38.7112L24.3978 38.7134L24.345 38.7193L19.6692 40.01L19.5836 40.0238C19.5493 40.032 19.5188 40.0479 19.4943 40.0758C19.4254 40.1482 19.4314 40.2604 19.5086 40.3265L19.5614 40.3744L20.6104 41.3082C19.9333 41.739 19.344 41.9378 18.8944 42.0239C15.2759 42.7051 13.491 40.3685 13.422 40.2782L13.3971 40.2444C12.558 39.1561 12.2731 38.2324 12.2731 36.5792C12.2731 34.4888 12.8994 32.938 14.1293 31.9679C15.6946 30.7377 17.8518 30.7318 18.4596 30.8677L18.5651 30.8918C20.1488 31.2447 22.3181 31.7276 25.3085 37.6452C26.8599 40.7172 28.8053 42.727 31.2508 43.7871C31.564 43.9435 33.0482 44.6369 34.9752 44.6369C35.7828 44.6369 36.6649 44.5147 37.5715 44.1838C38.9906 43.663 42.2899 41.8794 42.2899 36.5929C42.2899 33.0602 40.7714 31.1385 39.4989 30.1464Z" fill="white"/>
<path d="M5.5862 10.3387H5.6024V18.23H7.36098V7.91992H5.95585L4.33594 9.79155V11.5993H4.35252L5.5862 10.3387Z" fill="white"/>
<path d="M8.40778 10.0503V11.2964H10.0115V10.0042C10.0115 9.38098 10.3205 9.1986 10.6909 9.1986C11.03 9.1986 11.3228 9.33492 11.3228 9.97415V10.8258C11.3228 11.6775 11.2456 12.0122 10.6747 12.6035L9.68819 13.6394C8.73259 14.6411 8.375 15.3105 8.375 16.3285V18.2303H12.9412V16.8155H10.0582V16.3285C10.0582 15.5229 10.351 15.2202 10.7983 14.7474L11.9223 13.5774C12.8334 12.6195 13.0343 12.0122 13.0343 10.9759V9.97415C13.0343 8.4992 12.3089 7.7998 10.7376 7.7998C9.19419 7.7998 8.40778 8.60543 8.40778 10.0503Z" fill="white"/>
<path fill-rule="evenodd" clip-rule="evenodd" d="M17.804 12.2232V10.2472L18.495 12.2232H19.2679L18.5663 10.2654C18.9853 10.1711 19.1518 9.89884 19.1518 9.43381V8.88075C19.1518 8.27755 18.8813 7.91504 18.1397 7.91504H17.0703V12.2232H17.804ZM17.8024 9.84647V8.50598H18.0481C18.3006 8.50598 18.408 8.62038 18.408 8.85661V9.49175C18.408 9.72055 18.3006 9.84647 18.0481 9.84647H17.8024Z" fill="white"/>
<path d="M19.4609 7.91504H21.215V8.50635H20.1946V9.73875H20.9245V10.3238H20.1946V11.6323H21.215V12.2236H19.4609V7.91504Z" fill="white"/>
<path d="M21.4453 11.2956V10.7184H22.1281V11.3075C22.1281 11.5501 22.24 11.6905 22.4898 11.6905C22.722 11.6905 22.8256 11.5382 22.8256 11.3075V11.1433C22.8256 10.8949 22.722 10.7426 22.4962 10.5342L22.0655 10.1074C21.6465 9.70257 21.4513 9.45409 21.4513 8.95712V8.81077C21.4513 8.27777 21.7682 7.86475 22.4842 7.86475C23.2178 7.86475 23.5087 8.21946 23.5087 8.84272V9.19335H22.8376V8.81895C22.8376 8.57046 22.722 8.45012 22.4898 8.45012C22.2848 8.45012 22.1424 8.56415 22.1424 8.80483V8.89509C22.1424 9.1354 22.2766 9.2758 22.4898 9.47786L22.9616 9.93472C23.3603 10.3359 23.5536 10.578 23.5536 11.0553V11.2637C23.5536 11.8546 23.2299 12.2755 22.4842 12.2755C21.7358 12.2755 21.4453 11.8628 21.4453 11.2956Z" fill="white"/>
<path fill-rule="evenodd" clip-rule="evenodd" d="M24.9409 7.91504H23.8516V12.2232H24.5856V10.7624H24.9409C25.6832 10.7624 25.9538 10.394 25.9538 9.79038V8.88075C25.9538 8.27755 25.6832 7.91504 24.9409 7.91504ZM24.5859 10.2034V8.50598H24.8584C25.1082 8.50598 25.2182 8.62038 25.2182 8.85661V9.84647C25.2182 10.0831 25.1082 10.2034 24.8584 10.2034H24.5859Z" fill="white"/>
<path fill-rule="evenodd" clip-rule="evenodd" d="M26.2422 9.0282V11.1123C26.2422 11.7794 26.5775 12.2745 27.3523 12.2745C28.1311 12.2745 28.4661 11.7794 28.4661 11.1123V9.0282C28.4661 8.35294 28.1311 7.86377 27.3523 7.86377C26.5775 7.86377 26.2422 8.35294 26.2422 9.0282ZM27.7324 8.91378V11.2263C27.7324 11.487 27.6163 11.6713 27.3522 11.6713C27.0941 11.6713 26.978 11.487 26.978 11.2263V8.91378C26.978 8.65341 27.0941 8.46918 27.3522 8.46918C27.6163 8.46918 27.7324 8.65341 27.7324 8.91378Z" fill="white"/>
<path d="M29.4093 9.51676V12.2241H28.7891V7.91553H29.511L30.3057 10.3885V7.91553H30.9177V12.2241H30.2733L29.4093 9.51676Z" fill="white"/>
<path d="M31.2109 11.2956V10.7184H31.8941V11.3075C31.8941 11.5501 32.0037 11.6905 32.2558 11.6905C32.488 11.6905 32.5912 11.5382 32.5912 11.3075V11.1433C32.5912 10.8949 32.488 10.7426 32.2619 10.5342L31.8293 10.1074C31.4099 9.70257 31.2173 9.45409 31.2173 8.95712V8.81077C31.2173 8.27777 31.5342 7.86475 32.2498 7.86475C32.9838 7.86475 33.2747 8.21946 33.2747 8.84272V9.19335H32.6036V8.81895C32.6036 8.57046 32.488 8.45012 32.2558 8.45012C32.0486 8.45012 31.9065 8.56415 31.9065 8.80483V8.89509C31.9065 9.1354 32.0426 9.2758 32.2558 9.47786L32.7257 9.93472C33.1259 10.3359 33.3192 10.578 33.3192 11.0553V11.2637C33.3192 11.8546 32.9959 12.2755 32.2498 12.2755C31.5015 12.2755 31.2109 11.8628 31.2109 11.2956Z" fill="white"/>
<path d="M33.6134 12.2231H34.347V7.91455H33.6134V12.2231Z" fill="white"/>
<path fill-rule="evenodd" clip-rule="evenodd" d="M35.743 7.91553H34.6797V12.2237H35.8199C36.5539 12.2237 36.8328 11.8872 36.8328 11.2781V10.7046C36.8328 10.312 36.6515 10.0694 36.2838 9.98736C36.5864 9.89116 36.7231 9.66273 36.7231 9.30021V8.86304C36.7231 8.25204 36.4767 7.91553 35.743 7.91553ZM35.4118 9.73293H35.6699C35.9077 9.73293 36.0174 9.61258 36.0174 9.38416V8.8571C36.0174 8.62087 35.9077 8.50647 35.6639 8.50647H35.4118V9.73293ZM35.4123 10.286V11.6324H35.7352C35.9794 11.6324 36.095 11.5125 36.095 11.284V10.6348C36.095 10.4064 35.9854 10.286 35.7273 10.286H35.4123Z" fill="white"/>
<path d="M37.1172 7.91504H37.8508V11.6323H38.7269V12.2236H37.1172V7.91504Z" fill="white"/>
<path d="M38.9688 7.91504H40.7232V8.50635H39.7028V9.73875H40.4327V10.3238H39.7028V11.6323H40.7232V12.2236H38.9688V7.91504Z" fill="white"/>
<path d="M17.0625 17.148V15.0621C17.0625 14.3909 17.3858 13.8999 18.1583 13.8999C18.9714 13.8999 19.1971 14.3445 19.1971 14.98V15.4889H18.5264V14.9239C18.5264 14.6572 18.4367 14.505 18.1703 14.505C17.9081 14.505 17.7962 14.6873 17.7962 14.9477V17.2624C17.7962 17.5228 17.9081 17.707 18.1703 17.707C18.4367 17.707 18.5264 17.541 18.5264 17.2866V16.4928H19.1971V17.2364C19.1971 17.8534 18.9386 18.3102 18.1583 18.3102C17.3858 18.3102 17.0625 17.8155 17.0625 17.148Z" fill="white"/>
<path fill-rule="evenodd" clip-rule="evenodd" d="M19.5078 15.0621V17.1484C19.5078 17.8136 19.8436 18.3106 20.6179 18.3106C21.3968 18.3106 21.7318 17.8136 21.7318 17.1484V15.0621C21.7318 14.3891 21.3968 13.8999 20.6179 13.8999C19.8436 13.8999 19.5078 14.3891 19.5078 15.0621ZM20.999 14.9481V17.2624C20.999 17.5232 20.8829 17.7074 20.6188 17.7074C20.3606 17.7074 20.2427 17.5232 20.2427 17.2624V14.9481C20.2427 14.6873 20.3606 14.5053 20.6188 14.5053C20.8829 14.5053 20.999 14.6873 20.999 14.9481Z" fill="white"/>
<path d="M22.6827 15.5524V18.2597H22.0625V13.9512H22.7864L23.5795 16.4241V13.9512H24.1911V18.2597H23.5468L22.6827 15.5524Z" fill="white"/>
<path d="M24.4766 17.3318V16.7527H25.1593V17.3437C25.1593 17.5862 25.2694 17.7266 25.5215 17.7266C25.7536 17.7266 25.8568 17.5743 25.8568 17.3437V17.1795C25.8568 16.931 25.7536 16.7787 25.5275 16.5703L25.0968 16.1436C24.6778 15.7369 24.483 15.4902 24.483 14.9933V14.8469C24.483 14.3139 24.7999 13.9009 25.5154 13.9009C26.2491 13.9009 26.54 14.2556 26.54 14.8789V15.2276H25.8693V14.8529C25.8693 14.6066 25.7536 14.484 25.5215 14.484C25.3165 14.484 25.174 14.5984 25.174 14.841V14.929C25.174 15.1715 25.3082 15.3119 25.5215 15.514L25.9929 15.9709C26.3915 16.372 26.5848 16.6142 26.5848 17.0892V17.2998C26.5848 17.8908 26.2615 18.3097 25.5154 18.3097C24.7671 18.3097 24.4766 17.8967 24.4766 17.3318Z" fill="white"/>
<path d="M29.0175 13.9502V17.2106C29.0175 17.8781 28.7269 18.3108 27.9786 18.3108C27.2061 18.3108 26.8828 17.8781 26.8828 17.2106V13.9502H27.6187V17.2808C27.6187 17.5352 27.7208 17.7076 27.9786 17.7076C28.2371 17.7076 28.3407 17.5352 28.3407 17.2808V13.9502H29.0175Z" fill="white"/>
<path d="M31.3684 15.463H31.3499L30.854 18.2606H30.5107L29.9636 15.463H29.9493V18.2606H29.3438V13.9502H30.2014L30.6792 16.3786H30.6856L31.1102 13.9502H32.0391V18.2606H31.3684V15.463Z" fill="white"/>
<path fill-rule="evenodd" clip-rule="evenodd" d="M33.4569 13.9517H32.3672V18.2599H33.1035V16.7972H33.4569C34.1989 16.7972 34.4694 16.4306 34.4694 15.827V14.9174C34.4694 14.3142 34.1989 13.9517 33.4569 13.9517ZM33.1016 16.24V14.5426H33.3717C33.6238 14.5426 33.7339 14.657 33.7339 14.8914V15.8831C33.7339 16.1197 33.6238 16.24 33.3717 16.24H33.1016Z" fill="white"/>
<path d="M34.6484 13.9502H36.6026V14.5415H35.9963V18.2588H35.2544V14.5415H34.6484V13.9502Z" fill="white"/>
<path d="M36.8466 18.2593H37.5825V13.9507H36.8466V18.2593Z" fill="white"/>
<path fill-rule="evenodd" clip-rule="evenodd" d="M37.9219 15.0621V17.1484C37.9219 17.8136 38.2572 18.3106 39.0316 18.3106C39.8105 18.3106 40.1458 17.8136 40.1458 17.1484V15.0621C40.1458 14.3891 39.8105 13.8999 39.0316 13.8999C38.2572 13.8999 37.9219 14.3891 37.9219 15.0621ZM39.4121 14.9481V17.2624C39.4121 17.5232 39.296 17.7074 39.0315 17.7074C38.7738 17.7074 38.6577 17.5232 38.6577 17.2624V14.9481C38.6577 14.6873 38.7738 14.5053 39.0315 14.5053C39.296 14.5053 39.4121 14.6873 39.4121 14.9481Z" fill="white"/>
<path d="M41.0871 15.5524V18.2597H40.4688V13.9512H41.1903L41.9835 16.4241V13.9512H42.5955V18.2597H41.9511L41.0871 15.5524Z" fill="white"/>
<path fill-rule="evenodd" clip-rule="evenodd" d="M17.7783 19.9863L16.9531 24.2968H17.6502L17.7783 23.509H18.5591L18.6955 24.2968H19.4499L18.6183 19.9863H17.7783ZM18.4692 22.9299H17.8818L18.1723 21.2005H18.1783L18.4692 22.9299Z" fill="white"/>
<path d="M20.2742 21.5885V24.2959H19.6562V19.9873H20.3778L21.1707 22.4603V19.9873H21.7826V24.2959H21.1383L20.2742 21.5885Z" fill="white"/>
<path fill-rule="evenodd" clip-rule="evenodd" d="M24.3166 23.1396V21.1436C24.3166 20.4761 24.0401 19.9873 23.251 19.9873H22.1172V24.2955H23.251C24.0401 24.2955 24.3166 23.8008 24.3166 23.1396ZM23.5871 23.2655C23.5871 23.5263 23.4696 23.7046 23.1666 23.7046H22.8576V20.5782H23.1666C23.4696 20.5782 23.5871 20.7547 23.5871 21.0095V23.2655Z" fill="white"/>
<path fill-rule="evenodd" clip-rule="evenodd" d="M26.3215 19.9873H25.2344V24.2959H25.968V22.8328H26.3215C27.0638 22.8328 27.3343 22.4662 27.3343 21.863V20.9534C27.3343 20.3502 27.0638 19.9873 26.3215 19.9873ZM25.9688 22.276V20.5786H26.2393C26.4914 20.5786 26.601 20.693 26.601 20.927V21.9191C26.601 22.1557 26.4914 22.276 26.2393 22.276H25.9688Z" fill="white"/>
<path fill-rule="evenodd" clip-rule="evenodd" d="M28.3512 24.2959V22.3199L29.0423 24.2959H29.8151L29.1116 22.3381C29.5325 22.2437 29.6991 21.9692 29.6991 21.5064V20.9534C29.6991 20.3502 29.4285 19.9873 28.6866 19.9873H27.6172V24.2959H28.3512ZM28.3493 21.9191V20.5786H28.595C28.8471 20.5786 28.9549 20.693 28.9549 20.927V21.5625C28.9549 21.791 28.8471 21.9191 28.595 21.9191H28.3493Z" fill="white"/>
<path fill-rule="evenodd" clip-rule="evenodd" d="M30.0078 21.0996V23.1833C30.0078 23.8508 30.3432 24.3459 31.1156 24.3459C31.896 24.3459 32.2318 23.8508 32.2318 23.1833V21.0996C32.2318 20.4262 31.896 19.937 31.1156 19.937C30.3432 19.937 30.0078 20.4262 30.0078 21.0996ZM31.498 20.9852V23.2977C31.498 23.5581 31.382 23.7427 31.1178 23.7427C30.8597 23.7427 30.7436 23.5581 30.7436 23.2977V20.9852C30.7436 20.7245 30.8597 20.5402 31.1178 20.5402C31.382 20.5402 31.498 20.7245 31.498 20.9852Z" fill="white"/>
<path fill-rule="evenodd" clip-rule="evenodd" d="M34.7619 23.1396V21.1436C34.7619 20.4761 34.4854 19.9873 33.6967 19.9873H32.5625V24.2955H33.6967C34.4854 24.2955 34.7619 23.8008 34.7619 23.1396ZM34.0237 23.2655C34.0237 23.5263 33.908 23.7046 33.6051 23.7046H33.2961V20.5782H33.6051C33.908 20.5782 34.0237 20.7547 34.0237 21.0095V23.2655Z" fill="white"/>
<path d="M37.2206 19.9863V23.2467C37.2206 23.9142 36.9301 24.3469 36.1817 24.3469C35.4092 24.3469 35.0859 23.9142 35.0859 23.2467V19.9863H35.8219V23.3169C35.8219 23.5714 35.9255 23.7437 36.1817 23.7437C36.4402 23.7437 36.5438 23.5714 36.5438 23.3169V19.9863H37.2206Z" fill="white"/>
<path d="M37.5547 23.1845V21.0982C37.5547 20.4271 37.8761 19.936 38.6501 19.936C39.4617 19.936 39.6871 20.381 39.6871 21.0161V21.5254H39.0186V20.9601C39.0186 20.6934 38.927 20.5415 38.6625 20.5415C38.4003 20.5415 38.2883 20.7238 38.2883 20.9842V23.2986C38.2883 23.5593 38.4003 23.7435 38.6625 23.7435C38.927 23.7435 39.0186 23.5771 39.0186 23.3246V22.529H39.6871V23.2726C39.6871 23.8899 39.4308 24.3467 38.6501 24.3467C37.8761 24.3467 37.5547 23.8516 37.5547 23.1845Z" fill="white"/>
<path d="M39.8516 19.9863H41.8053V20.5773H41.1994V24.2949H40.4571V20.5773H39.8516V19.9863Z" fill="white"/>
<path d="M42.0507 24.2949H42.7847V19.9863H42.0507V24.2949Z" fill="white"/>
<path fill-rule="evenodd" clip-rule="evenodd" d="M43.1172 21.0996V23.1833C43.1172 23.8508 43.4529 24.3459 44.2273 24.3459C45.0061 24.3459 45.3411 23.8508 45.3411 23.1833V21.0996C45.3411 20.4262 45.0061 19.937 44.2273 19.937C43.4529 19.937 43.1172 20.4262 43.1172 21.0996ZM44.6083 20.9852V23.2977C44.6083 23.5581 44.4923 23.7427 44.2281 23.7427C43.97 23.7427 43.8521 23.5581 43.8521 23.2977V20.9852C43.8521 20.7245 43.97 20.5402 44.2281 20.5402C44.4923 20.5402 44.6083 20.7245 44.6083 20.9852Z" fill="white"/>
<path d="M46.2977 21.5885V24.2959H45.6797V19.9873H46.4013L47.1945 22.4603V19.9873H47.806V24.2959H47.1617L46.2977 21.5885Z" fill="white"/>
</svg>
