<svg width="30" height="30" viewBox="0 0 30 30" fill="none" xmlns="http://www.w3.org/2000/svg">
<path fill-rule="evenodd" clip-rule="evenodd" d="M1 4.52121C1 3.12602 2.16307 2 3.58929 2H20.6046C22.0308 2 23.1939 3.12602 23.1939 4.52121V7.51515H27.4107C28.8369 7.51515 30 8.64117 30 10.0364V23.8242C30 24.9328 29.5471 25.9953 28.742 26.7782C27.9371 27.5609 26.846 28 25.7092 28H5.29082C4.15395 28 3.06295 27.5609 2.258 26.7782C1.45292 25.9953 1 24.9328 1 23.8242V4.52121ZM22.2289 26.2667H5.29082C4.62258 26.2667 3.98243 26.0085 3.51098 25.5501C3.03966 25.0918 2.77551 24.4709 2.77551 23.8242V4.52121C2.77551 4.08978 3.13702 3.73333 3.58929 3.73333H20.6046C21.0569 3.73333 21.4184 4.08978 21.4184 4.52121V23.8242C21.4184 24.7069 21.7055 25.5603 22.2289 26.2667ZM23.1939 9.24849V23.8242C23.1939 24.4709 23.458 25.0918 23.9293 25.5501C24.4008 26.0085 25.041 26.2667 25.7092 26.2667C26.3774 26.2667 27.0176 26.0085 27.489 25.5501C27.9603 25.0918 28.2245 24.4709 28.2245 23.8242V10.0364C28.2245 9.60493 27.863 9.24849 27.4107 9.24849H23.1939ZM5.53742 8.38182C5.53742 7.90317 5.93488 7.51515 6.42517 7.51515H10.9626C11.4529 7.51515 11.8503 7.90317 11.8503 8.38182V12.7939C11.8503 13.2726 11.4529 13.6606 10.9626 13.6606H6.42517C5.93488 13.6606 5.53742 13.2726 5.53742 12.7939V8.38182ZM7.31293 9.24849V11.9273H10.0748V9.24849H7.31293ZM14.6122 8.38182C14.6122 7.90317 15.0097 7.51515 15.5 7.51515H17.7687C18.259 7.51515 18.6565 7.90317 18.6565 8.38182C18.6565 8.86047 18.259 9.24849 17.7687 9.24849H15.5C15.0097 9.24849 14.6122 8.86047 14.6122 8.38182ZM14.6122 12.7939C14.6122 12.3153 15.0097 11.9273 15.5 11.9273H17.7687C18.259 11.9273 18.6565 12.3153 18.6565 12.7939C18.6565 13.2726 18.259 13.6606 17.7687 13.6606H15.5C15.0097 13.6606 14.6122 13.2726 14.6122 12.7939ZM5.53742 17.2061C5.53742 16.7274 5.93488 16.3394 6.42517 16.3394H17.7687C18.259 16.3394 18.6565 16.7274 18.6565 17.2061C18.6565 17.6847 18.259 18.0727 17.7687 18.0727H6.42517C5.93488 18.0727 5.53742 17.6847 5.53742 17.2061ZM5.53742 21.6182C5.53742 21.1395 5.93488 20.7515 6.42517 20.7515H17.7687C18.259 20.7515 18.6565 21.1395 18.6565 21.6182C18.6565 22.0968 18.259 22.4848 17.7687 22.4848H6.42517C5.93488 22.4848 5.53742 22.0968 5.53742 21.6182Z" fill="white"/>
</svg>
