<svg width="30" height="30" viewBox="0 0 30 30" fill="none" xmlns="http://www.w3.org/2000/svg">
<path d="M13.75 12.375C13.75 12.1429 13.8422 11.9204 14.0063 11.7563C14.1704 11.5922 14.3929 11.5 14.625 11.5H20.75C20.9821 11.5 21.2046 11.5922 21.3687 11.7563C21.5328 11.9204 21.625 12.1429 21.625 12.375C21.625 12.6071 21.5328 12.8296 21.3687 12.9937C21.2046 13.1578 20.9821 13.25 20.75 13.25H14.625C14.3929 13.25 14.1704 13.1578 14.0063 12.9937C13.8422 12.8296 13.75 12.6071 13.75 12.375ZM13.75 17.625C13.75 17.3929 13.8422 17.1704 14.0063 17.0063C14.1704 16.8422 14.3929 16.75 14.625 16.75H20.75C20.9821 16.75 21.2046 16.8422 21.3687 17.0063C21.5328 17.1704 21.625 17.3929 21.625 17.625C21.625 17.8571 21.5328 18.0796 21.3687 18.2437C21.2046 18.4078 20.9821 18.5 20.75 18.5H14.625C14.3929 18.5 14.1704 18.4078 14.0063 18.2437C13.8422 18.0796 13.75 17.8571 13.75 17.625ZM13.75 22.875C13.75 22.6429 13.8422 22.4204 14.0063 22.2563C14.1704 22.0922 14.3929 22 14.625 22H20.75C20.9821 22 21.2046 22.0922 21.3687 22.2563C21.5328 22.4204 21.625 22.6429 21.625 22.875C21.625 23.1071 21.5328 23.3296 21.3687 23.4937C21.2046 23.6578 20.9821 23.75 20.75 23.75H14.625C14.3929 23.75 14.1704 23.6578 14.0063 23.4937C13.8422 23.3296 13.75 23.1071 13.75 22.875ZM12 12.375C12 12.7231 11.8617 13.0569 11.6156 13.3031C11.3694 13.5492 11.0356 13.6875 10.6875 13.6875C10.3394 13.6875 10.0056 13.5492 9.75942 13.3031C9.51328 13.0569 9.375 12.7231 9.375 12.375C9.375 12.0269 9.51328 11.6931 9.75942 11.4469C10.0056 11.2008 10.3394 11.0625 10.6875 11.0625C11.0356 11.0625 11.3694 11.2008 11.6156 11.4469C11.8617 11.6931 12 12.0269 12 12.375ZM12 17.625C12 17.9731 11.8617 18.3069 11.6156 18.5531C11.3694 18.7992 11.0356 18.9375 10.6875 18.9375C10.3394 18.9375 10.0056 18.7992 9.75942 18.5531C9.51328 18.3069 9.375 17.9731 9.375 17.625C9.375 17.2769 9.51328 16.9431 9.75942 16.6969C10.0056 16.4508 10.3394 16.3125 10.6875 16.3125C11.0356 16.3125 11.3694 16.4508 11.6156 16.6969C11.8617 16.9431 12 17.2769 12 17.625ZM10.6875 24.1875C11.0356 24.1875 11.3694 24.0492 11.6156 23.8031C11.8617 23.5569 12 23.2231 12 22.875C12 22.5269 11.8617 22.1931 11.6156 21.9469C11.3694 21.7008 11.0356 21.5625 10.6875 21.5625C10.3394 21.5625 10.0056 21.7008 9.75942 21.9469C9.51328 22.1931 9.375 22.5269 9.375 22.875C9.375 23.2231 9.51328 23.5569 9.75942 23.8031C10.0056 24.0492 10.3394 24.1875 10.6875 24.1875ZM10.3988 2.75C10.5798 2.23799 10.9151 1.79473 11.3586 1.4813C11.8021 1.16787 12.3319 0.999716 12.875 1H18.125C18.6681 0.999716 19.1979 1.16787 19.6414 1.4813C20.0849 1.79473 20.4202 2.23799 20.6012 2.75H23.375C24.0712 2.75 24.7389 3.02656 25.2312 3.51885C25.7234 4.01113 26 4.67881 26 5.375V26.375C26 27.0712 25.7234 27.7389 25.2312 28.2312C24.7389 28.7234 24.0712 29 23.375 29H7.625C6.92881 29 6.26113 28.7234 5.76884 28.2312C5.27656 27.7389 5 27.0712 5 26.375V5.375C5 4.67881 5.27656 4.01113 5.76884 3.51885C6.26113 3.02656 6.92881 2.75 7.625 2.75H10.3988ZM12.875 2.75C12.6429 2.75 12.4204 2.84219 12.2563 3.00628C12.0922 3.17038 12 3.39294 12 3.625C12 3.85706 12.0922 4.07962 12.2563 4.24372C12.4204 4.40781 12.6429 4.5 12.875 4.5H18.125C18.3571 4.5 18.5796 4.40781 18.7437 4.24372C18.9078 4.07962 19 3.85706 19 3.625C19 3.39294 18.9078 3.17038 18.7437 3.00628C18.5796 2.84219 18.3571 2.75 18.125 2.75H12.875ZM10.3988 4.5H7.625C7.39294 4.5 7.17038 4.59219 7.00628 4.75628C6.84219 4.92038 6.75 5.14294 6.75 5.375V26.375C6.75 26.6071 6.84219 26.8296 7.00628 26.9937C7.17038 27.1578 7.39294 27.25 7.625 27.25H23.375C23.6071 27.25 23.8296 27.1578 23.9937 26.9937C24.1578 26.8296 24.25 26.6071 24.25 26.375V5.375C24.25 5.14294 24.1578 4.92038 23.9937 4.75628C23.8296 4.59219 23.6071 4.5 23.375 4.5H20.6012C20.4202 5.01201 20.0849 5.45528 19.6414 5.7687C19.1979 6.08213 18.6681 6.25029 18.125 6.25H12.875C12.3319 6.25029 11.8021 6.08213 11.3586 5.7687C10.9151 5.45528 10.5798 5.01201 10.3988 4.5Z" fill="white"/>
</svg>
