<svg xmlns="http://www.w3.org/2000/svg" width="53" height="56" viewBox="0 0 53 56">
    <g fill="none" fill-rule="evenodd">
        <g fill-rule="nonzero">
            <g>
                <g>
                    <g>
                        <g>
                            <g>
                                <path fill="#8CC062" d="M4.512 19.429C2.787 20.616 1.317 22.25.459 23.99v.001C.168 24.48 0 25.15 0 25.968v7.86l2.745 1.586c2.79 1.61 6.116 2.015 9.21 1.12 2.658-.769 4.899-2.565 6.227-4.992v-7.86c0-1.97-.967-4.194-2.302-5.533-6.646-1.849-11.368 1.28-11.368 1.28z" transform="translate(-1105 -1232) translate(400 1142) translate(238 90) translate(456) translate(11) matrix(-1 0 0 1 36 0)"/>
                                <path fill="#FFAD91" d="M17.587.153c-.354-.204-.79-.204-1.143 0L13.628 1.78C13.538 1.746 6.1-.94 2.507 5.769c-3.372 6.295 2.005 12.16 2.005 12.16v2.226l.635.192c1.408.425 2.851.721 4.31.886 1.046.49 2.32.51 3.463-.15 2.534-1.463 4.095-4.167 4.095-7.094V6.54c1.227-.733 1.978-2.057 1.978-3.486v-.464c0-1.005-.536-1.934-1.406-2.436z" transform="translate(-1105 -1232) translate(400 1142) translate(238 90) translate(456) translate(11) matrix(-1 0 0 1 36 0)"/>
                                <path fill="#FFAD91" d="M4.467 17.878c-.096-.11-.344-.402-.658-.846.2.295.42.578.658.846zM6.93 11.782c-.73-.121-1.386.465-1.386 1.204v1.105c-.517-.298-1.162.074-1.162.67 0 .695.37 1.337.972 1.684l.19.11-1.032 1.373c.572.634 1.246 1.185 2.006 1.624l2.436 1.397c1.12.75 2.632.904 3.966.134 2.534-1.463 4.095-4.167 4.095-7.094V6.54l-8.623 4.979c-.449.259-.967.347-1.462.264z" transform="translate(-1105 -1232) translate(400 1142) translate(238 90) translate(456) translate(11) matrix(-1 0 0 1 36 0)"/>
                                <path fill="#D6D6D6" d="M13.493 26.858c-.194-2.061-.17-4.134.067-6.186-.206.146-.42.284-.64.411-1.142.66-2.413.64-3.459.15-1.46-.164-2.905-.46-4.314-.886l-.635-.192c3.823 2.345 6.85 5.788 8.686 9.879l.75 1.67-.455-4.846z" transform="translate(-1105 -1232) translate(400 1142) translate(238 90) translate(456) translate(11) matrix(-1 0 0 1 36 0)"/>
                                <path fill="#FFF" d="M9.461 21.233c-1.46-.164-2.904-.46-4.314-.887l-.635-.192 5.867 3.6 1.11-2.191c-.706.085-1.407-.039-2.028-.33z" transform="translate(-1105 -1232) translate(400 1142) translate(238 90) translate(456) translate(11) matrix(-1 0 0 1 36 0)"/>
                                <path fill="#E69C83" d="M9.461 21.233L6.52 19.552c-.761-.44-1.435-.99-2.007-1.624v2.226l.635.192c1.41.427 2.854.723 4.314.887z" transform="translate(-1105 -1232) translate(400 1142) translate(238 90) translate(456) translate(11) matrix(-1 0 0 1 36 0)"/>
                                <path fill="#094784" d="M11.489 21.563l-.868 1.714.409.34 1.078-.622.451-.887-.792-.59c-.093.019-.186.033-.278.045z" transform="translate(-1105 -1232) translate(400 1142) translate(238 90) translate(456) translate(11) matrix(-1 0 0 1 36 0)"/>
                                <path fill="#FFF" d="M12.92 21.083c-.375.216-.763.357-1.153.435l1.317.98.35-1.739c-.167.114-.338.222-.514.324z" transform="translate(-1105 -1232) translate(400 1142) translate(238 90) translate(456) translate(11) matrix(-1 0 0 1 36 0)"/>
                                <path fill="#62923B" d="M2.804 25.182l-.304-.175c-1.126-.65-2.039.04-2.039 1.541v7.539l2.535 1.463c.596.325 1.213.598 1.847.814v-7.286c0-1.502-.913-3.246-2.039-3.896z" transform="translate(-1105 -1232) translate(400 1142) translate(238 90) translate(456) translate(11) matrix(-1 0 0 1 36 0)"/>
                                <path fill="#0D68BE" d="M13.493 26.858c-.044-.47-.073-.94-.095-1.41l-1.29-2.453-1.078.623.127 2.81c.787 1.13 1.472 2.337 2.041 3.606l.728 1.62.021.036-.454-4.832z" transform="translate(-1105 -1232) translate(400 1142) translate(238 90) translate(456) translate(11) matrix(-1 0 0 1 36 0)"/>
                                <path fill="#FFD800" d="M17.587.153c-.354-.204-.79-.204-1.143 0L13.628 1.78C13.538 1.746 6.1-.94 2.507 5.769c-3.372 6.295 2.005 12.16 2.005 12.16l1.032-1.375-.19-.11c-.602-.346-.972-.988-.972-1.682 0-.597.645-.97 1.162-.67v-1.106c0-.74.656-1.325 1.386-1.204.495.083 1.013-.005 1.462-.264l8.623-4.98c1.227-.732 1.978-2.056 1.978-3.485v-.464c0-1.005-.536-1.934-1.406-2.436z" transform="translate(-1105 -1232) translate(400 1142) translate(238 90) translate(456) translate(11) matrix(-1 0 0 1 36 0)"/>
                            </g>
                            <g>
                                <path fill="#D6D6D6" d="M16.467 17.494C9.941 16.187 4.705 18.82 4.705 18.82c-1.785 1.229-3.306 2.92-4.194 4.72-.301.507-.475 1.199-.475 2.046v8.134l2.84 1.64c2.887 1.666 6.329 2.085 9.53 1.158 2.75-.795 5.068-2.654 6.443-5.164v-8.134c0-2.037-1-4.339-2.382-5.725z" transform="translate(-1105 -1232) translate(400 1142) translate(238 90) translate(456) translate(11) matrix(-1 0 0 1 22 19)"/>
                                <path fill="#67463A" d="M17.639 5.339c.001.033.003.067.003.101-.014-2.303-1.581-4.326-3.79-4.978C10.21-.612 5.12-.058 2.63 4.745c-3.4 6.56 2.075 12.522 2.075 12.522v2.303l.657.199c1.457.44 2.95.747 4.46.917 1.082.508 2.4.528 3.582-.155 2.623-1.514 4.238-4.312 4.238-7.34V5.348l-.003-.01z" transform="translate(-1105 -1232) translate(400 1142) translate(238 90) translate(456) translate(11) matrix(-1 0 0 1 22 19)"/>
                                <path fill="#FFF" d="M13.404 20.53c-.387.225-.79.37-1.193.45l1.363 1.016.363-1.8c-.173.117-.35.23-.533.335z" transform="translate(-1105 -1232) translate(400 1142) translate(238 90) translate(456) translate(11) matrix(-1 0 0 1 22 19)"/>
                                <path fill="#EF8A44" d="M4.705 18.822C2.92 20.05 1.398 21.74.51 23.539c-.301.507-.475 1.199-.475 2.046v8.134l2.84 1.64c1.967 1.135 4.19 1.69 6.42 1.636v-10.84c0-2.34-1.216-4.514-3.212-5.739l-1.38-.846v-.748z" transform="translate(-1105 -1232) translate(400 1142) translate(238 90) translate(456) translate(11) matrix(-1 0 0 1 22 19)"/>
                                <path fill="#BB540C" d="M2.937 24.772l-.314-.181c-1.165-.673-2.11.041-2.11 1.595v7.8L3.136 35.5c.616.336 1.255.618 1.911.842v-7.54c0-1.552-.944-3.357-2.11-4.03z" transform="translate(-1105 -1232) translate(400 1142) translate(238 90) translate(456) translate(11) matrix(-1 0 0 1 22 19)"/>
                                <path fill="#4D352C" d="M17.642 5.44c-.014-2.303-1.581-4.326-3.79-4.978C10.21-.612 5.12-.058 2.63 4.745c-3.4 6.56 2.075 12.522 2.075 12.522l1.067-1.422-.197-.113c-.622-.36-1.005-1.023-1.005-1.742 0-.613.66-.997 1.192-.699v2.122c.81.469 1.823-.116 1.823-1.052v-3.9c2.961-1.457 10.057-4.979 10.057-4.979V5.44z" transform="translate(-1105 -1232) translate(400 1142) translate(238 90) translate(456) translate(11) matrix(-1 0 0 1 22 19)"/>
                                <path fill="#805749" d="M17.639 5.339c.001.033.003.067.003.101v.042s-7.096 3.522-10.057 4.98v3.899c0 .936-1.012 1.52-1.823 1.052v-2.122c-.532-.298-1.192.086-1.192.7 0 .717.383 1.381 1.005 1.74l.197.114-1.067 1.421c.592.656 1.289 1.226 2.076 1.68l2.52 1.446c1.159.776 2.723.936 4.103.139 2.623-1.514 4.238-4.312 4.238-7.34V5.348l-.003-.01z" transform="translate(-1105 -1232) translate(400 1142) translate(238 90) translate(456) translate(11) matrix(-1 0 0 1 22 19)"/>
                                <path fill="#EF8A44" d="M16.467 17.494c-.636 1.08-1.511 2.02-2.579 2.735 1.083 1.482 1.666 3.269 1.666 5.104v9.682c1.354-.942 2.488-2.188 3.295-3.662v-8.134c0-2.037-1-4.339-2.382-5.725z" transform="translate(-1105 -1232) translate(400 1142) translate(238 90) translate(456) translate(11) matrix(-1 0 0 1 22 19)"/>
                                <path fill="#E84C3D" d="M11.917 21.028l-.891 1.773.425.352 1.115-.644.474-.911-.827-.618c-.099.02-.197.036-.296.048z" transform="translate(-1105 -1232) translate(400 1142) translate(238 90) translate(456) translate(11) matrix(-1 0 0 1 22 19)"/>
                                <path fill="#FFF" d="M9.826 20.686c-1.511-.17-3.006-.476-4.464-.917l-.657-.199 6.07 3.724 1.149-2.267c-.731.088-1.456-.04-2.098-.34z" transform="translate(-1105 -1232) translate(400 1142) translate(238 90) translate(456) translate(11) matrix(-1 0 0 1 22 19)"/>
                                <path fill="#67463A" d="M9.826 20.686l.03.014c-.193-.088-.38-.19-.556-.308l-2.52-1.445c-.786-.455-1.483-1.025-2.075-1.68v2.303l.657.199c1.458.44 2.953.747 4.464.917z" transform="translate(-1105 -1232) translate(400 1142) translate(238 90) translate(456) translate(11) matrix(-1 0 0 1 22 19)"/>
                                <path fill="#AC392D" d="M11.45 23.153L12.008 32.547 13.888 34.272 15.145 31.127 12.566 22.509z" transform="translate(-1105 -1232) translate(400 1142) translate(238 90) translate(456) translate(11) matrix(-1 0 0 1 22 19)"/>
                            </g>
                            <g>
                                <path fill="#D6D6D6" d="M16.98 16.96c-.589-.17-13.028-1.651-13.327-1.688L2.08 17.586C.498 19.913-.187 22.706.1 25.456v8.173l2.918 1.685c2.966 1.712 6.501 2.142 9.791 1.19 2.825-.817 5.207-2.727 6.619-5.306v-8.356c0-2.093-1.028-4.458-2.447-5.881z" transform="translate(-1105 -1232) translate(400 1142) translate(238 90) translate(456) translate(11) matrix(-1 0 0 1 50.44 19)"/>
                                <path fill="#35251F" d="M.1 25.273c0-.87.178-1.582.488-2.102.912-1.85 2.475-3.587 4.308-4.85v-1.594c0-.001-.576-.525-1.243-1.455L2.08 17.586C.498 19.913-.187 22.706.1 25.456v-.183z" transform="translate(-1105 -1232) translate(400 1142) translate(238 90) translate(456) translate(11) matrix(-1 0 0 1 50.44 19)"/>
                                <path fill="#4D352C" d="M16.623 4.608v12.45c0 .79.597 1.52 1.565 1.914V4.273l-1.565.335z" transform="translate(-1105 -1232) translate(400 1142) translate(238 90) translate(456) translate(11) matrix(-1 0 0 1 50.44 19)"/>
                                <path fill="#4D352C" d="M19.158 5.196C18.674 3.04 17.063 1.312 14.945.68l-1.039-.31C10.2-.586 5.236.108 2.765 4.873c-3.493 6.738 2.127 11.85 2.131 11.853v2.366s.956.287 1.097.326v1.974c0 .764.623 1.47 1.633 1.852v-3.42c.835.18 1.678.318 2.527.414 1.112.522 2.466.543 3.681-.159 2.694-1.555 4.354-4.43 4.354-7.54V7.187l.186-.104c.628-.384.945-1.169.784-1.888z" transform="translate(-1105 -1232) translate(400 1142) translate(238 90) translate(456) translate(11) matrix(-1 0 0 1 50.44 19)"/>
                                <path fill="#E69C83" d="M10.162 20.24c-.19-.087-.371-.187-.544-.302l-2.589-1.486c-.809-.467-1.525-1.052-2.133-1.726v2.367l.675.204c1.5.454 3.037.769 4.59.944zM4.91 19.107z" transform="translate(-1105 -1232) translate(400 1142) translate(238 90) translate(456) translate(11) matrix(-1 0 0 1 50.44 19)"/>
                                <path fill="#A7A7A7" d="M3.08 24.438l-.322-.187C1.56 23.56.59 24.294.59 25.889v8.014l2.695 1.556c.633.345 1.289.635 1.963.865v-7.745c0-1.596-.97-3.45-2.167-4.141z" transform="translate(-1105 -1232) translate(400 1142) translate(238 90) translate(456) translate(11) matrix(-1 0 0 1 50.44 19)"/>
                                <path fill="#FFAD91" d="M5.993 15.266l-1.096 1.46c.333.37.7.713 1.096 1.025v-2.485zM4.758 13.36c0 .739.394 1.42 1.033 1.79l.202.116v-2.619c-.549-.316-1.235.08-1.235.713zM17.545 7.549l-9.919 4.378v6.868l1.992 1.143c1.191.797 2.798.96 4.216.142 2.694-1.555 4.354-4.43 4.354-7.54V7.187l-.643.36z" transform="translate(-1105 -1232) translate(400 1142) translate(238 90) translate(456) translate(11) matrix(-1 0 0 1 50.44 19)"/>
                                <path fill="#E84C3D" d="M12.306 20.59l-.911 1.813.43.371 1.146-.662.48-.942-.84-.628c-.102.02-.204.036-.305.049z" transform="translate(-1105 -1232) translate(400 1142) translate(238 90) translate(456) translate(11) matrix(-1 0 0 1 50.44 19)"/>
                                <path fill="#FFF" d="M13.834 20.08c-.398.23-.81.38-1.225.462l1.4 1.043.372-1.85c-.178.122-.36.237-.547.345zM10.158 20.24c-1.553-.175-3.088-.49-4.587-.943l-.675-.204 6.237 3.826 1.18-2.33c-.751.091-1.495-.04-2.155-.349z" transform="translate(-1105 -1232) translate(400 1142) translate(238 90) translate(456) translate(11) matrix(-1 0 0 1 50.44 19)"/>
                                <path fill="#4D352C" d="M19.158 5.196C18.674 3.04 17.063 1.312 14.945.68l-1.039-.31C10.2-.586 5.236.108 2.765 4.873c-3.494 6.74 2.131 11.853 2.131 11.853l1.097-1.46-.202-.117c-.64-.37-1.033-1.051-1.033-1.79 0-.633.686-1.03 1.235-.713v8.746c0 .764.623 1.47 1.633 1.852V11.927l9.92-4.378.828-.465c.628-.384.945-1.169.784-1.888z" transform="translate(-1105 -1232) translate(400 1142) translate(238 90) translate(456) translate(11) matrix(-1 0 0 1 50.44 19)"/>
                                <path fill="#AC392D" d="M11.824 22.774L12.397 32.424 14.328 34.197 15.62 30.966 12.97 22.112z" transform="translate(-1105 -1232) translate(400 1142) translate(238 90) translate(456) translate(11) matrix(-1 0 0 1 50.44 19)"/>
                                <path fill="#FFF" d="M15.955 23.902l2.444-1.41c.181-.105.408.026.408.235v2.607c0 .993-.53 1.911-1.39 2.408-.799.46-1.797-.116-1.797-1.038v-2.22c0-.24.127-.462.335-.582z" transform="translate(-1105 -1232) translate(400 1142) translate(238 90) translate(456) translate(11) matrix(-1 0 0 1 50.44 19)"/>
                            </g>
                        </g>
                    </g>
                </g>
            </g>
        </g>
    </g>
</svg>
