<?xml version="1.0" encoding="UTF-8"?>
<svg width="36px" height="36px" viewBox="0 0 36 36" version="1.1" xmlns="http://www.w3.org/2000/svg" xmlns:xlink="http://www.w3.org/1999/xlink">
    <!-- Generator: Sketch 63.1 (92452) - https://sketch.com -->
    <title>icon_fb</title>
    <desc>Created with Sketch.</desc>
    <g id="NANYA-HOME" stroke="none" stroke-width="1" fill="none" fill-rule="evenodd">
        <g id="Nanya首頁正式中文" transform="translate(-1767.000000, -17.000000)" fill="#898F9C">
            <g id="keyvisual" transform="translate(0.000000, -5.000000)">
                <g id="header">
                    <g id="icon_fb" transform="translate(1767.000000, 22.000000)">
                        <path d="M36,18.1100575 C36,8.10814157 27.9411328,-3.55271368e-15 18,-3.55271368e-15 C8.05886719,-3.55271368e-15 0,8.10814157 0,18.1100575 C0,27.1493107 6.58233984,34.6414981 15.1875,36 L15.1875,23.344996 L10.6171875,23.344996 L10.6171875,18.1100575 L15.1875,18.1100575 L15.1875,14.1201855 C15.1875,9.5813523 17.8747734,7.07424121 21.9863672,7.07424121 C23.9557148,7.07424121 26.015625,7.42795327 26.015625,7.42795327 L26.015625,11.8847252 L23.7458672,11.8847252 C21.5098242,11.8847252 20.8125,13.2807206 20.8125,14.7129008 L20.8125,18.1100575 L25.8046875,18.1100575 L25.0066406,23.344996 L20.8125,23.344996 L20.8125,36 C29.4176602,34.6414981 36,27.1493107 36,18.1100575"></path>
                    </g>
                </g>
            </g>
        </g>
    </g>
</svg>