<svg width="78" height="78" viewBox="0 0 78 78" fill="none" xmlns="http://www.w3.org/2000/svg">
<g clip-path="url(#clip0_1843_44499)">
<path fill-rule="evenodd" clip-rule="evenodd" d="M39 76C59.4345 76 76 59.4345 76 39C76 18.5655 59.4345 2 39 2C18.5655 2 2 18.5655 2 39C2 59.4345 18.5655 76 39 76ZM39 78C60.5391 78 78 60.5391 78 39C78 17.4609 60.5391 0 39 0C17.4609 0 0 17.4609 0 39C0 60.5391 17.4609 78 39 78Z" fill="#F6F6F6"/>
<path opacity="0.7" d="M73.6667 39.0002C73.6667 58.146 58.1459 73.6668 39 73.6668C19.8542 73.6668 4.33337 58.146 4.33337 39.0002C4.33337 19.8543 19.8542 4.3335 39 4.3335C58.1459 4.3335 73.6667 19.8543 73.6667 39.0002Z" fill="#E7E7E7"/>
<path d="M68 39C68 55.0163 55.0163 68 39 68C22.9837 68 10 55.0163 10 39C10 22.9837 22.9837 10 39 10C55.0163 10 68 22.9837 68 39Z" fill="white"/>
<path d="M57.6608 30.8021H56.2535C56.2535 25.7846 52.1845 21.7003 47.167 21.7003V20.293C52.9493 20.293 57.6608 25.0045 57.6608 30.8021Z" fill="url(#paint0_linear_1843_44499)"/>
<path fill-rule="evenodd" clip-rule="evenodd" d="M46.7394 34.93V32.0388L42.9916 30.7233C42.7774 29.9125 42.4868 29.1324 42.1044 28.4134L43.8023 24.9104L41.7525 22.8453L38.326 24.5127C37.607 24.0843 36.7963 23.7478 35.9702 23.5183L34.7617 20H31.8706L30.6468 23.5183C29.8361 23.7478 29.0559 24.069 28.3522 24.4668L25.0022 22.83L22.9523 24.8951L24.5891 28.2605C24.1761 28.9947 23.8702 29.7902 23.6407 30.6162L20 31.8706V34.777L23.7172 36.062C23.962 36.8421 24.2832 37.5917 24.6962 38.2801L22.9371 41.8749L24.9869 43.9247L28.75 42.1044C29.3465 42.4103 29.9737 42.6551 30.6315 42.8386L31.9777 46.7853H34.8841L36.2762 42.7621C36.8421 42.5786 37.3928 42.3338 37.9129 42.0738L41.7372 43.94L43.787 41.8902L41.982 38.1577C42.3185 37.5611 42.5939 36.9339 42.808 36.2762L46.7241 34.9147L46.7394 34.93ZM33.3697 36.3067L30.4785 33.4156L33.3697 30.5091L36.2609 33.4156L33.3697 36.3067Z" fill="url(#paint1_linear_1843_44499)"/>
<path d="M37.2246 47.5368C37.2246 40.3165 47.2136 30.4805 47.2136 30.4805C47.2136 30.4805 57.2027 40.3165 57.2027 47.5368C57.2027 53.059 52.7359 57.5411 47.2136 57.5411C41.6914 57.5411 37.2246 53.059 37.2246 47.5368Z" fill="url(#paint2_linear_1843_44499)"/>
<path d="M44.4297 42.7152L42.334 40.6195L44.4297 38.5391L46.5101 40.6195L44.4297 42.7152Z" fill="url(#paint3_linear_1843_44499)"/>
</g>
<defs>
<linearGradient id="paint0_linear_1843_44499" x1="52.4139" y1="20.293" x2="52.4139" y2="30.8021" gradientUnits="userSpaceOnUse">
<stop stop-color="#C2C559"/>
<stop offset="1" stop-color="#88A221"/>
</linearGradient>
<linearGradient id="paint1_linear_1843_44499" x1="33.3697" y1="20" x2="33.3697" y2="46.7853" gradientUnits="userSpaceOnUse">
<stop stop-color="#C2C559"/>
<stop offset="1" stop-color="#88A221"/>
</linearGradient>
<linearGradient id="paint2_linear_1843_44499" x1="47.2136" y1="30.4805" x2="47.2136" y2="57.5411" gradientUnits="userSpaceOnUse">
<stop stop-color="#F3F3DE"/>
<stop offset="0.851665" stop-color="#C9CD4D"/>
</linearGradient>
<linearGradient id="paint3_linear_1843_44499" x1="44.422" y1="38.5391" x2="44.422" y2="42.7152" gradientUnits="userSpaceOnUse">
<stop stop-color="#C2C559"/>
<stop offset="1" stop-color="#88A221"/>
</linearGradient>
<clipPath id="clip0_1843_44499">
<rect width="78" height="78" fill="white"/>
</clipPath>
</defs>
</svg>
