<svg width="22" height="22" viewBox="0 0 22 22" fill="none" xmlns="http://www.w3.org/2000/svg">
<path fill-rule="evenodd" clip-rule="evenodd" d="M8.429 7.969H12.143V9.819C12.678 8.755 14.05 7.799 16.111 7.799C20.062 7.799 21 9.917 21 13.803V21H17V14.688C17 12.475 16.465 11.227 15.103 11.227C13.214 11.227 12.429 12.572 12.429 14.687V21H8.429V7.969ZM1.57 20.83H5.57V7.799H1.57V20.83ZM6.143 3.55C6.14315 3.88528 6.07666 4.21724 5.94739 4.52659C5.81812 4.83594 5.62865 5.11651 5.39 5.352C4.9064 5.83262 4.25181 6.10165 3.57 6.1C2.88939 6.09954 2.23631 5.8312 1.752 5.353C1.51421 5.11671 1.32539 4.83582 1.19634 4.52643C1.0673 4.21704 1.00058 3.88522 1 3.55C1 2.873 1.27 2.225 1.753 1.747C2.23689 1.26816 2.89024 0.999701 3.571 1C4.253 1 4.907 1.269 5.39 1.747C5.872 2.225 6.143 2.873 6.143 3.55Z" fill="#0086C9"/>
</svg>
