<svg width="68" height="68" viewBox="0 0 68 68" fill="none" xmlns="http://www.w3.org/2000/svg">
<path d="M27.9225 8.68741C30.4355 11.1942 30.4355 15.2823 27.9225 17.8084C25.4096 20.3345 21.362 20.3345 18.8491 17.8084C16.3361 15.3016 16.3361 11.2135 18.8491 8.68741C21.362 6.1613 25.4096 6.18058 27.9225 8.68741Z" fill="url(#paint0_linear_3007_763)"/>
<path d="M14.6013 61.2345L10.4194 24.6155H36.7958L32.614 61.2345H14.6013Z" fill="url(#paint1_linear_3007_763)"/>
<path d="M52.5524 8.68741C55.0654 11.1942 55.0654 15.2823 52.5524 17.8084C50.0395 20.3345 45.9919 20.3345 43.4789 17.8084C40.966 15.3016 40.966 11.2135 43.4789 8.68741C45.9919 6.1613 50.0395 6.18058 52.5524 8.68741Z" fill="url(#paint2_linear_3007_763)"/>
<path opacity="0.9" d="M38.9996 61.2345L34.8369 24.6155H61.1941L57.0122 61.2345H38.9996Z" fill="url(#paint3_linear_3007_763)"/>
<path fill-rule="evenodd" clip-rule="evenodd" d="M42.5376 29.7642L48.0239 35.2021L42.5376 45.2872L48.2924 52.3256L53.5102 45.2872L48.0239 35.2021L53.5102 29.7642H42.5376Z" fill="url(#paint4_linear_3007_763)"/>
<path d="M28.3367 37.0148H6.79443V52.3257H28.3367V37.0148Z" fill="url(#paint5_linear_3007_763)"/>
<path d="M13.6079 37.0146C13.6079 35.1827 15.085 33.6979 16.9074 33.6979H18.2502C20.0725 33.6979 21.5496 35.1827 21.5496 37.0146" fill="url(#paint6_linear_3007_763)"/>
<defs>
<linearGradient id="paint0_linear_3007_763" x1="23.3858" y1="6.80005" x2="23.3858" y2="19.703" gradientUnits="userSpaceOnUse">
<stop stop-color="white"/>
<stop offset="1" stop-color="#C6DFBB"/>
</linearGradient>
<linearGradient id="paint1_linear_3007_763" x1="23.6076" y1="24.6155" x2="23.6076" y2="61.2345" gradientUnits="userSpaceOnUse">
<stop stop-color="#6CCC74"/>
<stop offset="1" stop-color="#1DA637"/>
</linearGradient>
<linearGradient id="paint2_linear_3007_763" x1="48.0157" y1="6.80005" x2="48.0157" y2="19.703" gradientUnits="userSpaceOnUse">
<stop stop-color="#6CCC74"/>
<stop offset="1" stop-color="#1DA637"/>
</linearGradient>
<linearGradient id="paint3_linear_3007_763" x1="48.0155" y1="24.6155" x2="48.0155" y2="61.2345" gradientUnits="userSpaceOnUse">
<stop stop-color="#C6DFBB"/>
<stop offset="1" stop-color="white"/>
</linearGradient>
<linearGradient id="paint4_linear_3007_763" x1="48.0239" y1="29.7642" x2="48.0239" y2="52.3256" gradientUnits="userSpaceOnUse">
<stop stop-color="#6CCC74"/>
<stop offset="1" stop-color="#1DA637"/>
</linearGradient>
<linearGradient id="paint5_linear_3007_763" x1="17.5656" y1="37.0148" x2="17.5656" y2="52.3257" gradientUnits="userSpaceOnUse">
<stop stop-color="white"/>
<stop offset="1" stop-color="#C6DFBB"/>
</linearGradient>
<linearGradient id="paint6_linear_3007_763" x1="17.5788" y1="33.6979" x2="17.5788" y2="37.0146" gradientUnits="userSpaceOnUse">
<stop stop-color="white"/>
<stop offset="1" stop-color="#C6DFBB"/>
</linearGradient>
</defs>
</svg>
