<svg width="68" height="68" viewBox="0 0 68 68" fill="none" xmlns="http://www.w3.org/2000/svg">
<g clip-path="url(#clip0_1222_34145)">
<path fill-rule="evenodd" clip-rule="evenodd" d="M17.3382 0L15.1245 1.03791L18.2964 7.80304L20.5101 6.76513L17.3382 0ZM9.41779 5.09778L7.69289 6.83052L13.0044 12.118L14.7293 10.3853L9.41779 5.09778ZM2.63098 14.6962L3.65609 12.4767L10.4601 15.6192L9.43502 17.8387L2.63098 14.6962Z" fill="url(#paint0_linear_1222_34145)"/>
<path fill-rule="evenodd" clip-rule="evenodd" d="M26.6253 45.4629H43.8311V53.8988C43.8461 54.107 43.8538 54.3172 43.8538 54.5293C43.8538 59.2868 39.9971 63.1435 35.2395 63.1435C30.482 63.1435 26.6252 59.2868 26.6252 54.5293C26.6252 54.5166 26.6253 54.5039 26.6253 54.4913V45.4629Z" fill="url(#paint1_linear_1222_34145)"/>
<path opacity="0.8" fill-rule="evenodd" clip-rule="evenodd" d="M25.2699 53.2963L43.9609 52.0395V49.4575L25.2699 50.7143V53.2963ZM25.2699 57.9797L43.9609 56.7229V54.1409L25.2699 55.3977V57.9797Z" fill="url(#paint2_linear_1222_34145)"/>
<path opacity="0.8" d="M34.6155 47.3323C46.0109 47.3323 55.2487 38.0945 55.2487 26.6991C55.2487 15.3037 46.0109 6.06592 34.6155 6.06592C23.2201 6.06592 13.9823 15.3037 13.9823 26.6991C13.9823 38.0945 23.2201 47.3323 34.6155 47.3323Z" fill="url(#paint3_linear_1222_34145)"/>
<path fill-rule="evenodd" clip-rule="evenodd" d="M32.1477 28.7327H37.106L38.1343 15.5713H31.0737L32.1477 28.7327ZM32.1247 31.8405H37.1059V36.8217H32.1247V31.8405Z" fill="url(#paint4_linear_1222_34145)"/>
</g>
<defs>
<linearGradient id="paint0_linear_1222_34145" x1="18.4167" y1="12.6286" x2="2.63098" y2="-7.57714" gradientUnits="userSpaceOnUse">
<stop stop-color="#115B99"/>
<stop offset="1" stop-color="#094A95"/>
</linearGradient>
<linearGradient id="paint1_linear_1222_34145" x1="35.2395" y1="38.5172" x2="35.2395" y2="63.1435" gradientUnits="userSpaceOnUse">
<stop offset="0.234599" stop-color="#115B99"/>
<stop offset="1" stop-color="#094A95"/>
</linearGradient>
<linearGradient id="paint2_linear_1222_34145" x1="44.3053" y1="54.3031" x2="25.3624" y2="54.3031" gradientUnits="userSpaceOnUse">
<stop offset="0.377474" stop-color="#EFF5FB"/>
<stop offset="1" stop-color="#B9BFDE"/>
</linearGradient>
<linearGradient id="paint3_linear_1222_34145" x1="34.6155" y1="6.06592" x2="34.6155" y2="71.0361" gradientUnits="userSpaceOnUse">
<stop stop-color="#EFF5FB"/>
<stop offset="0.677788" stop-color="#B9BFDE"/>
</linearGradient>
<linearGradient id="paint4_linear_1222_34145" x1="34.604" y1="15.5713" x2="34.604" y2="36.8217" gradientUnits="userSpaceOnUse">
<stop stop-color="#115B99"/>
<stop offset="0.81306" stop-color="#094A95"/>
</linearGradient>
<clipPath id="clip0_1222_34145">
<rect width="68" height="68" fill="white"/>
</clipPath>
</defs>
</svg>
