<svg width="24" height="48" viewBox="0 0 24 48" fill="none" xmlns="http://www.w3.org/2000/svg">
<path d="M21.9 29.8125C21.9 30.0943 21.7894 30.3645 21.5925 30.5638C21.3955 30.7631 21.1285 30.875 20.85 30.875C20.5715 30.875 20.3044 30.7631 20.1075 30.5638C19.9106 30.3645 19.8 30.0943 19.8 29.8125V17.0625C19.8 16.7807 19.6894 16.5105 19.4925 16.3112C19.2955 16.1119 19.0285 16 18.75 16H4.05C3.77152 16 3.50445 16.1119 3.30754 16.3112C3.11062 16.5105 3 16.7807 3 17.0625V30.875C3 31.4386 3.22125 31.9791 3.61508 32.3776C4.0089 32.7761 4.54305 33 5.1 33H20.85C22.5867 33 24 31.5699 24 29.8125V19.1875H21.9V29.8125ZM13.5 19.1875H16.65V21.3125H13.5V19.1875ZM13.5 23.4375H16.65V25.5625H13.5V23.4375ZM6.15 19.1875H11.4V25.5625H6.15V19.1875ZM6.15 29.8125V27.6875H16.65V29.8125H6.15Z" fill="white"/>
<path d="M4.53203 12.9607H3.17173L1.3603 10.7472V12.9607H0V9H1.3603L3.17173 11.2416V9H4.53203V12.9607Z" fill="white"/>
<path d="M9.02692 11.3483C9.02692 11.4345 9.01998 11.5206 9.0061 11.6067H6.43124C6.44512 11.779 6.50296 11.9082 6.60475 11.9944C6.71117 12.0768 6.84535 12.118 7.00729 12.118C7.234 12.118 7.39594 12.0356 7.49311 11.8708H8.94364C8.88349 12.088 8.7655 12.2828 8.58968 12.4551C8.41849 12.6236 8.20102 12.7566 7.93729 12.8539C7.67356 12.9513 7.38206 13 7.06281 13C6.67878 13 6.33639 12.9345 6.03564 12.8034C5.73952 12.6723 5.50586 12.485 5.33467 12.2416C5.1681 11.9981 5.08482 11.7116 5.08482 11.382C5.08482 11.0524 5.1681 10.7678 5.33467 10.5281C5.50124 10.2846 5.73258 10.0974 6.0287 9.96629C6.32945 9.83521 6.67415 9.76966 7.06281 9.76966C7.44684 9.76966 7.78692 9.83333 8.08304 9.96067C8.37916 10.088 8.6105 10.2715 8.77707 10.5112C8.94364 10.7472 9.02692 11.0262 9.02692 11.3483ZM7.63886 11.073C7.63886 10.9382 7.58333 10.8333 7.47229 10.7584C7.36124 10.6798 7.22244 10.6404 7.05587 10.6404C6.8893 10.6404 6.75281 10.6779 6.64639 10.7528C6.53997 10.824 6.47057 10.9307 6.43818 11.073H7.63886Z" fill="white"/>
<path d="M15.3371 9.80899L14.3447 12.9607H12.8178L12.2765 11.0506L11.7143 12.9607H10.1944L9.20883 9.80899H10.5622L10.9994 11.8989L11.5755 9.80899H13.033L13.6298 11.9045L14.0601 9.80899H15.3371Z" fill="white"/>
<path d="M17.3829 13C17.0313 13 16.7166 12.9532 16.439 12.8596C16.166 12.7622 15.9486 12.6311 15.7866 12.4663C15.6293 12.2978 15.5414 12.1086 15.5229 11.8989H16.8416C16.8601 12 16.9179 12.0787 17.0151 12.1348C17.1122 12.191 17.2325 12.2191 17.376 12.2191C17.487 12.2191 17.5749 12.2004 17.6397 12.1629C17.7045 12.1255 17.7369 12.0768 17.7369 12.0169C17.7369 11.9382 17.6837 11.8802 17.5772 11.8427C17.4708 11.8052 17.295 11.764 17.0498 11.7191C16.7722 11.6742 16.5408 11.6236 16.3557 11.5674C16.1707 11.5112 16.0087 11.4195 15.8699 11.2921C15.7357 11.1648 15.6686 10.9925 15.6686 10.7753C15.6686 10.588 15.7311 10.4195 15.856 10.2697C15.981 10.1161 16.1637 9.99438 16.4043 9.90449C16.6495 9.81461 16.9434 9.76966 17.2857 9.76966C17.7947 9.76966 18.1949 9.87079 18.4864 10.073C18.7779 10.2753 18.9468 10.5412 18.9931 10.8708H17.7646C17.7415 10.7697 17.686 10.6929 17.5981 10.6404C17.5148 10.5843 17.4014 10.5562 17.258 10.5562C17.1469 10.5562 17.0613 10.573 17.0012 10.6067C16.9457 10.6404 16.9179 10.6873 16.9179 10.7472C16.9179 10.8221 16.9711 10.8801 17.0775 10.9213C17.184 10.9588 17.3551 10.9981 17.5911 11.0393C17.8734 11.088 18.107 11.1423 18.2921 11.2022C18.4818 11.2622 18.646 11.3596 18.7849 11.4944C18.9283 11.6255 19 11.8052 19 12.0337C19 12.2172 18.9329 12.382 18.7987 12.5281C18.6692 12.6742 18.4818 12.7903 18.2366 12.8764C17.996 12.9588 17.7114 13 17.3829 13Z" fill="white"/>
</svg>
