<?xml version="1.0" encoding="UTF-8"?>
<svg width="20px" height="20px" viewBox="0 0 20 20" version="1.1" xmlns="http://www.w3.org/2000/svg" xmlns:xlink="http://www.w3.org/1999/xlink">
    <!-- Generator: Sketch 63.1 (92452) - https://sketch.com -->
    <title>icon/subscribe</title>
    <desc>Created with Sketch.</desc>
    <g id="NANYA-HOME" stroke="none" stroke-width="1" fill="none" fill-rule="evenodd">
        <g id="Nanya首頁正式中文" transform="translate(-1830.000000, -4339.000000)" fill="#303030">
            <g id="footer" transform="translate(0.000000, 4324.000000)">
                <g id="icon/subscribe" transform="translate(1830.000000, 15.000000)">
                    <g>
                        <path d="M0.5859375,20 L19.4140625,20 C19.7376563,20 20,19.7376563 20,19.4140625 L20,7.65625 C20,7.46710937 19.9073828,7.29261719 19.7631641,7.18566406 L16.4453125,4.72460938 L16.4453125,2.96875 C16.4453125,2.64515625 16.1829688,2.3828125 15.859375,2.3828125 L13.3228906,2.3828125 L10.3552734,0.12 C10.1454297,-0.04 9.85457031,-0.04 9.64472656,0.12 L6.67710937,2.3828125 L4.140625,2.3828125 C3.81703125,2.3828125 3.5546875,2.64515625 3.5546875,2.96875 L3.5546875,4.72460938 L0.236875,7.18566406 C0.0888671875,7.29515625 0,7.471875 0,7.65625 L0,19.4140625 C0,19.7376563 0.26234375,20 0.5859375,20 Z M16.4453125,6.18371094 L18.4326172,7.6578125 C17.9584375,8.01183594 17.2537891,8.53796875 16.4453125,9.14164063 L16.4453125,6.18371094 Z M10,1.32277344 L11.3902344,2.3828125 L8.60980469,2.3828125 L10,1.32277344 Z M4.7265625,3.5546875 L15.2734375,3.5546875 L15.2734375,10.0166797 C13.2183594,11.55125 10.9158203,13.2708984 10,13.9556641 C9.08417969,13.2708984 6.78164063,11.5512891 4.7265625,10.0166797 L4.7265625,3.5546875 Z M3.5546875,6.18371094 L3.5546875,9.14164063 C2.74621094,8.53796875 2.0415625,8.01183594 1.56738281,7.65777344 L3.5546875,6.18371094 Z M1.171875,8.82496094 C3.42988281,10.5108984 9.03085937,14.6930469 9.6484375,15.15625 C9.85675781,15.3125 10.1432422,15.3125 10.3515625,15.15625 C10.9691797,14.6930469 16.5701172,10.5108984 18.828125,8.82496094 L18.828125,18.828125 L1.171875,18.828125 L1.171875,8.82496094 Z" id="Shape" fill-rule="nonzero"></path>
                        <path d="M6.13269531,14.5117969 L3.3984375,16.5625 C3.13957031,16.7566797 3.08707031,17.1239453 3.28125,17.3828125 C3.47445313,17.6403906 3.84144531,17.6950781 4.1015625,17.5 L6.83582031,15.4492969 C7.0946875,15.2551172 7.1471875,14.8878516 6.95300781,14.6289844 C6.75886719,14.3701172 6.39160156,14.3176172 6.13269531,14.5117969 Z" id="Path" fill-rule="nonzero"></path>
                        <path d="M16.6015625,16.5625 L13.8673047,14.5117969 C13.6084766,14.3176172 13.2411328,14.3701172 13.0469922,14.6289844 C12.8528125,14.8878516 12.9053125,15.2551172 13.1641797,15.4492969 L15.8984375,17.5 C16.1561328,17.6932812 16.52375,17.6428516 16.71875,17.3828125 C16.9129297,17.1239453 16.8604688,16.7566797 16.6015625,16.5625 Z" id="Path" fill-rule="nonzero"></path>
                        <path d="M7.65625,7.0703125 L12.34375,7.0703125 C12.6673438,7.0703125 12.9296875,6.80796875 12.9296875,6.484375 C12.9296875,6.16078125 12.6673438,5.8984375 12.34375,5.8984375 L7.65625,5.8984375 C7.33265625,5.8984375 7.0703125,6.16078125 7.0703125,6.484375 C7.0703125,6.80796875 7.33265625,7.0703125 7.65625,7.0703125 Z" id="Path" fill-rule="nonzero"></path>
                        <path d="M12.9296875,8.828125 C12.9296875,8.50453125 12.6673438,8.2421875 12.34375,8.2421875 L7.65625,8.2421875 C7.33265625,8.2421875 7.0703125,8.50453125 7.0703125,8.828125 C7.0703125,9.15171875 7.33265625,9.4140625 7.65625,9.4140625 L12.34375,9.4140625 C12.6673438,9.4140625 12.9296875,9.15171875 12.9296875,8.828125 Z" id="Path" fill-rule="nonzero"></path>
                    </g>
                </g>
            </g>
        </g>
    </g>
</svg>