<svg xmlns="http://www.w3.org/2000/svg" width="53" height="56" viewBox="0 0 53 56">
    <g fill="none" fill-rule="evenodd">
        <g fill-rule="nonzero">
            <g>
                <g>
                    <g>
                        <g>
                            <g>
                                <g fill="#212938">
                                    <path d="M2.819.27l.006.008c1.04-.535 2.3.02 3.217 1.611 1.266 2.192 1.404 5.509.307 7.408-.288.499-.633.846-1.007 1.053l-.001.009-2.771 1.596L.063 1.861 2.819.269zM22.748 11.781l.006.01c1.04-.537 2.299.02 3.217 1.61 1.266 2.192 1.403 5.509.307 7.408-.288.498-.633.846-1.008 1.053v.008l-2.771 1.597-2.508-10.094 2.757-1.592z" transform="translate(-877 -1232) translate(400 1142) translate(238 90) translate(228) translate(11) matrix(-1 0 0 1 51.313 0) translate(5.031 32.266)"/>
                                </g>
                                <path fill="#006B64" d="M14.326 0L35.725 12.355 35.725 17.83 21.501 26.042 21.501 42.804 0.102 30.448 0.102 8.212z" transform="translate(-877 -1232) translate(400 1142) translate(238 90) translate(228) translate(11) matrix(-1 0 0 1 51.313 0)"/>
                                <path fill="#00998F" d="M21.501 20.567L35.725 12.355 35.725 18.124 21.501 26.337z" transform="translate(-877 -1232) translate(400 1142) translate(238 90) translate(228) translate(11) matrix(-1 0 0 1 51.313 0)"/>
                                <path fill="#00ADA2" d="M35.725 12.355L14.326 0 0.102 8.212 21.501 20.567z" transform="translate(-877 -1232) translate(400 1142) translate(238 90) translate(228) translate(11) matrix(-1 0 0 1 51.313 0)"/>
                                <path fill="#E69500" d="M.102 30.097v3.935c0 .953.508 1.834 1.333 2.31l20.067 11.6 13.71 7.915.513-.061.448.1 13.776-7.955v-8.183l-4.74-16.453-9.484-5.475-14.224 8.212v16.425l-21.4-12.37z" transform="translate(-877 -1232) translate(400 1142) translate(238 90) translate(228) translate(11) matrix(-1 0 0 1 51.313 0)"/>
                                <path fill="#FFAE00" d="M49.949 39.758L49.949 47.941 36.173 55.895 35.725 55.796 35.725 47.941z" transform="translate(-877 -1232) translate(400 1142) translate(238 90) translate(228) translate(11) matrix(-1 0 0 1 51.313 0)"/>
                                <path fill="#FFCA00" d="M49.949 39.758L45.208 23.305 30.932 31.547 35.725 47.941z" transform="translate(-877 -1232) translate(400 1142) translate(238 90) translate(228) translate(11) matrix(-1 0 0 1 51.313 0)"/>
                                <path fill="#FFDA4D" d="M45.208 23.305L35.725 17.83 21.501 26.042 30.932 31.547z" transform="translate(-877 -1232) translate(400 1142) translate(238 90) translate(228) translate(11) matrix(-1 0 0 1 51.313 0)"/>
                                <g fill="#33AEFF">
                                    <path d="M.095 3.552L6.572 7.295 9.695 18.829.095 13.283zM8.626 7.379L11.608 17.76 24.34 10.384 21.342.008z" transform="translate(-877 -1232) translate(400 1142) translate(238 90) translate(228) translate(11) matrix(-1 0 0 1 51.313 0) translate(23.406 24.828)"/>
                                </g>
                                <path fill="#284363" d="M28.261 47.25c1.266 2.193 1.404 5.51.307 7.408-1.096 1.9-3.01 1.661-4.276-.531-1.266-2.193-1.404-5.51-.307-7.408 1.096-1.899 3.01-1.66 4.276.532z" transform="translate(-877 -1232) translate(400 1142) translate(238 90) translate(228) translate(11) matrix(-1 0 0 1 51.313 0)"/>
                                <path fill="#C8CED6" d="M27.369 48.797c.696 1.206.772 3.031.169 4.076-.604 1.045-1.657.914-2.354-.292-.697-1.207-.772-3.032-.169-4.077s1.657-.914 2.354.293z" transform="translate(-877 -1232) translate(400 1142) translate(238 90) translate(228) translate(11) matrix(-1 0 0 1 51.313 0)"/>
                                <path fill="#9FACBC" d="M27.097 49.267c.523.907.58 2.278.127 3.063-.453.785-1.245.687-1.768-.22-.524-.907-.58-2.278-.127-3.063.453-.785 1.245-.687 1.768.22z" transform="translate(-877 -1232) translate(400 1142) translate(238 90) translate(228) translate(11) matrix(-1 0 0 1 51.313 0)"/>
                                <path fill="#C8CED6" d="M26.98 49.469c.45.778.499 1.954.11 2.628-.39.674-1.069.59-1.518-.188-.45-.778-.498-1.955-.109-2.629.39-.674 1.069-.59 1.518.189z" transform="translate(-877 -1232) translate(400 1142) translate(238 90) translate(228) translate(11) matrix(-1 0 0 1 51.313 0)"/>
                                <path fill="#284363" d="M8.332 35.739c1.266 2.192 1.404 5.509.307 7.408-1.096 1.898-3.01 1.66-4.276-.532-1.266-2.193-1.404-5.51-.307-7.408 1.096-1.899 3.01-1.66 4.276.532z" transform="translate(-877 -1232) translate(400 1142) translate(238 90) translate(228) translate(11) matrix(-1 0 0 1 51.313 0)"/>
                                <path fill="#C8CED6" d="M7.44 37.285c.697 1.206.772 3.032.169 4.077s-1.657.913-2.354-.293c-.696-1.207-.772-3.032-.169-4.077s1.657-.914 2.354.293z" transform="translate(-877 -1232) translate(400 1142) translate(238 90) translate(228) translate(11) matrix(-1 0 0 1 51.313 0)"/>
                                <path fill="#9FACBC" d="M7.168 37.755c.524.907.58 2.278.127 3.063-.453.785-1.245.687-1.768-.22-.524-.906-.58-2.278-.127-3.063.453-.785 1.245-.686 1.768.22z" transform="translate(-877 -1232) translate(400 1142) translate(238 90) translate(228) translate(11) matrix(-1 0 0 1 51.313 0)"/>
                                <path fill="#C8CED6" d="M7.052 37.957c.449.778.498 1.955.109 2.628-.39.674-1.069.59-1.518-.188-.449-.778-.498-1.955-.109-2.629.39-.674 1.069-.59 1.518.189z" transform="translate(-877 -1232) translate(400 1142) translate(238 90) translate(228) translate(11) matrix(-1 0 0 1 51.313 0)"/>
                                <path fill="#284363" d="M47.746 35.212c.405 1.462-.227 3.012-1.538 3.774l-8.23 4.78c-1.137.66-2.591.082-2.964-1.178l12.732-7.376z" transform="translate(-877 -1232) translate(400 1142) translate(238 90) translate(228) translate(11) matrix(-1 0 0 1 51.313 0)"/>
                                <g fill="#FFF">
                                    <path d="M10.25 1.191l1.921-1.1c.267-.154.6.04.6.347V1.55c0 .267-.143.514-.375.648l-1.922 1.107c-.267.154-.6-.04-.6-.347V1.84c0-.268.143-.516.376-.649zM.44 6.845l1.92-1.1c.268-.154.6.039.6.347v1.113c0 .267-.142.514-.374.648L.664 8.96c-.268.154-.601-.04-.601-.347v-1.12c0-.267.143-.515.376-.648z" transform="translate(-877 -1232) translate(400 1142) translate(238 90) translate(228) translate(11) matrix(-1 0 0 1 51.313 0) translate(36.422 41.125)"/>
                                </g>
                                <path fill="#212938" d="M50.21 45.56v1.792c0 .378-.201.728-.529.917l-12.903 7.45c-.651.376-1.453.375-2.103-.003l-1.567-.909v-2.415l.15-.093 2.254 1.306c.142.083.318.083.46 0l13.977-8.072v-.122l.262.15" transform="translate(-877 -1232) translate(400 1142) translate(238 90) translate(228) translate(11) matrix(-1 0 0 1 51.313 0)"/>
                                <g fill="#E9662C">
                                    <path d="M12.45.126l-2.344 1.353c-.144.083-.233.237-.233.403v.134c0 .165.179.268.322.185L12.538.848c.144-.083.233-.237.233-.403V.31c0-.165-.179-.268-.322-.185zM2.64 5.779L.295 7.132c-.144.083-.233.237-.233.403v.134c0 .165.179.268.322.186L2.728 6.5c.144-.083.233-.237.233-.403v-.133c0-.165-.179-.268-.322-.186z" transform="translate(-877 -1232) translate(400 1142) translate(238 90) translate(228) translate(11) matrix(-1 0 0 1 51.313 0) translate(36.422 43.422)"/>
                                </g>
                                <path fill="#212938" d="M46.295 47.07L46.295 45.802 39.382 49.795 39.382 51.061z" transform="translate(-877 -1232) translate(400 1142) translate(238 90) translate(228) translate(11) matrix(-1 0 0 1 51.313 0)"/>
                                <g fill="#FFF" opacity=".2">
                                    <path d="M3.837 2.275L5.713 7.498 7.508 14.126 4.42 12.342 0.011 0.064z" transform="translate(-877 -1232) translate(400 1142) translate(238 90) translate(228) translate(11) matrix(-1 0 0 1 51.313 0) translate(25.594 29.531)"/>
                                </g>
                                <g fill="#FFF" opacity=".2">
                                    <path d="M0.095 9.137L0.095 0.052 0.351 0.2 4.761 12.479 0.388 9.953z" transform="translate(-877 -1232) translate(400 1142) translate(238 90) translate(228) translate(11) matrix(-1 0 0 1 51.313 0) translate(23.406 28.328)"/>
                                </g>
                                <g fill="#FFF" opacity=".2">
                                    <path d="M1.306 4L8.18.015l-5.65 15.73c-.041-.091-.08-.184-.109-.283L.096 7.37 1.306 4z" transform="translate(-877 -1232) translate(400 1142) translate(238 90) translate(228) translate(11) matrix(-1 0 0 1 51.313 0) translate(32.594 27.125)"/>
                                </g>
                                <g fill="#FFF" opacity=".2">
                                    <path d="M.681 18.939c-.204.118-.419.195-.636.237L6.792.39l.66-.382 2.54 8.79-2.148 5.98-7.163 4.16z" transform="translate(-877 -1232) translate(400 1142) translate(238 90) translate(228) translate(11) matrix(-1 0 0 1 51.313 0) translate(37.297 24.828)"/>
                                </g>
                                <g fill="#FFF" stroke="#FFF" stroke-width=".2">
                                    <path d="M13 2.516V2c-1.426.848-2.69 2.432-3.412 4.164-.669 1.548-1.788 2.967-3.07 3.722-1.282.756-2.42.663-3.087-.092-.74-.848-2.005-.958-3.431-.129v.516c1.282-.737 2.401-.645 3.07.129.74.866 2.022.94 3.448.092 1.426-.848 2.69-2.414 3.43-4.146.65-1.529 1.77-2.966 3.052-3.74zM8.5 3.057c-.278.13-.5.421-.5.668 0 .247.222.348.5.218.278-.13.5-.421.5-.668 0-.247-.222-.348-.5-.218z" transform="translate(-877 -1232) translate(400 1142) translate(238 90) translate(228) translate(11) matrix(-1 0 0 1 51.313 0) matrix(-1 0 0 1 16.313 19)"/>
                                    <path d="M4.5 8.943c.278-.13.5-.421.5-.668 0-.247-.222-.348-.5-.218-.278.13-.5.421-.5.668 0 .247.222.348.5.218z" transform="translate(-877 -1232) translate(400 1142) translate(238 90) translate(228) translate(11) matrix(-1 0 0 1 51.313 0) matrix(-1 0 0 1 16.313 19)"/>
                                    <path d="M7.09 8.662c.116.077.29.058.463-.039.174-.097.347-.271.463-.503l.058-.116c.039-.02.096-.058.135-.078.309-.174.482-.406.579-.58C8.884 7.17 9 6.9 9 6.551c0-.523-.27-1.084-.733-1.549.096-.194.174-.387.25-.58-.154.077-.289.077-.385.019l-.039-.04c-.038.098-.077.214-.135.31-.154-.115-.328-.251-.501-.348-.174-.097-.367-.193-.56-.27.54-.756 1.023-1.22 1.293-1.395.116-.058.193-.077.231-.058.058.04.077.116.077.252.039-.02.058-.039.097-.058.135-.078.27-.116.386-.078v-.174c0-.348-.116-.484-.212-.542-.097-.058-.27-.077-.58.097-.443.271-1.06.93-1.697 1.82-.135-.039-.25-.058-.386-.078.02-.232-.038-.406-.193-.503-.135-.077-.289-.058-.463.039-.173.096-.347.27-.463.503l-.057.116c-.04.02-.097.039-.136.078-.308.174-.482.406-.578.58-.463.794-.116 1.684.52 2.343-.096.213-.173.406-.27.62.155-.059.29-.078.386-.02.02 0 .02.02.039.038.039-.116.096-.232.135-.348.154.136.328.252.502.348.173.097.366.194.559.272-.54.754-1.022 1.22-1.293 1.374-.115.058-.192.077-.231.058-.039-.02-.077-.097-.077-.232-.039.02-.058.038-.097.058-.135.077-.27.116-.385.077-.02.349.038.581.212.678.096.058.29.077.578-.097.463-.271 1.062-.93 1.698-1.82.135.039.25.058.386.078v.077c.02.252.096.407.212.465zm.849-.581c-.096.174-.232.31-.367.387-.135.078-.27.097-.366.039-.097-.058-.154-.174-.154-.33 0-.154.057-.348.154-.522.096-.174.231-.31.366-.387.135-.077.27-.097.367-.039.096.058.154.174.154.33-.019.154-.058.348-.154.522zm.039-2.42c.52.581.655 1.2.482 1.49-.039.078-.135.156-.232.214H8.21c-.02-.155-.077-.271-.193-.33-.135-.077-.29-.057-.463.04-.154.096-.309.251-.424.445-.058-.02-.135-.02-.212-.04.192-.29.366-.6.559-.909.174-.29.347-.6.502-.91zM5.103 4.035c.097-.174.232-.31.367-.387.135-.077.27-.097.366-.039.212.116.212.504 0 .852-.096.174-.231.31-.366.387-.135.078-.27.097-.367.039-.096-.058-.154-.174-.154-.33 0-.173.058-.367.154-.522zm-.058 2.4c-.366-.425-.56-.87-.56-1.18 0-.116.02-.233.078-.31.039-.077.135-.155.231-.213h.02c.02.155.077.271.193.348.115.078.29.059.463-.058.154-.096.308-.251.443-.445.058 0 .135.02.193.039-.193.29-.366.6-.56.91-.173.27-.346.58-.5.91zm1.466.95c-.192-.078-.405-.156-.617-.291-.212-.116-.386-.252-.56-.387.155-.33.348-.678.54-1.026.213-.368.406-.697.618-.988.193.078.405.155.617.29.213.117.386.252.56.388-.154.329-.347.658-.54 1.026-.212.368-.405.697-.618.987z" transform="translate(-877 -1232) translate(400 1142) translate(238 90) translate(228) translate(11) matrix(-1 0 0 1 51.313 0) matrix(-1 0 0 1 16.313 19)"/>
                                    <path d="M3.426 4.833C4.093 3.284 5.21 1.846 6.49 1.108 7.771.352 8.907.444 9.574 1.2c.74.849 2.002.96 3.426.13V.812c-1.28.738-2.398.646-3.065-.129-.74-.848-2.02-.94-3.444-.092-1.424.83-2.687 2.415-3.426 4.149C2.398 6.289 1.28 7.728 0 8.484V9c1.424-.848 2.687-2.434 3.426-4.167z" transform="translate(-877 -1232) translate(400 1142) translate(238 90) translate(228) translate(11) matrix(-1 0 0 1 51.313 0) matrix(-1 0 0 1 16.313 19)"/>
                                </g>
                            </g>
                        </g>
                    </g>
                </g>
            </g>
        </g>
    </g>
</svg>
