<svg width="25" height="48" viewBox="0 0 25 48" fill="none" xmlns="http://www.w3.org/2000/svg">
<path d="M1.35776 20.8999C1.34724 20.9813 1.33301 21.062 1.33301 21.1453V31.0634C1.33301 31.3639 1.40897 31.6454 1.53418 31.8999L7.12248 26.464L1.35776 20.8999Z" fill="white"/>
<path d="M23.3088 20.8999L17.5439 26.464L23.1322 31.8999C23.2575 31.6453 23.3334 31.3639 23.3334 31.0634V21.1454C23.3334 21.062 23.3193 20.9813 23.3088 20.8999Z" fill="white"/>
<path d="M21.0176 17.5999V20.8999L23.3334 19.2499L21.0176 17.5999Z" fill="white"/>
<path d="M14.792 12.8302C13.4363 11.7233 11.0193 11.7233 9.66349 12.8302L9.33301 13.1H15.1225L14.792 12.8302Z" fill="white"/>
<path d="M13.5349 24.7199C12.8087 24.0266 11.5415 24.0266 10.8153 24.7199L2.33301 32.816C2.58376 32.9305 2.86093 33 3.15699 33H21.1932C21.4893 33 21.7665 32.9305 22.0172 32.816L13.5349 24.7199Z" fill="white"/>
<path fill-rule="evenodd" clip-rule="evenodd" d="M17.4239 14.4H7.2421C6.18938 14.4 5.33301 15.1965 5.33301 16.1755V23.0326L7.87846 25.4L10.0834 23.3494C11.3238 22.1957 13.3422 22.1957 14.5827 23.3494L16.7876 25.4L19.333 23.0326V16.1755C19.333 15.1965 18.4766 14.4 17.4239 14.4ZM8.51483 17.951H11.0603C11.412 17.951 11.6966 18.2157 11.6966 18.5429C11.6966 18.87 11.412 19.1347 11.0603 19.1347H8.51483C8.16309 19.1347 7.87847 18.87 7.87847 18.5429C7.87847 18.2157 8.16309 17.951 8.51483 17.951ZM8.51483 21.5019H16.1512C16.5029 21.5019 16.7876 21.2372 16.7876 20.9101C16.7876 20.5829 16.5029 20.3182 16.1512 20.3182H8.51483C8.16309 20.3182 7.87847 20.5829 7.87847 20.9101C7.87847 21.2372 8.16309 21.5019 8.51483 21.5019Z" fill="white"/>
<path d="M1.33301 19.2499L3.6488 20.8999V17.5999L1.33301 19.2499Z" fill="white"/>
</svg>
