<svg width="60" height="60" viewBox="0 0 60 60" fill="none" xmlns="http://www.w3.org/2000/svg">
<path d="M60 30C60 46.5655 46.5655 60 30 60C13.4345 60 0 46.5655 0 30C0 13.4345 13.4345 0 30 0C46.5655 0 60 13.4345 60 30Z" fill="#F5E8EB"/>
<g clip-path="url(#clip0_1815_40923)">
<path d="M49 26.2604C49 33.1315 43.459 38.6892 36.6328 38.6892C29.8065 38.6892 24.2547 33.1207 24.2547 26.2604C24.2547 19.4002 29.7957 13.8208 36.622 13.8208C43.4482 13.8208 48.9892 19.3893 48.9892 26.2496" fill="#DAABB8"/>
<path d="M36.1251 40.4912L28.8992 38.6459L34.937 37.2347V33.8589L19.351 37.2347L13 43.6174L19.351 50L24.0495 45.289H35.9199L43.2322 40.4912V36.8548L36.1251 40.4912Z" fill="#BD5784"/>
<path d="M36.5355 30.7436C35.2502 30.7436 33.9217 30.2877 32.8416 29.3216L31.6967 31.0584C32.7552 32.0896 34.5481 32.6649 35.9847 32.806V35.0096H37.6913V32.7518C40.1863 32.4044 41.558 30.9282 41.558 28.9417C41.558 24.6866 34.6994 25.4356 34.6994 23.2755C34.6994 22.2769 35.5742 21.7884 36.8812 21.7884C38.0801 21.7884 39.1278 22.2552 40.1539 23.1018L41.4392 21.5605C40.4347 20.6486 39.3006 19.9539 37.6913 19.7586V17.5225H35.9847V19.7477C33.6841 20.0082 32.2367 21.3976 32.2367 23.46C32.2367 27.6066 39.0954 26.9119 39.0954 29.1805C39.0954 30.2009 38.2961 30.7545 36.5355 30.7545" fill="#BD5784"/>
<path d="M21.8785 17.4897H16.8236V30.1465H21.8785V17.4897Z" fill="#BD5784"/>
<path d="M19.351 10L13.2484 17.4464H25.4644L19.351 10Z" fill="#BD5784"/>
</g>
<defs>
<clipPath id="clip0_1815_40923">
<rect width="36" height="40" fill="white" transform="translate(13 10)"/>
</clipPath>
</defs>
</svg>
