<svg width="52" height="52" viewBox="0 0 52 52" fill="none" xmlns="http://www.w3.org/2000/svg">
<path d="M0 52H52V0H0V52Z" fill="#1A3567"/>
<path fill-rule="evenodd" clip-rule="evenodd" d="M32.6117 24.7235C36.2201 24.8535 39.1166 27.7874 39.1166 31.3784C39.1166 33.5026 38.1003 35.3984 36.5208 36.6189C36.6873 37.1939 36.7766 37.8011 36.7766 38.43C36.7766 42.0993 33.7478 45.0875 30.0238 45.0875C28.6371 45.0875 27.348 44.6744 26.2745 43.9672C25.1889 44.7004 23.8757 45.1313 22.4627 45.1313C18.7383 45.1313 15.7072 42.1435 15.7072 38.4745C15.7072 37.8331 15.8006 37.2139 15.9732 36.6267C14.3899 35.4062 13.3672 33.5085 13.3672 31.3784C13.3672 27.7874 16.2641 24.8535 19.8728 24.7235C20.8021 22.1402 23.3063 20.2827 26.2417 20.2827C29.1797 20.2827 31.6825 22.1402 32.6117 24.7235ZM31.1852 24.8215C30.3535 22.9417 28.4529 21.6232 26.2406 21.6232C24.031 21.6232 22.1304 22.9417 21.2969 24.8215C23.4907 25.2023 25.3242 26.6311 26.2406 28.5629C27.1601 26.6311 28.9917 25.2023 31.1852 24.8215ZM14.7266 31.3784C14.7266 28.6369 16.8386 26.3763 19.5426 26.09C19.5079 26.3685 19.4857 26.6531 19.4857 26.9417C19.4857 28.8876 20.3395 30.6429 21.6934 31.8612C19.4533 32.1119 17.5417 33.4465 16.5153 35.32C15.4195 34.3461 14.7266 32.9413 14.7266 31.3784ZM30.8359 31.8211C32.1653 30.6051 33.0007 28.8675 33.0007 26.9417C33.0007 26.6531 32.9804 26.3685 32.9442 26.09C35.6478 26.3763 37.7599 28.6369 37.7599 31.3784C37.7599 32.9335 37.0752 34.3323 35.9873 35.3062C34.9711 33.4283 33.0701 32.0856 30.8359 31.8211ZM35.4137 38.43C35.4137 41.3621 32.9946 43.7466 30.0208 43.7466C29.0505 43.7466 28.1462 43.4922 27.3594 43.0495C28.506 41.8549 29.2155 40.2459 29.2155 38.4746C29.2155 38.0396 29.1707 37.6125 29.0893 37.1998C30.0592 37.731 31.1731 38.0355 32.3604 38.0355C33.4155 38.0355 34.4159 37.7949 35.3063 37.3681C35.3772 37.7109 35.4137 38.0656 35.4137 38.43ZM17.1883 37.3721C17.1133 37.7287 17.0703 38.0956 17.0703 38.4745C17.0703 41.4062 19.4898 43.7907 22.4659 43.7907C23.4561 43.7907 24.3808 43.5222 25.1801 43.0613C23.9987 41.8608 23.2711 40.2276 23.2711 38.4299C23.2711 38.0113 23.3114 37.6024 23.3868 37.2057C22.4192 37.7346 21.3072 38.0355 20.1259 38.0355C19.0731 38.0355 18.079 37.797 17.1883 37.3721ZM27.5234 33.721C28.2714 33.3343 29.117 33.1118 30.0202 33.1118C32.1401 33.1118 33.9741 34.3282 34.8543 36.0877C34.106 36.4744 33.2581 36.695 32.3598 36.695C30.2376 36.695 28.4037 35.4786 27.5234 33.721ZM20.1189 36.695C22.2253 36.695 24.0491 35.4945 24.9372 33.7551C24.1934 33.3744 23.3535 33.156 22.4589 33.156C20.3529 33.156 18.5273 34.3561 17.6406 36.0955C18.3829 36.4766 19.2247 36.695 20.1189 36.695ZM20.915 26.1241C23.5131 26.5049 25.5155 28.7111 25.5155 31.3784C25.5155 31.6551 25.4868 31.9273 25.4442 32.1959C22.8461 31.8133 20.8438 29.607 20.8438 26.9417C20.8438 26.6631 20.8743 26.3905 20.915 26.1241ZM24.625 38.43C24.625 39.9231 25.2531 41.2718 26.2638 42.2397C27.2453 41.2759 27.8554 39.9432 27.8554 38.4746C27.8554 36.9814 27.2254 35.6305 26.2148 34.663C25.2347 35.6268 24.625 36.9591 24.625 38.43ZM31.6386 26.9417C31.6386 29.607 29.6381 31.8133 27.0381 32.1959C26.997 31.9273 26.9688 31.6551 26.9688 31.3784C26.9688 28.7111 28.9692 26.5049 31.5674 26.1241C31.6103 26.3905 31.6386 26.6631 31.6386 26.9417Z" fill="white"/>
<path d="M7.76497 4.65625V14.9645H6.00639V7.07314H5.99019L4.75839 8.33562H4.74219V6.52602L6.3621 4.65625H7.76497Z" fill="white"/>
<path d="M8.57031 4.65625H12.982V6.25154L10.6823 14.9645H8.93996L11.2845 6.07102H8.57031V4.65625Z" fill="white"/>
<path fill-rule="evenodd" clip-rule="evenodd" d="M17.9409 4.61523H16.8516V8.92343H17.5852V7.46075H17.9409C18.6829 7.46075 18.9534 7.09415 18.9534 6.49058V5.58095C18.9534 4.97775 18.6829 4.61523 17.9409 4.61523ZM17.5859 6.90361V5.20618H17.8565C18.1086 5.20618 18.2182 5.32058 18.2182 5.55495V6.54703C18.2182 6.78326 18.1086 6.90361 17.8565 6.90361H17.5859Z" fill="white"/>
<path fill-rule="evenodd" clip-rule="evenodd" d="M19.7879 4.61377L18.9608 8.9242H19.6579L19.7879 8.13677H20.5664L20.7028 8.9242H21.4572L20.6256 4.61377H19.7879ZM20.4691 7.55737H19.8817L20.1722 5.828H20.1786L20.4691 7.55737Z" fill="white"/>
<path fill-rule="evenodd" clip-rule="evenodd" d="M22.4918 8.92343V6.94781L23.181 8.92343H23.9558L23.2522 6.96563C23.6731 6.87166 23.8397 6.59718 23.8397 6.13401V5.58095C23.8397 4.97775 23.5691 4.61523 22.8272 4.61523H21.7578V8.92343H22.4918ZM22.4899 6.54703V5.20618H22.7356C22.9858 5.20618 23.0955 5.32058 23.0955 5.55495V6.19009C23.0955 6.41852 22.9858 6.54703 22.7356 6.54703H22.4899Z" fill="white"/>
<path d="M24.0938 4.61426H26.0475V5.20557H25.4412V8.92283H24.6993V5.20557H24.0938V4.61426Z" fill="white"/>
<path d="M27.0086 6.21646V8.92381H26.3906V4.61523H27.1122L27.9054 7.08821V4.61523H28.517V8.92381H27.8726L27.0086 6.21646Z" fill="white"/>
<path d="M28.9375 4.61426H30.6897V5.20557H29.6712V6.43797H30.401V7.02297H29.6712V8.33152H30.6897V8.92283H28.9375V4.61426Z" fill="white"/>
<path fill-rule="evenodd" clip-rule="evenodd" d="M31.814 8.92343V6.94781L32.5032 8.92343H33.278L32.5744 6.96563C32.9931 6.87166 33.1619 6.59718 33.1619 6.13401V5.58095C33.1619 4.97775 32.8895 4.61523 32.1498 4.61523H31.0781V8.92343H31.814ZM31.8103 6.54703V5.20618H32.054C32.3061 5.20618 32.4158 5.32058 32.4158 5.55495V6.19009C32.4158 6.41852 32.3061 6.54703 32.054 6.54703H31.8103Z" fill="white"/>
<path d="M33.4922 7.99594V7.41689H34.1753V8.0082C34.1753 8.25074 34.285 8.39077 34.5371 8.39077C34.7692 8.39077 34.8724 8.23849 34.8724 8.0082V7.84366C34.8724 7.59517 34.7692 7.44289 34.5431 7.23452L34.1105 6.80774C33.6934 6.40103 33.4986 6.1544 33.4986 5.65743V5.51109C33.4986 4.97809 33.8155 4.56543 34.5311 4.56543C35.2651 4.56543 35.556 4.92014 35.556 5.54303V5.8918H34.8849V5.51703C34.8849 5.27077 34.7692 5.1482 34.5371 5.1482C34.3302 5.1482 34.1897 5.2626 34.1897 5.50514V5.59317C34.1897 5.83572 34.3238 5.97612 34.5371 6.17854L35.0089 6.6354C35.4071 7.03617 35.6004 7.27872 35.6004 7.7534V7.964C35.6004 8.55494 35.2771 8.97392 34.5311 8.97392C33.7827 8.97392 33.4922 8.56089 33.4922 7.99594Z" fill="white"/>
<path d="M37.4279 7.02346H36.718V8.92332H35.9844V4.61475H36.718V6.43809H37.4279V4.61475H38.1676V8.92332H37.4279V7.02346Z" fill="white"/>
<path d="M38.5898 8.92234H39.3238V4.61377H38.5898V8.92234Z" fill="white"/>
<path fill-rule="evenodd" clip-rule="evenodd" d="M40.8394 4.61523H39.75V8.92343H40.4859V7.46075H40.8394C41.5817 7.46075 41.8522 7.09415 41.8522 6.49058V5.58095C41.8522 4.97775 41.5817 4.61523 40.8394 4.61523ZM40.4844 6.90361V5.20618H40.7549C41.007 5.20618 41.1167 5.32058 41.1167 5.55495V6.54703C41.1167 6.78326 41.007 6.90361 40.7549 6.90361H40.4844Z" fill="white"/>
<path d="M42.1953 7.99594V7.41689H42.8785V8.0082C42.8785 8.25074 42.99 8.39077 43.2402 8.39077C43.4723 8.39077 43.5756 8.23849 43.5756 8.0082V7.84366C43.5756 7.59517 43.4723 7.44289 43.2462 7.23452L42.8155 6.80774C42.3965 6.40103 42.2017 6.1544 42.2017 5.65743V5.51109C42.2017 4.97809 42.5186 4.56543 43.2342 4.56543C43.9701 4.56543 44.2591 4.92014 44.2591 5.54303V5.8918H43.588V5.51703C43.588 5.27077 43.4723 5.1482 43.2402 5.1482C43.0352 5.1482 42.8928 5.2626 42.8928 5.50514V5.59317C42.8928 5.83572 43.0269 5.97612 43.2402 6.17854L43.712 6.6354C44.1103 7.03617 44.3036 7.27872 44.3036 7.7534V7.964C44.3036 8.55494 43.9822 8.97392 43.2342 8.97392C42.4858 8.97392 42.1953 8.56089 42.1953 7.99594Z" fill="white"/>
<path d="M16.8516 10.6509H18.5732V11.2422H17.5852V12.4746H18.3211V13.0596H17.5852V14.9595H16.8516V10.6509Z" fill="white"/>
<path fill-rule="evenodd" clip-rule="evenodd" d="M18.8359 11.7638V13.8478C18.8359 14.5149 19.1713 15.01 19.9438 15.01C20.7241 15.01 21.0599 14.5149 21.0599 13.8478V11.7638C21.0599 11.0904 20.7241 10.6016 19.9438 10.6016C19.1713 10.6016 18.8359 11.0904 18.8359 11.7638ZM20.3261 11.6493V13.9618C20.3261 14.2226 20.2101 14.4068 19.9459 14.4068C19.6878 14.4068 19.5718 14.2226 19.5718 13.9618V11.6493C19.5718 11.3889 19.6878 11.2043 19.9459 11.2043C20.2101 11.2043 20.3261 11.3889 20.3261 11.6493Z" fill="white"/>
<path fill-rule="evenodd" clip-rule="evenodd" d="M22.2104 14.9601V12.9841L22.9015 14.9601H23.6743L22.9727 13.0023C23.3917 12.9079 23.5583 12.6334 23.5583 12.1706V11.6176C23.5583 11.0144 23.2877 10.6519 22.5461 10.6519H21.4767V14.9601H22.2104ZM22.2089 12.5833V11.2428H22.4546C22.707 11.2428 22.8144 11.3572 22.8144 11.5916V12.2267C22.8144 12.4551 22.707 12.5833 22.4546 12.5833H22.2089Z" fill="white"/>
<path d="M24.5469 10.6509H26.501V11.2422H25.8947V14.9595H25.1528V11.2422H24.5469V10.6509Z" fill="white"/>
<path d="M28.2873 13.0596H27.5774V14.9595H26.8438V10.6509H27.5774V12.4742H28.2873V10.6509H29.0293V14.9595H28.2873V13.0596Z" fill="white"/>
<path d="M29.4453 10.6509H31.1997V11.2422H30.1793V12.4746H30.9092V13.0596H30.1793V14.3681H31.1997V14.9595H29.4453V10.6509Z" fill="white"/>
<path d="M33.3835 12.6596H34.428V14.9603H33.8975V14.4893C33.8022 14.8139 33.5949 15.0104 33.1962 15.0104C32.564 15.0104 32.2734 14.5153 32.2734 13.8482V11.7638C32.2734 11.0904 32.6028 10.6016 33.3771 10.6016C34.1884 10.6016 34.428 11.0443 34.428 11.6817V12.0628H33.7573V11.6237C33.7573 11.357 33.6537 11.2048 33.3896 11.2048C33.125 11.2048 33.0094 11.3894 33.0094 11.6497V13.9622C33.0094 14.2226 33.119 14.4072 33.3711 14.4072C33.6092 14.4072 33.7309 14.275 33.7309 13.9942V13.2309H33.3835V12.6596Z" fill="white"/>
<path fill-rule="evenodd" clip-rule="evenodd" d="M34.8438 11.7638V13.8478C34.8438 14.5149 35.1787 15.01 35.9516 15.01C36.732 15.01 37.0654 14.5149 37.0654 13.8478V11.7638C37.0654 11.0904 36.732 10.6016 35.9516 10.6016C35.1787 10.6016 34.8438 11.0904 34.8438 11.7638ZM36.334 11.6493V13.9618C36.334 14.2226 36.2179 14.4068 35.9538 14.4068C35.6956 14.4068 35.5796 14.2226 35.5796 13.9618V11.6493C35.5796 11.3889 35.6956 11.2043 35.9538 11.2043C36.2179 11.2043 36.334 11.3889 36.334 11.6493Z" fill="white"/>
<path fill-rule="evenodd" clip-rule="evenodd" d="M38.0986 10.6504L37.2734 14.9608H37.9705L38.0986 14.1734H38.8793L39.0158 14.9608H39.7679L38.9385 10.6504H38.0986ZM38.7819 13.594H38.194L38.4846 11.8646H38.491L38.7819 13.594Z" fill="white"/>
<path d="M40.0703 10.6509H40.804V14.3681H41.6819V14.9595H40.0703V10.6509Z" fill="white"/>
<path d="M41.9453 14.0324V13.4533H42.6281V14.0446C42.6281 14.2872 42.7381 14.4272 42.9898 14.4272C43.222 14.4272 43.3256 14.2727 43.3256 14.0446V13.8801C43.3256 13.6316 43.222 13.4793 42.9962 13.2709L42.5633 12.8442C42.1443 12.4374 41.9513 12.1908 41.9513 11.6938V11.5475C41.9513 11.0145 42.2682 10.5996 42.9819 10.5996C43.7178 10.5996 44.0087 10.9566 44.0087 11.5794V11.9282H43.3376V11.5534C43.3376 11.305 43.222 11.1846 42.9898 11.1846C42.7848 11.1846 42.6405 11.299 42.6405 11.5416V11.6296C42.6405 11.8703 42.7766 12.0125 42.9898 12.215L43.4601 12.6718C43.8603 13.0726 44.0536 13.3151 44.0536 13.7902V14.0004C44.0536 14.5914 43.7299 15.0103 42.9819 15.0103C42.2358 15.0103 41.9453 14.5973 41.9453 14.0324Z" fill="white"/>
</svg>
