<svg width="76" height="76" viewBox="0 0 76 76" fill="none" xmlns="http://www.w3.org/2000/svg">
<circle cx="38" cy="38" r="38" fill="white"/>
<circle cx="37.9998" cy="38" r="34.2" fill="url(#paint0_linear_3001_24646)"/>
<g clip-path="url(#clip0_3001_24646)">
<path d="M57.0697 31.8778H55.5547C55.5547 26.5116 51.1938 22.1366 45.8135 22.1366V20.6216C52.015 20.6216 57.0555 25.6621 57.0555 31.8636" fill="#00AFD5"/>
<path fill-rule="evenodd" clip-rule="evenodd" d="M57.7762 44.0825V40.6844L53.3869 39.1694C53.1462 38.2208 52.8064 37.3004 52.3392 36.4651L54.3356 32.3732L51.9286 29.9662L47.9075 31.9201C47.058 31.4246 46.1235 31.0281 45.1466 30.7591L43.7165 26.6389H40.3184L38.8884 30.7591C37.9398 31.014 37.0336 31.3962 36.1982 31.8776L32.2763 29.9662L29.8693 32.3732L31.7807 36.3235C31.2993 37.173 30.9312 38.0933 30.6763 39.0703L26.4146 40.5428V43.9409L30.7613 45.4417C31.0303 46.362 31.4267 47.2257 31.9081 48.0469L29.8551 52.2662L32.2621 54.6732L36.6655 52.5352C37.3593 52.8892 38.0955 53.1724 38.8742 53.3848L40.4742 58.0005H43.8723L45.5005 53.2857C46.166 53.0733 46.8173 52.8043 47.4261 52.4786L51.9144 54.6591L54.3214 52.2521L52.1976 47.8912C52.5941 47.1974 52.9197 46.4611 53.1746 45.6824L57.762 44.0966L57.7762 44.0825Z" fill="#A0D8EA"/>
<path fill-rule="evenodd" clip-rule="evenodd" d="M42.1022 30.4195V27.9417L38.9023 26.8373C38.7324 26.1436 38.4776 25.4781 38.1378 24.8693L39.5819 21.8959L37.8404 20.1544L34.9096 21.5845C34.2866 21.2163 33.607 20.9332 32.899 20.7349L31.8654 17.7333H29.3877L28.3541 20.7349C27.6603 20.919 27.009 21.2022 26.4002 21.542L23.5401 20.1544L21.7986 21.8959L23.2003 24.7702C22.8463 25.3932 22.5773 26.0586 22.3932 26.7666L19.2925 27.8426V30.3204L22.464 31.4106C22.6623 32.0761 22.9454 32.7132 23.2994 33.3079L21.7986 36.3803L23.5401 38.136L26.7541 36.5786C27.2638 36.8334 27.8019 37.0458 28.3541 37.2015L29.5151 40.5572H31.9929L33.1822 37.1307C33.6778 36.975 34.1308 36.7768 34.5839 36.5502L37.8546 38.136L39.5961 36.3803L38.0528 33.2088C38.336 32.6991 38.5908 32.161 38.7607 31.6088L42.1022 30.4478V30.4195Z" fill="#00AFD5"/>
<path d="M42.0998 38.9164L38.7158 42.3004L42.0998 45.6844L45.4838 42.3004L42.0998 38.9164Z" fill="#00AFD5"/>
<path d="M30.7087 26.9848L28.5762 29.1173L30.7087 31.2498L32.8412 29.1173L30.7087 26.9848Z" fill="#A0D8EA"/>
</g>
<defs>
<linearGradient id="paint0_linear_3001_24646" x1="37.9998" y1="3.80005" x2="37.9998" y2="72.2" gradientUnits="userSpaceOnUse">
<stop stop-color="#F6F6F6"/>
<stop offset="0.5" stop-color="white"/>
</linearGradient>
<clipPath id="clip0_3001_24646">
<rect width="40.5333" height="40.5333" fill="white" transform="translate(17.7334 17.7333)"/>
</clipPath>
</defs>
</svg>
