<svg width="52" height="52" viewBox="0 0 52 52" fill="none" xmlns="http://www.w3.org/2000/svg">
<path d="M0 52H52V0H0V52Z" fill="#8E1737"/>
<path d="M35.7289 25.5238L30.4573 30.4675C30.258 30.6617 30.1562 30.8062 30.1562 31.2088V45.062C30.1562 45.2262 30.2904 45.3588 30.4573 45.3588H35.9038C36.068 45.3588 36.2026 45.2262 36.2026 45.062V25.6478C36.2026 25.4855 36.0722 25.1869 35.7289 25.5238Z" fill="white"/>
<path d="M20.5489 31.964L15.2776 36.9058C15.0802 37.1019 14.9766 37.2442 14.9766 37.6472V45.0639C14.9766 45.2262 15.1107 45.3584 15.2776 45.3584H20.7218C20.8884 45.3584 21.0225 45.2262 21.0225 45.0639V32.088C21.0225 31.9238 20.8925 31.6252 20.5489 31.964Z" fill="white"/>
<path d="M38.1283 19.5295C38.1301 19.4894 38.1161 19.4474 38.0833 19.4173C38.0551 19.3913 38.0204 19.3772 37.9857 19.375L37.9575 19.3772L37.9149 19.3791L33.8774 20.2768L33.8039 20.2828C33.7753 20.2891 33.747 20.3051 33.7244 20.3251C33.6656 20.3831 33.6656 20.4796 33.7244 20.5376L33.7711 20.5836L34.6943 21.4914L25.5457 30.5089L21.3213 26.343C21.2726 26.2969 21.1973 26.2969 21.1506 26.343L20.0039 27.4733L20.002 27.4751L13.2304 34.1482C13.1836 34.1961 13.1836 34.2723 13.2304 34.3183L14.3789 35.4486C14.4256 35.4969 14.5028 35.4969 14.5496 35.4486L21.2361 28.8598L24.3018 31.8817C24.3056 31.8858 24.3079 31.8899 24.312 31.8959L25.4586 33.0243C25.5073 33.0722 25.5826 33.0722 25.6316 33.0243L36.012 22.7918L36.9793 23.746C37.0384 23.8058 37.136 23.8058 37.1948 23.746C37.2235 23.7177 37.2378 23.6839 37.2397 23.6475V23.6357L38.1259 19.5737L38.1283 19.5295Z" fill="white"/>
<path d="M28.1727 32.8316L25.6213 35.3666C25.5742 35.4044 25.5034 35.4044 25.4585 35.3606L23.1472 33.0381C22.7244 32.6232 22.6328 32.9597 22.6328 33.122V45.0634C22.6328 45.2261 22.7647 45.3584 22.9316 45.3584H28.3781C28.5423 45.3584 28.6791 45.2261 28.6791 45.0634V32.9237C28.6791 32.7614 28.5465 32.4609 28.1727 32.8316Z" fill="white"/>
<path fill-rule="evenodd" clip-rule="evenodd" d="M10.0434 11.3174V12.4418C10.0434 14.007 9.28676 15.103 7.42079 15.103C5.57064 15.103 4.8125 14.007 4.8125 12.4418V11.3174C4.8125 10.3276 5.15201 9.61407 5.9712 9.2497C5.29218 8.91505 4.9832 8.29142 4.9832 7.45607V7.0293C4.9832 5.41805 5.8167 4.55225 7.42079 4.55225C9.04108 4.55225 9.88891 5.41805 9.88891 7.0293V7.45607C9.88891 8.30776 9.56372 8.91505 8.87038 9.2497C9.68769 9.61407 10.0434 10.3276 10.0434 11.3174ZM6.63281 6.92306C6.63281 6.2998 6.84797 5.93506 7.4196 5.93506C8.00516 5.93506 8.22258 6.2998 8.22258 6.92306V7.62246C8.22258 8.24534 8.00516 8.61232 7.4196 8.61232C6.84797 8.61232 6.63281 8.24534 6.63281 7.62246V6.92306ZM8.28217 12.6241C8.28217 13.2473 8.05043 13.6882 7.41814 13.6882C6.79979 13.6882 6.57031 13.2473 6.57031 12.6241V10.9527C6.57031 10.3275 6.79979 9.88666 7.41814 9.88666C8.05043 9.88666 8.28217 10.3275 8.28217 10.9527V12.6241Z" fill="white"/>
<path fill-rule="evenodd" clip-rule="evenodd" d="M16.0023 7.81745V5.82325C16.0023 5.15616 15.7257 4.66699 14.9385 4.66699H13.8047V8.97556H14.9385C15.7257 8.97556 16.0023 8.47859 16.0023 7.81745ZM15.2657 7.94555C15.2657 8.20592 15.1504 8.38421 14.8471 8.38421H14.5385V5.25641H14.8471C15.1504 5.25641 15.2657 5.43469 15.2657 5.68912V7.94555Z" fill="white"/>
<path d="M16.4219 4.66602H18.1759V5.25733H17.1555V6.48973H17.8854V7.07473H17.1555V8.38327H18.1759V8.97459H16.4219V4.66602Z" fill="white"/>
<path d="M18.5 7.86289V5.7788C18.5 5.10577 18.8233 4.61475 19.5958 4.61475C20.4089 4.61475 20.6346 5.06157 20.6346 5.69486V6.20372H19.9639V5.63877C19.9639 5.37209 19.8742 5.2198 19.6078 5.2198C19.3459 5.2198 19.2359 5.40403 19.2359 5.66477V7.97729C19.2359 8.23766 19.3459 8.42189 19.6078 8.42189C19.8742 8.42189 19.9639 8.25772 19.9639 8.00329V7.20769H20.6346V7.95129C20.6346 8.56823 20.3765 9.02732 19.5958 9.02732C18.8233 9.02732 18.5 8.53035 18.5 7.86289Z" fill="white"/>
<path d="M21.0469 4.66602H22.8009V5.25733H21.7828V6.48973H22.5104V7.07473H21.7828V8.38327H22.8009V8.97459H21.0469V4.66602Z" fill="white"/>
<path d="M23.8055 6.26773V8.97508H23.1875V4.6665H23.9091L24.7019 7.13948V4.6665H25.3138V8.97508H24.6695L23.8055 6.26773Z" fill="white"/>
<path d="M25.6484 4.66602H27.6022V5.25733H26.9963V8.97459H26.254V5.25733H25.6484V4.66602Z" fill="white"/>
<path d="M30.2052 6.31205L29.7923 8.97519H29.1031L28.5156 4.66699H29.2252L29.5669 7.39811H29.5726L29.9407 4.66699H30.5406L30.9472 7.39811H30.9532L31.2886 4.66699H31.9069L31.3395 8.97519H30.6442L30.2113 6.31205H30.2052Z" fill="white"/>
<path fill-rule="evenodd" clip-rule="evenodd" d="M32.1484 5.77917V7.86326C32.1484 8.53035 32.4819 9.02546 33.2563 9.02546C34.0366 9.02546 34.3724 8.53035 34.3724 7.86326V5.77917C34.3724 5.10392 34.0366 4.61475 33.2563 4.61475C32.4819 4.61475 32.1484 5.10392 32.1484 5.77917ZM33.6386 5.66475V7.97727C33.6386 8.23801 33.5226 8.42224 33.2584 8.42224C33.0003 8.42224 32.8843 8.23801 32.8843 7.97727V5.66475C32.8843 5.40438 33.0003 5.22015 33.2584 5.22015C33.5226 5.22015 33.6386 5.40438 33.6386 5.66475Z" fill="white"/>
<path fill-rule="evenodd" clip-rule="evenodd" d="M35.525 8.97422V6.99822L36.2142 8.97422H36.9889L36.2854 7.01642C36.7063 6.92207 36.8728 6.64982 36.8728 6.18479V5.63173C36.8728 5.02853 36.6023 4.66602 35.8607 4.66602H34.7891V8.97422H35.525ZM35.5212 6.5975V5.25702H35.7672C36.0171 5.25702 36.1267 5.37142 36.1267 5.60765V6.24279C36.1267 6.47159 36.0171 6.5975 35.7672 6.5975H35.5212Z" fill="white"/>
<path d="M38.0172 6.87824V8.97459H37.2812V4.66602H38.0172V6.55956L38.816 4.66602H39.5376L38.6879 6.60376L39.5583 8.97459H38.7836L38.0172 6.87824Z" fill="white"/>
<path fill-rule="evenodd" clip-rule="evenodd" d="M41.2237 4.6665L40.3984 8.97508H41.0933L41.2237 8.18765H42.0021L42.1386 8.97508H42.8926L42.0613 4.6665H41.2237ZM41.9069 7.60825H41.3191L41.6096 5.8811H41.616L41.9069 7.60825Z" fill="white"/>
<path d="M43.8133 6.26773V8.97508H43.1953V4.6665H43.9169L44.7097 7.13948V4.6665H45.3217V8.97508H44.6773L43.8133 6.26773Z" fill="white"/>
<path fill-rule="evenodd" clip-rule="evenodd" d="M47.9398 7.81745V5.82325C47.9398 5.15616 47.6628 4.66699 46.876 4.66699H45.7422V8.97556H46.876C47.6628 8.97556 47.9398 8.47859 47.9398 7.81745ZM47.2032 7.94555C47.2032 8.20592 47.0875 8.38421 46.7846 8.38421H46.476V5.25641H46.7846C47.0875 5.25641 47.2032 5.43469 47.2032 5.68912V7.94555Z" fill="white"/>
<path d="M13.8047 10.7012H15.5591V11.2925H14.5406V12.5249H15.2686V13.1099H14.5406V14.4184H15.5591V15.0097H13.8047V10.7012Z" fill="white"/>
<path d="M15.8906 13.899V11.8131C15.8906 11.1419 16.2136 10.6509 16.986 10.6509C17.7992 10.6509 18.0249 11.0955 18.0249 11.731V12.2399H17.3542V11.6749C17.3542 11.4082 17.2645 11.2559 16.9981 11.2559C16.7362 11.2559 16.6243 11.4383 16.6243 11.6987V14.0134C16.6243 14.2738 16.7362 14.458 16.9981 14.458C17.2645 14.458 17.3542 14.292 17.3542 14.0376V13.2438H18.0249V13.9874C18.0249 14.6044 17.7668 15.0612 16.986 15.0612C16.2136 15.0612 15.8906 14.5665 15.8906 13.899Z" fill="white"/>
<path fill-rule="evenodd" clip-rule="evenodd" d="M18.4297 11.8131V13.8994C18.4297 14.5646 18.7632 15.0616 19.5375 15.0616C20.3183 15.0616 20.6536 14.5646 20.6536 13.8994V11.8131C20.6536 11.1401 20.3183 10.6509 19.5375 10.6509C18.7632 10.6509 18.4297 11.1401 18.4297 11.8131ZM19.9197 11.699V14.0134C19.9197 14.2741 19.8037 14.4584 19.5395 14.4584C19.2814 14.4584 19.1657 14.2741 19.1657 14.0134V11.699C19.1657 11.4383 19.2814 11.2563 19.5395 11.2563C19.8037 11.2563 19.9197 11.4383 19.9197 11.699Z" fill="white"/>
<path d="M21.6905 12.3034V15.0107H21.0703V10.7021H21.7942L22.5851 13.1751V10.7021H23.1993V15.0107H22.5546L21.6905 12.3034Z" fill="white"/>
<path fill-rule="evenodd" clip-rule="evenodd" d="M23.6094 11.8131V13.8994C23.6094 14.5646 23.9447 15.0616 24.7172 15.0616C25.498 15.0616 25.8333 14.5646 25.8333 13.8994V11.8131C25.8333 11.1401 25.498 10.6509 24.7172 10.6509C23.9447 10.6509 23.6094 11.1401 23.6094 11.8131ZM25.0994 11.699V14.0134C25.0994 14.2741 24.9833 14.4584 24.7192 14.4584C24.4633 14.4584 24.3454 14.2741 24.3454 14.0134V11.699C24.3454 11.4383 24.4633 11.2563 24.7192 11.2563C24.9833 11.2563 25.0994 11.4383 25.0994 11.699Z" fill="white"/>
<path d="M28.2824 12.214H28.2621L27.7662 15.0116H27.4248L26.8777 12.214H26.8633V15.0116H26.2578V10.7012H27.1154L27.5932 13.1296H27.5996L28.0243 10.7012H28.9531V15.0116H28.2824V12.214Z" fill="white"/>
<path d="M29.3701 15.0102H30.106V10.7017H29.3701V15.0102Z" fill="white"/>
<path d="M30.5234 13.899V11.8131C30.5234 11.1419 30.8464 10.6509 31.6211 10.6509C32.432 10.6509 32.6581 11.0955 32.6581 11.731V12.2399H31.987V11.6749C31.987 11.4082 31.8973 11.2559 31.6331 11.2559C31.369 11.2559 31.2594 11.4383 31.2594 11.6987V14.0134C31.2594 14.2738 31.369 14.458 31.6331 14.458C31.8973 14.458 31.987 14.292 31.987 14.0376V13.2438H32.6581V13.9874C32.6581 14.6044 32.3996 15.0612 31.6211 15.0612C30.8464 15.0612 30.5234 14.5665 30.5234 13.899Z" fill="white"/>
<path d="M34.8422 12.7104H35.8867V15.0111H35.3584V14.5419C35.2627 14.8647 35.0555 15.0612 34.6549 15.0612C34.0249 15.0612 33.7344 14.5661 33.7344 13.8986V11.8145C33.7344 11.1411 34.0614 10.6523 34.8358 10.6523C35.6474 10.6523 35.8867 11.0951 35.8867 11.7325V12.1135H35.216V11.6741C35.216 11.4078 35.1128 11.2555 34.8482 11.2555C34.5837 11.2555 34.468 11.4401 34.468 11.7005V14.013C34.468 14.2734 34.5781 14.458 34.8301 14.458C35.0679 14.458 35.1896 14.3258 35.1896 14.045V13.2835H34.8422V12.7104Z" fill="white"/>
<path fill-rule="evenodd" clip-rule="evenodd" d="M37.0387 15.0108V13.0348L37.7279 15.0108H38.5026L37.801 13.053C38.22 12.9587 38.3866 12.6842 38.3866 12.2214V11.6684C38.3866 11.0652 38.116 10.7026 37.3741 10.7026H36.3047V15.0108H37.0387ZM37.0368 12.6341V11.2936H37.2825C37.5327 11.2936 37.6424 11.408 37.6424 11.6424V12.2776C37.6424 12.506 37.5327 12.6341 37.2825 12.6341H37.0368Z" fill="white"/>
<path fill-rule="evenodd" clip-rule="evenodd" d="M38.7891 11.8131V13.8994C38.7891 14.5646 39.1244 15.0616 39.8969 15.0616C40.6776 15.0616 41.0111 14.5646 41.0111 13.8994V11.8131C41.0111 11.1401 40.6776 10.6509 39.8969 10.6509C39.1244 10.6509 38.7891 11.1401 38.7891 11.8131ZM40.2791 11.699V14.0134C40.2791 14.2741 40.163 14.4584 39.8989 14.4584C39.6408 14.4584 39.5251 14.2741 39.5251 14.0134V11.699C39.5251 11.4383 39.6408 11.2563 39.8989 11.2563C40.163 11.2563 40.2791 11.4383 40.2791 11.699Z" fill="white"/>
<path d="M42.9549 12.3482L42.5419 15.0113H41.8527L41.2656 10.7031H41.9748L42.3166 13.4342H42.3222L42.6903 10.7031H43.2902L43.6968 13.4342H43.7028L44.0382 10.7031H44.6566L44.0913 15.0113H43.3939L42.9609 12.3482H42.9549Z" fill="white"/>
<path d="M44.8828 10.7012H46.8366V11.2925H46.2307V15.0097H45.4883V11.2925H44.8828V10.7012Z" fill="white"/>
<path d="M48.6233 13.1104H47.9133V15.0102H47.1797V10.7017H47.9133V12.5254H48.6233V10.7017H49.3652V15.0102H48.6233V13.1104Z" fill="white"/>
</svg>
