<svg width="60" height="60" viewBox="0 0 76 76" fill="none" xmlns="http://www.w3.org/2000/svg">
<circle cx="38" cy="38" r="38" fill="white"/>
<circle cx="37.9998" cy="37.9969" r="34.2" fill="url(#paint0_linear_349_47798)"/>
<path d="M18.4793 57.7936L56.8176 39.744C57.3684 39.4847 58 39.888 58 40.4993V58.5468C58 59.0078 57.6274 59.3824 57.1687 59.3824H18.8305C17.9449 59.3824 17.6747 58.1702 18.4793 57.7936Z" fill="#ADC2DF"/>
<path d="M35.2417 20.5093C35.221 20.5078 35.2004 20.5078 35.182 20.5078C34.7415 20.5078 34.3686 20.7356 34.3399 21.0322C34.3078 21.3426 34.66 21.6124 35.127 21.633C35.5847 21.656 35.9931 21.419 36.0253 21.1086C36.0436 20.9588 35.9702 20.8136 35.8199 20.7004C35.6731 20.5873 35.4677 20.5193 35.2417 20.5093Z" fill="#2E82C6"/>
<path d="M42.7686 31.8325C42.6472 31.9079 42.5138 31.944 42.3804 31.944C42.1265 31.944 41.8797 31.8108 41.7383 31.5702L40.0538 28.6932H35.8031C35.1329 28.6932 34.5882 28.1325 34.5882 27.4427V23.2254C33.6682 22.8857 33.0341 21.9583 33.1034 20.9071C33.1445 20.2917 33.4144 19.7299 33.8638 19.3251C34.3163 18.9203 34.8962 18.7272 35.4891 18.7613C36.088 18.8036 36.6328 19.0824 37.028 19.5451C37.4213 20.0098 37.616 20.6035 37.5748 21.219C37.5106 22.1618 36.9016 22.929 36.091 23.2285V23.9968H39.4419C39.8582 23.9968 40.1943 24.3427 40.1943 24.7692C40.1943 25.1967 39.8582 25.5416 39.4419 25.5416H36.091V27.1474H40.1612C40.6156 27.1474 41.045 27.3962 41.2808 27.7979L43.0224 30.772C43.2381 31.1365 43.1228 31.6125 42.7686 31.8325ZM39.6576 31.2718C38.6894 32.3467 37.321 32.9632 35.8984 32.9632C33.0753 32.9632 30.7788 30.5985 30.7788 27.6936C30.7788 26.2015 31.3958 24.7744 32.4743 23.7758C32.7823 23.4908 33.2579 23.5145 33.5327 23.8336C33.8096 24.1506 33.7866 24.6391 33.4786 24.9241C32.7161 25.6304 32.2787 26.6393 32.2787 27.6936C32.2787 29.7465 33.9019 31.4174 35.8984 31.4174C36.9177 31.4174 37.8627 30.9929 38.554 30.2226C38.8359 29.9066 39.3114 29.8901 39.6144 30.1792C39.9194 30.4694 39.9375 30.9578 39.6576 31.2718ZM43.1047 16H30.0786C28.3861 16 27.0137 17.4127 27.0137 19.1547V32.5636C27.0137 34.3067 28.3861 35.7183 30.0786 35.7183H43.1047C44.7972 35.7183 46.1686 34.3067 46.1686 32.5636V19.1547C46.1686 17.4127 44.7972 16 43.1047 16Z" fill="#2E82C6"/>
<path d="M38.8449 37.4062H34.3379V48.1105L38.8449 46.1992V37.4062Z" fill="#2E82C6"/>
<defs>
<linearGradient id="paint0_linear_349_47798" x1="37.9998" y1="3.79687" x2="37.9998" y2="72.1969" gradientUnits="userSpaceOnUse">
<stop stop-color="#F6F6F6"/>
<stop offset="0.5" stop-color="white"/>
</linearGradient>
</defs>
</svg>
