<svg width="78" height="78" viewBox="0 0 78 78" fill="none" xmlns="http://www.w3.org/2000/svg">
<g clip-path="url(#clip0_1770_71461)">
<path fill-rule="evenodd" clip-rule="evenodd" d="M39 76C59.4345 76 76 59.4345 76 39C76 18.5655 59.4345 2 39 2C18.5655 2 2 18.5655 2 39C2 59.4345 18.5655 76 39 76ZM39 78C60.5391 78 78 60.5391 78 39C78 17.4609 60.5391 0 39 0C17.4609 0 0 17.4609 0 39C0 60.5391 17.4609 78 39 78Z" fill="#F6F6F6"/>
<path opacity="0.7" d="M73.6667 39.0002C73.6667 58.146 58.1459 73.6668 39 73.6668C19.8542 73.6668 4.33337 58.146 4.33337 39.0002C4.33337 19.8543 19.8542 4.3335 39 4.3335C58.1459 4.3335 73.6667 19.8543 73.6667 39.0002Z" fill="#E7E7E7"/>
<path d="M68 39C68 55.0163 55.0163 68 39 68C22.9837 68 10 55.0163 10 39C10 22.9837 22.9837 10 39 10C55.0163 10 68 22.9837 68 39Z" fill="white"/>
<path fill-rule="evenodd" clip-rule="evenodd" d="M46.9651 34.0187V31.1114L43.1819 29.7911C42.9787 28.9786 42.674 28.1915 42.2805 27.4679L43.9944 23.9512L41.925 21.8819L38.4592 23.5704C37.7228 23.1387 36.923 22.7959 36.0851 22.5674L34.8664 19H31.9464L30.7149 22.542C29.9024 22.7705 29.1153 23.0879 28.3917 23.5069L25.0147 21.8565L22.9453 23.9258L24.6084 27.3155C24.1895 28.0645 23.8721 28.8517 23.6563 29.6769L19.9873 30.9591V33.879L23.7325 35.174C23.9737 35.9611 24.3038 36.7101 24.7227 37.4211L22.958 41.0393L25.0274 43.1086L28.8233 41.2678C29.42 41.5725 30.0548 41.8137 30.7276 42.0041L32.0861 45.9778H35.006L36.4025 41.928C36.9738 41.7502 37.5324 41.4963 38.0656 41.2297L41.925 43.1086L43.9944 41.0393L42.1662 37.2814C42.509 36.6847 42.7883 36.05 43.0041 35.3771L46.9524 34.006L46.9651 34.0187ZM33.4699 35.4025L30.5626 32.4952L33.4699 29.5753L36.3898 32.4952L33.4699 35.4025Z" fill="url(#paint0_linear_1770_71461)"/>
<path fill-rule="evenodd" clip-rule="evenodd" d="M42.9287 47.5H51.6759V52.3014H51.6739C51.6731 54.7128 49.7183 56.6798 47.294 56.6798C44.8692 56.6798 42.9141 54.7247 42.9141 52.2998C42.9141 52.1779 42.919 52.0571 42.9287 51.9377V47.5Z" fill="url(#paint1_linear_1770_71461)"/>
<path fill-rule="evenodd" clip-rule="evenodd" d="M42.5459 51.6778L52.0548 51.043V49.7227L42.5459 50.3574V51.6778ZM42.5459 54.0518L52.0548 53.417V52.1094L42.5459 52.7441V54.0518Z" fill="url(#paint2_linear_1770_71461)"/>
<path d="M57.7945 38.1578C57.7945 43.9596 53.0972 48.6442 47.3081 48.6442C41.519 48.6442 36.809 43.9469 36.809 38.1578C36.809 32.3687 41.5063 27.6714 47.3081 27.6714C53.1099 27.6714 57.7945 32.3687 57.7945 38.1578Z" fill="url(#paint3_linear_1770_71461)"/>
<path d="M48.5645 39.1846H46.0508L45.5049 32.4814H49.0977L48.5645 39.1846Z" fill="url(#paint4_linear_1770_71461)"/>
<path d="M48.5647 40.7607H46.0256V43.2998H48.5647V40.7607Z" fill="url(#paint5_linear_1770_71461)"/>
<path d="M25.5358 46.2954L26.8942 45.8511C28.4557 50.6499 33.6355 53.2906 38.447 51.7291L38.8914 53.0875C33.3435 54.8902 27.3512 51.8433 25.5485 46.2954" fill="url(#paint6_linear_1770_71461)"/>
</g>
<defs>
<linearGradient id="paint0_linear_1770_71461" x1="46.4572" y1="19" x2="46.4572" y2="45.9778" gradientUnits="userSpaceOnUse">
<stop stop-color="#115B99"/>
<stop offset="0.591097" stop-color="#094A95"/>
</linearGradient>
<linearGradient id="paint1_linear_1770_71461" x1="51.509" y1="47.9199" x2="51.509" y2="56.6798" gradientUnits="userSpaceOnUse">
<stop stop-color="#115B99"/>
<stop offset="0.591097" stop-color="#094A95"/>
</linearGradient>
<linearGradient id="paint2_linear_1770_71461" x1="57.5" y1="50.7118" x2="37" y2="50.7118" gradientUnits="userSpaceOnUse">
<stop stop-color="#EFF5FB"/>
<stop offset="0.895072" stop-color="#B9BFDE"/>
</linearGradient>
<linearGradient id="paint3_linear_1770_71461" x1="47.3017" y1="12.5813" x2="47.3017" y2="60.6913" gradientUnits="userSpaceOnUse">
<stop offset="0.157741" stop-color="#EFF5FB"/>
<stop offset="0.81246" stop-color="#B9BFDE"/>
</linearGradient>
<linearGradient id="paint4_linear_1770_71461" x1="49.03" y1="32.4814" x2="49.03" y2="39.1846" gradientUnits="userSpaceOnUse">
<stop stop-color="#115B99"/>
<stop offset="0.591097" stop-color="#094A95"/>
</linearGradient>
<linearGradient id="paint5_linear_1770_71461" x1="48.5169" y1="40.7607" x2="48.5169" y2="43.2998" gradientUnits="userSpaceOnUse">
<stop stop-color="#115B99"/>
<stop offset="0.591097" stop-color="#094A95"/>
</linearGradient>
<linearGradient id="paint6_linear_1770_71461" x1="56.9996" y1="51.4995" x2="19.4996" y2="51.4995" gradientUnits="userSpaceOnUse">
<stop offset="0.136668" stop-color="#EFF5FB"/>
<stop offset="1" stop-color="#B9BFDE"/>
</linearGradient>
<clipPath id="clip0_1770_71461">
<rect width="78" height="78" fill="white"/>
</clipPath>
</defs>
</svg>
