<svg width="60" height="60" viewBox="0 0 76 76" fill="none" xmlns="http://www.w3.org/2000/svg">
<circle cx="38" cy="38" r="38" fill="white"/>
<circle cx="37.9998" cy="37.9969" r="34.2" fill="url(#paint0_linear_349_47778)"/>
<path d="M54.9118 49.4417C54.9118 52.7301 52.279 55.3966 49.0343 55.3966H26.9685C23.721 55.3966 21.092 52.7301 21.092 49.4417V27.0866C21.092 23.7953 23.721 21.1317 26.9685 21.1317H49.0343C52.279 21.1317 54.9118 23.7953 54.9118 27.0866V49.4417ZM49.7035 18H26.2965C21.7144 18 18 21.7633 18 26.4057V50.1197C18 54.7621 21.7144 58.5263 26.2965 58.5263H49.7035C54.2856 58.5263 58 54.7621 58 50.1197V26.4057C58 21.7633 54.2856 18 49.7035 18Z" fill="#ADC2DF"/>
<path d="M41.8314 43.0095C41.0134 46.0093 38.2409 48.2201 34.9459 48.2201C31.0094 48.2201 27.8164 45.0609 27.8164 41.1674C27.8164 38.2986 29.7204 35.7664 32.2154 34.6634V41.4021C32.2154 42.2902 32.9419 43.0095 33.841 43.0095H41.8314ZM45.3123 41.059C44.9214 40.4217 44.2254 40.0333 43.4713 40.0333H35.2215V37.0212H40.5796C41.4119 37.0212 42.085 36.3556 42.085 35.5326C42.085 34.7115 41.4119 34.0459 40.5796 34.0459H35.2215V30.3993C35.2215 30.2806 35.2072 30.1703 35.1805 30.0609C35.8097 29.6338 36.2492 28.9466 36.3055 28.133C36.4008 26.7208 35.3216 25.4971 33.8943 25.4009C32.4661 25.3066 31.2286 26.3738 31.1333 27.7851C31.0675 28.7222 31.527 29.5669 32.2564 30.0637C32.2316 30.1721 32.2154 30.2834 32.2154 30.3993V31.5193C28.0633 32.7666 24.8418 36.662 24.8418 41.1674C24.8418 46.6853 29.3666 51.1595 34.9459 51.1595C39.1266 51.1595 42.7124 48.6471 44.2502 45.0703L46.8663 49.3419C47.2963 50.0443 48.2211 50.2686 48.9314 49.8444C49.6417 49.4192 49.8686 48.5048 49.4386 47.8024L45.3123 41.059ZM48.0848 29.5113H46.2762V26.255H48.0848C48.9896 26.255 49.7294 26.9838 49.7294 27.8822C49.7294 28.7797 48.9896 29.5113 48.0848 29.5113ZM48.0848 24.8438H45.563C45.1674 24.8438 44.848 25.1596 44.848 25.5508V33.5707C44.848 33.9592 45.1674 34.275 45.563 34.275C45.9558 34.275 46.2762 33.9592 46.2762 33.5707V30.9207H48.0848C49.778 30.9207 51.1576 29.5594 51.1576 27.8822C51.1576 26.207 49.778 24.8438 48.0848 24.8438Z" fill="#2E82C6"/>
<defs>
<linearGradient id="paint0_linear_349_47778" x1="37.9998" y1="3.79687" x2="37.9998" y2="72.1969" gradientUnits="userSpaceOnUse">
<stop stop-color="#F6F6F6"/>
<stop offset="0.5" stop-color="white"/>
</linearGradient>
</defs>
</svg>
