<svg width="30" height="30" viewBox="0 0 30 30" fill="none" xmlns="http://www.w3.org/2000/svg">
<path d="M16 27.3999C15.5 27.3999 15 26.9999 15 26.3999V11.3999C15 9.1999 16.8 7.3999 19 7.3999H20.7C21.2 7.3999 21.7 7.7999 21.7 8.3999C21.7 8.9999 21.3 9.3999 20.7 9.3999H19C17.9 9.3999 16.9 10.2999 16.9 11.4999V26.4999C16.9 26.8999 16.5 27.3999 16 27.3999Z" fill="white"/>
<path d="M18.7996 16H13.0996C12.5996 16 12.0996 15.6 12.0996 15C12.0996 14.4 12.4996 14 13.0996 14H18.7996C19.2996 14 19.7996 14.4 19.7996 15C19.7996 15.6 19.2996 16 18.7996 16Z" fill="white"/>
<path d="M24.0002 28.2999H6.0002C3.6002 28.2999 1.7002 26.4 1.7002 24V5.99995C1.7002 3.59995 3.6002 1.69995 6.0002 1.69995H24.0002C26.4002 1.69995 28.3002 3.59995 28.3002 5.99995V24C28.3002 26.4 26.4002 28.2999 24.0002 28.2999ZM6.0002 3.59995C4.7002 3.59995 3.6002 4.69995 3.6002 5.99995V24C3.6002 25.2999 4.7002 26.4 6.0002 26.4H24.0002C25.3002 26.4 26.4002 25.2999 26.4002 24V5.99995C26.4002 4.69995 25.3002 3.59995 24.0002 3.59995H6.0002Z" fill="white"/>
</svg>
