<svg width="68" height="68" viewBox="0 0 68 68" fill="none" xmlns="http://www.w3.org/2000/svg">
<g clip-path="url(#clip0_1222_34150)">
<path d="M44.4485 8.5H8.50146V44.4471H44.4485V8.5Z" fill="url(#paint0_linear_1222_34150)"/>
<path d="M49.646 46.5629L46.5624 49.6465L54.1001 57.1842L57.1837 54.1006L49.646 46.5629Z" fill="url(#paint1_linear_1222_34150)"/>
<path opacity="0.9" d="M57.9092 53.3873L53.4122 57.8843L64.0978 68.5699L68.5948 64.0729L57.9092 53.3873Z" fill="url(#paint2_linear_1222_34150)"/>
<path opacity="0.9" d="M52.1505 23.4295C59.9335 31.2125 59.9335 43.8106 52.1505 51.5936C44.3675 59.3766 31.7694 59.3766 23.9864 51.5936C16.2034 43.8106 16.2034 31.2125 23.9864 23.4295C31.7694 15.6465 44.3675 15.6465 52.1505 23.4295Z" fill="url(#paint3_linear_1222_34150)"/>
<path d="M38.0708 54.4102C33.7402 54.4102 29.4096 52.7749 26.1086 49.4739C22.9288 46.2941 21.1724 42.024 21.1724 37.5117C21.1724 32.9994 22.9288 28.7597 26.1086 25.5496C32.7105 18.9477 43.4311 18.9477 50.0027 25.5496C53.1825 28.7294 54.939 32.9994 54.939 37.5117C54.939 42.024 53.1825 46.2638 50.0027 49.4739C46.7017 52.7749 42.3711 54.4102 38.0405 54.4102M38.0708 22.8846C34.3156 22.8846 30.5907 24.3079 27.7137 27.1546C24.9579 29.9105 23.4134 33.6051 23.4134 37.5117C23.4134 41.4184 24.9276 45.0827 27.7137 47.8689C33.4374 53.5622 42.7043 53.5622 48.3976 47.8689C51.1535 45.113 52.698 41.4184 52.698 37.5117C52.698 33.6051 51.1838 29.9407 48.3976 27.1546C45.551 24.3079 41.7957 22.8846 38.0405 22.8846" fill="url(#paint4_linear_1222_34150)"/>
<path d="M43.5191 28.8784L40.2428 32.1548L43.5191 35.4311L46.7955 32.1548L43.5191 28.8784Z" fill="url(#paint5_linear_1222_34150)"/>
<path opacity="0.9" fill-rule="evenodd" clip-rule="evenodd" d="M23.3893 10.4536L21.333 11.4182L24.1109 17.3404L26.1672 16.3758L23.3893 10.4536ZM16.4391 14.8583L14.8367 16.468L19.4941 21.1043L21.0965 19.4946L16.4391 14.8583ZM10.4791 23.4419L11.4315 21.3799L17.37 24.1226L16.4177 26.1846L10.4791 23.4419Z" fill="url(#paint6_linear_1222_34150)"/>
</g>
<defs>
<linearGradient id="paint0_linear_1222_34150" x1="-3.64287" y1="32.7857" x2="44.9286" y2="32.7857" gradientUnits="userSpaceOnUse">
<stop stop-color="#B6CEE3"/>
<stop offset="1" stop-color="#3883C0"/>
</linearGradient>
<linearGradient id="paint1_linear_1222_34150" x1="48.1042" y1="48.1047" x2="55.6419" y2="55.6424" gradientUnits="userSpaceOnUse">
<stop stop-color="#B6CEE3"/>
<stop offset="1" stop-color="#3883C0"/>
</linearGradient>
<linearGradient id="paint2_linear_1222_34150" x1="55.6607" y1="55.6358" x2="66.3463" y2="66.3214" gradientUnits="userSpaceOnUse">
<stop stop-color="#DBE7F1"/>
<stop offset="1" stop-color="#92B6D5"/>
</linearGradient>
<linearGradient id="paint3_linear_1222_34150" x1="38.0685" y1="17.5923" x2="38.0685" y2="57.4308" gradientUnits="userSpaceOnUse">
<stop offset="0.49269" stop-color="#DBE7F1"/>
<stop offset="1" stop-color="#92B6D5"/>
</linearGradient>
<linearGradient id="paint4_linear_1222_34150" x1="38.0557" y1="20.5981" x2="38.0557" y2="54.4102" gradientUnits="userSpaceOnUse">
<stop stop-color="#B6CEE3"/>
<stop offset="1" stop-color="#3883C0"/>
</linearGradient>
<linearGradient id="paint5_linear_1222_34150" x1="40.0714" y1="32.1785" x2="46.75" y2="32.1785" gradientUnits="userSpaceOnUse">
<stop stop-color="#3883C0"/>
<stop offset="1" stop-color="#B6CEE3"/>
</linearGradient>
<linearGradient id="paint6_linear_1222_34150" x1="20.6428" y1="21.8571" x2="9.71427" y2="10.9285" gradientUnits="userSpaceOnUse">
<stop offset="0.0287402" stop-color="#DBE7F1"/>
<stop offset="1" stop-color="#92B6D5"/>
</linearGradient>
<clipPath id="clip0_1222_34150">
<rect width="68" height="68" fill="white"/>
</clipPath>
</defs>
</svg>
