<?xml version="1.0" encoding="UTF-8"?>
<svg width="16px" height="16px" viewBox="0 0 16 16" version="1.1" xmlns="http://www.w3.org/2000/svg" xmlns:xlink="http://www.w3.org/1999/xlink">
    <!-- Generator: Sketch 63.1 (92452) - https://sketch.com -->
    <title>icon/language</title>
    <desc>Created with Sketch.</desc>
    <g id="NANYA-HOME" stroke="none" stroke-width="1" fill="none" fill-rule="evenodd">
        <g id="Nanya首頁正式中文" transform="translate(-1648.000000, -26.000000)" fill="#000000">
            <g id="keyvisual" transform="translate(0.000000, -5.000000)">
                <g id="header">
                    <g id="global-copy" transform="translate(1631.000000, 19.000000)">
                        <g id="icon/language" transform="translate(15.000000, 10.000000)">
                            <g id="global" transform="translate(2.500000, 2.500000)">
                                <path d="M7.5,0 C3.35791016,0 0,3.35791016 0,7.5 C0,11.6420898 3.35791016,15 7.5,15 C11.6420898,15 15,11.6420898 15,7.5 C14.9953613,3.35986328 11.6401367,0.0046386875 7.5,0 Z M13.9864502,10.1274414 L11.8535156,10.4954834 C12.0976562,9.60009766 12.2294922,8.67785644 12.2459717,7.75 L14.4937744,7.75 C14.4655762,8.56616212 14.2938232,9.37097169 13.9864502,10.1274414 L13.9864502,10.1274414 Z M0.506225594,7.75 L2.75402831,7.75 C2.77050781,8.67785644 2.90234375,9.60009766 3.14648438,10.4954834 L1.01354981,10.1274414 C0.70617675,9.37097169 0.534423813,8.56616212 0.506225594,7.75 Z M1.01354981,4.87255859 L3.14648438,4.50451659 C2.90234375,5.39990234 2.77050781,6.32214356 2.75402831,7.25 L0.506225594,7.25 C0.534423813,6.43383787 0.70617675,5.62902831 1.01354981,4.87255859 Z M7.75,4.01403809 C8.64831544,4.02551269 9.54443359,4.10729981 10.4300537,4.25878906 L11.3125,4.41101075 C11.5836182,5.33361816 11.7294922,6.28845216 11.7462158,7.25 L7.75,7.25 L7.75,4.01403809 Z M10.5152588,3.76599122 C9.6015625,3.60986328 8.67687988,3.52551269 7.75,3.51403809 L7.75,0.514038094 C9.18322753,0.651733406 10.4282227,1.96398925 11.1337891,3.87377931 L10.5152588,3.76599122 Z M7.25,3.51403809 C6.32312013,3.52551269 5.39868163,3.60986328 4.48498534,3.76599122 L3.86621094,3.87304687 C4.57177734,1.96276856 5.81677247,0.650024406 7.25,0.512939438 L7.25,3.51403809 Z M4.57019044,4.25878906 C5.45568847,4.10729981 6.35168456,4.02551269 7.25,4.01403809 L7.25,7.25 L3.25378419,7.25 C3.27050781,6.28845216 3.41638184,5.33361816 3.6875,4.41101075 L4.57019044,4.25878906 Z M3.25378419,7.75 L7.25,7.75 L7.25,10.9859619 C6.35168456,10.9744873 5.45556641,10.8927002 4.56994628,10.7412109 L3.6875,10.5889893 C3.41638184,9.66638184 3.27050781,8.71154784 3.25378419,7.75 L3.25378419,7.75 Z M4.48474122,11.2340088 C5.3984375,11.3903809 6.32299806,11.4750977 7.25,11.4873047 L7.25,14.4873047 C5.81677247,14.3494873 4.57177734,13.0372314 3.86621094,11.1274414 L4.48474122,11.2340088 Z M7.75,11.4873047 C8.67687988,11.4750977 9.60131838,11.3903809 10.5150147,11.2340088 L11.1337891,11.1269531 C10.4282227,13.0372314 9.18322753,14.3499756 7.75,14.4870606 L7.75,11.4873047 Z M10.4298096,10.7412109 C9.54431153,10.8927002 8.64831544,10.9744873 7.75,10.9859619 L7.75,7.75 L11.7462158,7.75 C11.7294922,8.71154784 11.5836182,9.66638184 11.3125,10.5889892 L10.4298096,10.7412109 Z M12.2459717,7.25 C12.2294922,6.32214356 12.0976563,5.39990234 11.8535156,4.50451659 L13.9864502,4.87255859 C14.2938232,5.62902831 14.4655762,6.43383787 14.4937744,7.25 L12.2459717,7.25 Z M13.7335205,4.32153319 L11.6889648,3.96875 C11.3214111,2.76965331 10.6337891,1.69348144 9.69995119,0.856201187 C11.446167,1.43896484 12.8942871,2.68298341 13.7335205,4.32153319 Z M5.30004881,0.856201187 C4.36621094,1.69348144 3.67858887,2.76965331 3.31103516,3.96875 L1.2664795,4.32153319 C2.10571288,2.68298341 3.553833,1.43896484 5.30004881,0.856201187 Z M1.2664795,10.6784668 L3.31103516,11.03125 C3.67858887,12.2303467 4.36621094,13.3065186 5.30004881,14.1437988 C3.553833,13.5610352 2.10571288,12.3170166 1.2664795,10.6784668 Z M9.69995119,14.1437988 C10.6337891,13.3065186 11.3214111,12.2303467 11.6889648,11.03125 L13.7335205,10.6784668 C12.8942871,12.3170166 11.446167,13.5610352 9.69995119,14.1437988 Z" id="Shape" fill-rule="nonzero"></path>
                            </g>
                        </g>
                    </g>
                </g>
            </g>
        </g>
    </g>
</svg>