<?xml version="1.0" encoding="UTF-8"?>
<svg width="155px" height="24px" viewBox="0 0 155 24" version="1.1" xmlns="http://www.w3.org/2000/svg" xmlns:xlink="http://www.w3.org/1999/xlink">
    <!-- Generator: Sketch 63.1 (92452) - https://sketch.com -->
    <title>logo/nanya_logo</title>
    <desc>Created with Sketch.</desc>
    <g id="NANYA-HOME" stroke="none" stroke-width="1" fill="none" fill-rule="evenodd">
        <g id="Nanya首頁正式中文" transform="translate(-90.000000, -15.000000)" fill="#02AED4">
            <g id="keyvisual" transform="translate(0.000000, -5.000000)">
                <g id="header">
                    <g id="logo/nanya_logo" transform="translate(90.000000, 20.000000)">
                        <g id="nanya_logo">
                            <path d="M99.6029,0.8291 L99.6029,8.8921 C99.7359,10.3891 100.6269,11.7051 101.9699,12.6491 C105.0679,14.3041 109.3499,14.3551 112.4999,12.9361 C113.9729,12.0461 114.9699,10.4681 115.0509,8.7901 L115.0509,0.8291 L119.8309,0.8291 L119.8309,12.3331 C120.0139,19.4011 117.0189,21.4211 113.9729,22.5791 C110.0869,24.0491 105.8559,24.0221 101.7309,22.9471 C99.4219,22.1841 97.2939,20.9221 95.8749,18.7971 L95.9549,18.6921 C98.0799,18.7971 99.9979,18.6921 102.0729,18.7431 C104.4899,19.9781 107.3249,20.2671 110.0869,19.6881 C111.5289,19.4251 113.0019,18.7971 114.0769,17.7461 C114.0769,17.7461 115.0229,16.7481 115.0229,15.5381 C113.8429,16.4581 113.1049,16.7721 111.4249,17.3251 C106.4849,18.8491 98.8709,17.6151 95.7709,12.3601 C94.7959,10.8881 94.7189,9.4441 94.6399,8.7351 L94.6399,0.8291 L99.6029,0.8291 Z M13.7631,4.5316 L24.0601,13.8296 L24.0601,0.8286 L28.9721,0.8286 L28.9721,14.2796 C28.8691,15.8006 27.8161,17.0376 26.5821,17.4276 C24.3221,18.2456 21.8541,17.7956 20.0681,16.3526 L7.5121,5.1916 C6.7771,4.7156 5.9361,4.7966 5.3591,5.2946 L5.33896345,5.31393364 C5.26934852,5.38603195 5.0431,5.66636923 5.0431,6.2646 L5.0431,17.6656 L0.0001,17.6656 L0.0001,5.2676 C0.1581,2.9316 2.4961,1.4076 4.5181,0.9606 C8.1431,0.1196 11.2951,1.9336 13.7631,4.5316 Z M77.618,4.5316 L87.915,13.8296 L87.915,0.8286 L92.828,0.8286 L92.828,14.2796 C92.722,15.8006 91.647,17.0376 90.437,17.4276 C88.153,18.2456 85.709,17.7956 83.923,16.3526 L71.394,5.1916 C70.658,4.7156 69.817,4.7966 69.213,5.2946 C69.213,5.2946 68.924,5.5576 68.924,6.2646 L68.924,17.6656 L63.882,17.6656 L63.882,5.2676 C64.04,2.9316 66.378,1.4076 68.372,0.9606 C72.024,0.1196 75.149,1.9336 77.618,4.5316 Z M45.9770268,0.855600228 C47.2788438,0.883614793 48.5192462,1.22394615 49.5134,1.8821 C49.5134,1.8821 50.2504,2.3791 50.9834,3.1671 L50.9834,3.1671 L62.7514,17.6661 L57.2644,17.6661 L47.2274,5.5331 C47.0434,5.3221 46.7024,5.0321 46.7024,5.0321 C46.3084,4.7691 45.9674,4.6641 45.6504,4.6641 C45.3634,4.6641 45.0234,4.7691 44.6274,5.0321 C44.6274,5.0321 44.2854,5.3221 44.1004,5.5331 L44.1004,5.5331 L34.0684,17.6661 L28.5794,17.6661 L40.3464,3.1671 C40.9525176,2.51815882 41.5396457,2.06657405 41.7279917,1.92740043 L41.7904,1.8821 C42.8954,1.1691 44.2604,0.8291 45.6504,0.8551 Z M138.226938,0.855600228 C139.526799,0.883614793 140.7699,1.22394615 141.7659,1.8821 C141.7659,1.8821 142.4989,2.3791 143.2339,3.1671 L143.2339,3.1671 L154.9999,17.6661 L149.5099,17.6661 L139.4799,5.5331 C139.2939,5.3221 138.9539,5.0321 138.9539,5.0321 C138.5569,4.7691 138.2159,4.6641 137.9009,4.6641 C137.6139,4.6641 137.2699,4.7691 136.8779,5.0321 C136.8779,5.0321 136.5369,5.3221 136.3529,5.5331 L136.3529,5.5331 L126.3179,17.6661 L120.8279,17.6661 L132.5969,3.1671 C133.242782,2.47180588 133.872315,2.00306886 134.011501,1.90240124 L134.0399,1.8821 C135.1439,1.1691 136.5099,0.8291 137.9009,0.8551 Z" id="Combined-Shape"></path>
                        </g>
                    </g>
                </g>
            </g>
        </g>
    </g>
</svg>